<svg width="920" height="167" viewBox="0 0 920 167" fill="none" xmlns="http://www.w3.org/2000/svg">
<g clip-path="url(#clip0_134_3216)">
<path d="M863.634 -12.5954C810.729 -57.5392 731.348 -51.0805 686.404 1.82481C641.461 54.7301 647.919 134.11 700.825 179.054C753.73 223.998 833.11 217.539 878.054 164.634C922.998 111.729 916.539 32.3484 863.634 -12.5954ZM711.982 155.801L763.044 95.6948L729.63 67.3092L857.085 14.5727L806.024 74.6793L838.189 102.004L711.982 155.801Z" fill="#F4F4F4" fill-opacity="0.45"/>
<path d="M0 1C0 0.447716 0.447715 0 1 0H137.696C138.248 0 138.696 0.447715 138.696 1V41C138.696 41.5523 138.248 42 137.696 42H0.999998C0.447713 42 0 41.5523 0 41V1Z" fill="#EBEBEB"/>
<path d="M30.7714 26.39C30.7714 25.97 30.8914 25.58 31.1314 25.22C31.3714 24.84 31.6314 24.49 31.9114 24.17C32.2114 23.83 32.4814 23.52 32.7214 23.24C32.9614 22.94 33.0814 22.65 33.0814 22.37C33.0814 22.17 32.9914 22.07 32.8114 22.07C32.0914 22.07 31.3714 22.29 30.6514 22.73C29.9314 23.15 29.2314 23.62 28.5514 24.14C27.8914 24.66 27.2514 25.14 26.6314 25.58C26.0314 26 25.4614 26.21 24.9214 26.21C24.6214 26.21 24.3414 26.14 24.0814 26C23.8214 25.84 23.5914 25.65 23.3914 25.43C23.1914 25.19 23.0314 24.93 22.9114 24.65C22.7914 24.37 22.7314 24.09 22.7314 23.81C22.7314 23.47 22.9614 23.1 23.4214 22.7C23.9014 22.3 24.4514 21.91 25.0714 21.53C25.6914 21.13 26.3114 20.77 26.9314 20.45C27.5514 20.13 28.0014 19.89 28.2814 19.73C28.8014 19.43 29.2814 19.09 29.7214 18.71C30.1814 18.31 30.6314 17.9 31.0714 17.48C31.9114 16.7 32.7614 15.91 33.6214 15.11C34.4814 14.29 35.2514 13.41 35.9314 12.47C36.0714 12.29 36.1914 12.1 36.2914 11.9C36.4114 11.68 36.4714 11.45 36.4714 11.21C36.4714 11.01 36.3814 10.91 36.2014 10.91C35.6814 10.91 35.1814 11.08 34.7014 11.42C34.2414 11.74 33.7714 12.1 33.2914 12.5C32.8114 12.88 32.3114 13.23 31.7914 13.55C31.2914 13.87 30.7414 14.03 30.1414 14.03C29.7214 14.03 29.3214 13.92 28.9414 13.7C28.5814 13.48 28.2614 13.2 27.9814 12.86C27.7214 12.5 27.5114 12.12 27.3514 11.72C27.2114 11.3 27.1414 10.89 27.1414 10.49C27.1414 10.37 27.1414 10.21 27.1414 10.01C27.1614 9.81002 27.1914 9.62002 27.2314 9.44002C27.2914 9.24002 27.3614 9.07002 27.4414 8.93002C27.5214 8.77002 27.6314 8.68002 27.7714 8.66002C27.9114 8.64002 28.0414 8.73002 28.1614 8.93002C28.2814 9.11002 28.4214 9.31002 28.5814 9.53003C28.7414 9.75002 28.9314 9.96002 29.1514 10.16C29.3914 10.34 29.6914 10.43 30.0514 10.43C30.7314 10.43 31.3814 10.32 32.0014 10.1C32.6214 9.88002 33.2314 9.65002 33.8314 9.41002C34.4514 9.15002 35.0714 8.91002 35.6914 8.69002C36.3114 8.47002 36.9614 8.36002 37.6414 8.36002C38.0214 8.36002 38.4414 8.46002 38.9014 8.66002C39.3814 8.84002 39.8114 9.09002 40.1914 9.41002C40.5914 9.73002 40.9214 10.09 41.1814 10.49C41.4614 10.89 41.6014 11.3 41.6014 11.72C41.6014 12.06 41.3214 12.46 40.7614 12.92C40.2214 13.36 39.5414 13.83 38.7214 14.33C37.9014 14.83 37.0114 15.35 36.0514 15.89C35.0914 16.41 34.2014 16.93 33.3814 17.45C32.5614 17.97 31.8714 18.47 31.3114 18.95C30.7714 19.43 30.5014 19.86 30.5014 20.24C30.5014 20.44 30.5914 20.54 30.7714 20.54C31.7914 20.54 32.7714 20.39 33.7114 20.09C34.6514 19.77 35.5814 19.43 36.5014 19.07C37.4414 18.69 38.3814 18.35 39.3214 18.05C40.2614 17.73 41.2414 17.57 42.2614 17.57C42.6214 17.57 43.0214 17.59 43.4614 17.63C43.9214 17.67 44.3514 17.77 44.7514 17.93C45.1714 18.07 45.5114 18.29 45.7714 18.59C46.0514 18.87 46.1914 19.25 46.1914 19.73C46.1914 20.23 46.0314 20.54 45.7114 20.66C45.3914 20.78 45.0314 20.84 44.6314 20.84C43.9714 20.84 43.2114 20.84 42.3514 20.84C41.4914 20.84 40.6114 20.88 39.7114 20.96C38.8314 21.04 37.9614 21.19 37.1014 21.41C36.2414 21.61 35.4714 21.91 34.7914 22.31C34.1114 22.71 33.5614 23.24 33.1414 23.9C32.7414 24.54 32.5414 25.34 32.5414 26.3C32.5414 27.02 32.6714 27.6 32.9314 28.04C33.2114 28.46 33.5714 28.79 34.0114 29.03C34.4514 29.25 34.9514 29.41 35.5114 29.51C36.0914 29.59 36.6714 29.66 37.2514 29.72C37.8514 29.76 38.4314 29.81 38.9914 29.87C39.5714 29.91 40.0814 30.01 40.5214 30.17C40.9614 30.33 41.3114 30.57 41.5714 30.89C41.8514 31.21 41.9914 31.65 41.9914 32.21C41.9914 32.69 41.8814 33.04 41.6614 33.26C41.4614 33.5 41.1914 33.66 40.8514 33.74C40.5314 33.82 40.1814 33.85 39.8014 33.83C39.4214 33.83 39.0714 33.83 38.7514 33.83C38.0914 33.83 37.3014 33.76 36.3814 33.62C35.4614 33.48 34.5814 33.24 33.7414 32.9C32.9214 32.58 32.2214 32.14 31.6414 31.58C31.0614 31 30.7714 30.27 30.7714 29.39V26.39Z" fill="url(#paint0_linear_134_3216)"/>
<path d="M64.0414 32.3C64.0614 32.24 64.1214 32.18 64.2214 32.12C65.1414 31.58 66.0014 31.1 66.8014 30.68C67.6214 30.26 68.3614 29.84 69.0214 29.42C69.6814 29 70.2714 28.56 70.7914 28.1C71.3114 27.62 71.7514 27.06 72.1114 26.42C72.4714 25.76 72.7414 24.99 72.9214 24.11C73.1014 23.23 73.1914 22.16 73.1914 20.9C73.1914 20.06 73.1114 19.22 72.9514 18.38C72.7914 17.54 72.5314 16.74 72.1714 15.98C71.8114 15.2 71.3514 14.5 70.7914 13.88C70.2314 13.26 69.5514 12.75 68.7514 12.35C68.0914 12.01 67.4514 11.8 66.8314 11.72C66.2314 11.64 65.5714 11.6 64.8514 11.6C64.7914 11.6 64.7014 11.6 64.5814 11.6C64.4814 11.58 64.3714 11.57 64.2514 11.57C64.1314 11.57 64.0214 11.59 63.9214 11.63C63.8414 11.67 63.7914 11.73 63.7714 11.81C63.7314 12.01 63.8114 12.26 64.0114 12.56C64.2314 12.86 64.4714 13.21 64.7314 13.61C64.9914 13.99 65.2314 14.41 65.4514 14.87C65.6714 15.31 65.7814 15.78 65.7814 16.28C65.7814 17.04 65.6814 17.92 65.4814 18.92C65.2814 19.9 64.9814 20.92 64.5814 21.98C64.2014 23.02 63.7314 24.05 63.1714 25.07C62.6314 26.09 62.0214 27 61.3414 27.8C60.6614 28.58 59.9114 29.22 59.0914 29.72C58.2714 30.2 57.4114 30.44 56.5114 30.44C55.6714 30.44 54.9514 30.17 54.3514 29.63C53.7514 29.07 53.2614 28.4 52.8814 27.62C52.5014 26.82 52.2214 25.98 52.0414 25.1C51.8614 24.2 51.7714 23.42 51.7714 22.76C51.7714 20.96 52.1614 19.31 52.9414 17.81C53.7214 16.31 54.7514 15.03 56.0314 13.97C57.3114 12.89 58.7714 12.06 60.4114 11.48C62.0514 10.88 63.7214 10.58 65.4214 10.58C67.0214 10.58 68.5414 10.86 69.9814 11.42C71.4414 11.96 72.7114 12.73 73.7914 13.73C74.8914 14.71 75.7614 15.89 76.4014 17.27C77.0614 18.63 77.3914 20.14 77.3914 21.8C77.3914 23.48 77.0214 24.98 76.2814 26.3C75.5614 27.62 74.6114 28.74 73.4314 29.66C72.2514 30.56 70.9114 31.25 69.4114 31.73C67.9114 32.19 66.3914 32.42 64.8514 32.42C64.6914 32.42 64.5514 32.42 64.4314 32.42C64.3114 32.44 64.1814 32.4 64.0414 32.3ZM54.5614 21.5C54.5614 21.84 54.5914 22.27 54.6514 22.79C54.7314 23.29 54.8514 23.78 55.0114 24.26C55.1914 24.74 55.4314 25.15 55.7314 25.49C56.0314 25.83 56.4114 26 56.8714 26C57.4314 26 57.9814 25.79 58.5214 25.37C59.0614 24.93 59.5714 24.37 60.0514 23.69C60.5314 22.99 60.9714 22.22 61.3714 21.38C61.7914 20.52 62.1414 19.67 62.4214 18.83C62.7214 17.99 62.9514 17.2 63.1114 16.46C63.2914 15.72 63.3814 15.12 63.3814 14.66C63.3814 14.48 63.3614 14.24 63.3214 13.94C63.3014 13.64 63.2414 13.35 63.1414 13.07C63.0614 12.77 62.9414 12.52 62.7814 12.32C62.6214 12.1 62.4214 11.99 62.1814 11.99C61.5014 11.99 60.8314 12.14 60.1714 12.44C59.5314 12.74 58.9314 13.14 58.3714 13.64C57.8114 14.14 57.2914 14.71 56.8114 15.35C56.3514 15.99 55.9514 16.67 55.6114 17.39C55.2714 18.09 55.0114 18.8 54.8314 19.52C54.6514 20.22 54.5614 20.88 54.5614 21.5Z" fill="url(#paint1_linear_134_3216)"/>
<path d="M83.9614 15.08L84.0814 14.99H92.0614C92.2614 14.99 92.3614 14.89 92.3614 14.69V6.95002C92.3614 6.75002 92.4814 6.65002 92.7214 6.65002C92.9214 6.65002 93.2314 6.67002 93.6514 6.71002C94.0714 6.73002 94.5114 6.76002 94.9714 6.80002C95.4514 6.84002 95.8914 6.89002 96.2914 6.95002C96.6914 6.99002 96.9814 7.04002 97.1614 7.10002C97.2014 7.12002 97.2514 7.15002 97.3114 7.19002C97.3714 7.21002 97.4014 7.25002 97.4014 7.31002C97.4014 7.43002 97.2814 7.52002 97.0414 7.58002C96.8214 7.64002 96.6514 7.76002 96.5314 7.94002C96.4914 8.00002 96.4614 8.20002 96.4414 8.54002C96.4214 8.88002 96.4014 9.30002 96.3814 9.80002C96.3614 10.28 96.3414 10.8 96.3214 11.36C96.3214 11.92 96.3214 12.45 96.3214 12.95C96.3414 13.43 96.3514 13.84 96.3514 14.18C96.3714 14.5 96.4014 14.67 96.4414 14.69C96.5014 14.75 96.5714 14.81 96.6514 14.87C96.7314 14.93 96.8114 14.97 96.8914 14.99C97.0314 15.01 97.2514 15.02 97.5514 15.02C97.8514 15 98.1614 14.98 98.4814 14.96C98.8214 14.92 99.1514 14.89 99.4714 14.87C99.7914 14.83 100.051 14.81 100.251 14.81L100.461 14.72C100.821 14.38 101.151 14 101.451 13.58C101.751 13.16 102.031 12.73 102.291 12.29L102.471 12.17C102.711 12.17 103.031 12.28 103.431 12.5C103.831 12.7 104.211 12.96 104.571 13.28C104.951 13.58 105.281 13.9 105.561 14.24C105.841 14.58 105.981 14.87 105.981 15.11C105.981 15.15 105.921 15.19 105.801 15.23C105.701 15.27 105.581 15.31 105.441 15.35C105.301 15.37 105.161 15.39 105.021 15.41C104.881 15.41 104.791 15.41 104.751 15.41C104.291 15.41 103.831 15.4 103.371 15.38C102.911 15.36 102.451 15.35 101.991 15.35C98.9914 15.31 96.0014 15.28 93.0214 15.26C90.0414 15.22 87.0514 15.2 84.0514 15.2L83.9614 15.08ZM97.3114 11C97.1514 11 97.0514 10.92 97.0114 10.76C97.0514 10.72 97.0914 10.7 97.1314 10.7H101.751C101.991 10.7 102.221 10.55 102.441 10.25C102.661 9.95002 102.871 9.62002 103.071 9.26002C103.271 8.88002 103.451 8.54002 103.611 8.24002C103.791 7.94002 103.951 7.79002 104.091 7.79002C104.271 7.79002 104.541 7.92002 104.901 8.18002C105.261 8.42002 105.631 8.71002 106.011 9.05002C106.391 9.37002 106.721 9.70002 107.001 10.04C107.301 10.36 107.471 10.61 107.511 10.79L107.451 10.91L107.241 11H97.3114ZM82.0714 10.79H91.6114C91.6514 10.79 91.6814 10.8 91.7014 10.82L91.6414 10.91L91.4314 11H82.0714L81.9514 10.88L82.0714 10.79ZM108.021 19.37C108.001 19.41 107.851 19.52 107.571 19.7C107.311 19.86 106.981 20.05 106.581 20.27C106.181 20.49 105.751 20.72 105.291 20.96C104.831 21.2 104.391 21.42 103.971 21.62C103.571 21.82 103.221 21.99 102.921 22.13C102.621 22.25 102.431 22.31 102.351 22.31C102.211 22.31 102.141 22.23 102.141 22.07C102.141 21.55 102.231 21.04 102.411 20.54C102.591 20.04 102.681 19.53 102.681 19.01C102.681 18.81 102.581 18.71 102.381 18.71H86.5714C86.4314 18.71 86.3614 18.64 86.3614 18.5C86.3614 18.36 86.4314 18.29 86.5714 18.29H102.441C102.541 18.29 102.691 18.18 102.891 17.96C103.111 17.74 103.331 17.51 103.551 17.27C103.791 17.01 104.011 16.77 104.211 16.55C104.411 16.33 104.561 16.22 104.661 16.22C104.721 16.22 104.921 16.37 105.261 16.67C105.601 16.95 105.971 17.28 106.371 17.66C106.771 18.04 107.131 18.4 107.451 18.74C107.791 19.08 107.981 19.29 108.021 19.37ZM81.1414 22.19C81.1414 21.77 81.2514 21.38 81.4714 21.02C81.7114 20.66 81.9914 20.33 82.3114 20.03C82.6514 19.71 82.9914 19.41 83.3314 19.13C83.6914 18.83 83.9914 18.53 84.2314 18.23C84.2514 18.19 84.3014 18.11 84.3814 17.99C84.4814 17.85 84.5714 17.71 84.6514 17.57C84.7514 17.43 84.8414 17.31 84.9214 17.21C85.0014 17.09 85.0514 17.03 85.0714 17.03C85.2114 17.03 85.3214 17.15 85.4014 17.39C85.5014 17.61 85.5814 17.87 85.6414 18.17C85.7014 18.47 85.7414 18.76 85.7614 19.04C85.7814 19.32 85.7914 19.51 85.7914 19.61C85.7914 20.09 85.7514 20.59 85.6714 21.11C85.5914 21.63 85.4414 22.11 85.2214 22.55C85.0014 22.97 84.7014 23.32 84.3214 23.6C83.9414 23.88 83.4514 24.02 82.8514 24.02C82.2914 24.02 81.8614 23.85 81.5614 23.51C81.2814 23.15 81.1414 22.71 81.1414 22.19ZM92.2414 34.01C91.8214 34.01 91.3614 33.99 90.8614 33.95C90.3614 33.91 89.8914 33.81 89.4514 33.65C89.0114 33.49 88.6414 33.25 88.3414 32.93C88.0614 32.61 87.9214 32.16 87.9214 31.58C87.9214 29.76 87.8914 27.95 87.8314 26.15C87.7714 24.33 87.7414 22.51 87.7414 20.69C87.7414 20.49 87.8414 20.39 88.0414 20.39C88.3014 20.39 88.6014 20.4 88.9414 20.42C89.2814 20.44 89.6214 20.47 89.9614 20.51C90.3214 20.53 90.6614 20.57 90.9814 20.63C91.3214 20.67 91.6114 20.73 91.8514 20.81C91.8914 20.83 91.9414 20.85 92.0014 20.87C92.0614 20.89 92.0914 20.92 92.0914 20.96C92.0914 20.98 92.0614 21.03 92.0014 21.11C91.9614 21.19 91.9114 21.28 91.8514 21.38C91.7914 21.46 91.7314 21.55 91.6714 21.65C91.6114 21.73 91.5714 21.8 91.5514 21.86C91.5114 21.98 91.4914 22.17 91.4914 22.43C91.4914 22.67 91.4914 22.93 91.4914 23.21C91.5114 23.49 91.5214 23.77 91.5214 24.05C91.5414 24.31 91.5514 24.51 91.5514 24.65C91.5514 24.87 91.5514 25.25 91.5514 25.79C91.5514 26.31 91.5514 26.86 91.5514 27.44C91.5714 28.02 91.5914 28.56 91.6114 29.06C91.6514 29.54 91.7014 29.85 91.7614 29.99C91.8414 30.17 91.9814 30.31 92.1814 30.41C92.3814 30.49 92.6014 30.56 92.8414 30.62C93.0814 30.66 93.3214 30.68 93.5614 30.68C93.8014 30.68 94.0014 30.68 94.1614 30.68C95.1614 30.68 96.1514 30.66 97.1314 30.62C98.1314 30.58 99.1314 30.54 100.131 30.5C100.411 30.48 100.681 30.48 100.941 30.5C101.201 30.5 101.471 30.47 101.751 30.41C102.031 30.35 102.291 30.19 102.531 29.93C102.771 29.67 102.981 29.38 103.161 29.06C103.361 28.72 103.531 28.38 103.671 28.04C103.831 27.7 103.971 27.41 104.091 27.17C104.131 27.09 104.171 27.05 104.211 27.05C104.331 27.05 104.411 27.19 104.451 27.47C104.491 27.73 104.511 28.03 104.511 28.37C104.511 28.71 104.501 29.04 104.481 29.36C104.461 29.68 104.451 29.89 104.451 29.99C104.451 30.11 104.531 30.23 104.691 30.35C104.851 30.45 105.021 30.57 105.201 30.71C105.401 30.83 105.581 30.99 105.741 31.19C105.901 31.37 105.981 31.6 105.981 31.88C105.981 32.32 105.791 32.68 105.411 32.96C105.051 33.24 104.571 33.45 103.971 33.59C103.391 33.75 102.741 33.86 102.021 33.92C101.321 34 100.631 34.04 99.9514 34.04C99.2714 34.06 98.6414 34.06 98.0614 34.04C97.5014 34.02 97.0814 34.01 96.8014 34.01H92.2414ZM99.0514 21.2C99.1314 21.2 99.3514 21.35 99.7114 21.65C100.071 21.95 100.451 22.29 100.851 22.67C101.251 23.03 101.611 23.37 101.931 23.69C102.251 24.01 102.411 24.2 102.411 24.26C102.411 24.36 102.351 24.42 102.231 24.44C102.131 24.44 102.051 24.45 101.991 24.47L99.2314 24.86C98.7114 24.94 98.1614 25.05 97.5814 25.19C97.0214 25.33 96.4514 25.47 95.8714 25.61C95.2914 25.75 94.7214 25.87 94.1614 25.97C93.6014 26.05 93.0714 26.07 92.5714 26.03C92.5314 26.03 92.4814 26.02 92.4214 26C92.3614 25.98 92.3314 25.95 92.3314 25.91C92.3314 25.81 92.3514 25.75 92.3914 25.73C92.4514 25.69 92.5114 25.65 92.5714 25.61C93.2714 25.15 93.9714 24.69 94.6714 24.23C95.3914 23.77 96.0914 23.29 96.7714 22.79C96.8714 22.73 97.0214 22.62 97.2214 22.46C97.4214 22.28 97.6314 22.1 97.8514 21.92C98.0914 21.74 98.3014 21.58 98.4814 21.44C98.6814 21.3 98.8114 21.22 98.8714 21.2H99.0514Z" fill="url(#paint2_linear_134_3216)"/>
<path d="M112.341 29.9C112.341 29.34 112.461 28.88 112.701 28.52C112.941 28.14 113.241 27.86 113.601 27.68C113.961 27.48 114.351 27.38 114.771 27.38C115.191 27.38 115.581 27.48 115.941 27.68C116.301 27.86 116.601 28.14 116.841 28.52C117.081 28.88 117.201 29.34 117.201 29.9C117.201 30.24 117.151 30.56 117.051 30.86C116.971 31.16 116.801 31.42 116.541 31.64C116.321 31.84 116.051 31.99 115.731 32.09C115.411 32.19 115.081 32.24 114.741 32.24C114.421 32.24 114.101 32.19 113.781 32.09C113.481 31.99 113.221 31.84 113.001 31.64C112.741 31.42 112.561 31.16 112.461 30.86C112.381 30.56 112.341 30.24 112.341 29.9Z" fill="url(#paint3_linear_134_3216)"/>
<path d="M431 30.15L431.62 29.685H488.35C489.177 29.685 489.693 29.22 489.9 28.29C490.21 27.2567 490.313 26.0167 490.21 24.57C490.21 23.1233 490.107 21.5733 489.9 19.92C489.693 18.1633 489.538 16.5617 489.435 15.115C489.435 13.6683 489.538 12.48 489.745 11.55C490.055 10.5167 490.623 10 491.45 10C492.793 10 494.447 10.0517 496.41 10.155C498.373 10.2583 500.388 10.4133 502.455 10.62C504.522 10.7233 506.485 10.93 508.345 11.24C510.308 11.4467 511.91 11.7567 513.15 12.17C514.08 12.48 514.442 12.79 514.235 13.1C514.132 13.3067 513.822 13.6167 513.305 14.03C512.788 14.34 512.22 14.7533 511.6 15.27C510.98 15.6833 510.67 16.2 510.67 16.82V28.29L511.135 29.22L512.22 29.685C513.15 29.685 514.958 29.685 517.645 29.685C520.332 29.5817 523.173 29.4783 526.17 29.375C529.167 29.2717 531.905 29.1167 534.385 28.91C536.865 28.7033 538.312 28.4967 538.725 28.29C539.448 27.8767 540.43 26.9467 541.67 25.5C542.91 23.95 544.15 22.4 545.39 20.85C546.63 19.1967 547.767 17.75 548.8 16.51C549.833 15.1667 550.557 14.495 550.97 14.495C551.487 14.495 552.778 15.3217 554.845 16.975C557.015 18.525 559.237 20.2817 561.51 22.245C563.887 24.105 566.005 25.9133 567.865 27.67C569.725 29.3233 570.655 30.2533 570.655 30.46C570.655 30.9767 570.448 31.235 570.035 31.235H530.82C530.303 31.235 529.89 31.4933 529.58 32.01C529.27 32.5267 528.805 32.785 528.185 32.785C527.565 32.785 526.945 32.63 526.325 32.32C525.808 31.9067 525.24 31.7 524.62 31.7C514.597 31.7 504.625 31.7517 494.705 31.855C484.785 31.855 474.813 31.855 464.79 31.855C459.21 31.855 453.682 31.7 448.205 31.39C442.728 30.9767 437.2 30.77 431.62 30.77L431 30.15ZM528.03 35.42C528.753 35.9367 529.942 36.7633 531.595 37.9C533.352 39.0367 535.16 40.2767 537.02 41.62C538.88 42.9633 540.585 44.2033 542.135 45.34C543.685 46.4767 544.667 47.3033 545.08 47.82C545.39 48.13 545.545 48.5433 545.545 49.06C545.545 49.5767 545.338 49.99 544.925 50.3C544.512 50.5067 544.047 50.765 543.53 51.075C543.013 51.2817 542.497 51.4883 541.98 51.695C541.567 51.7983 541.308 51.9533 541.205 52.16C541.102 52.3667 541.05 53.5033 541.05 55.57C541.05 57.6367 541.05 59.9617 541.05 62.545C541.05 65.1283 541.05 67.5567 541.05 69.83C541.05 72.1033 541.05 73.55 541.05 74.17C541.05 74.9967 540.172 75.72 538.415 76.34C536.762 76.96 534.85 77.4767 532.68 77.89C530.51 78.3033 528.392 78.665 526.325 78.975C524.362 79.1817 523.018 79.285 522.295 79.285C521.365 79.285 520.848 78.9233 520.745 78.2C520.745 77.3733 520.797 76.5467 520.9 75.72C521.003 74.79 521.003 73.9633 520.9 73.24C520.9 72.4133 520.538 72 519.815 72H483.39C483.287 72 482.718 72.465 481.685 73.395C480.755 74.2217 479.463 75.2033 477.81 76.34C476.157 77.3733 474.245 78.355 472.075 79.285C469.905 80.1117 467.58 80.525 465.1 80.525C464.48 80.525 463.602 80.525 462.465 80.525C461.432 80.4217 460.915 79.8533 460.915 78.82C460.915 72 460.708 65.2317 460.295 58.515C459.985 51.7983 459.83 45.03 459.83 38.21C459.83 37.9 459.882 37.59 459.985 37.28C460.192 36.97 460.502 36.815 460.915 36.815C461.742 36.815 462.672 37.0217 463.705 37.435C464.842 37.8483 465.978 38.365 467.115 38.985C468.252 39.605 469.337 40.225 470.37 40.845C471.507 41.3617 472.488 41.775 473.315 42.085L481.22 45.03C481.633 45.2367 483.493 45.34 486.8 45.34C490.21 45.34 493.982 45.34 498.115 45.34C502.248 45.34 506.175 45.34 509.895 45.34C513.615 45.2367 516.043 45.185 517.18 45.185C517.697 45.185 518.42 44.72 519.35 43.79C520.383 42.7567 521.417 41.6717 522.45 40.535C523.587 39.295 524.62 38.1583 525.55 37.125C526.583 36.0917 527.41 35.5233 528.03 35.42ZM480.6 68.435C480.6 69.4683 481.117 69.985 482.15 69.985H519.35C520.383 69.985 520.9 69.4683 520.9 68.435V48.75C520.9 47.7167 520.383 47.2 519.35 47.2H482.15C481.117 47.2 480.6 47.7167 480.6 48.75V68.435ZM436.735 154.305L436.58 154.15L436.115 153.065V79.595C436.115 78.665 436.632 78.2 437.665 78.2C439.008 78.2 440.61 78.665 442.47 79.595C444.433 80.4217 446.345 81.3517 448.205 82.385C450.168 83.4183 452.028 84.4 453.785 85.33C455.542 86.1567 456.988 86.57 458.125 86.57H543.53C544.047 86.57 544.667 86.1567 545.39 85.33C546.113 84.4 546.888 83.3667 547.715 82.23C548.542 81.0933 549.368 80.06 550.195 79.13C551.022 78.0967 551.797 77.4767 552.52 77.27C552.933 77.1667 554.07 77.6833 555.93 78.82C557.893 79.9567 559.857 81.3517 561.82 83.005C563.887 84.555 565.747 86.105 567.4 87.655C569.053 89.1017 569.88 90.0833 569.88 90.6C569.88 91.0133 569.673 91.4267 569.26 91.84C568.847 92.2533 568.382 92.6667 567.865 93.08C567.348 93.39 566.883 93.7517 566.47 94.165C566.057 94.5783 565.85 94.9917 565.85 95.405V141.285C565.85 143.558 564.972 145.573 563.215 147.33C561.562 149.087 559.547 150.585 557.17 151.825C554.793 153.065 552.262 153.995 549.575 154.615C546.992 155.338 544.77 155.7 542.91 155.7C542.393 155.7 541.98 155.39 541.67 154.77C541.36 154.15 541.102 153.427 540.895 152.6C540.792 151.877 540.688 151.102 540.585 150.275C540.585 149.552 540.533 148.983 540.43 148.57C540.327 147.95 539.965 146.968 539.345 145.625C538.725 144.385 538.053 143.093 537.33 141.75C536.607 140.407 535.935 139.218 535.315 138.185C534.798 137.152 534.54 136.635 534.54 136.635C534.54 136.015 534.902 135.653 535.625 135.55C536.348 135.447 537.175 135.447 538.105 135.55C539.138 135.55 540.12 135.55 541.05 135.55C541.98 135.55 542.652 135.395 543.065 135.085C543.168 134.982 543.375 134.723 543.685 134.31C543.995 133.897 544.305 133.483 544.615 133.07C544.925 132.553 545.183 132.088 545.39 131.675C545.597 131.262 545.7 131.003 545.7 130.9V91.22C545.7 90.1867 545.183 89.67 544.15 89.67H457.35C456.317 89.67 455.8 90.1867 455.8 91.22V148.57C455.8 149.913 455.025 150.998 453.475 151.825C452.028 152.652 450.272 153.272 448.205 153.685C446.242 154.098 444.227 154.357 442.16 154.46C440.197 154.667 438.75 154.77 437.82 154.77L436.735 154.305ZM510.98 103.62C511.29 103.31 511.807 102.742 512.53 101.915C513.357 101.088 514.235 100.21 515.165 99.28C516.095 98.35 516.922 97.575 517.645 96.955C518.472 96.2317 519.04 95.87 519.35 95.87C519.453 95.87 520.28 96.4383 521.83 97.575C523.38 98.6083 525.033 99.7967 526.79 101.14C528.547 102.483 530.148 103.775 531.595 105.015C533.145 106.152 534.023 106.875 534.23 107.185L534.385 107.495C534.385 108.425 533.868 109.2 532.835 109.82C531.905 110.44 531.337 111.267 531.13 112.3C530.923 113.23 530.82 114.212 530.82 115.245C530.923 116.175 530.975 117.105 530.975 118.035C530.975 119.688 530.923 121.342 530.82 122.995C530.717 124.545 530.562 126.147 530.355 127.8C530.252 128.523 530.2 129.247 530.2 129.97C530.303 130.59 530.303 131.262 530.2 131.985C529.993 133.535 529.322 134.775 528.185 135.705C527.048 136.532 525.705 137.152 524.155 137.565C522.605 137.978 521.003 138.237 519.35 138.34C517.697 138.443 516.25 138.495 515.01 138.495C514.183 138.495 513.615 138.288 513.305 137.875C512.995 137.358 512.788 136.79 512.685 136.17C512.685 135.447 512.685 134.723 512.685 134C512.685 133.277 512.633 132.657 512.53 132.14C512.427 131.933 512.272 131.675 512.065 131.365C511.858 130.952 511.755 130.642 511.755 130.435C511.652 129.815 511.755 129.247 512.065 128.73C512.375 128.213 512.53 127.697 512.53 127.18V108.735C512.53 107.702 512.013 107.185 510.98 107.185H490.365C489.332 107.185 488.815 107.702 488.815 108.735V127.335C488.815 128.472 489.848 129.092 491.915 129.195C494.085 129.195 496.41 129.143 498.89 129.04C501.473 128.833 503.798 128.73 505.865 128.73C508.035 128.73 509.12 129.195 509.12 130.125C508.81 130.332 507.777 130.487 506.02 130.59C504.367 130.59 502.455 130.59 500.285 130.59C498.218 130.59 496.203 130.59 494.24 130.59C492.38 130.487 491.14 130.435 490.52 130.435C490.003 130.435 489.487 130.848 488.97 131.675C488.557 132.398 488.04 133.277 487.42 134.31C486.903 135.343 486.335 136.325 485.715 137.255C485.095 138.185 484.423 138.857 483.7 139.27C482.253 139.993 480.445 140.51 478.275 140.82C476.105 141.13 474.245 141.285 472.695 141.285C472.178 141.285 471.817 141.182 471.61 140.975C471.507 140.768 471.352 140.407 471.145 139.89C470.835 138.857 470.628 137.513 470.525 135.86C470.525 134.103 470.525 132.295 470.525 130.435C470.525 128.575 470.525 126.767 470.525 125.01C470.628 123.253 470.68 121.755 470.68 120.515C470.37 113.075 470.215 105.635 470.215 98.195C470.215 97.3683 470.577 96.955 471.3 96.955C471.92 96.955 472.902 97.3167 474.245 98.04C475.588 98.7633 477.087 99.59 478.74 100.52C480.393 101.45 482.098 102.277 483.855 103C485.612 103.723 487.265 104.085 488.815 104.085H509.895L510.98 103.62Z" fill="#292929"/>
<path d="M608.165 65.8C609.198 66.11 610.645 67.04 612.505 68.59C614.365 70.14 616.277 71.7933 618.24 73.55C620.307 75.3067 622.27 76.9083 624.13 78.355C625.99 79.6983 627.385 80.37 628.315 80.37C628.832 80.37 629.297 80.215 629.71 79.905C630.123 79.595 630.33 79.1817 630.33 78.665V42.705L630.795 41.62C631.002 41.4133 631.415 41.31 632.035 41.31C634.825 42.7567 637.305 43.945 639.475 44.875C641.645 45.7017 643.763 46.4767 645.83 47.2C648 47.82 650.222 48.3883 652.495 48.905C654.768 49.3183 657.455 49.7833 660.555 50.3C660.658 50.3 660.71 50.3517 660.71 50.455C660.813 50.5583 660.917 50.61 661.02 50.61C660.917 51.1267 660.297 51.385 659.16 51.385C658.023 51.385 656.783 51.3333 655.44 51.23C654.097 51.1267 652.857 51.1783 651.72 51.385C650.583 51.4883 650.015 52.005 650.015 52.935V73.55C650.015 74.5833 650.532 75.1 651.565 75.1H662.88C663.913 75.1 664.43 74.5833 664.43 73.55V11.395C664.43 10.465 664.947 10 665.98 10C669.597 10 673.11 10.2583 676.52 10.775C680.033 11.2917 683.598 11.7567 687.215 12.17L687.99 12.945C687.577 13.7717 686.802 14.3917 685.665 14.805C684.632 15.2183 684.115 16.045 684.115 17.285C684.115 35.1617 683.96 52.935 683.65 70.605C683.443 88.1717 683.34 105.893 683.34 123.77C683.34 124.803 682.617 125.682 681.17 126.405C679.723 127.025 678.018 127.542 676.055 127.955C674.092 128.368 672.18 128.678 670.32 128.885C668.46 128.988 667.168 129.04 666.445 129.04C666.032 129.04 665.567 128.988 665.05 128.885C664.637 128.678 664.43 128.317 664.43 127.8C664.43 123.15 664.585 118.552 664.895 114.005C665.308 109.355 665.515 104.705 665.515 100.055C665.515 99.435 665.308 99.0733 664.895 98.97C664.068 99.1767 662.88 99.745 661.33 100.675C659.78 101.605 658.592 102.328 657.765 102.845C654.768 104.602 651.72 106.358 648.62 108.115C645.52 109.872 642.472 111.628 639.475 113.385C637.512 114.522 635.548 115.658 633.585 116.795C631.725 117.828 629.762 118.707 627.695 119.43L627.23 118.965C627.437 118.448 627.85 117.828 628.47 117.105C629.193 116.382 629.968 115.658 630.795 114.935C631.622 114.108 632.397 113.333 633.12 112.61C633.947 111.887 634.618 111.267 635.135 110.75C636.788 108.993 638.752 106.927 641.025 104.55C643.298 102.173 645.468 99.6933 647.535 97.11C649.705 94.4233 651.668 91.7883 653.425 89.205C655.182 86.5183 656.422 83.9867 657.145 81.61C657.868 79.2333 656.887 78.045 654.2 78.045C652.753 78.045 651.358 78.4583 650.015 79.285C648.672 80.0083 647.225 80.835 645.675 81.765C644.228 82.695 642.678 83.5733 641.025 84.4C639.475 85.1233 637.718 85.485 635.755 85.485C633.895 85.485 632.603 85.33 631.88 85.02C631.26 84.71 630.847 84.3483 630.64 83.935C630.433 83.5217 630.175 83.16 629.865 82.85C629.555 82.54 628.78 82.385 627.54 82.385C626.92 82.385 626.197 82.4883 625.37 82.695C624.543 82.7983 623.717 83.0567 622.89 83.47C622.167 83.78 621.495 84.1933 620.875 84.71C620.358 85.2267 620.1 85.8467 620.1 86.57V120.36C620.1 120.877 619.48 122.065 618.24 123.925C617 125.785 615.45 127.955 613.59 130.435C611.73 132.812 609.715 135.395 607.545 138.185C605.375 140.872 603.308 143.352 601.345 145.625C599.382 147.898 597.677 149.758 596.23 151.205C594.783 152.755 593.905 153.53 593.595 153.53C593.182 153.53 592.872 153.272 592.665 152.755C592.355 152.342 591.683 151.153 590.65 149.19C589.72 147.227 588.687 145.108 587.55 142.835C586.517 140.665 585.587 138.702 584.76 136.945C583.933 135.188 583.52 134.207 583.52 134C583.52 133.38 584.45 132.812 586.31 132.295C588.17 131.778 590.237 131.262 592.51 130.745C594.783 130.125 596.85 129.505 598.71 128.885C600.57 128.265 601.5 127.593 601.5 126.87V82.385C601.5 81.2483 600.57 80.68 598.71 80.68C596.85 80.5767 594.835 80.6283 592.665 80.835C590.495 80.9383 588.48 81.0417 586.62 81.145C584.76 81.145 583.83 80.68 583.83 79.75C583.83 79.44 583.985 79.2333 584.295 79.13C584.708 79.0267 585.018 78.9233 585.225 78.82C587.395 78.3033 589.565 78.2 591.735 78.51C594.008 78.7167 596.23 78.82 598.4 78.82C598.813 78.82 599.433 78.2517 600.26 77.115C601.19 75.9783 602.12 74.6867 603.05 73.24C603.98 71.69 604.858 70.2433 605.685 68.9C606.512 67.5567 607.08 66.6267 607.39 66.11L608.165 65.8ZM609.405 46.425C607.235 46.425 605.22 45.5983 603.36 43.945C601.603 42.2917 600.053 40.3283 598.71 38.055C597.367 35.6783 596.23 33.25 595.3 30.77C594.37 28.29 593.595 26.1717 592.975 24.415C592.665 23.485 592.303 22.555 591.89 21.625C591.58 20.5917 591.322 19.5583 591.115 18.525C590.908 17.8017 590.857 17.2333 590.96 16.82C591.167 16.4067 591.735 16.2 592.665 16.2C595.248 16.2 598.09 16.665 601.19 17.595C604.29 18.4217 607.183 19.6617 609.87 21.315C612.557 22.865 614.778 24.8283 616.535 27.205C618.395 29.5817 619.325 32.2683 619.325 35.265C619.325 36.6083 619.067 37.9517 618.55 39.295C618.137 40.6383 617.465 41.8267 616.535 42.86C615.708 43.8933 614.675 44.7717 613.435 45.495C612.195 46.115 610.852 46.425 609.405 46.425ZM688.145 31.7C687.835 31.7 687.68 31.545 687.68 31.235C687.68 30.615 688.042 30.2533 688.765 30.15C689.592 30.0467 690.522 30.0467 691.555 30.15C692.588 30.15 693.622 30.15 694.655 30.15C695.688 30.15 696.412 29.995 696.825 29.685C698.582 28.2383 700.183 26.275 701.63 23.795C703.18 21.315 704.833 19.1967 706.59 17.44L707.365 17.285C708.398 17.8017 709.638 18.6283 711.085 19.765C712.635 20.9017 714.185 22.1417 715.735 23.485C717.285 24.725 718.783 26.0167 720.23 27.36C721.78 28.6 723.072 29.6333 724.105 30.46L724.415 31.235L723.95 31.7H688.145ZM629.4 32.785C628.987 32.5783 628.625 32.2167 628.315 31.7C628.005 31.08 628.315 30.77 629.245 30.77H659.78L660.865 31.235L661.02 31.39L660.71 31.7L629.4 32.785ZM699.305 81.92C699.202 81.4033 698.943 80.5767 698.53 79.44C698.22 78.3033 697.703 77.735 696.98 77.735C696.67 77.735 695.947 77.7867 694.81 77.89C693.777 77.89 692.692 77.89 691.555 77.89C690.418 77.89 689.385 77.8383 688.455 77.735C687.628 77.6317 687.215 77.3733 687.215 76.96C687.215 76.5467 687.628 76.2883 688.455 76.185C689.385 76.0817 690.418 76.03 691.555 76.03C692.692 76.03 693.777 76.0817 694.81 76.185C695.947 76.185 696.67 76.185 696.98 76.185L698.065 75.72L699.15 74.635L699.615 73.55V54.02L699.15 52.935L698.065 51.85L696.98 51.385C696.67 51.385 695.998 51.4367 694.965 51.54C693.932 51.54 692.847 51.54 691.71 51.54C690.573 51.54 689.54 51.4367 688.61 51.23C687.783 51.0233 687.422 50.6617 687.525 50.145C687.525 49.9383 687.887 49.835 688.61 49.835C689.437 49.835 689.953 49.835 690.16 49.835C690.47 49.835 690.935 49.8867 691.555 49.99C692.278 49.99 692.95 49.99 693.57 49.99C694.293 49.99 694.965 49.9383 695.585 49.835C696.205 49.7317 696.67 49.5767 696.98 49.37C697.6 48.8533 698.272 48.13 698.995 47.2C699.822 46.27 700.648 45.34 701.475 44.41C702.405 43.48 703.283 42.6017 704.11 41.775C704.937 40.9483 705.712 40.38 706.435 40.07C706.745 39.9667 707.778 40.535 709.535 41.775C711.292 43.015 713.1 44.41 714.96 45.96C716.923 47.51 718.68 49.06 720.23 50.61C721.883 52.0567 722.71 52.9867 722.71 53.4C722.71 53.71 722.452 54.02 721.935 54.33C721.522 54.64 721.005 55.0017 720.385 55.415C719.868 55.725 719.352 56.0867 718.835 56.5C718.422 56.9133 718.215 57.3783 718.215 57.895V77.27C718.215 78.4067 717.44 79.3367 715.89 80.06C714.34 80.68 712.532 81.1967 710.465 81.61C708.398 81.92 706.383 82.1267 704.42 82.23C702.457 82.3333 701.062 82.385 700.235 82.385L699.305 81.92ZM709.535 118.19C709.018 117.983 708.14 117.26 706.9 116.02C705.66 114.677 704.265 113.127 702.715 111.37C701.268 109.51 699.718 107.547 698.065 105.48C696.412 103.413 694.913 101.398 693.57 99.435C692.227 97.4717 691.09 95.715 690.16 94.165C689.333 92.615 688.92 91.53 688.92 90.91C688.92 90.0833 689.437 89.67 690.47 89.67C691.607 89.67 692.433 89.67 692.95 89.67C695.74 89.67 698.84 90.0833 702.25 90.91C705.66 91.6333 708.863 92.8217 711.86 94.475C714.857 96.025 717.337 98.04 719.3 100.52C721.367 102.897 722.4 105.79 722.4 109.2C722.4 112.197 721.78 114.522 720.54 116.175C719.403 117.725 717.233 118.5 714.03 118.5C713.513 118.5 712.738 118.5 711.705 118.5C710.775 118.5 710.052 118.397 709.535 118.19ZM662.415 151.67C659.005 151.67 655.027 151.153 650.48 150.12C646.037 149.087 641.748 147.537 637.615 145.47C633.482 143.507 629.968 140.975 627.075 137.875C624.285 134.775 622.89 131.158 622.89 127.025C622.89 126.198 623.097 125.785 623.51 125.785C624.027 125.682 624.543 125.785 625.06 126.095C626.507 126.818 627.902 127.542 629.245 128.265C630.588 128.988 631.983 129.66 633.43 130.28C636.323 131.417 639.268 132.243 642.265 132.76C645.262 133.173 648.258 133.483 651.255 133.69C654.355 133.793 657.455 133.845 660.555 133.845C663.655 133.845 666.703 133.897 669.7 134C678.07 134.207 686.44 134.31 694.81 134.31C703.18 134.207 711.55 134.155 719.92 134.155C720.127 134.155 720.488 134.155 721.005 134.155C721.522 134.052 722.038 134.052 722.555 134.155C723.175 134.155 723.692 134.207 724.105 134.31C724.622 134.413 724.88 134.62 724.88 134.93C724.88 135.24 724.777 135.498 724.57 135.705C724.467 135.912 724.312 136.118 724.105 136.325C722.865 137.772 721.883 139.012 721.16 140.045C720.437 141.078 719.817 142.06 719.3 142.99C718.887 144.023 718.473 145.108 718.06 146.245C717.75 147.382 717.233 148.777 716.51 150.43C716.2 151.257 715.683 151.67 714.96 151.67H662.415Z" fill="#292929"/>
<path d="M740.845 132.45C740.845 129.66 741.362 127.025 742.395 124.545C743.428 122.065 744.875 119.947 746.735 118.19C748.595 116.33 750.765 114.883 753.245 113.85C755.725 112.817 758.36 112.3 761.15 112.3C764.043 112.3 766.782 112.817 769.365 113.85C771.948 114.883 774.222 116.33 776.185 118.19C778.148 120.05 779.647 122.272 780.68 124.855C781.817 127.335 782.385 130.073 782.385 133.07C782.385 135.963 781.817 138.65 780.68 141.13C779.647 143.507 778.2 145.573 776.34 147.33C774.48 149.19 772.258 150.585 769.675 151.515C767.195 152.548 764.56 153.065 761.77 153.065C758.773 153.065 755.983 152.548 753.4 151.515C750.92 150.482 748.75 149.035 746.89 147.175C745.03 145.418 743.532 143.3 742.395 140.82C741.362 138.237 740.845 135.447 740.845 132.45ZM744.875 132.605C744.875 136.428 745.702 139.58 747.355 142.06C749.008 144.54 751.075 146.4 753.555 147.64C756.035 148.983 758.67 149.603 761.46 149.5C764.353 149.5 767.04 148.828 769.52 147.485C772 146.245 774.067 144.333 775.72 141.75C777.373 139.27 778.2 136.17 778.2 132.45C778.2 128.833 777.373 125.837 775.72 123.46C774.067 120.98 772 119.172 769.52 118.035C767.04 116.898 764.353 116.33 761.46 116.33C758.67 116.33 756.035 116.95 753.555 118.19C751.075 119.43 749.008 121.29 747.355 123.77C745.702 126.147 744.875 129.092 744.875 132.605Z" fill="#292929"/>
<path d="M163 118.532V114.32H166.996C167.332 114.32 167.608 114.2 167.824 113.96C168.04 113.744 168.148 113.48 168.148 113.168V92.864H173.08V113.312C173.08 114.92 172.612 116.192 171.676 117.128C170.764 118.064 169.492 118.532 167.86 118.532H163ZM170.56 90.632C169.72 90.632 168.988 90.332 168.364 89.732C167.764 89.108 167.464 88.376 167.464 87.536C167.464 86.696 167.764 85.976 168.364 85.376C168.988 84.752 169.72 84.44 170.56 84.44C171.4 84.44 172.12 84.752 172.72 85.376C173.344 85.976 173.656 86.696 173.656 87.536C173.656 88.376 173.344 89.108 172.72 89.732C172.12 90.332 171.4 90.632 170.56 90.632Z" fill="#F4F4F4"/>
<path d="M184.946 111.656C183.266 111.656 181.802 111.224 180.554 110.36C179.306 109.496 178.334 108.344 177.638 106.904C176.966 105.44 176.63 103.832 176.63 102.08C176.63 100.28 177.014 98.648 177.782 97.184C178.574 95.72 179.702 94.568 181.166 93.728C182.63 92.864 184.382 92.432 186.422 92.432C188.486 92.432 190.226 92.864 191.642 93.728C193.058 94.592 194.138 95.756 194.882 97.22C195.626 98.684 195.998 100.304 195.998 102.08V111.224H191.066V108.164H190.994C190.634 108.812 190.178 109.4 189.626 109.928C189.098 110.456 188.45 110.876 187.682 111.188C186.914 111.5 186.002 111.656 184.946 111.656ZM186.35 107.444C187.31 107.444 188.138 107.204 188.834 106.724C189.53 106.244 190.058 105.596 190.418 104.78C190.802 103.94 190.994 103.016 190.994 102.008C190.994 101 190.802 100.1 190.418 99.308C190.058 98.492 189.53 97.844 188.834 97.364C188.138 96.884 187.31 96.644 186.35 96.644C185.366 96.644 184.514 96.884 183.794 97.364C183.098 97.844 182.558 98.492 182.174 99.308C181.814 100.1 181.634 101 181.634 102.008C181.634 103.016 181.814 103.94 182.174 104.78C182.558 105.596 183.098 106.244 183.794 106.724C184.514 107.204 185.366 107.444 186.35 107.444Z" fill="#F4F4F4"/>
<path d="M200.667 111.224V100.316C200.667 98.876 201.015 97.556 201.711 96.356C202.407 95.156 203.403 94.208 204.699 93.512C206.019 92.792 207.603 92.432 209.451 92.432C210.339 92.432 211.155 92.54 211.899 92.756C212.667 92.948 213.375 93.236 214.023 93.62C214.671 94.004 215.235 94.46 215.715 94.988H215.751C216.255 94.46 216.831 94.004 217.479 93.62C218.127 93.236 218.835 92.948 219.603 92.756C220.371 92.54 221.199 92.432 222.087 92.432C223.935 92.432 225.507 92.792 226.803 93.512C228.123 94.208 229.131 95.156 229.827 96.356C230.523 97.556 230.871 98.876 230.871 100.316V111.224H225.939V100.316C225.939 99.644 225.759 99.032 225.399 98.48C225.063 97.928 224.607 97.484 224.031 97.148C223.455 96.812 222.807 96.644 222.087 96.644C221.391 96.644 220.743 96.812 220.143 97.148C219.567 97.484 219.099 97.928 218.739 98.48C218.403 99.032 218.235 99.644 218.235 100.316V111.224H213.303V100.316C213.303 99.644 213.123 99.032 212.763 98.48C212.427 97.928 211.971 97.484 211.395 97.148C210.819 96.812 210.171 96.644 209.451 96.644C208.755 96.644 208.107 96.812 207.507 97.148C206.931 97.484 206.463 97.928 206.103 98.48C205.767 99.032 205.599 99.644 205.599 100.316V111.224H200.667Z" fill="#F4F4F4"/>
<path d="M235.614 111.224V107.012H244.578C244.866 107.012 245.118 106.952 245.334 106.832C245.574 106.712 245.754 106.544 245.874 106.328C246.018 106.112 246.09 105.872 246.09 105.608C246.09 105.32 246.018 105.068 245.874 104.852C245.754 104.636 245.574 104.468 245.334 104.348C245.118 104.204 244.866 104.132 244.578 104.132H241.122C239.946 104.132 238.878 103.952 237.918 103.592C236.982 103.208 236.226 102.608 235.65 101.792C235.098 100.952 234.822 99.86 234.822 98.516C234.822 97.484 235.074 96.548 235.578 95.708C236.106 94.844 236.802 94.16 237.666 93.656C238.554 93.128 239.526 92.864 240.582 92.864H249.186V97.076H241.05C240.69 97.076 240.366 97.196 240.078 97.436C239.814 97.676 239.682 97.988 239.682 98.372C239.682 98.756 239.814 99.08 240.078 99.344C240.342 99.584 240.666 99.704 241.05 99.704H244.506C245.826 99.704 246.966 99.908 247.926 100.316C248.886 100.7 249.63 101.312 250.158 102.152C250.686 102.992 250.95 104.096 250.95 105.464C250.95 106.52 250.686 107.492 250.158 108.38C249.63 109.244 248.922 109.94 248.034 110.468C247.146 110.972 246.15 111.224 245.046 111.224H235.614Z" fill="#F4F4F4"/>
<path d="M260.652 111.224C259.02 111.224 257.736 110.756 256.8 109.82C255.888 108.884 255.432 107.612 255.432 106.004V88.256H260.364V105.86C260.364 106.172 260.472 106.448 260.688 106.688C260.928 106.904 261.204 107.012 261.516 107.012H265.512V111.224H260.652ZM252.3 97.076V92.864H265.512V97.076H252.3Z" fill="#F4F4F4"/>
<path d="M275.825 111.656C274.145 111.656 272.681 111.224 271.433 110.36C270.185 109.496 269.213 108.344 268.517 106.904C267.845 105.44 267.509 103.832 267.509 102.08C267.509 100.28 267.893 98.648 268.661 97.184C269.453 95.72 270.581 94.568 272.045 93.728C273.509 92.864 275.261 92.432 277.301 92.432C279.365 92.432 281.105 92.864 282.521 93.728C283.937 94.592 285.017 95.756 285.761 97.22C286.505 98.684 286.877 100.304 286.877 102.08V111.224H281.945V108.164H281.873C281.513 108.812 281.057 109.4 280.505 109.928C279.977 110.456 279.329 110.876 278.561 111.188C277.793 111.5 276.881 111.656 275.825 111.656ZM277.229 107.444C278.189 107.444 279.017 107.204 279.713 106.724C280.409 106.244 280.937 105.596 281.297 104.78C281.681 103.94 281.873 103.016 281.873 102.008C281.873 101 281.681 100.1 281.297 99.308C280.937 98.492 280.409 97.844 279.713 97.364C279.017 96.884 278.189 96.644 277.229 96.644C276.245 96.644 275.393 96.884 274.673 97.364C273.977 97.844 273.437 98.492 273.053 99.308C272.693 100.1 272.513 101 272.513 102.008C272.513 103.016 272.693 103.94 273.053 104.78C273.437 105.596 273.977 106.244 274.673 106.724C275.393 107.204 276.245 107.444 277.229 107.444Z" fill="#F4F4F4"/>
<path d="M300.366 111.224C298.47 111.224 296.778 110.816 295.29 110C293.802 109.184 292.626 108.092 291.762 106.724C290.898 105.332 290.466 103.772 290.466 102.044C290.466 100.316 290.898 98.768 291.762 97.4C292.626 96.008 293.802 94.904 295.29 94.088C296.778 93.272 298.47 92.864 300.366 92.864H302.67V97.076H300.366C299.358 97.076 298.482 97.292 297.738 97.724C297.018 98.156 296.454 98.756 296.046 99.524C295.662 100.268 295.47 101.108 295.47 102.044C295.47 102.98 295.662 103.832 296.046 104.6C296.454 105.344 297.018 105.932 297.738 106.364C298.482 106.796 299.358 107.012 300.366 107.012H302.67V111.224H300.366Z" fill="#F4F4F4"/>
<path d="M306.1 111.224V84.944H311.032V99.884H313.948L318.376 92.864H323.776L318.736 100.64C320.296 101.288 321.508 102.284 322.372 103.628C323.236 104.972 323.668 106.472 323.668 108.128V111.224H318.736V108.128C318.736 107.384 318.544 106.712 318.16 106.112C317.8 105.488 317.32 104.996 316.72 104.636C316.12 104.276 315.448 104.096 314.704 104.096H311.032V111.224H306.1Z" fill="#F4F4F4"/>
<path d="M342.34 106.544C342.34 105.176 343.708 104.312 345.76 104.312C346.732 104.312 347.704 104.456 348.64 104.708C348.64 104.96 348.64 105.176 348.64 105.356C348.64 107.48 347.884 108.632 345.688 108.632C343.78 108.632 342.34 108.02 342.34 106.544ZM353.032 83.036H347.884C348.028 83.756 348.136 84.872 348.136 85.412C348.136 86.168 348.172 87.644 348.172 89.408C347.344 89.444 346.48 89.444 345.652 89.444C343.492 89.444 341.404 89.336 339.352 89.12V93.404C341.476 93.548 343.528 93.62 345.652 93.62C346.48 93.62 347.344 93.62 348.208 93.584C348.244 96.14 348.388 98.768 348.46 101C347.74 100.892 346.948 100.856 346.12 100.856C341.224 100.856 338.128 103.376 338.128 107.012C338.128 110.792 341.224 112.88 346.192 112.88C351.052 112.88 352.996 110.432 353.212 106.976C354.652 107.948 356.092 109.208 357.604 110.612L360.088 106.832C358.36 105.248 356.092 103.412 353.104 102.188C352.96 99.74 352.78 96.86 352.708 93.368C354.688 93.224 356.56 93.008 358.288 92.756V88.256C356.56 88.616 354.688 88.904 352.708 89.084C352.744 87.5 352.78 86.168 352.816 85.376C352.852 84.584 352.924 83.72 353.032 83.036ZM335.464 83.432L330.496 83C330.46 84.152 330.28 85.52 330.136 86.528C329.74 89.3 328.66 96.104 328.66 101.54C328.66 106.436 329.344 110.54 330.1 113.06L334.168 112.736C334.132 112.232 334.096 111.62 334.096 111.26C334.096 110.864 334.168 110.072 334.276 109.568C334.708 107.624 335.86 103.952 336.868 101L334.672 99.2C334.132 100.424 333.52 101.648 333.052 102.908C332.944 102.188 332.908 101.288 332.908 100.568C332.908 96.968 334.096 89.048 334.636 86.636C334.744 85.988 335.176 84.152 335.464 83.432Z" fill="#F4F4F4"/>
<path d="M370.456 113.708L374.308 110.396C372.508 108.164 369.016 104.6 366.46 102.512L362.716 105.752C365.2 107.912 368.26 111.008 370.456 113.708Z" fill="#F4F4F4"/>
</g>
<defs>
<linearGradient id="paint0_linear_134_3216" x1="117.201" y1="20.3525" x2="24.5706" y2="25.1089" gradientUnits="userSpaceOnUse">
<stop stop-color="#292929"/>
<stop offset="0.491667" stop-color="#353349" stop-opacity="0.968944"/>
<stop offset="1" stop-color="#395185" stop-opacity="0.98"/>
</linearGradient>
<linearGradient id="paint1_linear_134_3216" x1="117.201" y1="20.3525" x2="24.5706" y2="25.1089" gradientUnits="userSpaceOnUse">
<stop stop-color="#292929"/>
<stop offset="0.491667" stop-color="#353349" stop-opacity="0.968944"/>
<stop offset="1" stop-color="#395185" stop-opacity="0.98"/>
</linearGradient>
<linearGradient id="paint2_linear_134_3216" x1="117.201" y1="20.3525" x2="24.5706" y2="25.1089" gradientUnits="userSpaceOnUse">
<stop stop-color="#292929"/>
<stop offset="0.491667" stop-color="#353349" stop-opacity="0.968944"/>
<stop offset="1" stop-color="#395185" stop-opacity="0.98"/>
</linearGradient>
<linearGradient id="paint3_linear_134_3216" x1="117.201" y1="20.3525" x2="24.5706" y2="25.1089" gradientUnits="userSpaceOnUse">
<stop stop-color="#292929"/>
<stop offset="0.491667" stop-color="#353349" stop-opacity="0.968944"/>
<stop offset="1" stop-color="#395185" stop-opacity="0.98"/>
</linearGradient>
<clipPath id="clip0_134_3216">
<rect width="920" height="167" fill="white"/>
</clipPath>
</defs>
</svg>
