<svg width="920" height="167" viewBox="0 0 920 167" fill="none" xmlns="http://www.w3.org/2000/svg">
<g clip-path="url(#clip0_134_3216)">
<rect width="920" height="167" rx="4" fill="#92FF26" fill-opacity="0.66"/>
<path d="M863.634 -12.5954C810.729 -57.5392 731.348 -51.0805 686.404 1.82481C641.461 54.7301 647.919 134.11 700.825 179.054C753.73 223.998 833.11 217.539 878.054 164.634C922.998 111.729 916.539 32.3484 863.634 -12.5954ZM711.982 155.801L763.044 95.6948L729.63 67.3092L857.085 14.5727L806.024 74.6793L838.189 102.004L711.982 155.801Z" fill="#F4F4F4" fill-opacity="0.45"/>
<path d="M24.688 26.332C24.256 26.764 23.734 27.268 23.122 27.844C22.51 28.42 21.844 29.014 21.124 29.626C20.422 30.238 19.675 30.841 18.883 31.435C18.109 32.029 17.335 32.56 16.561 33.028C15.787 33.478 15.031 33.847 14.293 34.135C13.555 34.423 12.871 34.567 12.241 34.567C12.115 34.567 12.043 34.54 12.025 34.486C12.025 34.468 12.025 34.459 12.025 34.459C12.043 34.459 12.052 34.45 12.052 34.432C12.34 34.072 12.655 33.757 12.997 33.487C13.357 33.199 13.717 32.929 14.077 32.677C14.455 32.425 14.833 32.182 15.211 31.948C15.589 31.696 15.949 31.417 16.291 31.111C16.435 30.985 16.687 30.742 17.047 30.382C17.407 30.022 17.821 29.599 18.289 29.113C18.757 28.627 19.243 28.114 19.747 27.574C20.251 27.034 20.719 26.53 21.151 26.062C21.583 25.594 21.934 25.189 22.204 24.847C22.474 24.505 22.609 24.289 22.609 24.199C22.609 23.947 22.465 23.668 22.177 23.362C21.889 23.056 21.52 22.75 21.07 22.444C20.638 22.12 20.161 21.805 19.639 21.499C19.135 21.175 18.658 20.878 18.208 20.608C17.776 20.338 17.416 20.095 17.128 19.879C16.84 19.663 16.696 19.501 16.696 19.393C16.696 19.321 16.741 19.276 16.831 19.258C16.921 19.24 16.984 19.231 17.02 19.231C17.614 19.231 18.208 19.357 18.802 19.609C19.396 19.843 19.99 20.113 20.584 20.419C21.178 20.707 21.772 20.977 22.366 21.229C22.978 21.463 23.599 21.58 24.229 21.58C24.355 21.58 24.508 21.463 24.688 21.229C24.886 20.977 25.084 20.671 25.282 20.311C25.48 19.933 25.678 19.519 25.876 19.069C26.074 18.619 26.245 18.187 26.389 17.773C26.551 17.341 26.677 16.963 26.767 16.639C26.875 16.297 26.929 16.054 26.929 15.91C26.929 15.532 26.821 15.19 26.605 14.884C26.389 14.578 26.191 14.326 26.011 14.128C25.831 13.912 25.723 13.75 25.687 13.642C25.669 13.534 25.84 13.48 26.2 13.48C26.65 13.48 27.172 13.543 27.766 13.669C28.378 13.777 28.954 13.966 29.494 14.236C30.034 14.488 30.493 14.821 30.871 15.235C31.249 15.649 31.438 16.144 31.438 16.72C31.438 16.936 31.33 17.215 31.114 17.557C30.916 17.899 30.664 18.277 30.358 18.691C30.052 19.087 29.71 19.51 29.332 19.96C28.972 20.392 28.639 20.806 28.333 21.202C28.027 21.598 27.766 21.958 27.55 22.282C27.352 22.606 27.253 22.867 27.253 23.065C27.253 23.443 27.46 23.794 27.874 24.118C28.288 24.442 28.747 24.811 29.251 25.225C29.755 25.621 30.214 26.107 30.628 26.683C31.042 27.241 31.249 27.943 31.249 28.789C31.249 29.365 31.096 29.815 30.79 30.139C30.502 30.445 30.07 30.598 29.494 30.598C29.062 30.598 28.684 30.499 28.36 30.301C28.054 30.085 27.766 29.824 27.496 29.518C27.244 29.194 27.01 28.852 26.794 28.492C26.596 28.114 26.398 27.763 26.2 27.439C26.002 27.115 25.795 26.845 25.579 26.629C25.363 26.395 25.129 26.269 24.877 26.251L24.688 26.332ZM45.829 35.728L45.91 35.566C47.422 34.594 48.691 33.568 49.717 32.488C50.743 31.408 51.562 30.238 52.174 28.978C52.804 27.718 53.254 26.35 53.524 24.874C53.794 23.398 53.929 21.778 53.929 20.014C53.929 19.654 53.947 19.258 53.983 18.826C54.019 18.376 54.028 17.926 54.01 17.476C53.992 17.026 53.92 16.603 53.794 16.207C53.686 15.811 53.479 15.487 53.173 15.235C53.083 15.163 52.957 15.1 52.795 15.046C52.651 14.974 52.507 14.902 52.363 14.83C52.219 14.758 52.084 14.677 51.958 14.587C51.832 14.497 51.76 14.398 51.742 14.29C51.796 14.11 51.931 13.939 52.147 13.777C52.363 13.597 52.606 13.453 52.876 13.345C53.146 13.219 53.416 13.12 53.686 13.048C53.956 12.976 54.181 12.94 54.361 12.94C54.649 12.94 54.991 12.994 55.387 13.102C55.801 13.21 56.188 13.363 56.548 13.561C56.926 13.759 57.241 14.002 57.493 14.29C57.763 14.578 57.898 14.893 57.898 15.235C57.898 15.811 57.817 16.387 57.655 16.963C57.511 17.539 57.403 18.115 57.331 18.691C57.205 19.717 57.106 20.743 57.034 21.769C56.98 22.777 56.872 23.794 56.71 24.82C56.44 26.44 56.026 27.871 55.468 29.113C54.928 30.337 54.217 31.399 53.335 32.299C52.453 33.181 51.4 33.901 50.176 34.459C48.952 35.035 47.53 35.476 45.91 35.782L45.829 35.728ZM47.881 27.169C47.881 27.547 47.746 27.853 47.476 28.087C47.206 28.321 46.891 28.438 46.531 28.438C46.171 28.438 45.856 28.348 45.586 28.168C45.334 27.988 45.109 27.754 44.911 27.466C44.731 27.178 44.596 26.872 44.506 26.548C44.416 26.206 44.371 25.882 44.371 25.576C44.371 25.162 44.434 24.766 44.56 24.388C44.686 24.01 44.749 23.614 44.749 23.2C44.749 22.408 44.758 21.625 44.776 20.851C44.812 20.059 44.83 19.267 44.83 18.475C44.83 18.169 44.803 17.845 44.749 17.503C44.713 17.161 44.632 16.846 44.506 16.558C44.362 16.252 44.182 16 43.966 15.802C43.75 15.586 43.498 15.379 43.21 15.181C43.12 15.127 43.03 15.082 42.94 15.046C42.85 14.992 42.769 14.929 42.697 14.857C42.643 14.803 42.616 14.758 42.616 14.722C42.616 14.596 42.697 14.488 42.859 14.398C43.039 14.308 43.246 14.236 43.48 14.182C43.714 14.128 43.939 14.092 44.155 14.074C44.389 14.038 44.551 14.02 44.641 14.02C44.947 14.02 45.325 14.083 45.775 14.209C46.225 14.317 46.657 14.479 47.071 14.695C47.485 14.911 47.836 15.172 48.124 15.478C48.412 15.784 48.556 16.126 48.556 16.504C48.556 16.702 48.52 16.891 48.448 17.071C48.376 17.251 48.295 17.431 48.205 17.611C48.133 17.773 48.061 17.944 47.989 18.124C47.917 18.304 47.881 18.493 47.881 18.691V27.169ZM70.939 34.999C71.371 34.693 71.803 34.387 72.235 34.081C72.685 33.793 73.117 33.487 73.531 33.163C74.359 32.533 75.259 31.786 76.231 30.922C77.221 30.04 78.139 29.086 78.985 28.06C79.849 27.034 80.569 25.963 81.145 24.847C81.721 23.731 82.009 22.615 82.009 21.499C82.009 21.319 81.973 21.157 81.901 21.013C81.829 20.869 81.748 20.743 81.658 20.635C81.568 20.509 81.487 20.392 81.415 20.284C81.343 20.176 81.307 20.068 81.307 19.96C81.307 19.852 81.352 19.78 81.442 19.744C81.532 19.69 81.64 19.654 81.766 19.636C81.892 19.6 82.018 19.582 82.144 19.582C82.27 19.582 82.36 19.582 82.414 19.582C82.738 19.582 83.098 19.654 83.494 19.798C83.89 19.942 84.259 20.14 84.601 20.392C84.943 20.644 85.222 20.941 85.438 21.283C85.672 21.607 85.789 21.949 85.789 22.309C85.789 22.453 85.744 22.615 85.654 22.795C85.582 22.975 85.483 23.155 85.357 23.335C85.249 23.515 85.132 23.686 85.006 23.848C84.88 24.01 84.781 24.154 84.709 24.28C84.025 25.288 83.296 26.323 82.522 27.385C81.748 28.429 80.911 29.419 80.011 30.355C79.111 31.291 78.139 32.137 77.095 32.893C76.051 33.649 74.935 34.234 73.747 34.648C73.603 34.702 73.396 34.765 73.126 34.837C72.874 34.909 72.604 34.972 72.316 35.026C72.028 35.08 71.749 35.107 71.479 35.107C71.227 35.125 71.038 35.107 70.912 35.053L70.939 34.999ZM74.152 19.771C74.836 19.807 75.448 19.96 75.988 20.23C76.546 20.482 77.005 20.806 77.365 21.202C77.725 21.598 77.995 22.021 78.175 22.471C78.373 22.903 78.463 23.308 78.445 23.686C78.427 24.064 78.301 24.379 78.067 24.631C77.833 24.883 77.482 25.009 77.014 25.009C76.906 25.009 76.789 25.009 76.663 25.009C76.555 25.009 76.447 24.991 76.339 24.955C76.051 24.649 75.799 24.298 75.583 23.902C75.367 23.488 75.169 23.065 74.989 22.633C74.809 22.183 74.647 21.733 74.503 21.283C74.359 20.833 74.224 20.41 74.098 20.014C74.08 19.978 74.071 19.924 74.071 19.852L74.152 19.771ZM69.4 21.634C69.4 21.454 69.481 21.364 69.643 21.364C70.111 21.364 70.597 21.49 71.101 21.742C71.605 21.976 72.064 22.282 72.478 22.66C72.892 23.038 73.234 23.47 73.504 23.956C73.774 24.424 73.909 24.901 73.909 25.387C73.909 25.819 73.792 26.17 73.558 26.44C73.342 26.692 73.009 26.818 72.559 26.818C72.289 26.818 71.965 26.602 71.587 26.17C71.227 25.72 70.885 25.207 70.561 24.631C70.237 24.037 69.958 23.452 69.724 22.876C69.508 22.3 69.4 21.886 69.4 21.634ZM98.614 13.453C98.614 13.309 98.713 13.183 98.911 13.075C99.127 12.967 99.37 12.877 99.64 12.805C99.91 12.715 100.171 12.652 100.423 12.616C100.693 12.58 100.882 12.562 100.99 12.562C101.278 12.562 101.638 12.616 102.07 12.724C102.52 12.832 102.952 12.994 103.366 13.21C103.78 13.408 104.131 13.651 104.419 13.939C104.725 14.227 104.878 14.542 104.878 14.884C104.878 15.55 104.77 16.189 104.554 16.801C104.356 17.413 104.203 18.043 104.095 18.691C104.041 19.051 104.005 19.402 103.987 19.744C103.969 20.086 103.96 20.437 103.96 20.797C103.96 20.905 104.032 20.986 104.176 21.04C104.338 21.094 104.518 21.139 104.716 21.175C104.932 21.193 105.13 21.202 105.31 21.202C105.508 21.202 105.652 21.202 105.742 21.202C106.408 21.256 107.146 21.373 107.956 21.553C108.784 21.715 109.549 21.976 110.251 22.336C110.971 22.678 111.574 23.128 112.06 23.686C112.546 24.244 112.789 24.955 112.789 25.819C112.789 26.359 112.645 26.809 112.357 27.169C112.087 27.529 111.664 27.709 111.088 27.709C110.656 27.709 110.233 27.565 109.819 27.277C109.423 26.971 109.027 26.593 108.631 26.143C108.235 25.693 107.848 25.207 107.47 24.685C107.11 24.145 106.741 23.65 106.363 23.2C105.985 22.75 105.607 22.381 105.229 22.093C104.851 21.787 104.464 21.634 104.068 21.634C103.888 21.634 103.798 21.715 103.798 21.877C103.798 23.857 103.825 25.828 103.879 27.79C103.951 29.752 103.987 31.723 103.987 33.703C103.987 34.243 103.888 34.639 103.69 34.891C103.492 35.143 103.105 35.269 102.529 35.269C101.971 35.269 101.539 35.134 101.233 34.864C100.945 34.594 100.729 34.252 100.585 33.838C100.459 33.424 100.387 32.983 100.369 32.515C100.351 32.047 100.342 31.606 100.342 31.192C100.342 29.716 100.414 28.249 100.558 26.791C100.702 25.315 100.774 23.839 100.774 22.363C100.774 21.985 100.774 21.49 100.774 20.878C100.792 20.248 100.801 19.609 100.801 18.961C100.801 18.295 100.783 17.665 100.747 17.071C100.711 16.477 100.648 16.018 100.558 15.694C100.432 15.244 100.27 14.893 100.072 14.641C99.874 14.371 99.577 14.119 99.181 13.885C99.091 13.831 98.992 13.786 98.884 13.75C98.794 13.696 98.704 13.633 98.614 13.561V13.453ZM127.909 28.951C127.909 28.573 128.017 28.222 128.233 27.898C128.449 27.556 128.683 27.241 128.935 26.953C129.205 26.647 129.448 26.368 129.664 26.116C129.88 25.846 129.988 25.585 129.988 25.333C129.988 25.153 129.907 25.063 129.745 25.063C129.097 25.063 128.449 25.261 127.801 25.657C127.153 26.035 126.523 26.458 125.911 26.926C125.317 27.394 124.741 27.826 124.183 28.222C123.643 28.6 123.13 28.789 122.644 28.789C122.374 28.789 122.122 28.726 121.888 28.6C121.654 28.456 121.447 28.285 121.267 28.087C121.087 27.871 120.943 27.637 120.835 27.385C120.727 27.133 120.673 26.881 120.673 26.629C120.673 26.323 120.88 25.99 121.294 25.63C121.726 25.27 122.221 24.919 122.779 24.577C123.337 24.217 123.895 23.893 124.453 23.605C125.011 23.317 125.416 23.101 125.668 22.957C126.136 22.687 126.568 22.381 126.964 22.039C127.378 21.679 127.783 21.31 128.179 20.932C128.935 20.23 129.7 19.519 130.474 18.799C131.248 18.061 131.941 17.269 132.553 16.423C132.679 16.261 132.787 16.09 132.877 15.91C132.985 15.712 133.039 15.505 133.039 15.289C133.039 15.109 132.958 15.019 132.796 15.019C132.328 15.019 131.878 15.172 131.446 15.478C131.032 15.766 130.609 16.09 130.177 16.45C129.745 16.792 129.295 17.107 128.827 17.395C128.377 17.683 127.882 17.827 127.342 17.827C126.964 17.827 126.604 17.728 126.262 17.53C125.938 17.332 125.65 17.08 125.398 16.774C125.164 16.45 124.975 16.108 124.831 15.748C124.705 15.37 124.642 15.001 124.642 14.641C124.642 14.533 124.642 14.389 124.642 14.209C124.66 14.029 124.687 13.858 124.723 13.696C124.777 13.516 124.84 13.363 124.912 13.237C124.984 13.093 125.083 13.012 125.209 12.994C125.335 12.976 125.452 13.057 125.56 13.237C125.668 13.399 125.794 13.579 125.938 13.777C126.082 13.975 126.253 14.164 126.451 14.344C126.667 14.506 126.937 14.587 127.261 14.587C127.873 14.587 128.458 14.488 129.016 14.29C129.574 14.092 130.123 13.885 130.663 13.669C131.221 13.435 131.779 13.219 132.337 13.021C132.895 12.823 133.48 12.724 134.092 12.724C134.434 12.724 134.812 12.814 135.226 12.994C135.658 13.156 136.045 13.381 136.387 13.669C136.747 13.957 137.044 14.281 137.278 14.641C137.53 15.001 137.656 15.37 137.656 15.748C137.656 16.054 137.404 16.414 136.9 16.828C136.414 17.224 135.802 17.647 135.064 18.097C134.326 18.547 133.525 19.015 132.661 19.501C131.797 19.969 130.996 20.437 130.258 20.905C129.52 21.373 128.899 21.823 128.395 22.255C127.909 22.687 127.666 23.074 127.666 23.416C127.666 23.596 127.747 23.686 127.909 23.686C128.827 23.686 129.709 23.551 130.555 23.281C131.401 22.993 132.238 22.687 133.066 22.363C133.912 22.021 134.758 21.715 135.604 21.445C136.45 21.157 137.332 21.013 138.25 21.013C138.574 21.013 138.934 21.031 139.33 21.067C139.744 21.103 140.131 21.193 140.491 21.337C140.869 21.463 141.175 21.661 141.409 21.931C141.661 22.183 141.787 22.525 141.787 22.957C141.787 23.407 141.643 23.686 141.355 23.794C141.067 23.902 140.743 23.956 140.383 23.956C139.789 23.956 139.105 23.956 138.331 23.956C137.557 23.956 136.765 23.992 135.955 24.064C135.163 24.136 134.38 24.271 133.606 24.469C132.832 24.649 132.139 24.919 131.527 25.279C130.915 25.639 130.42 26.116 130.042 26.71C129.682 27.286 129.502 28.006 129.502 28.87C129.502 29.518 129.619 30.04 129.853 30.436C130.105 30.814 130.429 31.111 130.825 31.327C131.221 31.525 131.671 31.669 132.175 31.759C132.697 31.831 133.219 31.894 133.741 31.948C134.281 31.984 134.803 32.029 135.307 32.083C135.829 32.119 136.288 32.209 136.684 32.353C137.08 32.497 137.395 32.713 137.629 33.001C137.881 33.289 138.007 33.685 138.007 34.189C138.007 34.621 137.908 34.936 137.71 35.134C137.53 35.35 137.287 35.494 136.981 35.566C136.693 35.638 136.378 35.665 136.036 35.647C135.694 35.647 135.379 35.647 135.091 35.647C134.497 35.647 133.786 35.584 132.958 35.458C132.13 35.332 131.338 35.116 130.582 34.81C129.844 34.522 129.214 34.126 128.692 33.622C128.17 33.1 127.909 32.443 127.909 31.651V28.951ZM157.852 34.27C157.87 34.216 157.924 34.162 158.014 34.108C158.842 33.622 159.616 33.19 160.336 32.812C161.074 32.434 161.74 32.056 162.334 31.678C162.928 31.3 163.459 30.904 163.927 30.49C164.395 30.058 164.791 29.554 165.115 28.978C165.439 28.384 165.682 27.691 165.844 26.899C166.006 26.107 166.087 25.144 166.087 24.01C166.087 23.254 166.015 22.498 165.871 21.742C165.727 20.986 165.493 20.266 165.169 19.582C164.845 18.88 164.431 18.25 163.927 17.692C163.423 17.134 162.811 16.675 162.091 16.315C161.497 16.009 160.921 15.82 160.363 15.748C159.823 15.676 159.229 15.64 158.581 15.64C158.527 15.64 158.446 15.64 158.338 15.64C158.248 15.622 158.149 15.613 158.041 15.613C157.933 15.613 157.834 15.631 157.744 15.667C157.672 15.703 157.627 15.757 157.609 15.829C157.573 16.009 157.645 16.234 157.825 16.504C158.023 16.774 158.239 17.089 158.473 17.449C158.707 17.791 158.923 18.169 159.121 18.583C159.319 18.979 159.418 19.402 159.418 19.852C159.418 20.536 159.328 21.328 159.148 22.228C158.968 23.11 158.698 24.028 158.338 24.982C157.996 25.918 157.573 26.845 157.069 27.763C156.583 28.681 156.034 29.5 155.422 30.22C154.81 30.922 154.135 31.498 153.397 31.948C152.659 32.38 151.885 32.596 151.075 32.596C150.319 32.596 149.671 32.353 149.131 31.867C148.591 31.363 148.15 30.76 147.808 30.058C147.466 29.338 147.214 28.582 147.052 27.79C146.89 26.98 146.809 26.278 146.809 25.684C146.809 24.064 147.16 22.579 147.862 21.229C148.564 19.879 149.491 18.727 150.643 17.773C151.795 16.801 153.109 16.054 154.585 15.532C156.061 14.992 157.564 14.722 159.094 14.722C160.534 14.722 161.902 14.974 163.198 15.478C164.512 15.964 165.655 16.657 166.627 17.557C167.617 18.439 168.4 19.501 168.976 20.743C169.57 21.967 169.867 23.326 169.867 24.82C169.867 26.332 169.534 27.682 168.868 28.87C168.22 30.058 167.365 31.066 166.303 31.894C165.241 32.704 164.035 33.325 162.685 33.757C161.335 34.171 159.967 34.378 158.581 34.378C158.437 34.378 158.311 34.378 158.203 34.378C158.095 34.396 157.978 34.36 157.852 34.27ZM149.32 24.55C149.32 24.856 149.347 25.243 149.401 25.711C149.473 26.161 149.581 26.602 149.725 27.034C149.887 27.466 150.103 27.835 150.373 28.141C150.643 28.447 150.985 28.6 151.399 28.6C151.903 28.6 152.398 28.411 152.884 28.033C153.37 27.637 153.829 27.133 154.261 26.521C154.693 25.891 155.089 25.198 155.449 24.442C155.827 23.668 156.142 22.903 156.394 22.147C156.664 21.391 156.871 20.68 157.015 20.014C157.177 19.348 157.258 18.808 157.258 18.394C157.258 18.232 157.24 18.016 157.204 17.746C157.186 17.476 157.132 17.215 157.042 16.963C156.97 16.693 156.862 16.468 156.718 16.288C156.574 16.09 156.394 15.991 156.178 15.991C155.566 15.991 154.963 16.126 154.369 16.396C153.793 16.666 153.253 17.026 152.749 17.476C152.245 17.926 151.777 18.439 151.345 19.015C150.931 19.591 150.571 20.203 150.265 20.851C149.959 21.481 149.725 22.12 149.563 22.768C149.401 23.398 149.32 23.992 149.32 24.55ZM175.78 18.772L175.888 18.691H183.07C183.25 18.691 183.34 18.601 183.34 18.421V11.455C183.34 11.275 183.448 11.185 183.664 11.185C183.844 11.185 184.123 11.203 184.501 11.239C184.879 11.257 185.275 11.284 185.689 11.32C186.121 11.356 186.517 11.401 186.877 11.455C187.237 11.491 187.498 11.536 187.66 11.59C187.696 11.608 187.741 11.635 187.795 11.671C187.849 11.689 187.876 11.725 187.876 11.779C187.876 11.887 187.768 11.968 187.552 12.022C187.354 12.076 187.201 12.184 187.093 12.346C187.057 12.4 187.03 12.58 187.012 12.886C186.994 13.192 186.976 13.57 186.958 14.02C186.94 14.452 186.922 14.92 186.904 15.424C186.904 15.928 186.904 16.405 186.904 16.855C186.922 17.287 186.931 17.656 186.931 17.962C186.949 18.25 186.976 18.403 187.012 18.421C187.066 18.475 187.129 18.529 187.201 18.583C187.273 18.637 187.345 18.673 187.417 18.691C187.543 18.709 187.741 18.718 188.011 18.718C188.281 18.7 188.56 18.682 188.848 18.664C189.154 18.628 189.451 18.601 189.739 18.583C190.027 18.547 190.261 18.529 190.441 18.529L190.63 18.448C190.954 18.142 191.251 17.8 191.521 17.422C191.791 17.044 192.043 16.657 192.277 16.261L192.439 16.153C192.655 16.153 192.943 16.252 193.303 16.45C193.663 16.63 194.005 16.864 194.329 17.152C194.671 17.422 194.968 17.71 195.22 18.016C195.472 18.322 195.598 18.583 195.598 18.799C195.598 18.835 195.544 18.871 195.436 18.907C195.346 18.943 195.238 18.979 195.112 19.015C194.986 19.033 194.86 19.051 194.734 19.069C194.608 19.069 194.527 19.069 194.491 19.069C194.077 19.069 193.663 19.06 193.249 19.042C192.835 19.024 192.421 19.015 192.007 19.015C189.307 18.979 186.616 18.952 183.934 18.934C181.252 18.898 178.561 18.88 175.861 18.88L175.78 18.772ZM187.795 15.1C187.651 15.1 187.561 15.028 187.525 14.884C187.561 14.848 187.597 14.83 187.633 14.83H191.791C192.007 14.83 192.214 14.695 192.412 14.425C192.61 14.155 192.799 13.858 192.979 13.534C193.159 13.192 193.321 12.886 193.465 12.616C193.627 12.346 193.771 12.211 193.897 12.211C194.059 12.211 194.302 12.328 194.626 12.562C194.95 12.778 195.283 13.039 195.625 13.345C195.967 13.633 196.264 13.93 196.516 14.236C196.786 14.524 196.939 14.749 196.975 14.911L196.921 15.019L196.732 15.1H187.795ZM174.079 14.911H182.665C182.701 14.911 182.728 14.92 182.746 14.938L182.692 15.019L182.503 15.1H174.079L173.971 14.992L174.079 14.911ZM197.434 22.633C197.416 22.669 197.281 22.768 197.029 22.93C196.795 23.074 196.498 23.245 196.138 23.443C195.778 23.641 195.391 23.848 194.977 24.064C194.563 24.28 194.167 24.478 193.789 24.658C193.429 24.838 193.114 24.991 192.844 25.117C192.574 25.225 192.403 25.279 192.331 25.279C192.205 25.279 192.142 25.207 192.142 25.063C192.142 24.595 192.223 24.136 192.385 23.686C192.547 23.236 192.628 22.777 192.628 22.309C192.628 22.129 192.538 22.039 192.358 22.039H178.129C178.003 22.039 177.94 21.976 177.94 21.85C177.94 21.724 178.003 21.661 178.129 21.661H192.412C192.502 21.661 192.637 21.562 192.817 21.364C193.015 21.166 193.213 20.959 193.411 20.743C193.627 20.509 193.825 20.293 194.005 20.095C194.185 19.897 194.32 19.798 194.41 19.798C194.464 19.798 194.644 19.933 194.95 20.203C195.256 20.455 195.589 20.752 195.949 21.094C196.309 21.436 196.633 21.76 196.921 22.066C197.227 22.372 197.398 22.561 197.434 22.633ZM173.242 25.171C173.242 24.793 173.341 24.442 173.539 24.118C173.755 23.794 174.007 23.497 174.295 23.227C174.601 22.939 174.907 22.669 175.213 22.417C175.537 22.147 175.807 21.877 176.023 21.607C176.041 21.571 176.086 21.499 176.158 21.391C176.248 21.265 176.329 21.139 176.401 21.013C176.491 20.887 176.572 20.779 176.644 20.689C176.716 20.581 176.761 20.527 176.779 20.527C176.905 20.527 177.004 20.635 177.076 20.851C177.166 21.049 177.238 21.283 177.292 21.553C177.346 21.823 177.382 22.084 177.4 22.336C177.418 22.588 177.427 22.759 177.427 22.849C177.427 23.281 177.391 23.731 177.319 24.199C177.247 24.667 177.112 25.099 176.914 25.495C176.716 25.873 176.446 26.188 176.104 26.44C175.762 26.692 175.321 26.818 174.781 26.818C174.277 26.818 173.89 26.665 173.62 26.359C173.368 26.035 173.242 25.639 173.242 25.171ZM183.232 35.809C182.854 35.809 182.44 35.791 181.99 35.755C181.54 35.719 181.117 35.629 180.721 35.485C180.325 35.341 179.992 35.125 179.722 34.837C179.47 34.549 179.344 34.144 179.344 33.622C179.344 31.984 179.317 30.355 179.263 28.735C179.209 27.097 179.182 25.459 179.182 23.821C179.182 23.641 179.272 23.551 179.452 23.551C179.686 23.551 179.956 23.56 180.262 23.578C180.568 23.596 180.874 23.623 181.18 23.659C181.504 23.677 181.81 23.713 182.098 23.767C182.404 23.803 182.665 23.857 182.881 23.929C182.917 23.947 182.962 23.965 183.016 23.983C183.07 24.001 183.097 24.028 183.097 24.064C183.097 24.082 183.07 24.127 183.016 24.199C182.98 24.271 182.935 24.352 182.881 24.442C182.827 24.514 182.773 24.595 182.719 24.685C182.665 24.757 182.629 24.82 182.611 24.874C182.575 24.982 182.557 25.153 182.557 25.387C182.557 25.603 182.557 25.837 182.557 26.089C182.575 26.341 182.584 26.593 182.584 26.845C182.602 27.079 182.611 27.259 182.611 27.385C182.611 27.583 182.611 27.925 182.611 28.411C182.611 28.879 182.611 29.374 182.611 29.896C182.629 30.418 182.647 30.904 182.665 31.354C182.701 31.786 182.746 32.065 182.8 32.191C182.872 32.353 182.998 32.479 183.178 32.569C183.358 32.641 183.556 32.704 183.772 32.758C183.988 32.794 184.204 32.812 184.42 32.812C184.636 32.812 184.816 32.812 184.96 32.812C185.86 32.812 186.751 32.794 187.633 32.758C188.533 32.722 189.433 32.686 190.333 32.65C190.585 32.632 190.828 32.632 191.062 32.65C191.296 32.65 191.539 32.623 191.791 32.569C192.043 32.515 192.277 32.371 192.493 32.137C192.709 31.903 192.898 31.642 193.06 31.354C193.24 31.048 193.393 30.742 193.519 30.436C193.663 30.13 193.789 29.869 193.897 29.653C193.933 29.581 193.969 29.545 194.005 29.545C194.113 29.545 194.185 29.671 194.221 29.923C194.257 30.157 194.275 30.427 194.275 30.733C194.275 31.039 194.266 31.336 194.248 31.624C194.23 31.912 194.221 32.101 194.221 32.191C194.221 32.299 194.293 32.407 194.437 32.515C194.581 32.605 194.734 32.713 194.896 32.839C195.076 32.947 195.238 33.091 195.382 33.271C195.526 33.433 195.598 33.64 195.598 33.892C195.598 34.288 195.427 34.612 195.085 34.864C194.761 35.116 194.329 35.305 193.789 35.431C193.267 35.575 192.682 35.674 192.034 35.728C191.404 35.8 190.783 35.836 190.171 35.836C189.559 35.854 188.992 35.854 188.47 35.836C187.966 35.818 187.588 35.809 187.336 35.809H183.232ZM189.361 24.28C189.433 24.28 189.631 24.415 189.955 24.685C190.279 24.955 190.621 25.261 190.981 25.603C191.341 25.927 191.665 26.233 191.953 26.521C192.241 26.809 192.385 26.98 192.385 27.034C192.385 27.124 192.331 27.178 192.223 27.196C192.133 27.196 192.061 27.205 192.007 27.223L189.523 27.574C189.055 27.646 188.56 27.745 188.038 27.871C187.534 27.997 187.021 28.123 186.499 28.249C185.977 28.375 185.464 28.483 184.96 28.573C184.456 28.645 183.979 28.663 183.529 28.627C183.493 28.627 183.448 28.618 183.394 28.6C183.34 28.582 183.313 28.555 183.313 28.519C183.313 28.429 183.331 28.375 183.367 28.357C183.421 28.321 183.475 28.285 183.529 28.249C184.159 27.835 184.789 27.421 185.419 27.007C186.067 26.593 186.697 26.161 187.309 25.711C187.399 25.657 187.534 25.558 187.714 25.414C187.894 25.252 188.083 25.09 188.281 24.928C188.497 24.766 188.686 24.622 188.848 24.496C189.028 24.37 189.145 24.298 189.199 24.28H189.361ZM201.322 32.11C201.322 31.606 201.43 31.192 201.646 30.868C201.862 30.526 202.132 30.274 202.456 30.112C202.78 29.932 203.131 29.842 203.509 29.842C203.887 29.842 204.238 29.932 204.562 30.112C204.886 30.274 205.156 30.526 205.372 30.868C205.588 31.192 205.696 31.606 205.696 32.11C205.696 32.416 205.651 32.704 205.561 32.974C205.489 33.244 205.336 33.478 205.102 33.676C204.904 33.856 204.661 33.991 204.373 34.081C204.085 34.171 203.788 34.216 203.482 34.216C203.194 34.216 202.906 34.171 202.618 34.081C202.348 33.991 202.114 33.856 201.916 33.676C201.682 33.478 201.52 33.244 201.43 32.974C201.358 32.704 201.322 32.416 201.322 32.11Z" fill="#292929"/>
<path d="M431 30.15L431.62 29.685H488.35C489.177 29.685 489.693 29.22 489.9 28.29C490.21 27.2567 490.313 26.0167 490.21 24.57C490.21 23.1233 490.107 21.5733 489.9 19.92C489.693 18.1633 489.538 16.5617 489.435 15.115C489.435 13.6683 489.538 12.48 489.745 11.55C490.055 10.5167 490.623 10 491.45 10C492.793 10 494.447 10.0517 496.41 10.155C498.373 10.2583 500.388 10.4133 502.455 10.62C504.522 10.7233 506.485 10.93 508.345 11.24C510.308 11.4467 511.91 11.7567 513.15 12.17C514.08 12.48 514.442 12.79 514.235 13.1C514.132 13.3067 513.822 13.6167 513.305 14.03C512.788 14.34 512.22 14.7533 511.6 15.27C510.98 15.6833 510.67 16.2 510.67 16.82V28.29L511.135 29.22L512.22 29.685C513.15 29.685 514.958 29.685 517.645 29.685C520.332 29.5817 523.173 29.4783 526.17 29.375C529.167 29.2717 531.905 29.1167 534.385 28.91C536.865 28.7033 538.312 28.4967 538.725 28.29C539.448 27.8767 540.43 26.9467 541.67 25.5C542.91 23.95 544.15 22.4 545.39 20.85C546.63 19.1967 547.767 17.75 548.8 16.51C549.833 15.1667 550.557 14.495 550.97 14.495C551.487 14.495 552.778 15.3217 554.845 16.975C557.015 18.525 559.237 20.2817 561.51 22.245C563.887 24.105 566.005 25.9133 567.865 27.67C569.725 29.3233 570.655 30.2533 570.655 30.46C570.655 30.9767 570.448 31.235 570.035 31.235H530.82C530.303 31.235 529.89 31.4933 529.58 32.01C529.27 32.5267 528.805 32.785 528.185 32.785C527.565 32.785 526.945 32.63 526.325 32.32C525.808 31.9067 525.24 31.7 524.62 31.7C514.597 31.7 504.625 31.7517 494.705 31.855C484.785 31.855 474.813 31.855 464.79 31.855C459.21 31.855 453.682 31.7 448.205 31.39C442.728 30.9767 437.2 30.77 431.62 30.77L431 30.15ZM528.03 35.42C528.753 35.9367 529.942 36.7633 531.595 37.9C533.352 39.0367 535.16 40.2767 537.02 41.62C538.88 42.9633 540.585 44.2033 542.135 45.34C543.685 46.4767 544.667 47.3033 545.08 47.82C545.39 48.13 545.545 48.5433 545.545 49.06C545.545 49.5767 545.338 49.99 544.925 50.3C544.512 50.5067 544.047 50.765 543.53 51.075C543.013 51.2817 542.497 51.4883 541.98 51.695C541.567 51.7983 541.308 51.9533 541.205 52.16C541.102 52.3667 541.05 53.5033 541.05 55.57C541.05 57.6367 541.05 59.9617 541.05 62.545C541.05 65.1283 541.05 67.5567 541.05 69.83C541.05 72.1033 541.05 73.55 541.05 74.17C541.05 74.9967 540.172 75.72 538.415 76.34C536.762 76.96 534.85 77.4767 532.68 77.89C530.51 78.3033 528.392 78.665 526.325 78.975C524.362 79.1817 523.018 79.285 522.295 79.285C521.365 79.285 520.848 78.9233 520.745 78.2C520.745 77.3733 520.797 76.5467 520.9 75.72C521.003 74.79 521.003 73.9633 520.9 73.24C520.9 72.4133 520.538 72 519.815 72H483.39C483.287 72 482.718 72.465 481.685 73.395C480.755 74.2217 479.463 75.2033 477.81 76.34C476.157 77.3733 474.245 78.355 472.075 79.285C469.905 80.1117 467.58 80.525 465.1 80.525C464.48 80.525 463.602 80.525 462.465 80.525C461.432 80.4217 460.915 79.8533 460.915 78.82C460.915 72 460.708 65.2317 460.295 58.515C459.985 51.7983 459.83 45.03 459.83 38.21C459.83 37.9 459.882 37.59 459.985 37.28C460.192 36.97 460.502 36.815 460.915 36.815C461.742 36.815 462.672 37.0217 463.705 37.435C464.842 37.8483 465.978 38.365 467.115 38.985C468.252 39.605 469.337 40.225 470.37 40.845C471.507 41.3617 472.488 41.775 473.315 42.085L481.22 45.03C481.633 45.2367 483.493 45.34 486.8 45.34C490.21 45.34 493.982 45.34 498.115 45.34C502.248 45.34 506.175 45.34 509.895 45.34C513.615 45.2367 516.043 45.185 517.18 45.185C517.697 45.185 518.42 44.72 519.35 43.79C520.383 42.7567 521.417 41.6717 522.45 40.535C523.587 39.295 524.62 38.1583 525.55 37.125C526.583 36.0917 527.41 35.5233 528.03 35.42ZM480.6 68.435C480.6 69.4683 481.117 69.985 482.15 69.985H519.35C520.383 69.985 520.9 69.4683 520.9 68.435V48.75C520.9 47.7167 520.383 47.2 519.35 47.2H482.15C481.117 47.2 480.6 47.7167 480.6 48.75V68.435ZM436.735 154.305L436.58 154.15L436.115 153.065V79.595C436.115 78.665 436.632 78.2 437.665 78.2C439.008 78.2 440.61 78.665 442.47 79.595C444.433 80.4217 446.345 81.3517 448.205 82.385C450.168 83.4183 452.028 84.4 453.785 85.33C455.542 86.1567 456.988 86.57 458.125 86.57H543.53C544.047 86.57 544.667 86.1567 545.39 85.33C546.113 84.4 546.888 83.3667 547.715 82.23C548.542 81.0933 549.368 80.06 550.195 79.13C551.022 78.0967 551.797 77.4767 552.52 77.27C552.933 77.1667 554.07 77.6833 555.93 78.82C557.893 79.9567 559.857 81.3517 561.82 83.005C563.887 84.555 565.747 86.105 567.4 87.655C569.053 89.1017 569.88 90.0833 569.88 90.6C569.88 91.0133 569.673 91.4267 569.26 91.84C568.847 92.2533 568.382 92.6667 567.865 93.08C567.348 93.39 566.883 93.7517 566.47 94.165C566.057 94.5783 565.85 94.9917 565.85 95.405V141.285C565.85 143.558 564.972 145.573 563.215 147.33C561.562 149.087 559.547 150.585 557.17 151.825C554.793 153.065 552.262 153.995 549.575 154.615C546.992 155.338 544.77 155.7 542.91 155.7C542.393 155.7 541.98 155.39 541.67 154.77C541.36 154.15 541.102 153.427 540.895 152.6C540.792 151.877 540.688 151.102 540.585 150.275C540.585 149.552 540.533 148.983 540.43 148.57C540.327 147.95 539.965 146.968 539.345 145.625C538.725 144.385 538.053 143.093 537.33 141.75C536.607 140.407 535.935 139.218 535.315 138.185C534.798 137.152 534.54 136.635 534.54 136.635C534.54 136.015 534.902 135.653 535.625 135.55C536.348 135.447 537.175 135.447 538.105 135.55C539.138 135.55 540.12 135.55 541.05 135.55C541.98 135.55 542.652 135.395 543.065 135.085C543.168 134.982 543.375 134.723 543.685 134.31C543.995 133.897 544.305 133.483 544.615 133.07C544.925 132.553 545.183 132.088 545.39 131.675C545.597 131.262 545.7 131.003 545.7 130.9V91.22C545.7 90.1867 545.183 89.67 544.15 89.67H457.35C456.317 89.67 455.8 90.1867 455.8 91.22V148.57C455.8 149.913 455.025 150.998 453.475 151.825C452.028 152.652 450.272 153.272 448.205 153.685C446.242 154.098 444.227 154.357 442.16 154.46C440.197 154.667 438.75 154.77 437.82 154.77L436.735 154.305ZM510.98 103.62C511.29 103.31 511.807 102.742 512.53 101.915C513.357 101.088 514.235 100.21 515.165 99.28C516.095 98.35 516.922 97.575 517.645 96.955C518.472 96.2317 519.04 95.87 519.35 95.87C519.453 95.87 520.28 96.4383 521.83 97.575C523.38 98.6083 525.033 99.7967 526.79 101.14C528.547 102.483 530.148 103.775 531.595 105.015C533.145 106.152 534.023 106.875 534.23 107.185L534.385 107.495C534.385 108.425 533.868 109.2 532.835 109.82C531.905 110.44 531.337 111.267 531.13 112.3C530.923 113.23 530.82 114.212 530.82 115.245C530.923 116.175 530.975 117.105 530.975 118.035C530.975 119.688 530.923 121.342 530.82 122.995C530.717 124.545 530.562 126.147 530.355 127.8C530.252 128.523 530.2 129.247 530.2 129.97C530.303 130.59 530.303 131.262 530.2 131.985C529.993 133.535 529.322 134.775 528.185 135.705C527.048 136.532 525.705 137.152 524.155 137.565C522.605 137.978 521.003 138.237 519.35 138.34C517.697 138.443 516.25 138.495 515.01 138.495C514.183 138.495 513.615 138.288 513.305 137.875C512.995 137.358 512.788 136.79 512.685 136.17C512.685 135.447 512.685 134.723 512.685 134C512.685 133.277 512.633 132.657 512.53 132.14C512.427 131.933 512.272 131.675 512.065 131.365C511.858 130.952 511.755 130.642 511.755 130.435C511.652 129.815 511.755 129.247 512.065 128.73C512.375 128.213 512.53 127.697 512.53 127.18V108.735C512.53 107.702 512.013 107.185 510.98 107.185H490.365C489.332 107.185 488.815 107.702 488.815 108.735V127.335C488.815 128.472 489.848 129.092 491.915 129.195C494.085 129.195 496.41 129.143 498.89 129.04C501.473 128.833 503.798 128.73 505.865 128.73C508.035 128.73 509.12 129.195 509.12 130.125C508.81 130.332 507.777 130.487 506.02 130.59C504.367 130.59 502.455 130.59 500.285 130.59C498.218 130.59 496.203 130.59 494.24 130.59C492.38 130.487 491.14 130.435 490.52 130.435C490.003 130.435 489.487 130.848 488.97 131.675C488.557 132.398 488.04 133.277 487.42 134.31C486.903 135.343 486.335 136.325 485.715 137.255C485.095 138.185 484.423 138.857 483.7 139.27C482.253 139.993 480.445 140.51 478.275 140.82C476.105 141.13 474.245 141.285 472.695 141.285C472.178 141.285 471.817 141.182 471.61 140.975C471.507 140.768 471.352 140.407 471.145 139.89C470.835 138.857 470.628 137.513 470.525 135.86C470.525 134.103 470.525 132.295 470.525 130.435C470.525 128.575 470.525 126.767 470.525 125.01C470.628 123.253 470.68 121.755 470.68 120.515C470.37 113.075 470.215 105.635 470.215 98.195C470.215 97.3683 470.577 96.955 471.3 96.955C471.92 96.955 472.902 97.3167 474.245 98.04C475.588 98.7633 477.087 99.59 478.74 100.52C480.393 101.45 482.098 102.277 483.855 103C485.612 103.723 487.265 104.085 488.815 104.085H509.895L510.98 103.62Z" fill="#F4F4F4"/>
<path d="M608.165 65.8C609.198 66.11 610.645 67.04 612.505 68.59C614.365 70.14 616.277 71.7933 618.24 73.55C620.307 75.3067 622.27 76.9083 624.13 78.355C625.99 79.6983 627.385 80.37 628.315 80.37C628.832 80.37 629.297 80.215 629.71 79.905C630.123 79.595 630.33 79.1817 630.33 78.665V42.705L630.795 41.62C631.002 41.4133 631.415 41.31 632.035 41.31C634.825 42.7567 637.305 43.945 639.475 44.875C641.645 45.7017 643.763 46.4767 645.83 47.2C648 47.82 650.222 48.3883 652.495 48.905C654.768 49.3183 657.455 49.7833 660.555 50.3C660.658 50.3 660.71 50.3517 660.71 50.455C660.813 50.5583 660.917 50.61 661.02 50.61C660.917 51.1267 660.297 51.385 659.16 51.385C658.023 51.385 656.783 51.3333 655.44 51.23C654.097 51.1267 652.857 51.1783 651.72 51.385C650.583 51.4883 650.015 52.005 650.015 52.935V73.55C650.015 74.5833 650.532 75.1 651.565 75.1H662.88C663.913 75.1 664.43 74.5833 664.43 73.55V11.395C664.43 10.465 664.947 10 665.98 10C669.597 10 673.11 10.2583 676.52 10.775C680.033 11.2917 683.598 11.7567 687.215 12.17L687.99 12.945C687.577 13.7717 686.802 14.3917 685.665 14.805C684.632 15.2183 684.115 16.045 684.115 17.285C684.115 35.1617 683.96 52.935 683.65 70.605C683.443 88.1717 683.34 105.893 683.34 123.77C683.34 124.803 682.617 125.682 681.17 126.405C679.723 127.025 678.018 127.542 676.055 127.955C674.092 128.368 672.18 128.678 670.32 128.885C668.46 128.988 667.168 129.04 666.445 129.04C666.032 129.04 665.567 128.988 665.05 128.885C664.637 128.678 664.43 128.317 664.43 127.8C664.43 123.15 664.585 118.552 664.895 114.005C665.308 109.355 665.515 104.705 665.515 100.055C665.515 99.435 665.308 99.0733 664.895 98.97C664.068 99.1767 662.88 99.745 661.33 100.675C659.78 101.605 658.592 102.328 657.765 102.845C654.768 104.602 651.72 106.358 648.62 108.115C645.52 109.872 642.472 111.628 639.475 113.385C637.512 114.522 635.548 115.658 633.585 116.795C631.725 117.828 629.762 118.707 627.695 119.43L627.23 118.965C627.437 118.448 627.85 117.828 628.47 117.105C629.193 116.382 629.968 115.658 630.795 114.935C631.622 114.108 632.397 113.333 633.12 112.61C633.947 111.887 634.618 111.267 635.135 110.75C636.788 108.993 638.752 106.927 641.025 104.55C643.298 102.173 645.468 99.6933 647.535 97.11C649.705 94.4233 651.668 91.7883 653.425 89.205C655.182 86.5183 656.422 83.9867 657.145 81.61C657.868 79.2333 656.887 78.045 654.2 78.045C652.753 78.045 651.358 78.4583 650.015 79.285C648.672 80.0083 647.225 80.835 645.675 81.765C644.228 82.695 642.678 83.5733 641.025 84.4C639.475 85.1233 637.718 85.485 635.755 85.485C633.895 85.485 632.603 85.33 631.88 85.02C631.26 84.71 630.847 84.3483 630.64 83.935C630.433 83.5217 630.175 83.16 629.865 82.85C629.555 82.54 628.78 82.385 627.54 82.385C626.92 82.385 626.197 82.4883 625.37 82.695C624.543 82.7983 623.717 83.0567 622.89 83.47C622.167 83.78 621.495 84.1933 620.875 84.71C620.358 85.2267 620.1 85.8467 620.1 86.57V120.36C620.1 120.877 619.48 122.065 618.24 123.925C617 125.785 615.45 127.955 613.59 130.435C611.73 132.812 609.715 135.395 607.545 138.185C605.375 140.872 603.308 143.352 601.345 145.625C599.382 147.898 597.677 149.758 596.23 151.205C594.783 152.755 593.905 153.53 593.595 153.53C593.182 153.53 592.872 153.272 592.665 152.755C592.355 152.342 591.683 151.153 590.65 149.19C589.72 147.227 588.687 145.108 587.55 142.835C586.517 140.665 585.587 138.702 584.76 136.945C583.933 135.188 583.52 134.207 583.52 134C583.52 133.38 584.45 132.812 586.31 132.295C588.17 131.778 590.237 131.262 592.51 130.745C594.783 130.125 596.85 129.505 598.71 128.885C600.57 128.265 601.5 127.593 601.5 126.87V82.385C601.5 81.2483 600.57 80.68 598.71 80.68C596.85 80.5767 594.835 80.6283 592.665 80.835C590.495 80.9383 588.48 81.0417 586.62 81.145C584.76 81.145 583.83 80.68 583.83 79.75C583.83 79.44 583.985 79.2333 584.295 79.13C584.708 79.0267 585.018 78.9233 585.225 78.82C587.395 78.3033 589.565 78.2 591.735 78.51C594.008 78.7167 596.23 78.82 598.4 78.82C598.813 78.82 599.433 78.2517 600.26 77.115C601.19 75.9783 602.12 74.6867 603.05 73.24C603.98 71.69 604.858 70.2433 605.685 68.9C606.512 67.5567 607.08 66.6267 607.39 66.11L608.165 65.8ZM609.405 46.425C607.235 46.425 605.22 45.5983 603.36 43.945C601.603 42.2917 600.053 40.3283 598.71 38.055C597.367 35.6783 596.23 33.25 595.3 30.77C594.37 28.29 593.595 26.1717 592.975 24.415C592.665 23.485 592.303 22.555 591.89 21.625C591.58 20.5917 591.322 19.5583 591.115 18.525C590.908 17.8017 590.857 17.2333 590.96 16.82C591.167 16.4067 591.735 16.2 592.665 16.2C595.248 16.2 598.09 16.665 601.19 17.595C604.29 18.4217 607.183 19.6617 609.87 21.315C612.557 22.865 614.778 24.8283 616.535 27.205C618.395 29.5817 619.325 32.2683 619.325 35.265C619.325 36.6083 619.067 37.9517 618.55 39.295C618.137 40.6383 617.465 41.8267 616.535 42.86C615.708 43.8933 614.675 44.7717 613.435 45.495C612.195 46.115 610.852 46.425 609.405 46.425ZM688.145 31.7C687.835 31.7 687.68 31.545 687.68 31.235C687.68 30.615 688.042 30.2533 688.765 30.15C689.592 30.0467 690.522 30.0467 691.555 30.15C692.588 30.15 693.622 30.15 694.655 30.15C695.688 30.15 696.412 29.995 696.825 29.685C698.582 28.2383 700.183 26.275 701.63 23.795C703.18 21.315 704.833 19.1967 706.59 17.44L707.365 17.285C708.398 17.8017 709.638 18.6283 711.085 19.765C712.635 20.9017 714.185 22.1417 715.735 23.485C717.285 24.725 718.783 26.0167 720.23 27.36C721.78 28.6 723.072 29.6333 724.105 30.46L724.415 31.235L723.95 31.7H688.145ZM629.4 32.785C628.987 32.5783 628.625 32.2167 628.315 31.7C628.005 31.08 628.315 30.77 629.245 30.77H659.78L660.865 31.235L661.02 31.39L660.71 31.7L629.4 32.785ZM699.305 81.92C699.202 81.4033 698.943 80.5767 698.53 79.44C698.22 78.3033 697.703 77.735 696.98 77.735C696.67 77.735 695.947 77.7867 694.81 77.89C693.777 77.89 692.692 77.89 691.555 77.89C690.418 77.89 689.385 77.8383 688.455 77.735C687.628 77.6317 687.215 77.3733 687.215 76.96C687.215 76.5467 687.628 76.2883 688.455 76.185C689.385 76.0817 690.418 76.03 691.555 76.03C692.692 76.03 693.777 76.0817 694.81 76.185C695.947 76.185 696.67 76.185 696.98 76.185L698.065 75.72L699.15 74.635L699.615 73.55V54.02L699.15 52.935L698.065 51.85L696.98 51.385C696.67 51.385 695.998 51.4367 694.965 51.54C693.932 51.54 692.847 51.54 691.71 51.54C690.573 51.54 689.54 51.4367 688.61 51.23C687.783 51.0233 687.422 50.6617 687.525 50.145C687.525 49.9383 687.887 49.835 688.61 49.835C689.437 49.835 689.953 49.835 690.16 49.835C690.47 49.835 690.935 49.8867 691.555 49.99C692.278 49.99 692.95 49.99 693.57 49.99C694.293 49.99 694.965 49.9383 695.585 49.835C696.205 49.7317 696.67 49.5767 696.98 49.37C697.6 48.8533 698.272 48.13 698.995 47.2C699.822 46.27 700.648 45.34 701.475 44.41C702.405 43.48 703.283 42.6017 704.11 41.775C704.937 40.9483 705.712 40.38 706.435 40.07C706.745 39.9667 707.778 40.535 709.535 41.775C711.292 43.015 713.1 44.41 714.96 45.96C716.923 47.51 718.68 49.06 720.23 50.61C721.883 52.0567 722.71 52.9867 722.71 53.4C722.71 53.71 722.452 54.02 721.935 54.33C721.522 54.64 721.005 55.0017 720.385 55.415C719.868 55.725 719.352 56.0867 718.835 56.5C718.422 56.9133 718.215 57.3783 718.215 57.895V77.27C718.215 78.4067 717.44 79.3367 715.89 80.06C714.34 80.68 712.532 81.1967 710.465 81.61C708.398 81.92 706.383 82.1267 704.42 82.23C702.457 82.3333 701.062 82.385 700.235 82.385L699.305 81.92ZM709.535 118.19C709.018 117.983 708.14 117.26 706.9 116.02C705.66 114.677 704.265 113.127 702.715 111.37C701.268 109.51 699.718 107.547 698.065 105.48C696.412 103.413 694.913 101.398 693.57 99.435C692.227 97.4717 691.09 95.715 690.16 94.165C689.333 92.615 688.92 91.53 688.92 90.91C688.92 90.0833 689.437 89.67 690.47 89.67C691.607 89.67 692.433 89.67 692.95 89.67C695.74 89.67 698.84 90.0833 702.25 90.91C705.66 91.6333 708.863 92.8217 711.86 94.475C714.857 96.025 717.337 98.04 719.3 100.52C721.367 102.897 722.4 105.79 722.4 109.2C722.4 112.197 721.78 114.522 720.54 116.175C719.403 117.725 717.233 118.5 714.03 118.5C713.513 118.5 712.738 118.5 711.705 118.5C710.775 118.5 710.052 118.397 709.535 118.19ZM662.415 151.67C659.005 151.67 655.027 151.153 650.48 150.12C646.037 149.087 641.748 147.537 637.615 145.47C633.482 143.507 629.968 140.975 627.075 137.875C624.285 134.775 622.89 131.158 622.89 127.025C622.89 126.198 623.097 125.785 623.51 125.785C624.027 125.682 624.543 125.785 625.06 126.095C626.507 126.818 627.902 127.542 629.245 128.265C630.588 128.988 631.983 129.66 633.43 130.28C636.323 131.417 639.268 132.243 642.265 132.76C645.262 133.173 648.258 133.483 651.255 133.69C654.355 133.793 657.455 133.845 660.555 133.845C663.655 133.845 666.703 133.897 669.7 134C678.07 134.207 686.44 134.31 694.81 134.31C703.18 134.207 711.55 134.155 719.92 134.155C720.127 134.155 720.488 134.155 721.005 134.155C721.522 134.052 722.038 134.052 722.555 134.155C723.175 134.155 723.692 134.207 724.105 134.31C724.622 134.413 724.88 134.62 724.88 134.93C724.88 135.24 724.777 135.498 724.57 135.705C724.467 135.912 724.312 136.118 724.105 136.325C722.865 137.772 721.883 139.012 721.16 140.045C720.437 141.078 719.817 142.06 719.3 142.99C718.887 144.023 718.473 145.108 718.06 146.245C717.75 147.382 717.233 148.777 716.51 150.43C716.2 151.257 715.683 151.67 714.96 151.67H662.415Z" fill="#F4F4F4"/>
<path d="M740.845 132.45C740.845 129.66 741.362 127.025 742.395 124.545C743.428 122.065 744.875 119.947 746.735 118.19C748.595 116.33 750.765 114.883 753.245 113.85C755.725 112.817 758.36 112.3 761.15 112.3C764.043 112.3 766.782 112.817 769.365 113.85C771.948 114.883 774.222 116.33 776.185 118.19C778.148 120.05 779.647 122.272 780.68 124.855C781.817 127.335 782.385 130.073 782.385 133.07C782.385 135.963 781.817 138.65 780.68 141.13C779.647 143.507 778.2 145.573 776.34 147.33C774.48 149.19 772.258 150.585 769.675 151.515C767.195 152.548 764.56 153.065 761.77 153.065C758.773 153.065 755.983 152.548 753.4 151.515C750.92 150.482 748.75 149.035 746.89 147.175C745.03 145.418 743.532 143.3 742.395 140.82C741.362 138.237 740.845 135.447 740.845 132.45ZM744.875 132.605C744.875 136.428 745.702 139.58 747.355 142.06C749.008 144.54 751.075 146.4 753.555 147.64C756.035 148.983 758.67 149.603 761.46 149.5C764.353 149.5 767.04 148.828 769.52 147.485C772 146.245 774.067 144.333 775.72 141.75C777.373 139.27 778.2 136.17 778.2 132.45C778.2 128.833 777.373 125.837 775.72 123.46C774.067 120.98 772 119.172 769.52 118.035C767.04 116.898 764.353 116.33 761.46 116.33C758.67 116.33 756.035 116.95 753.555 118.19C751.075 119.43 749.008 121.29 747.355 123.77C745.702 126.147 744.875 129.092 744.875 132.605Z" fill="#F4F4F4"/>
<path d="M163 118.532V114.32H166.996C167.332 114.32 167.608 114.2 167.824 113.96C168.04 113.744 168.148 113.48 168.148 113.168V92.864H173.08V113.312C173.08 114.92 172.612 116.192 171.676 117.128C170.764 118.064 169.492 118.532 167.86 118.532H163ZM170.56 90.632C169.72 90.632 168.988 90.332 168.364 89.732C167.764 89.108 167.464 88.376 167.464 87.536C167.464 86.696 167.764 85.976 168.364 85.376C168.988 84.752 169.72 84.44 170.56 84.44C171.4 84.44 172.12 84.752 172.72 85.376C173.344 85.976 173.656 86.696 173.656 87.536C173.656 88.376 173.344 89.108 172.72 89.732C172.12 90.332 171.4 90.632 170.56 90.632Z" fill="#F4F4F4"/>
<path d="M184.946 111.656C183.266 111.656 181.802 111.224 180.554 110.36C179.306 109.496 178.334 108.344 177.638 106.904C176.966 105.44 176.63 103.832 176.63 102.08C176.63 100.28 177.014 98.648 177.782 97.184C178.574 95.72 179.702 94.568 181.166 93.728C182.63 92.864 184.382 92.432 186.422 92.432C188.486 92.432 190.226 92.864 191.642 93.728C193.058 94.592 194.138 95.756 194.882 97.22C195.626 98.684 195.998 100.304 195.998 102.08V111.224H191.066V108.164H190.994C190.634 108.812 190.178 109.4 189.626 109.928C189.098 110.456 188.45 110.876 187.682 111.188C186.914 111.5 186.002 111.656 184.946 111.656ZM186.35 107.444C187.31 107.444 188.138 107.204 188.834 106.724C189.53 106.244 190.058 105.596 190.418 104.78C190.802 103.94 190.994 103.016 190.994 102.008C190.994 101 190.802 100.1 190.418 99.308C190.058 98.492 189.53 97.844 188.834 97.364C188.138 96.884 187.31 96.644 186.35 96.644C185.366 96.644 184.514 96.884 183.794 97.364C183.098 97.844 182.558 98.492 182.174 99.308C181.814 100.1 181.634 101 181.634 102.008C181.634 103.016 181.814 103.94 182.174 104.78C182.558 105.596 183.098 106.244 183.794 106.724C184.514 107.204 185.366 107.444 186.35 107.444Z" fill="#F4F4F4"/>
<path d="M200.667 111.224V100.316C200.667 98.876 201.015 97.556 201.711 96.356C202.407 95.156 203.403 94.208 204.699 93.512C206.019 92.792 207.603 92.432 209.451 92.432C210.339 92.432 211.155 92.54 211.899 92.756C212.667 92.948 213.375 93.236 214.023 93.62C214.671 94.004 215.235 94.46 215.715 94.988H215.751C216.255 94.46 216.831 94.004 217.479 93.62C218.127 93.236 218.835 92.948 219.603 92.756C220.371 92.54 221.199 92.432 222.087 92.432C223.935 92.432 225.507 92.792 226.803 93.512C228.123 94.208 229.131 95.156 229.827 96.356C230.523 97.556 230.871 98.876 230.871 100.316V111.224H225.939V100.316C225.939 99.644 225.759 99.032 225.399 98.48C225.063 97.928 224.607 97.484 224.031 97.148C223.455 96.812 222.807 96.644 222.087 96.644C221.391 96.644 220.743 96.812 220.143 97.148C219.567 97.484 219.099 97.928 218.739 98.48C218.403 99.032 218.235 99.644 218.235 100.316V111.224H213.303V100.316C213.303 99.644 213.123 99.032 212.763 98.48C212.427 97.928 211.971 97.484 211.395 97.148C210.819 96.812 210.171 96.644 209.451 96.644C208.755 96.644 208.107 96.812 207.507 97.148C206.931 97.484 206.463 97.928 206.103 98.48C205.767 99.032 205.599 99.644 205.599 100.316V111.224H200.667Z" fill="#F4F4F4"/>
<path d="M235.614 111.224V107.012H244.578C244.866 107.012 245.118 106.952 245.334 106.832C245.574 106.712 245.754 106.544 245.874 106.328C246.018 106.112 246.09 105.872 246.09 105.608C246.09 105.32 246.018 105.068 245.874 104.852C245.754 104.636 245.574 104.468 245.334 104.348C245.118 104.204 244.866 104.132 244.578 104.132H241.122C239.946 104.132 238.878 103.952 237.918 103.592C236.982 103.208 236.226 102.608 235.65 101.792C235.098 100.952 234.822 99.86 234.822 98.516C234.822 97.484 235.074 96.548 235.578 95.708C236.106 94.844 236.802 94.16 237.666 93.656C238.554 93.128 239.526 92.864 240.582 92.864H249.186V97.076H241.05C240.69 97.076 240.366 97.196 240.078 97.436C239.814 97.676 239.682 97.988 239.682 98.372C239.682 98.756 239.814 99.08 240.078 99.344C240.342 99.584 240.666 99.704 241.05 99.704H244.506C245.826 99.704 246.966 99.908 247.926 100.316C248.886 100.7 249.63 101.312 250.158 102.152C250.686 102.992 250.95 104.096 250.95 105.464C250.95 106.52 250.686 107.492 250.158 108.38C249.63 109.244 248.922 109.94 248.034 110.468C247.146 110.972 246.15 111.224 245.046 111.224H235.614Z" fill="#F4F4F4"/>
<path d="M260.652 111.224C259.02 111.224 257.736 110.756 256.8 109.82C255.888 108.884 255.432 107.612 255.432 106.004V88.256H260.364V105.86C260.364 106.172 260.472 106.448 260.688 106.688C260.928 106.904 261.204 107.012 261.516 107.012H265.512V111.224H260.652ZM252.3 97.076V92.864H265.512V97.076H252.3Z" fill="#F4F4F4"/>
<path d="M275.825 111.656C274.145 111.656 272.681 111.224 271.433 110.36C270.185 109.496 269.213 108.344 268.517 106.904C267.845 105.44 267.509 103.832 267.509 102.08C267.509 100.28 267.893 98.648 268.661 97.184C269.453 95.72 270.581 94.568 272.045 93.728C273.509 92.864 275.261 92.432 277.301 92.432C279.365 92.432 281.105 92.864 282.521 93.728C283.937 94.592 285.017 95.756 285.761 97.22C286.505 98.684 286.877 100.304 286.877 102.08V111.224H281.945V108.164H281.873C281.513 108.812 281.057 109.4 280.505 109.928C279.977 110.456 279.329 110.876 278.561 111.188C277.793 111.5 276.881 111.656 275.825 111.656ZM277.229 107.444C278.189 107.444 279.017 107.204 279.713 106.724C280.409 106.244 280.937 105.596 281.297 104.78C281.681 103.94 281.873 103.016 281.873 102.008C281.873 101 281.681 100.1 281.297 99.308C280.937 98.492 280.409 97.844 279.713 97.364C279.017 96.884 278.189 96.644 277.229 96.644C276.245 96.644 275.393 96.884 274.673 97.364C273.977 97.844 273.437 98.492 273.053 99.308C272.693 100.1 272.513 101 272.513 102.008C272.513 103.016 272.693 103.94 273.053 104.78C273.437 105.596 273.977 106.244 274.673 106.724C275.393 107.204 276.245 107.444 277.229 107.444Z" fill="#F4F4F4"/>
<path d="M300.366 111.224C298.47 111.224 296.778 110.816 295.29 110C293.802 109.184 292.626 108.092 291.762 106.724C290.898 105.332 290.466 103.772 290.466 102.044C290.466 100.316 290.898 98.768 291.762 97.4C292.626 96.008 293.802 94.904 295.29 94.088C296.778 93.272 298.47 92.864 300.366 92.864H302.67V97.076H300.366C299.358 97.076 298.482 97.292 297.738 97.724C297.018 98.156 296.454 98.756 296.046 99.524C295.662 100.268 295.47 101.108 295.47 102.044C295.47 102.98 295.662 103.832 296.046 104.6C296.454 105.344 297.018 105.932 297.738 106.364C298.482 106.796 299.358 107.012 300.366 107.012H302.67V111.224H300.366Z" fill="#F4F4F4"/>
<path d="M306.1 111.224V84.944H311.032V99.884H313.948L318.376 92.864H323.776L318.736 100.64C320.296 101.288 321.508 102.284 322.372 103.628C323.236 104.972 323.668 106.472 323.668 108.128V111.224H318.736V108.128C318.736 107.384 318.544 106.712 318.16 106.112C317.8 105.488 317.32 104.996 316.72 104.636C316.12 104.276 315.448 104.096 314.704 104.096H311.032V111.224H306.1Z" fill="#F4F4F4"/>
<path d="M342.34 106.544C342.34 105.176 343.708 104.312 345.76 104.312C346.732 104.312 347.704 104.456 348.64 104.708C348.64 104.96 348.64 105.176 348.64 105.356C348.64 107.48 347.884 108.632 345.688 108.632C343.78 108.632 342.34 108.02 342.34 106.544ZM353.032 83.036H347.884C348.028 83.756 348.136 84.872 348.136 85.412C348.136 86.168 348.172 87.644 348.172 89.408C347.344 89.444 346.48 89.444 345.652 89.444C343.492 89.444 341.404 89.336 339.352 89.12V93.404C341.476 93.548 343.528 93.62 345.652 93.62C346.48 93.62 347.344 93.62 348.208 93.584C348.244 96.14 348.388 98.768 348.46 101C347.74 100.892 346.948 100.856 346.12 100.856C341.224 100.856 338.128 103.376 338.128 107.012C338.128 110.792 341.224 112.88 346.192 112.88C351.052 112.88 352.996 110.432 353.212 106.976C354.652 107.948 356.092 109.208 357.604 110.612L360.088 106.832C358.36 105.248 356.092 103.412 353.104 102.188C352.96 99.74 352.78 96.86 352.708 93.368C354.688 93.224 356.56 93.008 358.288 92.756V88.256C356.56 88.616 354.688 88.904 352.708 89.084C352.744 87.5 352.78 86.168 352.816 85.376C352.852 84.584 352.924 83.72 353.032 83.036ZM335.464 83.432L330.496 83C330.46 84.152 330.28 85.52 330.136 86.528C329.74 89.3 328.66 96.104 328.66 101.54C328.66 106.436 329.344 110.54 330.1 113.06L334.168 112.736C334.132 112.232 334.096 111.62 334.096 111.26C334.096 110.864 334.168 110.072 334.276 109.568C334.708 107.624 335.86 103.952 336.868 101L334.672 99.2C334.132 100.424 333.52 101.648 333.052 102.908C332.944 102.188 332.908 101.288 332.908 100.568C332.908 96.968 334.096 89.048 334.636 86.636C334.744 85.988 335.176 84.152 335.464 83.432Z" fill="#F4F4F4"/>
<path d="M370.456 113.708L374.308 110.396C372.508 108.164 369.016 104.6 366.46 102.512L362.716 105.752C365.2 107.912 368.26 111.008 370.456 113.708Z" fill="#F4F4F4"/>
</g>
<defs>
<clipPath id="clip0_134_3216">
<rect width="920" height="167" rx="4" fill="white"/>
</clipPath>
</defs>
</svg>
