<svg width="920" height="167" viewBox="0 0 920 167" fill="none" xmlns="http://www.w3.org/2000/svg">
<g clip-path="url(#clip0_134_3225)">
<path d="M598.269 56.195C590.704 17.8137 556.995 -11 516.5 -11C484.349 -11 456.425 7.245 442.519 33.945C409.032 37.505 383 65.8737 383 100.25C383 137.074 412.926 167 449.75 167H594.375C625.08 167 650 142.08 650 111.375C650 82.005 627.194 58.1975 598.269 56.195Z" fill="#F4F4F4" fill-opacity="0.45"/>
<rect width="138.696" height="42" fill="#EBEBEB"/>
<path d="M30.7715 26.39C30.7715 25.97 30.8915 25.58 31.1315 25.22C31.3715 24.84 31.6315 24.49 31.9115 24.17C32.2115 23.83 32.4815 23.52 32.7215 23.24C32.9615 22.94 33.0815 22.65 33.0815 22.37C33.0815 22.17 32.9915 22.07 32.8115 22.07C32.0915 22.07 31.3715 22.29 30.6515 22.73C29.9315 23.15 29.2315 23.62 28.5515 24.14C27.8915 24.66 27.2515 25.14 26.6315 25.58C26.0315 26 25.4615 26.21 24.9215 26.21C24.6215 26.21 24.3415 26.14 24.0815 26C23.8215 25.84 23.5915 25.65 23.3915 25.43C23.1915 25.19 23.0315 24.93 22.9115 24.65C22.7915 24.37 22.7315 24.09 22.7315 23.81C22.7315 23.47 22.9615 23.1 23.4215 22.7C23.9015 22.3 24.4515 21.91 25.0715 21.53C25.6915 21.13 26.3115 20.77 26.9315 20.45C27.5515 20.13 28.0015 19.89 28.2815 19.73C28.8015 19.43 29.2815 19.09 29.7215 18.71C30.1815 18.31 30.6315 17.9 31.0715 17.48C31.9115 16.7 32.7615 15.91 33.6215 15.11C34.4815 14.29 35.2515 13.41 35.9315 12.47C36.0715 12.29 36.1915 12.1 36.2915 11.9C36.4115 11.68 36.4715 11.45 36.4715 11.21C36.4715 11.01 36.3815 10.91 36.2015 10.91C35.6815 10.91 35.1815 11.08 34.7015 11.42C34.2415 11.74 33.7715 12.1 33.2915 12.5C32.8115 12.88 32.3115 13.23 31.7915 13.55C31.2915 13.87 30.7415 14.03 30.1415 14.03C29.7215 14.03 29.3215 13.92 28.9415 13.7C28.5815 13.48 28.2615 13.2 27.9815 12.86C27.7215 12.5 27.5115 12.12 27.3515 11.72C27.2115 11.3 27.1415 10.89 27.1415 10.49C27.1415 10.37 27.1415 10.21 27.1415 10.01C27.1615 9.81 27.1915 9.62 27.2315 9.44C27.2915 9.24 27.3615 9.07 27.4415 8.93C27.5215 8.77 27.6315 8.68 27.7715 8.66C27.9115 8.64 28.0415 8.73 28.1615 8.93C28.2815 9.11 28.4215 9.31 28.5815 9.53C28.7415 9.75 28.9315 9.96 29.1515 10.16C29.3915 10.34 29.6915 10.43 30.0515 10.43C30.7315 10.43 31.3815 10.32 32.0015 10.1C32.6215 9.88 33.2315 9.65 33.8315 9.41C34.4515 9.15 35.0715 8.91 35.6915 8.69C36.3115 8.47 36.9615 8.36 37.6415 8.36C38.0215 8.36 38.4415 8.46 38.9015 8.66C39.3815 8.84 39.8115 9.09 40.1915 9.41C40.5915 9.73 40.9215 10.09 41.1815 10.49C41.4615 10.89 41.6015 11.3 41.6015 11.72C41.6015 12.06 41.3215 12.46 40.7615 12.92C40.2215 13.36 39.5415 13.83 38.7215 14.33C37.9015 14.83 37.0115 15.35 36.0515 15.89C35.0915 16.41 34.2015 16.93 33.3815 17.45C32.5615 17.97 31.8715 18.47 31.3115 18.95C30.7715 19.43 30.5015 19.86 30.5015 20.24C30.5015 20.44 30.5915 20.54 30.7715 20.54C31.7915 20.54 32.7715 20.39 33.7115 20.09C34.6515 19.77 35.5815 19.43 36.5015 19.07C37.4415 18.69 38.3815 18.35 39.3215 18.05C40.2615 17.73 41.2415 17.57 42.2615 17.57C42.6215 17.57 43.0215 17.59 43.4615 17.63C43.9215 17.67 44.3515 17.77 44.7515 17.93C45.1715 18.07 45.5115 18.29 45.7715 18.59C46.0515 18.87 46.1915 19.25 46.1915 19.73C46.1915 20.23 46.0315 20.54 45.7115 20.66C45.3915 20.78 45.0315 20.84 44.6315 20.84C43.9715 20.84 43.2115 20.84 42.3515 20.84C41.4915 20.84 40.6115 20.88 39.7115 20.96C38.8315 21.04 37.9615 21.19 37.1015 21.41C36.2415 21.61 35.4715 21.91 34.7915 22.31C34.1115 22.71 33.5615 23.24 33.1415 23.9C32.7415 24.54 32.5415 25.34 32.5415 26.3C32.5415 27.02 32.6715 27.6 32.9315 28.04C33.2115 28.46 33.5715 28.79 34.0115 29.03C34.4515 29.25 34.9515 29.41 35.5115 29.51C36.0915 29.59 36.6715 29.66 37.2515 29.72C37.8515 29.76 38.4315 29.81 38.9915 29.87C39.5715 29.91 40.0815 30.01 40.5215 30.17C40.9615 30.33 41.3115 30.57 41.5715 30.89C41.8515 31.21 41.9915 31.65 41.9915 32.21C41.9915 32.69 41.8815 33.04 41.6615 33.26C41.4615 33.5 41.1915 33.66 40.8515 33.74C40.5315 33.82 40.1815 33.85 39.8015 33.83C39.4215 33.83 39.0715 33.83 38.7515 33.83C38.0915 33.83 37.3015 33.76 36.3815 33.62C35.4615 33.48 34.5815 33.24 33.7415 32.9C32.9215 32.58 32.2215 32.14 31.6415 31.58C31.0615 31 30.7715 30.27 30.7715 29.39V26.39ZM64.0415 32.3C64.0615 32.24 64.1215 32.18 64.2215 32.12C65.1415 31.58 66.0015 31.1 66.8015 30.68C67.6215 30.26 68.3615 29.84 69.0215 29.42C69.6815 29 70.2715 28.56 70.7915 28.1C71.3115 27.62 71.7515 27.06 72.1115 26.42C72.4715 25.76 72.7415 24.99 72.9215 24.11C73.1015 23.23 73.1915 22.16 73.1915 20.9C73.1915 20.06 73.1115 19.22 72.9515 18.38C72.7915 17.54 72.5315 16.74 72.1715 15.98C71.8115 15.2 71.3515 14.5 70.7915 13.88C70.2315 13.26 69.5515 12.75 68.7515 12.35C68.0915 12.01 67.4515 11.8 66.8315 11.72C66.2315 11.64 65.5715 11.6 64.8515 11.6C64.7915 11.6 64.7015 11.6 64.5815 11.6C64.4815 11.58 64.3715 11.57 64.2515 11.57C64.1315 11.57 64.0215 11.59 63.9215 11.63C63.8415 11.67 63.7915 11.73 63.7715 11.81C63.7315 12.01 63.8115 12.26 64.0115 12.56C64.2315 12.86 64.4715 13.21 64.7315 13.61C64.9915 13.99 65.2315 14.41 65.4515 14.87C65.6715 15.31 65.7815 15.78 65.7815 16.28C65.7815 17.04 65.6815 17.92 65.4815 18.92C65.2815 19.9 64.9815 20.92 64.5815 21.98C64.2015 23.02 63.7315 24.05 63.1715 25.07C62.6315 26.09 62.0215 27 61.3415 27.8C60.6615 28.58 59.9115 29.22 59.0915 29.72C58.2715 30.2 57.4115 30.44 56.5115 30.44C55.6715 30.44 54.9515 30.17 54.3515 29.63C53.7515 29.07 53.2615 28.4 52.8815 27.62C52.5015 26.82 52.2215 25.98 52.0415 25.1C51.8615 24.2 51.7715 23.42 51.7715 22.76C51.7715 20.96 52.1615 19.31 52.9415 17.81C53.7215 16.31 54.7515 15.03 56.0315 13.97C57.3115 12.89 58.7715 12.06 60.4115 11.48C62.0515 10.88 63.7215 10.58 65.4215 10.58C67.0215 10.58 68.5415 10.86 69.9815 11.42C71.4415 11.96 72.7115 12.73 73.7915 13.73C74.8915 14.71 75.7615 15.89 76.4015 17.27C77.0615 18.63 77.3915 20.14 77.3915 21.8C77.3915 23.48 77.0215 24.98 76.2815 26.3C75.5615 27.62 74.6115 28.74 73.4315 29.66C72.2515 30.56 70.9115 31.25 69.4115 31.73C67.9115 32.19 66.3915 32.42 64.8515 32.42C64.6915 32.42 64.5515 32.42 64.4315 32.42C64.3115 32.44 64.1815 32.4 64.0415 32.3ZM54.5615 21.5C54.5615 21.84 54.5915 22.27 54.6515 22.79C54.7315 23.29 54.8515 23.78 55.0115 24.26C55.1915 24.74 55.4315 25.15 55.7315 25.49C56.0315 25.83 56.4115 26 56.8715 26C57.4315 26 57.9815 25.79 58.5215 25.37C59.0615 24.93 59.5715 24.37 60.0515 23.69C60.5315 22.99 60.9715 22.22 61.3715 21.38C61.7915 20.52 62.1415 19.67 62.4215 18.83C62.7215 17.99 62.9515 17.2 63.1115 16.46C63.2915 15.72 63.3815 15.12 63.3815 14.66C63.3815 14.48 63.3615 14.24 63.3215 13.94C63.3015 13.64 63.2415 13.35 63.1415 13.07C63.0615 12.77 62.9415 12.52 62.7815 12.32C62.6215 12.1 62.4215 11.99 62.1815 11.99C61.5015 11.99 60.8315 12.14 60.1715 12.44C59.5315 12.74 58.9315 13.14 58.3715 13.64C57.8115 14.14 57.2915 14.71 56.8115 15.35C56.3515 15.99 55.9515 16.67 55.6115 17.39C55.2715 18.09 55.0115 18.8 54.8315 19.52C54.6515 20.22 54.5615 20.88 54.5615 21.5ZM95.9015 6.89C95.9015 6.69 96.0015 6.59 96.2015 6.59C96.8815 6.59 97.5515 6.64 98.2115 6.74C98.8715 6.84 99.5315 6.96 100.191 7.1C100.271 7.12 100.341 7.14 100.401 7.16C100.461 7.18 100.491 7.24 100.491 7.34C100.491 7.48 100.401 7.61 100.221 7.73C100.041 7.83 99.9515 7.96 99.9515 8.12C99.9515 8.56 99.9415 8.99 99.9215 9.41C99.9015 9.83 99.8915 10.26 99.8915 10.7C99.8915 12.16 99.9115 13.66 99.9515 15.2C100.011 16.72 100.171 18.22 100.431 19.7C100.691 21.18 101.101 22.61 101.661 23.99C102.241 25.35 103.051 26.6 104.091 27.74C104.151 27.8 104.251 27.92 104.391 28.1C104.551 28.26 104.721 28.42 104.901 28.58C105.081 28.74 105.251 28.89 105.411 29.03C105.571 29.15 105.691 29.21 105.771 29.21C106.091 29.21 106.361 29.06 106.581 28.76C106.821 28.44 107.021 28.09 107.181 27.71C107.361 27.33 107.511 26.99 107.631 26.69C107.771 26.37 107.901 26.21 108.021 26.21C108.081 26.21 108.121 26.25 108.141 26.33C108.161 26.41 108.171 26.47 108.171 26.51C108.171 27.15 108.101 27.77 107.961 28.37C107.821 28.97 107.751 29.59 107.751 30.23C107.751 30.47 107.791 30.71 107.871 30.95C107.971 31.17 108.071 31.4 108.171 31.64C108.271 31.86 108.361 32.08 108.441 32.3C108.541 32.54 108.591 32.79 108.591 33.05C108.591 33.71 108.421 34.13 108.081 34.31C107.761 34.51 107.311 34.61 106.731 34.61C105.531 34.61 104.451 34.3 103.491 33.68C102.551 33.08 101.711 32.27 100.971 31.25C100.251 30.21 99.6215 29.01 99.0815 27.65C98.5415 26.27 98.0815 24.82 97.7015 23.3C97.3415 21.78 97.0415 20.23 96.8015 18.65C96.5615 17.07 96.3715 15.55 96.2315 14.09C96.1115 12.63 96.0215 11.28 95.9615 10.04C95.9215 8.78 95.9015 7.73 95.9015 6.89ZM100.971 15.29C100.991 15.23 101.061 15.19 101.181 15.17C101.321 15.13 101.461 15.11 101.601 15.11C101.761 15.09 101.911 15.07 102.051 15.05C102.191 15.03 102.291 15.01 102.351 14.99C102.371 14.97 102.481 14.85 102.681 14.63C102.901 14.39 103.131 14.13 103.371 13.85C103.611 13.57 103.821 13.31 104.001 13.07C104.201 12.83 104.311 12.68 104.331 12.62C104.371 12.5 104.391 12.39 104.391 12.29C104.391 12.17 104.251 11.9 103.971 11.48C103.711 11.06 103.411 10.61 103.071 10.13C102.751 9.65 102.451 9.22 102.171 8.84C101.911 8.44 101.781 8.21 101.781 8.15C101.781 8.07 101.821 8.03 101.901 8.03C102.001 8.01 102.071 8 102.111 8C102.491 8 102.931 8.03 103.431 8.09C103.931 8.13 104.401 8.24 104.841 8.42C105.301 8.58 105.681 8.82 105.981 9.14C106.281 9.44 106.431 9.85 106.431 10.37C106.431 10.69 106.341 10.96 106.161 11.18C106.001 11.4 105.821 11.6 105.621 11.78C105.441 11.94 105.261 12.09 105.081 12.23C104.921 12.35 104.841 12.48 104.841 12.62C104.841 12.8 105.021 12.99 105.381 13.19C105.761 13.37 106.171 13.57 106.611 13.79C107.051 13.99 107.451 14.21 107.811 14.45C108.191 14.69 108.381 14.95 108.381 15.23C108.381 15.29 108.341 15.34 108.261 15.38C108.201 15.4 108.151 15.41 108.111 15.41H101.421C101.341 15.41 101.261 15.41 101.181 15.41C101.101 15.39 101.031 15.35 100.971 15.29ZM89.6615 10.61C89.7415 10.53 89.8915 10.36 90.1115 10.1C90.3315 9.82 90.5615 9.54 90.8015 9.26C91.0415 8.98 91.2615 8.73 91.4615 8.51C91.6615 8.27 91.7915 8.15 91.8515 8.15C91.8715 8.15 92.0415 8.27 92.3615 8.51C92.7015 8.75 93.0615 9.03 93.4415 9.35C93.8215 9.65 94.1715 9.94 94.4915 10.22C94.8315 10.48 95.0215 10.64 95.0615 10.7C95.1215 10.8 95.1215 10.88 95.0615 10.94C95.0015 10.98 94.9215 11 94.8215 11H83.7215C83.6215 11 83.5715 10.95 83.5715 10.85C83.5715 10.75 83.6215 10.7 83.7215 10.7H89.4515L89.6615 10.61ZM95.5115 15.38C95.4915 15.4 95.4615 15.41 95.4215 15.41L81.2915 15.59C81.2715 15.59 81.2315 15.58 81.1715 15.56C81.1315 15.54 81.1015 15.53 81.0815 15.53C81.0415 15.49 81.0215 15.45 81.0215 15.41C81.0215 15.37 81.0415 15.33 81.0815 15.29L81.2915 15.2H95.2415L95.4515 15.29L95.5115 15.38ZM92.3615 19.28C92.4415 19.3 92.6015 19.41 92.8415 19.61C93.1015 19.81 93.3815 20.04 93.6815 20.3C93.9815 20.54 94.2615 20.78 94.5215 21.02C94.8015 21.24 94.9915 21.39 95.0915 21.47C95.1715 21.53 95.3015 21.63 95.4815 21.77C95.6615 21.89 95.7215 22 95.6615 22.1L95.4515 22.19H82.5215C82.4215 22.19 82.3715 22.14 82.3715 22.04C82.3715 21.94 82.4215 21.89 82.5215 21.89H90.0215C90.1015 21.89 90.2415 21.78 90.4415 21.56C90.6615 21.32 90.8815 21.06 91.1015 20.78C91.3415 20.48 91.5615 20.19 91.7615 19.91C91.9815 19.63 92.1315 19.44 92.2115 19.34L92.3615 19.28ZM95.6915 27.53C95.1915 27.83 94.6915 28.13 94.1915 28.43C93.6915 28.71 93.1815 28.98 92.6615 29.24C91.1615 29.96 89.6515 30.65 88.1315 31.31C86.6115 31.97 85.1615 32.78 83.7815 33.74L83.6315 33.77C83.5515 33.69 83.3915 33.48 83.1515 33.14C82.9115 32.82 82.6615 32.46 82.4015 32.06C82.1615 31.68 81.9415 31.33 81.7415 31.01C81.5615 30.67 81.4715 30.46 81.4715 30.38C81.4715 30.24 81.5515 30.15 81.7115 30.11C82.0115 30.03 82.3115 29.97 82.6115 29.93C82.9115 29.87 83.2115 29.81 83.5115 29.75L87.8315 28.85C88.6715 28.67 89.5115 28.5 90.3515 28.34C91.2115 28.16 92.0615 27.99 92.9015 27.83C93.3615 27.73 93.8115 27.64 94.2515 27.56C94.6915 27.46 95.1515 27.41 95.6315 27.41L95.6915 27.53ZM112.341 29.9C112.341 29.34 112.461 28.88 112.701 28.52C112.941 28.14 113.241 27.86 113.601 27.68C113.961 27.48 114.351 27.38 114.771 27.38C115.191 27.38 115.581 27.48 115.941 27.68C116.301 27.86 116.601 28.14 116.841 28.52C117.081 28.88 117.201 29.34 117.201 29.9C117.201 30.24 117.151 30.56 117.051 30.86C116.971 31.16 116.801 31.42 116.541 31.64C116.321 31.84 116.051 31.99 115.731 32.09C115.411 32.19 115.081 32.24 114.741 32.24C114.421 32.24 114.101 32.19 113.781 32.09C113.481 31.99 113.221 31.84 113.001 31.64C112.741 31.42 112.561 31.16 112.461 30.86C112.381 30.56 112.341 30.24 112.341 29.9Z" fill="url(#paint0_linear_134_3225)"/>
<path d="M186.095 117.375C186.095 116.652 187.025 115.05 188.885 112.57C190.745 110.09 192.76 107.3 194.93 104.2C197.203 100.997 199.218 97.7417 200.975 94.435C202.835 91.025 203.765 88.1317 203.765 85.755C203.765 84.6183 203.61 83.7917 203.3 83.275C203.093 82.7583 202.37 82.5 201.13 82.5C197.823 82.5 194.723 83.1717 191.83 84.515C188.937 85.755 185.992 86.84 182.995 87.77C181.755 88.1833 180.308 88.545 178.655 88.855C177.105 89.165 175.503 89.5783 173.85 90.095C172.3 90.5083 170.802 91.025 169.355 91.645C167.908 92.265 166.72 93.04 165.79 93.97C164.963 94.9 164.395 95.7267 164.085 96.45C163.775 97.07 163.517 97.9483 163.31 99.085C162.483 103.425 162.07 108.127 162.07 113.19C162.173 118.15 162.225 122.852 162.225 127.295C162.225 129.155 162.328 131.015 162.535 132.875C162.742 134.735 163.207 136.388 163.93 137.835C164.757 139.282 165.842 140.47 167.185 141.4C168.632 142.227 170.543 142.64 172.92 142.64C176.743 142.64 180.515 142.537 184.235 142.33C188.058 142.123 191.83 141.658 195.55 140.935C196.79 140.728 198.392 140.47 200.355 140.16C202.422 139.85 204.592 139.643 206.865 139.54C209.242 139.333 211.567 139.282 213.84 139.385C216.217 139.488 218.335 139.85 220.195 140.47C222.055 141.09 223.553 142.02 224.69 143.26C225.93 144.5 226.55 146.153 226.55 148.22C226.55 150.183 225.723 151.837 224.07 153.18C222.52 154.523 220.505 155.66 218.025 156.59C215.545 157.417 212.755 158.088 209.655 158.605C206.658 159.018 203.662 159.328 200.665 159.535C197.772 159.845 195.085 160 192.605 160C190.125 160.103 188.213 160.155 186.87 160.155C183.77 160.155 179.947 160.052 175.4 159.845C170.957 159.638 166.617 159.018 162.38 157.985C158.247 156.848 154.682 155.092 151.685 152.715C148.792 150.338 147.345 146.928 147.345 142.485V104.045C147.345 103.115 146.828 102.65 145.795 102.65C144.038 102.65 142.23 103.27 140.37 104.51C138.51 105.647 136.598 106.938 134.635 108.385C132.672 109.728 130.605 110.968 128.435 112.105C126.265 113.242 123.94 113.81 121.46 113.81C118.567 113.81 115.88 113.087 113.4 111.64C110.92 110.193 108.75 108.333 106.89 106.06C105.03 103.787 103.583 101.255 102.55 98.465C101.517 95.5717 101 92.7817 101 90.095C101 89.165 101.517 88.7 102.55 88.7C103.273 88.7 104.1 89.01 105.03 89.63C105.96 90.1467 106.942 90.7667 107.975 91.49C109.112 92.11 110.3 92.73 111.54 93.35C112.78 93.8667 114.072 94.125 115.415 94.125C116.345 94.125 118.412 93.8667 121.615 93.35C124.922 92.8333 128.332 92.2133 131.845 91.49C135.462 90.6633 138.717 89.8883 141.61 89.165C144.503 88.3383 146.105 87.6667 146.415 87.15C146.518 86.9433 146.622 86.1167 146.725 84.67C146.828 83.2233 146.88 81.4667 146.88 79.4C146.88 77.23 146.88 74.905 146.88 72.425C146.88 69.945 146.828 67.5683 146.725 65.295C146.725 63.0217 146.725 61.0583 146.725 59.405C146.725 57.6483 146.725 56.4083 146.725 55.685C146.725 53.7217 146.105 52.2233 144.865 51.19C143.625 50.0533 142.282 49.175 140.835 48.555C139.388 47.8317 138.045 47.2117 136.805 46.695C135.565 46.1783 134.945 45.5067 134.945 44.68C134.945 43.8533 135.823 43.13 137.58 42.51C139.337 41.7867 141.558 41.27 144.245 40.96C146.932 40.5467 149.773 40.3917 152.77 40.495C155.87 40.5983 158.763 41.0633 161.45 41.89C164.137 42.7167 166.358 44.0083 168.115 45.765C169.872 47.4183 170.75 49.64 170.75 52.43C170.75 54.8067 170.388 57.1317 169.665 59.405C169.045 61.6783 168.322 63.9517 167.495 66.225C166.668 68.395 165.893 70.6167 165.17 72.89C164.55 75.1633 164.24 77.4883 164.24 79.865C164.24 80.795 164.395 81.5183 164.705 82.035C165.015 82.5517 165.687 82.81 166.72 82.81C170.13 82.81 173.695 81.9833 177.415 80.33C181.238 78.6767 185.062 76.8683 188.885 74.905C192.708 72.9417 196.48 71.1333 200.2 69.48C204.023 67.8267 207.743 67 211.36 67C213.117 67 215.235 67.62 217.715 68.86C220.298 70.1 222.727 71.65 225 73.51C227.377 75.37 229.392 77.4367 231.045 79.71C232.698 81.88 233.525 83.895 233.525 85.755C233.525 86.4783 232.492 87.77 230.425 89.63C228.462 91.3867 225.93 93.4017 222.83 95.675C219.73 97.9483 216.268 100.325 212.445 102.805C208.725 105.285 205.108 107.61 201.595 109.78C198.185 111.95 195.085 113.81 192.295 115.36C189.608 116.807 187.748 117.633 186.715 117.84L186.095 117.375Z" fill="#292929"/>
<path d="M290.41 41.735C290.513 40.805 291.185 40.03 292.425 39.41C293.665 38.6867 295.06 38.0667 296.61 37.55C298.263 37.0333 299.865 36.6717 301.415 36.465C302.965 36.155 304.102 36 304.825 36C306.375 36 308.235 36.2067 310.405 36.62C312.678 36.93 314.848 37.4983 316.915 38.325C319.085 39.1517 320.893 40.2883 322.34 41.735C323.787 43.0783 324.51 44.7317 324.51 46.695C324.51 48.1417 324.303 49.5367 323.89 50.88C323.58 52.2233 323.425 53.6183 323.425 55.065C323.425 58.475 323.787 61.6267 324.51 64.52C324.717 65.0367 324.872 65.45 324.975 65.76C325.078 65.9667 325.44 66.07 326.06 66.07C328.23 66.07 330.297 65.6567 332.26 64.83C334.223 63.9 336.135 62.9183 337.995 61.885C339.958 60.8517 341.922 59.9217 343.885 59.095C345.848 58.165 347.915 57.7 350.085 57.7C351.222 57.7 352.668 57.855 354.425 58.165C356.182 58.475 357.887 58.9917 359.54 59.715C361.297 60.4383 362.795 61.3167 364.035 62.35C365.275 63.3833 365.895 64.6233 365.895 66.07C365.895 67.2067 365.74 68.1367 365.43 68.86C365.12 69.48 364.552 70.2033 363.725 71.03C363.002 71.65 361.297 72.3733 358.61 73.2C356.027 73.9233 353.133 74.6467 349.93 75.37C346.83 76.0933 343.833 76.7133 340.94 77.23C338.047 77.7467 335.98 78.1083 334.74 78.315C333.81 78.5217 332.828 78.6767 331.795 78.78C330.762 78.8833 329.832 79.09 329.005 79.4C328.178 79.71 327.662 80.3817 327.455 81.415C327.248 82.1383 327.403 83.6367 327.92 85.91C328.437 88.1833 329.057 90.56 329.78 93.04C330.503 95.4167 331.278 97.5867 332.105 99.55C332.932 101.41 333.603 102.34 334.12 102.34C337.323 102.34 340.475 101.772 343.575 100.635C346.675 99.395 349.775 98.0517 352.875 96.605C355.975 95.1583 359.127 93.8667 362.33 92.73C365.637 91.49 369.047 90.87 372.56 90.87C373.903 90.87 375.505 91.025 377.365 91.335C379.328 91.645 381.188 92.1617 382.945 92.885C384.805 93.6083 386.355 94.59 387.595 95.83C388.938 96.9667 389.61 98.4133 389.61 100.17C389.61 102.65 388.267 104.562 385.58 105.905C382.997 107.145 379.69 108.075 375.66 108.695C371.63 109.315 367.29 109.78 362.64 110.09C358.093 110.297 353.805 110.607 349.775 111.02C345.745 111.33 342.387 111.847 339.7 112.57C337.117 113.293 335.825 114.482 335.825 116.135C335.825 119.958 336.342 123.678 337.375 127.295C338.512 130.912 339.7 134.528 340.94 138.145C342.283 141.658 343.472 145.223 344.505 148.84C345.642 152.353 346.21 155.97 346.21 159.69C346.21 162.273 345.332 164.185 343.575 165.425C341.922 166.768 339.907 167.44 337.53 167.44C335.257 167.44 333.242 166.665 331.485 165.115C329.832 163.565 328.437 161.55 327.3 159.07C326.163 156.487 325.182 153.697 324.355 150.7C323.632 147.6 323.063 144.552 322.65 141.555C322.237 138.455 321.875 135.613 321.565 133.03C321.358 130.343 321.203 128.173 321.1 126.52C321.1 126.21 321.048 125.693 320.945 124.97C320.945 124.247 320.842 123.523 320.635 122.8C320.532 121.973 320.325 121.302 320.015 120.785C319.705 120.165 319.343 119.855 318.93 119.855C314.9 119.855 311.283 120.682 308.08 122.335C304.877 123.885 301.777 125.642 298.78 127.605C295.887 129.465 292.89 131.222 289.79 132.875C286.793 134.425 283.487 135.2 279.87 135.2C277.7 135.2 275.427 134.787 273.05 133.96C270.777 133.03 268.71 131.79 266.85 130.24C264.99 128.69 263.44 126.933 262.2 124.97C260.96 122.903 260.34 120.682 260.34 118.305C260.34 117.272 260.547 116.548 260.96 116.135C262.407 116.342 263.802 116.703 265.145 117.22C266.592 117.737 268.038 117.995 269.485 117.995C270.622 117.995 271.655 117.995 272.585 117.995C273.618 117.995 274.703 117.892 275.84 117.685C276.46 117.582 277.855 117.272 280.025 116.755C282.298 116.238 284.933 115.618 287.93 114.895C290.927 114.068 294.078 113.242 297.385 112.415C300.795 111.485 303.895 110.658 306.685 109.935C309.578 109.108 311.955 108.437 313.815 107.92C315.675 107.403 316.605 107.145 316.605 107.145C317.018 106.628 317.225 106.008 317.225 105.285C317.225 104.562 317.018 103.063 316.605 100.79C316.192 98.5167 315.675 96.1917 315.055 93.815C314.435 91.4383 313.712 89.32 312.885 87.46C312.162 85.4967 311.438 84.515 310.715 84.515C308.338 84.515 306.065 84.98 303.895 85.91C301.725 86.84 299.555 87.8733 297.385 89.01C295.215 90.0433 293.045 91.025 290.875 91.955C288.705 92.7817 286.432 93.195 284.055 93.195C282.505 93.195 280.748 92.73 278.785 91.8C276.925 90.87 275.168 89.6817 273.515 88.235C271.862 86.7883 270.467 85.1867 269.33 83.43C268.193 81.6733 267.625 79.9683 267.625 78.315C267.625 78.1083 267.677 77.85 267.78 77.54C267.883 77.1267 268.09 76.92 268.4 76.92C269.537 76.92 270.673 77.0233 271.81 77.23C273.05 77.4367 274.238 77.54 275.375 77.54C276.615 77.54 278.992 77.4367 282.505 77.23C286.122 76.92 289.842 76.455 293.665 75.835C297.488 75.215 300.847 74.3883 303.74 73.355C306.737 72.3217 308.235 71.0817 308.235 69.635C308.235 69.2217 308.08 68.55 307.77 67.62C307.563 66.69 307.305 65.7083 306.995 64.675C306.685 63.5383 306.323 62.505 305.91 61.575C305.6 60.645 305.393 59.9217 305.29 59.405C303.843 55.2717 302.087 51.9133 300.02 49.33C298.057 46.6433 295.008 44.37 290.875 42.51L290.41 41.735Z" fill="#292929"/>
<path d="M498.11 132.72C498.317 133.753 498.782 134.322 499.505 134.425C500.228 134.425 501.003 134.425 501.83 134.425C503.897 134.425 505.912 134.063 507.875 133.34C509.942 132.617 512.008 132.255 514.075 132.255C515.625 132.255 517.485 132.668 519.655 133.495C521.928 134.218 524.047 135.252 526.01 136.595C528.077 137.835 529.782 139.282 531.125 140.935C532.572 142.588 533.295 144.345 533.295 146.205C533.295 148.375 532.572 149.873 531.125 150.7C529.678 151.527 527.973 151.94 526.01 151.94C522.807 151.94 519.603 151.733 516.4 151.32C513.3 150.803 510.2 150.287 507.1 149.77C504 149.253 500.848 148.788 497.645 148.375C494.545 147.858 491.393 147.6 488.19 147.6C484.16 147.6 480.233 148.065 476.41 148.995C472.587 149.822 468.763 150.752 464.94 151.785C461.22 152.818 457.448 153.8 453.625 154.73C449.802 155.557 445.875 155.97 441.845 155.97C439.985 155.97 438.125 155.402 436.265 154.265C434.508 153.128 432.907 151.682 431.46 149.925C430.013 148.168 428.825 146.308 427.895 144.345C427.068 142.278 426.655 140.367 426.655 138.61C426.655 137.577 427.12 137.06 428.05 137.06C430.53 137.06 432.958 137.473 435.335 138.3C437.815 139.127 440.295 139.54 442.775 139.54C443.602 139.54 445.048 139.54 447.115 139.54C449.182 139.437 451.507 139.333 454.09 139.23C456.673 139.127 459.412 139.023 462.305 138.92C465.198 138.817 467.833 138.662 470.21 138.455C472.69 138.248 474.808 138.042 476.565 137.835C478.322 137.628 479.407 137.422 479.82 137.215C480.853 136.595 481.732 135.355 482.455 133.495C483.178 131.635 483.798 129.465 484.315 126.985C484.832 124.505 485.245 121.818 485.555 118.925C485.865 116.032 486.123 113.242 486.33 110.555C486.537 107.765 486.64 105.285 486.64 103.115C486.743 100.842 486.795 99.085 486.795 97.845C486.795 97.1217 486.382 96.6567 485.555 96.45C484.832 96.14 484.212 95.985 483.695 95.985C481.422 95.985 479.252 96.3983 477.185 97.225C475.118 97.9483 473.052 98.775 470.985 99.705C468.918 100.635 466.8 101.513 464.63 102.34C462.563 103.063 460.445 103.425 458.275 103.425C456.518 103.425 454.813 102.857 453.16 101.72C451.507 100.583 450.008 99.1883 448.665 97.535C447.425 95.8817 446.392 94.125 445.565 92.265C444.738 90.3017 444.325 88.545 444.325 86.995C444.325 85.6517 445.048 85.135 446.495 85.445C447.012 85.6517 447.425 85.8067 447.735 85.91C448.148 86.0133 448.613 86.1683 449.13 86.375C452.333 87.4083 455.847 87.925 459.67 87.925C462.563 87.925 465.405 87.615 468.195 86.995C470.985 86.2717 473.723 85.4967 476.41 84.67C479.2 83.8433 481.99 83.12 484.78 82.5C487.57 81.7767 490.412 81.415 493.305 81.415C494.855 81.415 496.767 81.725 499.04 82.345C501.313 82.965 503.535 83.8433 505.705 84.98C507.875 86.0133 509.735 87.305 511.285 88.855C512.835 90.405 513.61 92.11 513.61 93.97C513.61 95.0033 513.352 95.985 512.835 96.915C512.318 97.7417 511.698 98.5683 510.975 99.395C510.252 100.118 509.528 100.893 508.805 101.72C508.185 102.547 507.72 103.425 507.41 104.355L498.265 132.255L498.11 132.72Z" fill="#292929"/>
<path d="M582.895 165.89L583.36 164.96C586.15 162.583 589.25 159.742 592.66 156.435C596.07 153.128 599.532 149.512 603.045 145.585C606.558 141.555 609.968 137.37 613.275 133.03C616.582 128.69 619.475 124.298 621.955 119.855C624.538 115.412 626.605 111.072 628.155 106.835C629.705 102.495 630.48 98.4133 630.48 94.59C630.48 92.11 630.015 90.1983 629.085 88.855C628.155 87.5117 627.122 86.4783 625.985 85.755C624.952 84.9283 623.97 84.3083 623.04 83.895C622.11 83.4817 621.645 82.965 621.645 82.345C621.645 81.9317 621.955 81.57 622.575 81.26C623.195 80.95 623.918 80.7433 624.745 80.64C625.572 80.4333 626.347 80.33 627.07 80.33C627.897 80.2267 628.465 80.175 628.775 80.175C630.532 80.175 632.237 80.3817 633.89 80.795C635.647 81.105 637.352 81.5183 639.005 82.035C640.762 82.4483 642.518 82.8617 644.275 83.275C646.032 83.585 647.788 83.74 649.545 83.74C650.888 83.74 652.542 82.7583 654.505 80.795C656.572 78.8317 658.587 76.5583 660.55 73.975C662.513 71.3917 664.167 68.8083 665.51 66.225C666.957 63.5383 667.68 61.575 667.68 60.335C667.68 58.475 666.957 57.4417 665.51 57.235C664.167 56.925 662.823 56.77 661.48 56.77C659.517 56.77 656.933 56.9767 653.73 57.39C650.527 57.8033 647.065 58.3717 643.345 59.095C639.625 59.715 635.75 60.49 631.72 61.42C627.69 62.35 623.867 63.3317 620.25 64.365C616.633 65.3983 613.327 66.4833 610.33 67.62C607.437 68.6533 605.163 69.6867 603.51 70.72C602.063 71.65 600.513 72.6833 598.86 73.82C597.31 74.8533 595.605 75.37 593.745 75.37C590.955 75.37 588.372 74.6467 585.995 73.2C583.722 71.7533 581.707 69.8933 579.95 67.62C578.297 65.3467 576.953 62.8667 575.92 60.18C574.99 57.39 574.525 54.755 574.525 52.275C574.525 51.5517 574.577 50.9317 574.68 50.415C574.887 49.795 575.455 49.485 576.385 49.485C577.728 49.485 578.968 49.7433 580.105 50.26C581.345 50.6733 582.533 51.1383 583.67 51.655C584.807 52.1717 585.943 52.6883 587.08 53.205C588.32 53.6183 589.612 53.825 590.955 53.825C601.908 53.825 613.017 53.3083 624.28 52.275C635.543 51.1383 646.548 49.5367 657.295 47.47C660.395 46.85 663.443 46.0233 666.44 44.99C669.54 43.8533 672.692 43.285 675.895 43.285C678.168 43.285 680.597 44.0083 683.18 45.455C685.867 46.9017 688.347 48.7617 690.62 51.035C692.893 53.205 694.805 55.5817 696.355 58.165C697.905 60.7483 698.68 63.1767 698.68 65.45C698.68 66.5867 697.802 67.8267 696.045 69.17C694.392 70.5133 692.273 71.9083 689.69 73.355C687.107 74.6983 684.213 76.0933 681.01 77.54C677.91 78.8833 674.862 80.175 671.865 81.415C668.868 82.5517 666.13 83.585 663.65 84.515C661.273 85.445 659.568 86.1167 658.535 86.53C658.432 86.53 658.328 86.5817 658.225 86.685C658.122 86.7883 658.018 86.84 657.915 86.84C656.572 87.8733 655.28 89.5783 654.04 91.955C652.8 94.3317 651.56 96.915 650.32 99.705C649.183 102.495 648.047 105.285 646.91 108.075C645.877 110.762 644.843 112.932 643.81 114.585C642.363 117.065 640.245 120.062 637.455 123.575C634.768 126.985 631.668 130.602 628.155 134.425C624.642 138.145 620.87 141.917 616.84 145.74C612.81 149.46 608.78 152.818 604.75 155.815C600.823 158.812 597 161.292 593.28 163.255C589.663 165.218 586.408 166.252 583.515 166.355L582.895 165.89Z" fill="#292929"/>
<path d="M650.652 126.504L645.684 126C645.612 127.872 645.216 130.032 644.712 132.012C643.596 132.12 642.516 132.156 641.436 132.156C640.104 132.156 638.196 132.084 636.648 131.904L636.972 136.08C638.52 136.188 639.996 136.224 641.472 136.224C642.084 136.224 642.696 136.224 643.344 136.188C641.76 140.076 638.844 145.368 636 148.896L640.356 151.128C643.272 147.06 646.332 140.76 648.06 135.72C650.472 135.36 652.704 134.892 654.36 134.46L654.216 130.284C652.812 130.716 651.12 131.112 649.356 131.436C649.896 129.492 650.364 127.656 650.652 126.504ZM648.78 151.416C648.78 150.156 650.112 149.22 652.2 149.22C653.208 149.22 654.18 149.364 655.116 149.58C655.116 149.868 655.116 150.084 655.116 150.3C655.116 152.28 654.36 153.648 651.876 153.648C649.896 153.648 648.78 152.748 648.78 151.416ZM659.076 137.7H654.576C654.648 139.896 654.828 143.1 654.972 145.764C654.144 145.692 653.352 145.62 652.488 145.62C647.484 145.62 644.532 148.32 644.532 151.848C644.532 155.808 648.06 157.788 652.524 157.788C657.636 157.788 659.472 155.196 659.472 151.848C659.472 151.74 659.472 151.596 659.472 151.488C661.452 152.676 663.072 154.188 664.332 155.34L666.744 151.488C664.908 149.832 662.388 148.032 659.292 146.88C659.22 145.08 659.112 143.352 659.076 142.308C659.04 140.724 658.968 139.212 659.076 137.7ZM665.268 139.608L667.824 135.828C665.988 134.496 661.524 132.048 658.932 130.932L656.628 134.496C659.076 135.612 663.18 137.952 665.268 139.608Z" fill="#F4F4F4"/>
<path d="M681.54 126.792L677.04 128.628C678.66 132.444 680.388 136.296 682.044 139.356C678.588 141.912 676.068 144.9 676.068 148.86C676.068 155.052 681.504 157.032 688.668 157.032C693.348 157.032 697.164 156.672 700.224 156.132L700.296 150.948C697.092 151.74 692.232 152.28 688.524 152.28C683.52 152.28 681.036 150.912 681.036 148.32C681.036 145.8 683.052 143.748 686.04 141.768C689.316 139.644 693.852 137.556 696.084 136.44C697.416 135.756 698.568 135.144 699.648 134.496L697.164 130.32C696.228 131.112 695.184 131.724 693.816 132.516C692.124 133.488 688.992 135.036 686.04 136.764C684.6 133.992 682.908 130.536 681.54 126.792Z" fill="#F4F4F4"/>
<path d="M713.508 129.312V134.064C716.424 134.316 719.556 134.46 723.336 134.46C726.756 134.46 731.22 134.244 733.74 134.028V129.24C730.968 129.528 726.864 129.744 723.3 129.744C719.52 129.744 716.172 129.6 713.508 129.312ZM716.532 144.576L711.816 144.144C711.528 145.476 711.096 147.24 711.096 149.328C711.096 154.26 715.236 157.032 723.48 157.032C728.52 157.032 732.84 156.564 735.972 155.808L735.936 150.732C732.768 151.632 728.16 152.172 723.3 152.172C718.116 152.172 715.92 150.516 715.92 148.212C715.92 146.988 716.172 145.872 716.532 144.576Z" fill="#F4F4F4"/>
<path d="M749.472 128.304L749.544 133.02C750.336 132.876 751.632 132.768 752.532 132.696C754.26 132.588 759.264 132.336 761.244 132.264C758.4 135.216 749.508 142.452 744.72 146.124L748.104 149.688C751.956 145.764 755.88 142.2 761.46 142.2C765.564 142.2 768.192 144.324 768.192 147.168C768.192 151.92 762.288 154.044 752.316 152.748L753.576 157.428C766.896 158.508 773.124 154.332 773.124 147.204C773.124 142.164 768.804 138.42 762.468 138.42C761.568 138.42 760.236 138.528 759.048 138.888C762.18 136.512 765.636 133.74 767.724 132.192C768.228 131.868 769.056 131.328 769.704 130.968L767.292 127.8C766.608 127.98 765.528 128.124 764.7 128.196C762.36 128.34 754.332 128.448 752.388 128.448C751.2 128.448 750.048 128.376 749.472 128.304Z" fill="#F4F4F4"/>
<path d="M794.544 126.648L789.468 126.36C789.54 127.152 789.54 127.872 789.432 129.564C789.36 130.392 789.252 131.364 789.144 132.48C786.516 132.264 783.816 131.796 781.728 131.112L781.476 135.252C783.6 135.864 786.156 136.296 788.64 136.548C788.46 138.168 788.244 139.86 788.028 141.48C785.688 141.228 783.276 140.832 780.936 140.04L780.684 144.396C782.592 144.936 784.968 145.332 787.596 145.584C787.452 147.06 787.344 148.356 787.344 149.22C787.344 155.232 791.34 157.68 796.992 157.68C804.876 157.68 809.772 153.792 809.772 148.356C809.772 145.296 808.656 142.74 806.28 139.716L801.204 140.796C803.58 143.028 804.912 145.332 804.912 147.78C804.912 150.732 802.176 153.036 797.136 153.036C793.608 153.036 791.772 151.452 791.772 148.464C791.772 147.816 791.844 146.916 791.916 145.836C792.384 145.836 792.888 145.836 793.356 145.836C795.624 145.836 797.712 145.692 799.728 145.512L799.836 141.228C797.496 141.516 794.832 141.66 792.6 141.66C792.528 141.66 792.42 141.66 792.348 141.66C792.528 140.04 792.744 138.348 792.96 136.764C795.84 136.764 797.82 136.62 799.98 136.404L800.124 132.12C798.432 132.372 796.128 132.588 793.536 132.624C793.68 131.436 793.824 130.464 793.932 129.852C794.076 128.916 794.22 127.944 794.544 126.648Z" fill="#F4F4F4"/>
<path d="M822.317 129.744L816.773 129.672C816.989 130.788 817.061 132.336 817.061 133.344C817.061 135.54 817.097 139.752 817.457 143.064C818.465 152.712 821.885 156.276 825.845 156.276C828.725 156.276 830.993 154.08 833.369 147.816L829.769 143.424C829.085 146.304 827.645 150.516 825.953 150.516C823.685 150.516 822.605 146.952 822.101 141.768C821.885 139.176 821.849 136.476 821.885 134.136C821.885 133.128 822.065 131.04 822.317 129.744ZM840.317 130.572L835.745 132.048C839.669 136.512 841.577 145.26 842.153 151.056L846.869 149.22C846.473 143.712 843.737 134.712 840.317 130.572Z" fill="#F4F4F4"/>
<path d="M858.317 129.744L852.773 129.672C852.989 130.788 853.061 132.336 853.061 133.344C853.061 135.54 853.097 139.752 853.457 143.064C854.465 152.712 857.885 156.276 861.845 156.276C864.725 156.276 866.993 154.08 869.369 147.816L865.769 143.424C865.085 146.304 863.645 150.516 861.953 150.516C859.685 150.516 858.605 146.952 858.101 141.768C857.885 139.176 857.849 136.476 857.885 134.136C857.885 133.128 858.065 131.04 858.317 129.744ZM876.317 130.572L871.745 132.048C875.669 136.512 877.577 145.26 878.153 151.056L882.869 149.22C882.473 143.712 879.737 134.712 876.317 130.572Z" fill="#F4F4F4"/>
<path d="M891.905 146.556C888.737 146.556 886.109 149.184 886.109 152.388C886.109 155.592 888.737 158.22 891.905 158.22C895.145 158.22 897.737 155.592 897.737 152.388C897.737 149.184 895.145 146.556 891.905 146.556ZM891.905 155.628C890.177 155.628 888.701 154.188 888.701 152.388C888.701 150.588 890.177 149.148 891.905 149.148C893.705 149.148 895.145 150.588 895.145 152.388C895.145 154.188 893.705 155.628 891.905 155.628Z" fill="#F4F4F4"/>
</g>
<defs>
<linearGradient id="paint0_linear_134_3225" x1="127.392" y1="21" x2="14.6369" y2="27.442" gradientUnits="userSpaceOnUse">
<stop stop-color="#292929"/>
<stop offset="0.491667" stop-color="#353349" stop-opacity="0.968944"/>
<stop offset="1" stop-color="#395185" stop-opacity="0.98"/>
</linearGradient>
<clipPath id="clip0_134_3225">
<rect width="920" height="167" fill="white"/>
</clipPath>
</defs>
</svg>
