<svg width="920" height="167" viewBox="0 0 920 167" fill="none" xmlns="http://www.w3.org/2000/svg">
<g clip-path="url(#clip0_288_3660)">
<rect width="920" height="167" fill="#FAEF55"/>
<path d="M880.634 -12.5954C827.729 -57.5392 748.349 -51.0805 703.405 1.82481C658.461 54.7301 664.92 134.11 717.825 179.054C770.73 223.998 850.111 217.539 895.055 164.634C939.998 111.729 933.54 32.3484 880.634 -12.5954ZM728.983 155.801L780.044 95.6948L746.63 67.3092L874.086 14.5727L823.024 74.6793L855.19 102.004L728.983 155.801Z" fill="#121212" fill-opacity="0.63"/>
<path d="M284 30.15L284.62 29.685H341.35C342.177 29.685 342.693 29.22 342.9 28.29C343.21 27.2567 343.313 26.0167 343.21 24.57C343.21 23.1233 343.107 21.5733 342.9 19.92C342.693 18.1633 342.538 16.5617 342.435 15.115C342.435 13.6683 342.538 12.48 342.745 11.55C343.055 10.5167 343.623 10 344.45 10C345.793 10 347.447 10.0517 349.41 10.155C351.373 10.2583 353.388 10.4133 355.455 10.62C357.522 10.7233 359.485 10.93 361.345 11.24C363.308 11.4467 364.91 11.7567 366.15 12.17C367.08 12.48 367.442 12.79 367.235 13.1C367.132 13.3067 366.822 13.6167 366.305 14.03C365.788 14.34 365.22 14.7533 364.6 15.27C363.98 15.6833 363.67 16.2 363.67 16.82V28.29L364.135 29.22L365.22 29.685C366.15 29.685 367.958 29.685 370.645 29.685C373.332 29.5817 376.173 29.4783 379.17 29.375C382.167 29.2717 384.905 29.1167 387.385 28.91C389.865 28.7033 391.312 28.4967 391.725 28.29C392.448 27.8767 393.43 26.9467 394.67 25.5C395.91 23.95 397.15 22.4 398.39 20.85C399.63 19.1967 400.767 17.75 401.8 16.51C402.833 15.1667 403.557 14.495 403.97 14.495C404.487 14.495 405.778 15.3217 407.845 16.975C410.015 18.525 412.237 20.2817 414.51 22.245C416.887 24.105 419.005 25.9133 420.865 27.67C422.725 29.3233 423.655 30.2533 423.655 30.46C423.655 30.9767 423.448 31.235 423.035 31.235H383.82C383.303 31.235 382.89 31.4933 382.58 32.01C382.27 32.5267 381.805 32.785 381.185 32.785C380.565 32.785 379.945 32.63 379.325 32.32C378.808 31.9067 378.24 31.7 377.62 31.7C367.597 31.7 357.625 31.7517 347.705 31.855C337.785 31.855 327.813 31.855 317.79 31.855C312.21 31.855 306.682 31.7 301.205 31.39C295.728 30.9767 290.2 30.77 284.62 30.77L284 30.15ZM381.03 35.42C381.753 35.9367 382.942 36.7633 384.595 37.9C386.352 39.0367 388.16 40.2767 390.02 41.62C391.88 42.9633 393.585 44.2033 395.135 45.34C396.685 46.4767 397.667 47.3033 398.08 47.82C398.39 48.13 398.545 48.5433 398.545 49.06C398.545 49.5767 398.338 49.99 397.925 50.3C397.512 50.5067 397.047 50.765 396.53 51.075C396.013 51.2817 395.497 51.4883 394.98 51.695C394.567 51.7983 394.308 51.9533 394.205 52.16C394.102 52.3667 394.05 53.5033 394.05 55.57C394.05 57.6367 394.05 59.9617 394.05 62.545C394.05 65.1283 394.05 67.5567 394.05 69.83C394.05 72.1033 394.05 73.55 394.05 74.17C394.05 74.9967 393.172 75.72 391.415 76.34C389.762 76.96 387.85 77.4767 385.68 77.89C383.51 78.3033 381.392 78.665 379.325 78.975C377.362 79.1817 376.018 79.285 375.295 79.285C374.365 79.285 373.848 78.9233 373.745 78.2C373.745 77.3733 373.797 76.5467 373.9 75.72C374.003 74.79 374.003 73.9633 373.9 73.24C373.9 72.4133 373.538 72 372.815 72H336.39C336.287 72 335.718 72.465 334.685 73.395C333.755 74.2217 332.463 75.2033 330.81 76.34C329.157 77.3733 327.245 78.355 325.075 79.285C322.905 80.1117 320.58 80.525 318.1 80.525C317.48 80.525 316.602 80.525 315.465 80.525C314.432 80.4217 313.915 79.8533 313.915 78.82C313.915 72 313.708 65.2317 313.295 58.515C312.985 51.7983 312.83 45.03 312.83 38.21C312.83 37.9 312.882 37.59 312.985 37.28C313.192 36.97 313.502 36.815 313.915 36.815C314.742 36.815 315.672 37.0217 316.705 37.435C317.842 37.8483 318.978 38.365 320.115 38.985C321.252 39.605 322.337 40.225 323.37 40.845C324.507 41.3617 325.488 41.775 326.315 42.085L334.22 45.03C334.633 45.2367 336.493 45.34 339.8 45.34C343.21 45.34 346.982 45.34 351.115 45.34C355.248 45.34 359.175 45.34 362.895 45.34C366.615 45.2367 369.043 45.185 370.18 45.185C370.697 45.185 371.42 44.72 372.35 43.79C373.383 42.7567 374.417 41.6717 375.45 40.535C376.587 39.295 377.62 38.1583 378.55 37.125C379.583 36.0917 380.41 35.5233 381.03 35.42ZM333.6 68.435C333.6 69.4683 334.117 69.985 335.15 69.985H372.35C373.383 69.985 373.9 69.4683 373.9 68.435V48.75C373.9 47.7167 373.383 47.2 372.35 47.2H335.15C334.117 47.2 333.6 47.7167 333.6 48.75V68.435ZM289.735 154.305L289.58 154.15L289.115 153.065V79.595C289.115 78.665 289.632 78.2 290.665 78.2C292.008 78.2 293.61 78.665 295.47 79.595C297.433 80.4217 299.345 81.3517 301.205 82.385C303.168 83.4183 305.028 84.4 306.785 85.33C308.542 86.1567 309.988 86.57 311.125 86.57H396.53C397.047 86.57 397.667 86.1567 398.39 85.33C399.113 84.4 399.888 83.3667 400.715 82.23C401.542 81.0933 402.368 80.06 403.195 79.13C404.022 78.0967 404.797 77.4767 405.52 77.27C405.933 77.1667 407.07 77.6833 408.93 78.82C410.893 79.9567 412.857 81.3517 414.82 83.005C416.887 84.555 418.747 86.105 420.4 87.655C422.053 89.1017 422.88 90.0833 422.88 90.6C422.88 91.0133 422.673 91.4267 422.26 91.84C421.847 92.2533 421.382 92.6667 420.865 93.08C420.348 93.39 419.883 93.7517 419.47 94.165C419.057 94.5783 418.85 94.9917 418.85 95.405V141.285C418.85 143.558 417.972 145.573 416.215 147.33C414.562 149.087 412.547 150.585 410.17 151.825C407.793 153.065 405.262 153.995 402.575 154.615C399.992 155.338 397.77 155.7 395.91 155.7C395.393 155.7 394.98 155.39 394.67 154.77C394.36 154.15 394.102 153.427 393.895 152.6C393.792 151.877 393.688 151.102 393.585 150.275C393.585 149.552 393.533 148.983 393.43 148.57C393.327 147.95 392.965 146.968 392.345 145.625C391.725 144.385 391.053 143.093 390.33 141.75C389.607 140.407 388.935 139.218 388.315 138.185C387.798 137.152 387.54 136.635 387.54 136.635C387.54 136.015 387.902 135.653 388.625 135.55C389.348 135.447 390.175 135.447 391.105 135.55C392.138 135.55 393.12 135.55 394.05 135.55C394.98 135.55 395.652 135.395 396.065 135.085C396.168 134.982 396.375 134.723 396.685 134.31C396.995 133.897 397.305 133.483 397.615 133.07C397.925 132.553 398.183 132.088 398.39 131.675C398.597 131.262 398.7 131.003 398.7 130.9V91.22C398.7 90.1867 398.183 89.67 397.15 89.67H310.35C309.317 89.67 308.8 90.1867 308.8 91.22V148.57C308.8 149.913 308.025 150.998 306.475 151.825C305.028 152.652 303.272 153.272 301.205 153.685C299.242 154.098 297.227 154.357 295.16 154.46C293.197 154.667 291.75 154.77 290.82 154.77L289.735 154.305ZM363.98 103.62C364.29 103.31 364.807 102.742 365.53 101.915C366.357 101.088 367.235 100.21 368.165 99.28C369.095 98.35 369.922 97.575 370.645 96.955C371.472 96.2317 372.04 95.87 372.35 95.87C372.453 95.87 373.28 96.4383 374.83 97.575C376.38 98.6083 378.033 99.7967 379.79 101.14C381.547 102.483 383.148 103.775 384.595 105.015C386.145 106.152 387.023 106.875 387.23 107.185L387.385 107.495C387.385 108.425 386.868 109.2 385.835 109.82C384.905 110.44 384.337 111.267 384.13 112.3C383.923 113.23 383.82 114.212 383.82 115.245C383.923 116.175 383.975 117.105 383.975 118.035C383.975 119.688 383.923 121.342 383.82 122.995C383.717 124.545 383.562 126.147 383.355 127.8C383.252 128.523 383.2 129.247 383.2 129.97C383.303 130.59 383.303 131.262 383.2 131.985C382.993 133.535 382.322 134.775 381.185 135.705C380.048 136.532 378.705 137.152 377.155 137.565C375.605 137.978 374.003 138.237 372.35 138.34C370.697 138.443 369.25 138.495 368.01 138.495C367.183 138.495 366.615 138.288 366.305 137.875C365.995 137.358 365.788 136.79 365.685 136.17C365.685 135.447 365.685 134.723 365.685 134C365.685 133.277 365.633 132.657 365.53 132.14C365.427 131.933 365.272 131.675 365.065 131.365C364.858 130.952 364.755 130.642 364.755 130.435C364.652 129.815 364.755 129.247 365.065 128.73C365.375 128.213 365.53 127.697 365.53 127.18V108.735C365.53 107.702 365.013 107.185 363.98 107.185H343.365C342.332 107.185 341.815 107.702 341.815 108.735V127.335C341.815 128.472 342.848 129.092 344.915 129.195C347.085 129.195 349.41 129.143 351.89 129.04C354.473 128.833 356.798 128.73 358.865 128.73C361.035 128.73 362.12 129.195 362.12 130.125C361.81 130.332 360.777 130.487 359.02 130.59C357.367 130.59 355.455 130.59 353.285 130.59C351.218 130.59 349.203 130.59 347.24 130.59C345.38 130.487 344.14 130.435 343.52 130.435C343.003 130.435 342.487 130.848 341.97 131.675C341.557 132.398 341.04 133.277 340.42 134.31C339.903 135.343 339.335 136.325 338.715 137.255C338.095 138.185 337.423 138.857 336.7 139.27C335.253 139.993 333.445 140.51 331.275 140.82C329.105 141.13 327.245 141.285 325.695 141.285C325.178 141.285 324.817 141.182 324.61 140.975C324.507 140.768 324.352 140.407 324.145 139.89C323.835 138.857 323.628 137.513 323.525 135.86C323.525 134.103 323.525 132.295 323.525 130.435C323.525 128.575 323.525 126.767 323.525 125.01C323.628 123.253 323.68 121.755 323.68 120.515C323.37 113.075 323.215 105.635 323.215 98.195C323.215 97.3683 323.577 96.955 324.3 96.955C324.92 96.955 325.902 97.3167 327.245 98.04C328.588 98.7633 330.087 99.59 331.74 100.52C333.393 101.45 335.098 102.277 336.855 103C338.612 103.723 340.265 104.085 341.815 104.085H362.895L363.98 103.62Z" fill="#121212"/>
<path d="M461.165 65.8C462.198 66.11 463.645 67.04 465.505 68.59C467.365 70.14 469.277 71.7933 471.24 73.55C473.307 75.3067 475.27 76.9083 477.13 78.355C478.99 79.6983 480.385 80.37 481.315 80.37C481.832 80.37 482.297 80.215 482.71 79.905C483.123 79.595 483.33 79.1817 483.33 78.665V42.705L483.795 41.62C484.002 41.4133 484.415 41.31 485.035 41.31C487.825 42.7567 490.305 43.945 492.475 44.875C494.645 45.7017 496.763 46.4767 498.83 47.2C501 47.82 503.222 48.3883 505.495 48.905C507.768 49.3183 510.455 49.7833 513.555 50.3C513.658 50.3 513.71 50.3517 513.71 50.455C513.813 50.5583 513.917 50.61 514.02 50.61C513.917 51.1267 513.297 51.385 512.16 51.385C511.023 51.385 509.783 51.3333 508.44 51.23C507.097 51.1267 505.857 51.1783 504.72 51.385C503.583 51.4883 503.015 52.005 503.015 52.935V73.55C503.015 74.5833 503.532 75.1 504.565 75.1H515.88C516.913 75.1 517.43 74.5833 517.43 73.55V11.395C517.43 10.465 517.947 10 518.98 10C522.597 10 526.11 10.2583 529.52 10.775C533.033 11.2917 536.598 11.7567 540.215 12.17L540.99 12.945C540.577 13.7717 539.802 14.3917 538.665 14.805C537.632 15.2183 537.115 16.045 537.115 17.285C537.115 35.1617 536.96 52.935 536.65 70.605C536.443 88.1717 536.34 105.893 536.34 123.77C536.34 124.803 535.617 125.682 534.17 126.405C532.723 127.025 531.018 127.542 529.055 127.955C527.092 128.368 525.18 128.678 523.32 128.885C521.46 128.988 520.168 129.04 519.445 129.04C519.032 129.04 518.567 128.988 518.05 128.885C517.637 128.678 517.43 128.317 517.43 127.8C517.43 123.15 517.585 118.552 517.895 114.005C518.308 109.355 518.515 104.705 518.515 100.055C518.515 99.435 518.308 99.0733 517.895 98.97C517.068 99.1767 515.88 99.745 514.33 100.675C512.78 101.605 511.592 102.328 510.765 102.845C507.768 104.602 504.72 106.358 501.62 108.115C498.52 109.872 495.472 111.628 492.475 113.385C490.512 114.522 488.548 115.658 486.585 116.795C484.725 117.828 482.762 118.707 480.695 119.43L480.23 118.965C480.437 118.448 480.85 117.828 481.47 117.105C482.193 116.382 482.968 115.658 483.795 114.935C484.622 114.108 485.397 113.333 486.12 112.61C486.947 111.887 487.618 111.267 488.135 110.75C489.788 108.993 491.752 106.927 494.025 104.55C496.298 102.173 498.468 99.6933 500.535 97.11C502.705 94.4233 504.668 91.7883 506.425 89.205C508.182 86.5183 509.422 83.9867 510.145 81.61C510.868 79.2333 509.887 78.045 507.2 78.045C505.753 78.045 504.358 78.4583 503.015 79.285C501.672 80.0083 500.225 80.835 498.675 81.765C497.228 82.695 495.678 83.5733 494.025 84.4C492.475 85.1233 490.718 85.485 488.755 85.485C486.895 85.485 485.603 85.33 484.88 85.02C484.26 84.71 483.847 84.3483 483.64 83.935C483.433 83.5217 483.175 83.16 482.865 82.85C482.555 82.54 481.78 82.385 480.54 82.385C479.92 82.385 479.197 82.4883 478.37 82.695C477.543 82.7983 476.717 83.0567 475.89 83.47C475.167 83.78 474.495 84.1933 473.875 84.71C473.358 85.2267 473.1 85.8467 473.1 86.57V120.36C473.1 120.877 472.48 122.065 471.24 123.925C470 125.785 468.45 127.955 466.59 130.435C464.73 132.812 462.715 135.395 460.545 138.185C458.375 140.872 456.308 143.352 454.345 145.625C452.382 147.898 450.677 149.758 449.23 151.205C447.783 152.755 446.905 153.53 446.595 153.53C446.182 153.53 445.872 153.272 445.665 152.755C445.355 152.342 444.683 151.153 443.65 149.19C442.72 147.227 441.687 145.108 440.55 142.835C439.517 140.665 438.587 138.702 437.76 136.945C436.933 135.188 436.52 134.207 436.52 134C436.52 133.38 437.45 132.812 439.31 132.295C441.17 131.778 443.237 131.262 445.51 130.745C447.783 130.125 449.85 129.505 451.71 128.885C453.57 128.265 454.5 127.593 454.5 126.87V82.385C454.5 81.2483 453.57 80.68 451.71 80.68C449.85 80.5767 447.835 80.6283 445.665 80.835C443.495 80.9383 441.48 81.0417 439.62 81.145C437.76 81.145 436.83 80.68 436.83 79.75C436.83 79.44 436.985 79.2333 437.295 79.13C437.708 79.0267 438.018 78.9233 438.225 78.82C440.395 78.3033 442.565 78.2 444.735 78.51C447.008 78.7167 449.23 78.82 451.4 78.82C451.813 78.82 452.433 78.2517 453.26 77.115C454.19 75.9783 455.12 74.6867 456.05 73.24C456.98 71.69 457.858 70.2433 458.685 68.9C459.512 67.5567 460.08 66.6267 460.39 66.11L461.165 65.8ZM462.405 46.425C460.235 46.425 458.22 45.5983 456.36 43.945C454.603 42.2917 453.053 40.3283 451.71 38.055C450.367 35.6783 449.23 33.25 448.3 30.77C447.37 28.29 446.595 26.1717 445.975 24.415C445.665 23.485 445.303 22.555 444.89 21.625C444.58 20.5917 444.322 19.5583 444.115 18.525C443.908 17.8017 443.857 17.2333 443.96 16.82C444.167 16.4067 444.735 16.2 445.665 16.2C448.248 16.2 451.09 16.665 454.19 17.595C457.29 18.4217 460.183 19.6617 462.87 21.315C465.557 22.865 467.778 24.8283 469.535 27.205C471.395 29.5817 472.325 32.2683 472.325 35.265C472.325 36.6083 472.067 37.9517 471.55 39.295C471.137 40.6383 470.465 41.8267 469.535 42.86C468.708 43.8933 467.675 44.7717 466.435 45.495C465.195 46.115 463.852 46.425 462.405 46.425ZM541.145 31.7C540.835 31.7 540.68 31.545 540.68 31.235C540.68 30.615 541.042 30.2533 541.765 30.15C542.592 30.0467 543.522 30.0467 544.555 30.15C545.588 30.15 546.622 30.15 547.655 30.15C548.688 30.15 549.412 29.995 549.825 29.685C551.582 28.2383 553.183 26.275 554.63 23.795C556.18 21.315 557.833 19.1967 559.59 17.44L560.365 17.285C561.398 17.8017 562.638 18.6283 564.085 19.765C565.635 20.9017 567.185 22.1417 568.735 23.485C570.285 24.725 571.783 26.0167 573.23 27.36C574.78 28.6 576.072 29.6333 577.105 30.46L577.415 31.235L576.95 31.7H541.145ZM482.4 32.785C481.987 32.5783 481.625 32.2167 481.315 31.7C481.005 31.08 481.315 30.77 482.245 30.77H512.78L513.865 31.235L514.02 31.39L513.71 31.7L482.4 32.785ZM552.305 81.92C552.202 81.4033 551.943 80.5767 551.53 79.44C551.22 78.3033 550.703 77.735 549.98 77.735C549.67 77.735 548.947 77.7867 547.81 77.89C546.777 77.89 545.692 77.89 544.555 77.89C543.418 77.89 542.385 77.8383 541.455 77.735C540.628 77.6317 540.215 77.3733 540.215 76.96C540.215 76.5467 540.628 76.2883 541.455 76.185C542.385 76.0817 543.418 76.03 544.555 76.03C545.692 76.03 546.777 76.0817 547.81 76.185C548.947 76.185 549.67 76.185 549.98 76.185L551.065 75.72L552.15 74.635L552.615 73.55V54.02L552.15 52.935L551.065 51.85L549.98 51.385C549.67 51.385 548.998 51.4367 547.965 51.54C546.932 51.54 545.847 51.54 544.71 51.54C543.573 51.54 542.54 51.4367 541.61 51.23C540.783 51.0233 540.422 50.6617 540.525 50.145C540.525 49.9383 540.887 49.835 541.61 49.835C542.437 49.835 542.953 49.835 543.16 49.835C543.47 49.835 543.935 49.8867 544.555 49.99C545.278 49.99 545.95 49.99 546.57 49.99C547.293 49.99 547.965 49.9383 548.585 49.835C549.205 49.7317 549.67 49.5767 549.98 49.37C550.6 48.8533 551.272 48.13 551.995 47.2C552.822 46.27 553.648 45.34 554.475 44.41C555.405 43.48 556.283 42.6017 557.11 41.775C557.937 40.9483 558.712 40.38 559.435 40.07C559.745 39.9667 560.778 40.535 562.535 41.775C564.292 43.015 566.1 44.41 567.96 45.96C569.923 47.51 571.68 49.06 573.23 50.61C574.883 52.0567 575.71 52.9867 575.71 53.4C575.71 53.71 575.452 54.02 574.935 54.33C574.522 54.64 574.005 55.0017 573.385 55.415C572.868 55.725 572.352 56.0867 571.835 56.5C571.422 56.9133 571.215 57.3783 571.215 57.895V77.27C571.215 78.4067 570.44 79.3367 568.89 80.06C567.34 80.68 565.532 81.1967 563.465 81.61C561.398 81.92 559.383 82.1267 557.42 82.23C555.457 82.3333 554.062 82.385 553.235 82.385L552.305 81.92ZM562.535 118.19C562.018 117.983 561.14 117.26 559.9 116.02C558.66 114.677 557.265 113.127 555.715 111.37C554.268 109.51 552.718 107.547 551.065 105.48C549.412 103.413 547.913 101.398 546.57 99.435C545.227 97.4717 544.09 95.715 543.16 94.165C542.333 92.615 541.92 91.53 541.92 90.91C541.92 90.0833 542.437 89.67 543.47 89.67C544.607 89.67 545.433 89.67 545.95 89.67C548.74 89.67 551.84 90.0833 555.25 90.91C558.66 91.6333 561.863 92.8217 564.86 94.475C567.857 96.025 570.337 98.04 572.3 100.52C574.367 102.897 575.4 105.79 575.4 109.2C575.4 112.197 574.78 114.522 573.54 116.175C572.403 117.725 570.233 118.5 567.03 118.5C566.513 118.5 565.738 118.5 564.705 118.5C563.775 118.5 563.052 118.397 562.535 118.19ZM515.415 151.67C512.005 151.67 508.027 151.153 503.48 150.12C499.037 149.087 494.748 147.537 490.615 145.47C486.482 143.507 482.968 140.975 480.075 137.875C477.285 134.775 475.89 131.158 475.89 127.025C475.89 126.198 476.097 125.785 476.51 125.785C477.027 125.682 477.543 125.785 478.06 126.095C479.507 126.818 480.902 127.542 482.245 128.265C483.588 128.988 484.983 129.66 486.43 130.28C489.323 131.417 492.268 132.243 495.265 132.76C498.262 133.173 501.258 133.483 504.255 133.69C507.355 133.793 510.455 133.845 513.555 133.845C516.655 133.845 519.703 133.897 522.7 134C531.07 134.207 539.44 134.31 547.81 134.31C556.18 134.207 564.55 134.155 572.92 134.155C573.127 134.155 573.488 134.155 574.005 134.155C574.522 134.052 575.038 134.052 575.555 134.155C576.175 134.155 576.692 134.207 577.105 134.31C577.622 134.413 577.88 134.62 577.88 134.93C577.88 135.24 577.777 135.498 577.57 135.705C577.467 135.912 577.312 136.118 577.105 136.325C575.865 137.772 574.883 139.012 574.16 140.045C573.437 141.078 572.817 142.06 572.3 142.99C571.887 144.023 571.473 145.108 571.06 146.245C570.75 147.382 570.233 148.777 569.51 150.43C569.2 151.257 568.683 151.67 567.96 151.67H515.415Z" fill="#121212"/>
<path d="M593.845 132.45C593.845 129.66 594.362 127.025 595.395 124.545C596.428 122.065 597.875 119.947 599.735 118.19C601.595 116.33 603.765 114.883 606.245 113.85C608.725 112.817 611.36 112.3 614.15 112.3C617.043 112.3 619.782 112.817 622.365 113.85C624.948 114.883 627.222 116.33 629.185 118.19C631.148 120.05 632.647 122.272 633.68 124.855C634.817 127.335 635.385 130.073 635.385 133.07C635.385 135.963 634.817 138.65 633.68 141.13C632.647 143.507 631.2 145.573 629.34 147.33C627.48 149.19 625.258 150.585 622.675 151.515C620.195 152.548 617.56 153.065 614.77 153.065C611.773 153.065 608.983 152.548 606.4 151.515C603.92 150.482 601.75 149.035 599.89 147.175C598.03 145.418 596.532 143.3 595.395 140.82C594.362 138.237 593.845 135.447 593.845 132.45ZM597.875 132.605C597.875 136.428 598.702 139.58 600.355 142.06C602.008 144.54 604.075 146.4 606.555 147.64C609.035 148.983 611.67 149.603 614.46 149.5C617.353 149.5 620.04 148.828 622.52 147.485C625 146.245 627.067 144.333 628.72 141.75C630.373 139.27 631.2 136.17 631.2 132.45C631.2 128.833 630.373 125.837 628.72 123.46C627.067 120.98 625 119.172 622.52 118.035C620.04 116.898 617.353 116.33 614.46 116.33C611.67 116.33 609.035 116.95 606.555 118.19C604.075 119.43 602.008 121.29 600.355 123.77C598.702 126.147 597.875 129.092 597.875 132.605Z" fill="#121212"/>
<path d="M22 106.532V102.32H25.996C26.332 102.32 26.608 102.2 26.824 101.96C27.04 101.744 27.148 101.48 27.148 101.168V80.864H32.08V101.312C32.08 102.92 31.612 104.192 30.676 105.128C29.764 106.064 28.492 106.532 26.86 106.532H22ZM29.56 78.632C28.72 78.632 27.988 78.332 27.364 77.732C26.764 77.108 26.464 76.376 26.464 75.536C26.464 74.696 26.764 73.976 27.364 73.376C27.988 72.752 28.72 72.44 29.56 72.44C30.4 72.44 31.12 72.752 31.72 73.376C32.344 73.976 32.656 74.696 32.656 75.536C32.656 76.376 32.344 77.108 31.72 77.732C31.12 78.332 30.4 78.632 29.56 78.632Z" fill="#121212"/>
<path d="M43.9457 99.656C42.2657 99.656 40.8017 99.224 39.5537 98.36C38.3057 97.496 37.3337 96.344 36.6377 94.904C35.9657 93.44 35.6297 91.832 35.6297 90.08C35.6297 88.28 36.0137 86.648 36.7817 85.184C37.5737 83.72 38.7017 82.568 40.1657 81.728C41.6297 80.864 43.3817 80.432 45.4217 80.432C47.4857 80.432 49.2257 80.864 50.6417 81.728C52.0577 82.592 53.1377 83.756 53.8817 85.22C54.6257 86.684 54.9977 88.304 54.9977 90.08V99.224H50.0657V96.164H49.9937C49.6337 96.812 49.1777 97.4 48.6257 97.928C48.0977 98.456 47.4497 98.876 46.6817 99.188C45.9137 99.5 45.0017 99.656 43.9457 99.656ZM45.3497 95.444C46.3097 95.444 47.1377 95.204 47.8337 94.724C48.5297 94.244 49.0577 93.596 49.4177 92.78C49.8017 91.94 49.9937 91.016 49.9937 90.008C49.9937 89 49.8017 88.1 49.4177 87.308C49.0577 86.492 48.5297 85.844 47.8337 85.364C47.1377 84.884 46.3097 84.644 45.3497 84.644C44.3657 84.644 43.5137 84.884 42.7937 85.364C42.0977 85.844 41.5577 86.492 41.1737 87.308C40.8137 88.1 40.6337 89 40.6337 90.008C40.6337 91.016 40.8137 91.94 41.1737 92.78C41.5577 93.596 42.0977 94.244 42.7937 94.724C43.5137 95.204 44.3657 95.444 45.3497 95.444Z" fill="#121212"/>
<path d="M59.6667 99.224V88.316C59.6667 86.876 60.0147 85.556 60.7107 84.356C61.4067 83.156 62.4027 82.208 63.6987 81.512C65.0187 80.792 66.6027 80.432 68.4507 80.432C69.3387 80.432 70.1547 80.54 70.8987 80.756C71.6667 80.948 72.3747 81.236 73.0227 81.62C73.6707 82.004 74.2347 82.46 74.7147 82.988H74.7507C75.2547 82.46 75.8307 82.004 76.4787 81.62C77.1267 81.236 77.8347 80.948 78.6027 80.756C79.3707 80.54 80.1987 80.432 81.0867 80.432C82.9347 80.432 84.5067 80.792 85.8027 81.512C87.1227 82.208 88.1307 83.156 88.8267 84.356C89.5227 85.556 89.8707 86.876 89.8707 88.316V99.224H84.9387V88.316C84.9387 87.644 84.7587 87.032 84.3987 86.48C84.0627 85.928 83.6067 85.484 83.0307 85.148C82.4547 84.812 81.8067 84.644 81.0867 84.644C80.3907 84.644 79.7427 84.812 79.1427 85.148C78.5667 85.484 78.0987 85.928 77.7387 86.48C77.4027 87.032 77.2347 87.644 77.2347 88.316V99.224H72.3027V88.316C72.3027 87.644 72.1227 87.032 71.7627 86.48C71.4267 85.928 70.9707 85.484 70.3947 85.148C69.8187 84.812 69.1707 84.644 68.4507 84.644C67.7547 84.644 67.1067 84.812 66.5067 85.148C65.9307 85.484 65.4627 85.928 65.1027 86.48C64.7667 87.032 64.5987 87.644 64.5987 88.316V99.224H59.6667Z" fill="#121212"/>
<path d="M94.6137 99.224V95.012H103.578C103.866 95.012 104.118 94.952 104.334 94.832C104.574 94.712 104.754 94.544 104.874 94.328C105.018 94.112 105.09 93.872 105.09 93.608C105.09 93.32 105.018 93.068 104.874 92.852C104.754 92.636 104.574 92.468 104.334 92.348C104.118 92.204 103.866 92.132 103.578 92.132H100.122C98.9457 92.132 97.8777 91.952 96.9177 91.592C95.9817 91.208 95.2257 90.608 94.6497 89.792C94.0977 88.952 93.8217 87.86 93.8217 86.516C93.8217 85.484 94.0737 84.548 94.5777 83.708C95.1057 82.844 95.8017 82.16 96.6657 81.656C97.5537 81.128 98.5257 80.864 99.5817 80.864H108.186V85.076H100.05C99.6897 85.076 99.3657 85.196 99.0777 85.436C98.8137 85.676 98.6817 85.988 98.6817 86.372C98.6817 86.756 98.8137 87.08 99.0777 87.344C99.3417 87.584 99.6657 87.704 100.05 87.704H103.506C104.826 87.704 105.966 87.908 106.926 88.316C107.886 88.7 108.63 89.312 109.158 90.152C109.686 90.992 109.95 92.096 109.95 93.464C109.95 94.52 109.686 95.492 109.158 96.38C108.63 97.244 107.922 97.94 107.034 98.468C106.146 98.972 105.15 99.224 104.046 99.224H94.6137Z" fill="#121212"/>
<path d="M119.652 99.224C118.02 99.224 116.736 98.756 115.8 97.82C114.888 96.884 114.432 95.612 114.432 94.004V76.256H119.364V93.86C119.364 94.172 119.472 94.448 119.688 94.688C119.928 94.904 120.204 95.012 120.516 95.012H124.512V99.224H119.652ZM111.3 85.076V80.864H124.512V85.076H111.3Z" fill="#121212"/>
<path d="M134.825 99.656C133.145 99.656 131.681 99.224 130.433 98.36C129.185 97.496 128.213 96.344 127.517 94.904C126.845 93.44 126.509 91.832 126.509 90.08C126.509 88.28 126.893 86.648 127.661 85.184C128.453 83.72 129.581 82.568 131.045 81.728C132.509 80.864 134.261 80.432 136.301 80.432C138.365 80.432 140.105 80.864 141.521 81.728C142.937 82.592 144.017 83.756 144.761 85.22C145.505 86.684 145.877 88.304 145.877 90.08V99.224H140.945V96.164H140.873C140.513 96.812 140.057 97.4 139.505 97.928C138.977 98.456 138.329 98.876 137.561 99.188C136.793 99.5 135.881 99.656 134.825 99.656ZM136.229 95.444C137.189 95.444 138.017 95.204 138.713 94.724C139.409 94.244 139.937 93.596 140.297 92.78C140.681 91.94 140.873 91.016 140.873 90.008C140.873 89 140.681 88.1 140.297 87.308C139.937 86.492 139.409 85.844 138.713 85.364C138.017 84.884 137.189 84.644 136.229 84.644C135.245 84.644 134.393 84.884 133.673 85.364C132.977 85.844 132.437 86.492 132.053 87.308C131.693 88.1 131.513 89 131.513 90.008C131.513 91.016 131.693 91.94 132.053 92.78C132.437 93.596 132.977 94.244 133.673 94.724C134.393 95.204 135.245 95.444 136.229 95.444Z" fill="#121212"/>
<path d="M159.366 99.224C157.47 99.224 155.778 98.816 154.29 98C152.802 97.184 151.626 96.092 150.762 94.724C149.898 93.332 149.466 91.772 149.466 90.044C149.466 88.316 149.898 86.768 150.762 85.4C151.626 84.008 152.802 82.904 154.29 82.088C155.778 81.272 157.47 80.864 159.366 80.864H161.67V85.076H159.366C158.358 85.076 157.482 85.292 156.738 85.724C156.018 86.156 155.454 86.756 155.046 87.524C154.662 88.268 154.47 89.108 154.47 90.044C154.47 90.98 154.662 91.832 155.046 92.6C155.454 93.344 156.018 93.932 156.738 94.364C157.482 94.796 158.358 95.012 159.366 95.012H161.67V99.224H159.366Z" fill="#121212"/>
<path d="M165.1 99.224V72.944H170.032V87.884H172.948L177.376 80.864H182.776L177.736 88.64C179.296 89.288 180.508 90.284 181.372 91.628C182.236 92.972 182.668 94.472 182.668 96.128V99.224H177.736V96.128C177.736 95.384 177.544 94.712 177.16 94.112C176.8 93.488 176.32 92.996 175.72 92.636C175.12 92.276 174.448 92.096 173.704 92.096H170.032V99.224H165.1Z" fill="#121212"/>
<path d="M201.34 94.544C201.34 93.176 202.708 92.312 204.76 92.312C205.732 92.312 206.704 92.456 207.64 92.708C207.64 92.96 207.64 93.176 207.64 93.356C207.64 95.48 206.884 96.632 204.688 96.632C202.78 96.632 201.34 96.02 201.34 94.544ZM212.032 71.036H206.884C207.028 71.756 207.136 72.872 207.136 73.412C207.136 74.168 207.172 75.644 207.172 77.408C206.344 77.444 205.48 77.444 204.652 77.444C202.492 77.444 200.404 77.336 198.352 77.12V81.404C200.476 81.548 202.528 81.62 204.652 81.62C205.48 81.62 206.344 81.62 207.208 81.584C207.244 84.14 207.388 86.768 207.46 89C206.74 88.892 205.948 88.856 205.12 88.856C200.224 88.856 197.128 91.376 197.128 95.012C197.128 98.792 200.224 100.88 205.192 100.88C210.052 100.88 211.996 98.432 212.212 94.976C213.652 95.948 215.092 97.208 216.604 98.612L219.088 94.832C217.36 93.248 215.092 91.412 212.104 90.188C211.96 87.74 211.78 84.86 211.708 81.368C213.688 81.224 215.56 81.008 217.288 80.756V76.256C215.56 76.616 213.688 76.904 211.708 77.084C211.744 75.5 211.78 74.168 211.816 73.376C211.852 72.584 211.924 71.72 212.032 71.036ZM194.464 71.432L189.496 71C189.46 72.152 189.28 73.52 189.136 74.528C188.74 77.3 187.66 84.104 187.66 89.54C187.66 94.436 188.344 98.54 189.1 101.06L193.168 100.736C193.132 100.232 193.096 99.62 193.096 99.26C193.096 98.864 193.168 98.072 193.276 97.568C193.708 95.624 194.86 91.952 195.868 89L193.672 87.2C193.132 88.424 192.52 89.648 192.052 90.908C191.944 90.188 191.908 89.288 191.908 88.568C191.908 84.968 193.096 77.048 193.636 74.636C193.744 73.988 194.176 72.152 194.464 71.432Z" fill="#121212"/>
<path d="M229.456 101.708L233.308 98.396C231.508 96.164 228.016 92.6 225.46 90.512L221.716 93.752C224.2 95.912 227.26 99.008 229.456 101.708Z" fill="#121212"/>
</g>
<defs>
<clipPath id="clip0_288_3660">
<rect width="920" height="167" fill="white"/>
</clipPath>
</defs>
</svg>
