<svg width="920" height="167" viewBox="0 0 920 167" fill="none" xmlns="http://www.w3.org/2000/svg">
<g clip-path="url(#clip0_288_3665)">
<rect width="920" height="167" fill="#80EF7E"/>
<path d="M171.861 51.4545C161.313 21.4823 132.756 0 99.1818 0C56.6032 0 22 34.6032 22 77.1818C22 119.76 56.6032 154.364 99.1818 154.364C132.756 154.364 161.313 132.881 171.861 102.909H227.818V154.364H279.273V102.909H305V51.4545H171.861ZM99.1818 102.909C85.0318 102.909 73.4545 91.3318 73.4545 77.1818C73.4545 63.0318 85.0318 51.4545 99.1818 51.4545C113.332 51.4545 124.909 63.0318 124.909 77.1818C124.909 91.3318 113.332 102.909 99.1818 102.909Z" fill="#292929" fill-opacity="0.41"/>
<path d="M22 106.532V102.32H25.996C26.332 102.32 26.608 102.2 26.824 101.96C27.04 101.744 27.148 101.48 27.148 101.168V80.864H32.08V101.312C32.08 102.92 31.612 104.192 30.676 105.128C29.764 106.064 28.492 106.532 26.86 106.532H22ZM29.56 78.632C28.72 78.632 27.988 78.332 27.364 77.732C26.764 77.108 26.464 76.376 26.464 75.536C26.464 74.696 26.764 73.976 27.364 73.376C27.988 72.752 28.72 72.44 29.56 72.44C30.4 72.44 31.12 72.752 31.72 73.376C32.344 73.976 32.656 74.696 32.656 75.536C32.656 76.376 32.344 77.108 31.72 77.732C31.12 78.332 30.4 78.632 29.56 78.632Z" fill="#121212"/>
<path d="M43.9457 99.656C42.2657 99.656 40.8017 99.224 39.5537 98.36C38.3057 97.496 37.3337 96.344 36.6377 94.904C35.9657 93.44 35.6297 91.832 35.6297 90.08C35.6297 88.28 36.0137 86.648 36.7817 85.184C37.5737 83.72 38.7017 82.568 40.1657 81.728C41.6297 80.864 43.3817 80.432 45.4217 80.432C47.4857 80.432 49.2257 80.864 50.6417 81.728C52.0577 82.592 53.1377 83.756 53.8817 85.22C54.6257 86.684 54.9977 88.304 54.9977 90.08V99.224H50.0657V96.164H49.9937C49.6337 96.812 49.1777 97.4 48.6257 97.928C48.0977 98.456 47.4497 98.876 46.6817 99.188C45.9137 99.5 45.0017 99.656 43.9457 99.656ZM45.3497 95.444C46.3097 95.444 47.1377 95.204 47.8337 94.724C48.5297 94.244 49.0577 93.596 49.4177 92.78C49.8017 91.94 49.9937 91.016 49.9937 90.008C49.9937 89 49.8017 88.1 49.4177 87.308C49.0577 86.492 48.5297 85.844 47.8337 85.364C47.1377 84.884 46.3097 84.644 45.3497 84.644C44.3657 84.644 43.5137 84.884 42.7937 85.364C42.0977 85.844 41.5577 86.492 41.1737 87.308C40.8137 88.1 40.6337 89 40.6337 90.008C40.6337 91.016 40.8137 91.94 41.1737 92.78C41.5577 93.596 42.0977 94.244 42.7937 94.724C43.5137 95.204 44.3657 95.444 45.3497 95.444Z" fill="#121212"/>
<path d="M59.6667 99.224V88.316C59.6667 86.876 60.0147 85.556 60.7107 84.356C61.4067 83.156 62.4027 82.208 63.6987 81.512C65.0187 80.792 66.6027 80.432 68.4507 80.432C69.3387 80.432 70.1547 80.54 70.8987 80.756C71.6667 80.948 72.3747 81.236 73.0227 81.62C73.6707 82.004 74.2347 82.46 74.7147 82.988H74.7507C75.2547 82.46 75.8307 82.004 76.4787 81.62C77.1267 81.236 77.8347 80.948 78.6027 80.756C79.3707 80.54 80.1987 80.432 81.0867 80.432C82.9347 80.432 84.5067 80.792 85.8027 81.512C87.1227 82.208 88.1307 83.156 88.8267 84.356C89.5227 85.556 89.8707 86.876 89.8707 88.316V99.224H84.9387V88.316C84.9387 87.644 84.7587 87.032 84.3987 86.48C84.0627 85.928 83.6067 85.484 83.0307 85.148C82.4547 84.812 81.8067 84.644 81.0867 84.644C80.3907 84.644 79.7427 84.812 79.1427 85.148C78.5667 85.484 78.0987 85.928 77.7387 86.48C77.4027 87.032 77.2347 87.644 77.2347 88.316V99.224H72.3027V88.316C72.3027 87.644 72.1227 87.032 71.7627 86.48C71.4267 85.928 70.9707 85.484 70.3947 85.148C69.8187 84.812 69.1707 84.644 68.4507 84.644C67.7547 84.644 67.1067 84.812 66.5067 85.148C65.9307 85.484 65.4627 85.928 65.1027 86.48C64.7667 87.032 64.5987 87.644 64.5987 88.316V99.224H59.6667Z" fill="#121212"/>
<path d="M94.6137 99.224V95.012H103.578C103.866 95.012 104.118 94.952 104.334 94.832C104.574 94.712 104.754 94.544 104.874 94.328C105.018 94.112 105.09 93.872 105.09 93.608C105.09 93.32 105.018 93.068 104.874 92.852C104.754 92.636 104.574 92.468 104.334 92.348C104.118 92.204 103.866 92.132 103.578 92.132H100.122C98.9457 92.132 97.8777 91.952 96.9177 91.592C95.9817 91.208 95.2257 90.608 94.6497 89.792C94.0977 88.952 93.8217 87.86 93.8217 86.516C93.8217 85.484 94.0737 84.548 94.5777 83.708C95.1057 82.844 95.8017 82.16 96.6657 81.656C97.5537 81.128 98.5257 80.864 99.5817 80.864H108.186V85.076H100.05C99.6897 85.076 99.3657 85.196 99.0777 85.436C98.8137 85.676 98.6817 85.988 98.6817 86.372C98.6817 86.756 98.8137 87.08 99.0777 87.344C99.3417 87.584 99.6657 87.704 100.05 87.704H103.506C104.826 87.704 105.966 87.908 106.926 88.316C107.886 88.7 108.63 89.312 109.158 90.152C109.686 90.992 109.95 92.096 109.95 93.464C109.95 94.52 109.686 95.492 109.158 96.38C108.63 97.244 107.922 97.94 107.034 98.468C106.146 98.972 105.15 99.224 104.046 99.224H94.6137Z" fill="#121212"/>
<path d="M119.652 99.224C118.02 99.224 116.736 98.756 115.8 97.82C114.888 96.884 114.432 95.612 114.432 94.004V76.256H119.364V93.86C119.364 94.172 119.472 94.448 119.688 94.688C119.928 94.904 120.204 95.012 120.516 95.012H124.512V99.224H119.652ZM111.3 85.076V80.864H124.512V85.076H111.3Z" fill="#121212"/>
<path d="M134.825 99.656C133.145 99.656 131.681 99.224 130.433 98.36C129.185 97.496 128.213 96.344 127.517 94.904C126.845 93.44 126.509 91.832 126.509 90.08C126.509 88.28 126.893 86.648 127.661 85.184C128.453 83.72 129.581 82.568 131.045 81.728C132.509 80.864 134.261 80.432 136.301 80.432C138.365 80.432 140.105 80.864 141.521 81.728C142.937 82.592 144.017 83.756 144.761 85.22C145.505 86.684 145.877 88.304 145.877 90.08V99.224H140.945V96.164H140.873C140.513 96.812 140.057 97.4 139.505 97.928C138.977 98.456 138.329 98.876 137.561 99.188C136.793 99.5 135.881 99.656 134.825 99.656ZM136.229 95.444C137.189 95.444 138.017 95.204 138.713 94.724C139.409 94.244 139.937 93.596 140.297 92.78C140.681 91.94 140.873 91.016 140.873 90.008C140.873 89 140.681 88.1 140.297 87.308C139.937 86.492 139.409 85.844 138.713 85.364C138.017 84.884 137.189 84.644 136.229 84.644C135.245 84.644 134.393 84.884 133.673 85.364C132.977 85.844 132.437 86.492 132.053 87.308C131.693 88.1 131.513 89 131.513 90.008C131.513 91.016 131.693 91.94 132.053 92.78C132.437 93.596 132.977 94.244 133.673 94.724C134.393 95.204 135.245 95.444 136.229 95.444Z" fill="#121212"/>
<path d="M159.366 99.224C157.47 99.224 155.778 98.816 154.29 98C152.802 97.184 151.626 96.092 150.762 94.724C149.898 93.332 149.466 91.772 149.466 90.044C149.466 88.316 149.898 86.768 150.762 85.4C151.626 84.008 152.802 82.904 154.29 82.088C155.778 81.272 157.47 80.864 159.366 80.864H161.67V85.076H159.366C158.358 85.076 157.482 85.292 156.738 85.724C156.018 86.156 155.454 86.756 155.046 87.524C154.662 88.268 154.47 89.108 154.47 90.044C154.47 90.98 154.662 91.832 155.046 92.6C155.454 93.344 156.018 93.932 156.738 94.364C157.482 94.796 158.358 95.012 159.366 95.012H161.67V99.224H159.366Z" fill="#121212"/>
<path d="M165.1 99.224V72.944H170.032V87.884H172.948L177.376 80.864H182.776L177.736 88.64C179.296 89.288 180.508 90.284 181.372 91.628C182.236 92.972 182.668 94.472 182.668 96.128V99.224H177.736V96.128C177.736 95.384 177.544 94.712 177.16 94.112C176.8 93.488 176.32 92.996 175.72 92.636C175.12 92.276 174.448 92.096 173.704 92.096H170.032V99.224H165.1Z" fill="#121212"/>
<path d="M201.34 94.544C201.34 93.176 202.708 92.312 204.76 92.312C205.732 92.312 206.704 92.456 207.64 92.708C207.64 92.96 207.64 93.176 207.64 93.356C207.64 95.48 206.884 96.632 204.688 96.632C202.78 96.632 201.34 96.02 201.34 94.544ZM212.032 71.036H206.884C207.028 71.756 207.136 72.872 207.136 73.412C207.136 74.168 207.172 75.644 207.172 77.408C206.344 77.444 205.48 77.444 204.652 77.444C202.492 77.444 200.404 77.336 198.352 77.12V81.404C200.476 81.548 202.528 81.62 204.652 81.62C205.48 81.62 206.344 81.62 207.208 81.584C207.244 84.14 207.388 86.768 207.46 89C206.74 88.892 205.948 88.856 205.12 88.856C200.224 88.856 197.128 91.376 197.128 95.012C197.128 98.792 200.224 100.88 205.192 100.88C210.052 100.88 211.996 98.432 212.212 94.976C213.652 95.948 215.092 97.208 216.604 98.612L219.088 94.832C217.36 93.248 215.092 91.412 212.104 90.188C211.96 87.74 211.78 84.86 211.708 81.368C213.688 81.224 215.56 81.008 217.288 80.756V76.256C215.56 76.616 213.688 76.904 211.708 77.084C211.744 75.5 211.78 74.168 211.816 73.376C211.852 72.584 211.924 71.72 212.032 71.036ZM194.464 71.432L189.496 71C189.46 72.152 189.28 73.52 189.136 74.528C188.74 77.3 187.66 84.104 187.66 89.54C187.66 94.436 188.344 98.54 189.1 101.06L193.168 100.736C193.132 100.232 193.096 99.62 193.096 99.26C193.096 98.864 193.168 98.072 193.276 97.568C193.708 95.624 194.86 91.952 195.868 89L193.672 87.2C193.132 88.424 192.52 89.648 192.052 90.908C191.944 90.188 191.908 89.288 191.908 88.568C191.908 84.968 193.096 77.048 193.636 74.636C193.744 73.988 194.176 72.152 194.464 71.432Z" fill="#121212"/>
<path d="M229.456 101.708L233.308 98.396C231.508 96.164 228.016 92.6 225.46 90.512L221.716 93.752C224.2 95.912 227.26 99.008 229.456 101.708Z" fill="#121212"/>
<path d="M339.05 99.65C339.05 98.95 339.95 97.4 341.75 95C343.55 92.6 345.5 89.9 347.6 86.9C349.8 83.8 351.75 80.65 353.45 77.45C355.25 74.15 356.15 71.35 356.15 69.05C356.15 67.95 356 67.15 355.7 66.65C355.5 66.15 354.8 65.9 353.6 65.9C350.4 65.9 347.4 66.55 344.6 67.85C341.8 69.05 338.95 70.1 336.05 71C334.85 71.4 333.45 71.75 331.85 72.05C330.35 72.35 328.8 72.75 327.2 73.25C325.7 73.65 324.25 74.15 322.85 74.75C321.45 75.35 320.3 76.1 319.4 77C318.6 77.9 318.05 78.7 317.75 79.4C317.45 80 317.2 80.85 317 81.95C316.2 86.15 315.8 90.7 315.8 95.6C315.9 100.4 315.95 104.95 315.95 109.25C315.95 111.05 316.05 112.85 316.25 114.65C316.45 116.45 316.9 118.05 317.6 119.45C318.4 120.85 319.45 122 320.75 122.9C322.15 123.7 324 124.1 326.3 124.1C330 124.1 333.65 124 337.25 123.8C340.95 123.6 344.6 123.15 348.2 122.45C349.4 122.25 350.95 122 352.85 121.7C354.85 121.4 356.95 121.2 359.15 121.1C361.45 120.9 363.7 120.85 365.9 120.95C368.2 121.05 370.25 121.4 372.05 122C373.85 122.6 375.3 123.5 376.4 124.7C377.6 125.9 378.2 127.5 378.2 129.5C378.2 131.4 377.4 133 375.8 134.3C374.3 135.6 372.35 136.7 369.95 137.6C367.55 138.4 364.85 139.05 361.85 139.55C358.95 139.95 356.05 140.25 353.15 140.45C350.35 140.75 347.75 140.9 345.35 140.9C342.95 141 341.1 141.05 339.8 141.05C336.8 141.05 333.1 140.95 328.7 140.75C324.4 140.55 320.2 139.95 316.1 138.95C312.1 137.85 308.65 136.15 305.75 133.85C302.95 131.55 301.55 128.25 301.55 123.95V86.75C301.55 85.85 301.05 85.4 300.05 85.4C298.35 85.4 296.6 86 294.8 87.2C293 88.3 291.15 89.55 289.25 90.95C287.35 92.25 285.35 93.45 283.25 94.55C281.15 95.65 278.9 96.2 276.5 96.2C273.7 96.2 271.1 95.5 268.7 94.1C266.3 92.7 264.2 90.9 262.4 88.7C260.6 86.5 259.2 84.05 258.2 81.35C257.2 78.55 256.7 75.85 256.7 73.25C256.7 72.35 257.2 71.9 258.2 71.9C258.9 71.9 259.7 72.2 260.6 72.8C261.5 73.3 262.45 73.9 263.45 74.6C264.55 75.2 265.7 75.8 266.9 76.4C268.1 76.9 269.35 77.15 270.65 77.15C271.55 77.15 273.55 76.9 276.65 76.4C279.85 75.9 283.15 75.3 286.55 74.6C290.05 73.8 293.2 73.05 296 72.35C298.8 71.55 300.35 70.9 300.65 70.4C300.75 70.2 300.85 69.4 300.95 68C301.05 66.6 301.1 64.9 301.1 62.9C301.1 60.8 301.1 58.55 301.1 56.15C301.1 53.75 301.05 51.45 300.95 49.25C300.95 47.05 300.95 45.15 300.95 43.55C300.95 41.85 300.95 40.65 300.95 39.95C300.95 38.05 300.35 36.6 299.15 35.6C297.95 34.5 296.65 33.65 295.25 33.05C293.85 32.35 292.55 31.75 291.35 31.25C290.15 30.75 289.55 30.1 289.55 29.3C289.55 28.5 290.4 27.8 292.1 27.2C293.8 26.5 295.95 26 298.55 25.7C301.15 25.3 303.9 25.15 306.8 25.25C309.8 25.35 312.6 25.8 315.2 26.6C317.8 27.4 319.95 28.65 321.65 30.35C323.35 31.95 324.2 34.1 324.2 36.8C324.2 39.1 323.85 41.35 323.15 43.55C322.55 45.75 321.85 47.95 321.05 50.15C320.25 52.25 319.5 54.4 318.8 56.6C318.2 58.8 317.9 61.05 317.9 63.35C317.9 64.25 318.05 64.95 318.35 65.45C318.65 65.95 319.3 66.2 320.3 66.2C323.6 66.2 327.05 65.4 330.65 63.8C334.35 62.2 338.05 60.45 341.75 58.55C345.45 56.65 349.1 54.9 352.7 53.3C356.4 51.7 360 50.9 363.5 50.9C365.2 50.9 367.25 51.5 369.65 52.7C372.15 53.9 374.5 55.4 376.7 57.2C379 59 380.95 61 382.55 63.2C384.15 65.3 384.95 67.25 384.95 69.05C384.95 69.75 383.95 71 381.95 72.8C380.05 74.5 377.6 76.45 374.6 78.65C371.6 80.85 368.25 83.15 364.55 85.55C360.95 87.95 357.45 90.2 354.05 92.3C350.75 94.4 347.75 96.2 345.05 97.7C342.45 99.1 340.65 99.9 339.65 100.1L339.05 99.65ZM440 26.45C440.1 25.55 440.75 24.8 441.95 24.2C443.15 23.5 444.5 22.9 446 22.4C447.6 21.9 449.15 21.55 450.65 21.35C452.15 21.05 453.25 20.9 453.95 20.9C455.45 20.9 457.25 21.1 459.35 21.5C461.55 21.8 463.65 22.35 465.65 23.15C467.75 23.95 469.5 25.05 470.9 26.45C472.3 27.75 473 29.35 473 31.25C473 32.65 472.8 34 472.4 35.3C472.1 36.6 471.95 37.95 471.95 39.35C471.95 42.65 472.3 45.7 473 48.5C473.2 49 473.35 49.4 473.45 49.7C473.55 49.9 473.9 50 474.5 50C476.6 50 478.6 49.6 480.5 48.8C482.4 47.9 484.25 46.95 486.05 45.95C487.95 44.95 489.85 44.05 491.75 43.25C493.65 42.35 495.65 41.9 497.75 41.9C498.85 41.9 500.25 42.05 501.95 42.35C503.65 42.65 505.3 43.15 506.9 43.85C508.6 44.55 510.05 45.4 511.25 46.4C512.45 47.4 513.05 48.6 513.05 50C513.05 51.1 512.9 52 512.6 52.7C512.3 53.3 511.75 54 510.95 54.8C510.25 55.4 508.6 56.1 506 56.9C503.5 57.6 500.7 58.3 497.6 59C494.6 59.7 491.7 60.3 488.9 60.8C486.1 61.3 484.1 61.65 482.9 61.85C482 62.05 481.05 62.2 480.05 62.3C479.05 62.4 478.15 62.6 477.35 62.9C476.55 63.2 476.05 63.85 475.85 64.85C475.65 65.55 475.8 67 476.3 69.2C476.8 71.4 477.4 73.7 478.1 76.1C478.8 78.4 479.55 80.5 480.35 82.4C481.15 84.2 481.8 85.1 482.3 85.1C485.4 85.1 488.45 84.55 491.45 83.45C494.45 82.25 497.45 80.95 500.45 79.55C503.45 78.15 506.5 76.9 509.6 75.8C512.8 74.6 516.1 74 519.5 74C520.8 74 522.35 74.15 524.15 74.45C526.05 74.75 527.85 75.25 529.55 75.95C531.35 76.65 532.85 77.6 534.05 78.8C535.35 79.9 536 81.3 536 83C536 85.4 534.7 87.25 532.1 88.55C529.6 89.75 526.4 90.65 522.5 91.25C518.6 91.85 514.4 92.3 509.9 92.6C505.5 92.8 501.35 93.1 497.45 93.5C493.55 93.8 490.3 94.3 487.7 95C485.2 95.7 483.95 96.85 483.95 98.45C483.95 102.15 484.45 105.75 485.45 109.25C486.55 112.75 487.7 116.25 488.9 119.75C490.2 123.15 491.35 126.6 492.35 130.1C493.45 133.5 494 137 494 140.6C494 143.1 493.15 144.95 491.45 146.15C489.85 147.45 487.9 148.1 485.6 148.1C483.4 148.1 481.45 147.35 479.75 145.85C478.15 144.35 476.8 142.4 475.7 140C474.6 137.5 473.65 134.8 472.85 131.9C472.15 128.9 471.6 125.95 471.2 123.05C470.8 120.05 470.45 117.3 470.15 114.8C469.95 112.2 469.8 110.1 469.7 108.5C469.7 108.2 469.65 107.7 469.55 107C469.55 106.3 469.45 105.6 469.25 104.9C469.15 104.1 468.95 103.45 468.65 102.95C468.35 102.35 468 102.05 467.6 102.05C463.7 102.05 460.2 102.85 457.1 104.45C454 105.95 451 107.65 448.1 109.55C445.3 111.35 442.4 113.05 439.4 114.65C436.5 116.15 433.3 116.9 429.8 116.9C427.7 116.9 425.5 116.5 423.2 115.7C421 114.8 419 113.6 417.2 112.1C415.4 110.6 413.9 108.9 412.7 107C411.5 105 410.9 102.85 410.9 100.55C410.9 99.55 411.1 98.85 411.5 98.45C412.9 98.65 414.25 99 415.55 99.5C416.95 100 418.35 100.25 419.75 100.25C420.85 100.25 421.85 100.25 422.75 100.25C423.75 100.25 424.8 100.15 425.9 99.95C426.5 99.85 427.85 99.55 429.95 99.05C432.15 98.55 434.7 97.95 437.6 97.25C440.5 96.45 443.55 95.65 446.75 94.85C450.05 93.95 453.05 93.15 455.75 92.45C458.55 91.65 460.85 91 462.65 90.5C464.45 90 465.35 89.75 465.35 89.75C465.75 89.25 465.95 88.65 465.95 87.95C465.95 87.25 465.75 85.8 465.35 83.6C464.95 81.4 464.45 79.15 463.85 76.85C463.25 74.55 462.55 72.5 461.75 70.7C461.05 68.8 460.35 67.85 459.65 67.85C457.35 67.85 455.15 68.3 453.05 69.2C450.95 70.1 448.85 71.1 446.75 72.2C444.65 73.2 442.55 74.15 440.45 75.05C438.35 75.85 436.15 76.25 433.85 76.25C432.35 76.25 430.65 75.8 428.75 74.9C426.95 74 425.25 72.85 423.65 71.45C422.05 70.05 420.7 68.5 419.6 66.8C418.5 65.1 417.95 63.45 417.95 61.85C417.95 61.65 418 61.4 418.1 61.1C418.2 60.7 418.4 60.5 418.7 60.5C419.8 60.5 420.9 60.6 422 60.8C423.2 61 424.35 61.1 425.45 61.1C426.65 61.1 428.95 61 432.35 60.8C435.85 60.5 439.45 60.05 443.15 59.45C446.85 58.85 450.1 58.05 452.9 57.05C455.8 56.05 457.25 54.85 457.25 53.45C457.25 53.05 457.1 52.4 456.8 51.5C456.6 50.6 456.35 49.65 456.05 48.65C455.75 47.55 455.4 46.55 455 45.65C454.7 44.75 454.5 44.05 454.4 43.55C453 39.55 451.3 36.3 449.3 33.8C447.4 31.2 444.45 29 440.45 27.2L440 26.45ZM641 114.5C641.2 115.5 641.65 116.05 642.35 116.15C643.05 116.15 643.8 116.15 644.6 116.15C646.6 116.15 648.55 115.8 650.45 115.1C652.45 114.4 654.45 114.05 656.45 114.05C657.95 114.05 659.75 114.45 661.85 115.25C664.05 115.95 666.1 116.95 668 118.25C670 119.45 671.65 120.85 672.95 122.45C674.35 124.05 675.05 125.75 675.05 127.55C675.05 129.65 674.35 131.1 672.95 131.9C671.55 132.7 669.9 133.1 668 133.1C664.9 133.1 661.8 132.9 658.7 132.5C655.7 132 652.7 131.5 649.7 131C646.7 130.5 643.65 130.05 640.55 129.65C637.55 129.15 634.5 128.9 631.4 128.9C627.5 128.9 623.7 129.35 620 130.25C616.3 131.05 612.6 131.95 608.9 132.95C605.3 133.95 601.65 134.9 597.95 135.8C594.25 136.6 590.45 137 586.55 137C584.75 137 582.95 136.45 581.15 135.35C579.45 134.25 577.9 132.85 576.5 131.15C575.1 129.45 573.95 127.65 573.05 125.75C572.25 123.75 571.85 121.9 571.85 120.2C571.85 119.2 572.3 118.7 573.2 118.7C575.6 118.7 577.95 119.1 580.25 119.9C582.65 120.7 585.05 121.1 587.45 121.1C588.25 121.1 589.65 121.1 591.65 121.1C593.65 121 595.9 120.9 598.4 120.8C600.9 120.7 603.55 120.6 606.35 120.5C609.15 120.4 611.7 120.25 614 120.05C616.4 119.85 618.45 119.65 620.15 119.45C621.85 119.25 622.9 119.05 623.3 118.85C624.3 118.25 625.15 117.05 625.85 115.25C626.55 113.45 627.15 111.35 627.65 108.95C628.15 106.55 628.55 103.95 628.85 101.15C629.15 98.35 629.4 95.65 629.6 93.05C629.8 90.35 629.9 87.95 629.9 85.85C630 83.65 630.05 81.95 630.05 80.75C630.05 80.05 629.65 79.6 628.85 79.4C628.15 79.1 627.55 78.95 627.05 78.95C624.85 78.95 622.75 79.35 620.75 80.15C618.75 80.85 616.75 81.65 614.75 82.55C612.75 83.45 610.7 84.3 608.6 85.1C606.6 85.8 604.55 86.15 602.45 86.15C600.75 86.15 599.1 85.6 597.5 84.5C595.9 83.4 594.45 82.05 593.15 80.45C591.95 78.85 590.95 77.15 590.15 75.35C589.35 73.45 588.95 71.75 588.95 70.25C588.95 68.95 589.65 68.45 591.05 68.75C591.55 68.95 591.95 69.1 592.25 69.2C592.65 69.3 593.1 69.45 593.6 69.65C596.7 70.65 600.1 71.15 603.8 71.15C606.6 71.15 609.35 70.85 612.05 70.25C614.75 69.55 617.4 68.8 620 68C622.7 67.2 625.4 66.5 628.1 65.9C630.8 65.2 633.55 64.85 636.35 64.85C637.85 64.85 639.7 65.15 641.9 65.75C644.1 66.35 646.25 67.2 648.35 68.3C650.45 69.3 652.25 70.55 653.75 72.05C655.25 73.55 656 75.2 656 77C656 78 655.75 78.95 655.25 79.85C654.75 80.65 654.15 81.45 653.45 82.25C652.75 82.95 652.05 83.7 651.35 84.5C650.75 85.3 650.3 86.15 650 87.05L641.15 114.05L641 114.5ZM723.05 146.6L723.5 145.7C726.2 143.4 729.2 140.65 732.5 137.45C735.8 134.25 739.15 130.75 742.55 126.95C745.95 123.05 749.25 119 752.45 114.8C755.65 110.6 758.45 106.35 760.85 102.05C763.35 97.75 765.35 93.55 766.85 89.45C768.35 85.25 769.1 81.3 769.1 77.6C769.1 75.2 768.65 73.35 767.75 72.05C766.85 70.75 765.85 69.75 764.75 69.05C763.75 68.25 762.8 67.65 761.9 67.25C761 66.85 760.55 66.35 760.55 65.75C760.55 65.35 760.85 65 761.45 64.7C762.05 64.4 762.75 64.2 763.55 64.1C764.35 63.9 765.1 63.8 765.8 63.8C766.6 63.7 767.15 63.65 767.45 63.65C769.15 63.65 770.8 63.85 772.4 64.25C774.1 64.55 775.75 64.95 777.35 65.45C779.05 65.85 780.75 66.25 782.45 66.65C784.15 66.95 785.85 67.1 787.55 67.1C788.85 67.1 790.45 66.15 792.35 64.25C794.35 62.35 796.3 60.15 798.2 57.65C800.1 55.15 801.7 52.65 803 50.15C804.4 47.55 805.1 45.65 805.1 44.45C805.1 42.65 804.4 41.65 803 41.45C801.7 41.15 800.4 41 799.1 41C797.2 41 794.7 41.2 791.6 41.6C788.5 42 785.15 42.55 781.55 43.25C777.95 43.85 774.2 44.6 770.3 45.5C766.4 46.4 762.7 47.35 759.2 48.35C755.7 49.35 752.5 50.4 749.6 51.5C746.8 52.5 744.6 53.5 743 54.5C741.6 55.4 740.1 56.4 738.5 57.5C737 58.5 735.35 59 733.55 59C730.85 59 728.35 58.3 726.05 56.9C723.85 55.5 721.9 53.7 720.2 51.5C718.6 49.3 717.3 46.9 716.3 44.3C715.4 41.6 714.95 39.05 714.95 36.65C714.95 35.95 715 35.35 715.1 34.85C715.3 34.25 715.85 33.95 716.75 33.95C718.05 33.95 719.25 34.2 720.35 34.7C721.55 35.1 722.7 35.55 723.8 36.05C724.9 36.55 726 37.05 727.1 37.55C728.3 37.95 729.55 38.15 730.85 38.15C741.45 38.15 752.2 37.65 763.1 36.65C774 35.55 784.65 34 795.05 32C798.05 31.4 801 30.6 803.9 29.6C806.9 28.5 809.95 27.95 813.05 27.95C815.25 27.95 817.6 28.65 820.1 30.05C822.7 31.45 825.1 33.25 827.3 35.45C829.5 37.55 831.35 39.85 832.85 42.35C834.35 44.85 835.1 47.2 835.1 49.4C835.1 50.5 834.25 51.7 832.55 53C830.95 54.3 828.9 55.65 826.4 57.05C823.9 58.35 821.1 59.7 818 61.1C815 62.4 812.05 63.65 809.15 64.85C806.25 65.95 803.6 66.95 801.2 67.85C798.9 68.75 797.25 69.4 796.25 69.8C796.15 69.8 796.05 69.85 795.95 69.95C795.85 70.05 795.75 70.1 795.65 70.1C794.35 71.1 793.1 72.75 791.9 75.05C790.7 77.35 789.5 79.85 788.3 82.55C787.2 85.25 786.1 87.95 785 90.65C784 93.25 783 95.35 782 96.95C780.6 99.35 778.55 102.25 775.85 105.65C773.25 108.95 770.25 112.45 766.85 116.15C763.45 119.75 759.8 123.4 755.9 127.1C752 130.7 748.1 133.95 744.2 136.85C740.4 139.75 736.7 142.15 733.1 144.05C729.6 145.95 726.45 146.95 723.65 147.05L723.05 146.6ZM854.9 131.45C854.9 128.75 855.4 126.2 856.4 123.8C857.4 121.4 858.8 119.35 860.6 117.65C862.4 115.85 864.5 114.45 866.9 113.45C869.3 112.45 871.85 111.95 874.55 111.95C877.35 111.95 880 112.45 882.5 113.45C885 114.45 887.2 115.85 889.1 117.65C891 119.45 892.45 121.6 893.45 124.1C894.55 126.5 895.1 129.15 895.1 132.05C895.1 134.85 894.55 137.45 893.45 139.85C892.45 142.15 891.05 144.15 889.25 145.85C887.45 147.65 885.3 149 882.8 149.9C880.4 150.9 877.85 151.4 875.15 151.4C872.25 151.4 869.55 150.9 867.05 149.9C864.65 148.9 862.55 147.5 860.75 145.7C858.95 144 857.5 141.95 856.4 139.55C855.4 137.05 854.9 134.35 854.9 131.45ZM858.8 131.6C858.8 135.3 859.6 138.35 861.2 140.75C862.8 143.15 864.8 144.95 867.2 146.15C869.6 147.45 872.15 148.05 874.85 147.95C877.65 147.95 880.25 147.3 882.65 146C885.05 144.8 887.05 142.95 888.65 140.45C890.25 138.05 891.05 135.05 891.05 131.45C891.05 127.95 890.25 125.05 888.65 122.75C887.05 120.35 885.05 118.6 882.65 117.5C880.25 116.4 877.65 115.85 874.85 115.85C872.15 115.85 869.6 116.45 867.2 117.65C864.8 118.85 862.8 120.65 861.2 123.05C859.6 125.35 858.8 128.2 858.8 131.6Z" fill="#121212"/>
</g>
<defs>
<clipPath id="clip0_288_3665">
<rect width="920" height="167" fill="white"/>
</clipPath>
</defs>
</svg>
