<svg width="920" height="167" viewBox="0 0 920 167" fill="none" xmlns="http://www.w3.org/2000/svg">
<g clip-path="url(#clip0_134_3225)">
<rect width="920" height="167" rx="4" fill="#6186D5"/>
<path d="M598.269 56.195C590.704 17.8137 556.995 -11 516.5 -11C484.349 -11 456.425 7.245 442.519 33.945C409.032 37.505 383 65.8737 383 100.25C383 137.074 412.926 167 449.75 167H594.375C625.08 167 650 142.08 650 111.375C650 82.005 627.194 58.1975 598.269 56.195Z" fill="#F4F4F4" fill-opacity="0.45"/>
<rect width="138.696" height="42" fill="#EBEBEB"/>
<path d="M30.7715 26.39C30.7715 25.97 30.8915 25.58 31.1315 25.22C31.3715 24.84 31.6315 24.49 31.9115 24.17C32.2115 23.83 32.4815 23.52 32.7215 23.24C32.9615 22.94 33.0815 22.65 33.0815 22.37C33.0815 22.17 32.9915 22.07 32.8115 22.07C32.0915 22.07 31.3715 22.29 30.6515 22.73C29.9315 23.15 29.2315 23.62 28.5515 24.14C27.8915 24.66 27.2515 25.14 26.6315 25.58C26.0315 26 25.4615 26.21 24.9215 26.21C24.6215 26.21 24.3415 26.14 24.0815 26C23.8215 25.84 23.5915 25.65 23.3915 25.43C23.1915 25.19 23.0315 24.93 22.9115 24.65C22.7915 24.37 22.7315 24.09 22.7315 23.81C22.7315 23.47 22.9615 23.1 23.4215 22.7C23.9015 22.3 24.4515 21.91 25.0715 21.53C25.6915 21.13 26.3115 20.77 26.9315 20.45C27.5515 20.13 28.0015 19.89 28.2815 19.73C28.8015 19.43 29.2815 19.09 29.7215 18.71C30.1815 18.31 30.6315 17.9 31.0715 17.48C31.9115 16.7 32.7615 15.91 33.6215 15.11C34.4815 14.29 35.2515 13.41 35.9315 12.47C36.0715 12.29 36.1915 12.1 36.2915 11.9C36.4115 11.68 36.4715 11.45 36.4715 11.21C36.4715 11.01 36.3815 10.91 36.2015 10.91C35.6815 10.91 35.1815 11.08 34.7015 11.42C34.2415 11.74 33.7715 12.1 33.2915 12.5C32.8115 12.88 32.3115 13.23 31.7915 13.55C31.2915 13.87 30.7415 14.03 30.1415 14.03C29.7215 14.03 29.3215 13.92 28.9415 13.7C28.5815 13.48 28.2615 13.2 27.9815 12.86C27.7215 12.5 27.5115 12.12 27.3515 11.72C27.2115 11.3 27.1415 10.89 27.1415 10.49C27.1415 10.37 27.1415 10.21 27.1415 10.01C27.1615 9.81 27.1915 9.62 27.2315 9.44C27.2915 9.24 27.3615 9.07 27.4415 8.93C27.5215 8.77 27.6315 8.68 27.7715 8.66C27.9115 8.64 28.0415 8.73 28.1615 8.93C28.2815 9.11 28.4215 9.31 28.5815 9.53C28.7415 9.75 28.9315 9.96 29.1515 10.16C29.3915 10.34 29.6915 10.43 30.0515 10.43C30.7315 10.43 31.3815 10.32 32.0015 10.1C32.6215 9.88 33.2315 9.65 33.8315 9.41C34.4515 9.15 35.0715 8.91 35.6915 8.69C36.3115 8.47 36.9615 8.36 37.6415 8.36C38.0215 8.36 38.4415 8.46 38.9015 8.66C39.3815 8.84 39.8115 9.09 40.1915 9.41C40.5915 9.73 40.9215 10.09 41.1815 10.49C41.4615 10.89 41.6015 11.3 41.6015 11.72C41.6015 12.06 41.3215 12.46 40.7615 12.92C40.2215 13.36 39.5415 13.83 38.7215 14.33C37.9015 14.83 37.0115 15.35 36.0515 15.89C35.0915 16.41 34.2015 16.93 33.3815 17.45C32.5615 17.97 31.8715 18.47 31.3115 18.95C30.7715 19.43 30.5015 19.86 30.5015 20.24C30.5015 20.44 30.5915 20.54 30.7715 20.54C31.7915 20.54 32.7715 20.39 33.7115 20.09C34.6515 19.77 35.5815 19.43 36.5015 19.07C37.4415 18.69 38.3815 18.35 39.3215 18.05C40.2615 17.73 41.2415 17.57 42.2615 17.57C42.6215 17.57 43.0215 17.59 43.4615 17.63C43.9215 17.67 44.3515 17.77 44.7515 17.93C45.1715 18.07 45.5115 18.29 45.7715 18.59C46.0515 18.87 46.1915 19.25 46.1915 19.73C46.1915 20.23 46.0315 20.54 45.7115 20.66C45.3915 20.78 45.0315 20.84 44.6315 20.84C43.9715 20.84 43.2115 20.84 42.3515 20.84C41.4915 20.84 40.6115 20.88 39.7115 20.96C38.8315 21.04 37.9615 21.19 37.1015 21.41C36.2415 21.61 35.4715 21.91 34.7915 22.31C34.1115 22.71 33.5615 23.24 33.1415 23.9C32.7415 24.54 32.5415 25.34 32.5415 26.3C32.5415 27.02 32.6715 27.6 32.9315 28.04C33.2115 28.46 33.5715 28.79 34.0115 29.03C34.4515 29.25 34.9515 29.41 35.5115 29.51C36.0915 29.59 36.6715 29.66 37.2515 29.72C37.8515 29.76 38.4315 29.81 38.9915 29.87C39.5715 29.91 40.0815 30.01 40.5215 30.17C40.9615 30.33 41.3115 30.57 41.5715 30.89C41.8515 31.21 41.9915 31.65 41.9915 32.21C41.9915 32.69 41.8815 33.04 41.6615 33.26C41.4615 33.5 41.1915 33.66 40.8515 33.74C40.5315 33.82 40.1815 33.85 39.8015 33.83C39.4215 33.83 39.0715 33.83 38.7515 33.83C38.0915 33.83 37.3015 33.76 36.3815 33.62C35.4615 33.48 34.5815 33.24 33.7415 32.9C32.9215 32.58 32.2215 32.14 31.6415 31.58C31.0615 31 30.7715 30.27 30.7715 29.39V26.39ZM64.0415 32.3C64.0615 32.24 64.1215 32.18 64.2215 32.12C65.1415 31.58 66.0015 31.1 66.8015 30.68C67.6215 30.26 68.3615 29.84 69.0215 29.42C69.6815 29 70.2715 28.56 70.7915 28.1C71.3115 27.62 71.7515 27.06 72.1115 26.42C72.4715 25.76 72.7415 24.99 72.9215 24.11C73.1015 23.23 73.1915 22.16 73.1915 20.9C73.1915 20.06 73.1115 19.22 72.9515 18.38C72.7915 17.54 72.5315 16.74 72.1715 15.98C71.8115 15.2 71.3515 14.5 70.7915 13.88C70.2315 13.26 69.5515 12.75 68.7515 12.35C68.0915 12.01 67.4515 11.8 66.8315 11.72C66.2315 11.64 65.5715 11.6 64.8515 11.6C64.7915 11.6 64.7015 11.6 64.5815 11.6C64.4815 11.58 64.3715 11.57 64.2515 11.57C64.1315 11.57 64.0215 11.59 63.9215 11.63C63.8415 11.67 63.7915 11.73 63.7715 11.81C63.7315 12.01 63.8115 12.26 64.0115 12.56C64.2315 12.86 64.4715 13.21 64.7315 13.61C64.9915 13.99 65.2315 14.41 65.4515 14.87C65.6715 15.31 65.7815 15.78 65.7815 16.28C65.7815 17.04 65.6815 17.92 65.4815 18.92C65.2815 19.9 64.9815 20.92 64.5815 21.98C64.2015 23.02 63.7315 24.05 63.1715 25.07C62.6315 26.09 62.0215 27 61.3415 27.8C60.6615 28.58 59.9115 29.22 59.0915 29.72C58.2715 30.2 57.4115 30.44 56.5115 30.44C55.6715 30.44 54.9515 30.17 54.3515 29.63C53.7515 29.07 53.2615 28.4 52.8815 27.62C52.5015 26.82 52.2215 25.98 52.0415 25.1C51.8615 24.2 51.7715 23.42 51.7715 22.76C51.7715 20.96 52.1615 19.31 52.9415 17.81C53.7215 16.31 54.7515 15.03 56.0315 13.97C57.3115 12.89 58.7715 12.06 60.4115 11.48C62.0515 10.88 63.7215 10.58 65.4215 10.58C67.0215 10.58 68.5415 10.86 69.9815 11.42C71.4415 11.96 72.7115 12.73 73.7915 13.73C74.8915 14.71 75.7615 15.89 76.4015 17.27C77.0615 18.63 77.3915 20.14 77.3915 21.8C77.3915 23.48 77.0215 24.98 76.2815 26.3C75.5615 27.62 74.6115 28.74 73.4315 29.66C72.2515 30.56 70.9115 31.25 69.4115 31.73C67.9115 32.19 66.3915 32.42 64.8515 32.42C64.6915 32.42 64.5515 32.42 64.4315 32.42C64.3115 32.44 64.1815 32.4 64.0415 32.3ZM54.5615 21.5C54.5615 21.84 54.5915 22.27 54.6515 22.79C54.7315 23.29 54.8515 23.78 55.0115 24.26C55.1915 24.74 55.4315 25.15 55.7315 25.49C56.0315 25.83 56.4115 26 56.8715 26C57.4315 26 57.9815 25.79 58.5215 25.37C59.0615 24.93 59.5715 24.37 60.0515 23.69C60.5315 22.99 60.9715 22.22 61.3715 21.38C61.7915 20.52 62.1415 19.67 62.4215 18.83C62.7215 17.99 62.9515 17.2 63.1115 16.46C63.2915 15.72 63.3815 15.12 63.3815 14.66C63.3815 14.48 63.3615 14.24 63.3215 13.94C63.3015 13.64 63.2415 13.35 63.1415 13.07C63.0615 12.77 62.9415 12.52 62.7815 12.32C62.6215 12.1 62.4215 11.99 62.1815 11.99C61.5015 11.99 60.8315 12.14 60.1715 12.44C59.5315 12.74 58.9315 13.14 58.3715 13.64C57.8115 14.14 57.2915 14.71 56.8115 15.35C56.3515 15.99 55.9515 16.67 55.6115 17.39C55.2715 18.09 55.0115 18.8 54.8315 19.52C54.6515 20.22 54.5615 20.88 54.5615 21.5ZM95.9015 6.89C95.9015 6.69 96.0015 6.59 96.2015 6.59C96.8815 6.59 97.5515 6.64 98.2115 6.74C98.8715 6.84 99.5315 6.96 100.191 7.1C100.271 7.12 100.341 7.14 100.401 7.16C100.461 7.18 100.491 7.24 100.491 7.34C100.491 7.48 100.401 7.61 100.221 7.73C100.041 7.83 99.9515 7.96 99.9515 8.12C99.9515 8.56 99.9415 8.99 99.9215 9.41C99.9015 9.83 99.8915 10.26 99.8915 10.7C99.8915 12.16 99.9115 13.66 99.9515 15.2C100.011 16.72 100.171 18.22 100.431 19.7C100.691 21.18 101.101 22.61 101.661 23.99C102.241 25.35 103.051 26.6 104.091 27.74C104.151 27.8 104.251 27.92 104.391 28.1C104.551 28.26 104.721 28.42 104.901 28.58C105.081 28.74 105.251 28.89 105.411 29.03C105.571 29.15 105.691 29.21 105.771 29.21C106.091 29.21 106.361 29.06 106.581 28.76C106.821 28.44 107.021 28.09 107.181 27.71C107.361 27.33 107.511 26.99 107.631 26.69C107.771 26.37 107.901 26.21 108.021 26.21C108.081 26.21 108.121 26.25 108.141 26.33C108.161 26.41 108.171 26.47 108.171 26.51C108.171 27.15 108.101 27.77 107.961 28.37C107.821 28.97 107.751 29.59 107.751 30.23C107.751 30.47 107.791 30.71 107.871 30.95C107.971 31.17 108.071 31.4 108.171 31.64C108.271 31.86 108.361 32.08 108.441 32.3C108.541 32.54 108.591 32.79 108.591 33.05C108.591 33.71 108.421 34.13 108.081 34.31C107.761 34.51 107.311 34.61 106.731 34.61C105.531 34.61 104.451 34.3 103.491 33.68C102.551 33.08 101.711 32.27 100.971 31.25C100.251 30.21 99.6215 29.01 99.0815 27.65C98.5415 26.27 98.0815 24.82 97.7015 23.3C97.3415 21.78 97.0415 20.23 96.8015 18.65C96.5615 17.07 96.3715 15.55 96.2315 14.09C96.1115 12.63 96.0215 11.28 95.9615 10.04C95.9215 8.78 95.9015 7.73 95.9015 6.89ZM100.971 15.29C100.991 15.23 101.061 15.19 101.181 15.17C101.321 15.13 101.461 15.11 101.601 15.11C101.761 15.09 101.911 15.07 102.051 15.05C102.191 15.03 102.291 15.01 102.351 14.99C102.371 14.97 102.481 14.85 102.681 14.63C102.901 14.39 103.131 14.13 103.371 13.85C103.611 13.57 103.821 13.31 104.001 13.07C104.201 12.83 104.311 12.68 104.331 12.62C104.371 12.5 104.391 12.39 104.391 12.29C104.391 12.17 104.251 11.9 103.971 11.48C103.711 11.06 103.411 10.61 103.071 10.13C102.751 9.65 102.451 9.22 102.171 8.84C101.911 8.44 101.781 8.21 101.781 8.15C101.781 8.07 101.821 8.03 101.901 8.03C102.001 8.01 102.071 8 102.111 8C102.491 8 102.931 8.03 103.431 8.09C103.931 8.13 104.401 8.24 104.841 8.42C105.301 8.58 105.681 8.82 105.981 9.14C106.281 9.44 106.431 9.85 106.431 10.37C106.431 10.69 106.341 10.96 106.161 11.18C106.001 11.4 105.821 11.6 105.621 11.78C105.441 11.94 105.261 12.09 105.081 12.23C104.921 12.35 104.841 12.48 104.841 12.62C104.841 12.8 105.021 12.99 105.381 13.19C105.761 13.37 106.171 13.57 106.611 13.79C107.051 13.99 107.451 14.21 107.811 14.45C108.191 14.69 108.381 14.95 108.381 15.23C108.381 15.29 108.341 15.34 108.261 15.38C108.201 15.4 108.151 15.41 108.111 15.41H101.421C101.341 15.41 101.261 15.41 101.181 15.41C101.101 15.39 101.031 15.35 100.971 15.29ZM89.6615 10.61C89.7415 10.53 89.8915 10.36 90.1115 10.1C90.3315 9.82 90.5615 9.54 90.8015 9.26C91.0415 8.98 91.2615 8.73 91.4615 8.51C91.6615 8.27 91.7915 8.15 91.8515 8.15C91.8715 8.15 92.0415 8.27 92.3615 8.51C92.7015 8.75 93.0615 9.03 93.4415 9.35C93.8215 9.65 94.1715 9.94 94.4915 10.22C94.8315 10.48 95.0215 10.64 95.0615 10.7C95.1215 10.8 95.1215 10.88 95.0615 10.94C95.0015 10.98 94.9215 11 94.8215 11H83.7215C83.6215 11 83.5715 10.95 83.5715 10.85C83.5715 10.75 83.6215 10.7 83.7215 10.7H89.4515L89.6615 10.61ZM95.5115 15.38C95.4915 15.4 95.4615 15.41 95.4215 15.41L81.2915 15.59C81.2715 15.59 81.2315 15.58 81.1715 15.56C81.1315 15.54 81.1015 15.53 81.0815 15.53C81.0415 15.49 81.0215 15.45 81.0215 15.41C81.0215 15.37 81.0415 15.33 81.0815 15.29L81.2915 15.2H95.2415L95.4515 15.29L95.5115 15.38ZM92.3615 19.28C92.4415 19.3 92.6015 19.41 92.8415 19.61C93.1015 19.81 93.3815 20.04 93.6815 20.3C93.9815 20.54 94.2615 20.78 94.5215 21.02C94.8015 21.24 94.9915 21.39 95.0915 21.47C95.1715 21.53 95.3015 21.63 95.4815 21.77C95.6615 21.89 95.7215 22 95.6615 22.1L95.4515 22.19H82.5215C82.4215 22.19 82.3715 22.14 82.3715 22.04C82.3715 21.94 82.4215 21.89 82.5215 21.89H90.0215C90.1015 21.89 90.2415 21.78 90.4415 21.56C90.6615 21.32 90.8815 21.06 91.1015 20.78C91.3415 20.48 91.5615 20.19 91.7615 19.91C91.9815 19.63 92.1315 19.44 92.2115 19.34L92.3615 19.28ZM95.6915 27.53C95.1915 27.83 94.6915 28.13 94.1915 28.43C93.6915 28.71 93.1815 28.98 92.6615 29.24C91.1615 29.96 89.6515 30.65 88.1315 31.31C86.6115 31.97 85.1615 32.78 83.7815 33.74L83.6315 33.77C83.5515 33.69 83.3915 33.48 83.1515 33.14C82.9115 32.82 82.6615 32.46 82.4015 32.06C82.1615 31.68 81.9415 31.33 81.7415 31.01C81.5615 30.67 81.4715 30.46 81.4715 30.38C81.4715 30.24 81.5515 30.15 81.7115 30.11C82.0115 30.03 82.3115 29.97 82.6115 29.93C82.9115 29.87 83.2115 29.81 83.5115 29.75L87.8315 28.85C88.6715 28.67 89.5115 28.5 90.3515 28.34C91.2115 28.16 92.0615 27.99 92.9015 27.83C93.3615 27.73 93.8115 27.64 94.2515 27.56C94.6915 27.46 95.1515 27.41 95.6315 27.41L95.6915 27.53ZM112.341 29.9C112.341 29.34 112.461 28.88 112.701 28.52C112.941 28.14 113.241 27.86 113.601 27.68C113.961 27.48 114.351 27.38 114.771 27.38C115.191 27.38 115.581 27.48 115.941 27.68C116.301 27.86 116.601 28.14 116.841 28.52C117.081 28.88 117.201 29.34 117.201 29.9C117.201 30.24 117.151 30.56 117.051 30.86C116.971 31.16 116.801 31.42 116.541 31.64C116.321 31.84 116.051 31.99 115.731 32.09C115.411 32.19 115.081 32.24 114.741 32.24C114.421 32.24 114.101 32.19 113.781 32.09C113.481 31.99 113.221 31.84 113.001 31.64C112.741 31.42 112.561 31.16 112.461 30.86C112.381 30.56 112.341 30.24 112.341 29.9Z" fill="url(#paint0_linear_134_3225)"/>
<path d="M212.095 102.375C212.095 101.652 213.025 100.05 214.885 97.57C216.745 95.09 218.76 92.3 220.93 89.2C223.203 85.9967 225.218 82.7417 226.975 79.435C228.835 76.025 229.765 73.1317 229.765 70.755C229.765 69.6183 229.61 68.7917 229.3 68.275C229.093 67.7583 228.37 67.5 227.13 67.5C223.823 67.5 220.723 68.1717 217.83 69.515C214.937 70.755 211.992 71.84 208.995 72.77C207.755 73.1833 206.308 73.545 204.655 73.855C203.105 74.165 201.503 74.5783 199.85 75.095C198.3 75.5083 196.802 76.025 195.355 76.645C193.908 77.265 192.72 78.04 191.79 78.97C190.963 79.9 190.395 80.7267 190.085 81.45C189.775 82.07 189.517 82.9483 189.31 84.085C188.483 88.425 188.07 93.1267 188.07 98.19C188.173 103.15 188.225 107.852 188.225 112.295C188.225 114.155 188.328 116.015 188.535 117.875C188.742 119.735 189.207 121.388 189.93 122.835C190.757 124.282 191.842 125.47 193.185 126.4C194.632 127.227 196.543 127.64 198.92 127.64C202.743 127.64 206.515 127.537 210.235 127.33C214.058 127.123 217.83 126.658 221.55 125.935C222.79 125.728 224.392 125.47 226.355 125.16C228.422 124.85 230.592 124.643 232.865 124.54C235.242 124.333 237.567 124.282 239.84 124.385C242.217 124.488 244.335 124.85 246.195 125.47C248.055 126.09 249.553 127.02 250.69 128.26C251.93 129.5 252.55 131.153 252.55 133.22C252.55 135.183 251.723 136.837 250.07 138.18C248.52 139.523 246.505 140.66 244.025 141.59C241.545 142.417 238.755 143.088 235.655 143.605C232.658 144.018 229.662 144.328 226.665 144.535C223.772 144.845 221.085 145 218.605 145C216.125 145.103 214.213 145.155 212.87 145.155C209.77 145.155 205.947 145.052 201.4 144.845C196.957 144.638 192.617 144.018 188.38 142.985C184.247 141.848 180.682 140.092 177.685 137.715C174.792 135.338 173.345 131.928 173.345 127.485V89.045C173.345 88.115 172.828 87.65 171.795 87.65C170.038 87.65 168.23 88.27 166.37 89.51C164.51 90.6467 162.598 91.9383 160.635 93.385C158.672 94.7283 156.605 95.9683 154.435 97.105C152.265 98.2417 149.94 98.81 147.46 98.81C144.567 98.81 141.88 98.0867 139.4 96.64C136.92 95.1933 134.75 93.3333 132.89 91.06C131.03 88.7867 129.583 86.255 128.55 83.465C127.517 80.5717 127 77.7817 127 75.095C127 74.165 127.517 73.7 128.55 73.7C129.273 73.7 130.1 74.01 131.03 74.63C131.96 75.1467 132.942 75.7667 133.975 76.49C135.112 77.11 136.3 77.73 137.54 78.35C138.78 78.8667 140.072 79.125 141.415 79.125C142.345 79.125 144.412 78.8667 147.615 78.35C150.922 77.8333 154.332 77.2133 157.845 76.49C161.462 75.6633 164.717 74.8883 167.61 74.165C170.503 73.3383 172.105 72.6667 172.415 72.15C172.518 71.9433 172.622 71.1167 172.725 69.67C172.828 68.2233 172.88 66.4667 172.88 64.4C172.88 62.23 172.88 59.905 172.88 57.425C172.88 54.945 172.828 52.5683 172.725 50.295C172.725 48.0217 172.725 46.0583 172.725 44.405C172.725 42.6483 172.725 41.4083 172.725 40.685C172.725 38.7217 172.105 37.2233 170.865 36.19C169.625 35.0533 168.282 34.175 166.835 33.555C165.388 32.8317 164.045 32.2117 162.805 31.695C161.565 31.1783 160.945 30.5067 160.945 29.68C160.945 28.8533 161.823 28.13 163.58 27.51C165.337 26.7867 167.558 26.27 170.245 25.96C172.932 25.5467 175.773 25.3917 178.77 25.495C181.87 25.5983 184.763 26.0633 187.45 26.89C190.137 27.7167 192.358 29.0083 194.115 30.765C195.872 32.4183 196.75 34.64 196.75 37.43C196.75 39.8067 196.388 42.1317 195.665 44.405C195.045 46.6783 194.322 48.9517 193.495 51.225C192.668 53.395 191.893 55.6167 191.17 57.89C190.55 60.1633 190.24 62.4883 190.24 64.865C190.24 65.795 190.395 66.5183 190.705 67.035C191.015 67.5517 191.687 67.81 192.72 67.81C196.13 67.81 199.695 66.9833 203.415 65.33C207.238 63.6767 211.062 61.8683 214.885 59.905C218.708 57.9417 222.48 56.1333 226.2 54.48C230.023 52.8267 233.743 52 237.36 52C239.117 52 241.235 52.62 243.715 53.86C246.298 55.1 248.727 56.65 251 58.51C253.377 60.37 255.392 62.4367 257.045 64.71C258.698 66.88 259.525 68.895 259.525 70.755C259.525 71.4783 258.492 72.77 256.425 74.63C254.462 76.3867 251.93 78.4017 248.83 80.675C245.73 82.9483 242.268 85.325 238.445 87.805C234.725 90.285 231.108 92.61 227.595 94.78C224.185 96.95 221.085 98.81 218.295 100.36C215.608 101.807 213.748 102.633 212.715 102.84L212.095 102.375Z" fill="#F4F4F4"/>
<path d="M316.41 26.735C316.513 25.805 317.185 25.03 318.425 24.41C319.665 23.6867 321.06 23.0667 322.61 22.55C324.263 22.0333 325.865 21.6717 327.415 21.465C328.965 21.155 330.102 21 330.825 21C332.375 21 334.235 21.2067 336.405 21.62C338.678 21.93 340.848 22.4983 342.915 23.325C345.085 24.1517 346.893 25.2883 348.34 26.735C349.787 28.0783 350.51 29.7317 350.51 31.695C350.51 33.1417 350.303 34.5367 349.89 35.88C349.58 37.2233 349.425 38.6183 349.425 40.065C349.425 43.475 349.787 46.6267 350.51 49.52C350.717 50.0367 350.872 50.45 350.975 50.76C351.078 50.9667 351.44 51.07 352.06 51.07C354.23 51.07 356.297 50.6567 358.26 49.83C360.223 48.9 362.135 47.9183 363.995 46.885C365.958 45.8517 367.922 44.9217 369.885 44.095C371.848 43.165 373.915 42.7 376.085 42.7C377.222 42.7 378.668 42.855 380.425 43.165C382.182 43.475 383.887 43.9917 385.54 44.715C387.297 45.4383 388.795 46.3167 390.035 47.35C391.275 48.3833 391.895 49.6233 391.895 51.07C391.895 52.2067 391.74 53.1367 391.43 53.86C391.12 54.48 390.552 55.2033 389.725 56.03C389.002 56.65 387.297 57.3733 384.61 58.2C382.027 58.9233 379.133 59.6467 375.93 60.37C372.83 61.0933 369.833 61.7133 366.94 62.23C364.047 62.7467 361.98 63.1083 360.74 63.315C359.81 63.5217 358.828 63.6767 357.795 63.78C356.762 63.8833 355.832 64.09 355.005 64.4C354.178 64.71 353.662 65.3817 353.455 66.415C353.248 67.1383 353.403 68.6367 353.92 70.91C354.437 73.1833 355.057 75.56 355.78 78.04C356.503 80.4167 357.278 82.5867 358.105 84.55C358.932 86.41 359.603 87.34 360.12 87.34C363.323 87.34 366.475 86.7717 369.575 85.635C372.675 84.395 375.775 83.0517 378.875 81.605C381.975 80.1583 385.127 78.8667 388.33 77.73C391.637 76.49 395.047 75.87 398.56 75.87C399.903 75.87 401.505 76.025 403.365 76.335C405.328 76.645 407.188 77.1617 408.945 77.885C410.805 78.6083 412.355 79.59 413.595 80.83C414.938 81.9667 415.61 83.4133 415.61 85.17C415.61 87.65 414.267 89.5617 411.58 90.905C408.997 92.145 405.69 93.075 401.66 93.695C397.63 94.315 393.29 94.78 388.64 95.09C384.093 95.2967 379.805 95.6067 375.775 96.02C371.745 96.33 368.387 96.8467 365.7 97.57C363.117 98.2933 361.825 99.4817 361.825 101.135C361.825 104.958 362.342 108.678 363.375 112.295C364.512 115.912 365.7 119.528 366.94 123.145C368.283 126.658 369.472 130.223 370.505 133.84C371.642 137.353 372.21 140.97 372.21 144.69C372.21 147.273 371.332 149.185 369.575 150.425C367.922 151.768 365.907 152.44 363.53 152.44C361.257 152.44 359.242 151.665 357.485 150.115C355.832 148.565 354.437 146.55 353.3 144.07C352.163 141.487 351.182 138.697 350.355 135.7C349.632 132.6 349.063 129.552 348.65 126.555C348.237 123.455 347.875 120.613 347.565 118.03C347.358 115.343 347.203 113.173 347.1 111.52C347.1 111.21 347.048 110.693 346.945 109.97C346.945 109.247 346.842 108.523 346.635 107.8C346.532 106.973 346.325 106.302 346.015 105.785C345.705 105.165 345.343 104.855 344.93 104.855C340.9 104.855 337.283 105.682 334.08 107.335C330.877 108.885 327.777 110.642 324.78 112.605C321.887 114.465 318.89 116.222 315.79 117.875C312.793 119.425 309.487 120.2 305.87 120.2C303.7 120.2 301.427 119.787 299.05 118.96C296.777 118.03 294.71 116.79 292.85 115.24C290.99 113.69 289.44 111.933 288.2 109.97C286.96 107.903 286.34 105.682 286.34 103.305C286.34 102.272 286.547 101.548 286.96 101.135C288.407 101.342 289.802 101.703 291.145 102.22C292.592 102.737 294.038 102.995 295.485 102.995C296.622 102.995 297.655 102.995 298.585 102.995C299.618 102.995 300.703 102.892 301.84 102.685C302.46 102.582 303.855 102.272 306.025 101.755C308.298 101.238 310.933 100.618 313.93 99.895C316.927 99.0683 320.078 98.2417 323.385 97.415C326.795 96.485 329.895 95.6583 332.685 94.935C335.578 94.1083 337.955 93.4367 339.815 92.92C341.675 92.4033 342.605 92.145 342.605 92.145C343.018 91.6283 343.225 91.0083 343.225 90.285C343.225 89.5617 343.018 88.0633 342.605 85.79C342.192 83.5167 341.675 81.1917 341.055 78.815C340.435 76.4383 339.712 74.32 338.885 72.46C338.162 70.4967 337.438 69.515 336.715 69.515C334.338 69.515 332.065 69.98 329.895 70.91C327.725 71.84 325.555 72.8733 323.385 74.01C321.215 75.0433 319.045 76.025 316.875 76.955C314.705 77.7817 312.432 78.195 310.055 78.195C308.505 78.195 306.748 77.73 304.785 76.8C302.925 75.87 301.168 74.6817 299.515 73.235C297.862 71.7883 296.467 70.1867 295.33 68.43C294.193 66.6733 293.625 64.9683 293.625 63.315C293.625 63.1083 293.677 62.85 293.78 62.54C293.883 62.1267 294.09 61.92 294.4 61.92C295.537 61.92 296.673 62.0233 297.81 62.23C299.05 62.4367 300.238 62.54 301.375 62.54C302.615 62.54 304.992 62.4367 308.505 62.23C312.122 61.92 315.842 61.455 319.665 60.835C323.488 60.215 326.847 59.3883 329.74 58.355C332.737 57.3217 334.235 56.0817 334.235 54.635C334.235 54.2217 334.08 53.55 333.77 52.62C333.563 51.69 333.305 50.7083 332.995 49.675C332.685 48.5383 332.323 47.505 331.91 46.575C331.6 45.645 331.393 44.9217 331.29 44.405C329.843 40.2717 328.087 36.9133 326.02 34.33C324.057 31.6433 321.008 29.37 316.875 27.51L316.41 26.735Z" fill="#F4F4F4"/>
<path d="M524.11 117.72C524.317 118.753 524.782 119.322 525.505 119.425C526.228 119.425 527.003 119.425 527.83 119.425C529.897 119.425 531.912 119.063 533.875 118.34C535.942 117.617 538.008 117.255 540.075 117.255C541.625 117.255 543.485 117.668 545.655 118.495C547.928 119.218 550.047 120.252 552.01 121.595C554.077 122.835 555.782 124.282 557.125 125.935C558.572 127.588 559.295 129.345 559.295 131.205C559.295 133.375 558.572 134.873 557.125 135.7C555.678 136.527 553.973 136.94 552.01 136.94C548.807 136.94 545.603 136.733 542.4 136.32C539.3 135.803 536.2 135.287 533.1 134.77C530 134.253 526.848 133.788 523.645 133.375C520.545 132.858 517.393 132.6 514.19 132.6C510.16 132.6 506.233 133.065 502.41 133.995C498.587 134.822 494.763 135.752 490.94 136.785C487.22 137.818 483.448 138.8 479.625 139.73C475.802 140.557 471.875 140.97 467.845 140.97C465.985 140.97 464.125 140.402 462.265 139.265C460.508 138.128 458.907 136.682 457.46 134.925C456.013 133.168 454.825 131.308 453.895 129.345C453.068 127.278 452.655 125.367 452.655 123.61C452.655 122.577 453.12 122.06 454.05 122.06C456.53 122.06 458.958 122.473 461.335 123.3C463.815 124.127 466.295 124.54 468.775 124.54C469.602 124.54 471.048 124.54 473.115 124.54C475.182 124.437 477.507 124.333 480.09 124.23C482.673 124.127 485.412 124.023 488.305 123.92C491.198 123.817 493.833 123.662 496.21 123.455C498.69 123.248 500.808 123.042 502.565 122.835C504.322 122.628 505.407 122.422 505.82 122.215C506.853 121.595 507.732 120.355 508.455 118.495C509.178 116.635 509.798 114.465 510.315 111.985C510.832 109.505 511.245 106.818 511.555 103.925C511.865 101.032 512.123 98.2417 512.33 95.555C512.537 92.765 512.64 90.285 512.64 88.115C512.743 85.8417 512.795 84.085 512.795 82.845C512.795 82.1217 512.382 81.6567 511.555 81.45C510.832 81.14 510.212 80.985 509.695 80.985C507.422 80.985 505.252 81.3983 503.185 82.225C501.118 82.9483 499.052 83.775 496.985 84.705C494.918 85.635 492.8 86.5133 490.63 87.34C488.563 88.0633 486.445 88.425 484.275 88.425C482.518 88.425 480.813 87.8567 479.16 86.72C477.507 85.5833 476.008 84.1883 474.665 82.535C473.425 80.8817 472.392 79.125 471.565 77.265C470.738 75.3017 470.325 73.545 470.325 71.995C470.325 70.6517 471.048 70.135 472.495 70.445C473.012 70.6517 473.425 70.8067 473.735 70.91C474.148 71.0133 474.613 71.1683 475.13 71.375C478.333 72.4083 481.847 72.925 485.67 72.925C488.563 72.925 491.405 72.615 494.195 71.995C496.985 71.2717 499.723 70.4967 502.41 69.67C505.2 68.8433 507.99 68.12 510.78 67.5C513.57 66.7767 516.412 66.415 519.305 66.415C520.855 66.415 522.767 66.725 525.04 67.345C527.313 67.965 529.535 68.8433 531.705 69.98C533.875 71.0133 535.735 72.305 537.285 73.855C538.835 75.405 539.61 77.11 539.61 78.97C539.61 80.0033 539.352 80.985 538.835 81.915C538.318 82.7417 537.698 83.5683 536.975 84.395C536.252 85.1183 535.528 85.8933 534.805 86.72C534.185 87.5467 533.72 88.425 533.41 89.355L524.265 117.255L524.11 117.72Z" fill="#F4F4F4"/>
<path d="M608.895 150.89L609.36 149.96C612.15 147.583 615.25 144.742 618.66 141.435C622.07 138.128 625.532 134.512 629.045 130.585C632.558 126.555 635.968 122.37 639.275 118.03C642.582 113.69 645.475 109.298 647.955 104.855C650.538 100.412 652.605 96.0717 654.155 91.835C655.705 87.495 656.48 83.4133 656.48 79.59C656.48 77.11 656.015 75.1983 655.085 73.855C654.155 72.5117 653.122 71.4783 651.985 70.755C650.952 69.9283 649.97 69.3083 649.04 68.895C648.11 68.4817 647.645 67.965 647.645 67.345C647.645 66.9317 647.955 66.57 648.575 66.26C649.195 65.95 649.918 65.7433 650.745 65.64C651.572 65.4333 652.347 65.33 653.07 65.33C653.897 65.2267 654.465 65.175 654.775 65.175C656.532 65.175 658.237 65.3817 659.89 65.795C661.647 66.105 663.352 66.5183 665.005 67.035C666.762 67.4483 668.518 67.8617 670.275 68.275C672.032 68.585 673.788 68.74 675.545 68.74C676.888 68.74 678.542 67.7583 680.505 65.795C682.572 63.8317 684.587 61.5583 686.55 58.975C688.513 56.3917 690.167 53.8083 691.51 51.225C692.957 48.5383 693.68 46.575 693.68 45.335C693.68 43.475 692.957 42.4417 691.51 42.235C690.167 41.925 688.823 41.77 687.48 41.77C685.517 41.77 682.933 41.9767 679.73 42.39C676.527 42.8033 673.065 43.3717 669.345 44.095C665.625 44.715 661.75 45.49 657.72 46.42C653.69 47.35 649.867 48.3317 646.25 49.365C642.633 50.3983 639.327 51.4833 636.33 52.62C633.437 53.6533 631.163 54.6867 629.51 55.72C628.063 56.65 626.513 57.6833 624.86 58.82C623.31 59.8533 621.605 60.37 619.745 60.37C616.955 60.37 614.372 59.6467 611.995 58.2C609.722 56.7533 607.707 54.8933 605.95 52.62C604.297 50.3467 602.953 47.8667 601.92 45.18C600.99 42.39 600.525 39.755 600.525 37.275C600.525 36.5517 600.577 35.9317 600.68 35.415C600.887 34.795 601.455 34.485 602.385 34.485C603.728 34.485 604.968 34.7433 606.105 35.26C607.345 35.6733 608.533 36.1383 609.67 36.655C610.807 37.1717 611.943 37.6883 613.08 38.205C614.32 38.6183 615.612 38.825 616.955 38.825C627.908 38.825 639.017 38.3083 650.28 37.275C661.543 36.1383 672.548 34.5367 683.295 32.47C686.395 31.85 689.443 31.0233 692.44 29.99C695.54 28.8533 698.692 28.285 701.895 28.285C704.168 28.285 706.597 29.0083 709.18 30.455C711.867 31.9017 714.347 33.7617 716.62 36.035C718.893 38.205 720.805 40.5817 722.355 43.165C723.905 45.7483 724.68 48.1767 724.68 50.45C724.68 51.5867 723.802 52.8267 722.045 54.17C720.392 55.5133 718.273 56.9083 715.69 58.355C713.107 59.6983 710.213 61.0933 707.01 62.54C703.91 63.8833 700.862 65.175 697.865 66.415C694.868 67.5517 692.13 68.585 689.65 69.515C687.273 70.445 685.568 71.1167 684.535 71.53C684.432 71.53 684.328 71.5817 684.225 71.685C684.122 71.7883 684.018 71.84 683.915 71.84C682.572 72.8733 681.28 74.5783 680.04 76.955C678.8 79.3317 677.56 81.915 676.32 84.705C675.183 87.495 674.047 90.285 672.91 93.075C671.877 95.7617 670.843 97.9317 669.81 99.585C668.363 102.065 666.245 105.062 663.455 108.575C660.768 111.985 657.668 115.602 654.155 119.425C650.642 123.145 646.87 126.917 642.84 130.74C638.81 134.46 634.78 137.818 630.75 140.815C626.823 143.812 623 146.292 619.28 148.255C615.663 150.218 612.408 151.252 609.515 151.355L608.895 150.89Z" fill="#F4F4F4"/>
<path d="M693.245 120.595L688.415 120.105C688.345 121.925 687.96 124.025 687.47 125.95C686.385 126.055 685.335 126.09 684.285 126.09C682.99 126.09 681.135 126.02 679.63 125.845L679.945 129.905C681.45 130.01 682.885 130.045 684.32 130.045C684.915 130.045 685.51 130.045 686.14 130.01C684.6 133.79 681.765 138.935 679 142.365L683.235 144.535C686.07 140.58 689.045 134.455 690.725 129.555C693.07 129.205 695.24 128.75 696.85 128.33L696.71 124.27C695.345 124.69 693.7 125.075 691.985 125.39C692.51 123.5 692.965 121.715 693.245 120.595ZM691.425 144.815C691.425 143.59 692.72 142.68 694.75 142.68C695.73 142.68 696.675 142.82 697.585 143.03C697.585 143.31 697.585 143.52 697.585 143.73C697.585 145.655 696.85 146.985 694.435 146.985C692.51 146.985 691.425 146.11 691.425 144.815ZM701.435 131.48H697.06C697.13 133.615 697.305 136.73 697.445 139.32C696.64 139.25 695.87 139.18 695.03 139.18C690.165 139.18 687.295 141.805 687.295 145.235C687.295 149.085 690.725 151.01 695.065 151.01C700.035 151.01 701.82 148.49 701.82 145.235C701.82 145.13 701.82 144.99 701.82 144.885C703.745 146.04 705.32 147.51 706.545 148.63L708.89 144.885C707.105 143.275 704.655 141.525 701.645 140.405C701.575 138.655 701.47 136.975 701.435 135.96C701.4 134.42 701.33 132.95 701.435 131.48ZM707.455 133.335L709.94 129.66C708.155 128.365 703.815 125.985 701.295 124.9L699.055 128.365C701.435 129.45 705.425 131.725 707.455 133.335Z" fill="#F4F4F4"/>
<path d="M737.905 133.3V132.145H740.495C742.35 132.145 743.575 132.18 744.345 132.25V127.595C743.4 127.77 742.35 127.84 740.495 127.84H737.905V124.165C737.905 122.765 738.045 121.61 738.15 120.91H733.145C733.25 121.61 733.355 122.765 733.355 124.165V127.84H725.06V124.375C725.06 123.01 725.165 121.89 725.27 121.225H720.3C720.405 122.275 720.51 123.36 720.51 124.375V127.84H717.535C715.785 127.84 714.35 127.63 713.755 127.525V132.285C714.525 132.215 715.785 132.145 717.535 132.145H720.51V136.905C720.51 138.48 720.405 139.88 720.3 140.58H725.2C725.165 139.88 725.06 138.445 725.06 136.905V132.145H733.355V133.475C733.355 142.085 730.38 145.095 723.625 147.44L727.37 150.975C735.805 147.265 737.905 141.98 737.905 133.3Z" fill="#F4F4F4"/>
<path d="M748.895 135.155L751.1 139.565C755.405 138.305 759.85 136.415 763.455 134.525V145.725C763.455 147.265 763.35 149.47 763.21 150.31H768.74C768.495 149.435 768.425 147.265 768.425 145.725V131.585C771.82 129.345 775.18 126.615 777.84 123.99L774.06 120.385C771.785 123.15 767.795 126.65 764.19 128.89C760.305 131.27 755.16 133.545 748.895 135.155Z" fill="#F4F4F4"/>
<path d="M792.715 145.41C792.715 146.81 792.575 148.91 792.365 150.31H797.825C797.685 148.875 797.51 146.425 797.51 145.41V135.505C801.29 136.8 806.54 138.83 810.145 140.72L812.14 135.89C808.92 134.315 802.2 131.83 797.51 130.465V125.285C797.51 123.85 797.685 122.31 797.825 121.085H792.365C792.61 122.31 792.715 124.06 792.715 125.285V145.41Z" fill="#F4F4F4"/>
<path d="M831.355 123.15H845.845V125.005H849.695V120.21H827.715V125.005H831.355V123.15ZM832.895 137.43V136.065H836.465V137.43H832.895ZM832.895 132.285H836.465V133.65H832.895V132.285ZM844.235 132.285V133.65H840.525V132.285H844.235ZM844.235 137.43H840.525V136.065H844.235V137.43ZM836.465 146.565H840.525V144.255H850.045V141.245H840.525V139.95H847.945V129.695H840.525V128.47H848.54V125.6H840.525V123.78H836.465V125.6H828.695V128.47H836.465V129.695H829.36V139.95H836.465V141.245H827.4V144.255H836.465V146.565ZM826.98 125.565C825.86 123.885 823.445 121.575 821.485 120L818.3 122.38C820.26 124.06 822.57 126.475 823.55 128.19L826.98 125.565ZM826.035 132.705H818.16V136.52H822.08V144.15C820.68 145.34 819.105 146.495 817.74 147.37L819.7 151.5C821.485 149.995 822.92 148.665 824.32 147.3C826.42 149.995 829.22 151.01 833.385 151.185C837.655 151.36 845.075 151.29 849.415 151.08C849.625 149.925 850.22 148 850.71 147.02C845.88 147.405 837.62 147.51 833.42 147.335C829.85 147.195 827.4 146.215 826.035 143.87V132.705Z" fill="#F4F4F4"/>
<path d="M871.675 137.675V133.37H879.06V137.675H871.675ZM860.79 137.675C860.86 136.38 860.895 135.12 860.895 134V133.37H867.475V137.675H860.79ZM867.475 125.425V129.485H860.895V125.425H867.475ZM879.06 129.485H871.675V125.425H879.06V129.485ZM883.19 121.47H856.765V133.965C856.765 138.865 856.45 145.095 852.635 149.295C853.58 149.785 855.26 151.22 855.925 151.99C858.445 149.26 859.705 145.41 860.335 141.595H867.475V151.36H871.675V141.595H879.06V146.845C879.06 147.475 878.815 147.685 878.15 147.685C877.52 147.685 875.21 147.72 873.25 147.615C873.775 148.7 874.44 150.485 874.58 151.605C877.73 151.64 879.865 151.57 881.3 150.87C882.7 150.24 883.19 149.12 883.19 146.88V121.47Z" fill="#F4F4F4"/>
<path d="M893.48 140.09C890.4 140.09 887.845 142.645 887.845 145.76C887.845 148.875 890.4 151.43 893.48 151.43C896.63 151.43 899.15 148.875 899.15 145.76C899.15 142.645 896.63 140.09 893.48 140.09ZM893.48 148.91C891.8 148.91 890.365 147.51 890.365 145.76C890.365 144.01 891.8 142.61 893.48 142.61C895.23 142.61 896.63 144.01 896.63 145.76C896.63 147.51 895.23 148.91 893.48 148.91Z" fill="#F4F4F4"/>
</g>
<defs>
<linearGradient id="paint0_linear_134_3225" x1="127.392" y1="21" x2="14.6369" y2="27.442" gradientUnits="userSpaceOnUse">
<stop stop-color="#292929"/>
<stop offset="0.491667" stop-color="#353349" stop-opacity="0.968944"/>
<stop offset="1" stop-color="#395185" stop-opacity="0.98"/>
</linearGradient>
<clipPath id="clip0_134_3225">
<rect width="920" height="167" rx="4" fill="white"/>
</clipPath>
</defs>
</svg>
