<svg width="860" height="310" viewBox="0 0 860 310" fill="none" xmlns="http://www.w3.org/2000/svg">
<rect x="5" y="5" width="850" height="300" fill="#F4F4F4"/>
<path d="M58 58C50.5765 58.0083 43.4594 60.961 38.2102 66.2102C32.961 71.4594 30.0083 78.5765 30 86C30.0126 93.4222 32.9667 100.537 38.215 105.785C43.4632 111.033 50.5778 113.987 58 114C65.4261 114 72.548 111.05 77.799 105.799C83.05 100.548 86 93.4261 86 86C86 78.5739 83.05 71.452 77.799 66.201C72.548 60.95 65.4261 58 58 58ZM75.0309 102.157C73.4582 98.9851 71.0306 96.3161 68.0217 94.4508C65.0129 92.5855 61.5427 91.5981 58.0026 91.6C54.4625 91.6019 50.9934 92.5931 47.9866 94.4617C44.9798 96.3302 42.555 99.0019 40.9858 102.175C36.7986 97.8331 34.4654 92.0321 34.48 86C34.48 79.7621 36.958 73.7797 41.3688 69.3688C45.7797 64.958 51.7621 62.48 58 62.48C64.2379 62.48 70.2203 64.958 74.6312 69.3688C79.042 73.7797 81.52 79.7621 81.52 86C81.534 92.0233 79.2072 97.8164 75.0309 102.157ZM58 69.2C56.0064 69.2 54.0575 69.7912 52.3999 70.8988C50.7422 72.0064 49.4502 73.5807 48.6873 75.4226C47.9244 77.2644 47.7247 79.2912 48.1137 81.2465C48.5026 83.2018 49.4627 84.9979 50.8724 86.4076C52.2821 87.8173 54.0782 88.7774 56.0335 89.1663C57.9888 89.5553 60.0156 89.3556 61.8574 88.5927C63.6993 87.8298 65.2736 86.5378 66.3812 84.8801C67.4888 83.2225 68.08 81.2736 68.08 79.28C68.08 77.9563 67.8193 76.6455 67.3127 75.4226C66.8061 74.1996 66.0637 73.0884 65.1276 72.1524C64.1916 71.2164 63.0804 70.4739 61.8574 69.9673C60.6345 69.4607 59.3237 69.2 58 69.2Z" fill="black"/>
<path d="M82.6667 110.5C82.6667 108.208 84.5417 106.333 86.8333 106.333H153.5C155.792 106.333 157.667 104.458 157.667 102.167C157.667 99.875 155.792 98 153.5 98H82.6667C78.0833 98 74.3333 101.75 74.3333 106.333V152.167H72.25C68.7917 152.167 66 154.958 66 158.417C66 161.875 68.7917 164.667 72.25 164.667H124.333V152.167H82.6667V110.5ZM161.833 114.667H136.833C134.542 114.667 132.667 116.542 132.667 118.833V160.5C132.667 162.792 134.542 164.667 136.833 164.667H161.833C164.125 164.667 166 162.792 166 160.5V118.833C166 116.542 164.125 114.667 161.833 114.667ZM157.667 152.167H141V123H157.667V152.167Z" fill="#121212"/>
<path d="M746 151.25C745.11 151.25 744.24 151.514 743.5 152.008C742.76 152.503 742.183 153.206 741.843 154.028C741.502 154.85 741.413 155.755 741.586 156.628C741.76 157.501 742.189 158.303 742.818 158.932C743.447 159.561 744.249 159.99 745.122 160.164C745.995 160.337 746.9 160.248 747.722 159.907C748.544 159.567 749.247 158.99 749.742 158.25C750.236 157.51 750.5 156.64 750.5 155.75C750.5 154.557 750.026 153.412 749.182 152.568C748.338 151.724 747.193 151.25 746 151.25V151.25ZM764 86C746 86 728 92.165 728 104V158C728 169.835 746 176 764 176C782 176 800 169.835 800 158V104C800 92.165 782 86 764 86ZM791 158C791 161.195 780.74 167 764 167C747.26 167 737 161.195 737 158V143.285C745.424 147.29 754.676 149.248 764 149C773.324 149.248 782.576 147.29 791 143.285V158ZM791 131C791 134.195 780.74 140 764 140C747.26 140 737 134.195 737 131V116.285C745.424 120.29 754.676 122.248 764 122C773.324 122.248 782.576 120.29 791 116.285V131ZM764 113C747.26 113 737 107.195 737 104C737 100.805 747.26 95 764 95C780.74 95 791 100.805 791 104C791 107.195 780.74 113 764 113ZM746 124.25C745.11 124.25 744.24 124.514 743.5 125.008C742.76 125.503 742.183 126.206 741.843 127.028C741.502 127.85 741.413 128.755 741.586 129.628C741.76 130.501 742.189 131.303 742.818 131.932C743.447 132.561 744.249 132.99 745.122 133.164C745.995 133.337 746.9 133.248 747.722 132.907C748.544 132.567 749.247 131.99 749.742 131.25C750.236 130.51 750.5 129.64 750.5 128.75C750.5 127.557 750.026 126.412 749.182 125.568C748.338 124.724 747.193 124.25 746 124.25V124.25Z" fill="black"/>
<path d="M318 219.121C317.973 218.881 317.92 218.645 317.843 218.416V218.181C317.718 217.913 317.55 217.666 317.347 217.45V217.45L301.681 201.783C301.465 201.58 301.218 201.413 300.949 201.287C300.872 201.276 300.792 201.276 300.714 201.287C300.449 201.135 300.156 201.037 299.853 201H289.278C287.2 201 285.208 201.825 283.739 203.294C282.27 204.763 281.444 206.756 281.444 208.833V211.444H278.833C276.756 211.444 274.763 212.27 273.294 213.739C271.825 215.208 271 217.2 271 219.278V245.389C271 247.466 271.825 249.459 273.294 250.928C274.763 252.397 276.756 253.222 278.833 253.222H299.722C301.8 253.222 303.792 252.397 305.261 250.928C306.73 249.459 307.556 247.466 307.556 245.389V242.778H310.167C312.244 242.778 314.237 241.952 315.706 240.483C317.175 239.014 318 237.022 318 234.944V219.278C318 219.278 318 219.278 318 219.121ZM302.333 209.904L309.096 216.667H304.944C304.252 216.667 303.588 216.392 303.098 215.902C302.608 215.412 302.333 214.748 302.333 214.056V209.904ZM302.333 245.389C302.333 246.081 302.058 246.746 301.569 247.235C301.079 247.725 300.415 248 299.722 248H278.833C278.141 248 277.477 247.725 276.987 247.235C276.497 246.746 276.222 246.081 276.222 245.389V219.278C276.222 218.585 276.497 217.921 276.987 217.431C277.477 216.942 278.141 216.667 278.833 216.667H281.444V234.944C281.444 237.022 282.27 239.014 283.739 240.483C285.208 241.952 287.2 242.778 289.278 242.778H302.333V245.389ZM312.778 234.944C312.778 235.637 312.503 236.301 312.013 236.791C311.523 237.28 310.859 237.556 310.167 237.556H289.278C288.585 237.556 287.921 237.28 287.431 236.791C286.942 236.301 286.667 235.637 286.667 234.944V208.833C286.667 208.141 286.942 207.477 287.431 206.987C287.921 206.497 288.585 206.222 289.278 206.222H297.111V214.056C297.111 216.133 297.936 218.126 299.405 219.595C300.874 221.064 302.867 221.889 304.944 221.889H312.778V234.944Z" fill="black"/>
<path d="M480.292 154.631C479.542 154.631 478.809 154.883 478.185 155.357C477.562 155.83 477.076 156.503 476.789 157.291C476.502 158.078 476.427 158.944 476.573 159.78C476.719 160.616 477.08 161.384 477.611 161.986C478.141 162.589 478.816 162.999 479.552 163.165C480.287 163.332 481.05 163.246 481.743 162.92C482.436 162.594 483.028 162.042 483.444 161.333C483.861 160.625 484.083 159.792 484.083 158.939C484.083 157.797 483.684 156.701 482.973 155.893C482.262 155.085 481.297 154.631 480.292 154.631ZM457.542 154.631H446.167C445.161 154.631 444.197 155.085 443.486 155.893C442.774 156.701 442.375 157.797 442.375 158.939C442.375 160.082 442.774 161.178 443.486 161.986C444.197 162.794 445.161 163.248 446.167 163.248H457.542C458.547 163.248 459.512 162.794 460.223 161.986C460.934 161.178 461.333 160.082 461.333 158.939C461.333 157.797 460.934 156.701 460.223 155.893C459.512 155.085 458.547 154.631 457.542 154.631ZM491.667 154.631C490.917 154.631 490.184 154.883 489.56 155.357C488.937 155.83 488.451 156.503 488.164 157.291C487.877 158.078 487.802 158.944 487.948 159.78C488.094 160.616 488.455 161.384 488.986 161.986C489.516 162.589 490.191 162.999 490.927 163.165C491.662 163.332 492.425 163.246 493.118 162.92C493.811 162.594 494.403 162.042 494.819 161.333C495.236 160.625 495.458 159.792 495.458 158.939C495.458 157.797 495.059 156.701 494.348 155.893C493.637 155.085 492.672 154.631 491.667 154.631ZM480.292 128.778C479.542 128.778 478.809 129.031 478.185 129.505C477.562 129.978 477.076 130.651 476.789 131.438C476.502 132.226 476.427 133.092 476.573 133.928C476.719 134.764 477.08 135.531 477.611 136.134C478.141 136.736 478.816 137.147 479.552 137.313C480.287 137.479 481.05 137.394 481.743 137.068C482.436 136.742 483.028 136.189 483.444 135.481C483.861 134.772 484.083 133.939 484.083 133.087C484.083 131.944 483.684 130.848 482.973 130.04C482.262 129.232 481.297 128.778 480.292 128.778ZM457.542 128.778H446.167C445.161 128.778 444.197 129.232 443.486 130.04C442.774 130.848 442.375 131.944 442.375 133.087C442.375 134.23 442.774 135.326 443.486 136.134C444.197 136.942 445.161 137.396 446.167 137.396H457.542C458.547 137.396 459.512 136.942 460.223 136.134C460.934 135.326 461.333 134.23 461.333 133.087C461.333 131.944 460.934 130.848 460.223 130.04C459.512 129.232 458.547 128.778 457.542 128.778ZM491.667 102.926C490.917 102.926 490.184 103.179 489.56 103.652C488.937 104.126 488.451 104.799 488.164 105.586C487.877 106.373 487.802 107.24 487.948 108.075C488.094 108.911 488.455 109.679 488.986 110.282C489.516 110.884 490.191 111.295 490.927 111.461C491.662 111.627 492.425 111.542 493.118 111.216C493.811 110.889 494.403 110.337 494.819 109.629C495.236 108.92 495.458 108.087 495.458 107.235C495.458 106.092 495.059 104.996 494.348 104.188C493.637 103.38 492.672 102.926 491.667 102.926ZM491.667 128.778C490.917 128.778 490.184 129.031 489.56 129.505C488.937 129.978 488.451 130.651 488.164 131.438C487.877 132.226 487.802 133.092 487.948 133.928C488.094 134.764 488.455 135.531 488.986 136.134C489.516 136.736 490.191 137.147 490.927 137.313C491.662 137.479 492.425 137.394 493.118 137.068C493.811 136.742 494.403 136.189 494.819 135.481C495.236 134.772 495.458 133.939 495.458 133.087C495.458 131.944 495.059 130.848 494.348 130.04C493.637 129.232 492.672 128.778 491.667 128.778ZM506.833 102.926C506.833 99.4979 505.635 96.2101 503.502 93.786C501.368 91.3619 498.475 90 495.458 90H442.375C439.358 90 436.465 91.3619 434.332 93.786C432.198 96.2101 431 99.4979 431 102.926V111.544C431.017 114.732 432.07 117.801 433.957 120.161C432.07 122.521 431.017 125.59 431 128.778V137.396C431.017 140.585 432.07 143.654 433.957 146.013C432.07 148.373 431.017 151.442 431 154.631V163.248C431 166.676 432.198 169.964 434.332 172.388C436.465 174.812 439.358 176.174 442.375 176.174H495.458C498.475 176.174 501.368 174.812 503.502 172.388C505.635 169.964 506.833 166.676 506.833 163.248V154.631C506.817 151.442 505.763 148.373 503.876 146.013C505.763 143.654 506.817 140.585 506.833 137.396V128.778C506.817 125.59 505.763 122.521 503.876 120.161C505.763 117.801 506.817 114.732 506.833 111.544V102.926ZM499.25 163.248C499.25 164.391 498.851 165.487 498.139 166.295C497.428 167.103 496.464 167.557 495.458 167.557H442.375C441.369 167.557 440.405 167.103 439.694 166.295C438.983 165.487 438.583 164.391 438.583 163.248V154.631C438.583 153.488 438.983 152.392 439.694 151.584C440.405 150.776 441.369 150.322 442.375 150.322H495.458C496.464 150.322 497.428 150.776 498.139 151.584C498.851 152.392 499.25 153.488 499.25 154.631V163.248ZM499.25 137.396C499.25 138.539 498.851 139.635 498.139 140.443C497.428 141.251 496.464 141.705 495.458 141.705H442.375C441.369 141.705 440.405 141.251 439.694 140.443C438.983 139.635 438.583 138.539 438.583 137.396V128.778C438.583 127.636 438.983 126.54 439.694 125.732C440.405 124.924 441.369 124.47 442.375 124.47H495.458C496.464 124.47 497.428 124.924 498.139 125.732C498.851 126.54 499.25 127.636 499.25 128.778V137.396ZM499.25 111.544C499.25 112.686 498.851 113.782 498.139 114.59C497.428 115.398 496.464 115.852 495.458 115.852H442.375C441.369 115.852 440.405 115.398 439.694 114.59C438.983 113.782 438.583 112.686 438.583 111.544V102.926C438.583 101.783 438.983 100.687 439.694 99.8794C440.405 99.0714 441.369 98.6174 442.375 98.6174H495.458C496.464 98.6174 497.428 99.0714 498.139 99.8794C498.851 100.687 499.25 101.783 499.25 102.926V111.544ZM480.292 102.926C479.542 102.926 478.809 103.179 478.185 103.652C477.562 104.126 477.076 104.799 476.789 105.586C476.502 106.373 476.427 107.24 476.573 108.075C476.719 108.911 477.08 109.679 477.611 110.282C478.141 110.884 478.816 111.295 479.552 111.461C480.287 111.627 481.05 111.542 481.743 111.216C482.436 110.889 483.028 110.337 483.444 109.629C483.861 108.92 484.083 108.087 484.083 107.235C484.083 106.092 483.684 104.996 482.973 104.188C482.262 103.38 481.297 102.926 480.292 102.926ZM457.542 102.926H446.167C445.161 102.926 444.197 103.38 443.486 104.188C442.774 104.996 442.375 106.092 442.375 107.235C442.375 108.378 442.774 109.474 443.486 110.282C444.197 111.09 445.161 111.544 446.167 111.544H457.542C458.547 111.544 459.512 111.09 460.223 110.282C460.934 109.474 461.333 108.378 461.333 107.235C461.333 106.092 460.934 104.996 460.223 104.188C459.512 103.38 458.547 102.926 457.542 102.926Z" fill="#121212"/>
<rect x="442" y="194" width="58" height="25" rx="2" fill="#121212"/>
<path d="M458.968 204.928V204.4H460.152C461 204.4 461.56 204.416 461.912 204.448V202.32C461.48 202.4 461 202.432 460.152 202.432H458.968V200.752C458.968 200.112 459.032 199.584 459.08 199.264H456.792C456.84 199.584 456.888 200.112 456.888 200.752V202.432H453.096V200.848C453.096 200.224 453.144 199.712 453.192 199.408H450.92C450.968 199.888 451.016 200.384 451.016 200.848V202.432H449.656C448.856 202.432 448.2 202.336 447.928 202.288V204.464C448.28 204.432 448.856 204.4 449.656 204.4H451.016V206.576C451.016 207.296 450.968 207.936 450.92 208.256H453.16C453.144 207.936 453.096 207.28 453.096 206.576V204.4H456.888V205.008C456.888 208.944 455.528 210.32 452.44 211.392L454.152 213.008C458.008 211.312 458.968 208.896 458.968 204.928ZM464.472 204.592V207.104C465.064 207.056 466.136 207.024 467.048 207.024H475.64C476.312 207.024 477.128 207.088 477.512 207.104V204.592C477.096 204.624 476.392 204.688 475.64 204.688H467.048C466.216 204.688 465.048 204.64 464.472 204.592ZM491.324 199.232L490.06 199.76C490.492 200.368 490.972 201.328 491.308 201.984L492.588 201.424C492.284 200.832 491.724 199.824 491.324 199.232ZM493.212 198.512L491.948 199.04C492.38 199.632 492.908 200.576 493.228 201.232L494.508 200.688C494.22 200.128 493.628 199.12 493.212 198.512ZM481.916 207.024C481.372 208.432 480.428 210.16 479.42 211.472L481.66 212.416C482.508 211.216 483.452 209.392 484.028 207.84C484.588 206.352 485.164 204.144 485.388 203.024C485.452 202.672 485.628 201.888 485.772 201.424L483.436 200.944C483.244 202.976 482.636 205.232 481.916 207.024ZM489.82 206.688C490.46 208.416 491.036 210.432 491.484 212.336L493.852 211.568C493.404 209.984 492.556 207.424 491.996 205.984C491.388 204.432 490.284 201.968 489.628 200.736L487.5 201.424C488.172 202.64 489.212 205.008 489.82 206.688Z" fill="#F4F4F4"/>
<rect x="715" y="194" width="106" height="25" rx="2" fill="#121212"/>
<path d="M723.008 199.92V201.984C723.488 201.952 724.176 201.936 724.72 201.936H729.952C730.512 201.936 731.136 201.952 731.68 201.984V199.92C731.136 200 730.496 200.048 729.952 200.048H724.72C724.176 200.048 723.52 200 723.008 199.92ZM721.152 204.016V206.112C721.6 206.08 722.224 206.048 722.688 206.048H727.088C727.024 207.392 726.752 208.592 726.096 209.584C725.456 210.528 724.336 211.44 723.2 211.872L725.072 213.232C726.496 212.512 727.728 211.28 728.288 210.16C728.864 209.04 729.216 207.696 729.312 206.048H733.168C733.616 206.048 734.224 206.064 734.624 206.096V204.016C734.208 204.08 733.504 204.112 733.168 204.112H722.688C722.192 204.112 721.632 204.08 721.152 204.016ZM732.64 198.816L731.36 199.344C731.792 199.952 732.288 200.912 732.624 201.568L733.904 201.008C733.6 200.416 733.04 199.408 732.64 198.816ZM734.528 198.096L733.264 198.624C733.696 199.232 734.208 200.16 734.544 200.832L735.824 200.272C735.536 199.712 734.944 198.704 734.528 198.096ZM737.472 204.592V207.104C738.064 207.056 739.136 207.024 740.048 207.024H748.64C749.312 207.024 750.128 207.088 750.512 207.104V204.592C750.096 204.624 749.392 204.688 748.64 204.688H740.048C739.216 204.688 738.048 204.64 737.472 204.592ZM761.104 199.328L758.784 198.608C758.64 199.152 758.304 199.888 758.048 200.272C757.248 201.664 755.76 203.856 752.96 205.6L754.688 206.928C756.304 205.808 757.792 204.272 758.912 202.784H763.488C763.248 203.776 762.56 205.168 761.728 206.32C760.72 205.648 759.712 204.992 758.864 204.512L757.44 205.968C758.256 206.48 759.312 207.2 760.352 207.968C759.024 209.296 757.248 210.592 754.48 211.44L756.336 213.056C758.832 212.112 760.656 210.752 762.064 209.264C762.72 209.792 763.312 210.288 763.744 210.688L765.264 208.88C764.8 208.496 764.176 208.032 763.488 207.536C764.624 205.936 765.424 204.224 765.856 202.928C766 202.528 766.208 202.096 766.384 201.792L764.752 200.784C764.4 200.896 763.856 200.96 763.36 200.96H760.112C760.304 200.608 760.704 199.888 761.104 199.328ZM779.344 200.912L777.952 201.488C778.544 202.304 778.944 203.088 779.408 204.096L780.848 203.472C780.496 202.736 779.792 201.568 779.344 200.912ZM781.488 200.032L780.112 200.656C780.704 201.456 781.136 202.192 781.648 203.2L783.04 202.528C782.672 201.808 781.952 200.672 781.488 200.032ZM768.56 207.44L770.48 209.424C770.768 209.008 771.152 208.448 771.52 207.936C772.16 207.072 773.296 205.488 773.92 204.688C774.384 204.112 774.72 204.08 775.232 204.592C775.808 205.184 777.232 206.736 778.16 207.84C779.104 208.944 780.464 210.592 781.536 211.92L783.296 210.032C782.064 208.72 780.432 206.944 779.36 205.808C778.4 204.768 777.168 203.488 776.096 202.48C774.848 201.312 773.904 201.488 772.96 202.608C771.856 203.92 770.608 205.488 769.888 206.224C769.392 206.704 769.04 207.056 768.56 207.44ZM785.472 204.592V207.104C786.064 207.056 787.136 207.024 788.048 207.024H796.64C797.312 207.024 798.128 207.088 798.512 207.104V204.592C798.096 204.624 797.392 204.688 796.64 204.688H788.048C787.216 204.688 786.048 204.64 785.472 204.592ZM812.547 201.152L811.235 200.176C810.915 200.288 810.275 200.384 809.587 200.384H803.939C803.459 200.384 802.483 200.336 802.051 200.272V202.544C802.387 202.528 803.267 202.432 803.939 202.432H809.363C809.011 203.568 808.035 205.152 806.979 206.352C805.475 208.032 802.995 209.984 800.419 210.944L802.067 212.672C804.259 211.632 806.387 209.968 808.083 208.176C809.587 209.632 811.075 211.264 812.115 212.704L813.939 211.12C812.995 209.968 811.059 207.92 809.475 206.544C810.547 205.104 811.443 203.392 811.987 202.144C812.131 201.824 812.419 201.328 812.547 201.152Z" fill="#F4F4F4"/>
<rect x="83" y="194" width="74" height="25" rx="2" fill="#121212"/>
<path d="M100.896 201.616L99.232 200.784C98.96 200.896 98.16 200.992 97.744 200.992H92.688C92.144 200.992 91.408 200.928 90.896 200.864V203.12C91.472 203.072 92.064 203.056 92.704 203.056H98.224C98.192 204.096 97.632 207.488 97.328 209.232H90.72C90.224 209.232 89.648 209.184 89.136 209.104V211.424C89.68 211.376 90.24 211.344 90.72 211.344H101.392C101.76 211.344 102.432 211.36 102.88 211.424V209.104C102.464 209.152 101.952 209.232 101.392 209.232H99.664C99.968 207.44 100.544 203.792 100.736 202.336C100.752 202.208 100.832 201.84 100.896 201.616ZM105.472 204.592V207.104C106.064 207.056 107.136 207.024 108.048 207.024H116.64C117.312 207.024 118.128 207.088 118.512 207.104V204.592C118.096 204.624 117.392 204.688 116.64 204.688H108.048C107.216 204.688 106.048 204.64 105.472 204.592ZM132.76 199.552L131.688 199.904C131.992 200.544 132.28 201.424 132.504 202.096L133.608 201.744C133.432 201.12 133.064 200.192 132.76 199.552ZM134.408 199.04L133.32 199.392C133.656 200.016 133.96 200.88 134.184 201.568L135.288 201.216C135.08 200.608 134.712 199.68 134.408 199.04ZM131.384 205.168V204.64H132.584C133.416 204.64 133.976 204.656 134.328 204.688V202.56C133.896 202.64 133.416 202.672 132.568 202.672H131.384V200.992C131.384 200.352 131.448 199.84 131.496 199.504H129.208C129.256 199.824 129.304 200.352 129.304 200.992V202.672H125.512V201.104C125.512 200.464 125.576 199.952 125.608 199.648H123.336C123.384 200.144 123.432 200.624 123.432 201.088V202.672H122.072C121.272 202.672 120.632 202.576 120.344 202.528V204.704C120.696 204.688 121.272 204.64 122.072 204.64H123.432V206.816C123.432 207.536 123.384 208.176 123.336 208.496H125.576C125.56 208.176 125.512 207.536 125.512 206.816V204.64H129.304V205.248C129.304 209.184 127.944 210.56 124.856 211.648L126.568 213.264C130.44 211.552 131.384 209.136 131.384 205.168ZM137.16 204.592V207.104C137.752 207.056 138.824 207.024 139.736 207.024H148.328C149 207.024 149.816 207.088 150.2 207.104V204.592C149.784 204.624 149.08 204.688 148.328 204.688H139.736C138.904 204.688 137.736 204.64 137.16 204.592Z" fill="#F4F4F4"/>
<rect x="251" y="264" width="96" height="25" rx="2" fill="#121212"/>
<path d="M261.376 282.192C260.512 282.192 259.749 282.016 259.088 281.664C258.427 281.301 257.904 280.789 257.52 280.128C257.147 279.456 256.96 278.661 256.96 277.744V270.8H259.248V277.888C259.248 278.304 259.333 278.688 259.504 279.04C259.675 279.381 259.92 279.659 260.24 279.872C260.56 280.075 260.939 280.176 261.376 280.176C261.813 280.176 262.192 280.075 262.512 279.872C262.832 279.659 263.077 279.381 263.248 279.04C263.419 278.688 263.504 278.304 263.504 277.888V270.8H265.792V277.888C265.792 278.304 265.877 278.688 266.048 279.04C266.219 279.381 266.464 279.659 266.784 279.872C267.104 280.075 267.483 280.176 267.92 280.176C268.357 280.176 268.736 280.075 269.056 279.872C269.376 279.659 269.621 279.381 269.792 279.04C269.963 278.688 270.048 278.304 270.048 277.888V270.8H272.336V277.744C272.336 278.661 272.144 279.456 271.76 280.128C271.387 280.789 270.869 281.301 270.208 281.664C269.547 282.016 268.784 282.192 267.92 282.192C267.472 282.192 267.045 282.133 266.64 282.016C266.235 281.909 265.867 281.744 265.536 281.52C265.205 281.296 264.907 281.029 264.64 280.72C264.384 281.029 264.085 281.296 263.744 281.52C263.413 281.733 263.045 281.899 262.64 282.016C262.245 282.133 261.824 282.192 261.376 282.192ZM277.281 282C276.662 282 276.097 281.851 275.585 281.552C275.084 281.253 274.684 280.853 274.385 280.352C274.086 279.84 273.937 279.275 273.937 278.656C273.937 278.208 274.033 277.787 274.225 277.392C274.417 276.997 274.678 276.651 275.009 276.352C274.678 276.053 274.417 275.707 274.225 275.312C274.033 274.917 273.937 274.501 273.937 274.064C273.937 273.456 274.081 272.907 274.369 272.416C274.668 271.925 275.062 271.536 275.553 271.248C276.054 270.949 276.604 270.8 277.201 270.8H281.809V272.816H277.457C277.233 272.816 277.025 272.875 276.833 272.992C276.652 273.099 276.502 273.248 276.385 273.44C276.278 273.621 276.225 273.829 276.225 274.064C276.225 274.288 276.278 274.496 276.385 274.688C276.502 274.869 276.652 275.019 276.833 275.136C277.025 275.243 277.233 275.296 277.457 275.296H281.265V277.312H277.553C277.308 277.312 277.084 277.376 276.881 277.504C276.678 277.621 276.518 277.781 276.401 277.984C276.284 278.187 276.225 278.411 276.225 278.656C276.225 278.901 276.284 279.125 276.401 279.328C276.518 279.531 276.678 279.691 276.881 279.808C277.084 279.925 277.308 279.984 277.553 279.984H281.809V282H277.281ZM283.573 282V270.8H289.861C290.394 270.8 290.874 270.923 291.301 271.168C291.738 271.403 292.085 271.733 292.341 272.16C292.608 272.587 292.741 273.093 292.741 273.68C292.741 274.053 292.666 274.411 292.517 274.752C292.368 275.083 292.165 275.371 291.909 275.616C291.653 275.861 291.354 276.053 291.013 276.192C291.408 276.32 291.754 276.528 292.053 276.816C292.362 277.093 292.602 277.424 292.773 277.808C292.954 278.181 293.045 278.587 293.045 279.024C293.045 279.621 292.906 280.144 292.629 280.592C292.362 281.04 292.005 281.387 291.557 281.632C291.109 281.877 290.608 282 290.053 282H283.573ZM285.861 279.984H289.397C289.653 279.984 289.882 279.925 290.085 279.808C290.288 279.68 290.448 279.515 290.565 279.312C290.693 279.099 290.757 278.869 290.757 278.624C290.757 278.368 290.693 278.139 290.565 277.936C290.448 277.733 290.288 277.573 290.085 277.456C289.882 277.328 289.653 277.264 289.397 277.264H285.861V279.984ZM285.861 275.344H289.189C289.424 275.344 289.637 275.291 289.829 275.184C290.021 275.067 290.17 274.912 290.277 274.72C290.394 274.528 290.453 274.315 290.453 274.08C290.453 273.845 290.394 273.632 290.277 273.44C290.17 273.248 290.021 273.099 289.829 272.992C289.637 272.875 289.424 272.816 289.189 272.816H285.861V275.344ZM305.256 272.208C305.256 271.648 305.704 271.184 306.264 271.184C306.824 271.184 307.288 271.648 307.288 272.208C307.288 272.768 306.824 273.216 306.264 273.216C305.704 273.216 305.256 272.768 305.256 272.208ZM304.2 272.208C304.2 273.36 305.112 274.272 306.264 274.272C307.416 274.272 308.344 273.36 308.344 272.208C308.344 271.056 307.416 270.128 306.264 270.128C305.112 270.128 304.2 271.056 304.2 272.208ZM294.248 277.44L296.168 279.424C296.456 279.008 296.84 278.448 297.208 277.936C297.848 277.072 298.984 275.488 299.608 274.688C300.072 274.112 300.408 274.08 300.92 274.592C301.496 275.184 302.92 276.736 303.848 277.84C304.792 278.944 306.152 280.592 307.224 281.92L308.984 280.032C307.752 278.72 306.12 276.944 305.048 275.808C304.088 274.768 302.856 273.488 301.784 272.48C300.536 271.312 299.592 271.488 298.648 272.608C297.544 273.92 296.296 275.488 295.576 276.224C295.08 276.704 294.728 277.056 294.248 277.44ZM311.16 274.592V277.104C311.752 277.056 312.824 277.024 313.736 277.024H322.328C323 277.024 323.816 277.088 324.2 277.104V274.592C323.784 274.624 323.08 274.688 322.328 274.688H313.736C312.904 274.688 311.736 274.64 311.16 274.592ZM337.055 269.712L335.711 270.272C336.287 271.088 336.655 271.776 337.119 272.784L338.511 272.192C338.143 271.456 337.503 270.384 337.055 269.712ZM339.247 268.944L337.887 269.504C338.479 270.304 338.879 270.928 339.391 271.936L340.751 271.328C340.367 270.624 339.743 269.584 339.247 268.944ZM330.095 269.408L328.943 271.168C329.999 271.76 331.663 272.832 332.559 273.456L333.743 271.696C332.911 271.104 331.151 269.984 330.095 269.408ZM327.135 280.768L328.335 282.864C329.743 282.608 332.047 281.808 333.679 280.896C336.287 279.376 338.559 277.36 340.031 275.136L338.799 272.96C337.535 275.248 335.295 277.44 332.575 278.96C330.847 279.92 328.927 280.464 327.135 280.768ZM327.631 273.056L326.479 274.816C327.551 275.392 329.215 276.464 330.127 277.104L331.295 275.312C330.479 274.736 328.719 273.632 327.631 273.056Z" fill="#F4F4F4"/>
<path d="M723.66 154L715 162.66L706.34 154L715 145.34L723.66 154ZM532.939 155.061C532.354 154.475 532.354 153.525 532.939 152.939L542.485 143.393C543.071 142.808 544.021 142.808 544.607 143.393C545.192 143.979 545.192 144.929 544.607 145.515L536.121 154L544.607 162.485C545.192 163.071 545.192 164.021 544.607 164.607C544.021 165.192 543.071 165.192 542.485 164.607L532.939 155.061ZM715 155.5H534V152.5H715V155.5Z" fill="black"/>
<path d="M525.34 107L534 115.66L542.66 107L534 98.3397L525.34 107ZM716.061 108.061C716.646 107.475 716.646 106.525 716.061 105.939L706.515 96.3934C705.929 95.8076 704.979 95.8076 704.393 96.3934C703.808 96.9792 703.808 97.9289 704.393 98.5147L712.879 107L704.393 115.485C703.808 116.071 703.808 117.021 704.393 117.607C704.979 118.192 705.929 118.192 706.515 117.607L716.061 108.061ZM534 108.5H715V105.5H534V108.5Z" fill="black"/>
<path d="M195.34 107L204 115.66L212.66 107L204 98.3397L195.34 107ZM386.061 108.061C386.646 107.475 386.646 106.525 386.061 105.939L376.515 96.3934C375.929 95.8076 374.979 95.8076 374.393 96.3934C373.808 96.9792 373.808 97.9289 374.393 98.5147L382.879 107L374.393 115.485C373.808 116.071 373.808 117.021 374.393 117.607C374.979 118.192 375.929 118.192 376.515 117.607L386.061 108.061ZM204 108.5H385V105.5H204V108.5Z" fill="black"/>
<path d="M393.66 154L385 162.66L376.34 154L385 145.34L393.66 154ZM202.939 155.061C202.354 154.475 202.354 153.525 202.939 152.939L212.485 143.393C213.071 142.808 214.021 142.808 214.607 143.393C215.192 143.979 215.192 144.929 214.607 145.515L206.121 154L214.607 162.485C215.192 163.071 215.192 164.021 214.607 164.607C214.021 165.192 213.071 165.192 212.485 164.607L202.939 155.061ZM385 155.5H204V152.5H385V155.5Z" fill="black"/>
<circle cx="188.5" cy="90.5" r="14.5" fill="#121212"/>
<path d="M184.95 97V94.606H187.458V86.094H185.159V83.7H190.213V94.606H192.455V97H184.95Z" fill="#80EF7E"/>
<circle cx="203.5" cy="181.5" r="14.5" fill="#121212"/>
<path d="M204.068 188V185.169H200.401C199.92 185.169 199.476 185.055 199.071 184.827C198.666 184.599 198.343 184.295 198.102 183.915C197.861 183.535 197.741 183.117 197.741 182.661C197.741 182.408 197.773 182.154 197.836 181.901C197.899 181.648 197.982 181.42 198.083 181.217L201.541 174.7H204.6L200.553 182.186C200.515 182.262 200.49 182.319 200.477 182.357C200.464 182.395 200.458 182.446 200.458 182.509C200.458 182.585 200.483 182.648 200.534 182.699C200.585 182.75 200.654 182.775 200.743 182.775H204.068V178.291H206.785V182.775H208.495V185.169H206.785V188H204.068Z" fill="#80EF7E"/>
<circle cx="542.5" cy="85.5" r="14.5" fill="#121212"/>
<path d="M540.192 92C539.685 92 539.242 91.8923 538.862 91.677C538.482 91.449 538.184 91.1513 537.969 90.784C537.766 90.4167 537.665 90.005 537.665 89.549C537.665 89.1183 537.773 88.7003 537.988 88.295C538.216 87.8897 538.507 87.5603 538.862 87.307L542.947 84.381C543.226 84.1783 543.435 83.9377 543.574 83.659C543.713 83.3803 543.783 83.089 543.783 82.785C543.783 82.4303 543.707 82.1327 543.555 81.892C543.403 81.6387 543.188 81.4423 542.909 81.303C542.63 81.1637 542.295 81.094 541.902 81.094H538.387V78.7H542.225C543.099 78.7 543.853 78.8837 544.486 79.251C545.119 79.6183 545.607 80.1123 545.949 80.733C546.304 81.341 546.481 82.025 546.481 82.785C546.481 83.545 546.329 84.2163 546.025 84.799C545.734 85.369 545.252 85.882 544.581 86.338L540.496 89.112C540.471 89.1247 540.439 89.1563 540.401 89.207C540.363 89.245 540.344 89.2957 540.344 89.359C540.344 89.4477 540.369 89.511 540.42 89.549C540.471 89.587 540.54 89.606 540.629 89.606H546.88V92H540.192Z" fill="#80EF7E"/>
<circle cx="576.5" cy="174.5" r="14.5" fill="#121212"/>
<path d="M571.95 181V178.606H576.491C576.782 178.606 577.048 178.536 577.289 178.397C577.53 178.258 577.72 178.068 577.859 177.827C577.998 177.586 578.068 177.32 578.068 177.029C578.068 176.738 577.998 176.472 577.859 176.231C577.72 175.99 577.53 175.8 577.289 175.661C577.048 175.509 576.782 175.433 576.491 175.433H572.596V173.039H576.605C576.884 173.039 577.131 172.976 577.346 172.849C577.561 172.71 577.732 172.532 577.859 172.317C577.998 172.089 578.068 171.842 578.068 171.576C578.068 171.297 577.998 171.05 577.859 170.835C577.732 170.607 577.561 170.43 577.346 170.303C577.131 170.164 576.884 170.094 576.605 170.094H571.95V167.7H576.909C577.631 167.7 578.283 167.877 578.866 168.232C579.449 168.574 579.911 169.036 580.253 169.619C580.608 170.202 580.785 170.854 580.785 171.576C580.785 172.095 580.671 172.589 580.443 173.058C580.215 173.527 579.905 173.938 579.512 174.293C579.778 174.521 580.006 174.781 580.196 175.072C580.386 175.363 580.532 175.674 580.633 176.003C580.734 176.332 580.785 176.674 580.785 177.029C580.785 177.764 580.608 178.435 580.253 179.043C579.898 179.638 579.417 180.113 578.809 180.468C578.214 180.823 577.549 181 576.814 181H571.95Z" fill="#80EF7E"/>
<path d="M217.052 97.204C216.089 97.204 215.233 97.0057 214.485 96.609C213.748 96.2123 213.165 95.6513 212.734 94.926C212.315 94.1893 212.105 93.3167 212.105 92.308V85.1H214.536V92.461C214.536 92.937 214.638 93.3733 214.842 93.77C215.046 94.1553 215.335 94.467 215.709 94.705C216.094 94.943 216.548 95.062 217.069 95.062C217.579 95.062 218.021 94.943 218.395 94.705C218.769 94.467 219.058 94.1553 219.262 93.77C219.466 93.3733 219.568 92.937 219.568 92.461V85.1H221.999V92.308C221.999 93.3167 221.784 94.1893 221.353 94.926C220.934 95.6513 220.35 96.2123 219.602 96.609C218.865 97.0057 218.015 97.204 217.052 97.204ZM224.293 97V85.1H229.614C230.396 85.1 231.104 85.2757 231.739 85.627C232.385 85.967 232.895 86.443 233.269 87.055C233.654 87.667 233.847 88.381 233.847 89.197C233.847 89.9903 233.66 90.693 233.286 91.305C232.912 91.9057 232.419 92.3817 231.807 92.733L232.895 94.637C232.94 94.705 232.997 94.7617 233.065 94.807C233.133 94.841 233.212 94.858 233.303 94.858H234.459V97H232.929C232.453 97 232.016 96.881 231.62 96.643C231.234 96.405 230.928 96.0933 230.702 95.708L229.359 93.294C229.257 93.294 229.149 93.294 229.036 93.294C228.934 93.294 228.832 93.294 228.73 93.294H226.724V97H224.293ZM226.724 91.152H229.325C229.71 91.152 230.061 91.0783 230.379 90.931C230.696 90.7723 230.945 90.5457 231.127 90.251C231.319 89.9563 231.416 89.605 231.416 89.197C231.416 88.789 231.319 88.4377 231.127 88.143C230.934 87.8483 230.679 87.6273 230.362 87.48C230.056 87.3213 229.71 87.242 229.325 87.242H226.724V91.152ZM239.229 97C238.526 97 237.909 96.8413 237.376 96.524C236.843 96.1953 236.43 95.7647 236.135 95.232C235.84 94.688 235.693 94.093 235.693 93.447V85.1H238.124V93.736C238.124 94.042 238.232 94.3083 238.447 94.535C238.662 94.7503 238.923 94.858 239.229 94.858H242.374V97H239.229ZM250.325 85.117V87.293C252.467 87.497 255.544 87.48 257.635 87.293V85.1C255.799 85.321 252.416 85.406 250.325 85.117ZM251.685 92.376L249.73 92.189C249.543 93.056 249.441 93.736 249.441 94.399C249.441 96.15 250.852 97.187 253.776 97.187C255.697 97.187 257.057 97.068 258.162 96.864L258.128 94.569C256.632 94.875 255.374 95.011 253.861 95.011C252.127 95.011 251.481 94.552 251.481 93.804C251.481 93.345 251.549 92.937 251.685 92.376ZM247.707 83.978L245.327 83.774C245.31 84.318 245.208 84.964 245.157 85.44C244.97 86.749 244.443 89.622 244.443 92.172C244.443 94.484 244.766 96.558 245.106 97.731L247.078 97.595C247.061 97.357 247.044 97.085 247.044 96.898C247.044 96.728 247.078 96.354 247.129 96.099C247.316 95.198 247.877 93.345 248.353 91.934L247.299 91.101C247.061 91.662 246.789 92.257 246.534 92.835C246.483 92.495 246.466 92.053 246.466 91.73C246.466 90.03 247.061 86.63 247.282 85.491C247.35 85.185 247.571 84.335 247.707 83.978ZM275.944 85.491L274.601 84.233C274.278 84.335 273.343 84.386 272.867 84.386H263.704C262.99 84.386 262.276 84.318 261.63 84.216V86.579C262.429 86.511 262.99 86.46 263.704 86.46H272.561C272.119 87.293 270.793 88.789 269.433 89.622L271.201 91.033C272.867 89.843 274.482 87.701 275.281 86.375C275.434 86.12 275.757 85.712 275.944 85.491ZM269.008 87.786H266.543C266.628 88.33 266.662 88.789 266.662 89.316C266.662 92.104 266.254 93.906 264.095 95.402C263.466 95.861 262.854 96.15 262.31 96.337L264.299 97.952C268.923 95.47 269.008 92.002 269.008 87.786ZM285.603 83.74L283.121 82.924C282.968 83.502 282.611 84.284 282.356 84.709C281.506 86.171 280.027 88.364 277.052 90.183L278.956 91.594C280.622 90.455 282.101 88.959 283.24 87.48H288.017C287.745 88.755 286.759 90.795 285.603 92.121C284.124 93.804 282.237 95.283 278.752 96.32L280.758 98.122C283.954 96.864 286.011 95.3 287.626 93.328C289.156 91.424 290.125 89.163 290.584 87.65C290.72 87.225 290.958 86.749 291.145 86.426L289.411 85.355C289.02 85.474 288.459 85.559 287.932 85.559H284.515C284.532 85.525 284.549 85.508 284.566 85.474C284.77 85.1 285.212 84.335 285.603 83.74ZM297.656 94.739C297.656 96.745 298.217 97.68 302.093 97.68C303.912 97.68 305.952 97.51 307.363 97.306L307.431 94.994C305.748 95.334 303.861 95.572 302.076 95.572C300.206 95.572 299.9 95.198 299.9 94.144V89.639C302.314 89.146 304.609 88.704 305.136 88.585C304.66 89.486 303.538 91.033 302.416 92.036L304.286 93.141C305.51 91.934 307.057 89.605 307.805 88.194C307.958 87.888 308.213 87.497 308.366 87.259L306.734 86.001C306.411 86.171 306.003 86.29 305.527 86.392C304.762 86.579 302.382 87.055 299.9 87.531V85.525C299.9 84.947 299.985 84.097 300.053 83.57H297.52C297.605 84.097 297.656 84.964 297.656 85.525V87.956C295.973 88.262 294.477 88.517 293.678 88.619L294.086 90.846C294.8 90.676 296.143 90.404 297.656 90.098V94.739ZM324.04 85.474L322.646 84.437C322.306 84.556 321.626 84.658 320.895 84.658H314.894C314.384 84.658 313.347 84.607 312.888 84.539V86.953C313.245 86.936 314.18 86.834 314.894 86.834H320.657C320.283 88.041 319.246 89.724 318.124 90.999C316.526 92.784 313.891 94.858 311.154 95.878L312.905 97.714C315.234 96.609 317.495 94.841 319.297 92.937C320.895 94.484 322.476 96.218 323.581 97.748L325.519 96.065C324.516 94.841 322.459 92.665 320.776 91.203C321.915 89.673 322.867 87.854 323.445 86.528C323.598 86.188 323.904 85.661 324.04 85.474Z" fill="black"/>
<path d="M564.196 80.165V82.358C564.706 82.324 565.437 82.307 566.015 82.307H571.574C572.169 82.307 572.832 82.324 573.41 82.358V80.165C572.832 80.25 572.152 80.301 571.574 80.301H566.015C565.437 80.301 564.74 80.25 564.196 80.165ZM562.224 84.517V86.744C562.7 86.71 563.363 86.676 563.856 86.676H568.531C568.463 88.104 568.174 89.379 567.477 90.433C566.797 91.436 565.607 92.405 564.4 92.864L566.389 94.309C567.902 93.544 569.211 92.235 569.806 91.045C570.418 89.855 570.792 88.427 570.894 86.676H574.991C575.467 86.676 576.113 86.693 576.538 86.727V84.517C576.096 84.585 575.348 84.619 574.991 84.619H563.856C563.329 84.619 562.734 84.585 562.224 84.517ZM574.43 78.992L573.07 79.553C573.529 80.199 574.056 81.219 574.413 81.916L575.773 81.321C575.45 80.692 574.855 79.621 574.43 78.992ZM576.436 78.227L575.093 78.788C575.552 79.434 576.096 80.42 576.453 81.134L577.813 80.539C577.507 79.944 576.878 78.873 576.436 78.227ZM579.564 85.129V87.798C580.193 87.747 581.332 87.713 582.301 87.713H591.43C592.144 87.713 593.011 87.781 593.419 87.798V85.129C592.977 85.163 592.229 85.231 591.43 85.231H582.301C581.417 85.231 580.176 85.18 579.564 85.129ZM604.673 79.536L602.208 78.771C602.055 79.349 601.698 80.131 601.426 80.539C600.576 82.018 598.995 84.347 596.02 86.2L597.856 87.611C599.573 86.421 601.154 84.789 602.344 83.208H607.206C606.951 84.262 606.22 85.741 605.336 86.965C604.265 86.251 603.194 85.554 602.293 85.044L600.78 86.591C601.647 87.135 602.769 87.9 603.874 88.716C602.463 90.127 600.576 91.504 597.635 92.405L599.607 94.122C602.259 93.119 604.197 91.674 605.693 90.093C606.39 90.654 607.019 91.181 607.478 91.606L609.093 89.685C608.6 89.277 607.937 88.784 607.206 88.257C608.413 86.557 609.263 84.738 609.722 83.361C609.875 82.936 610.096 82.477 610.283 82.154L608.549 81.083C608.175 81.202 607.597 81.27 607.07 81.27H603.619C603.823 80.896 604.248 80.131 604.673 79.536ZM620.262 79.366L618.018 79.179C617.984 79.791 617.865 80.454 617.678 81.134C617.406 81.134 617.117 81.134 616.862 81.134C615.995 81.134 614.737 81.066 613.87 80.93V82.919C614.805 82.987 616.046 83.021 616.743 83.021C616.811 83.021 616.879 83.021 616.964 83.021C616.199 84.551 614.992 86.064 613.207 87.713L615.026 89.073C615.604 88.325 616.097 87.713 616.607 87.203C617.253 86.574 618.307 86.03 619.259 86.03C619.735 86.03 620.194 86.183 620.449 86.608C618.511 87.611 616.471 88.971 616.471 91.147C616.471 93.34 618.443 93.986 621.112 93.986C622.71 93.986 624.801 93.85 625.923 93.697L625.991 91.504C624.495 91.793 622.608 91.98 621.163 91.98C619.497 91.98 618.698 91.725 618.698 90.79C618.698 89.94 619.378 89.277 620.653 88.546C620.636 89.294 620.619 90.11 620.568 90.62H622.608C622.591 89.838 622.557 88.58 622.54 87.628C623.577 87.152 624.546 86.778 625.311 86.472C625.889 86.251 626.79 85.911 627.334 85.758L626.484 83.786C625.855 84.109 625.26 84.381 624.597 84.67C623.9 84.976 623.186 85.265 622.302 85.673C621.928 84.806 621.078 84.364 620.041 84.364C619.48 84.364 618.562 84.5 618.12 84.704C618.46 84.211 618.8 83.599 619.089 82.97C620.925 82.919 623.016 82.783 624.631 82.545L624.648 80.573C623.152 80.828 621.452 80.981 619.837 81.066C620.058 80.352 620.177 79.791 620.262 79.366ZM637.228 81.423H637.823V82.749H642.838C642.549 84.653 642.039 86.353 641.376 87.815C640.662 86.319 640.152 84.602 639.812 82.783L637.874 83.174C638.401 85.741 639.132 88.019 640.169 89.906C639.336 91.062 638.35 91.98 637.228 92.609V81.423ZM632.859 88.359H635.273V89.889C634.457 89.991 633.641 90.11 632.859 90.212V88.359ZM632.859 84.857H635.273V86.557H632.859V84.857ZM635.273 81.423V83.038H632.859V81.423H635.273ZM643.739 80.709L643.399 80.76H638.316V79.553H629.782V81.423H630.938V90.45C630.36 90.518 629.833 90.569 629.374 90.62L629.765 92.643C631.329 92.405 633.318 92.099 635.273 91.759V94.479H637.228V92.881C637.636 93.289 638.095 93.918 638.35 94.36C639.506 93.663 640.509 92.813 641.376 91.759C642.192 92.796 643.144 93.663 644.3 94.36C644.606 93.833 645.235 93.068 645.694 92.694C644.47 92.031 643.45 91.079 642.617 89.94C643.892 87.662 644.708 84.738 645.065 81.032L643.739 80.709ZM659.26 81.355H654.84V80.505H659.26V81.355ZM659.26 83.565H654.84V82.681H659.26V83.565ZM661.3 79.094H652.885V84.976H661.3V79.094ZM649.961 78.618C649.247 79.757 647.751 81.134 646.425 81.95C646.731 82.375 647.224 83.208 647.428 83.667C649.026 82.63 650.76 80.964 651.882 79.4L649.961 78.618ZM650.403 82.324C649.417 83.99 647.751 85.639 646.238 86.693C646.544 87.186 647.054 88.342 647.207 88.784C647.717 88.393 648.227 87.917 648.737 87.407V94.462H650.692V85.231C651.253 84.517 651.763 83.803 652.171 83.089L650.403 82.324ZM662.201 88.342H659.889V87.373H661.861V85.724H652.018V87.373H657.832V88.342H651.61V90.059H653.99L652.732 90.892C653.446 91.606 654.313 92.609 654.687 93.255L656.2 92.184C655.775 91.589 654.942 90.705 654.262 90.059H657.832V92.422C657.832 92.609 657.764 92.677 657.526 92.694C657.305 92.694 656.506 92.694 655.792 92.66C656.047 93.17 656.336 93.918 656.421 94.462C657.577 94.462 658.427 94.462 659.056 94.173C659.719 93.884 659.889 93.408 659.889 92.473V90.059H662.218L662.201 88.342Z" fill="black"/>
<path d="M599.196 168.165V170.358C599.706 170.324 600.437 170.307 601.015 170.307H606.574C607.169 170.307 607.832 170.324 608.41 170.358V168.165C607.832 168.25 607.152 168.301 606.574 168.301H601.015C600.437 168.301 599.74 168.25 599.196 168.165ZM597.224 172.517V174.744C597.7 174.71 598.363 174.676 598.856 174.676H603.531C603.463 176.104 603.174 177.379 602.477 178.433C601.797 179.436 600.607 180.405 599.4 180.864L601.389 182.309C602.902 181.544 604.211 180.235 604.806 179.045C605.418 177.855 605.792 176.427 605.894 174.676H609.991C610.467 174.676 611.113 174.693 611.538 174.727V172.517C611.096 172.585 610.348 172.619 609.991 172.619H598.856C598.329 172.619 597.734 172.585 597.224 172.517ZM609.43 166.992L608.07 167.553C608.529 168.199 609.056 169.219 609.413 169.916L610.773 169.321C610.45 168.692 609.855 167.621 609.43 166.992ZM611.436 166.227L610.093 166.788C610.552 167.434 611.096 168.42 611.453 169.134L612.813 168.539C612.507 167.944 611.878 166.873 611.436 166.227ZM614.564 173.129V175.798C615.193 175.747 616.332 175.713 617.301 175.713H626.43C627.144 175.713 628.011 175.781 628.419 175.798V173.129C627.977 173.163 627.229 173.231 626.43 173.231H617.301C616.417 173.231 615.176 173.18 614.564 173.129ZM639.673 167.536L637.208 166.771C637.055 167.349 636.698 168.131 636.426 168.539C635.576 170.018 633.995 172.347 631.02 174.2L632.856 175.611C634.573 174.421 636.154 172.789 637.344 171.208H642.206C641.951 172.262 641.22 173.741 640.336 174.965C639.265 174.251 638.194 173.554 637.293 173.044L635.78 174.591C636.647 175.135 637.769 175.9 638.874 176.716C637.463 178.127 635.576 179.504 632.635 180.405L634.607 182.122C637.259 181.119 639.197 179.674 640.693 178.093C641.39 178.654 642.019 179.181 642.478 179.606L644.093 177.685C643.6 177.277 642.937 176.784 642.206 176.257C643.413 174.557 644.263 172.738 644.722 171.361C644.875 170.936 645.096 170.477 645.283 170.154L643.549 169.083C643.175 169.202 642.597 169.27 642.07 169.27H638.619C638.823 168.896 639.248 168.131 639.673 167.536ZM655.262 167.366L653.018 167.179C652.984 167.791 652.865 168.454 652.678 169.134C652.406 169.134 652.117 169.134 651.862 169.134C650.995 169.134 649.737 169.066 648.87 168.93V170.919C649.805 170.987 651.046 171.021 651.743 171.021C651.811 171.021 651.879 171.021 651.964 171.021C651.199 172.551 649.992 174.064 648.207 175.713L650.026 177.073C650.604 176.325 651.097 175.713 651.607 175.203C652.253 174.574 653.307 174.03 654.259 174.03C654.735 174.03 655.194 174.183 655.449 174.608C653.511 175.611 651.471 176.971 651.471 179.147C651.471 181.34 653.443 181.986 656.112 181.986C657.71 181.986 659.801 181.85 660.923 181.697L660.991 179.504C659.495 179.793 657.608 179.98 656.163 179.98C654.497 179.98 653.698 179.725 653.698 178.79C653.698 177.94 654.378 177.277 655.653 176.546C655.636 177.294 655.619 178.11 655.568 178.62H657.608C657.591 177.838 657.557 176.58 657.54 175.628C658.577 175.152 659.546 174.778 660.311 174.472C660.889 174.251 661.79 173.911 662.334 173.758L661.484 171.786C660.855 172.109 660.26 172.381 659.597 172.67C658.9 172.976 658.186 173.265 657.302 173.673C656.928 172.806 656.078 172.364 655.041 172.364C654.48 172.364 653.562 172.5 653.12 172.704C653.46 172.211 653.8 171.599 654.089 170.97C655.925 170.919 658.016 170.783 659.631 170.545L659.648 168.573C658.152 168.828 656.452 168.981 654.837 169.066C655.058 168.352 655.177 167.791 655.262 167.366ZM676.954 172.534C676.614 173.452 676.172 174.285 675.611 175.016C675.016 174.285 674.54 173.452 674.183 172.534H676.954ZM678.127 170.681L677.753 170.732H672.381V169.151H679.793V167.264H670.443V171.208C670.443 173.35 670.29 176.308 668.692 178.331C669.168 178.518 670.035 179.079 670.392 179.419C671.769 177.617 672.211 174.999 672.347 172.789C672.823 174.183 673.452 175.39 674.251 176.427C673.401 177.141 672.398 177.702 671.31 178.059C671.701 178.45 672.211 179.249 672.449 179.759C673.639 179.283 674.71 178.671 675.645 177.889C676.631 178.722 677.787 179.368 679.181 179.81C679.453 179.266 680.031 178.45 680.473 178.059C679.13 177.702 678.008 177.158 677.056 176.427C678.144 175.05 678.96 173.282 679.419 171.089L678.127 170.681ZM669.083 169.593C668.522 168.794 667.298 167.723 666.312 166.992L664.799 168.199C665.785 168.964 666.975 170.12 667.468 170.919L669.083 169.593ZM668.641 173.197H664.799V175.05H666.669V178.637C665.938 179.215 665.105 179.793 664.425 180.201L665.411 182.309C666.312 181.595 667.043 180.932 667.774 180.269C668.879 181.595 670.29 182.071 672.398 182.156C674.438 182.241 677.855 182.207 679.912 182.105C679.997 181.527 680.303 180.541 680.541 180.065C678.28 180.235 674.421 180.286 672.432 180.201C670.647 180.133 669.355 179.674 668.641 178.535V173.197ZM686.525 176.546C686.831 177.107 687.137 177.719 687.426 178.348L684.689 178.637C685.165 177.498 685.675 176.121 686.134 174.863H690.061V172.993H686.865V170.834H689.534V168.998H686.865V166.601H684.893V168.998H682.105V170.834H684.893V172.993H681.561V174.863H683.873C683.584 176.172 683.125 177.685 682.683 178.841L681.561 178.943L681.85 180.898L688.174 180.082C688.361 180.575 688.514 181.017 688.599 181.408L690.367 180.66C690.027 179.351 689.041 177.379 688.157 175.883L686.525 176.546ZM696.759 167.621H690.571V182.479H692.543V169.508H694.787V177.515C694.787 177.719 694.719 177.787 694.515 177.787C694.311 177.804 693.682 177.804 693.07 177.77C693.342 178.331 693.648 179.266 693.716 179.861C694.736 179.861 695.467 179.793 696.028 179.453C696.606 179.096 696.759 178.467 696.759 177.566V167.621Z" fill="black"/>
<path d="M232.724 172.111H230.106C230.225 172.842 230.242 173.199 230.242 173.675V174.984H226.604C225.958 174.984 225.448 174.967 224.87 174.899C224.938 175.307 224.955 175.987 224.955 176.361V179.302C224.955 179.761 224.921 180.305 224.87 180.73H227.216C227.182 180.39 227.165 179.863 227.165 179.472V176.99H235.597C235.393 178.503 234.951 180.118 234.084 181.359C233.132 182.736 231.636 183.739 230.225 184.266C229.528 184.538 228.593 184.793 227.828 184.929L229.596 186.969C232.622 186.187 235.172 184.385 236.532 181.869C237.365 180.322 237.824 178.69 238.113 177.058C238.181 176.718 238.317 176.072 238.453 175.698L236.974 174.797C236.685 174.899 236.277 174.984 235.563 174.984H232.605V173.675C232.605 173.199 232.639 172.842 232.724 172.111ZM243.349 176.786V178.928C243.723 178.894 244.335 178.86 244.692 178.86H247.344V184.334H243.876C243.451 184.334 242.924 184.283 242.482 184.232V186.459C242.941 186.391 243.468 186.374 243.876 186.374H253.277C253.566 186.374 254.195 186.391 254.569 186.459V184.232C254.212 184.266 253.736 184.334 253.277 184.334H249.571V178.86H252.478C252.869 178.86 253.379 178.894 253.804 178.928V176.786C253.396 176.837 252.886 176.871 252.478 176.871H244.692C244.318 176.871 243.723 176.854 243.349 176.786ZM269.903 171.669L268.509 172.247C268.832 172.74 269.172 173.335 269.461 173.896C269.155 173.93 268.866 173.93 268.662 173.93H260.791C260.23 173.93 259.261 173.862 258.768 173.794V176.191C259.21 176.157 260.009 176.123 260.791 176.123H268.696C268.475 177.585 267.829 179.506 266.707 180.917C265.33 182.651 263.409 184.13 260.043 184.912L261.896 186.952C264.939 185.966 267.2 184.283 268.73 182.243C270.158 180.356 270.889 177.721 271.297 176.055C271.382 175.698 271.501 175.205 271.671 174.882L270.583 174.168L271.212 173.913C270.906 173.301 270.345 172.315 269.903 171.669ZM272.283 171.244L270.872 171.805C271.331 172.434 271.858 173.403 272.232 174.1L273.643 173.488C273.32 172.893 272.708 171.856 272.283 171.244ZM286.291 175.596C286.291 175.001 286.767 174.508 287.362 174.508C287.957 174.508 288.45 175.001 288.45 175.596C288.45 176.191 287.957 176.667 287.362 176.667C286.767 176.667 286.291 176.191 286.291 175.596ZM285.169 175.596C285.169 176.82 286.138 177.789 287.362 177.789C288.586 177.789 289.572 176.82 289.572 175.596C289.572 174.372 288.586 173.386 287.362 173.386C286.138 173.386 285.169 174.372 285.169 175.596ZM274.595 181.155L276.635 183.263C276.941 182.821 277.349 182.226 277.74 181.682C278.42 180.764 279.627 179.081 280.29 178.231C280.783 177.619 281.14 177.585 281.684 178.129C282.296 178.758 283.809 180.407 284.795 181.58C285.798 182.753 287.243 184.504 288.382 185.915L290.252 183.909C288.943 182.515 287.209 180.628 286.07 179.421C285.05 178.316 283.741 176.956 282.602 175.885C281.276 174.644 280.273 174.831 279.27 176.021C278.097 177.415 276.771 179.081 276.006 179.863C275.479 180.373 275.105 180.747 274.595 181.155ZM292.564 178.129V180.798C293.193 180.747 294.332 180.713 295.301 180.713H304.43C305.144 180.713 306.011 180.781 306.419 180.798V178.129C305.977 178.163 305.229 178.231 304.43 178.231H295.301C294.417 178.231 293.176 178.18 292.564 178.129ZM320.078 172.944L318.65 173.539C319.262 174.406 319.653 175.137 320.146 176.208L321.625 175.579C321.234 174.797 320.554 173.658 320.078 172.944ZM322.407 172.128L320.962 172.723C321.591 173.573 322.016 174.236 322.56 175.307L324.005 174.661C323.597 173.913 322.934 172.808 322.407 172.128ZM312.683 172.621L311.459 174.491C312.581 175.12 314.349 176.259 315.301 176.922L316.559 175.052C315.675 174.423 313.805 173.233 312.683 172.621ZM309.538 184.691L310.813 186.918C312.309 186.646 314.757 185.796 316.491 184.827C319.262 183.212 321.676 181.07 323.24 178.707L321.931 176.395C320.588 178.826 318.208 181.155 315.318 182.77C313.482 183.79 311.442 184.368 309.538 184.691ZM310.065 176.497L308.841 178.367C309.98 178.979 311.748 180.118 312.717 180.798L313.958 178.894C313.091 178.282 311.221 177.109 310.065 176.497ZM332.93 172.366L330.686 172.179C330.652 172.791 330.533 173.454 330.346 174.134C330.074 174.134 329.785 174.134 329.53 174.134C328.663 174.134 327.405 174.066 326.538 173.93V175.919C327.473 175.987 328.714 176.021 329.411 176.021C329.479 176.021 329.547 176.021 329.632 176.021C328.867 177.551 327.66 179.064 325.875 180.713L327.694 182.073C328.272 181.325 328.765 180.713 329.275 180.203C329.921 179.574 330.975 179.03 331.927 179.03C332.403 179.03 332.862 179.183 333.117 179.608C331.179 180.611 329.139 181.971 329.139 184.147C329.139 186.34 331.111 186.986 333.78 186.986C335.378 186.986 337.469 186.85 338.591 186.697L338.659 184.504C337.163 184.793 335.276 184.98 333.831 184.98C332.165 184.98 331.366 184.725 331.366 183.79C331.366 182.94 332.046 182.277 333.321 181.546C333.304 182.294 333.287 183.11 333.236 183.62H335.276C335.259 182.838 335.225 181.58 335.208 180.628C336.245 180.152 337.214 179.778 337.979 179.472C338.557 179.251 339.458 178.911 340.002 178.758L339.152 176.786C338.523 177.109 337.928 177.381 337.265 177.67C336.568 177.976 335.854 178.265 334.97 178.673C334.596 177.806 333.746 177.364 332.709 177.364C332.148 177.364 331.23 177.5 330.788 177.704C331.128 177.211 331.468 176.599 331.757 175.97C333.593 175.919 335.684 175.783 337.299 175.545L337.316 173.573C335.82 173.828 334.12 173.981 332.505 174.066C332.726 173.352 332.845 172.791 332.93 172.366ZM346.717 175.358H346.02V173.998H346.717V175.358ZM348.23 180.05C348.196 180.033 348.162 179.999 348.145 179.982C348.111 180.033 348.077 180.033 347.924 180.033H347.618C347.499 180.033 347.482 180.016 347.482 179.795V177.041H348.23V180.05ZM344.286 184.742V183.586H348.23V184.742H344.286ZM345.034 177.041V178.367C345.034 179.132 344.949 180.067 344.286 180.798V177.041H345.034ZM348.077 181.019H348.23V182.192H344.286V180.849C344.507 180.985 344.847 181.308 345 181.478C345.782 180.594 345.969 179.336 345.969 178.384V177.041H346.547V179.795C346.547 180.798 346.768 181.019 347.499 181.019H348.077ZM342.416 173.998H344.711V175.358H342.739V187.377H344.286V186.306H348.23V187.156H349.845V175.358H348.06V173.998H350.151V172.213H342.433L342.416 173.998ZM353.619 185.354C352.956 185.354 352.854 185.269 352.854 184.555V179.438H355.591V180.492H357.546V172.366H350.78V174.321H355.591V177.517H350.848V184.572C350.848 186.663 351.443 187.241 353.33 187.241H355.693C357.444 187.241 357.988 186.374 358.192 183.501C357.665 183.382 356.815 183.025 356.373 182.702C356.271 184.946 356.169 185.354 355.523 185.354H353.619ZM373.662 172.264H365.876V173.845H373.662V172.264ZM363.02 171.635C362.102 174.049 360.538 176.463 358.923 177.993C359.263 178.469 359.79 179.574 359.977 180.05C360.453 179.574 360.929 179.047 361.388 178.452V187.428H363.309V175.528C363.921 174.457 364.448 173.335 364.89 172.247L363.02 171.635ZM372.166 183.535V185.201H367.27V183.535H372.166ZM365.332 187.462H367.27V186.782H372.166V187.411H374.206V181.971H365.332V187.462ZM365.604 181.138H373.9V179.557H365.604V181.138ZM373.968 177.143H365.604V178.707H373.968V177.143ZM364.261 174.678V176.31H375.141V174.678H364.261Z" fill="black"/>
<mask id="path-31-inside-1_405_4053" fill="white">
<rect x="499" y="239" width="347" height="55" rx="1"/>
</mask>
<rect x="499" y="239" width="347" height="55" rx="1" fill="#F4F4F4" stroke="#121212" stroke-width="6" mask="url(#path-31-inside-1_405_4053)"/>
<path d="M516.472 254.812V254.35H517.508C518.25 254.35 518.74 254.364 519.048 254.392V252.53C518.67 252.6 518.25 252.628 517.508 252.628H516.472V251.158C516.472 250.598 516.528 250.136 516.57 249.856H514.568C514.61 250.136 514.652 250.598 514.652 251.158V252.628H511.334V251.242C511.334 250.696 511.376 250.248 511.418 249.982H509.43C509.472 250.402 509.514 250.836 509.514 251.242V252.628H508.324C507.624 252.628 507.05 252.544 506.812 252.502V254.406C507.12 254.378 507.624 254.35 508.324 254.35H509.514V256.254C509.514 256.884 509.472 257.444 509.43 257.724H511.39C511.376 257.444 511.334 256.87 511.334 256.254V254.35H514.652V254.882C514.652 258.326 513.462 259.53 510.76 260.468L512.258 261.882C515.632 260.398 516.472 258.284 516.472 254.812ZM521.288 254.518V256.716C521.806 256.674 522.744 256.646 523.542 256.646H531.06C531.648 256.646 532.362 256.702 532.698 256.716V254.518C532.334 254.546 531.718 254.602 531.06 254.602H523.542C522.814 254.602 521.792 254.56 521.288 254.518ZM544.783 249.828L543.677 250.29C544.055 250.822 544.475 251.662 544.769 252.236L545.889 251.746C545.623 251.228 545.133 250.346 544.783 249.828ZM546.435 249.198L545.329 249.66C545.707 250.178 546.169 251.004 546.449 251.578L547.569 251.102C547.317 250.612 546.799 249.73 546.435 249.198ZM536.551 256.646C536.075 257.878 535.249 259.39 534.367 260.538L536.327 261.364C537.069 260.314 537.895 258.718 538.399 257.36C538.889 256.058 539.393 254.126 539.589 253.146C539.645 252.838 539.799 252.152 539.925 251.746L537.881 251.326C537.713 253.104 537.181 255.078 536.551 256.646ZM543.467 256.352C544.027 257.864 544.531 259.628 544.923 261.294L546.995 260.622C546.603 259.236 545.861 256.996 545.371 255.736C544.839 254.378 543.873 252.222 543.299 251.144L541.437 251.746C542.025 252.81 542.935 254.882 543.467 256.352ZM554.499 259.18C554.499 258.648 555.031 258.312 555.829 258.312C556.207 258.312 556.585 258.368 556.949 258.466C556.949 258.564 556.949 258.648 556.949 258.718C556.949 259.544 556.655 259.992 555.801 259.992C555.059 259.992 554.499 259.754 554.499 259.18ZM558.657 250.038H556.655C556.711 250.318 556.753 250.752 556.753 250.962C556.753 251.256 556.767 251.83 556.767 252.516C556.445 252.53 556.109 252.53 555.787 252.53C554.947 252.53 554.135 252.488 553.337 252.404V254.07C554.163 254.126 554.961 254.154 555.787 254.154C556.109 254.154 556.445 254.154 556.781 254.14C556.795 255.134 556.851 256.156 556.879 257.024C556.599 256.982 556.291 256.968 555.969 256.968C554.065 256.968 552.861 257.948 552.861 259.362C552.861 260.832 554.065 261.644 555.997 261.644C557.887 261.644 558.643 260.692 558.727 259.348C559.287 259.726 559.847 260.216 560.435 260.762L561.401 259.292C560.729 258.676 559.847 257.962 558.685 257.486C558.629 256.534 558.559 255.414 558.531 254.056C559.301 254 560.029 253.916 560.701 253.818V252.068C560.029 252.208 559.301 252.32 558.531 252.39C558.545 251.774 558.559 251.256 558.573 250.948C558.587 250.64 558.615 250.304 558.657 250.038ZM551.825 250.192L549.893 250.024C549.879 250.472 549.809 251.004 549.753 251.396C549.599 252.474 549.179 255.12 549.179 257.234C549.179 259.138 549.445 260.734 549.739 261.714L551.321 261.588C551.307 261.392 551.293 261.154 551.293 261.014C551.293 260.86 551.321 260.552 551.363 260.356C551.531 259.6 551.979 258.172 552.371 257.024L551.517 256.324C551.307 256.8 551.069 257.276 550.887 257.766C550.845 257.486 550.831 257.136 550.831 256.856C550.831 255.456 551.293 252.376 551.503 251.438C551.545 251.186 551.713 250.472 551.825 250.192ZM565.433 261.966L566.931 260.678C566.231 259.81 564.873 258.424 563.879 257.612L562.423 258.872C563.389 259.712 564.579 260.916 565.433 261.966ZM587.147 251.914L585.691 251.186C585.453 251.284 584.753 251.368 584.389 251.368H579.965C579.489 251.368 578.845 251.312 578.397 251.256V253.23C578.901 253.188 579.419 253.174 579.979 253.174H584.809C584.781 254.084 584.291 257.052 584.025 258.578H578.243C577.809 258.578 577.305 258.536 576.857 258.466V260.496C577.333 260.454 577.823 260.426 578.243 260.426H587.581C587.903 260.426 588.491 260.44 588.883 260.496V258.466C588.519 258.508 588.071 258.578 587.581 258.578H586.069C586.335 257.01 586.839 253.818 587.007 252.544C587.021 252.432 587.091 252.11 587.147 251.914ZM591.151 254.518V256.716C591.669 256.674 592.607 256.646 593.405 256.646H600.923C601.511 256.646 602.225 256.702 602.561 256.716V254.518C602.197 254.546 601.581 254.602 600.923 254.602H593.405C592.677 254.602 591.655 254.56 591.151 254.518ZM615.028 250.108L614.09 250.416C614.356 250.976 614.608 251.746 614.804 252.334L615.77 252.026C615.616 251.48 615.294 250.668 615.028 250.108ZM616.47 249.66L615.518 249.968C615.812 250.514 616.078 251.27 616.274 251.872L617.24 251.564C617.058 251.032 616.736 250.22 616.47 249.66ZM613.824 255.022V254.56H614.874C615.602 254.56 616.092 254.574 616.4 254.602V252.74C616.022 252.81 615.602 252.838 614.86 252.838H613.824V251.368C613.824 250.808 613.88 250.36 613.922 250.066H611.92C611.962 250.346 612.004 250.808 612.004 251.368V252.838H608.686V251.466C608.686 250.906 608.742 250.458 608.77 250.192H606.782C606.824 250.626 606.866 251.046 606.866 251.452V252.838H605.676C604.976 252.838 604.416 252.754 604.164 252.712V254.616C604.472 254.602 604.976 254.56 605.676 254.56H606.866V256.464C606.866 257.094 606.824 257.654 606.782 257.934H608.742C608.728 257.654 608.686 257.094 608.686 256.464V254.56H612.004V255.092C612.004 258.536 610.814 259.74 608.112 260.692L609.61 262.106C612.998 260.608 613.824 258.494 613.824 255.022ZM630.568 256.072C630.568 253.02 628.384 250.612 624.912 250.612C621.286 250.612 618.486 253.37 618.486 256.604C618.486 258.97 619.774 260.678 621.328 260.678C622.854 260.678 624.058 258.942 624.898 256.114C625.304 254.798 625.542 253.51 625.738 252.32C627.628 252.642 628.678 254.084 628.678 256.016C628.678 258.06 627.278 259.348 625.486 259.768C625.108 259.852 624.716 259.936 624.184 259.992L625.234 261.658C628.762 261.112 630.568 259.026 630.568 256.072ZM620.278 256.422C620.278 254.882 621.524 252.838 623.834 252.362C623.68 253.524 623.414 254.714 623.092 255.75C622.518 257.64 621.972 258.522 621.384 258.522C620.838 258.522 620.278 257.836 620.278 256.422ZM642.832 250.136H640.718C640.774 250.528 640.802 250.976 640.802 251.536V254.196C640.802 256.38 640.62 257.43 639.654 258.48C638.814 259.39 637.68 259.922 636.294 260.244L637.75 261.784C638.772 261.462 640.228 260.776 641.152 259.768C642.188 258.62 642.776 257.318 642.776 254.308V251.536C642.776 250.976 642.804 250.528 642.832 250.136ZM636.336 250.248H634.32C634.362 250.57 634.376 251.06 634.376 251.326V256.044C634.376 256.464 634.32 257.01 634.306 257.276H636.336C636.308 256.954 636.294 256.408 636.294 256.058V251.326C636.294 250.878 636.308 250.57 636.336 250.248ZM653.612 250.08L651.568 249.408C651.442 249.884 651.148 250.528 650.938 250.878C650.238 252.082 649.02 253.888 646.57 255.386L648.138 256.548C649.51 255.61 650.728 254.378 651.666 253.16H655.6C655.376 254.21 654.564 255.89 653.612 256.982C652.394 258.368 650.84 259.586 647.97 260.44L649.622 261.924C652.254 260.888 653.948 259.6 655.278 257.976C656.538 256.408 657.336 254.546 657.714 253.3C657.826 252.95 658.022 252.558 658.176 252.292L656.748 251.41C656.426 251.508 655.964 251.578 655.53 251.578H652.716C652.73 251.55 652.744 251.536 652.758 251.508C652.926 251.2 653.29 250.57 653.612 250.08ZM661.536 251.228V253.146C661.886 253.118 662.488 253.09 662.866 253.09H665.568V258.802H662.012C661.578 258.802 661.074 258.76 660.64 258.69V260.72C661.102 260.664 661.592 260.65 662.012 260.65H671.238C671.56 260.65 672.148 260.664 672.554 260.72V258.69C672.19 258.746 671.742 258.802 671.238 258.802H667.528V253.09H670.482C670.888 253.09 671.378 253.118 671.798 253.146V251.228C671.392 251.27 670.902 251.312 670.482 251.312H662.866C662.474 251.312 661.9 251.27 661.536 251.228ZM685.266 251.508L684.118 250.654C683.838 250.752 683.278 250.836 682.676 250.836H677.734C677.314 250.836 676.46 250.794 676.082 250.738V252.726C676.376 252.712 677.146 252.628 677.734 252.628H682.48C682.172 253.622 681.318 255.008 680.394 256.058C679.078 257.528 676.908 259.236 674.654 260.076L676.096 261.588C678.014 260.678 679.876 259.222 681.36 257.654C682.676 258.928 683.978 260.356 684.888 261.616L686.484 260.23C685.658 259.222 683.964 257.43 682.578 256.226C683.516 254.966 684.3 253.468 684.776 252.376C684.902 252.096 685.154 251.662 685.266 251.508ZM691.986 259.656C691.986 260.216 691.93 261.056 691.846 261.616H694.03C693.974 261.042 693.904 260.062 693.904 259.656V255.694C695.416 256.212 697.516 257.024 698.958 257.78L699.756 255.848C698.468 255.218 695.78 254.224 693.904 253.678V251.606C693.904 251.032 693.974 250.416 694.03 249.926H691.846C691.944 250.416 691.986 251.116 691.986 251.606V259.656ZM707.96 250.038L705.874 249.828C705.902 250.71 705.776 251.732 705.58 252.782C704.866 252.852 704.208 252.894 703.774 252.908C703.256 252.922 702.794 252.95 702.276 252.908L702.444 254.812C702.878 254.742 703.606 254.644 704.012 254.574C704.264 254.546 704.712 254.49 705.216 254.434C704.698 256.352 703.732 259.18 702.374 261.014L704.194 261.742C705.482 259.684 706.518 256.366 707.05 254.238C707.456 254.21 707.806 254.182 708.03 254.182C708.898 254.182 709.388 254.336 709.388 255.456C709.388 256.842 709.192 258.536 708.814 259.334C708.59 259.796 708.24 259.936 707.764 259.936C707.4 259.936 706.588 259.796 706.056 259.642L706.35 261.49C706.826 261.588 707.498 261.686 708.03 261.686C709.094 261.686 709.864 261.378 710.326 260.398C710.928 259.18 711.124 256.912 711.124 255.26C711.124 253.244 710.074 252.586 708.59 252.586C708.296 252.586 707.89 252.614 707.414 252.642C707.512 252.138 707.624 251.62 707.708 251.2C707.778 250.85 707.876 250.402 707.96 250.038ZM714.19 248.876L713.07 249.324C713.462 249.856 713.91 250.682 714.204 251.256L715.31 250.78C715.072 250.29 714.554 249.408 714.19 248.876ZM712.524 249.506L711.418 249.968C711.74 250.416 712.09 251.088 712.37 251.62L711.11 252.166C712.104 253.398 713.098 255.862 713.462 257.416L715.24 256.604C714.848 255.358 713.798 253.02 712.958 251.718L713.644 251.424C713.378 250.906 712.874 250.024 712.524 249.506ZM722.534 249.73L720.714 249.688C720.728 249.926 720.7 250.262 720.686 250.528C720.658 250.766 720.63 251.018 720.602 251.284C720.42 251.284 720.238 251.284 720.042 251.284C719.188 251.284 717.956 251.172 717.466 251.088L717.508 252.712C718.166 252.74 719.258 252.796 719.986 252.796C720.14 252.796 720.28 252.796 720.434 252.796C720.378 253.37 720.336 253.958 720.308 254.56C718.348 255.484 716.864 257.36 716.864 259.166C716.864 260.58 717.732 261.196 718.754 261.196C719.496 261.196 720.238 260.972 720.924 260.636C720.98 260.832 721.05 261.028 721.106 261.21L722.716 260.72C722.604 260.384 722.492 260.034 722.394 259.684C723.458 258.802 724.578 257.332 725.334 255.428C726.3 255.806 726.79 256.548 726.79 257.388C726.79 258.76 725.698 260.132 722.996 260.426L723.92 261.896C727.364 261.378 728.526 259.46 728.526 257.472C728.526 255.848 727.448 254.574 725.824 254.042C725.908 253.776 726.02 253.482 726.076 253.328L724.368 252.922C724.354 253.132 724.298 253.482 724.242 253.762C724.158 253.762 724.074 253.762 723.99 253.762C723.304 253.762 722.576 253.86 721.904 254.014C721.918 253.594 721.96 253.16 722.002 252.74C723.724 252.67 725.6 252.502 726.972 252.25L726.958 250.626C725.418 250.99 723.906 251.172 722.198 251.242C722.24 250.962 722.296 250.71 722.338 250.472C722.394 250.262 722.45 250.01 722.534 249.73ZM718.516 258.802C718.516 258.004 719.216 256.94 720.266 256.226C720.294 257.192 720.406 258.158 720.56 259.026C720.056 259.32 719.552 259.488 719.16 259.488C718.712 259.488 718.516 259.25 718.516 258.802ZM721.848 255.54V255.498C722.394 255.33 723.038 255.204 723.78 255.19C723.304 256.324 722.674 257.178 722.016 257.864C721.904 257.164 721.848 256.394 721.848 255.54ZM735.05 259.348C735.05 258.998 735.386 258.676 735.918 258.676C736.674 258.676 737.192 259.264 737.276 260.174C737.024 260.202 736.758 260.216 736.464 260.216C735.624 260.216 735.05 259.866 735.05 259.348ZM732.67 250.332L732.726 252.152C733.048 252.11 733.496 252.068 733.874 252.04C734.616 251.998 736.548 251.914 737.262 251.9C736.576 252.502 735.12 253.678 734.336 254.322C733.51 255.008 731.816 256.436 730.822 257.234L732.096 258.55C733.594 256.842 734.994 255.708 737.136 255.708C738.788 255.708 740.048 256.562 740.048 257.822C740.048 258.676 739.656 259.32 738.886 259.726C738.69 258.396 737.64 257.332 735.904 257.332C734.42 257.332 733.398 258.382 733.398 259.516C733.398 260.916 734.868 261.812 736.814 261.812C740.202 261.812 741.882 260.062 741.882 257.85C741.882 255.806 740.076 254.322 737.696 254.322C737.248 254.322 736.828 254.364 736.366 254.476C737.248 253.776 738.718 252.544 739.474 252.012C739.796 251.774 740.132 251.578 740.454 251.368L739.544 250.122C739.376 250.178 739.054 250.22 738.48 250.276C737.682 250.346 734.686 250.402 733.944 250.402C733.552 250.402 733.062 250.388 732.67 250.332ZM751.808 257.584L750.142 257.416C750.03 257.976 749.89 258.648 749.89 259.292C749.89 260.706 751.164 261.518 753.516 261.518C754.636 261.518 755.588 261.42 756.372 261.322L756.442 259.53C755.434 259.712 754.468 259.824 753.53 259.824C752.032 259.824 751.612 259.362 751.612 258.746C751.612 258.438 751.696 257.976 751.808 257.584ZM750.226 249.828L748.084 249.66C748.126 249.982 748.098 250.556 748.042 251.074C748.014 251.298 747.972 251.564 747.916 251.872C747.482 251.9 747.062 251.914 746.656 251.914C746.082 251.914 745.606 251.886 744.892 251.802L744.934 253.552C745.424 253.58 745.956 253.608 746.628 253.608C746.922 253.608 747.23 253.594 747.552 253.58C747.468 253.986 747.356 254.378 747.258 254.756C746.74 256.716 745.676 259.656 744.836 261.056L746.782 261.714C747.566 260.048 748.504 257.192 749.008 255.232C749.162 254.658 749.302 254.042 749.428 253.44C750.366 253.328 751.318 253.174 752.158 252.978V251.228C751.388 251.41 750.604 251.564 749.82 251.676C749.862 251.48 749.904 251.298 749.932 251.144C749.988 250.836 750.114 250.206 750.226 249.828ZM751.052 254.056V255.694C751.934 255.596 752.802 255.554 753.754 255.554C754.608 255.554 755.462 255.638 756.162 255.722L756.204 254.042C755.378 253.958 754.538 253.916 753.74 253.916C752.844 253.916 751.836 253.986 751.052 254.056ZM768.986 249.744L767.936 250.066C768.244 250.668 768.524 251.452 768.748 252.11L769.798 251.76C769.602 251.186 769.238 250.318 768.986 249.744ZM770.484 249.212L769.476 249.562C769.77 250.136 770.078 250.948 770.302 251.578L771.352 251.228C771.142 250.668 770.792 249.786 770.484 249.212ZM758.514 251.214L758.64 253.034C758.962 252.978 759.172 252.95 759.466 252.908C759.886 252.852 760.768 252.754 761.3 252.698C759.998 254.364 759.06 256.072 759.06 258.34C759.06 260.874 760.978 262.106 763.232 262.106C767.138 262.106 768.23 259.11 768.034 255.918C768.496 256.73 769.014 257.444 769.588 258.074L770.722 256.464C768.58 254.49 768.006 252.278 767.726 250.514L765.962 251.004C766.06 251.298 766.158 251.592 766.256 251.872C767.334 256.94 766.34 260.23 763.26 260.23C761.916 260.23 760.852 259.586 760.852 257.948C760.852 255.26 762.742 253.09 763.694 252.376C763.918 252.25 764.198 252.152 764.408 252.068L763.876 250.514C762.966 250.85 760.628 251.144 759.298 251.214C759.032 251.228 758.752 251.228 758.514 251.214ZM777.862 251.214V253.006C779.626 253.174 782.16 253.16 783.882 253.006V251.2C782.37 251.382 779.584 251.452 777.862 251.214ZM778.982 257.192L777.372 257.038C777.218 257.752 777.134 258.312 777.134 258.858C777.134 260.3 778.296 261.154 780.704 261.154C782.286 261.154 783.406 261.056 784.316 260.888L784.288 258.998C783.056 259.25 782.02 259.362 780.774 259.362C779.346 259.362 778.814 258.984 778.814 258.368C778.814 257.99 778.87 257.654 778.982 257.192ZM775.706 250.276L773.746 250.108C773.732 250.556 773.648 251.088 773.606 251.48C773.452 252.558 773.018 254.924 773.018 257.024C773.018 258.928 773.284 260.636 773.564 261.602L775.188 261.49C775.174 261.294 775.16 261.07 775.16 260.916C775.16 260.776 775.188 260.468 775.23 260.258C775.384 259.516 775.846 257.99 776.238 256.828L775.37 256.142C775.174 256.604 774.95 257.094 774.74 257.57C774.698 257.29 774.684 256.926 774.684 256.66C774.684 255.26 775.174 252.46 775.356 251.522C775.412 251.27 775.594 250.57 775.706 250.276ZM794.228 251.508C793.43 250.892 792.016 249.856 790.882 249.128L789.804 250.346C790.896 251.102 792.324 252.194 793.136 252.866L794.228 251.508ZM787.41 252.922C787.158 254.56 786.626 256.338 785.94 257.542L787.55 258.144C788.25 256.94 788.698 254.98 788.992 253.328L787.41 252.922ZM792.24 260.398C791.526 260.398 791.414 260.3 791.414 259.586V258.732C794.228 256.436 796.426 253.552 797.952 250.626L796.272 249.968C795.208 252.208 793.528 254.532 791.414 256.52V252.292H789.636V258.018C788.502 258.886 787.27 259.642 785.968 260.23C786.304 260.552 786.808 261.168 787.06 261.546C787.956 261.112 788.838 260.608 789.65 260.048C789.748 261.588 790.336 262.064 792.058 262.064H794.508C796.23 262.064 796.72 261.238 796.944 258.718C796.454 258.606 795.712 258.312 795.306 258.018C795.208 259.992 795.082 260.398 794.368 260.398H792.24ZM795.614 254.574C796.44 255.89 797.308 257.682 797.63 258.844L799.226 258.032C798.876 256.884 797.994 255.176 797.112 253.86L795.614 254.574ZM805.022 258.032H808.438C808.102 258.55 807.682 258.984 807.164 259.334C806.31 259.11 805.428 258.9 804.56 258.718L805.022 258.032ZM802.67 253.188H804.14V254.49H802.67V253.188ZM805.708 251.074H807.29V251.872H805.708V251.074ZM810.538 253.188V254.49H808.858V253.188H810.538ZM805.708 254.49V253.188H807.29V254.49H805.708ZM812.988 258.032V256.688H805.918C806.114 256.38 806.296 256.086 806.478 255.792H812.204V251.872H808.858V251.074H812.652V249.632H800.458V251.074H804.14V251.872H801.102V255.792H804.574C804.392 256.086 804.21 256.38 804.014 256.688H800.206V258.032H803.118C802.698 258.634 802.292 259.18 801.942 259.628L803.552 260.132L803.706 259.922C804.168 260.02 804.616 260.132 805.064 260.244C803.818 260.566 802.306 260.734 800.458 260.804C800.71 261.168 800.976 261.756 801.088 262.232C803.804 262.022 805.876 261.658 807.444 260.888C809.026 261.35 810.44 261.84 811.504 262.274L812.526 260.916C811.574 260.58 810.356 260.202 808.998 259.824C809.516 259.334 809.95 258.746 810.3 258.032H812.988ZM512.608 271.73L510.676 271.534C510.648 272.262 510.494 273.102 510.298 273.872C509.864 273.914 509.444 273.928 509.024 273.928C508.506 273.928 507.764 273.9 507.162 273.83L507.288 275.454C507.89 275.496 508.464 275.51 509.038 275.51C509.276 275.51 509.514 275.51 509.766 275.496C509.15 277.008 508.016 279.066 506.91 280.438L508.604 281.306C509.738 279.724 510.928 277.274 511.6 275.314C512.538 275.174 513.406 274.992 514.05 274.824L513.994 273.2C513.448 273.368 512.79 273.522 512.104 273.648C512.314 272.892 512.496 272.178 512.608 271.73ZM511.88 281.418C511.88 280.928 512.398 280.564 513.21 280.564C513.602 280.564 513.98 280.62 514.344 280.704C514.344 280.816 514.344 280.9 514.344 280.984C514.344 281.754 514.05 282.286 513.084 282.286C512.314 282.286 511.88 281.936 511.88 281.418ZM515.884 276.084H514.134C514.162 276.938 514.232 278.184 514.288 279.22C513.966 279.192 513.658 279.164 513.322 279.164C511.376 279.164 510.228 280.214 510.228 281.586C510.228 283.126 511.6 283.896 513.336 283.896C515.324 283.896 516.038 282.888 516.038 281.586C516.038 281.544 516.038 281.488 516.038 281.446C516.808 281.908 517.438 282.496 517.928 282.944L518.866 281.446C518.152 280.802 517.172 280.102 515.968 279.654C515.94 278.954 515.898 278.282 515.884 277.876C515.87 277.26 515.842 276.672 515.884 276.084ZM518.292 276.826L519.286 275.356C518.572 274.838 516.836 273.886 515.828 273.452L514.932 274.838C515.884 275.272 517.48 276.182 518.292 276.826ZM522.632 272.43V274.236C523.052 274.208 523.654 274.194 524.13 274.194H528.708C529.198 274.194 529.744 274.208 530.22 274.236V272.43C529.744 272.5 529.184 272.542 528.708 272.542H524.13C523.654 272.542 523.08 272.5 522.632 272.43ZM521.008 276.014V277.848C521.4 277.82 521.946 277.792 522.352 277.792H526.202C526.146 278.968 525.908 280.018 525.334 280.886C524.774 281.712 523.794 282.51 522.8 282.888L524.438 284.078C525.684 283.448 526.762 282.37 527.252 281.39C527.756 280.41 528.064 279.234 528.148 277.792H531.522C531.914 277.792 532.446 277.806 532.796 277.834V276.014C532.432 276.07 531.816 276.098 531.522 276.098H522.352C521.918 276.098 521.428 276.07 521.008 276.014ZM531.06 271.464L529.94 271.926C530.318 272.458 530.752 273.298 531.046 273.872L532.166 273.382C531.9 272.864 531.41 271.982 531.06 271.464ZM532.712 270.834L531.606 271.296C531.984 271.828 532.432 272.64 532.726 273.228L533.846 272.738C533.594 272.248 533.076 271.366 532.712 270.834ZM535.288 276.518V278.716C535.806 278.674 536.744 278.646 537.542 278.646H545.06C545.648 278.646 546.362 278.702 546.698 278.716V276.518C546.334 276.546 545.718 276.602 545.06 276.602H537.542C536.814 276.602 535.792 276.56 535.288 276.518ZM555.966 271.912L553.936 271.282C553.81 271.758 553.516 272.402 553.292 272.738C552.592 273.956 551.29 275.874 548.84 277.4L550.352 278.562C551.766 277.582 553.068 276.238 554.048 274.936H558.052C557.842 275.804 557.24 277.022 556.512 278.03C555.63 277.442 554.748 276.868 554.006 276.448L552.76 277.722C553.474 278.17 554.398 278.8 555.308 279.472C554.146 280.634 552.592 281.768 550.17 282.51L551.794 283.924C553.978 283.098 555.574 281.908 556.806 280.606C557.38 281.068 557.898 281.502 558.276 281.852L559.606 280.27C559.2 279.934 558.654 279.528 558.052 279.094C559.046 277.694 559.746 276.196 560.124 275.062C560.25 274.712 560.432 274.334 560.586 274.068L559.158 273.186C558.85 273.284 558.374 273.34 557.94 273.34H555.098C555.266 273.032 555.616 272.402 555.966 271.912ZM568.804 271.772L566.956 271.618C566.928 272.122 566.83 272.668 566.676 273.228C566.452 273.228 566.214 273.228 566.004 273.228C565.29 273.228 564.254 273.172 563.54 273.06V274.698C564.31 274.754 565.332 274.782 565.906 274.782C565.962 274.782 566.018 274.782 566.088 274.782C565.458 276.042 564.464 277.288 562.994 278.646L564.492 279.766C564.968 279.15 565.374 278.646 565.794 278.226C566.326 277.708 567.194 277.26 567.978 277.26C568.37 277.26 568.748 277.386 568.958 277.736C567.362 278.562 565.682 279.682 565.682 281.474C565.682 283.28 567.306 283.812 569.504 283.812C570.82 283.812 572.542 283.7 573.466 283.574L573.522 281.768C572.29 282.006 570.736 282.16 569.546 282.16C568.174 282.16 567.516 281.95 567.516 281.18C567.516 280.48 568.076 279.934 569.126 279.332C569.112 279.948 569.098 280.62 569.056 281.04H570.736C570.722 280.396 570.694 279.36 570.68 278.576C571.534 278.184 572.332 277.876 572.962 277.624C573.438 277.442 574.18 277.162 574.628 277.036L573.928 275.412C573.41 275.678 572.92 275.902 572.374 276.14C571.8 276.392 571.212 276.63 570.484 276.966C570.176 276.252 569.476 275.888 568.622 275.888C568.16 275.888 567.404 276 567.04 276.168C567.32 275.762 567.6 275.258 567.838 274.74C569.35 274.698 571.072 274.586 572.402 274.39L572.416 272.766C571.184 272.976 569.784 273.102 568.454 273.172C568.636 272.584 568.734 272.122 568.804 271.772ZM582.776 273.466H583.266V274.558H587.396C587.158 276.126 586.738 277.526 586.192 278.73C585.604 277.498 585.184 276.084 584.904 274.586L583.308 274.908C583.742 277.022 584.344 278.898 585.198 280.452C584.512 281.404 583.7 282.16 582.776 282.678V273.466ZM579.178 279.178H581.166V280.438C580.494 280.522 579.822 280.62 579.178 280.704V279.178ZM579.178 276.294H581.166V277.694H579.178V276.294ZM581.166 273.466V274.796H579.178V273.466H581.166ZM588.138 272.878L587.858 272.92H583.672V271.926H576.644V273.466H577.596V280.9C577.12 280.956 576.686 280.998 576.308 281.04L576.63 282.706C577.918 282.51 579.556 282.258 581.166 281.978V284.218H582.776V282.902C583.112 283.238 583.49 283.756 583.7 284.12C584.652 283.546 585.478 282.846 586.192 281.978C586.864 282.832 587.648 283.546 588.6 284.12C588.852 283.686 589.37 283.056 589.748 282.748C588.74 282.202 587.9 281.418 587.214 280.48C588.264 278.604 588.936 276.196 589.23 273.144L588.138 272.878ZM600.92 273.41H597.28V272.71H600.92V273.41ZM600.92 275.23H597.28V274.502H600.92V275.23ZM602.6 271.548H595.67V276.392H602.6V271.548ZM593.262 271.156C592.674 272.094 591.442 273.228 590.35 273.9C590.602 274.25 591.008 274.936 591.176 275.314C592.492 274.46 593.92 273.088 594.844 271.8L593.262 271.156ZM593.626 274.208C592.814 275.58 591.442 276.938 590.196 277.806C590.448 278.212 590.868 279.164 590.994 279.528C591.414 279.206 591.834 278.814 592.254 278.394V284.204H593.864V276.602C594.326 276.014 594.746 275.426 595.082 274.838L593.626 274.208ZM603.342 279.164H601.438V278.366H603.062V277.008H594.956V278.366H599.744V279.164H594.62V280.578H596.58L595.544 281.264C596.132 281.852 596.846 282.678 597.154 283.21L598.4 282.328C598.05 281.838 597.364 281.11 596.804 280.578H599.744V282.524C599.744 282.678 599.688 282.734 599.492 282.748C599.31 282.748 598.652 282.748 598.064 282.72C598.274 283.14 598.512 283.756 598.582 284.204C599.534 284.204 600.234 284.204 600.752 283.966C601.298 283.728 601.438 283.336 601.438 282.566V280.578H603.356L603.342 279.164ZM609.194 271.898L606.94 271.87C607.066 272.43 607.122 273.102 607.122 273.76C607.122 274.964 606.982 278.646 606.982 280.522C606.982 282.916 608.466 283.924 610.762 283.924C613.954 283.924 615.942 282.048 616.838 280.704L615.564 279.164C614.556 280.69 613.086 282.02 610.776 282.02C609.684 282.02 608.844 281.558 608.844 280.144C608.844 278.408 608.956 275.272 609.012 273.76C609.04 273.2 609.11 272.486 609.194 271.898ZM621.57 283.966L623.068 282.678C622.368 281.81 621.01 280.424 620.016 279.612L618.56 280.872C619.526 281.712 620.716 282.916 621.57 283.966ZM636.536 275.202V274.054H637.586C637.334 274.46 637.082 274.838 636.816 275.202H636.536ZM637.628 279.878H635.374V278.996H637.628V279.878ZM635.374 282.132V281.138H637.628V282.132H635.374ZM644.418 271.856L644.166 271.912H640.134V272.178L638.664 271.772C638.454 272.318 638.244 272.85 637.978 273.34V272.626H636.536V271.268H634.996V272.626H633.162V274.054H634.996V275.202H632.56V276.658H635.542C634.562 277.596 633.442 278.366 632.196 278.968C632.504 279.304 632.98 280.004 633.162 280.354C633.386 280.228 633.624 280.088 633.862 279.934V284.176H635.374V283.462H637.628V283.994H639.21V277.68H636.69C636.998 277.344 637.292 277.022 637.586 276.658H639.672V275.202H638.636C639.224 274.292 639.714 273.284 640.134 272.22V284.204H641.772V273.48H643.536C643.2 274.558 642.724 275.972 642.304 276.98C643.438 278.058 643.76 279.08 643.76 279.85C643.76 280.312 643.662 280.648 643.396 280.802C643.256 280.886 643.046 280.928 642.836 280.928C642.584 280.928 642.29 280.928 641.954 280.9C642.206 281.348 642.36 282.062 642.374 282.51C642.808 282.538 643.27 282.538 643.592 282.496C643.97 282.44 644.32 282.314 644.572 282.118C645.132 281.754 645.356 281.068 645.356 280.018C645.356 279.122 645.118 278.016 643.928 276.77C644.502 275.538 645.118 273.956 645.622 272.612L644.418 271.856ZM649.178 273.886H659.272V272.402H654.302V271.156H652.566V272.402H647.582V276.322C647.582 278.366 647.498 281.278 646.336 283.266C646.714 283.434 647.414 283.896 647.694 284.176C648.968 282.02 649.178 278.59 649.178 276.322V273.886ZM655.534 276.378V277.302H652.986V276.378H655.534ZM657.186 278.562V276.378H659.202V275.062H657.186V274.138H655.534V275.062H652.986V274.138H651.418V275.062H649.528V276.378H651.418V278.562H657.186ZM656.052 280.424C655.59 280.872 655.016 281.264 654.372 281.572C653.714 281.25 653.154 280.872 652.734 280.424H656.052ZM657.466 279.052L657.172 279.122H649.626V280.424H651.712L651.054 280.662C651.502 281.264 652.048 281.782 652.664 282.216C651.558 282.538 650.326 282.734 649.038 282.846C649.29 283.196 649.584 283.826 649.71 284.246C651.376 284.036 652.944 283.7 654.316 283.154C655.534 283.7 656.962 284.064 658.572 284.26C658.782 283.826 659.216 283.182 659.552 282.832C658.292 282.72 657.13 282.524 656.108 282.23C657.116 281.558 657.942 280.69 658.502 279.57L657.466 279.052ZM670.122 274.432C670.122 273.942 670.514 273.536 671.004 273.536C671.494 273.536 671.9 273.942 671.9 274.432C671.9 274.922 671.494 275.314 671.004 275.314C670.514 275.314 670.122 274.922 670.122 274.432ZM669.198 274.432C669.198 275.44 669.996 276.238 671.004 276.238C672.012 276.238 672.824 275.44 672.824 274.432C672.824 273.424 672.012 272.612 671.004 272.612C669.996 272.612 669.198 273.424 669.198 274.432ZM660.49 279.01L662.17 280.746C662.422 280.382 662.758 279.892 663.08 279.444C663.64 278.688 664.634 277.302 665.18 276.602C665.586 276.098 665.88 276.07 666.328 276.518C666.832 277.036 668.078 278.394 668.89 279.36C669.716 280.326 670.906 281.768 671.844 282.93L673.384 281.278C672.306 280.13 670.878 278.576 669.94 277.582C669.1 276.672 668.022 275.552 667.084 274.67C665.992 273.648 665.166 273.802 664.34 274.782C663.374 275.93 662.282 277.302 661.652 277.946C661.218 278.366 660.91 278.674 660.49 279.01ZM675.288 276.518V278.716C675.806 278.674 676.744 278.646 677.542 278.646H685.06C685.648 278.646 686.362 278.702 686.698 278.716V276.518C686.334 276.546 685.718 276.602 685.06 276.602H677.542C676.814 276.602 675.792 276.56 675.288 276.518ZM697.947 272.248L696.771 272.738C697.275 273.452 697.597 274.054 698.003 274.936L699.221 274.418C698.899 273.774 698.339 272.836 697.947 272.248ZM699.865 271.576L698.675 272.066C699.193 272.766 699.543 273.312 699.991 274.194L701.181 273.662C700.845 273.046 700.299 272.136 699.865 271.576ZM691.857 271.982L690.849 273.522C691.773 274.04 693.229 274.978 694.013 275.524L695.049 273.984C694.321 273.466 692.781 272.486 691.857 271.982ZM689.267 281.922L690.317 283.756C691.549 283.532 693.565 282.832 694.993 282.034C697.275 280.704 699.263 278.94 700.551 276.994L699.473 275.09C698.367 277.092 696.407 279.01 694.027 280.34C692.515 281.18 690.835 281.656 689.267 281.922ZM689.701 275.174L688.693 276.714C689.631 277.218 691.087 278.156 691.885 278.716L692.907 277.148C692.193 276.644 690.653 275.678 689.701 275.174ZM708.531 271.772L706.683 271.618C706.655 272.122 706.557 272.668 706.403 273.228C706.179 273.228 705.941 273.228 705.731 273.228C705.017 273.228 703.981 273.172 703.267 273.06V274.698C704.037 274.754 705.059 274.782 705.633 274.782C705.689 274.782 705.745 274.782 705.815 274.782C705.185 276.042 704.191 277.288 702.721 278.646L704.219 279.766C704.695 279.15 705.101 278.646 705.521 278.226C706.053 277.708 706.921 277.26 707.705 277.26C708.097 277.26 708.475 277.386 708.685 277.736C707.089 278.562 705.409 279.682 705.409 281.474C705.409 283.28 707.033 283.812 709.231 283.812C710.547 283.812 712.269 283.7 713.193 283.574L713.249 281.768C712.017 282.006 710.463 282.16 709.273 282.16C707.901 282.16 707.243 281.95 707.243 281.18C707.243 280.48 707.803 279.934 708.853 279.332C708.839 279.948 708.825 280.62 708.783 281.04H710.463C710.449 280.396 710.421 279.36 710.407 278.576C711.261 278.184 712.059 277.876 712.689 277.624C713.165 277.442 713.907 277.162 714.355 277.036L713.655 275.412C713.137 275.678 712.647 275.902 712.101 276.14C711.527 276.392 710.939 276.63 710.211 276.966C709.903 276.252 709.203 275.888 708.349 275.888C707.887 275.888 707.131 276 706.767 276.168C707.047 275.762 707.327 275.258 707.565 274.74C709.077 274.698 710.799 274.586 712.129 274.39L712.143 272.766C710.911 272.976 709.511 273.102 708.181 273.172C708.363 272.584 708.461 272.122 708.531 271.772ZM721.243 278.772C721.019 278.38 719.983 276.77 719.591 276.224V275.566H720.991V274.026H719.591V271.142H718.079V274.026H716.399V275.566H717.953C717.603 277.218 716.861 279.164 716.077 280.256C716.315 280.634 716.651 281.264 716.805 281.726C717.281 281.026 717.715 280.046 718.079 278.968V284.204H719.591V278.24C719.899 278.87 720.207 279.528 720.389 279.962L721.243 278.772ZM725.821 280.802V280.13H727.067V280.802H725.821ZM723.133 280.13H724.323V280.802H723.133V280.13ZM724.323 278.45V279.052H723.133V278.45H724.323ZM727.067 278.45V279.052H725.821V278.45H727.067ZM724.309 275.006H725.849V275.594H724.309V275.006ZM724.309 273.312H725.849V273.886H724.309V273.312ZM729.363 280.802H728.607V277.302H725.821V276.77H729.223V275.594H727.403V275.006H728.747V273.886H727.403V273.312H728.971V272.164H727.403V271.142H725.849V272.164H724.309V271.142H722.769V272.164H721.327V273.312H722.769V273.886H721.621V275.006H722.769V275.594H721.033V276.77H724.323V277.302H721.635V280.802H720.781V282.02H721.635V284.106H723.133V282.02H727.067V282.608C727.067 282.776 727.011 282.818 726.829 282.818C726.661 282.818 726.087 282.832 725.569 282.804C725.751 283.182 725.933 283.728 726.003 284.12C726.885 284.12 727.543 284.106 728.005 283.896C728.467 283.672 728.607 283.322 728.607 282.622V282.02H729.363V280.802ZM732.807 273.424C733.059 273.858 733.311 274.348 733.409 274.698L734.753 274.306C734.669 274.068 734.501 273.746 734.319 273.424H736.279C736.097 273.592 735.915 273.746 735.733 273.886C736.125 274.054 736.853 274.432 737.189 274.684C737.567 274.348 737.945 273.914 738.295 273.424H739.065C739.387 273.844 739.695 274.348 739.835 274.684L741.249 274.278C741.137 274.04 740.941 273.732 740.717 273.424H743.167V272.122H739.107C739.233 271.884 739.345 271.646 739.443 271.408L737.861 271.03C737.567 271.8 737.091 272.556 736.531 273.158V272.122H733.409C733.535 271.898 733.647 271.674 733.745 271.45L732.191 271.03C731.771 272.066 730.987 273.102 730.147 273.774C730.525 273.97 731.183 274.418 731.491 274.684C731.855 274.348 732.233 273.914 732.583 273.424H732.807ZM739.947 275.86V277.274C739.569 276.91 739.023 276.504 738.575 276.182L737.875 276.784C737.889 276.588 737.903 276.406 737.903 276.21V275.86H739.947ZM743.069 280.956V279.654H737.525V278.814H736.727C737.343 278.338 737.665 277.75 737.805 277.148C738.323 277.568 738.883 278.086 739.163 278.45L739.961 277.736C739.989 278.268 740.087 278.492 740.269 278.688C740.507 278.926 740.885 279.024 741.235 279.024H741.921C742.159 279.024 742.467 278.982 742.663 278.884C742.873 278.772 743.027 278.59 743.125 278.338C743.209 278.114 743.265 277.54 743.307 277.008C742.971 276.882 742.481 276.658 742.229 276.434C742.215 276.882 742.201 277.246 742.173 277.4C742.145 277.568 742.103 277.652 742.061 277.68C742.019 277.722 741.963 277.722 741.893 277.722H741.669C741.613 277.722 741.571 277.708 741.543 277.652C741.501 277.61 741.515 277.47 741.515 277.232V274.768H736.391V276.168C736.391 276.672 736.293 277.176 735.803 277.624L735.761 276.938L734.025 277.19V275.986H735.775V274.838H730.749V275.986H732.513V277.4C731.729 277.512 731.015 277.61 730.427 277.68L730.609 278.996C731.743 278.814 733.171 278.604 734.627 278.38C734.949 278.618 735.467 279.136 735.649 279.416C735.747 279.374 735.831 279.346 735.915 279.304V279.654H730.413V280.956H734.697C733.521 281.684 731.785 282.258 730.147 282.524C730.483 282.86 730.931 283.49 731.169 283.882C732.877 283.476 734.641 282.678 735.915 281.656V284.176H737.525V281.684C738.813 282.706 740.563 283.476 742.257 283.84C742.495 283.434 742.971 282.776 743.321 282.426C741.627 282.188 739.835 281.656 738.631 280.956H743.069ZM748.921 271.898L746.667 271.87C746.793 272.43 746.849 273.102 746.849 273.76C746.849 274.964 746.709 278.646 746.709 280.522C746.709 282.916 748.193 283.924 750.489 283.924C753.681 283.924 755.669 282.048 756.565 280.704L755.291 279.164C754.283 280.69 752.813 282.02 750.503 282.02C749.411 282.02 748.571 281.558 748.571 280.144C748.571 278.408 748.683 275.272 748.739 273.76C748.767 273.2 748.837 272.486 748.921 271.898ZM758.297 273.368L758.479 275.286C760.103 274.936 762.959 274.628 764.275 274.488C763.337 275.202 762.203 276.798 762.203 278.814C762.203 281.838 764.975 283.42 767.901 283.616L768.559 281.698C766.193 281.572 764.037 280.732 764.037 278.436C764.037 276.77 765.297 274.95 766.991 274.502C767.733 274.334 768.937 274.334 769.693 274.32L769.679 272.528C768.699 272.556 767.159 272.654 765.717 272.766C763.155 272.99 760.845 273.2 759.683 273.298C759.403 273.326 758.857 273.354 758.297 273.368ZM775.461 274.236H774.887V273.116H775.461V274.236ZM776.707 278.1C776.679 278.086 776.651 278.058 776.637 278.044C776.609 278.086 776.581 278.086 776.455 278.086H776.203C776.105 278.086 776.091 278.072 776.091 277.89V275.622H776.707V278.1ZM773.459 281.964V281.012H776.707V281.964H773.459ZM774.075 275.622V276.714C774.075 277.344 774.005 278.114 773.459 278.716V275.622H774.075ZM776.581 278.898H776.707V279.864H773.459V278.758C773.641 278.87 773.921 279.136 774.047 279.276C774.691 278.548 774.845 277.512 774.845 276.728V275.622H775.321V277.89C775.321 278.716 775.503 278.898 776.105 278.898H776.581ZM771.919 273.116H773.809V274.236H772.185V284.134H773.459V283.252H776.707V283.952H778.037V274.236H776.567V273.116H778.289V271.646H771.933L771.919 273.116ZM781.145 282.468C780.599 282.468 780.515 282.398 780.515 281.81V277.596H782.769V278.464H784.379V271.772H778.807V273.382H782.769V276.014H778.863V281.824C778.863 283.546 779.353 284.022 780.907 284.022H782.853C784.295 284.022 784.743 283.308 784.911 280.942C784.477 280.844 783.777 280.55 783.413 280.284C783.329 282.132 783.245 282.468 782.713 282.468H781.145ZM797.651 271.688H791.239V272.99H797.651V271.688ZM788.887 271.17C788.131 273.158 786.843 275.146 785.513 276.406C785.793 276.798 786.227 277.708 786.381 278.1C786.773 277.708 787.165 277.274 787.543 276.784V284.176H789.125V274.376C789.629 273.494 790.063 272.57 790.427 271.674L788.887 271.17ZM796.419 280.97V282.342H792.387V280.97H796.419ZM790.791 284.204H792.387V283.644H796.419V284.162H798.099V279.682H790.791V284.204ZM791.015 278.996H797.847V277.694H791.015V278.996ZM797.903 275.706H791.015V276.994H797.903V275.706ZM789.909 273.676V275.02H798.869V273.676H789.909ZM808.445 271.716H806.415C806.457 271.884 806.513 272.36 806.555 272.934C806.569 273.046 806.569 273.186 806.583 273.368C804.679 273.396 802.131 273.452 800.535 273.452L800.577 275.146C802.299 275.048 804.483 274.964 806.597 274.936C806.611 275.244 806.611 275.566 806.611 275.874C806.429 275.846 806.247 275.832 806.051 275.832C804.525 275.832 803.251 276.868 803.251 278.45C803.251 280.158 804.581 281.026 805.659 281.026C805.883 281.026 806.093 280.998 806.289 280.956C805.519 281.796 804.287 282.258 802.873 282.552L804.371 284.036C807.787 283.084 808.851 280.76 808.851 278.94C808.851 278.212 808.683 277.554 808.347 277.022C808.347 276.406 808.333 275.636 808.333 274.922C810.237 274.922 811.539 274.95 812.379 274.992L812.393 273.34C811.665 273.326 809.747 273.354 808.333 273.354C808.347 273.186 808.347 273.032 808.347 272.92C808.361 272.696 808.417 271.94 808.445 271.716ZM804.931 278.422C804.931 277.68 805.463 277.302 806.009 277.302C806.387 277.302 806.723 277.47 806.919 277.792C807.115 279.024 806.597 279.472 806.009 279.472C805.449 279.472 804.931 279.066 804.931 278.422ZM818.763 281.348C818.763 280.998 819.099 280.676 819.631 280.676C820.387 280.676 820.905 281.264 820.989 282.174C820.737 282.202 820.471 282.216 820.177 282.216C819.337 282.216 818.763 281.866 818.763 281.348ZM816.383 272.332L816.439 274.152C816.761 274.11 817.209 274.068 817.587 274.04C818.329 273.998 820.261 273.914 820.975 273.9C820.289 274.502 818.833 275.678 818.049 276.322C817.223 277.008 815.529 278.436 814.535 279.234L815.809 280.55C817.307 278.842 818.707 277.708 820.849 277.708C822.501 277.708 823.761 278.562 823.761 279.822C823.761 280.676 823.369 281.32 822.599 281.726C822.403 280.396 821.353 279.332 819.617 279.332C818.133 279.332 817.111 280.382 817.111 281.516C817.111 282.916 818.581 283.812 820.527 283.812C823.915 283.812 825.595 282.062 825.595 279.85C825.595 277.806 823.789 276.322 821.409 276.322C820.961 276.322 820.541 276.364 820.079 276.476C820.961 275.776 822.431 274.544 823.187 274.012C823.509 273.774 823.845 273.578 824.167 273.368L823.257 272.122C823.089 272.178 822.767 272.22 822.193 272.276C821.395 272.346 818.399 272.402 817.657 272.402C817.265 272.402 816.775 272.388 816.383 272.332ZM830.005 279.528C828.773 279.528 827.751 280.55 827.751 281.796C827.751 283.042 828.773 284.064 830.005 284.064C831.265 284.064 832.273 283.042 832.273 281.796C832.273 280.55 831.265 279.528 830.005 279.528ZM830.005 283.056C829.333 283.056 828.759 282.496 828.759 281.796C828.759 281.096 829.333 280.536 830.005 280.536C830.705 280.536 831.265 281.096 831.265 281.796C831.265 282.496 830.705 283.056 830.005 283.056Z" fill="black"/>
<line x1="470.5" y1="216" x2="470.5" y2="261" stroke="#121212" stroke-width="3"/>
<line x1="470" y1="259.5" x2="501" y2="259.5" stroke="#121212" stroke-width="3"/>
</svg>
