<svg width="35" height="35" viewBox="0 0 35 35" fill="none" xmlns="http://www.w3.org/2000/svg">
<path d="M35 17.5C35 27.165 27.165 35 17.5 35C7.83502 35 0 27.165 0 17.5C0 7.83502 7.83502 0 17.5 0C27.165 0 35 7.83502 35 17.5Z" fill="#F4F4F4"/>
<path d="M18.0391 9.15399C12.8992 8.79107 8.65387 13.0364 9.01679 18.1763C9.32062 22.641 13.2199 26.0086 17.6931 26.0086H20.8074C21.2716 26.0086 21.6514 25.6288 21.6514 25.1646C21.6514 24.7004 21.2716 24.3206 20.8074 24.3206H17.7099C14.5618 24.3206 11.6754 22.2781 10.8905 19.2313C9.6329 14.3361 14.1905 9.77011 19.0857 11.0361C22.1409 11.8126 24.1834 14.699 24.1834 17.8472V18.7755C24.1834 19.4423 23.5842 20.1006 22.9174 20.1006C22.2506 20.1006 21.6514 19.4423 21.6514 18.7755V17.7206C21.6514 15.6021 20.1491 13.6947 18.056 13.3993C15.1864 12.9857 12.7641 15.4671 13.279 18.3535C13.5659 19.9656 14.8235 21.2991 16.4186 21.6789C17.9716 22.0418 19.4486 21.5439 20.4192 20.5564C21.1703 21.5861 22.6726 22.1262 24.0484 21.5776C25.1793 21.1303 25.8714 19.974 25.8714 18.7587V17.8387C25.8714 13.3571 22.5038 9.45783 18.0391 9.15399V9.15399ZM17.4314 20.1006C16.0304 20.1006 14.8994 18.9697 14.8994 17.5686C14.8994 16.1676 16.0304 15.0366 17.4314 15.0366C18.8325 15.0366 19.9634 16.1676 19.9634 17.5686C19.9634 18.9697 18.8325 20.1006 17.4314 20.1006Z" fill="#353349"/>
</svg>
