<svg width="35" height="35" viewBox="0 0 35 35" fill="none" xmlns="http://www.w3.org/2000/svg">
<mask id="mask0_26_3257" style="mask-type:alpha" maskUnits="userSpaceOnUse" x="0" y="0" width="35" height="35">
<circle cx="17.5" cy="17.5" r="17.5" fill="#C4C4C4"/>
</mask>
<g mask="url(#mask0_26_3257)">
<path d="M33.191 35.1378C34.2661 35.1378 35.1379 34.2661 35.1379 33.1909V1.80897C35.1379 0.733616 34.2661 -0.137939 33.191 -0.137939H1.80921C0.733722 -0.137939 -0.137695 0.733616 -0.137695 1.80897V33.1909C-0.137695 34.2661 0.733722 35.1378 1.80921 35.1378H33.191Z" fill="#395185"/>
<path d="M19.8779 35.1842V21.5236H24.4634L25.1499 16.1999H19.8779V12.8007C19.8779 11.2594 20.3061 10.2089 22.5165 10.2089L25.3356 10.2077V5.44619C24.8478 5.38129 23.1744 5.23633 21.2277 5.23633C17.163 5.23633 14.3803 7.71733 14.3803 12.2737V16.1999H9.7832V21.5236H14.3803V35.1842H19.8779Z" fill="white"/>
</g>
</svg>
