<svg width="115" height="22" viewBox="0 0 115 22" fill="none" xmlns="http://www.w3.org/2000/svg">
<path fill-rule="evenodd" clip-rule="evenodd" d="M19.0758 0C20.5809 0 21.8009 1.22008 21.8009 2.72512V19.0758C21.8009 20.5809 20.5809 21.8009 19.0758 21.8009H2.72512C1.22008 21.8009 0 20.5809 0 19.0758V2.72512C0 1.36256 1.36256 0 2.72512 0H19.0758ZM17.6448 9.937C17.1127 9.40489 16.25 9.40489 15.7178 9.937L10.5151 15.1398L9.7443 14.369L8.20274 15.9105L9.55161 17.2594C10.0837 17.7915 10.9464 17.7915 11.4786 17.2594L16.6813 12.0566L17.4521 12.8274L18.9937 11.2859L17.6448 9.937ZM14.5617 6.85388C14.0296 6.32177 13.1668 6.32177 12.6347 6.85388L5.8904 13.5982L7.43196 15.1398L13.5982 8.97352L14.369 9.7443L15.9105 8.20274L14.5617 6.85388ZM11.4786 3.77076C10.9464 3.23865 10.0837 3.23865 9.55161 3.77076L3.77076 9.55161C3.23865 10.0837 3.23865 10.9464 3.77076 11.4786L5.11962 12.8274L6.66118 11.2859L5.8904 10.5151L10.5151 5.8904L11.2859 6.66118L12.8274 5.11962L11.4786 3.77076Z" fill="#F4F4F4"/>
<path d="M29.7041 8.59353H32.659V9.6131C33.4644 8.84707 34.3678 8.46406 35.3691 8.46406C36.6098 8.46406 37.5567 8.98193 38.2097 10.0177C38.8736 8.97114 39.8205 8.44788 41.0504 8.44788C41.4422 8.44788 41.8122 8.50452 42.1605 8.61781C42.5088 8.73109 42.8081 8.90911 43.0584 9.15187C43.3088 9.39462 43.5074 9.7102 43.6543 10.0986C43.8013 10.487 43.8747 10.9563 43.8747 11.5066V16.8957H40.9198V12.8013C40.9198 12.3805 40.8899 12.0353 40.83 11.7655C40.7701 11.4958 40.6831 11.2854 40.5688 11.1344C40.4545 10.9833 40.3212 10.8808 40.1688 10.8269C40.0164 10.7729 39.8532 10.746 39.679 10.746C38.7322 10.746 38.2587 11.4311 38.2587 12.8013V16.8957H35.3038V12.8013C35.3038 12.3805 35.2766 12.0326 35.2222 11.7574C35.1677 11.4823 35.0888 11.2638 34.9854 11.102C34.882 10.9402 34.7487 10.8296 34.5855 10.7702C34.4222 10.7109 34.2317 10.6812 34.0141 10.6812C33.829 10.6812 33.6549 10.7082 33.4916 10.7621C33.3284 10.8161 33.1842 10.9213 33.059 11.0777C32.9338 11.2342 32.8359 11.4499 32.7652 11.7251C32.6944 12.0002 32.659 12.3589 32.659 12.8013V16.8957H29.7041V8.59353ZM49.0524 8.72039V17.1683H46.0548V8.72039H49.0524ZM57.5003 11.451C56.9758 11.099 56.4458 10.923 55.9101 10.923C55.62 10.923 55.3493 10.9725 55.0983 11.0715C54.8472 11.1705 54.6268 11.3108 54.4371 11.4923C54.2474 11.6738 54.0995 11.8883 53.9935 12.1358C53.8875 12.3833 53.8345 12.6611 53.8345 12.9691C53.8345 13.2661 53.8875 13.5383 53.9935 13.7859C54.0995 14.0334 54.2446 14.2479 54.4287 14.4294C54.6128 14.6109 54.8332 14.7512 55.0899 14.8502C55.3466 14.9492 55.62 14.9987 55.9101 14.9987C56.4792 14.9987 57.0093 14.8062 57.5003 14.4211V16.9622C56.7526 17.2813 56.044 17.4408 55.3745 17.4408C54.7495 17.4408 54.1553 17.3363 53.5917 17.1273C53.0282 16.9182 52.5316 16.6185 52.102 16.228C51.6723 15.8374 51.3292 15.3699 51.0725 14.8254C50.8158 14.2809 50.6875 13.6731 50.6875 13.0021C50.6875 12.331 50.8103 11.7178 51.0558 11.1622C51.3013 10.6067 51.6361 10.1282 52.0601 9.72668C52.4842 9.32516 52.9891 9.01165 53.575 8.78614C54.1609 8.56063 54.7886 8.44788 55.4581 8.44788C56.1947 8.44788 56.8754 8.60188 57.5003 8.9099V11.451ZM65.6307 8.44788C65.723 8.44788 65.8288 8.45897 65.9482 8.48116V11.3602C65.5575 11.1605 65.1342 11.0607 64.6783 11.0607C63.9946 11.0607 63.4818 11.2687 63.1399 11.6847C62.798 12.1008 62.6271 12.7082 62.6271 13.507V17.1683H59.6804V8.63094H62.6271V10.0289C62.9418 9.51851 63.3271 9.12742 63.783 8.8556C64.2388 8.58378 64.7706 8.44788 65.3784 8.44788H65.6307ZM47.6899 4.3602C48.5929 4.3602 49.325 5.09225 49.325 5.99527C49.325 6.8983 48.5929 7.63034 47.6899 7.63034C46.7869 7.63034 46.0548 6.8983 46.0548 5.99527C46.0548 5.09225 46.7869 4.3602 47.6899 4.3602ZM70.0359 12.7837C70.0359 13.0651 70.0875 13.3222 70.1908 13.5549C70.294 13.7876 70.4299 13.9905 70.5984 14.1637C70.7668 14.3368 70.9679 14.4721 71.2016 14.5695C71.4353 14.6669 71.6826 14.7157 71.9434 14.7157C72.2043 14.7157 72.4516 14.6669 72.6853 14.5695C72.919 14.4721 73.1201 14.3368 73.2885 14.1637C73.457 13.9905 73.5929 13.7876 73.6961 13.5549C73.7994 13.3222 73.851 13.0705 73.851 12.7999C73.851 12.5402 73.7994 12.294 73.6961 12.0613C73.5929 11.8286 73.457 11.6256 73.2885 11.4525C73.1201 11.2793 72.919 11.144 72.6853 11.0466C72.4516 10.9492 72.2043 10.9005 71.9434 10.9005C71.6826 10.9005 71.4353 10.9492 71.2016 11.0466C70.9679 11.144 70.7668 11.2793 70.5984 11.4525C70.4299 11.6256 70.294 11.8259 70.1908 12.0532C70.0875 12.2804 70.0359 12.524 70.0359 12.7837ZM66.7657 12.8709C66.7657 12.2507 66.8912 11.6713 67.1422 11.1327C67.3932 10.5941 67.7424 10.1262 68.1898 9.72908C68.6372 9.33193 69.1691 9.01911 69.7857 8.79062C70.4022 8.56212 71.0761 8.44788 71.8072 8.44788C72.5274 8.44788 73.1958 8.5594 73.8123 8.78246C74.4289 9.00551 74.9636 9.31561 75.4164 9.71276C75.8693 10.1099 76.2212 10.5832 76.4722 11.1327C76.7232 11.6822 76.8487 12.2888 76.8487 12.9525C76.8487 13.6162 76.7204 14.2228 76.464 14.7723C76.2076 15.3218 75.8556 15.7951 75.4082 16.1922C74.9608 16.5894 74.4234 16.8967 73.7959 17.1143C73.1685 17.332 72.4892 17.4408 71.7581 17.4408C71.0379 17.4408 70.3722 17.332 69.7611 17.1143C69.15 16.8967 68.6235 16.5866 68.1816 16.184C67.7396 15.7815 67.3932 15.3 67.1422 14.7396C66.8912 14.1793 66.7657 13.5564 66.7657 12.8709ZM88.0216 8.84637C87.2723 7.93708 86.3466 7.48245 85.2446 7.48245C84.7597 7.48245 84.3106 7.57009 83.8974 7.74537C83.4841 7.92066 83.1287 8.15893 82.8312 8.4602C82.5336 8.76147 82.2994 9.12025 82.1286 9.53656C81.9578 9.95286 81.8724 10.402 81.8724 10.8841C81.8724 11.377 81.9578 11.8317 82.1286 12.248C82.2994 12.6643 82.5364 13.0258 82.8394 13.3325C83.1425 13.6393 83.4979 13.8803 83.9056 14.0556C84.3134 14.2309 84.7542 14.3185 85.228 14.3185C86.2639 14.3185 87.1951 13.8803 88.0216 13.0039V16.8163L87.691 16.9313C87.1951 17.1066 86.7323 17.2354 86.3025 17.3175C85.8727 17.3997 85.4484 17.4408 85.0297 17.4408C84.1701 17.4408 83.3464 17.2792 82.5584 16.956C81.7705 16.6328 81.0762 16.1782 80.4756 15.5921C79.875 15.006 79.3929 14.3103 79.0292 13.5051C78.6656 12.6999 78.4837 11.8207 78.4837 10.8676C78.4837 9.91451 78.6628 9.04083 79.021 8.24657C79.3791 7.45231 79.8585 6.76762 80.4591 6.19246C81.0597 5.61731 81.7567 5.16815 82.5501 4.84497C83.3436 4.52179 84.1756 4.3602 85.0462 4.3602C85.5421 4.3602 86.0298 4.41224 86.5091 4.51631C86.9885 4.62039 87.4927 4.78198 88.0216 5.00108V8.84637ZM89.3842 17.1683L91.4882 4.90522H94.677L97.159 11.4433L99.6246 4.90522H102.813L104.917 17.1683H101.712L100.644 10.1097L97.7179 17.1683H96.4358L93.6579 10.1097L92.5895 17.1683H89.3842ZM113.187 7.87683C112.832 7.592 112.477 7.38111 112.123 7.24417C111.768 7.10723 111.424 7.03876 111.091 7.03876C110.67 7.03876 110.326 7.13735 110.06 7.33455C109.794 7.53175 109.661 7.78919 109.661 8.10689C109.661 8.326 109.727 8.50676 109.86 8.64918C109.993 8.7916 110.168 8.91484 110.384 9.01892C110.6 9.123 110.844 9.21338 111.116 9.29006C111.388 9.36675 111.657 9.44891 111.923 9.53656C112.988 9.88713 113.767 10.3555 114.26 10.9416C114.754 11.5277 115 12.2918 115 13.234C115 13.8694 114.892 14.4445 114.676 14.9594C114.46 15.4743 114.144 15.9152 113.728 16.2823C113.312 16.6493 112.802 16.9341 112.197 17.1368C111.593 17.3394 110.908 17.4408 110.143 17.4408C108.557 17.4408 107.088 16.9752 105.735 16.044L107.132 13.4476C107.62 13.8748 108.103 14.1925 108.579 14.4007C109.056 14.6088 109.528 14.7129 109.993 14.7129C110.526 14.7129 110.922 14.5924 111.183 14.3514C111.443 14.1104 111.574 13.8365 111.574 13.5297C111.574 13.3435 111.54 13.1819 111.474 13.045C111.407 12.908 111.296 12.782 111.141 12.667C110.986 12.552 110.783 12.4452 110.534 12.3466C110.284 12.248 109.982 12.1384 109.627 12.0179C109.206 11.8865 108.793 11.7413 108.388 11.5824C107.983 11.4236 107.623 11.2127 107.307 10.9498C106.991 10.6869 106.736 10.3555 106.542 9.95559C106.348 9.55572 106.251 9.04905 106.251 8.43555C106.251 7.82205 106.353 7.26608 106.558 6.76762C106.763 6.26915 107.052 5.8419 107.423 5.48585C107.795 5.1298 108.249 4.85319 108.787 4.65599C109.325 4.4588 109.927 4.3602 110.592 4.3602C111.213 4.3602 111.862 4.4451 112.538 4.61491C113.215 4.78472 113.864 5.03395 114.485 5.3626L113.187 7.87683Z" fill="#F4F4F4"/>
</svg>
