<svg width="60" height="36" viewBox="0 0 60 36" fill="none" xmlns="http://www.w3.org/2000/svg">
<path d="M14.1562 9.375H25.4531V10.2656H15.1875V17.0156H24.8438V17.9062H15.1875V25.3125H25.5938V26.2031H14.1562V9.375ZM26.4844 9.375H27.7031L33.0469 16.7812L38.4375 9.375L45.8438 0L33.6562 17.5781L39.9375 26.2031H38.6719L33 18.3281L27.2812 26.2031H26.0625L32.3906 17.5781L26.4844 9.375V9.375ZM40.4062 10.2656V9.375H53.2969V10.2656H47.3438V26.2031H46.3125V10.2656H40.4062ZM0 9.375H1.26562L19.1719 36L11.7656 26.2031L1.07812 10.6406L1.03125 26.2031H0V9.375ZM53.2031 25.0312C53.4375 25.0312 53.5781 24.8906 53.5781 24.6562C53.5781 24.4219 53.4375 24.2812 53.2031 24.2812C52.9688 24.2812 52.8281 24.4219 52.8281 24.6562C52.8281 24.8906 53.0156 25.0312 53.2031 25.0312ZM54.2344 24.0469C54.2344 24.6562 54.7031 25.0781 55.3594 25.0781C56.0625 25.0781 56.4844 24.6562 56.4844 23.9062V21.3281H55.9219V23.9062C55.9219 24.3281 55.7344 24.5156 55.3594 24.5156C55.0312 24.5156 54.7969 24.3281 54.7969 24H54.2344V24.0469ZM57.1875 24C57.2344 24.6562 57.75 25.0781 58.5938 25.0781C59.4375 25.0781 60 24.6562 60 23.9531C60 23.3906 59.6719 23.1094 58.9688 22.9219L58.5469 22.8281C58.0781 22.7344 57.8906 22.5469 57.8906 22.3125C57.8906 21.9844 58.1719 21.75 58.6406 21.75C59.0625 21.75 59.3438 21.9375 59.3906 22.3125H59.9531C59.9062 21.7031 59.3906 21.2812 58.6406 21.2812C57.8438 21.2812 57.3281 21.7031 57.3281 22.3594C57.3281 22.875 57.6094 23.2031 58.2656 23.3437L58.7344 23.4375C59.2031 23.5312 59.4375 23.7187 59.4375 24C59.4375 24.3281 59.1094 24.5625 58.6406 24.5625C58.1719 24.5625 57.7969 24.3281 57.75 24H57.1875V24Z" fill="#F4F4F4"/>
</svg>
