<svg width="249" height="137" viewBox="0 0 249 137" fill="none" xmlns="http://www.w3.org/2000/svg">
<path d="M160.261 91.5532L242.134 46.7165C245.933 44.6216 245.395 39.0425 241.266 37.7116L152.338 9.33401C148.971 8.22601 145.63 10.9683 145.964 14.4431L148.09 37.0091C148.325 39.4561 150.339 41.386 152.814 41.4439L222.858 44.0297L154.592 59.8942C152.178 60.4726 150.57 62.7515 150.806 65.1985L153.029 87.7551C153.364 91.2299 157.168 93.2837 160.261 91.5532Z" fill="#F4F4F4"/>
<path d="M0.999701 84.6888C48.7193 96.3116 156.618 16.9921 86.028 39.3128C15.4376 61.6335 119.423 79.4742 143.439 51.4435" stroke="#1EA7E2" stroke-linejoin="round"/>
</svg>
