<svg width="35" height="35" viewBox="0 0 35 35" fill="none" xmlns="http://www.w3.org/2000/svg">
<path d="M35 17.5C35 27.165 27.165 35 17.5 35C7.83502 35 0 27.165 0 17.5C0 7.83502 7.83502 0 17.5 0C27.165 0 35 7.83502 35 17.5Z" fill="#55ACEE"/>
<g clip-path="url(#clip0_26_3221)">
<path d="M28.0824 10.9896C27.3067 11.3336 26.4731 11.5661 25.5981 11.6707C26.4912 11.1354 27.177 10.2877 27.4999 9.27775C26.6642 9.77337 25.7385 10.1333 24.7533 10.3274C23.9643 9.48673 22.8402 8.96143 21.5962 8.96143C19.2074 8.96143 17.2707 10.898 17.2707 13.2866C17.2707 13.6256 17.3091 13.9558 17.3828 14.2723C13.788 14.0919 10.6009 12.37 8.46764 9.75316C8.09534 10.392 7.88204 11.135 7.88204 11.9276C7.88204 13.4282 8.6457 14.7521 9.80628 15.5277C9.09721 15.5053 8.43032 15.3107 7.8471 14.9868C7.8468 15.0048 7.8468 15.0229 7.8468 15.0411C7.8468 17.1368 9.33773 18.885 11.3164 19.2823C10.9534 19.3811 10.5713 19.434 10.1768 19.434C9.89812 19.434 9.62714 19.4069 9.3631 19.3564C9.91347 21.0748 11.5108 22.3253 13.4035 22.3602C11.9232 23.5203 10.0582 24.2118 8.03179 24.2118C7.6827 24.2118 7.33838 24.1913 7 24.1514C8.91414 25.3786 11.1877 26.0946 13.6303 26.0946C21.5861 26.0946 25.9366 19.5038 25.9366 13.7882C25.9366 13.6006 25.9324 13.4141 25.9241 13.2286C26.7691 12.6188 27.5025 11.857 28.0824 10.9896Z" fill="white"/>
</g>
<defs>
<clipPath id="clip0_26_3221">
<rect width="21.0824" height="17.2118" fill="white" transform="translate(7 8.89404)"/>
</clipPath>
</defs>
</svg>
