<svg width="89" height="21" viewBox="0 0 89 21" fill="none" xmlns="http://www.w3.org/2000/svg">
<path d="M44.3993 5.81041C40.9239 5.81041 38.4181 8.07696 38.4181 11.4768C38.4181 14.8766 41.2387 17.1432 44.7141 17.1432C46.8138 17.1432 48.6648 16.3121 49.8107 14.9113L47.4024 13.5198C46.7666 14.2155 45.8001 14.6216 44.7141 14.6216C43.2062 14.6216 41.9249 13.8346 41.4496 12.5754H50.2703C50.3395 12.2229 50.3804 11.8577 50.3804 11.4736C50.3804 8.07696 47.8746 5.81041 44.3993 5.81041ZM41.4213 10.375C41.8148 9.11895 42.8914 8.3288 44.3961 8.3288C45.904 8.3288 46.9806 9.11895 47.371 10.375H41.4213ZM78.2968 5.81041C74.8214 5.81041 72.3156 8.07696 72.3156 11.4768C72.3156 14.8766 75.1362 17.1432 78.6116 17.1432C80.7113 17.1432 82.5624 16.3121 83.7082 14.9113L81.3 13.5198C80.6641 14.2155 79.6977 14.6216 78.6116 14.6216C77.1037 14.6216 75.8225 13.8346 75.3472 12.5754H84.1678C84.2371 12.2229 84.278 11.8577 84.278 11.4736C84.278 8.07696 81.7722 5.81041 78.2968 5.81041ZM75.322 10.375C75.7155 9.11895 76.7921 8.3288 78.2968 8.3288C79.8047 8.3288 80.8813 9.11895 81.2717 10.375H75.322ZM63.0354 11.4768C63.0354 13.3656 64.2694 14.6248 66.1834 14.6248C67.4803 14.6248 68.4531 14.0361 68.9536 13.076L71.3713 14.4705C70.3702 16.139 68.494 17.1432 66.1834 17.1432C62.7048 17.1432 60.2022 14.8766 60.2022 11.4768C60.2022 8.07696 62.708 5.81041 66.1834 5.81041C68.494 5.81041 70.367 6.81462 71.3713 8.48305L68.9536 9.87761C68.4531 8.91747 67.4803 8.3288 66.1834 8.3288C64.2725 8.3288 63.0354 9.588 63.0354 11.4768ZM89 2.34762V16.8284H86.1668V2.34762H89ZM11.6318 0.773621L23.2637 20.9208H0L11.6318 0.773621ZM40.713 2.34762L31.9899 17.458L23.2668 2.34762H26.5376L31.9899 11.7916L37.4422 2.34762H40.713ZM59.2578 6.12521V9.17561C58.943 9.08432 58.6093 9.02136 58.2504 9.02136C56.4214 9.02136 55.1024 10.2806 55.1024 12.1693V16.8284H52.2692V6.12521H55.1024V9.02136C55.1024 7.42218 56.9629 6.12521 59.2578 6.12521Z" fill="#F4F4F4"/>
</svg>
