<svg width="1506" height="502" viewBox="0 0 1506 502" fill="none" xmlns="http://www.w3.org/2000/svg">
<path fill-rule="evenodd" clip-rule="evenodd" d="M50.8606 11.0875L550.118 12.5207L548.754 487.519L49.497 486.086L50.4617 150.022C51.726 149.036 52.7817 147.855 53.6288 146.477C54.793 144.532 55.3785 142.401 55.3851 140.083C55.3937 137.082 54.8214 134.657 53.668 132.811C52.855 131.509 51.8057 130.455 50.5202 129.649L50.5431 121.663L51.567 121.665L51.5935 112.422L50.5697 112.42L50.8606 11.0875ZM50.5697 112.42L50.5431 121.663L33.7131 121.614C32.9231 121.612 32.2113 121.873 31.5778 122.398C30.9969 122.923 30.7053 123.607 30.7029 124.45C30.7005 125.292 30.9881 126.004 31.5658 126.585C32.1436 127.113 32.8538 127.379 33.6965 127.381L41.2805 127.403C44.1771 127.411 46.6775 127.866 48.7816 128.767C49.4025 129.018 49.9821 129.312 50.5202 129.649L50.4617 150.022C49.9886 150.391 49.4862 150.732 48.9546 151.046C47.0028 152.146 44.8156 152.693 42.3929 152.686L21.695 152.627L21.7215 143.384L41.3924 143.44C42.0244 143.442 42.5778 143.312 43.0526 143.05C43.58 142.788 43.976 142.421 44.2407 141.948C44.5581 141.474 44.7176 140.948 44.7193 140.369C44.7211 139.737 44.5647 139.183 44.25 138.709C43.9881 138.234 43.5941 137.864 43.0682 137.599C42.5951 137.282 42.0426 137.122 41.4106 137.12L33.8266 137.099C31.2459 137.091 28.9034 136.689 26.799 135.893C24.7475 135.045 23.0922 133.723 21.8334 131.929C20.6274 130.082 20.0286 127.684 20.037 124.735C20.0435 122.47 20.6024 120.418 21.7137 118.578C22.8778 116.685 24.4095 115.188 26.3086 114.088C28.2606 112.935 30.3953 112.362 32.7126 112.368L50.5697 112.42ZM125.685 354.686C136.009 374.222 149.495 391.882 165.572 406.966C165.546 406.969 165.52 406.971 165.493 406.973C165.471 406.975 165.448 406.977 165.426 406.978C165.223 406.991 163.85 406.01 162.935 404.976C162.757 404.785 162.559 404.622 162.345 404.446C161.931 404.105 161.456 403.714 160.944 402.975C160.811 402.783 160.632 402.665 160.433 402.533C160.118 402.326 159.755 402.086 159.45 401.474C153.2 395.658 151.156 425.897 149.456 451.04C148.337 467.602 147.367 481.953 145.443 482.332C142.387 483.432 142.786 475.307 143.395 462.894C143.881 452.978 144.502 440.326 143.604 427.456C141.593 398.673 131.366 365.822 125.264 354.276L301.86 261.111L478.456 167.946C477.829 168.363 477.204 168.911 476.584 169.566L302.281 261.521L125.685 354.686ZM476.584 169.566L478.877 168.356C491.122 191.527 498.68 216.88 501.119 242.968C503.558 269.057 500.83 295.37 493.09 320.405C485.351 345.44 472.751 368.707 456.012 388.877C439.273 409.047 418.721 425.726 395.53 437.961C372.339 450.195 346.963 457.746 320.851 460.183C294.739 462.619 268.403 459.893 243.346 452.16C218.288 444.428 195 431.84 174.812 415.115C171.645 412.491 168.563 409.773 165.572 406.966C172.998 406.249 179.197 387.045 179.108 380.67C179.003 373.098 184.644 365.222 184.644 365.222C192.119 358.106 194.144 364.875 195.691 370.049C196.631 373.191 197.395 375.745 199.097 374.242C200.455 373.043 202.501 369.307 204.956 364.824C210.645 354.437 218.532 340.038 225.146 343.889C231.844 347.789 231.099 362.092 230.743 368.938C230.595 371.771 230.514 373.327 231.055 372.339C232.542 369.623 234.025 359.736 235.626 349.062C237.698 335.256 239.967 320.132 242.696 317.503C254.076 306.54 260.824 341.2 265.549 365.467C267.684 376.43 269.405 385.272 270.954 386.829C272.292 388.173 272.851 384.361 273.708 378.524C276.04 362.633 280.575 331.734 309.007 349.028C335.661 365.241 337.09 338.618 338.091 319.964C338.549 311.412 338.918 304.535 341.587 304.229C342.376 304.133 343.541 303.319 344.934 302.347C350.6 298.392 360.024 291.815 363.086 320.252C366.902 355.679 386.338 304.357 378.085 286.376C369.832 268.395 372.267 239.268 373.73 237.978C375.009 236.85 377.113 234.852 379.627 232.463L379.629 232.462L379.631 232.46C389.51 223.076 405.738 207.661 403.329 215.207C401.806 219.979 403.545 218.404 406.284 215.924C408.98 213.483 412.645 210.164 415.119 211.161C417.564 212.147 418.448 213.607 419.301 215.018C420.188 216.485 421.043 217.898 423.585 218.668C425.571 218.048 430.776 211.961 436.05 205.793L436.05 205.792L436.05 205.792C441.484 199.437 446.99 192.997 449.123 192.365C455.921 190.351 458.305 195.06 459.539 197.497C459.988 198.385 460.285 198.971 460.587 198.821C461.781 198.23 463.649 194.023 465.945 188.852L465.945 188.852L465.945 188.851C468.945 182.096 472.674 173.696 476.584 169.566ZM100.148 236.568C100.759 262.763 106.528 288.581 117.126 312.548L117.126 312.549L117.126 312.549L117.126 312.548C127.464 306.224 135.11 302.975 139.972 300.909L139.973 300.909C141.589 300.222 142.897 299.666 143.894 299.172C145.996 298.13 147.133 296.672 148.03 295.523C148.84 294.486 149.452 293.701 150.4 293.703C152.397 293.709 173.886 286.787 186.891 278.345C191.633 275.266 196.161 273.852 200.878 272.379C209.097 269.812 217.89 267.065 229.395 255.023C232.989 251.26 228.914 249.197 226.47 247.959C225.14 247.286 224.293 246.857 225.425 246.531C227.988 245.795 232.26 245.948 237.446 246.133L237.446 246.133L237.447 246.133C246.978 246.474 259.598 246.926 270.371 242.171C279.924 237.954 286.072 234.498 291.811 231.271L291.811 231.271C300.484 226.395 308.222 222.045 325.364 216.39C340.406 216.04 321.633 206.46 310.927 200.997L310.926 200.997C307.284 199.138 304.575 197.756 304.449 197.375C304.33 197.013 307.013 197.944 311.192 199.393C324.284 203.935 352.058 213.57 354.355 204.502C356.435 196.288 350.968 193.696 346.855 191.747C344.978 190.857 343.383 190.101 342.917 189.006C342.362 187.703 346.103 188.561 351.687 189.842C361.083 191.997 375.696 195.348 383.848 191.617C396.846 185.669 482.467 151.288 482.467 151.288L482.468 151.288C471.869 127.321 456.65 105.673 437.679 87.5826C418.707 69.4917 396.355 55.3114 371.899 45.8511C347.442 36.3909 321.36 31.8361 295.142 32.4467C268.924 33.0573 243.082 38.8214 219.094 49.41C195.105 59.9985 173.439 75.2041 155.332 94.1585C141.8 108.324 130.454 124.376 121.632 141.783C121.583 141.578 121.558 141.364 121.559 141.142L121.614 121.867L132.911 121.899L132.938 112.656L121.641 112.624L121.67 102.512L110.847 102.481L110.818 112.593L103.945 112.573L103.918 121.816L110.791 121.835L110.735 141.427C110.725 144.956 111.718 147.75 113.713 149.81C114.61 150.712 115.654 151.417 116.845 151.926C115.695 154.551 114.601 157.203 113.564 159.88C104.095 184.314 99.5363 210.373 100.148 236.568ZM116.845 151.926C118.346 148.498 119.943 145.116 121.632 141.783C121.734 142.212 121.945 142.604 122.265 142.961C122.79 143.437 123.395 143.676 124.08 143.678L132.849 143.703L132.822 152.946L122.157 152.915C120.144 152.909 118.373 152.58 116.845 151.926ZM100.81 349.195L515.117 139.779L516.472 142.455L102.165 351.872L100.81 349.195ZM135.159 246.45C137.003 247.538 139.459 248.527 142.545 248.828C143.457 248.917 144.155 249.733 144.014 250.639C143.905 251.337 143.326 251.864 142.625 251.955C140.035 252.292 136.007 253.203 132.008 254.202C127.978 255.209 124.841 250.459 127.436 247.216C129.192 245.022 132.739 245.021 135.159 246.45ZM190.393 227.624C191.338 228.246 192.575 227.47 192.431 226.348C192.379 225.935 192.141 225.574 191.782 225.363C189.445 223.988 180.079 218.322 167.541 208.634C157.164 200.615 150.675 194.525 147.812 191.698C146.821 190.719 145.252 190.58 144.129 191.405C142.662 192.483 142.638 194.661 144.087 195.763C148.671 199.245 157.818 206.099 164.837 210.764C172.429 215.809 185.125 224.161 190.393 227.624ZM200.598 241.174C200.884 241.651 200.48 242.244 199.932 242.15C196.879 241.629 189.519 240.37 185.108 239.594C182.858 239.198 178.336 239.3 173.698 239.566C170.748 239.735 169.54 235.542 172.172 234.198C173.038 233.757 174.081 233.813 174.947 234.254C176.697 235.146 180.202 236.675 185.905 238.103C193.457 239.994 198.789 240.701 200.111 240.859C200.315 240.883 200.493 240.999 200.598 241.174ZM186.326 413.931C190.675 400.15 195.448 382.938 194.142 377.378C194.054 377.004 193.985 376.644 193.988 376.259C194.016 372.829 195.469 372.709 195.624 376.135C196.252 389.959 196.308 409.337 196.309 415.759C196.309 417.139 195.725 418.45 194.705 419.38C190.904 422.845 184.778 418.836 186.326 413.931ZM84.1171 152.806C79.5351 152.793 75.5349 151.912 72.1166 150.165C68.7511 148.364 66.1247 145.934 64.2375 142.874C62.4029 139.814 61.4911 136.388 61.502 132.596C61.5142 128.33 62.3939 124.62 64.141 121.465C65.888 118.31 68.265 115.867 71.272 114.138C74.279 112.409 77.6785 111.549 81.4705 111.56C85.9998 111.573 89.6574 112.532 92.4432 114.436C95.2818 116.34 97.3548 118.9 98.6622 122.117C99.9698 125.28 100.618 128.811 100.607 132.708C100.605 133.235 100.577 133.867 100.522 134.604C100.468 135.289 100.387 135.815 100.281 136.183L73.026 136.105C73.4426 137.739 74.1497 139.11 75.1472 140.219C76.1973 141.328 77.4852 142.175 79.0109 142.758C80.5894 143.29 82.3529 143.558 84.3016 143.564L95.5196 143.596L95.493 152.839L84.1171 152.806ZM72.9678 128.837L89.7948 128.885C89.6923 127.884 89.5106 126.962 89.2497 126.119C88.9889 125.223 88.6225 124.432 88.1505 123.745C87.6785 123.059 87.1271 122.479 86.4965 122.003C85.8659 121.527 85.1296 121.156 84.2877 120.89C83.4458 120.625 82.5245 120.49 81.5238 120.487C80.2072 120.484 79.0215 120.717 77.9668 121.188C76.9648 121.659 76.1203 122.289 75.4334 123.077C74.7464 123.865 74.1909 124.759 73.7667 125.758C73.3951 126.758 73.1288 127.784 72.9678 128.837ZM141.275 152.97L141.301 143.727L160.972 143.784C161.604 143.785 162.157 143.655 162.632 143.393C163.16 143.132 163.556 142.764 163.82 142.291C164.138 141.818 164.297 141.291 164.299 140.712C164.301 140.08 164.144 139.527 163.83 139.052C163.568 138.577 163.174 138.207 162.648 137.942C162.175 137.625 161.622 137.465 160.99 137.464L153.406 137.442C150.826 137.434 148.483 137.033 146.379 136.237C144.327 135.388 142.672 134.067 141.413 132.272C140.207 130.426 139.608 128.028 139.617 125.078C139.623 122.814 140.182 120.761 141.293 118.921C142.457 117.028 143.989 115.532 145.888 114.431C147.84 113.278 149.975 112.705 152.292 112.712L171.173 112.766L171.147 122.009L153.293 121.957C152.503 121.955 151.791 122.216 151.157 122.741C150.577 123.266 150.285 123.95 150.282 124.793C150.28 125.636 150.568 126.347 151.145 126.928C151.723 127.457 152.433 127.722 153.276 127.724L160.86 127.746C163.757 127.755 166.257 128.209 168.361 129.111C170.465 129.959 172.094 131.307 173.248 133.154C174.401 135 174.973 137.425 174.965 140.427C174.958 142.744 174.373 144.875 173.208 146.821C172.044 148.713 170.486 150.236 168.534 151.389C166.582 152.49 164.395 153.036 161.972 153.03L141.275 152.97ZM203.062 154.095C198.954 154.084 195.428 153.257 192.483 151.616C189.538 149.975 187.28 147.783 185.708 145.04C184.188 142.297 183.433 139.266 183.443 135.948L183.509 112.801L194.332 112.832L194.266 135.979C194.261 137.612 194.652 139.114 195.438 140.486C196.224 141.804 197.274 142.861 198.589 143.655C199.956 144.449 201.456 144.848 203.088 144.853C204.721 144.857 206.197 144.466 207.516 143.68C208.887 142.894 209.97 141.844 210.764 140.53C211.558 139.162 211.957 137.663 211.962 136.03L212.028 112.883L222.851 112.914L222.785 136.061C222.775 139.379 221.977 142.405 220.389 145.139C218.854 147.873 216.609 150.053 213.655 151.677C210.754 153.301 207.223 154.107 203.062 154.095ZM233 153.233L233.066 130.087C233.076 126.769 233.848 123.742 235.383 121.008C236.971 118.274 239.242 116.095 242.196 114.471C245.15 112.846 248.681 112.04 252.789 112.052C256.95 112.064 260.476 112.89 263.368 114.531C266.313 116.173 268.545 118.365 270.064 121.108C271.636 123.851 272.418 126.881 272.408 130.199L272.342 153.346L261.519 153.315L261.585 130.168C261.59 128.536 261.199 127.06 260.413 125.741C259.627 124.369 258.55 123.287 257.183 122.493C255.869 121.699 254.395 121.3 252.763 121.295C251.13 121.29 249.628 121.681 248.256 122.467C246.937 123.253 245.881 124.33 245.087 125.697C244.293 127.011 243.894 128.485 243.889 130.118L243.823 153.264L233 153.233ZM298.482 154.369C294.796 154.359 291.586 153.402 288.853 151.498C286.119 149.594 283.994 147.06 282.475 143.895C281.01 140.679 280.283 137.148 280.294 133.303C280.305 129.353 281.158 125.774 282.853 122.566C284.6 119.359 287.082 116.838 290.3 115.004C293.519 113.117 297.366 112.18 301.843 112.193C306.372 112.206 310.187 113.165 313.289 115.07C316.391 116.975 318.754 119.536 320.377 122.753C322.001 125.97 322.807 129.528 322.796 133.425L322.738 153.491L311.915 153.46L311.934 146.745L311.776 146.745C310.982 148.164 309.978 149.452 308.763 150.607C307.601 151.762 306.177 152.68 304.489 153.36C302.802 154.039 300.8 154.376 298.482 154.369ZM301.59 145.135C303.697 145.141 305.515 144.62 307.045 143.571C308.576 142.522 309.739 141.103 310.534 139.315C311.382 137.474 311.809 135.448 311.815 133.236C311.821 131.024 311.406 129.047 310.568 127.307C309.783 125.514 308.629 124.089 307.104 123.031C305.58 121.973 303.765 121.441 301.658 121.435C299.499 121.429 297.627 121.95 296.044 122.999C294.514 124.048 293.325 125.467 292.477 127.255C291.682 128.991 291.282 130.965 291.275 133.177C291.269 135.389 291.658 137.417 292.443 139.263C293.28 141.056 294.461 142.481 295.986 143.539C297.562 144.597 299.431 145.129 301.59 145.135ZM573.116 281.864L573.116 299L611.488 299C615.98 299 620.032 297.975 623.644 295.924C627.257 293.776 630.138 290.945 632.286 287.43C634.434 283.817 635.508 279.863 635.508 275.566C635.508 270.001 634.434 265.509 632.286 262.092C630.138 258.675 627.111 256.185 623.205 254.623C619.299 252.963 614.662 252.133 609.291 252.133L595.231 252.133C593.669 252.133 592.351 251.645 591.277 250.668C590.203 249.594 589.666 248.276 589.666 246.714C589.666 245.152 590.203 243.882 591.277 242.906C592.448 241.929 593.767 241.441 595.231 241.441L628.331 241.441L628.331 224.305L593.327 224.305C589.031 224.305 585.077 225.379 581.464 227.528C577.949 229.578 575.117 232.361 572.969 235.876C570.919 239.293 569.894 243.101 569.894 247.3C569.894 252.767 571.017 257.21 573.262 260.627C575.606 263.947 578.681 266.388 582.489 267.95C586.395 269.415 590.74 270.147 595.524 270.147L609.584 270.147C610.756 270.147 611.781 270.44 612.66 271.026C613.636 271.514 614.369 272.198 614.857 273.077C615.443 273.955 615.736 274.981 615.736 276.152C615.736 277.226 615.443 278.203 614.857 279.081C614.369 279.96 613.636 280.644 612.66 281.132C611.781 281.62 610.756 281.864 609.584 281.864L573.116 281.864ZM666.58 294.167C672.927 297.389 680.347 299 688.842 299L709.932 299L709.932 281.864L689.135 281.864C685.522 281.864 682.251 281.376 679.322 280.4C676.491 279.326 674.098 277.763 672.146 275.713C670.29 273.662 668.972 271.124 668.191 268.097L718.72 268.097C718.915 267.413 719.062 266.437 719.159 265.168C719.257 263.801 719.306 262.629 719.306 261.653C719.306 254.427 718.085 247.885 715.644 242.027C713.203 236.071 709.346 231.335 704.074 227.82C698.899 224.305 692.113 222.548 683.716 222.548C676.686 222.548 670.388 224.159 664.823 227.381C659.257 230.603 654.863 235.143 651.641 241.002C648.419 246.86 646.808 253.744 646.808 261.653C646.808 268.683 648.517 275.029 651.934 280.692C655.449 286.356 660.331 290.847 666.58 294.167ZM699.241 254.623L668.045 254.623C668.338 252.67 668.826 250.766 669.509 248.911C670.29 247.056 671.316 245.396 672.585 243.931C673.854 242.466 675.417 241.295 677.272 240.416C679.224 239.537 681.421 239.098 683.862 239.098C685.718 239.098 687.426 239.342 688.989 239.83C690.551 240.318 691.918 241.002 693.089 241.881C694.261 242.759 695.286 243.833 696.165 245.103C697.044 246.372 697.727 247.837 698.216 249.497C698.704 251.059 699.045 252.767 699.241 254.623ZM743.695 293.288C747.503 297.096 752.726 299 759.366 299L779.138 299L779.138 281.864L762.881 281.864C761.612 281.864 760.489 281.425 759.512 280.546C758.634 279.57 758.194 278.447 758.194 277.177L758.194 241.441L779.138 241.441L779.138 224.305L758.194 224.305L758.194 205.559L738.129 205.559L738.129 224.305L725.387 224.305L725.387 241.441L738.129 241.441L738.129 277.763C738.129 284.305 739.984 289.48 743.695 293.288ZM794.808 281.864L794.808 299L833.181 299C837.672 299 841.724 297.975 845.337 295.924C848.95 293.776 851.83 290.945 853.978 287.43C856.126 283.817 857.2 279.863 857.2 275.566C857.2 270.001 856.126 265.509 853.978 262.092C851.83 258.675 848.803 256.185 844.897 254.623C840.992 252.963 836.354 252.133 830.984 252.133L816.924 252.133C815.361 252.133 814.043 251.645 812.969 250.668C811.895 249.594 811.358 248.276 811.358 246.714C811.358 245.152 811.895 243.882 812.969 242.906C814.141 241.929 815.459 241.441 816.924 241.441L850.024 241.441L850.024 224.305L815.02 224.305C810.723 224.305 806.769 225.379 803.156 227.528C799.641 229.578 796.81 232.361 794.662 235.876C792.611 239.293 791.586 243.101 791.586 247.3C791.586 252.767 792.709 257.21 794.955 260.627C797.298 263.947 800.374 266.388 804.182 267.95C808.087 269.415 812.432 270.147 817.217 270.147L831.277 270.147C832.448 270.147 833.474 270.44 834.352 271.026C835.329 271.514 836.061 272.198 836.549 273.077C837.135 273.955 837.428 274.981 837.428 276.152C837.428 277.226 837.135 278.203 836.549 279.081C836.061 279.96 835.329 280.644 834.352 281.132C833.474 281.62 832.448 281.864 831.277 281.864L794.808 281.864ZM889.737 296.217C895.205 299.244 901.747 300.758 909.363 300.758C917.076 300.758 923.618 299.244 928.988 296.217C934.456 293.19 938.606 289.138 941.438 284.061C944.367 278.984 945.831 273.369 945.831 267.218L945.831 224.305L925.766 224.305L925.766 267.218C925.766 270.245 925.034 273.028 923.569 275.566C922.105 278.007 920.103 279.96 917.565 281.425C915.124 282.889 912.39 283.622 909.363 283.622C906.336 283.622 903.553 282.889 901.015 281.425C898.574 279.96 896.621 278.007 895.156 275.566C893.692 273.028 892.959 270.245 892.959 267.218L892.959 224.305L872.894 224.305L872.894 267.218C872.894 273.37 874.31 278.984 877.142 284.061C880.071 289.138 884.269 293.19 889.737 296.217ZM964.861 256.087L964.861 299L984.926 299L984.926 256.087C984.926 253.06 985.658 250.326 987.123 247.885C988.587 245.347 990.54 243.345 992.981 241.881C995.52 240.416 998.303 239.684 1001.33 239.684C1004.36 239.684 1007.09 240.416 1009.53 241.881C1012.07 243.345 1014.07 245.347 1015.54 247.885C1017 250.326 1017.73 253.06 1017.73 256.087L1017.73 299L1037.8 299L1037.8 256.087C1037.8 249.936 1036.33 244.322 1033.4 239.244C1030.57 234.167 1026.42 230.115 1020.95 227.088C1015.58 224.061 1009.04 222.548 1001.33 222.548C993.713 222.548 987.172 224.061 981.704 227.088C976.236 230.115 972.037 234.167 969.108 239.244C966.277 244.322 964.861 249.936 964.861 256.087ZM1068.4 295.485C1073.47 299 1079.43 300.758 1086.27 300.758C1090.56 300.758 1094.27 300.123 1097.4 298.854C1100.52 297.584 1103.16 295.876 1105.31 293.727C1107.55 291.579 1109.41 289.187 1110.87 286.551L1111.16 286.551L1111.16 299L1131.23 299L1131.23 261.799C1131.23 254.574 1129.72 247.983 1126.69 242.027C1123.66 236.071 1119.27 231.335 1113.51 227.82C1107.75 224.305 1100.67 222.548 1092.27 222.548C1083.97 222.548 1076.84 224.305 1070.89 227.82C1064.93 231.238 1060.34 235.925 1057.12 241.881C1054 247.837 1052.43 254.476 1052.43 261.799C1052.43 268.927 1053.8 275.469 1056.53 281.425C1059.37 287.283 1063.32 291.97 1068.4 295.485ZM1102.08 280.693C1099.25 282.645 1095.88 283.622 1091.98 283.622C1087.97 283.622 1084.51 282.645 1081.58 280.692C1078.75 278.74 1076.55 276.103 1074.99 272.784C1073.52 269.366 1072.79 265.607 1072.79 261.506C1072.79 257.405 1073.52 253.744 1074.99 250.522C1076.55 247.202 1078.75 244.566 1081.58 242.613C1084.51 240.66 1087.97 239.684 1091.98 239.684C1095.88 239.684 1099.25 240.66 1102.08 242.613C1104.92 244.566 1107.06 247.202 1108.53 250.522C1110.09 253.744 1110.87 257.405 1110.87 261.506C1110.87 265.607 1110.09 269.366 1108.53 272.784C1107.06 276.103 1104.92 278.74 1102.08 280.693ZM1206.71 295.778C1212.66 299.098 1219.64 300.758 1227.65 300.758C1234 300.758 1239.61 299.781 1244.49 297.828C1249.37 295.778 1253.48 292.946 1256.8 289.334C1260.12 285.623 1262.65 281.327 1264.41 276.445C1266.17 271.466 1267.05 266.046 1267.05 260.188C1267.05 252.767 1265.53 246.274 1262.51 240.709C1259.58 235.046 1255.43 230.603 1250.06 227.381C1244.69 224.159 1238.34 222.548 1231.02 222.548C1227.89 222.548 1224.87 222.987 1221.94 223.866C1219.11 224.745 1216.52 226.014 1214.18 227.674C1211.93 229.334 1210.03 231.287 1208.46 233.532L1208.32 233.532L1208.32 192.084L1188.25 192.084L1188.25 260.188C1188.25 268.39 1189.86 275.566 1193.09 281.718C1196.31 287.771 1200.85 292.458 1206.71 295.778ZM1237.9 280.693C1235.07 282.645 1231.65 283.622 1227.65 283.622C1223.74 283.622 1220.33 282.645 1217.4 280.693C1214.57 278.74 1212.37 276.103 1210.81 272.784C1209.34 269.464 1208.61 265.754 1208.61 261.653C1208.61 257.552 1209.34 253.841 1210.81 250.522C1212.37 247.202 1214.57 244.566 1217.4 242.613C1220.33 240.66 1223.74 239.684 1227.65 239.684C1231.65 239.684 1235.07 240.66 1237.9 242.613C1240.73 244.566 1242.88 247.202 1244.35 250.522C1245.91 253.841 1246.69 257.552 1246.69 261.653C1246.69 265.754 1245.91 269.464 1244.35 272.784C1242.88 276.103 1240.73 278.74 1237.9 280.693ZM1281.67 192.084L1281.67 299L1301.73 299L1301.73 192.084L1281.67 192.084ZM1335.94 295.631C1342 299.049 1348.88 300.758 1356.6 300.758C1364.31 300.758 1371.19 299.049 1377.25 295.631C1383.3 292.116 1388.08 287.43 1391.6 281.571C1395.11 275.615 1396.87 268.976 1396.87 261.653C1396.87 254.33 1395.11 247.739 1391.6 241.881C1388.08 235.925 1383.3 231.238 1377.25 227.82C1371.19 224.305 1364.31 222.548 1356.6 222.548C1348.88 222.548 1342 224.305 1335.94 227.82C1329.89 231.238 1325.11 235.925 1321.59 241.881C1318.08 247.739 1316.32 254.33 1316.32 261.653C1316.32 268.976 1318.08 275.615 1321.59 281.571C1325.11 287.43 1329.89 292.116 1335.94 295.631ZM1367.14 280.692C1364.21 282.645 1360.7 283.622 1356.6 283.622C1352.49 283.622 1348.93 282.645 1345.9 280.693C1342.97 278.74 1340.68 276.103 1339.02 272.784C1337.46 269.464 1336.68 265.754 1336.68 261.653C1336.68 257.552 1337.46 253.841 1339.02 250.522C1340.68 247.202 1342.97 244.566 1345.9 242.613C1348.93 240.66 1352.49 239.684 1356.6 239.684C1360.7 239.684 1364.21 240.66 1367.14 242.613C1370.17 244.566 1372.46 247.202 1374.02 250.522C1375.68 253.841 1376.51 257.552 1376.51 261.653C1376.51 265.754 1375.68 269.464 1374.02 272.784C1372.46 276.103 1370.17 278.74 1367.14 280.692ZM1422.81 311.596L1422.81 328.731L1464.7 328.731C1471.34 328.731 1476.51 326.827 1480.23 323.019C1484.03 319.211 1485.94 314.037 1485.94 307.495L1485.94 263.117C1485.94 254.818 1484.33 247.641 1481.1 241.588C1477.88 235.534 1473.34 230.847 1467.48 227.528C1461.62 224.208 1454.64 222.548 1446.54 222.548C1438.14 222.548 1431.01 224.257 1425.16 227.674C1419.3 231.091 1414.81 235.729 1411.68 241.588C1408.65 247.348 1407.14 253.841 1407.14 261.067C1407.14 268.683 1408.7 275.371 1411.83 281.132C1414.95 286.893 1419.15 291.384 1424.42 294.606C1429.79 297.731 1435.8 299.293 1442.44 299.293C1445.66 299.293 1448.59 298.951 1451.23 298.268C1453.96 297.487 1456.5 296.315 1458.84 294.753C1461.19 293.19 1463.48 291.14 1465.73 288.601L1465.87 288.601L1465.87 306.909C1465.87 308.178 1465.43 309.252 1464.55 310.131C1463.68 311.107 1462.55 311.596 1461.19 311.596L1422.81 311.596ZM1456.79 279.374C1453.96 281.23 1450.54 282.157 1446.54 282.157C1442.63 282.157 1439.22 281.23 1436.29 279.374C1433.46 277.422 1431.26 274.883 1429.7 271.758C1428.23 268.536 1427.5 264.972 1427.5 261.067C1427.5 257.064 1428.23 253.451 1429.7 250.229C1431.26 247.007 1433.46 244.468 1436.29 242.613C1439.22 240.66 1442.63 239.684 1446.54 239.684C1450.54 239.684 1453.96 240.66 1456.79 242.613C1459.62 244.566 1461.77 247.202 1463.24 250.522C1464.8 253.841 1465.58 257.552 1465.58 261.653C1465.58 265.461 1464.8 268.927 1463.24 272.051C1461.77 275.078 1459.62 277.519 1456.79 279.374Z" fill="#00D1FF"/>
</svg>
