<svg width="388" height="486" viewBox="0 0 388 486" fill="none" xmlns="http://www.w3.org/2000/svg">
<path fill-rule="evenodd" clip-rule="evenodd" d="M59.412 147.496C59.8074 164.449 63.5412 181.158 70.3987 196.67C77.0883 192.577 82.036 190.474 85.1818 189.137C86.2278 188.693 87.0742 188.333 87.7202 188.012C89.0796 187.338 89.8161 186.395 90.3957 185.651C90.9203 184.98 91.3164 184.472 91.9301 184.473C93.2223 184.477 107.127 179.998 115.542 174.534C118.611 172.541 121.541 171.626 124.593 170.672C129.912 169.011 135.602 167.234 143.046 159.439C145.372 157.004 142.735 155.669 141.153 154.868C140.293 154.433 139.744 154.155 140.477 153.944C142.135 153.468 144.9 153.566 148.256 153.687C154.423 153.907 162.59 154.2 169.561 151.122C175.742 148.393 179.72 146.156 183.434 144.068C189.046 140.912 194.053 138.097 205.145 134.437C214.879 134.21 202.732 128.011 195.804 124.475V124.474H195.803C193.446 123.271 191.693 122.377 191.612 122.131C191.535 121.897 193.27 122.499 195.975 123.437C204.446 126.377 222.419 132.612 223.905 126.744C225.252 121.427 221.713 119.75 219.052 118.489C217.837 117.913 216.805 117.423 216.504 116.714C216.145 115.871 218.565 116.426 222.179 117.255C228.259 118.65 237.715 120.819 242.99 118.405C251.401 114.555 306.804 92.304 306.804 92.304C299.947 76.7922 290.099 62.7825 277.823 51.0748C265.547 39.3664 251.083 30.1888 235.258 24.0664C219.432 17.9439 202.555 14.9961 185.59 15.3913C168.624 15.7865 151.903 19.517 136.38 26.3698C120.857 33.2228 106.838 43.0633 95.1211 55.3305C83.4044 67.5977 74.2203 82.0506 68.0935 97.8642C61.9667 113.678 59.0166 130.543 59.412 147.496ZM107.726 263.049C105.677 261.351 103.683 259.593 101.747 257.776C106.552 257.311 110.563 244.883 110.506 240.757C110.438 235.856 114.088 230.759 114.088 230.759C118.925 226.154 120.235 230.535 121.237 233.883C121.845 235.917 122.339 237.57 123.44 236.597C124.32 235.821 125.643 233.404 127.232 230.502C130.914 223.779 136.016 214.46 140.297 216.953C144.631 219.477 144.149 228.734 143.918 233.164C143.822 234.998 143.77 236.005 144.12 235.365C145.082 233.607 146.042 227.209 147.078 220.301C148.419 211.366 149.887 201.578 151.653 199.876C159.017 192.781 163.383 215.213 166.44 230.918C167.822 238.013 168.936 243.736 169.938 244.743C170.804 245.613 171.166 243.145 171.72 239.368C173.229 229.083 176.163 209.086 194.561 220.279C211.809 230.772 212.733 213.542 213.38 201.469C213.678 195.934 213.917 191.483 215.644 191.285C216.153 191.223 216.908 190.697 217.809 190.068C221.475 187.508 227.574 183.251 229.555 201.655C232.025 224.583 244.601 191.368 239.26 179.731C233.92 168.094 235.496 149.243 236.442 148.409C237.27 147.679 238.63 146.386 240.257 144.841L240.261 144.838V144.837C246.654 138.764 257.155 128.788 255.596 133.672C254.61 136.76 255.735 135.74 257.507 134.135C259.252 132.556 261.624 130.408 263.225 131.053C264.807 131.691 265.379 132.636 265.931 133.549C266.505 134.498 267.058 135.413 268.703 135.911C269.988 135.51 273.356 131.57 276.768 127.579C280.284 123.465 283.848 119.297 285.228 118.888C289.627 117.585 291.169 120.632 291.968 122.21C292.259 122.784 292.451 123.164 292.647 123.067C293.419 122.684 294.628 119.961 296.113 116.615C298.054 112.243 300.468 106.807 302.998 104.133L304.481 103.35C312.405 118.346 317.295 134.754 318.874 151.638C320.452 168.523 318.686 185.552 313.678 201.755C308.67 217.956 300.517 233.015 289.686 246.069C278.854 259.122 265.555 269.917 250.548 277.835C235.542 285.753 219.122 290.64 202.225 292.217C185.329 293.794 168.287 292.029 152.073 287.025C135.859 282.02 120.789 273.874 107.726 263.049ZM304.208 103.085C303.803 103.355 303.399 103.709 302.998 104.133L190.209 163.646L75.937 223.941C82.6175 236.584 91.3441 248.014 101.747 257.776C101.716 257.779 101.684 257.782 101.652 257.784C101.521 257.792 100.633 257.157 100.041 256.488C99.9254 256.364 99.7975 256.258 99.6592 256.145C99.3911 255.924 99.0842 255.671 98.7521 255.192C98.6662 255.068 98.5506 254.992 98.4213 254.907C98.2178 254.772 97.9827 254.617 97.7862 254.221C93.7411 250.457 92.4186 270.028 91.3189 286.3C90.5947 297.018 89.9673 306.306 88.7217 306.551C86.744 307.263 87.0024 302.005 87.3966 293.972C87.7118 287.554 88.1137 279.366 87.5316 271.037C86.231 252.409 79.6125 231.148 75.6643 223.676L189.937 163.38L304.208 103.085ZM59.8417 220.388L327.933 84.8566L328.808 86.5862L60.7171 222.118L59.8417 220.388ZM82.0683 153.892C83.2616 154.596 84.8503 155.235 86.8467 155.431C87.4373 155.488 87.8889 156.016 87.7971 156.602C87.7267 157.054 87.352 157.395 86.8984 157.455C85.2225 157.673 82.6162 158.262 80.0286 158.908C77.421 159.56 75.3904 156.487 77.0695 154.388C78.206 152.967 80.5015 152.967 82.0683 153.892ZM117.808 141.708C118.42 142.11 119.22 141.608 119.128 140.882C119.093 140.614 118.94 140.381 118.707 140.244C117.195 139.354 111.134 135.687 103.021 129.417C96.3061 124.228 92.1078 120.287 90.2555 118.457C89.6139 117.823 88.5989 117.733 87.8721 118.268C86.923 118.965 86.9068 120.374 87.8449 121.087C90.8111 123.341 96.7292 127.777 101.271 130.796C106.184 134.061 114.4 139.467 117.808 141.708ZM124.412 150.477C124.597 150.786 124.336 151.169 123.981 151.109C122.005 150.771 117.242 149.956 114.388 149.454C112.932 149.198 110.007 149.264 107.006 149.436C105.097 149.546 104.315 146.832 106.018 145.963C106.578 145.676 107.253 145.713 107.814 145.999C108.947 146.576 111.214 147.566 114.904 148.489C119.791 149.714 123.241 150.171 124.097 150.273C124.229 150.289 124.344 150.364 124.412 150.477ZM115.177 262.284C117.991 253.365 121.08 242.225 120.234 238.627C120.178 238.384 120.133 238.151 120.135 237.902C120.153 235.683 121.093 235.605 121.193 237.822C121.6 246.769 121.636 259.31 121.636 263.467C121.636 264.36 121.259 265.208 120.599 265.81C118.139 268.053 114.175 265.459 115.177 262.284Z" fill="#80EF7E" fill-opacity="0.79"/>
<path d="M10.3111 420.933V402.559H54.0598C56.1989 402.559 58.143 402.024 59.8932 400.955C61.6428 399.885 63.0527 398.476 64.122 396.725C65.1914 394.879 65.726 392.886 65.726 390.747C65.726 388.511 65.1914 386.518 64.122 384.767C63.0527 382.921 61.6428 381.462 59.8932 380.393C58.143 379.323 56.1989 378.788 54.0598 378.788H36.9978C31.2619 378.788 26.0606 377.622 21.3941 375.289C16.7275 372.956 12.9846 369.602 10.1652 365.226C7.44307 360.754 6.08203 355.407 6.08203 349.185C6.08203 343.061 7.39449 337.762 10.0194 333.29C12.6443 328.721 16.1928 325.172 20.665 322.644C25.1371 320.117 30.0952 318.853 35.5395 318.853H79.8716V337.227H37.5811C35.6368 337.227 33.8382 337.762 32.1855 338.831C30.5327 339.804 29.2203 341.116 28.2481 342.769C27.3731 344.422 26.9356 346.269 26.9356 348.31C26.9356 350.352 27.3731 352.199 28.2481 353.852C29.2203 355.504 30.5327 356.817 32.1855 357.789C33.8382 358.761 35.6368 359.247 37.5811 359.247H55.2264C61.546 359.247 67.0387 360.463 71.705 362.893C76.3718 365.324 79.9688 368.726 82.4965 373.101C85.1214 377.476 86.4341 382.58 86.4341 388.413C86.4341 395.316 85.073 401.198 82.3508 406.059C79.7259 410.92 76.1289 414.614 71.5594 417.142C67.0871 419.669 62.129 420.933 56.6847 420.933H10.3111ZM127.846 420.933C122.207 420.933 117.055 419.572 112.388 416.85C107.819 414.128 104.173 410.482 101.451 405.913C98.7287 401.246 97.3676 396.094 97.3676 390.455C97.3676 386.372 98.2429 382.532 99.9925 378.935C101.743 375.337 104.125 372.178 107.138 369.455C104.125 366.733 101.743 363.574 99.9925 359.977C98.2429 356.38 97.3676 352.588 97.3676 348.602C97.3676 343.061 98.6803 338.054 101.305 333.581C104.027 329.11 107.624 325.561 112.097 322.936C116.666 320.214 121.673 318.853 127.117 318.853H169.116V337.227H129.45C127.409 337.227 125.513 337.762 123.763 338.831C122.11 339.804 120.749 341.165 119.68 342.914C118.708 344.567 118.221 346.463 118.221 348.602C118.221 350.644 118.708 352.539 119.68 354.289C120.749 355.942 122.11 357.303 123.763 358.373C125.513 359.345 127.409 359.831 129.45 359.831H164.158V378.205H130.325C128.089 378.205 126.048 378.788 124.2 379.955C122.353 381.025 120.895 382.483 119.825 384.33C118.756 386.177 118.221 388.219 118.221 390.455C118.221 392.691 118.756 394.733 119.825 396.58C120.895 398.427 122.353 399.885 124.2 400.955C126.048 402.024 128.089 402.559 130.325 402.559H169.116V420.933H127.846ZM180.821 392.642V374.414H222.091V392.642H180.821ZM252.464 420.933C248.575 420.933 245.172 420.107 242.256 418.454C239.34 416.704 237.055 414.42 235.402 411.6C233.846 408.781 233.069 405.621 233.069 402.121C233.069 398.816 233.895 395.608 235.548 392.497C237.298 389.385 239.534 386.858 242.256 384.914L273.609 362.456C275.748 360.9 277.352 359.053 278.422 356.914C279.491 354.775 280.026 352.539 280.026 350.206C280.026 347.484 279.443 345.199 278.276 343.352C277.109 341.408 275.456 339.901 273.318 338.831C271.179 337.762 268.603 337.227 265.589 337.227H238.61V318.853H268.068C274.776 318.853 280.561 320.262 285.422 323.082C290.282 325.901 294.025 329.693 296.65 334.457C299.373 339.123 300.734 344.373 300.734 350.206C300.734 356.039 299.567 361.192 297.234 365.664C294.998 370.039 291.303 373.976 286.151 377.476L254.797 398.767C254.603 398.865 254.36 399.108 254.068 399.497C253.776 399.788 253.631 400.177 253.631 400.663C253.631 401.343 253.825 401.83 254.214 402.121C254.603 402.413 255.137 402.559 255.818 402.559H303.796V420.933H252.464ZM318.462 420.933L361.19 341.748C361.676 340.776 361.919 339.949 361.919 339.269C361.919 338.686 361.725 338.199 361.336 337.811C360.947 337.422 360.413 337.227 359.732 337.227H313.212V318.853H362.357C366.148 318.853 369.551 319.728 372.565 321.478C375.676 323.228 378.155 325.561 380.002 328.478C381.849 331.297 382.773 334.505 382.773 338.102C382.773 340.047 382.53 341.991 382.044 343.935C381.558 345.783 380.926 347.532 380.148 349.185L342.086 420.933H318.462Z" fill="#80EF7E" fill-opacity="0.79"/>
<path d="M235.697 460.336C234.571 460.336 233.589 460.046 232.752 459.467C231.915 458.888 231.264 458.115 230.797 457.15C230.346 456.168 230.121 455.09 230.121 453.915C230.121 452.708 230.379 451.614 230.894 450.632C231.425 449.65 232.181 448.878 233.163 448.315C234.144 447.735 235.319 447.446 236.687 447.446C238.071 447.446 239.238 447.735 240.187 448.315C241.137 448.894 241.861 449.674 242.36 450.656C242.859 451.638 243.108 452.724 243.108 453.915V460.046H239.801V457.995H239.753C239.511 458.429 239.206 458.823 238.835 459.177C238.481 459.531 238.047 459.813 237.532 460.022C237.017 460.231 236.405 460.336 235.697 460.336ZM236.639 457.512C237.282 457.512 237.838 457.351 238.304 457.029C238.771 456.707 239.125 456.273 239.367 455.725C239.624 455.162 239.753 454.543 239.753 453.867C239.753 453.191 239.624 452.587 239.367 452.056C239.125 451.509 238.771 451.075 238.304 450.753C237.838 450.431 237.282 450.27 236.639 450.27C235.979 450.27 235.408 450.431 234.925 450.753C234.458 451.075 234.096 451.509 233.839 452.056C233.597 452.587 233.476 453.191 233.476 453.867C233.476 454.543 233.597 455.162 233.839 455.725C234.096 456.273 234.458 456.707 234.925 457.029C235.408 457.351 235.979 457.512 236.639 457.512Z" fill="#80EF7E" fill-opacity="0.79"/>
<path d="M246.239 460.046V452.974C246.239 451.96 246.472 451.034 246.939 450.197C247.422 449.361 248.114 448.693 249.015 448.194C249.916 447.695 250.994 447.446 252.25 447.446C253.521 447.446 254.599 447.695 255.484 448.194C256.386 448.693 257.07 449.361 257.536 450.197C258.019 451.034 258.26 451.96 258.26 452.974V460.046H254.953V452.974C254.953 452.475 254.833 452.024 254.591 451.622C254.35 451.203 254.02 450.873 253.602 450.632C253.199 450.391 252.749 450.27 252.25 450.27C251.751 450.27 251.292 450.391 250.874 450.632C250.471 450.873 250.15 451.203 249.908 451.622C249.667 452.024 249.546 452.475 249.546 452.974V460.046H246.239Z" fill="#80EF7E" fill-opacity="0.79"/>
<path d="M267.166 460.336C266.136 460.336 265.211 460.175 264.39 459.853C263.586 459.515 262.91 459.049 262.362 458.453C261.815 457.842 261.397 457.134 261.107 456.329C260.818 455.508 260.673 454.615 260.673 453.649C260.673 452.426 260.914 451.356 261.397 450.439C261.896 449.505 262.588 448.773 263.473 448.242C264.374 447.711 265.42 447.446 266.611 447.446C267.126 447.446 267.617 447.518 268.084 447.663C268.566 447.808 269.001 448.017 269.387 448.29C269.773 448.564 270.087 448.886 270.328 449.256H270.353V442.425H273.66V453.649C273.66 455.001 273.394 456.184 272.863 457.198C272.332 458.196 271.584 458.968 270.618 459.515C269.653 460.063 268.502 460.336 267.166 460.336ZM267.166 457.512C267.826 457.512 268.389 457.351 268.856 457.029C269.323 456.707 269.677 456.273 269.918 455.725C270.176 455.178 270.304 454.567 270.304 453.891C270.304 453.215 270.176 452.603 269.918 452.056C269.677 451.509 269.323 451.075 268.856 450.753C268.389 450.431 267.826 450.27 267.166 450.27C266.522 450.27 265.959 450.431 265.476 450.753C265.01 451.075 264.648 451.509 264.39 452.056C264.149 452.603 264.028 453.215 264.028 453.891C264.028 454.567 264.149 455.178 264.39 455.725C264.648 456.273 265.01 456.707 265.476 457.029C265.959 457.351 266.522 457.512 267.166 457.512Z" fill="#80EF7E" fill-opacity="0.79"/>
<path d="M293.969 460.336C292.939 460.336 292.014 460.175 291.193 459.853C290.388 459.515 289.713 459.049 289.165 458.453C288.618 457.842 288.2 457.134 287.91 456.329C287.62 455.508 287.476 454.615 287.476 453.65C287.476 452.426 287.717 451.356 288.2 450.439C288.699 449.506 289.391 448.773 290.276 448.242C291.177 447.711 292.223 447.446 293.414 447.446C293.929 447.446 294.42 447.518 294.886 447.663C295.369 447.808 295.804 448.017 296.19 448.291C296.576 448.564 296.89 448.886 297.131 449.256H297.156V442.425H300.463V453.65C300.463 455.001 300.197 456.184 299.666 457.198C299.135 458.196 298.387 458.968 297.421 459.515C296.455 460.063 295.305 460.336 293.969 460.336ZM293.969 457.512C294.629 457.512 295.192 457.351 295.659 457.029C296.126 456.707 296.48 456.273 296.721 455.726C296.979 455.178 297.107 454.567 297.107 453.891C297.107 453.215 296.979 452.603 296.721 452.056C296.48 451.509 296.126 451.075 295.659 450.753C295.192 450.431 294.629 450.27 293.969 450.27C293.325 450.27 292.762 450.431 292.279 450.753C291.813 451.075 291.451 451.509 291.193 452.056C290.952 452.603 290.831 453.215 290.831 453.891C290.831 454.567 290.952 455.178 291.193 455.726C291.451 456.273 291.813 456.707 292.279 457.029C292.762 457.351 293.325 457.512 293.969 457.512Z" fill="#80EF7E" fill-opacity="0.79"/>
<path d="M309.679 460.047C308.279 460.047 307.056 459.781 306.01 459.25C304.98 458.703 304.176 457.962 303.596 457.029C303.033 456.096 302.751 455.05 302.751 453.891C302.751 452.587 303.017 451.453 303.548 450.487C304.079 449.522 304.803 448.773 305.721 448.242C306.638 447.711 307.676 447.446 308.835 447.446C310.219 447.446 311.337 447.735 312.19 448.315C313.059 448.894 313.695 449.675 314.097 450.656C314.499 451.622 314.7 452.7 314.7 453.891C314.7 454.052 314.692 454.245 314.676 454.47C314.66 454.679 314.636 454.84 314.604 454.953H306.276C306.405 455.452 306.622 455.87 306.928 456.208C307.249 456.546 307.644 456.804 308.11 456.981C308.593 457.142 309.132 457.222 309.728 457.222H313.156V460.047H309.679ZM306.252 452.732H311.393C311.361 452.426 311.305 452.145 311.224 451.887C311.144 451.614 311.031 451.372 310.886 451.163C310.742 450.954 310.573 450.777 310.379 450.632C310.186 450.487 309.961 450.375 309.704 450.294C309.446 450.214 309.164 450.173 308.859 450.173C308.456 450.173 308.094 450.246 307.772 450.391C307.467 450.536 307.209 450.729 307 450.97C306.791 451.211 306.622 451.485 306.493 451.791C306.38 452.097 306.3 452.41 306.252 452.732Z" fill="#80EF7E" fill-opacity="0.79"/>
<path d="M317.079 460.047V457.222H323.09C323.283 457.222 323.452 457.182 323.596 457.101C323.757 457.021 323.878 456.908 323.959 456.764C324.055 456.619 324.103 456.458 324.103 456.281C324.103 456.088 324.055 455.919 323.959 455.774C323.878 455.629 323.757 455.516 323.596 455.436C323.452 455.339 323.283 455.291 323.09 455.291H320.772C319.984 455.291 319.267 455.17 318.624 454.929C317.996 454.671 317.489 454.269 317.103 453.722C316.733 453.159 316.548 452.426 316.548 451.525C316.548 450.833 316.717 450.206 317.055 449.642C317.409 449.063 317.875 448.604 318.455 448.266C319.05 447.912 319.702 447.735 320.41 447.735H326.179V450.56H320.724C320.482 450.56 320.265 450.64 320.072 450.801C319.895 450.962 319.807 451.171 319.807 451.429C319.807 451.686 319.895 451.903 320.072 452.08C320.249 452.241 320.466 452.322 320.724 452.322H323.041C323.926 452.322 324.691 452.459 325.334 452.732C325.978 452.99 326.477 453.4 326.831 453.963C327.185 454.527 327.362 455.267 327.362 456.184C327.362 456.892 327.185 457.544 326.831 458.139C326.477 458.719 326.002 459.186 325.407 459.54C324.811 459.878 324.144 460.047 323.403 460.047H317.079Z" fill="#80EF7E" fill-opacity="0.79"/>
<path d="M329.949 460.047V447.735H333.28V460.047H329.949ZM331.615 446.263C331.051 446.263 330.56 446.062 330.142 445.659C329.74 445.241 329.539 444.75 329.539 444.187C329.539 443.624 329.74 443.141 330.142 442.738C330.56 442.32 331.051 442.111 331.615 442.111C332.178 442.111 332.661 442.32 333.063 442.738C333.481 443.141 333.691 443.624 333.691 444.187C333.691 444.75 333.481 445.241 333.063 445.659C332.661 446.062 332.178 446.263 331.615 446.263Z" fill="#80EF7E" fill-opacity="0.79"/>
<path d="M338.243 464.947V462.123H344.568C344.793 462.123 344.978 462.042 345.123 461.881C345.268 461.736 345.34 461.559 345.34 461.35V458.333H345.316C344.946 458.751 344.568 459.089 344.182 459.346C343.795 459.604 343.377 459.797 342.926 459.926C342.492 460.038 342.009 460.095 341.478 460.095C340.384 460.095 339.394 459.837 338.509 459.322C337.64 458.791 336.948 458.051 336.433 457.101C335.918 456.152 335.66 455.05 335.66 453.794C335.66 452.603 335.91 451.533 336.409 450.584C336.924 449.618 337.664 448.854 338.63 448.291C339.595 447.727 340.77 447.446 342.154 447.446C343.49 447.446 344.64 447.719 345.606 448.266C346.571 448.814 347.32 449.586 347.851 450.584C348.382 451.582 348.647 452.764 348.647 454.132V461.447C348.647 462.525 348.334 463.378 347.706 464.005C347.094 464.633 346.242 464.947 345.147 464.947H338.243ZM342.154 457.27C342.814 457.27 343.377 457.118 343.844 456.812C344.31 456.506 344.664 456.104 344.906 455.605C345.163 455.09 345.292 454.519 345.292 453.891C345.292 453.215 345.163 452.603 344.906 452.056C344.664 451.509 344.31 451.075 343.844 450.753C343.377 450.431 342.814 450.27 342.154 450.27C341.51 450.27 340.947 450.431 340.464 450.753C339.997 451.059 339.635 451.477 339.378 452.008C339.136 452.539 339.016 453.135 339.016 453.794C339.016 454.438 339.136 455.025 339.378 455.557C339.635 456.072 339.997 456.49 340.464 456.812C340.947 457.118 341.51 457.27 342.154 457.27Z" fill="#80EF7E" fill-opacity="0.79"/>
<path d="M351.66 460.047V452.974C351.66 451.96 351.894 451.034 352.36 450.198C352.843 449.361 353.535 448.693 354.436 448.194C355.338 447.695 356.416 447.446 357.671 447.446C358.942 447.446 360.021 447.695 360.906 448.194C361.807 448.693 362.491 449.361 362.958 450.198C363.44 451.034 363.682 451.96 363.682 452.974V460.047H360.375V452.974C360.375 452.475 360.254 452.024 360.013 451.622C359.771 451.203 359.441 450.873 359.023 450.632C358.621 450.391 358.17 450.27 357.671 450.27C357.172 450.27 356.714 450.391 356.295 450.632C355.893 450.873 355.571 451.203 355.33 451.622C355.088 452.024 354.967 452.475 354.967 452.974V460.047H351.66Z" fill="#80EF7E" fill-opacity="0.79"/>
<path d="M368.46 460.336C367.848 460.336 367.317 460.119 366.867 459.684C366.432 459.234 366.215 458.703 366.215 458.091C366.215 457.48 366.432 456.957 366.867 456.522C367.317 456.072 367.848 455.846 368.46 455.846C369.071 455.846 369.594 456.072 370.029 456.522C370.479 456.957 370.705 457.48 370.705 458.091C370.705 458.494 370.6 458.872 370.391 459.226C370.198 459.564 369.932 459.837 369.594 460.047C369.256 460.24 368.878 460.336 368.46 460.336Z" fill="#80EF7E" fill-opacity="0.79"/>
<path d="M12.2128 460.336C11.3759 460.336 10.6115 460.175 9.91951 459.853C9.22751 459.515 8.6723 459.008 8.25388 458.333C7.85155 457.657 7.65039 456.804 7.65039 455.774V447.735H10.9575V456.257C10.9575 456.482 11.0138 456.691 11.1265 456.884C11.2391 457.077 11.392 457.23 11.5851 457.343C11.7783 457.455 11.9875 457.512 12.2128 457.512C12.4381 457.512 12.6473 457.455 12.8404 457.343C13.0335 457.23 13.1864 457.077 13.299 456.884C13.4117 456.691 13.468 456.482 13.468 456.257V452.008C13.468 451.042 13.6531 450.222 14.0232 449.546C14.4095 448.87 14.9405 448.355 15.6164 448.001C16.3084 447.631 17.1131 447.446 18.0304 447.446C18.9477 447.446 19.7443 447.631 20.4202 448.001C21.1122 448.355 21.6433 448.87 22.0134 449.546C22.3996 450.222 22.5928 451.042 22.5928 452.008V456.257C22.5928 456.482 22.6491 456.691 22.7617 456.884C22.8744 457.077 23.0273 457.23 23.2204 457.343C23.4135 457.455 23.6227 457.512 23.848 457.512C24.0894 457.512 24.2986 457.455 24.4756 457.343C24.6688 457.23 24.8216 457.077 24.9343 456.884C25.0469 456.691 25.1033 456.482 25.1033 456.257V447.735H28.4104V455.774C28.4104 456.804 28.2012 457.657 27.7828 458.333C27.3804 459.008 26.8333 459.515 26.1413 459.853C25.4493 460.175 24.6849 460.336 23.848 460.336C23.0273 460.336 22.2709 460.175 21.5789 459.853C20.8869 459.515 20.3317 459.008 19.9133 458.333C19.4949 457.657 19.2856 456.804 19.2856 455.774V451.525C19.2856 451.284 19.2293 451.075 19.1167 450.898C19.004 450.704 18.8511 450.552 18.658 450.439C18.481 450.326 18.2718 450.27 18.0304 450.27C17.8051 450.27 17.5959 450.326 17.4028 450.439C17.2096 450.552 17.0568 450.704 16.9441 450.898C16.8315 451.075 16.7751 451.284 16.7751 451.525V455.774C16.7751 456.804 16.5659 457.657 16.1475 458.333C15.7291 459.008 15.1739 459.515 14.4819 459.853C13.806 460.175 13.0496 460.336 12.2128 460.336Z" fill="#80EF7E" fill-opacity="0.79"/>
<path d="M37.758 460.046C36.358 460.046 35.1349 459.781 34.0888 459.25C33.0589 458.703 32.2542 457.962 31.6749 457.029C31.1116 456.096 30.83 455.05 30.83 453.891C30.83 452.587 31.0955 451.453 31.6266 450.487C32.1577 449.522 32.8819 448.773 33.7992 448.242C34.7165 447.711 35.7545 447.446 36.9132 447.446C38.2972 447.446 39.4156 447.735 40.2686 448.315C41.1376 448.894 41.7733 449.674 42.1756 450.656C42.5779 451.622 42.7791 452.7 42.7791 453.891C42.7791 454.052 42.771 454.245 42.7549 454.47C42.7388 454.679 42.7147 454.84 42.6825 454.953H34.3544C34.4831 455.452 34.7004 455.87 35.0061 456.208C35.328 456.546 35.7223 456.804 36.189 456.981C36.6718 457.142 37.2109 457.222 37.8063 457.222H41.2341V460.046H37.758ZM34.3302 452.732H39.472C39.4398 452.426 39.3834 452.145 39.303 451.887C39.2225 451.614 39.1099 451.372 38.965 451.163C38.8202 450.954 38.6512 450.777 38.4581 450.632C38.265 450.487 38.0397 450.375 37.7822 450.294C37.5247 450.214 37.2431 450.173 36.9373 450.173C36.535 450.173 36.1729 450.246 35.851 450.391C35.5453 450.535 35.2878 450.729 35.0786 450.97C34.8693 451.211 34.7004 451.485 34.5716 451.791C34.459 452.096 34.3785 452.41 34.3302 452.732Z" fill="#80EF7E" fill-opacity="0.79"/>
<path d="M51.4819 460.336C50.1623 460.336 49.0117 460.063 48.03 459.515C47.0644 458.968 46.3161 458.196 45.785 457.198C45.2539 456.184 44.9884 455.001 44.9884 453.649V442.425H48.2955V449.256H48.3197C48.5771 448.886 48.891 448.564 49.2611 448.29C49.6473 448.017 50.0738 447.808 50.5405 447.663C51.0233 447.518 51.5222 447.446 52.0371 447.446C53.2441 447.446 54.2902 447.711 55.1753 448.242C56.0604 448.773 56.7444 449.505 57.2271 450.439C57.726 451.356 57.9755 452.426 57.9755 453.649C57.9755 454.615 57.8306 455.508 57.541 456.329C57.2513 457.134 56.8329 457.842 56.2857 458.453C55.7385 459.049 55.0626 459.515 54.258 459.853C53.4533 460.175 52.528 460.336 51.4819 460.336ZM51.4819 457.512C52.1417 457.512 52.705 457.351 53.1717 457.029C53.6384 456.707 53.9924 456.273 54.2338 455.725C54.4913 455.178 54.6201 454.567 54.6201 453.891C54.6201 453.215 54.4913 452.603 54.2338 452.056C53.9924 451.509 53.6384 451.075 53.1717 450.753C52.705 450.431 52.1417 450.27 51.4819 450.27C50.8382 450.27 50.275 450.431 49.7922 450.753C49.3255 451.075 48.9634 451.509 48.7059 452.056C48.4645 452.603 48.3438 453.215 48.3438 453.891C48.3438 454.567 48.4645 455.178 48.7059 455.725C48.9634 456.273 49.3255 456.707 49.7922 457.029C50.275 457.351 50.8382 457.512 51.4819 457.512Z" fill="#80EF7E" fill-opacity="0.79"/>
<path d="M72.5427 460.336C71.5128 460.336 70.5874 460.175 69.7667 459.853C68.962 459.515 68.2861 459.049 67.739 458.453C67.1918 457.842 66.7734 457.134 66.4837 456.329C66.194 455.508 66.0492 454.615 66.0492 453.649C66.0492 452.426 66.2906 451.356 66.7734 450.439C67.2723 449.505 67.9643 448.773 68.8494 448.242C69.7506 447.711 70.7966 447.446 71.9875 447.446C72.5025 447.446 72.9933 447.518 73.46 447.663C73.9428 447.808 74.3773 448.017 74.7636 448.29C75.1498 448.564 75.4636 448.886 75.705 449.256H75.7291V442.425H79.0363V453.649C79.0363 455.001 78.7707 456.184 78.2397 457.198C77.7086 458.196 76.9603 458.968 75.9947 459.515C75.0291 460.063 73.8785 460.336 72.5427 460.336ZM72.5427 457.512C73.2025 457.512 73.7658 457.351 74.2325 457.029C74.6992 456.707 75.0532 456.273 75.2946 455.725C75.5521 455.178 75.6809 454.567 75.6809 453.891C75.6809 453.215 75.5521 452.603 75.2946 452.056C75.0532 451.509 74.6992 451.075 74.2325 450.753C73.7658 450.431 73.2025 450.27 72.5427 450.27C71.899 450.27 71.3358 450.431 70.853 450.753C70.3863 451.075 70.0242 451.509 69.7667 452.056C69.5253 452.603 69.4046 453.215 69.4046 453.891C69.4046 454.567 69.5253 455.178 69.7667 455.725C70.0242 456.273 70.3863 456.707 70.853 457.029C71.3358 457.351 71.899 457.512 72.5427 457.512Z" fill="#80EF7E" fill-opacity="0.79"/>
<path d="M88.253 460.046C86.8529 460.046 85.6299 459.781 84.5838 459.25C83.5539 458.703 82.7492 457.962 82.1699 457.029C81.6066 456.096 81.325 455.05 81.325 453.891C81.325 452.587 81.5905 451.453 82.1216 450.487C82.6527 449.522 83.3769 448.773 84.2942 448.242C85.2115 447.711 86.2495 447.446 87.4082 447.446C88.7922 447.446 89.9106 447.735 90.7635 448.315C91.6326 448.894 92.2682 449.674 92.6706 450.656C93.0729 451.622 93.2741 452.7 93.2741 453.891C93.2741 454.052 93.266 454.245 93.2499 454.47C93.2338 454.679 93.2097 454.84 93.1775 454.953H84.8494C84.9781 455.452 85.1954 455.87 85.5011 456.208C85.823 456.546 86.2173 456.804 86.684 456.981C87.1668 457.142 87.7059 457.222 88.3013 457.222H91.7291V460.046H88.253ZM84.8252 452.732H89.9669C89.9348 452.426 89.8784 452.145 89.798 451.887C89.7175 451.614 89.6048 451.372 89.46 451.163C89.3152 450.954 89.1462 450.777 88.9531 450.632C88.76 450.487 88.5347 450.375 88.2772 450.294C88.0197 450.214 87.7381 450.173 87.4323 450.173C87.03 450.173 86.6679 450.246 86.346 450.391C86.0402 450.535 85.7828 450.729 85.5736 450.97C85.3643 451.211 85.1954 451.485 85.0666 451.791C84.954 452.096 84.8735 452.41 84.8252 452.732Z" fill="#80EF7E" fill-opacity="0.79"/>
<path d="M100.751 460.336C100.027 460.336 99.3675 460.143 98.772 459.757C98.1927 459.371 97.7904 458.864 97.5651 458.236L94.0407 447.735H97.6375L100.486 456.884C100.518 456.949 100.558 456.997 100.607 457.029C100.655 457.061 100.711 457.077 100.776 457.077C100.84 457.077 100.896 457.061 100.945 457.029C101.009 456.997 101.049 456.949 101.065 456.884L103.938 447.735H107.462L103.938 458.212C103.713 458.839 103.302 459.354 102.707 459.757C102.127 460.143 101.476 460.336 100.751 460.336Z" fill="#80EF7E" fill-opacity="0.79"/>
<path d="M115.009 460.046C113.609 460.046 112.386 459.781 111.34 459.25C110.31 458.703 109.505 457.962 108.926 457.029C108.363 456.096 108.081 455.05 108.081 453.891C108.081 452.587 108.347 451.453 108.878 450.487C109.409 449.522 110.133 448.773 111.05 448.242C111.968 447.711 113.006 447.446 114.164 447.446C115.548 447.446 116.667 447.735 117.52 448.315C118.389 448.894 119.024 449.674 119.427 450.656C119.829 451.622 120.03 452.7 120.03 453.891C120.03 454.052 120.022 454.245 120.006 454.47C119.99 454.679 119.966 454.84 119.934 454.953H111.606C111.734 455.452 111.952 455.87 112.257 456.208C112.579 456.546 112.973 456.804 113.44 456.981C113.923 457.142 114.462 457.222 115.058 457.222H118.485V460.046H115.009ZM111.581 452.732H116.723C116.691 452.426 116.635 452.145 116.554 451.887C116.474 451.614 116.361 451.372 116.216 451.163C116.071 450.954 115.902 450.777 115.709 450.632C115.516 450.487 115.291 450.375 115.033 450.294C114.776 450.214 114.494 450.173 114.189 450.173C113.786 450.173 113.424 450.246 113.102 450.391C112.796 450.535 112.539 450.729 112.33 450.97C112.121 451.211 111.952 451.485 111.823 451.791C111.71 452.096 111.63 452.41 111.581 452.732Z" fill="#80EF7E" fill-opacity="0.79"/>
<path d="M122.36 460.046V442.425H125.667V460.046H122.36Z" fill="#80EF7E" fill-opacity="0.79"/>
<path d="M134.71 460.336C133.439 460.336 132.304 460.054 131.306 459.491C130.309 458.912 129.52 458.139 128.941 457.174C128.361 456.192 128.072 455.098 128.072 453.891C128.072 452.684 128.361 451.598 128.941 450.632C129.52 449.65 130.309 448.878 131.306 448.315C132.304 447.735 133.439 447.446 134.71 447.446C135.981 447.446 137.116 447.735 138.114 448.315C139.112 448.878 139.9 449.65 140.479 450.632C141.059 451.598 141.349 452.684 141.349 453.891C141.349 455.098 141.059 456.192 140.479 457.174C139.9 458.139 139.112 458.912 138.114 459.491C137.116 460.054 135.981 460.336 134.71 460.336ZM134.71 457.512C135.386 457.512 135.965 457.351 136.448 457.029C136.947 456.707 137.325 456.273 137.583 455.725C137.856 455.178 137.993 454.567 137.993 453.891C137.993 453.215 137.856 452.603 137.583 452.056C137.325 451.509 136.947 451.075 136.448 450.753C135.965 450.431 135.386 450.27 134.71 450.27C134.034 450.27 133.447 450.431 132.948 450.753C132.465 451.075 132.087 451.509 131.813 452.056C131.556 452.603 131.427 453.215 131.427 453.891C131.427 454.567 131.556 455.178 131.813 455.725C132.087 456.273 132.465 456.707 132.948 457.029C133.447 457.351 134.034 457.512 134.71 457.512Z" fill="#80EF7E" fill-opacity="0.79"/>
<path d="M150.138 447.446C151.184 447.446 152.11 447.615 152.914 447.953C153.719 448.274 154.395 448.741 154.942 449.353C155.489 449.948 155.907 450.656 156.197 451.477C156.487 452.282 156.632 453.167 156.632 454.132C156.632 455.339 156.382 456.409 155.883 457.343C155.401 458.276 154.717 459.008 153.831 459.539C152.946 460.071 151.9 460.336 150.693 460.336C150.178 460.336 149.679 460.264 149.197 460.119C148.73 459.974 148.304 459.765 147.917 459.491C147.547 459.218 147.233 458.896 146.976 458.526H146.952V465.357H143.645V454.132C143.645 452.764 143.91 451.581 144.441 450.584C144.972 449.586 145.721 448.813 146.686 448.266C147.668 447.719 148.819 447.446 150.138 447.446ZM150.138 450.27C149.494 450.27 148.931 450.431 148.448 450.753C147.982 451.075 147.62 451.509 147.362 452.056C147.121 452.603 147 453.215 147 453.891C147 454.567 147.121 455.178 147.362 455.725C147.62 456.273 147.982 456.707 148.448 457.029C148.931 457.351 149.494 457.512 150.138 457.512C150.798 457.512 151.361 457.351 151.828 457.029C152.295 456.707 152.649 456.273 152.89 455.725C153.148 455.178 153.276 454.567 153.276 453.891C153.276 453.215 153.148 452.603 152.89 452.056C152.649 451.509 152.295 451.075 151.828 450.753C151.361 450.431 150.798 450.27 150.138 450.27Z" fill="#80EF7E" fill-opacity="0.79"/>
<path d="M159.041 460.046V452.732C159.041 451.767 159.274 450.881 159.741 450.077C160.208 449.272 160.876 448.636 161.745 448.17C162.63 447.687 163.692 447.446 164.931 447.446C165.527 447.446 166.074 447.518 166.573 447.663C167.088 447.792 167.562 447.985 167.997 448.242C168.431 448.5 168.81 448.805 169.131 449.159H169.156C169.493 448.805 169.88 448.5 170.314 448.242C170.749 447.985 171.224 447.792 171.738 447.663C172.253 447.518 172.809 447.446 173.404 447.446C174.643 447.446 175.697 447.687 176.566 448.17C177.451 448.636 178.127 449.272 178.594 450.077C179.061 450.881 179.294 451.767 179.294 452.732V460.046H175.987V452.732C175.987 452.282 175.866 451.871 175.625 451.501C175.4 451.131 175.094 450.833 174.708 450.608C174.321 450.383 173.887 450.27 173.404 450.27C172.937 450.27 172.503 450.383 172.101 450.608C171.714 450.833 171.401 451.131 171.159 451.501C170.934 451.871 170.821 452.282 170.821 452.732V460.046H167.514V452.732C167.514 452.282 167.393 451.871 167.152 451.501C166.927 451.131 166.621 450.833 166.235 450.608C165.848 450.383 165.414 450.27 164.931 450.27C164.464 450.27 164.03 450.383 163.628 450.608C163.241 450.833 162.928 451.131 162.686 451.501C162.461 451.871 162.348 452.282 162.348 452.732V460.046H159.041Z" fill="#80EF7E" fill-opacity="0.79"/>
<path d="M188.63 460.046C187.23 460.046 186.007 459.781 184.961 459.25C183.931 458.703 183.126 457.962 182.547 457.029C181.984 456.096 181.702 455.05 181.702 453.891C181.702 452.587 181.968 451.453 182.499 450.487C183.03 449.522 183.754 448.773 184.671 448.242C185.589 447.711 186.627 447.446 187.785 447.446C189.169 447.446 190.288 447.735 191.141 448.315C192.01 448.894 192.645 449.674 193.048 450.656C193.45 451.622 193.651 452.7 193.651 453.891C193.651 454.052 193.643 454.245 193.627 454.47C193.611 454.679 193.587 454.84 193.555 454.953H185.226C185.355 455.452 185.572 455.87 185.878 456.208C186.2 456.546 186.594 456.804 187.061 456.981C187.544 457.142 188.083 457.222 188.678 457.222H192.106V460.046H188.63ZM185.202 452.732H190.344C190.312 452.426 190.256 452.145 190.175 451.887C190.095 451.614 189.982 451.372 189.837 451.163C189.692 450.954 189.523 450.777 189.33 450.632C189.137 450.487 188.912 450.375 188.654 450.294C188.397 450.214 188.115 450.173 187.809 450.173C187.407 450.173 187.045 450.246 186.723 450.391C186.417 450.535 186.16 450.729 185.951 450.97C185.741 451.211 185.572 451.485 185.444 451.791C185.331 452.096 185.251 452.41 185.202 452.732Z" fill="#80EF7E" fill-opacity="0.79"/>
<path d="M195.981 460.046V452.974C195.981 451.96 196.215 451.034 196.681 450.197C197.164 449.361 197.856 448.693 198.757 448.194C199.658 447.695 200.737 447.446 201.992 447.446C203.263 447.446 204.341 447.695 205.227 448.194C206.128 448.693 206.812 449.361 207.278 450.197C207.761 451.034 208.003 451.96 208.003 452.974V460.046H204.696V452.974C204.696 452.475 204.575 452.024 204.333 451.622C204.092 451.203 203.762 450.873 203.344 450.632C202.941 450.391 202.491 450.27 201.992 450.27C201.493 450.27 201.034 450.391 200.616 450.632C200.214 450.873 199.892 451.203 199.65 451.622C199.409 452.024 199.288 452.475 199.288 452.974V460.046H195.981Z" fill="#80EF7E" fill-opacity="0.79"/>
<path d="M215.412 460.046C214.317 460.046 213.456 459.733 212.829 459.105C212.217 458.477 211.912 457.624 211.912 456.546V444.645H215.219V456.45C215.219 456.659 215.291 456.844 215.436 457.005C215.597 457.15 215.782 457.222 215.991 457.222H218.671V460.046H215.412ZM209.811 450.56V447.735H218.671V450.56H209.811Z" fill="#80EF7E" fill-opacity="0.79"/>
</svg>
