<svg width="1243" height="493" viewBox="0 0 1243 493" fill="none" xmlns="http://www.w3.org/2000/svg">
<path fill-rule="evenodd" clip-rule="evenodd" d="M54.7752 231.098C55.3874 257.337 61.1657 283.199 71.7801 307.208L71.7796 307.208L71.7802 307.208L71.7801 307.208C82.1339 300.873 89.7917 297.618 94.6615 295.548C96.2799 294.861 97.5903 294.304 98.5895 293.808C100.694 292.764 101.834 291.304 102.731 290.153C103.543 289.114 104.156 288.328 105.106 288.33C107.106 288.336 128.627 281.403 141.652 272.946C146.402 269.862 150.937 268.445 155.661 266.969C163.893 264.398 172.7 261.647 184.222 249.583C187.822 245.814 183.741 243.748 181.293 242.508C179.961 241.834 179.112 241.404 180.246 241.078C182.813 240.34 187.092 240.493 192.286 240.679C201.832 241.021 214.472 241.473 225.262 236.71C234.829 232.486 240.986 229.024 246.734 225.792L246.734 225.792L246.734 225.792C255.421 220.907 263.171 216.549 280.339 210.885C295.405 210.534 276.603 200.938 265.88 195.466L265.88 195.465L265.879 195.465C262.231 193.603 259.518 192.219 259.392 191.838C259.273 191.475 261.959 192.407 266.145 193.859L266.145 193.859C279.257 198.409 307.075 208.06 309.375 198.977C311.459 190.748 305.982 188.152 301.863 186.2C299.983 185.309 298.386 184.551 297.919 183.454C297.364 182.148 301.11 183.008 306.703 184.291C316.113 186.45 330.749 189.807 338.914 186.07C351.932 180.111 437.685 145.672 437.685 145.672L437.685 145.672C427.071 121.663 411.828 99.9793 392.828 81.8576C373.827 63.7358 351.44 49.5313 326.946 40.0549C302.452 30.5785 276.329 26.0159 250.071 26.6276C223.812 27.2393 197.931 33.0133 173.905 43.6199C149.879 54.2265 128.18 69.4581 110.045 88.4448C91.9099 107.432 77.6951 129.802 68.2119 154.278C58.7288 178.755 54.163 204.858 54.7752 231.098ZM129.555 409.949C126.383 407.321 123.297 404.599 120.3 401.787C127.738 401.068 133.946 381.831 133.858 375.445C133.752 367.86 139.402 359.971 139.402 359.971C146.889 352.843 148.916 359.624 150.466 364.806C151.408 367.954 152.173 370.513 153.877 369.007C155.238 367.806 157.287 364.064 159.746 359.573C165.444 349.167 173.342 334.744 179.967 338.602C186.675 342.509 185.929 356.836 185.572 363.693C185.424 366.531 185.343 368.09 185.885 367.1C187.374 364.379 188.859 354.476 190.463 343.784C192.538 329.954 194.81 314.804 197.544 312.17C208.942 301.189 215.7 335.908 220.432 360.217C222.57 371.198 224.294 380.056 225.846 381.615C227.185 382.961 227.746 379.142 228.603 373.296C230.939 357.377 235.481 326.426 263.957 343.75C290.652 359.99 292.083 333.322 293.085 314.636C293.545 306.069 293.915 299.18 296.588 298.874C297.377 298.777 298.545 297.963 299.939 296.989C305.614 293.027 315.053 286.438 318.12 314.924C321.942 350.412 341.407 299.002 333.141 280.99C324.876 262.979 327.315 233.802 328.78 232.51C330.061 231.38 332.166 229.38 334.684 226.988L334.69 226.983L334.69 226.982C344.585 217.582 360.838 202.141 358.425 209.7C356.899 214.48 358.641 212.902 361.384 210.418C364.085 207.973 367.755 204.649 370.233 205.647C372.682 206.634 373.567 208.098 374.422 209.511C375.31 210.98 376.166 212.395 378.712 213.167C380.701 212.546 385.914 206.448 391.196 200.27L391.196 200.27C396.638 193.903 402.153 187.452 404.289 186.819C411.098 184.802 413.485 189.518 414.721 191.96C415.172 192.849 415.469 193.437 415.772 193.286C416.967 192.693 418.838 188.479 421.137 183.3C424.141 176.533 427.877 168.119 431.793 163.981L434.089 162.769C446.354 185.979 453.923 211.376 456.366 237.509C458.808 263.642 456.076 290 448.324 315.078C440.573 340.155 427.954 363.462 411.189 383.667C394.424 403.871 373.84 420.578 350.613 432.834C327.387 445.089 301.972 452.653 275.819 455.094C249.667 457.535 223.29 454.804 198.194 447.058C173.098 439.312 149.774 426.703 129.555 409.949ZM433.667 162.358C433.04 162.776 432.414 163.325 431.793 163.981L257.22 256.094L80.3517 349.418C90.692 368.986 104.199 386.677 120.3 401.787C120.252 401.792 120.203 401.796 120.154 401.799C119.951 401.812 118.576 400.829 117.66 399.793C117.481 399.602 117.283 399.438 117.069 399.262C116.654 398.92 116.179 398.529 115.665 397.788C115.532 397.596 115.353 397.478 115.153 397.346C114.838 397.138 114.474 396.898 114.17 396.285C107.909 390.459 105.862 420.75 104.16 445.936C103.039 462.526 102.068 476.901 100.14 477.281C97.0795 478.383 97.4789 470.244 98.0891 457.81C98.5766 447.877 99.1985 435.204 98.2982 422.312C96.2847 393.48 86.0414 360.572 79.9301 349.007L256.799 255.683L433.667 162.358ZM55.4398 343.919L470.387 134.145L471.742 136.822L56.7949 346.596L55.4398 343.919ZM89.8418 240.997C91.6887 242.087 94.148 243.076 97.2379 243.379C98.1518 243.468 98.8508 244.285 98.7094 245.192C98.6004 245.891 98.0198 246.419 97.318 246.511C94.724 246.849 90.6897 247.761 86.6851 248.761C82.6491 249.77 79.5059 245.013 82.1049 241.764C83.8637 239.566 87.4173 239.566 89.8418 240.997ZM145.16 222.139C146.107 222.761 147.345 221.984 147.202 220.86C147.149 220.446 146.911 220.085 146.551 219.873C144.21 218.496 134.83 212.82 122.273 203.115C111.879 195.083 105.381 188.983 102.514 186.151C101.521 185.17 99.9495 185.031 98.8248 185.858C97.3555 186.938 97.3308 189.119 98.7826 190.222C103.374 193.711 112.534 200.577 119.564 205.249C127.168 210.303 139.884 218.67 145.16 222.139ZM155.381 235.712C155.667 236.189 155.263 236.783 154.714 236.689C151.656 236.167 144.284 234.905 139.866 234.128C137.613 233.732 133.085 233.834 128.44 234.1C125.485 234.27 124.275 230.07 126.911 228.724C127.778 228.281 128.823 228.338 129.691 228.78C131.444 229.674 134.953 231.205 140.665 232.635C148.229 234.53 153.569 235.237 154.893 235.396C155.097 235.42 155.275 235.536 155.381 235.712ZM141.087 408.765C145.442 394.96 150.223 377.717 148.915 372.148C148.827 371.773 148.758 371.412 148.761 371.027C148.789 367.592 150.244 367.471 150.399 370.903C151.028 384.751 151.084 404.162 151.085 410.595C151.085 411.977 150.501 413.29 149.479 414.222C145.672 417.693 139.536 413.678 141.087 408.765ZM549.567 183.113L549.617 165.789L586.485 165.895C587.67 165.898 588.707 165.654 589.597 165.163C590.585 164.673 591.327 163.984 591.823 163.097C592.418 162.21 592.717 161.224 592.72 160.138C592.724 158.954 592.431 157.916 591.841 157.026C591.35 156.136 590.612 155.443 589.626 154.947C588.739 154.352 587.704 154.053 586.519 154.05L572.305 154.009C567.468 153.995 563.077 153.242 559.133 151.75C555.288 150.159 552.186 147.683 549.826 144.32C547.566 140.858 546.444 136.364 546.459 130.836C546.472 126.591 547.519 122.745 549.602 119.296C551.784 115.748 554.655 112.943 558.214 110.881C561.873 108.72 565.873 107.645 570.217 107.658L605.604 107.759L605.555 125.083L572.092 124.987C570.611 124.983 569.277 125.472 568.09 126.456C567.001 127.44 566.455 128.722 566.45 130.301C566.446 131.881 566.985 133.215 568.067 134.304C569.15 135.294 570.481 135.791 572.061 135.796L586.275 135.837C591.704 135.852 596.391 136.705 600.334 138.394C604.278 139.985 607.331 142.511 609.493 145.972C611.654 149.433 612.727 153.977 612.711 159.603C612.698 163.946 611.601 167.941 609.419 171.587C607.237 175.135 604.317 177.989 600.659 180.15C597 182.212 592.901 183.237 588.36 183.224L549.567 183.113ZM666.562 183.449C657.974 183.424 650.477 181.774 644.07 178.498C637.762 175.123 632.84 170.569 629.303 164.833C625.864 159.098 624.155 152.677 624.176 145.57C624.198 137.574 625.847 130.62 629.122 124.706C632.396 118.793 636.851 114.216 642.487 110.975C648.123 107.733 654.494 106.123 661.602 106.143C670.091 106.168 676.946 107.964 682.168 111.533C687.488 115.102 691.373 119.9 693.823 125.929C696.274 131.858 697.489 138.476 697.468 145.78C697.465 146.767 697.413 147.952 697.31 149.333C697.207 150.616 697.057 151.603 696.857 152.293L645.774 152.147C646.555 155.209 647.881 157.779 649.75 159.858C651.718 161.936 654.132 163.522 656.992 164.617C659.95 165.612 663.256 166.115 666.908 166.126L687.933 166.186L687.884 183.51L666.562 183.449ZM645.666 138.524L677.204 138.615C677.012 136.739 676.671 135.01 676.182 133.429C675.693 131.75 675.006 130.267 674.122 128.982C673.237 127.696 672.204 126.607 671.022 125.715C669.84 124.823 668.46 124.128 666.882 123.63C665.304 123.132 663.577 122.88 661.702 122.875C659.234 122.868 657.012 123.306 655.035 124.189C653.157 125.072 651.574 126.252 650.287 127.729C648.999 129.206 647.958 130.881 647.163 132.754C646.466 134.627 645.967 136.551 645.666 138.524ZM737.859 183.653C731.147 183.634 725.871 181.694 722.033 177.833C718.293 173.973 716.432 168.736 716.451 162.122L716.557 125.402L703.675 125.365L703.725 108.041L716.606 108.078L716.661 89.1255L736.946 89.1837L736.891 108.136L758.065 108.197L758.015 125.521L736.842 125.46L736.738 161.588C736.734 162.871 737.175 164.008 738.061 164.997C739.045 165.889 740.179 166.336 741.463 166.34L757.898 166.387L757.848 183.711L737.859 183.653ZM773.69 183.756L773.74 166.432L810.608 166.538C811.793 166.542 812.83 166.298 813.72 165.807C814.708 165.316 815.451 164.627 815.947 163.74C816.541 162.854 816.84 161.867 816.844 160.781C816.847 159.597 816.554 158.56 815.964 157.67C815.473 156.78 814.735 156.087 813.749 155.59C812.862 154.995 811.827 154.696 810.642 154.693L796.428 154.652C791.591 154.638 787.201 153.885 783.256 152.393C779.411 150.803 776.309 148.326 773.949 144.963C771.689 141.502 770.567 137.007 770.583 131.479C770.595 127.235 771.642 123.388 773.725 119.939C775.907 116.392 778.778 113.587 782.337 111.524C785.996 109.363 789.997 108.289 794.34 108.301L829.728 108.403L829.678 125.726L796.215 125.63C794.734 125.626 793.4 126.116 792.213 127.099C791.124 128.083 790.578 129.365 790.573 130.945C790.569 132.524 791.108 133.858 792.19 134.947C793.273 135.937 794.605 136.435 796.184 136.439L810.398 136.48C815.827 136.496 820.514 137.348 824.457 139.037C828.401 140.628 831.454 143.154 833.616 146.615C835.777 150.076 836.85 154.62 836.834 160.247C836.822 164.59 835.724 168.584 833.542 172.231C831.36 175.778 828.44 178.632 824.782 180.793C821.123 182.856 817.024 183.88 812.483 183.867L773.69 183.756ZM889.496 185.865C881.796 185.843 875.187 184.294 869.668 181.218C864.149 178.142 859.916 174.034 856.97 168.892C854.122 163.751 852.707 158.071 852.725 151.852L852.849 108.469L873.134 108.527L873.01 151.911C873.001 154.971 873.733 157.786 875.206 160.357C876.68 162.829 878.648 164.809 881.112 166.296C883.674 167.784 886.485 168.533 889.545 168.542C892.605 168.55 895.371 167.818 897.843 166.344C900.414 164.871 902.443 162.903 903.931 160.439C905.419 157.877 906.168 155.066 906.176 152.006L906.301 108.622L926.586 108.681L926.461 152.064C926.444 158.283 924.947 163.954 921.97 169.079C919.093 174.204 914.886 178.288 909.35 181.332C903.912 184.377 897.294 185.888 889.496 185.865ZM945.607 184.25L945.732 140.866C945.75 134.647 947.197 128.976 950.075 123.851C953.051 118.727 957.307 114.642 962.844 111.598C968.38 108.554 974.998 107.043 982.698 107.065C990.496 107.087 997.105 108.636 1002.53 111.712C1008.04 114.788 1012.23 118.896 1015.08 124.038C1018.02 129.179 1019.49 134.859 1019.47 141.078L1019.34 184.461L999.059 184.403L999.184 141.02C999.192 137.96 998.46 135.194 996.986 132.722C995.513 130.151 993.495 128.122 990.933 126.633C988.47 125.146 985.708 124.397 982.648 124.389C979.588 124.38 976.772 125.112 974.202 126.585C971.73 128.059 969.75 130.077 968.262 132.639C966.774 135.103 966.026 137.864 966.017 140.924L965.892 184.308L945.607 184.25ZM1068.34 186.379C1061.43 186.359 1055.41 184.565 1050.29 180.996C1045.17 177.428 1041.18 172.679 1038.34 166.748C1035.59 160.718 1034.23 154.101 1034.25 146.895C1034.27 139.492 1035.87 132.784 1039.04 126.772C1042.32 120.76 1046.97 116.035 1053 112.597C1059.03 109.061 1066.25 107.305 1074.64 107.329C1083.13 107.353 1090.28 109.151 1096.09 112.721C1101.9 116.291 1106.33 121.091 1109.37 127.122C1112.42 133.152 1113.93 139.819 1113.91 147.124L1113.8 184.732L1093.51 184.674L1093.55 172.089L1093.25 172.088C1091.77 174.749 1089.88 177.162 1087.61 179.327C1085.43 181.492 1082.76 183.212 1079.6 184.486C1076.43 185.76 1072.68 186.391 1068.34 186.379ZM1074.16 169.072C1078.11 169.083 1081.52 168.106 1084.39 166.14C1087.26 164.174 1089.44 161.515 1090.93 158.163C1092.51 154.712 1093.32 150.914 1093.33 146.768C1093.34 142.623 1092.56 138.919 1090.99 135.657C1089.52 132.296 1087.36 129.625 1084.5 127.642C1081.64 125.66 1078.24 124.663 1074.29 124.652C1070.24 124.64 1066.74 125.617 1063.77 127.583C1060.9 129.549 1058.67 132.208 1057.08 135.559C1055.59 138.813 1054.84 142.512 1054.83 146.658C1054.82 150.804 1055.55 154.606 1057.02 158.065C1058.59 161.426 1060.8 164.098 1063.66 166.08C1066.61 168.063 1070.12 169.06 1074.16 169.072ZM579.235 382.204C588.566 387.44 599.513 390.076 612.077 390.112C622.036 390.141 630.85 388.634 638.52 385.592C646.19 382.396 652.637 377.972 657.863 372.318C663.089 366.511 667.092 359.781 669.872 352.128C672.652 344.322 674.055 335.822 674.082 326.629C674.115 314.985 671.77 304.79 667.045 296.043C662.474 287.143 655.982 280.153 647.57 275.073C639.158 269.993 629.206 267.436 617.715 267.403C612.812 267.389 608.061 268.065 603.46 269.43C599.013 270.797 594.947 272.777 591.263 275.371C587.731 277.965 584.735 281.021 582.273 284.538L582.043 284.537L582.23 219.498L550.744 219.407L550.438 326.274C550.401 339.144 552.896 350.413 557.925 360.08C562.954 369.594 570.057 376.969 579.235 382.204ZM628.255 358.673C623.803 361.725 618.436 363.241 612.154 363.223C606.026 363.206 600.667 361.658 596.08 358.581C591.645 355.504 588.21 351.357 585.774 346.141C583.49 340.925 582.358 335.099 582.376 328.664C582.395 322.229 583.561 316.411 585.874 311.208C588.34 306.006 591.799 301.879 596.251 298.827C600.857 295.776 606.223 294.259 612.352 294.277C618.634 294.295 623.992 295.843 628.426 298.92C632.861 301.997 636.22 306.143 638.503 311.359C640.939 316.575 642.148 322.401 642.13 328.836C642.111 335.271 640.869 341.09 638.403 346.292C636.089 351.495 632.707 355.622 628.255 358.673ZM697.327 219.828L696.846 387.598L728.331 387.688L728.813 219.919L697.327 219.828ZM782.033 382.557C791.517 387.946 802.311 390.659 814.415 390.693C826.519 390.728 837.328 388.078 846.843 382.743C856.358 377.254 863.887 369.921 869.429 360.744C874.971 351.414 877.759 341.004 877.792 329.512C877.825 318.021 875.097 307.671 869.608 298.463C864.119 289.101 856.632 281.725 847.148 276.335C837.665 270.792 826.871 268.003 814.767 267.969C802.663 267.934 791.854 270.661 782.339 276.149C772.824 281.484 765.295 288.817 759.753 298.147C754.211 307.324 751.423 317.659 751.39 329.15C751.357 340.641 754.085 351.067 759.574 360.429C765.063 369.638 772.55 377.014 782.033 382.557ZM831.053 359.255C826.447 362.306 820.927 363.823 814.492 363.804C808.057 363.786 802.469 362.238 797.728 359.16C793.141 356.082 789.552 351.935 786.962 346.718C784.526 341.502 783.317 335.676 783.335 329.241C783.354 322.806 784.596 316.988 787.063 311.785C789.682 306.584 793.295 302.457 797.9 299.406C802.658 296.355 808.255 294.839 814.69 294.858C821.125 294.876 826.636 296.424 831.224 299.502C835.965 302.58 839.554 306.727 841.99 311.943C844.58 317.16 845.865 322.986 845.847 329.421C845.828 335.856 844.509 341.674 841.89 346.876C839.423 352.078 835.811 356.205 831.053 359.255ZM918.272 407.998L918.195 434.888L983.924 435.076C994.343 435.106 1002.47 432.142 1008.31 426.183C1014.3 420.225 1017.31 412.113 1017.34 401.848L1017.54 332.212C1017.58 319.189 1015.09 307.92 1010.06 298.406C1005.03 288.892 997.925 281.518 988.747 276.282C979.569 271.046 968.621 268.41 955.905 268.374C942.728 268.336 931.536 270.985 922.328 276.321C913.119 281.657 906.051 288.915 901.121 298.094C896.346 307.12 893.942 317.302 893.909 328.639C893.875 340.59 896.296 351.092 901.173 360.146C906.05 369.2 912.618 376.267 920.877 381.346C929.29 386.273 938.705 388.752 949.124 388.782C954.18 388.796 958.778 388.273 962.918 387.213C967.211 385.999 971.2 384.172 974.884 381.731C978.569 379.29 982.178 376.083 985.714 372.11L985.944 372.11L985.861 400.838C985.855 402.83 985.161 404.513 983.778 405.888C982.395 407.416 980.631 408.177 978.486 408.171L918.272 407.998ZM971.736 357.591C967.285 360.489 961.918 361.929 955.636 361.911C949.508 361.894 944.149 360.423 939.561 357.498C935.127 354.421 931.691 350.428 929.254 345.518C926.97 340.455 925.837 334.86 925.854 328.731C925.872 322.449 927.038 316.784 929.35 311.734C931.816 306.685 935.275 302.711 939.727 299.813C944.332 296.762 949.699 295.245 955.827 295.263C962.109 295.281 967.467 296.828 971.902 299.906C976.336 302.983 979.695 307.129 981.978 312.345C984.415 317.561 985.624 323.387 985.605 329.822C985.588 335.797 984.347 341.233 981.881 346.129C979.569 350.872 976.188 354.692 971.736 357.591Z" fill="#F4F4F4"/>
</svg>
