<svg width="1596" height="477" viewBox="0 0 1596 477" fill="none" xmlns="http://www.w3.org/2000/svg">
<path fill-rule="evenodd" clip-rule="evenodd" d="M30.8606 0.0875453L530.118 1.52072L528.754 476.519L29.497 475.086L30.4617 139.022C31.726 138.036 32.7817 136.855 33.6288 135.477C34.793 133.532 35.3785 131.401 35.3851 129.083C35.3937 126.082 34.8214 123.657 33.668 121.811C32.855 120.509 31.8057 119.455 30.5202 118.649L30.5431 110.663L31.567 110.665L31.5935 101.422L30.5697 101.42L30.8606 0.0875453ZM30.5697 101.42L30.5431 110.663L13.7131 110.614C12.9231 110.612 12.2113 110.873 11.5778 111.398C10.9969 111.923 10.7053 112.607 10.7029 113.45C10.7005 114.292 10.9881 115.004 11.5658 115.585C12.1436 116.113 12.8538 116.379 13.6965 116.381L21.2805 116.403C24.1771 116.411 26.6775 116.866 28.7816 117.767C29.4025 118.018 29.9821 118.312 30.5202 118.649L30.4617 139.022C29.9886 139.391 29.4862 139.732 28.9546 140.046C27.0028 141.146 24.8156 141.693 22.3929 141.686L1.69498 141.627L1.72151 132.384L21.3924 132.44C22.0244 132.442 22.5778 132.312 23.0526 132.05C23.58 131.788 23.976 131.421 24.2407 130.948C24.5581 130.474 24.7176 129.948 24.7193 129.369C24.7211 128.737 24.5647 128.183 24.25 127.709C23.9881 127.234 23.5941 126.864 23.0682 126.599C22.5951 126.282 22.0426 126.122 21.4106 126.12L13.8266 126.099C11.2459 126.091 8.90342 125.689 6.79903 124.893C4.74746 124.045 3.09225 122.723 1.83339 120.929C0.627355 119.082 0.0285696 116.684 0.037036 113.735C0.0435369 111.47 0.602431 109.418 1.71372 107.578C2.87782 105.685 4.40946 104.188 6.30863 103.088C8.26061 101.935 10.3953 101.362 12.7126 101.368L30.5697 101.42ZM105.685 343.686C116.009 363.222 129.495 380.882 145.572 395.966C145.546 395.969 145.52 395.971 145.493 395.973C145.471 395.975 145.448 395.977 145.426 395.978C145.223 395.991 143.85 395.01 142.935 393.976C142.757 393.785 142.559 393.622 142.345 393.446C141.931 393.105 141.456 392.714 140.944 391.975C140.811 391.783 140.632 391.665 140.433 391.533C140.118 391.326 139.755 391.086 139.45 390.474C133.2 384.658 131.156 414.897 129.456 440.04C128.337 456.602 127.367 470.953 125.443 471.332C122.387 472.432 122.786 464.307 123.395 451.894C123.881 441.978 124.502 429.326 123.604 416.456C121.593 387.673 111.366 354.822 105.264 343.276L281.86 250.111L458.456 156.946C457.829 157.363 457.204 157.911 456.584 158.566L282.281 250.521L105.685 343.686ZM456.584 158.566L458.877 157.356C471.122 180.527 478.68 205.88 481.119 231.968C483.558 258.057 480.83 284.37 473.09 309.405C465.351 334.44 452.751 357.707 436.012 377.877C419.273 398.047 398.721 414.726 375.53 426.961C352.339 439.195 326.963 446.746 300.851 449.183C274.739 451.619 248.403 448.893 223.346 441.16C198.288 433.428 175 420.84 154.812 404.115C151.645 401.491 148.563 398.773 145.572 395.966C152.998 395.249 159.197 376.045 159.108 369.67C159.003 362.098 164.644 354.222 164.644 354.222C172.119 347.106 174.144 353.875 175.691 359.049C176.631 362.191 177.395 364.745 179.097 363.242C180.455 362.043 182.501 358.307 184.956 353.824C190.645 343.437 198.532 329.038 205.146 332.889C211.844 336.789 211.099 351.092 210.743 357.938C210.595 360.771 210.514 362.327 211.055 361.339C212.542 358.623 214.025 348.736 215.626 338.062C217.698 324.256 219.967 309.132 222.696 306.503C234.076 295.54 240.824 330.2 245.549 354.467C247.684 365.43 249.405 374.272 250.954 375.829C252.292 377.173 252.851 373.361 253.708 367.524C256.04 351.633 260.575 320.734 289.007 338.028C315.661 354.241 317.09 327.618 318.091 308.964C318.549 300.412 318.918 293.535 321.587 293.229C322.376 293.133 323.541 292.319 324.934 291.347C330.6 287.392 340.024 280.815 343.086 309.252C346.902 344.679 366.338 293.357 358.085 275.376C349.832 257.395 352.267 228.268 353.73 226.978C355.009 225.85 357.113 223.852 359.627 221.463L359.629 221.462L359.631 221.46C369.51 212.076 385.738 196.661 383.329 204.207C381.806 208.979 383.545 207.404 386.284 204.924C388.98 202.483 392.645 199.164 395.119 200.161C397.564 201.147 398.448 202.607 399.301 204.018C400.188 205.485 401.043 206.898 403.585 207.668C405.571 207.048 410.776 200.961 416.05 194.793L416.05 194.792L416.05 194.792C421.484 188.437 426.99 181.997 429.123 181.365C435.921 179.351 438.305 184.06 439.539 186.497C439.988 187.385 440.285 187.971 440.587 187.821C441.781 187.23 443.649 183.023 445.945 177.852L445.945 177.852L445.945 177.851C448.945 171.096 452.674 162.696 456.584 158.566ZM80.1476 225.568C80.7589 251.763 86.5283 277.581 97.1263 301.548L97.1257 301.549L97.1264 301.549L97.1263 301.548C107.464 295.224 115.11 291.975 119.972 289.909L119.973 289.909C121.589 289.222 122.897 288.666 123.894 288.172C125.996 287.13 127.133 285.672 128.03 284.523C128.84 283.486 129.452 282.701 130.4 282.703C132.397 282.709 153.886 275.787 166.891 267.345C171.633 264.266 176.161 262.852 180.878 261.379C189.097 258.812 197.89 256.065 209.395 244.023C212.989 240.26 208.914 238.197 206.47 236.959C205.14 236.286 204.293 235.857 205.425 235.531C207.988 234.795 212.26 234.948 217.446 235.133L217.446 235.133L217.447 235.133C226.978 235.474 239.598 235.926 250.371 231.171C259.924 226.954 266.072 223.498 271.811 220.271L271.811 220.271C280.484 215.395 288.222 211.045 305.364 205.39C320.406 205.04 301.633 195.46 290.927 189.997L290.926 189.997C287.284 188.138 284.575 186.756 284.449 186.375C284.33 186.013 287.013 186.944 291.192 188.393C304.284 192.935 332.058 202.57 334.355 193.502C336.435 185.288 330.968 182.696 326.855 180.747C324.978 179.857 323.383 179.101 322.917 178.006C322.362 176.703 326.103 177.561 331.687 178.842C341.083 180.997 355.696 184.348 363.848 180.617C376.846 174.669 462.467 140.288 462.467 140.288L462.468 140.288C451.869 116.321 436.65 94.6734 417.679 76.5826C398.707 58.4917 376.355 44.3114 351.899 34.8511C327.442 25.3909 301.36 20.8361 275.142 21.4467C248.924 22.0573 223.082 27.8214 199.094 38.41C175.105 48.9985 153.439 64.2041 135.332 83.1585C121.8 97.3242 110.454 113.376 101.632 130.783C101.583 130.578 101.558 130.364 101.559 130.142L101.614 110.867L112.911 110.899L112.938 101.656L101.641 101.624L101.67 91.5116L90.847 91.4805L90.818 101.593L83.945 101.573L83.9185 110.816L90.7914 110.835L90.7352 130.427C90.7251 133.956 91.7177 136.75 93.7131 138.81C94.61 139.712 95.6538 140.417 96.8445 140.926C95.6949 143.551 94.6009 146.203 93.5636 148.88C84.0951 173.314 79.5363 199.373 80.1476 225.568ZM96.8445 140.926C98.3462 137.498 99.9427 134.116 101.632 130.783C101.734 131.212 101.945 131.604 102.265 131.961C102.79 132.437 103.395 132.676 104.08 132.678L112.849 132.703L112.822 141.946L102.157 141.915C100.144 141.909 98.3732 141.58 96.8445 140.926ZM80.8101 338.195L495.117 128.779L496.472 131.455L82.1654 340.872L80.8101 338.195ZM115.159 235.45C117.003 236.538 119.459 237.527 122.545 237.828C123.457 237.917 124.155 238.733 124.014 239.639C123.905 240.337 123.326 240.864 122.625 240.955C120.035 241.292 116.007 242.203 112.008 243.202C107.978 244.209 104.841 239.459 107.436 236.216C109.192 234.022 112.739 234.021 115.159 235.45ZM170.393 216.624C171.338 217.246 172.575 216.47 172.431 215.348C172.379 214.935 172.141 214.574 171.782 214.363C169.445 212.988 160.079 207.322 147.541 197.634C137.164 189.615 130.675 183.525 127.812 180.698C126.821 179.719 125.252 179.58 124.129 180.405C122.662 181.483 122.638 183.661 124.087 184.763C128.671 188.245 137.818 195.099 144.837 199.764C152.429 204.809 165.125 213.161 170.393 216.624ZM180.598 230.174C180.884 230.651 180.48 231.244 179.932 231.15C176.879 230.629 169.519 229.37 165.108 228.594C162.858 228.198 158.336 228.3 153.698 228.566C150.748 228.735 149.54 224.542 152.172 223.198C153.038 222.757 154.081 222.813 154.947 223.254C156.697 224.146 160.202 225.675 165.905 227.103C173.457 228.994 178.789 229.701 180.111 229.859C180.315 229.883 180.493 229.999 180.598 230.174ZM166.326 402.931C170.675 389.15 175.448 371.938 174.142 366.378C174.054 366.004 173.985 365.644 173.988 365.259C174.016 361.829 175.469 361.709 175.624 365.135C176.252 378.959 176.308 398.337 176.309 404.759C176.309 406.139 175.725 407.45 174.705 408.38C170.904 411.845 164.778 407.836 166.326 402.931ZM64.1171 141.806C59.5351 141.793 55.5349 140.912 52.1166 139.165C48.7511 137.364 46.1247 134.934 44.2375 131.874C42.4029 128.814 41.4911 125.388 41.502 121.596C41.5142 117.33 42.3939 113.62 44.141 110.465C45.888 107.31 48.265 104.867 51.272 103.138C54.279 101.409 57.6785 100.549 61.4705 100.56C65.9998 100.573 69.6574 101.532 72.4432 103.436C75.2818 105.34 77.3548 107.9 78.6622 111.117C79.9698 114.28 80.618 117.811 80.6068 121.708C80.6053 122.235 80.5772 122.867 80.5224 123.604C80.4678 124.289 80.3872 124.815 80.2808 125.183L53.026 125.105C53.4426 126.739 54.1497 128.11 55.1472 129.219C56.1973 130.328 57.4852 131.175 59.0109 131.758C60.5894 132.29 62.3529 132.558 64.3016 132.564L75.5196 132.596L75.493 141.839L64.1171 141.806ZM52.9678 117.837L69.7948 117.885C69.6923 116.884 69.5106 115.962 69.2497 115.119C68.9889 114.223 68.6225 113.432 68.1505 112.745C67.6785 112.059 67.1271 111.479 66.4965 111.003C65.8659 110.527 65.1296 110.156 64.2877 109.89C63.4458 109.625 62.5245 109.49 61.5238 109.487C60.2072 109.484 59.0215 109.717 57.9668 110.188C56.9648 110.659 56.1203 111.289 55.4334 112.077C54.7464 112.865 54.1909 113.759 53.7667 114.758C53.3951 115.758 53.1288 116.784 52.9678 117.837ZM121.275 141.97L121.301 132.727L140.972 132.784C141.604 132.785 142.157 132.655 142.632 132.393C143.16 132.132 143.556 131.764 143.82 131.291C144.138 130.818 144.297 130.291 144.299 129.712C144.301 129.08 144.144 128.527 143.83 128.052C143.568 127.577 143.174 127.207 142.648 126.942C142.175 126.625 141.622 126.465 140.99 126.464L133.406 126.442C130.826 126.434 128.483 126.033 126.379 125.237C124.327 124.388 122.672 123.067 121.413 121.272C120.207 119.426 119.608 117.028 119.617 114.078C119.623 111.814 120.182 109.761 121.293 107.921C122.457 106.028 123.989 104.532 125.888 103.431C127.84 102.278 129.975 101.705 132.292 101.712L151.173 101.766L151.147 111.009L133.293 110.957C132.503 110.955 131.791 111.216 131.157 111.741C130.577 112.266 130.285 112.95 130.282 113.793C130.28 114.636 130.568 115.347 131.145 115.928C131.723 116.457 132.433 116.722 133.276 116.724L140.86 116.746C143.757 116.755 146.257 117.209 148.361 118.111C150.465 118.959 152.094 120.307 153.248 122.154C154.401 124 154.973 126.425 154.965 129.427C154.958 131.744 154.373 133.875 153.208 135.821C152.044 137.713 150.486 139.236 148.534 140.389C146.582 141.49 144.395 142.036 141.972 142.03L121.275 141.97ZM183.062 143.095C178.954 143.084 175.428 142.257 172.483 140.616C169.538 138.975 167.28 136.783 165.708 134.04C164.188 131.297 163.433 128.266 163.443 124.948L163.509 101.801L174.332 101.832L174.266 124.979C174.261 126.612 174.652 128.114 175.438 129.486C176.224 130.804 177.274 131.861 178.589 132.655C179.956 133.449 181.456 133.848 183.088 133.853C184.721 133.857 186.197 133.466 187.516 132.68C188.887 131.894 189.97 130.844 190.764 129.53C191.558 128.162 191.957 126.663 191.962 125.03L192.028 101.883L202.851 101.914L202.785 125.061C202.775 128.379 201.977 131.405 200.389 134.139C198.854 136.873 196.609 139.053 193.655 140.677C190.754 142.301 187.223 143.107 183.062 143.095ZM213 142.233L213.066 119.087C213.076 115.769 213.848 112.742 215.383 110.008C216.971 107.274 219.242 105.095 222.196 103.471C225.15 101.846 228.681 101.04 232.789 101.052C236.95 101.064 240.476 101.89 243.368 103.531C246.313 105.173 248.545 107.365 250.064 110.108C251.636 112.851 252.418 115.881 252.408 119.199L252.342 142.346L241.519 142.315L241.585 119.168C241.59 117.536 241.199 116.06 240.413 114.741C239.627 113.369 238.55 112.287 237.183 111.493C235.869 110.699 234.395 110.3 232.763 110.295C231.13 110.29 229.628 110.681 228.256 111.467C226.937 112.253 225.881 113.33 225.087 114.697C224.293 116.011 223.894 117.485 223.889 119.118L223.823 142.264L213 142.233ZM278.482 143.369C274.796 143.359 271.586 142.402 268.853 140.498C266.119 138.594 263.994 136.06 262.475 132.895C261.01 129.679 260.283 126.148 260.294 122.303C260.305 118.353 261.158 114.774 262.853 111.566C264.6 108.359 267.082 105.838 270.3 104.004C273.519 102.117 277.366 101.18 281.843 101.193C286.372 101.206 290.187 102.165 293.289 104.07C296.391 105.975 298.754 108.536 300.377 111.753C302.001 114.97 302.807 118.528 302.796 122.425L302.738 142.491L291.915 142.46L291.934 135.745L291.776 135.745C290.982 137.164 289.978 138.452 288.763 139.607C287.601 140.762 286.177 141.68 284.489 142.36C282.802 143.039 280.8 143.376 278.482 143.369ZM281.59 134.135C283.697 134.141 285.515 133.62 287.045 132.571C288.576 131.522 289.739 130.103 290.534 128.315C291.382 126.474 291.809 124.448 291.815 122.236C291.821 120.024 291.406 118.047 290.568 116.307C289.783 114.514 288.629 113.089 287.104 112.031C285.58 110.973 283.765 110.441 281.658 110.435C279.499 110.429 277.627 110.95 276.044 111.999C274.514 113.048 273.325 114.467 272.477 116.255C271.682 117.991 271.282 119.965 271.275 122.177C271.269 124.389 271.658 126.417 272.443 128.263C273.28 130.056 274.461 131.481 275.986 132.539C277.562 133.597 279.431 134.129 281.59 134.135ZM607.757 276.46L607.757 295L649.274 295C654.134 295 658.518 293.891 662.427 291.672C666.335 289.348 669.452 286.285 671.776 282.482C674.1 278.573 675.262 274.294 675.262 269.646C675.262 263.625 674.1 258.765 671.776 255.068C669.452 251.37 666.177 248.676 661.951 246.986C657.726 245.19 652.708 244.292 646.897 244.292L631.685 244.292C629.995 244.292 628.569 243.764 627.407 242.708C626.245 241.545 625.664 240.119 625.664 238.429C625.664 236.739 626.245 235.365 627.407 234.309C628.674 233.253 630.1 232.724 631.685 232.724L667.497 232.724L667.497 214.184L629.625 214.184C624.977 214.184 620.698 215.346 616.79 217.671C612.987 219.889 609.923 222.9 607.599 226.703C605.38 230.4 604.271 234.52 604.271 239.063C604.271 244.979 605.486 249.786 607.916 253.483C610.451 257.075 613.779 259.716 617.899 261.406C622.125 262.991 626.826 263.783 632.002 263.783L647.214 263.783C648.482 263.783 649.591 264.1 650.542 264.734C651.598 265.262 652.391 266.001 652.919 266.952C653.553 267.903 653.87 269.012 653.87 270.28C653.87 271.442 653.553 272.498 652.919 273.449C652.391 274.4 651.598 275.139 650.542 275.668C649.591 276.196 648.482 276.46 647.214 276.46L607.757 276.46ZM708.881 289.771C715.747 293.257 723.776 295 732.967 295L755.786 295L755.786 276.46L733.284 276.46C729.375 276.46 725.836 275.932 722.667 274.875C719.603 273.713 717.015 272.023 714.902 269.805C712.895 267.586 711.469 264.839 710.624 261.565L765.293 261.565C765.505 260.825 765.663 259.769 765.769 258.395C765.874 256.916 765.927 255.649 765.927 254.592C765.927 246.775 764.607 239.697 761.966 233.358C759.325 226.914 755.152 221.791 749.447 217.987C743.848 214.184 736.506 212.283 727.421 212.283C719.815 212.283 713.001 214.026 706.979 217.512C700.958 220.998 696.204 225.911 692.718 232.249C689.232 238.588 687.488 246.035 687.488 254.592C687.488 262.198 689.337 269.065 693.035 275.192C696.838 281.319 702.12 286.179 708.881 289.771ZM744.218 246.986L710.465 246.986C710.782 244.873 711.311 242.813 712.05 240.806C712.895 238.799 714.004 237.003 715.378 235.418C716.751 233.834 718.441 232.566 720.449 231.615C722.561 230.664 724.938 230.189 727.579 230.189C729.587 230.189 731.435 230.453 733.125 230.981C734.816 231.51 736.295 232.249 737.562 233.2C738.83 234.151 739.939 235.313 740.89 236.686C741.841 238.059 742.58 239.644 743.109 241.44C743.637 243.13 744.007 244.979 744.218 246.986ZM792.315 288.82C796.435 292.94 802.087 295 809.27 295L830.663 295L830.663 276.46L813.073 276.46C811.7 276.46 810.485 275.985 809.429 275.034C808.478 273.977 808.003 272.763 808.003 271.389L808.003 232.724L830.663 232.724L830.663 214.184L808.003 214.184L808.003 193.901L786.293 193.901L786.293 214.184L772.507 214.184L772.507 232.724L786.293 232.724L786.293 272.023C786.293 279.101 788.3 284.7 792.315 288.82ZM847.617 276.46L847.617 295L889.134 295C893.993 295 898.377 293.891 902.286 291.672C906.195 289.348 909.311 286.285 911.635 282.482C913.96 278.573 915.122 274.294 915.122 269.646C915.122 263.625 913.96 258.765 911.635 255.068C909.311 251.37 906.036 248.676 901.811 246.986C897.585 245.19 892.567 244.292 886.757 244.292L871.545 244.292C869.854 244.292 868.428 243.764 867.266 242.708C866.104 241.545 865.523 240.119 865.523 238.429C865.523 236.739 866.104 235.365 867.266 234.309C868.534 233.253 869.96 232.724 871.545 232.724L907.357 232.724L907.357 214.184L869.485 214.184C864.836 214.184 860.558 215.346 856.649 217.671C852.846 219.889 849.782 222.9 847.458 226.703C845.24 230.4 844.131 234.52 844.131 239.063C844.131 244.979 845.345 249.786 847.775 253.483C850.311 257.075 853.638 259.716 857.758 261.406C861.984 262.991 866.685 263.783 871.861 263.783L887.074 263.783C888.342 263.783 889.451 264.1 890.402 264.734C891.458 265.262 892.25 266.001 892.778 266.952C893.412 267.903 893.729 269.012 893.729 270.28C893.729 271.442 893.412 272.498 892.778 273.449C892.25 274.4 891.458 275.139 890.402 275.668C889.451 276.196 888.342 276.46 887.074 276.46L847.617 276.46ZM950.325 291.989C956.241 295.264 963.319 296.902 971.559 296.902C979.905 296.902 986.982 295.264 992.793 291.989C998.709 288.714 1003.2 284.33 1006.26 278.837C1009.43 273.344 1011.02 267.269 1011.02 260.614L1011.02 214.184L989.307 214.184L989.307 260.614C989.307 263.889 988.514 266.899 986.93 269.646C985.345 272.287 983.179 274.4 980.433 275.985C977.792 277.569 974.834 278.361 971.559 278.361C968.284 278.361 965.273 277.569 962.526 275.985C959.885 274.4 957.773 272.287 956.188 269.646C954.603 266.899 953.811 263.889 953.811 260.614L953.811 214.184L932.102 214.184L932.102 260.614C932.102 267.269 933.634 273.344 936.697 278.837C939.866 284.33 944.409 288.714 950.325 291.989ZM1031.6 248.571L1031.6 295L1053.31 295L1053.31 248.571C1053.31 245.296 1054.11 242.338 1055.69 239.697C1057.28 236.95 1059.39 234.784 1062.03 233.2C1064.78 231.615 1067.79 230.823 1071.06 230.823C1074.34 230.823 1077.29 231.615 1079.94 233.2C1082.68 234.784 1084.85 236.95 1086.43 239.697C1088.02 242.338 1088.81 245.296 1088.81 248.571L1088.81 295L1110.52 295L1110.52 248.571C1110.52 241.915 1108.93 235.841 1105.76 230.348C1102.7 224.854 1098.21 220.47 1092.3 217.195C1086.49 213.92 1079.41 212.283 1071.06 212.283C1062.82 212.283 1055.74 213.92 1049.83 217.195C1043.91 220.47 1039.37 224.854 1036.2 230.348C1033.14 235.841 1031.6 241.915 1031.6 248.571ZM1143.63 291.197C1149.12 295 1155.56 296.902 1162.96 296.902C1167.61 296.902 1171.62 296.215 1175 294.842C1178.38 293.468 1181.23 291.619 1183.56 289.295C1185.99 286.971 1188 284.383 1189.58 281.531L1189.9 281.531L1189.9 295L1211.61 295L1211.61 254.751C1211.61 246.933 1209.97 239.802 1206.69 233.358C1203.42 226.914 1198.67 221.791 1192.43 217.987C1186.2 214.184 1178.54 212.283 1169.46 212.283C1160.48 212.283 1152.76 214.184 1146.32 217.987C1139.88 221.685 1134.91 226.756 1131.42 233.2C1128.04 239.644 1126.35 246.828 1126.35 254.751C1126.35 262.462 1127.83 269.54 1130.79 275.985C1133.85 282.323 1138.13 287.394 1143.63 291.197ZM1180.07 275.192C1177.01 277.305 1173.36 278.362 1169.14 278.361C1164.81 278.361 1161.06 277.305 1157.89 275.192C1154.82 273.079 1152.45 270.227 1150.76 266.635C1149.17 262.938 1148.38 258.871 1148.38 254.434C1148.38 249.997 1149.17 246.035 1150.76 242.549C1152.45 238.957 1154.82 236.105 1157.89 233.992C1161.06 231.879 1164.81 230.823 1169.14 230.823C1173.36 230.823 1177.01 231.879 1180.07 233.992C1183.14 236.105 1185.46 238.957 1187.04 242.549C1188.74 246.035 1189.58 249.997 1189.58 254.434C1189.58 258.871 1188.74 262.938 1187.04 266.635C1185.46 270.227 1183.14 273.079 1180.07 275.192ZM1293.27 291.514C1299.71 295.106 1307.27 296.902 1315.93 296.902C1322.8 296.902 1328.87 295.845 1334.15 293.732C1339.43 291.514 1343.87 288.45 1347.46 284.542C1351.05 280.527 1353.8 275.879 1355.7 270.597C1357.6 265.209 1358.56 259.346 1358.56 253.008C1358.56 244.979 1356.92 237.954 1353.64 231.932C1350.47 225.805 1345.98 220.998 1340.17 217.512C1334.36 214.026 1327.5 212.283 1319.57 212.283C1316.19 212.283 1312.92 212.758 1309.75 213.709C1306.69 214.66 1303.89 216.033 1301.35 217.829C1298.92 219.625 1296.86 221.738 1295.17 224.167L1295.01 224.167L1295.01 179.323L1273.3 179.323L1273.3 253.008C1273.3 261.881 1275.05 269.646 1278.53 276.301C1282.02 282.851 1286.93 287.922 1293.27 291.514ZM1327.02 275.192C1323.96 277.305 1320.26 278.361 1315.93 278.361C1311.7 278.361 1308.01 277.305 1304.84 275.192C1301.77 273.079 1299.4 270.227 1297.71 266.635C1296.12 263.044 1295.33 259.029 1295.33 254.592C1295.33 250.155 1296.12 246.141 1297.71 242.549C1299.4 238.957 1301.77 236.105 1304.84 233.992C1308.01 231.879 1311.7 230.823 1315.93 230.823C1320.26 230.823 1323.96 231.879 1327.02 233.992C1330.08 236.105 1332.41 238.957 1333.99 242.549C1335.68 246.141 1336.53 250.155 1336.53 254.592C1336.53 259.029 1335.68 263.043 1333.99 266.635C1332.41 270.227 1330.08 273.079 1327.02 275.192ZM1374.37 179.323L1374.37 295L1396.08 295L1396.08 179.323L1374.37 179.323ZM1433.1 291.355C1439.65 295.053 1447.1 296.902 1455.44 296.902C1463.79 296.902 1471.23 295.053 1477.78 291.355C1484.33 287.552 1489.51 282.482 1493.31 276.143C1497.12 269.699 1499.02 262.515 1499.02 254.592C1499.02 246.669 1497.12 239.538 1493.31 233.2C1489.51 226.756 1484.33 221.685 1477.78 217.987C1471.23 214.184 1463.79 212.283 1455.44 212.283C1447.1 212.283 1439.65 214.184 1433.1 217.987C1426.55 221.685 1421.37 226.756 1417.57 233.2C1413.77 239.538 1411.86 246.669 1411.86 254.592C1411.86 262.515 1413.77 269.699 1417.57 276.143C1421.37 282.482 1426.55 287.552 1433.1 291.355ZM1466.85 275.192C1463.68 277.305 1459.88 278.361 1455.44 278.361C1451 278.362 1447.15 277.305 1443.87 275.192C1440.7 273.079 1438.22 270.227 1436.43 266.635C1434.74 263.043 1433.89 259.029 1433.89 254.592C1433.89 250.155 1434.74 246.141 1436.43 242.549C1438.22 238.957 1440.7 236.105 1443.87 233.992C1447.15 231.879 1451 230.823 1455.44 230.823C1459.88 230.823 1463.68 231.879 1466.85 233.992C1470.13 236.105 1472.61 238.957 1474.3 242.549C1476.09 246.141 1476.99 250.155 1476.99 254.592C1476.99 259.029 1476.09 263.044 1474.3 266.635C1472.61 270.227 1470.13 273.079 1466.85 275.192ZM1527.08 308.628L1527.08 327.168L1572.4 327.168C1579.59 327.168 1585.19 325.108 1589.2 320.988C1593.32 316.868 1595.38 311.269 1595.38 304.191L1595.38 256.177C1595.38 247.197 1593.64 239.433 1590.15 232.883C1586.67 226.333 1581.75 221.262 1575.42 217.671C1569.08 214.079 1561.52 212.283 1552.76 212.283C1543.67 212.283 1535.96 214.132 1529.62 217.829C1523.28 221.526 1518.42 226.544 1515.04 232.883C1511.77 239.116 1510.13 246.141 1510.13 253.958C1510.13 262.198 1511.82 269.435 1515.2 275.668C1518.58 281.9 1523.12 286.76 1528.83 290.246C1534.64 293.627 1541.13 295.317 1548.32 295.317C1551.8 295.317 1554.97 294.947 1557.83 294.208C1560.78 293.363 1563.53 292.095 1566.07 290.405C1568.6 288.714 1571.08 286.496 1573.51 283.749L1573.67 283.749L1573.67 303.557C1573.67 304.93 1573.2 306.092 1572.25 307.043C1571.3 308.1 1570.08 308.628 1568.6 308.628L1527.08 308.628ZM1563.85 273.766C1560.78 275.773 1557.09 276.777 1552.76 276.777C1548.53 276.777 1544.83 275.773 1541.66 273.766C1538.6 271.653 1536.22 268.907 1534.53 265.526C1532.95 262.04 1532.16 258.184 1532.16 253.958C1532.16 249.627 1532.95 245.718 1534.53 242.232C1536.22 238.746 1538.6 235.999 1541.66 233.992C1544.83 231.879 1548.53 230.823 1552.76 230.823C1557.09 230.823 1560.78 231.879 1563.85 233.992C1566.91 236.105 1569.24 238.957 1570.82 242.549C1572.51 246.141 1573.36 250.155 1573.36 254.592C1573.36 258.712 1572.51 262.462 1570.82 265.843C1569.24 269.118 1566.91 271.759 1563.85 273.766Z" fill="#00D1FF"/>
</svg>
