<svg width="65" height="82" viewBox="0 0 65 82" fill="none" xmlns="http://www.w3.org/2000/svg">
<path fill-rule="evenodd" clip-rule="evenodd" d="M10.4453 24.6873C10.5116 27.549 11.1371 30.3695 12.2859 32.988C13.4066 32.2971 14.2354 31.9421 14.7624 31.7163C14.9377 31.6414 15.0794 31.5806 15.1877 31.5266C15.4154 31.4127 15.5388 31.2535 15.6359 31.1279C15.7238 31.0146 15.7901 30.9289 15.8929 30.9291C16.1094 30.9298 18.4388 30.1736 19.8485 29.2513C20.3627 28.915 20.8535 28.7604 21.3648 28.5995C22.2558 28.3191 23.209 28.019 24.4561 26.7033C24.8458 26.2923 24.4041 26.0669 24.1391 25.9317C23.9949 25.8582 23.9031 25.8113 24.0258 25.7758C24.3036 25.6953 24.7668 25.7119 25.329 25.7322C26.3622 25.7695 27.7303 25.8188 28.8981 25.2994C29.9336 24.8387 30.6 24.4611 31.2222 24.1086C32.1624 23.5759 33.0012 23.1006 34.8594 22.4829C36.4901 22.4446 34.4551 21.398 33.2945 20.8012V20.8011H33.2943C32.8995 20.5981 32.6059 20.4471 32.5922 20.4056C32.5793 20.366 32.8701 20.4676 33.3231 20.626C34.7423 21.1222 37.7532 22.1748 38.0022 21.1842C38.2277 20.2867 37.6349 20.0036 37.1891 19.7907C36.9856 19.6935 36.8128 19.6108 36.7622 19.4912C36.7022 19.3488 37.1076 19.4426 37.713 19.5825C38.7315 19.8179 40.3156 20.1841 41.1994 19.7765C42.6084 19.1266 51.8899 15.3706 51.8899 15.3706C50.7411 12.7522 49.0913 10.3873 47.0348 8.41101C44.9782 6.4346 42.5551 4.88539 39.904 3.85191C37.2529 2.8184 34.4254 2.3208 31.5834 2.38751C28.7412 2.45423 25.9399 3.08395 23.3395 4.24073C20.739 5.39754 18.3904 7.05865 16.4275 9.1294C14.4647 11.2001 12.9261 13.6398 11.8997 16.3092C10.8733 18.9787 10.3791 21.8255 10.4453 24.6873ZM18.5392 44.193C18.1959 43.9064 17.8619 43.6096 17.5375 43.3029C18.3425 43.2245 19.0145 41.1265 19.0049 40.43C18.9935 39.6028 19.605 38.7424 19.605 38.7424C20.4154 37.965 20.6348 38.7045 20.8025 39.2697C20.9045 39.613 20.9873 39.8921 21.1717 39.7279C21.319 39.5969 21.5408 39.1888 21.807 38.699C22.4237 37.5641 23.2785 35.9911 23.9956 36.4118C24.7216 36.8379 24.6409 38.4005 24.6023 39.1483C24.5862 39.4578 24.5775 39.6278 24.6361 39.5199C24.7973 39.2231 24.958 38.1431 25.1316 36.977C25.3562 35.4687 25.6021 33.8164 25.8981 33.5291C27.1317 32.3315 27.8632 36.118 28.3754 38.7692C28.6068 39.9668 28.7934 40.9329 28.9613 41.1029C29.1063 41.2497 29.167 40.8332 29.2598 40.1956C29.5126 38.4595 30.0042 35.0839 33.0863 36.9733C35.9757 38.7444 36.1306 35.836 36.239 33.7981C36.2888 32.8638 36.3289 32.1124 36.6182 32.0791C36.7036 32.0685 36.83 31.9797 36.9809 31.8735C37.5951 31.4414 38.6167 30.7228 38.9487 33.8295C39.3624 37.6999 41.4692 32.093 40.5745 30.1286C39.6799 28.1643 39.9439 24.9822 40.1025 24.8413C40.2411 24.7181 40.469 24.5 40.7415 24.2391L40.7422 24.2385V24.2384C41.8132 23.2132 43.5723 21.5292 43.3111 22.3536C43.146 22.8749 43.3345 22.7028 43.6314 22.4319C43.9238 22.1653 44.321 21.8028 44.5892 21.9116C44.8543 22.0192 44.95 22.1789 45.0426 22.333C45.1387 22.4932 45.2314 22.6475 45.5069 22.7317C45.7222 22.664 46.2864 21.999 46.8581 21.3252C47.4472 20.6308 48.0441 19.9272 48.2753 19.8582C49.0122 19.6382 49.2706 20.1526 49.4044 20.4189C49.4532 20.5158 49.4853 20.58 49.5181 20.5635C49.6475 20.4988 49.85 20.0392 50.0988 19.4744C50.424 18.7364 50.8283 17.8187 51.2522 17.3675L51.5007 17.2353C52.8282 19.7666 53.6475 22.5364 53.9119 25.3865C54.1762 28.2366 53.8805 31.1112 53.0414 33.8463C52.2025 36.5812 50.8367 39.1231 49.0221 41.3267C47.2075 43.5302 44.9796 45.3523 42.4656 46.6889C39.9517 48.0255 37.2009 48.8504 34.3702 49.1166C31.5396 49.3828 28.6847 49.085 25.9684 48.2402C23.2521 47.3954 20.7276 46.0203 18.5392 44.193ZM51.455 17.1904C51.3872 17.236 51.3194 17.2959 51.2522 17.3675L32.3571 27.4134L13.2137 37.5915C14.3328 39.7256 15.7948 41.655 17.5375 43.3029C17.5323 43.3034 17.527 43.3039 17.5217 43.3042C17.4997 43.3056 17.3509 43.1984 17.2517 43.0854C17.2324 43.0646 17.2109 43.0467 17.1878 43.0275C17.1429 42.9902 17.0914 42.9476 17.0358 42.8667C17.0214 42.8458 17.002 42.8329 16.9804 42.8185C16.9463 42.7959 16.9069 42.7697 16.874 42.7028C16.1963 42.0674 15.9748 45.371 15.7906 48.1178C15.6692 49.9272 15.5641 51.4949 15.3555 51.5364C15.0241 51.6565 15.0674 50.7689 15.1335 49.4128C15.1863 48.3295 15.2536 46.9474 15.1561 45.5414C14.9382 42.3969 13.8294 38.8079 13.168 37.5466L32.3116 27.3686L51.455 17.1904ZM10.5173 36.9917L55.4294 14.1135L55.5761 14.4055L10.664 37.2837L10.5173 36.9917ZM14.2408 25.7669C14.4407 25.8858 14.7069 25.9937 15.0414 26.0267C15.1403 26.0364 15.2159 26.1255 15.2006 26.2244C15.1888 26.3007 15.126 26.3582 15.05 26.3683C14.7692 26.4051 14.3326 26.5046 13.8991 26.6137C13.4623 26.7237 13.1221 26.2049 13.4034 25.8506C13.5938 25.6108 13.9784 25.6109 14.2408 25.7669ZM20.2282 23.7102C20.3307 23.7781 20.4647 23.6933 20.4492 23.5707C20.4435 23.5256 20.4177 23.4862 20.3788 23.4631C20.1254 23.3129 19.1102 22.6939 17.751 21.6355C16.626 20.7595 15.9227 20.0942 15.6124 19.7853C15.5049 19.6784 15.3349 19.6632 15.2131 19.7534C15.0541 19.8712 15.0514 20.109 15.2086 20.2293C15.7055 20.6098 16.6969 21.3587 17.4578 21.8682C18.2808 22.4194 19.6572 23.3319 20.2282 23.7102ZM21.3345 25.1905C21.3655 25.2425 21.3217 25.3073 21.2623 25.2971C20.9313 25.2401 20.1334 25.1025 19.6552 25.0178C19.4114 24.9746 18.9213 24.9857 18.4185 25.0147C18.0987 25.0333 17.9677 24.5752 18.253 24.4284C18.3469 24.3801 18.46 24.3863 18.5539 24.4345C18.7437 24.532 19.1235 24.699 19.7417 24.8549C20.5604 25.0616 21.1384 25.1387 21.2817 25.1561C21.3038 25.1587 21.323 25.1713 21.3345 25.1905ZM19.7874 44.0639C20.2588 42.5583 20.7762 40.6778 20.6347 40.0704C20.6251 40.0295 20.6177 39.9901 20.618 39.9482C20.621 39.5735 20.7785 39.5603 20.7953 39.9346C20.8634 41.4449 20.8694 43.5619 20.8695 44.2635C20.8695 44.4142 20.8063 44.5574 20.6957 44.6591C20.2836 45.0376 19.6195 44.5997 19.7874 44.0639Z" fill="#80EF7E"/>
<path d="M1.72703 71.055V67.9534H9.05606C9.41443 67.9534 9.74012 67.8631 10.0333 67.6826C10.3264 67.502 10.5626 67.2641 10.7418 66.9687C10.9209 66.6569 11.0105 66.3205 11.0105 65.9594C11.0105 65.582 10.9209 65.2455 10.7418 64.9501C10.5626 64.6384 10.3264 64.3922 10.0333 64.2117C9.74012 64.0311 9.41443 63.9408 9.05606 63.9408H6.19775C5.23683 63.9408 4.36549 63.7439 3.58372 63.3501C2.80195 62.9562 2.17491 62.39 1.7026 61.6515C1.24656 60.8966 1.01855 59.994 1.01855 58.9437C1.01855 57.9098 1.23843 57.0154 1.67817 56.2606C2.11791 55.4892 2.71237 54.8902 3.46157 54.4635C4.21076 54.0368 5.04138 53.8235 5.95344 53.8235H13.3802V56.9251H6.29547C5.96974 56.9251 5.66843 57.0154 5.39156 57.1959C5.11468 57.3601 4.89481 57.5816 4.73193 57.8606C4.58536 58.1396 4.51206 58.4514 4.51206 58.796C4.51206 59.1406 4.58536 59.4525 4.73193 59.7315C4.89481 60.0104 5.11468 60.232 5.39156 60.3961C5.66843 60.5602 5.96974 60.6422 6.29547 60.6422H9.2515C10.3102 60.6422 11.2304 60.8474 12.0121 61.2577C12.7939 61.6679 13.3965 62.2423 13.8199 62.9808C14.2597 63.7193 14.4796 64.5809 14.4796 65.5656C14.4796 66.7307 14.2516 67.7236 13.7955 68.5441C13.3558 69.3647 12.7532 69.9883 11.9877 70.415C11.2385 70.8417 10.4079 71.055 9.49581 71.055H1.72703ZM21.4172 71.055C20.4725 71.055 19.6093 70.8253 18.8276 70.3658C18.0621 69.9062 17.4513 69.2908 16.9953 68.5195C16.5393 67.7318 16.3112 66.862 16.3112 65.9101C16.3112 65.221 16.4579 64.5727 16.751 63.9655C17.0442 63.3582 17.4432 62.8249 17.948 62.3654C17.4432 61.9059 17.0442 61.3725 16.751 60.7653C16.4579 60.1582 16.3112 59.5181 16.3112 58.8453C16.3112 57.9098 16.5312 57.0647 16.9709 56.3097C17.4269 55.5549 18.0295 54.9558 18.7787 54.5128C19.5442 54.0532 20.383 53.8235 21.295 53.8235H28.3309V56.9251H21.6859C21.3439 56.9251 21.0263 57.0154 20.7331 57.1959C20.4562 57.3601 20.2282 57.5898 20.0491 57.8852C19.8862 58.1642 19.8048 58.4842 19.8048 58.8453C19.8048 59.1899 19.8862 59.5099 20.0491 59.8053C20.2282 60.0843 20.4562 60.314 20.7331 60.4946C21.0263 60.6587 21.3439 60.7408 21.6859 60.7408H27.5003V63.8424H21.8325C21.4579 63.8424 21.1159 63.9408 20.8064 64.1378C20.497 64.3184 20.2527 64.5644 20.0735 64.8763C19.8943 65.1881 19.8048 65.5327 19.8048 65.9101C19.8048 66.2877 19.8943 66.6322 20.0735 66.9441C20.2527 67.2558 20.497 67.502 20.8064 67.6826C21.1159 67.8631 21.4579 67.9534 21.8325 67.9534H28.3309V71.055H21.4172ZM30.2918 66.2794V63.2024H37.2056V66.2794H30.2918ZM42.2939 71.055C41.6425 71.055 41.0724 70.9155 40.5838 70.6365C40.0952 70.3412 39.7125 69.9555 39.4356 69.4796C39.175 69.0036 39.0447 68.4703 39.0447 67.8795C39.0447 67.3215 39.1831 66.78 39.46 66.2548C39.7531 65.7296 40.1278 65.303 40.5838 64.9748L45.8362 61.1839C46.1946 60.9213 46.4633 60.6094 46.6425 60.2484C46.8217 59.8873 46.9112 59.5099 46.9112 59.116C46.9112 58.6565 46.8135 58.2709 46.6181 57.9591C46.4226 57.6308 46.1457 57.3765 45.7875 57.1959C45.4291 57.0154 44.9975 56.9251 44.4926 56.9251H39.9731V53.8235H44.908C46.0318 53.8235 47.0008 54.0614 47.8151 54.5373C48.6294 55.0133 49.2565 55.6533 49.6962 56.4575C50.1523 57.2452 50.3803 58.1314 50.3803 59.116C50.3803 60.1007 50.1849 60.9705 49.794 61.7254C49.4193 62.4639 48.8005 63.1285 47.9373 63.7193L42.6848 67.3133C42.6522 67.3298 42.6115 67.3708 42.5626 67.4364C42.5137 67.4856 42.4893 67.5513 42.4893 67.6334C42.4893 67.7482 42.5219 67.8303 42.5871 67.8795C42.6522 67.9287 42.7418 67.9534 42.8558 67.9534H50.8933V71.055H42.2939ZM53.3503 71.055L60.5083 57.6883C60.5898 57.5242 60.6305 57.3847 60.6305 57.2698C60.6305 57.1713 60.5979 57.0892 60.5328 57.0237C60.4676 56.958 60.3781 56.9251 60.264 56.9251H52.4708V53.8235H60.7038C61.3389 53.8235 61.909 53.9712 62.4139 54.2666C62.935 54.562 63.3504 54.9558 63.6598 55.4482C63.9693 55.9241 64.124 56.4656 64.124 57.0728C64.124 57.4011 64.0833 57.7293 64.0019 58.0575C63.9204 58.3694 63.8145 58.6647 63.6843 58.9437L57.308 71.055H53.3503Z" fill="#80EF7E"/>
<path d="M39.4849 77.7064C39.2962 77.7064 39.1318 77.6575 38.9916 77.5597C38.8514 77.4619 38.7422 77.3315 38.664 77.1685C38.5885 77.0028 38.5508 76.8208 38.5508 76.6225C38.5508 76.4187 38.5939 76.234 38.6802 76.0683C38.7692 75.9026 38.8959 75.7722 39.0603 75.6771C39.2248 75.5793 39.4216 75.5304 39.6508 75.5304C39.8826 75.5304 40.0781 75.5793 40.2371 75.6771C40.3962 75.7749 40.5175 75.9067 40.6011 76.0724C40.6847 76.2381 40.7265 76.4215 40.7265 76.6225V77.6575H40.1724V77.3111H40.1643C40.1239 77.3845 40.0727 77.451 40.0107 77.5108C39.9514 77.5706 39.8786 77.6181 39.7923 77.6534C39.706 77.6887 39.6036 77.7064 39.4849 77.7064ZM39.6427 77.2296C39.7505 77.2296 39.8435 77.2025 39.9217 77.1481C39.9999 77.0938 40.0592 77.0205 40.0996 76.9281C40.1428 76.833 40.1643 76.7284 40.1643 76.6143C40.1643 76.5002 40.1428 76.3984 40.0996 76.3087C40.0592 76.2164 39.9999 76.143 39.9217 76.0887C39.8435 76.0343 39.7505 76.0072 39.6427 76.0072C39.5321 76.0072 39.4364 76.0343 39.3555 76.0887C39.2774 76.143 39.2167 76.2164 39.1736 76.3087C39.1331 76.3984 39.1129 76.5002 39.1129 76.6143C39.1129 76.7284 39.1331 76.833 39.1736 76.9281C39.2167 77.0205 39.2774 77.0938 39.3555 77.1481C39.4364 77.2025 39.5321 77.2296 39.6427 77.2296Z" fill="#80EF7E"/>
<path d="M41.2509 77.6575V76.4636C41.2509 76.2924 41.29 76.1362 41.3682 75.995C41.4491 75.8537 41.565 75.741 41.716 75.6567C41.867 75.5725 42.0476 75.5304 42.2579 75.5304C42.4709 75.5304 42.6515 75.5725 42.7998 75.6567C42.9508 75.741 43.0654 75.8537 43.1435 75.995C43.2244 76.1362 43.2649 76.2924 43.2649 76.4636V77.6575H42.7108V76.4636C42.7108 76.3794 42.6906 76.3033 42.6502 76.2354C42.6097 76.1647 42.5545 76.1091 42.4844 76.0683C42.417 76.0276 42.3415 76.0072 42.2579 76.0072C42.1743 76.0072 42.0975 76.0276 42.0274 76.0683C41.96 76.1091 41.9061 76.1647 41.8656 76.2354C41.8252 76.3033 41.805 76.3794 41.805 76.4636V77.6575H41.2509Z" fill="#80EF7E"/>
<path d="M44.7568 77.7064C44.5843 77.7064 44.4292 77.6792 44.2918 77.6249C44.157 77.5678 44.0437 77.4891 43.9521 77.3886C43.8604 77.2853 43.7903 77.1658 43.7418 77.03C43.6932 76.8914 43.669 76.7407 43.669 76.5777C43.669 76.3712 43.7094 76.1906 43.7903 76.0357C43.8739 75.8781 43.9898 75.7545 44.1381 75.6649C44.2891 75.5753 44.4643 75.5304 44.6638 75.5304C44.7501 75.5304 44.8323 75.5427 44.9105 75.5671C44.9914 75.5916 45.0642 75.6269 45.1289 75.673C45.1936 75.7192 45.2461 75.7736 45.2866 75.836H45.2906V74.6829H45.8447V76.5777C45.8447 76.8059 45.8002 77.0055 45.7112 77.1767C45.6222 77.3451 45.4969 77.4755 45.3351 77.5678C45.1733 77.6602 44.9806 77.7064 44.7568 77.7064ZM44.7568 77.2296C44.8673 77.2296 44.9617 77.2025 45.0399 77.1481C45.1181 77.0938 45.1774 77.0205 45.2178 76.9281C45.261 76.8357 45.2825 76.7325 45.2825 76.6184C45.2825 76.5043 45.261 76.4011 45.2178 76.3087C45.1774 76.2164 45.1181 76.143 45.0399 76.0887C44.9617 76.0343 44.8673 76.0072 44.7568 76.0072C44.649 76.0072 44.5546 76.0343 44.4737 76.0887C44.3955 76.143 44.3349 76.2164 44.2918 76.3087C44.2513 76.4011 44.2311 76.5043 44.2311 76.6184C44.2311 76.7325 44.2513 76.8357 44.2918 76.9281C44.3349 77.0205 44.3955 77.0938 44.4737 77.1481C44.5546 77.2025 44.649 77.2296 44.7568 77.2296Z" fill="#80EF7E"/>
<path d="M49.247 77.7064C49.0745 77.7064 48.9194 77.6792 48.782 77.6249C48.6472 77.5678 48.5339 77.4891 48.4423 77.3886C48.3506 77.2853 48.2805 77.1658 48.232 77.03C48.1834 76.8914 48.1592 76.7407 48.1592 76.5777C48.1592 76.3712 48.1996 76.1905 48.2805 76.0357C48.3641 75.8781 48.48 75.7545 48.6283 75.6649C48.7793 75.5752 48.9545 75.5304 49.154 75.5304C49.2403 75.5304 49.3225 75.5426 49.4007 75.5671C49.4816 75.5915 49.5544 75.6269 49.6191 75.673C49.6838 75.7192 49.7363 75.7736 49.7768 75.836H49.7808V74.6829H50.3348V76.5777C50.3348 76.8059 50.2904 77.0055 50.2014 77.1767C50.1124 77.3451 49.9871 77.4755 49.8253 77.5678C49.6635 77.6602 49.4708 77.7064 49.247 77.7064ZM49.247 77.2296C49.3575 77.2296 49.4519 77.2025 49.5301 77.1481C49.6083 77.0938 49.6676 77.0205 49.708 76.9281C49.7512 76.8357 49.7727 76.7325 49.7727 76.6184C49.7727 76.5043 49.7512 76.4011 49.708 76.3087C49.6676 76.2164 49.6083 76.143 49.5301 76.0887C49.4519 76.0343 49.3575 76.0072 49.247 76.0072C49.1392 76.0072 49.0448 76.0343 48.9639 76.0887C48.8858 76.143 48.8251 76.2164 48.782 76.3087C48.7415 76.4011 48.7213 76.5043 48.7213 76.6184C48.7213 76.7325 48.7415 76.8357 48.782 76.9281C48.8251 77.0205 48.8858 77.0938 48.9639 77.1481C49.0448 77.2025 49.1392 77.2296 49.247 77.2296Z" fill="#80EF7E"/>
<path d="M51.8789 77.6575C51.6443 77.6575 51.4394 77.6127 51.2642 77.523C51.0917 77.4307 50.9569 77.3057 50.8598 77.1481C50.7654 76.9906 50.7183 76.814 50.7183 76.6184C50.7183 76.3984 50.7628 76.2068 50.8517 76.0439C50.9407 75.8809 51.062 75.7545 51.2157 75.6649C51.3694 75.5752 51.5432 75.5304 51.7374 75.5304C51.9692 75.5304 52.1566 75.5793 52.2995 75.6771C52.4451 75.7749 52.5515 75.9067 52.6189 76.0724C52.6863 76.2354 52.72 76.4174 52.72 76.6184C52.72 76.6456 52.7187 76.6782 52.716 76.7162C52.7133 76.7515 52.7093 76.7787 52.7039 76.7977H51.3087C51.3303 76.8819 51.3667 76.9525 51.4179 77.0096C51.4718 77.0666 51.5378 77.1101 51.616 77.14C51.6969 77.1672 51.7872 77.1807 51.887 77.1807H52.4612V77.6575H51.8789ZM51.3046 76.4228H52.166C52.1606 76.3712 52.1512 76.3237 52.1377 76.2802C52.1242 76.234 52.1054 76.1933 52.0811 76.158C52.0568 76.1226 52.0285 76.0928 51.9962 76.0683C51.9638 76.0439 51.9261 76.0248 51.8829 76.0113C51.8398 75.9977 51.7926 75.9909 51.7414 75.9909C51.674 75.9909 51.6133 76.0031 51.5594 76.0276C51.5082 76.052 51.4651 76.0846 51.43 76.1254C51.395 76.1661 51.3667 76.2123 51.3451 76.2639C51.3262 76.3155 51.3127 76.3685 51.3046 76.4228Z" fill="#80EF7E"/>
<path d="M53.1185 77.6575V77.1807H54.1254C54.1578 77.1807 54.1861 77.1739 54.2103 77.1604C54.2373 77.1468 54.2575 77.1278 54.271 77.1033C54.2872 77.0789 54.2953 77.0517 54.2953 77.0218C54.2953 76.9892 54.2872 76.9607 54.271 76.9362C54.2575 76.9118 54.2373 76.8928 54.2103 76.8792C54.1861 76.8629 54.1578 76.8547 54.1254 76.8547H53.7372C53.6051 76.8547 53.4851 76.8344 53.3773 76.7936C53.2721 76.7502 53.1872 76.6822 53.1225 76.5899C53.0605 76.4948 53.0295 76.3712 53.0295 76.2191C53.0295 76.1023 53.0578 75.9963 53.1144 75.9012C53.1737 75.8034 53.2519 75.726 53.349 75.669C53.4487 75.6092 53.5579 75.5793 53.6765 75.5793H54.6431V76.0561H53.7291C53.6887 76.0561 53.6523 76.0697 53.6199 76.0968C53.5903 76.124 53.5754 76.1593 53.5754 76.2028C53.5754 76.2462 53.5903 76.2829 53.6199 76.3128C53.6496 76.34 53.686 76.3535 53.7291 76.3535H54.1173C54.2656 76.3535 54.3937 76.3766 54.5015 76.4228C54.6094 76.4663 54.6929 76.5356 54.7522 76.6306C54.8116 76.7257 54.8412 76.8507 54.8412 77.0055C54.8412 77.125 54.8116 77.2351 54.7522 77.3356C54.6929 77.4334 54.6134 77.5122 54.5136 77.5719C54.4139 77.629 54.302 77.6575 54.178 77.6575H53.1185Z" fill="#80EF7E"/>
<path d="M55.2745 77.6575V75.5793H55.8326V77.6575H55.2745ZM55.5536 75.3308C55.4592 75.3308 55.377 75.2968 55.3069 75.2289C55.2395 75.1583 55.2058 75.0754 55.2058 74.9803C55.2058 74.8852 55.2395 74.8037 55.3069 74.7358C55.377 74.6652 55.4592 74.6299 55.5536 74.6299C55.6479 74.6299 55.7288 74.6652 55.7962 74.7358C55.8663 74.8037 55.9014 74.8852 55.9014 74.9803C55.9014 75.0754 55.8663 75.1583 55.7962 75.2289C55.7288 75.2968 55.6479 75.3308 55.5536 75.3308Z" fill="#80EF7E"/>
<path d="M56.6641 78.4847V78.0079H57.7236C57.7613 78.0079 57.7923 77.9943 57.8166 77.9672C57.8409 77.9427 57.853 77.9129 57.853 77.8775V77.3682H57.849C57.787 77.4388 57.7236 77.4959 57.6589 77.5393C57.5942 77.5828 57.5241 77.6154 57.4486 77.6371C57.3758 77.6561 57.2949 77.6656 57.206 77.6656C57.0226 77.6656 56.8568 77.6222 56.7086 77.5352C56.563 77.4456 56.447 77.3206 56.3608 77.1604C56.2745 77.0001 56.2314 76.814 56.2314 76.6021C56.2314 76.4011 56.2732 76.2204 56.3567 76.0602C56.443 75.8972 56.567 75.7681 56.7288 75.673C56.8905 75.578 57.0873 75.5304 57.3192 75.5304C57.543 75.5304 57.7357 75.5766 57.8975 75.669C58.0592 75.7613 58.1846 75.8917 58.2736 76.0602C58.3625 76.2286 58.407 76.4282 58.407 76.6592V77.8938C58.407 78.0758 58.3545 78.2198 58.2493 78.3258C58.1469 78.4317 58.004 78.4847 57.8207 78.4847H56.6641ZM57.3192 77.1889C57.4297 77.1889 57.5241 77.1631 57.6023 77.1115C57.6805 77.0598 57.7398 76.9919 57.7802 76.9077C57.8233 76.8208 57.8449 76.7244 57.8449 76.6184C57.8449 76.5043 57.8233 76.4011 57.7802 76.3087C57.7398 76.2164 57.6805 76.143 57.6023 76.0887C57.5241 76.0343 57.4297 76.0072 57.3192 76.0072C57.2114 76.0072 57.117 76.0343 57.0361 76.0887C56.9579 76.1403 56.8973 76.2109 56.8541 76.3006C56.8137 76.3902 56.7935 76.4907 56.7935 76.6021C56.7935 76.7108 56.8137 76.8099 56.8541 76.8996C56.8973 76.9865 56.9579 77.0571 57.0361 77.1115C57.117 77.1631 57.2114 77.1889 57.3192 77.1889Z" fill="#80EF7E"/>
<path d="M58.9118 77.6575V76.4636C58.9118 76.2924 58.9509 76.1362 59.029 75.995C59.1099 75.8537 59.2259 75.741 59.3768 75.6567C59.5278 75.5725 59.7084 75.5304 59.9187 75.5304C60.1317 75.5304 60.3123 75.5725 60.4606 75.6567C60.6116 75.741 60.7262 75.8537 60.8044 75.995C60.8852 76.1362 60.9257 76.2924 60.9257 76.4636V77.6575H60.3717V76.4636C60.3717 76.3794 60.3514 76.3033 60.311 76.2354C60.2706 76.1647 60.2153 76.1091 60.1452 76.0683C60.0778 76.0276 60.0023 76.0072 59.9187 76.0072C59.8351 76.0072 59.7583 76.0276 59.6882 76.0683C59.6208 76.1091 59.5669 76.1647 59.5265 76.2354C59.486 76.3033 59.4658 76.3794 59.4658 76.4636V77.6575H58.9118Z" fill="#80EF7E"/>
<path d="M61.7261 77.7064C61.6237 77.7064 61.5347 77.6697 61.4592 77.5964C61.3864 77.5203 61.35 77.4307 61.35 77.3274C61.35 77.2242 61.3864 77.1359 61.4592 77.0626C61.5347 76.9865 61.6237 76.9485 61.7261 76.9485C61.8286 76.9485 61.9162 76.9865 61.989 77.0626C62.0645 77.1359 62.1022 77.2242 62.1022 77.3274C62.1022 77.3953 62.0847 77.4592 62.0496 77.5189C62.0173 77.576 61.9728 77.6222 61.9162 77.6575C61.8596 77.6901 61.7962 77.7064 61.7261 77.7064Z" fill="#80EF7E"/>
<path d="M2.04556 77.7064C1.90537 77.7064 1.77731 77.6792 1.66139 77.6249C1.54546 77.5679 1.45245 77.4823 1.38235 77.3682C1.31495 77.2541 1.28125 77.1101 1.28125 76.9363V75.5793H1.83528V77.0178C1.83528 77.0558 1.84471 77.0911 1.86359 77.1237C1.88246 77.1563 1.90807 77.1821 1.94042 77.2011C1.97277 77.2201 2.00782 77.2297 2.04556 77.2297C2.08331 77.2297 2.11836 77.2201 2.15071 77.2011C2.18306 77.1821 2.20867 77.1563 2.22754 77.1237C2.24642 77.0911 2.25585 77.0558 2.25585 77.0178V76.3006C2.25585 76.1376 2.28686 75.999 2.34886 75.8849C2.41357 75.7709 2.50254 75.6839 2.61577 75.6242C2.7317 75.5617 2.8665 75.5304 3.02017 75.5304C3.17384 75.5304 3.30729 75.5617 3.42052 75.6242C3.53645 75.6839 3.62542 75.7709 3.68743 75.8849C3.75213 75.999 3.78448 76.1376 3.78448 76.3006V77.0178C3.78448 77.0558 3.79392 77.0911 3.81279 77.1237C3.83166 77.1563 3.85727 77.1821 3.88963 77.2011C3.92198 77.2201 3.95703 77.2297 3.99477 77.2297C4.03521 77.2297 4.07026 77.2201 4.09991 77.2011C4.13227 77.1821 4.15788 77.1563 4.17675 77.1237C4.19562 77.0911 4.20506 77.0558 4.20506 77.0178V75.5793H4.75909V76.9363C4.75909 77.1101 4.72404 77.2541 4.65394 77.3682C4.58654 77.4823 4.49488 77.5679 4.37895 77.6249C4.26302 77.6792 4.13496 77.7064 3.99477 77.7064C3.85727 77.7064 3.73056 77.6792 3.61463 77.6249C3.49871 77.5679 3.40569 77.4823 3.3356 77.3682C3.2655 77.2541 3.23046 77.1101 3.23046 76.9363V76.2191C3.23046 76.1783 3.22102 76.143 3.20215 76.1131C3.18328 76.0805 3.15766 76.0547 3.12531 76.0357C3.09566 76.0167 3.06061 76.0072 3.02017 76.0072C2.98242 76.0072 2.94738 76.0167 2.91502 76.0357C2.88267 76.0547 2.85706 76.0805 2.83819 76.1131C2.81932 76.143 2.80988 76.1783 2.80988 76.2191V76.9363C2.80988 77.1101 2.77483 77.2541 2.70474 77.3682C2.63464 77.4823 2.54163 77.5679 2.4257 77.6249C2.31247 77.6792 2.18576 77.7064 2.04556 77.7064Z" fill="#80EF7E"/>
<path d="M6.32506 77.6575C6.09051 77.6575 5.88561 77.6127 5.71037 77.523C5.53783 77.4307 5.40303 77.3057 5.30597 77.1482C5.21161 76.9906 5.16443 76.814 5.16443 76.6184C5.16443 76.3984 5.20892 76.2069 5.29788 76.0439C5.38685 75.8809 5.50817 75.7546 5.66184 75.6649C5.81551 75.5753 5.98941 75.5304 6.18352 75.5304C6.41537 75.5304 6.60275 75.5793 6.74563 75.6771C6.89122 75.7749 6.99771 75.9067 7.06511 76.0724C7.13251 76.2354 7.16621 76.4174 7.16621 76.6184C7.16621 76.6456 7.16486 76.6782 7.16216 76.7162C7.15947 76.7515 7.15542 76.7787 7.15003 76.7977H5.75485C5.77642 76.8819 5.81282 76.9526 5.86404 77.0096C5.91796 77.0667 5.98401 77.1101 6.0622 77.14C6.14308 77.1672 6.23339 77.1808 6.33315 77.1808H6.90739V77.6575H6.32506ZM5.75081 76.4228H6.61218C6.60679 76.3712 6.59735 76.3237 6.58387 76.2802C6.57039 76.234 6.55152 76.1933 6.52726 76.158C6.50299 76.1226 6.47469 76.0928 6.44233 76.0683C6.40998 76.0439 6.37224 76.0249 6.3291 76.0113C6.28597 75.9977 6.23879 75.9909 6.18756 75.9909C6.12016 75.9909 6.0595 76.0031 6.00558 76.0276C5.95436 76.052 5.91122 76.0846 5.87617 76.1254C5.84113 76.1661 5.81282 76.2123 5.79125 76.2639C5.77238 76.3155 5.7589 76.3685 5.75081 76.4228Z" fill="#80EF7E"/>
<path d="M8.62416 77.7064C8.40309 77.7064 8.21033 77.6602 8.04587 77.5679C7.88411 77.4755 7.75875 77.3451 7.66978 77.1767C7.58081 77.0055 7.53633 76.8059 7.53633 76.5777V74.6829H8.09036V75.836H8.0944C8.13754 75.7736 8.19011 75.7192 8.25212 75.6731C8.31682 75.6269 8.38826 75.5916 8.46645 75.5671C8.54733 75.5427 8.6309 75.5304 8.71718 75.5304C8.91937 75.5304 9.09461 75.5753 9.24289 75.6649C9.39117 75.7546 9.50575 75.8782 9.58663 76.0357C9.67021 76.1906 9.712 76.3712 9.712 76.5777C9.712 76.7407 9.68773 76.8914 9.63921 77.03C9.59068 77.1658 9.52058 77.2853 9.42892 77.3886C9.33725 77.4891 9.22402 77.5679 9.08922 77.6249C8.95442 77.6792 8.7994 77.7064 8.62416 77.7064ZM8.62416 77.2297C8.7347 77.2297 8.82906 77.2025 8.90724 77.1482C8.98543 77.0938 9.04474 77.0205 9.08518 76.9281C9.12831 76.8357 9.14988 76.7325 9.14988 76.6184C9.14988 76.5043 9.12831 76.4011 9.08518 76.3087C9.04474 76.2164 8.98543 76.143 8.90724 76.0887C8.82906 76.0344 8.7347 76.0072 8.62416 76.0072C8.51632 76.0072 8.42196 76.0344 8.34108 76.0887C8.2629 76.143 8.20224 76.2164 8.1591 76.3087C8.11866 76.4011 8.09844 76.5043 8.09844 76.6184C8.09844 76.7325 8.11866 76.8357 8.1591 76.9281C8.20224 77.0205 8.2629 77.0938 8.34108 77.1482C8.42196 77.2025 8.51632 77.2297 8.62416 77.2297Z" fill="#80EF7E"/>
<path d="M12.1524 77.7064C11.9798 77.7064 11.8248 77.6792 11.6873 77.6249C11.5525 77.5679 11.4393 77.4891 11.3476 77.3886C11.256 77.2853 11.1859 77.1658 11.1373 77.03C11.0888 76.8914 11.0646 76.7407 11.0646 76.5777C11.0646 76.3712 11.105 76.1906 11.1859 76.0357C11.2695 75.8782 11.3854 75.7546 11.5337 75.6649C11.6846 75.5753 11.8599 75.5304 12.0594 75.5304C12.1456 75.5304 12.2279 75.5427 12.3061 75.5671C12.3869 75.5916 12.4597 75.6269 12.5244 75.6731C12.5891 75.7192 12.6417 75.7736 12.6822 75.836H12.6862V74.6829H13.2402V76.5777C13.2402 76.8059 13.1957 77.0055 13.1068 77.1767C13.0178 77.3451 12.8924 77.4755 12.7307 77.5679C12.5689 77.6602 12.3762 77.7064 12.1524 77.7064ZM12.1524 77.2297C12.2629 77.2297 12.3573 77.2025 12.4355 77.1482C12.5137 77.0938 12.573 77.0205 12.6134 76.9281C12.6565 76.8357 12.6781 76.7325 12.6781 76.6184C12.6781 76.5043 12.6565 76.4011 12.6134 76.3087C12.573 76.2164 12.5137 76.143 12.4355 76.0887C12.3573 76.0344 12.2629 76.0072 12.1524 76.0072C12.0445 76.0072 11.9502 76.0344 11.8693 76.0887C11.7911 76.143 11.7305 76.2164 11.6873 76.3087C11.6469 76.4011 11.6267 76.5043 11.6267 76.6184C11.6267 76.7325 11.6469 76.8357 11.6873 76.9281C11.7305 77.0205 11.7911 77.0938 11.8693 77.1482C11.9502 77.2025 12.0445 77.2297 12.1524 77.2297Z" fill="#80EF7E"/>
<path d="M14.7843 77.6575C14.5497 77.6575 14.3448 77.6127 14.1696 77.523C13.997 77.4307 13.8622 77.3057 13.7652 77.1482C13.6708 76.9906 13.6236 76.814 13.6236 76.6184C13.6236 76.3984 13.6681 76.2069 13.7571 76.0439C13.8461 75.8809 13.9674 75.7546 14.1211 75.6649C14.2747 75.5753 14.4486 75.5304 14.6427 75.5304C14.8746 75.5304 15.062 75.5793 15.2048 75.6771C15.3504 75.7749 15.4569 75.9067 15.5243 76.0724C15.5917 76.2354 15.6254 76.4174 15.6254 76.6184C15.6254 76.6456 15.6241 76.6782 15.6214 76.7162C15.6187 76.7515 15.6146 76.7787 15.6092 76.7977H14.2141C14.2356 76.8819 14.272 76.9526 14.3233 77.0096C14.3772 77.0667 14.4432 77.1101 14.5214 77.14C14.6023 77.1672 14.6926 77.1808 14.7924 77.1808H15.3666V77.6575H14.7843ZM14.21 76.4228H15.0714C15.066 76.3712 15.0566 76.3237 15.0431 76.2802C15.0296 76.234 15.0107 76.1933 14.9865 76.158C14.9622 76.1226 14.9339 76.0928 14.9015 76.0683C14.8692 76.0439 14.8315 76.0249 14.7883 76.0113C14.7452 75.9977 14.698 75.9909 14.6468 75.9909C14.5794 75.9909 14.5187 76.0031 14.4648 76.0276C14.4136 76.052 14.3704 76.0846 14.3354 76.1254C14.3003 76.1661 14.272 76.2123 14.2505 76.2639C14.2316 76.3155 14.2181 76.3685 14.21 76.4228Z" fill="#80EF7E"/>
<path d="M16.8781 77.7064C16.7568 77.7064 16.6462 77.6738 16.5465 77.6086C16.4494 77.5434 16.382 77.4578 16.3443 77.3519L15.7539 75.5793H16.3564L16.8336 77.1237C16.839 77.1346 16.8457 77.1427 16.8538 77.1482C16.8619 77.1536 16.8713 77.1563 16.8821 77.1563C16.8929 77.1563 16.9023 77.1536 16.9104 77.1482C16.9212 77.1427 16.928 77.1346 16.9307 77.1237L17.4119 75.5793H18.0023L17.4119 77.3478C17.3741 77.4538 17.3054 77.5407 17.2056 77.6086C17.1086 77.6738 16.9994 77.7064 16.8781 77.7064Z" fill="#80EF7E"/>
<path d="M19.2666 77.6575C19.0321 77.6575 18.8272 77.6127 18.6519 77.523C18.4794 77.4307 18.3446 77.3057 18.2475 77.1482C18.1532 76.9906 18.106 76.814 18.106 76.6184C18.106 76.3984 18.1505 76.2069 18.2395 76.0439C18.3284 75.8809 18.4497 75.7546 18.6034 75.6649C18.7571 75.5753 18.931 75.5304 19.1251 75.5304C19.3569 75.5304 19.5443 75.5793 19.6872 75.6771C19.8328 75.7749 19.9393 75.9067 20.0067 76.0724C20.0741 76.2354 20.1078 76.4174 20.1078 76.6184C20.1078 76.6456 20.1064 76.6782 20.1037 76.7162C20.101 76.7515 20.097 76.7787 20.0916 76.7977H18.6964C18.718 76.8819 18.7544 76.9526 18.8056 77.0096C18.8595 77.0667 18.9256 77.1101 19.0038 77.14C19.0846 77.1672 19.175 77.1808 19.2747 77.1808H19.849V77.6575H19.2666ZM18.6924 76.4228H19.5538C19.5484 76.3712 19.5389 76.3237 19.5254 76.2802C19.512 76.234 19.4931 76.1933 19.4688 76.158C19.4446 76.1226 19.4163 76.0928 19.3839 76.0683C19.3516 76.0439 19.3138 76.0249 19.2707 76.0113C19.2275 75.9977 19.1804 75.9909 19.1291 75.9909C19.0617 75.9909 19.0011 76.0031 18.9472 76.0276C18.8959 76.052 18.8528 76.0846 18.8177 76.1254C18.7827 76.1661 18.7544 76.2123 18.7328 76.2639C18.7139 76.3155 18.7005 76.3685 18.6924 76.4228Z" fill="#80EF7E"/>
<path d="M20.4981 77.6575V74.6829H21.0521V77.6575H20.4981Z" fill="#80EF7E"/>
<path d="M22.567 77.7064C22.354 77.7064 22.164 77.6589 21.9968 77.5638C21.8297 77.466 21.6976 77.3356 21.6005 77.1726C21.5035 77.0069 21.4549 76.8222 21.4549 76.6184C21.4549 76.4147 21.5035 76.2313 21.6005 76.0683C21.6976 75.9026 21.8297 75.7722 21.9968 75.6771C22.164 75.5793 22.354 75.5304 22.567 75.5304C22.78 75.5304 22.9701 75.5793 23.1372 75.6771C23.3044 75.7722 23.4365 75.9026 23.5335 76.0683C23.6306 76.2313 23.6791 76.4147 23.6791 76.6184C23.6791 76.8222 23.6306 77.0069 23.5335 77.1726C23.4365 77.3356 23.3044 77.466 23.1372 77.5638C22.9701 77.6589 22.78 77.7064 22.567 77.7064ZM22.567 77.2297C22.6803 77.2297 22.7773 77.2025 22.8582 77.1482C22.9418 77.0938 23.0051 77.0205 23.0483 76.9281C23.0941 76.8357 23.117 76.7325 23.117 76.6184C23.117 76.5043 23.0941 76.4011 23.0483 76.3087C23.0051 76.2164 22.9418 76.143 22.8582 76.0887C22.7773 76.0344 22.6803 76.0072 22.567 76.0072C22.4538 76.0072 22.3554 76.0344 22.2718 76.0887C22.1909 76.143 22.1276 76.2164 22.0818 76.3087C22.0386 76.4011 22.017 76.5043 22.017 76.6184C22.017 76.7325 22.0386 76.8357 22.0818 76.9281C22.1276 77.0205 22.1909 77.0938 22.2718 77.1482C22.3554 77.2025 22.4538 77.2297 22.567 77.2297Z" fill="#80EF7E"/>
<path d="M25.1516 75.5304C25.3269 75.5304 25.4819 75.559 25.6167 75.616C25.7515 75.6703 25.8647 75.7491 25.9564 75.8523C26.048 75.9529 26.1181 76.0724 26.1667 76.2109C26.2152 76.3468 26.2395 76.4962 26.2395 76.6592C26.2395 76.8629 26.1977 77.0436 26.1141 77.2011C26.0332 77.3587 25.9186 77.4823 25.7704 77.5719C25.6221 77.6616 25.4468 77.7064 25.2446 77.7064C25.1584 77.7064 25.0748 77.6942 24.9939 77.6697C24.9157 77.6453 24.8443 77.61 24.7796 77.5638C24.7176 77.5176 24.665 77.4633 24.6219 77.4008H24.6178V78.554H24.0638V76.6592C24.0638 76.4283 24.1083 76.2286 24.1972 76.0602C24.2862 75.8917 24.4116 75.7613 24.5733 75.669C24.7378 75.5766 24.9305 75.5304 25.1516 75.5304ZM25.1516 76.0072C25.0438 76.0072 24.9494 76.0344 24.8685 76.0887C24.7904 76.143 24.7297 76.2164 24.6866 76.3087C24.6461 76.4011 24.6259 76.5043 24.6259 76.6184C24.6259 76.7325 24.6461 76.8357 24.6866 76.9281C24.7297 77.0205 24.7904 77.0938 24.8685 77.1482C24.9494 77.2025 25.0438 77.2297 25.1516 77.2297C25.2622 77.2297 25.3565 77.2025 25.4347 77.1482C25.5129 77.0938 25.5722 77.0205 25.6126 76.9281C25.6558 76.8357 25.6773 76.7325 25.6773 76.6184C25.6773 76.5043 25.6558 76.4011 25.6126 76.3087C25.5722 76.2164 25.5129 76.143 25.4347 76.0887C25.3565 76.0344 25.2622 76.0072 25.1516 76.0072Z" fill="#80EF7E"/>
<path d="M26.6431 77.6575V76.4228C26.6431 76.2598 26.6822 76.1104 26.7604 75.9746C26.8386 75.8388 26.9504 75.7315 27.096 75.6527C27.2443 75.5712 27.4222 75.5304 27.6298 75.5304C27.7296 75.5304 27.8212 75.5427 27.9048 75.5671C27.9911 75.5888 28.0706 75.6214 28.1434 75.6649C28.2162 75.7084 28.2796 75.76 28.3335 75.8197H28.3375C28.3941 75.76 28.4588 75.7084 28.5316 75.6649C28.6044 75.6214 28.684 75.5888 28.7702 75.5671C28.8565 75.5427 28.9495 75.5304 29.0493 75.5304C29.2569 75.5304 29.4334 75.5712 29.579 75.6527C29.7273 75.7315 29.8405 75.8388 29.9187 75.9746C29.9969 76.1104 30.036 76.2598 30.036 76.4228V77.6575H29.482V76.4228C29.482 76.3468 29.4618 76.2775 29.4213 76.215C29.3836 76.1525 29.3323 76.1023 29.2676 76.0642C29.2029 76.0262 29.1301 76.0072 29.0493 76.0072C28.9711 76.0072 28.8983 76.0262 28.8309 76.0642C28.7662 76.1023 28.7136 76.1525 28.6732 76.215C28.6354 76.2775 28.6166 76.3468 28.6166 76.4228V77.6575H28.0625V76.4228C28.0625 76.3468 28.0423 76.2775 28.0019 76.215C27.9641 76.1525 27.9129 76.1023 27.8482 76.0642C27.7835 76.0262 27.7107 76.0072 27.6298 76.0072C27.5516 76.0072 27.4789 76.0262 27.4115 76.0642C27.3467 76.1023 27.2942 76.1525 27.2537 76.215C27.216 76.2775 27.1971 76.3468 27.1971 76.4228V77.6575H26.6431Z" fill="#80EF7E"/>
<path d="M31.6 77.6575C31.3655 77.6575 31.1606 77.6127 30.9853 77.523C30.8128 77.4307 30.678 77.3057 30.5809 77.1482C30.4866 76.9906 30.4394 76.814 30.4394 76.6184C30.4394 76.3984 30.4839 76.2069 30.5728 76.0439C30.6618 75.8809 30.7831 75.7546 30.9368 75.6649C31.0905 75.5753 31.2644 75.5304 31.4585 75.5304C31.6903 75.5304 31.8777 75.5793 32.0206 75.6771C32.1662 75.7749 32.2727 75.9067 32.3401 76.0724C32.4075 76.2354 32.4412 76.4174 32.4412 76.6184C32.4412 76.6456 32.4398 76.6782 32.4371 76.7162C32.4344 76.7515 32.4304 76.7787 32.425 76.7977H31.0298C31.0514 76.8819 31.0878 76.9526 31.139 77.0096C31.1929 77.0667 31.259 77.1101 31.3372 77.14C31.418 77.1672 31.5084 77.1808 31.6081 77.1808H32.1824V77.6575H31.6ZM31.0258 76.4228H31.8871C31.8818 76.3712 31.8723 76.3237 31.8588 76.2802C31.8454 76.234 31.8265 76.1933 31.8022 76.158C31.778 76.1226 31.7496 76.0928 31.7173 76.0683C31.6849 76.0439 31.6472 76.0249 31.6041 76.0113C31.5609 75.9977 31.5137 75.9909 31.4625 75.9909C31.3951 75.9909 31.3345 76.0031 31.2805 76.0276C31.2293 76.052 31.1862 76.0846 31.1511 76.1254C31.1161 76.1661 31.0878 76.2123 31.0662 76.2639C31.0473 76.3155 31.0339 76.3685 31.0258 76.4228Z" fill="#80EF7E"/>
<path d="M32.8315 77.6575V76.4636C32.8315 76.2924 32.8706 76.1362 32.9488 75.995C33.0297 75.8537 33.1456 75.741 33.2966 75.6568C33.4475 75.5725 33.6282 75.5304 33.8385 75.5304C34.0514 75.5304 34.2321 75.5725 34.3804 75.6568C34.5313 75.741 34.6459 75.8537 34.7241 75.995C34.805 76.1362 34.8454 76.2924 34.8454 76.4636V77.6575H34.2914V76.4636C34.2914 76.3794 34.2712 76.3033 34.2307 76.2354C34.1903 76.1648 34.135 76.1091 34.0649 76.0683C33.9975 76.0276 33.922 76.0072 33.8385 76.0072C33.7549 76.0072 33.6781 76.0276 33.608 76.0683C33.5406 76.1091 33.4866 76.1648 33.4462 76.2354C33.4058 76.3033 33.3855 76.3794 33.3855 76.4636V77.6575H32.8315Z" fill="#80EF7E"/>
<path d="M36.0866 77.6575C35.9033 77.6575 35.7591 77.6045 35.6539 77.4986C35.5515 77.3926 35.5003 77.2487 35.5003 77.0667V75.0577H36.0543V77.0504C36.0543 77.0857 36.0664 77.1169 36.0907 77.1441C36.1176 77.1685 36.1486 77.1808 36.1837 77.1808H36.6326V77.6575H36.0866ZM35.1484 76.0561V75.5793H36.6326V76.0561H35.1484Z" fill="#80EF7E"/>
</svg>
