<svg width="329" height="99" viewBox="0 0 329 99" fill="none" xmlns="http://www.w3.org/2000/svg">
<path fill-rule="evenodd" clip-rule="evenodd" d="M84.0672 0.48862L0.282104 0.248106L1.00107e-05 98.5177L83.7851 98.7582L84.0672 0.48862ZM19.5288 68.1833C16.8309 65.5949 14.5678 62.5642 12.8353 59.2118L42.4726 43.2219L71.7255 27.4394C71.0693 28.1481 70.4431 29.5899 69.9395 30.7494L69.9395 30.7495L69.9394 30.7497C69.5541 31.637 69.2405 32.3589 69.0403 32.4605C68.9896 32.4862 68.9397 32.3856 68.8643 32.2332C68.6572 31.815 68.2572 31.007 67.1164 31.3527C66.7585 31.4612 65.8343 32.5664 64.9223 33.6571C64.0372 34.7156 63.1636 35.7604 62.8303 35.8667C62.4037 35.7346 62.2603 35.4922 62.1114 35.2405C61.9682 34.9984 61.82 34.7477 61.4097 34.5787C60.9945 34.4076 60.3794 34.9771 59.9269 35.3961C59.4673 35.8216 59.1753 36.0919 59.431 35.2731C59.8354 33.978 57.1118 36.6236 55.4538 38.2341C55.0315 38.6443 54.6782 38.9874 54.4635 39.1811C54.218 39.4025 53.8089 44.4009 55.1937 47.4865C56.5785 50.5721 53.3163 59.3797 52.6764 53.3002C52.1627 48.4201 50.581 49.549 49.6302 50.2277C49.3965 50.3945 49.2009 50.5342 49.0686 50.5507C48.6207 50.6032 48.5587 51.7834 48.4815 53.2511C48.3134 56.4522 48.0733 61.021 43.6004 58.239C38.8292 55.2715 38.0678 60.574 37.6762 63.3011C37.5324 64.3028 37.4385 64.957 37.2141 64.7264C36.9541 64.4593 36.6653 62.9419 36.3072 61.0606L36.3072 61.0605C35.5145 56.8961 34.3825 50.9483 32.4725 52.8296C32.0144 53.2809 31.6335 55.8763 31.2857 58.2456L31.2857 58.2457C31.0169 60.0774 30.7679 61.774 30.5183 62.2402C30.4276 62.4097 30.4412 62.1427 30.466 61.6565C30.5259 60.4817 30.651 58.0273 29.527 57.3581C28.417 56.6971 27.0934 59.1682 26.1385 60.9509C25.7265 61.7203 25.383 62.3614 25.1551 62.5672C24.8694 62.8252 24.7413 62.3869 24.5836 61.8476C24.324 60.9597 23.9843 59.7981 22.7298 61.0194C22.7298 61.0194 21.783 62.3709 21.8005 63.6704C21.8153 64.7643 20.7749 68.0597 19.5288 68.1833ZM19.5288 68.1833C20.0307 68.6649 20.5477 69.1312 21.0792 69.5813C24.467 72.4512 28.375 74.6112 32.58 75.9379C36.7851 77.2646 41.2048 77.7322 45.5869 77.3138C49.969 76.8954 54.2277 75.5993 58.1197 73.4994C62.0117 71.3996 65.4609 68.5372 68.2703 65.0756C71.0798 61.614 73.1944 57.6211 74.4935 53.3248C75.7926 49.0285 76.2508 44.5129 75.8418 40.0359C75.4328 35.5589 74.1647 31.2081 72.1099 27.232L71.7255 27.4394C71.8295 27.3271 71.9342 27.2333 72.0392 27.1619L42.4019 43.1518L12.7647 59.1416C13.7886 61.1229 15.5046 66.7604 15.8416 71.6998C15.9924 73.9084 15.888 76.0796 15.8062 77.7813C15.7038 79.9113 15.6368 81.3057 16.1497 81.1169C16.4727 81.0518 16.6356 78.5891 16.8236 75.7469C17.1091 71.4321 17.4524 66.2428 18.5014 67.2408C18.5524 67.3459 18.6134 67.387 18.6662 67.4226C18.6996 67.4451 18.7297 67.4655 18.752 67.4983C18.8379 67.6251 18.9175 67.6922 18.987 67.7507L18.9871 67.7508C19.0229 67.781 19.0561 67.809 19.0861 67.8417C19.2397 68.0192 19.47 68.1875 19.5041 68.1853C19.5123 68.1848 19.5205 68.1841 19.5288 68.1833ZM11.3995 51.9807C9.62121 47.8678 8.65328 43.4373 8.55097 38.942C8.44866 34.4467 9.214 29.9747 10.8033 25.7814C12.3925 21.5881 14.7746 17.7556 17.8135 14.5026C20.8524 11.2497 24.4886 8.64001 28.5145 6.82266C32.5404 5.00532 36.8771 4.01586 41.2771 3.91078C45.677 3.80571 50.054 4.58708 54.1582 6.21027C58.2624 7.83347 62.0134 10.2667 65.1969 13.3711C68.3805 16.4754 70.9344 20.1901 72.7127 24.303L72.7107 24.3039C72.5178 24.3831 58.3287 30.211 56.1622 31.225C54.794 31.8654 52.3416 31.2903 50.7649 30.9206C49.8278 30.7009 49.1999 30.5536 49.293 30.7773C49.3712 30.9653 49.6389 31.095 49.9539 31.2476C50.6441 31.5821 51.5617 32.0268 51.2124 33.4364C50.8269 34.9926 46.1658 33.3395 43.9688 32.5602C43.2675 32.3115 42.8173 32.1518 42.8374 32.214C42.8585 32.2792 43.3131 32.5164 43.9244 32.8354C45.7211 33.7729 48.8714 35.4166 46.347 35.4769C43.4702 36.4474 42.1715 37.1941 40.716 38.031L40.716 38.031C39.7528 38.5848 38.721 39.178 37.1179 39.9017C35.3099 40.7179 33.192 40.6405 31.5925 40.582C30.722 40.5502 30.0051 40.524 29.575 40.6504C29.3849 40.7063 29.5272 40.7799 29.7503 40.8955C30.1606 41.1078 30.8444 41.4618 30.2411 42.1076C28.3103 44.1744 26.8345 44.6458 25.4552 45.0864C24.6636 45.3393 23.9037 45.582 23.1078 46.1104C20.9252 47.5593 17.319 48.7474 16.9839 48.7464C16.8248 48.746 16.722 48.8807 16.586 49.0588C16.4356 49.2559 16.2446 49.5061 15.892 49.6849C15.7245 49.7698 15.505 49.8653 15.2338 49.9831C14.4178 50.3377 13.1348 50.8953 11.4 51.9805L11.3995 51.9807ZM11.4 51.9805L11.3995 51.9808L42.0561 38.1419L72.7107 24.3039L42.0561 38.1418L11.4 51.9805ZM78.1943 22.332L8.66318 58.2743L8.88624 58.7248L78.4174 22.7825L78.1943 22.332ZM15.6601 41.045C15.1567 40.9937 14.7535 40.8311 14.4477 40.6501C14.0309 40.4034 13.4161 40.4039 13.1177 40.7851C12.6837 41.3398 13.2224 42.1403 13.9048 41.966C14.5709 41.7959 15.241 41.641 15.6743 41.5828C15.7947 41.5666 15.8942 41.4757 15.9126 41.3556C15.9362 41.2003 15.8164 41.0609 15.6601 41.045ZM24.0384 37.1879C24.0625 37.3806 23.855 37.5128 23.6957 37.4057C22.8114 36.8113 20.6813 35.3784 19.4075 34.5129C18.2306 33.7131 16.6972 32.5382 15.9273 31.9402C15.683 31.7504 15.6859 31.3765 15.9318 31.1916C16.1206 31.0497 16.3853 31.0742 16.5528 31.2434C17.0343 31.7295 18.1225 32.7733 19.8615 34.1473C21.9638 35.8084 23.5346 36.7805 23.9283 37.0173C23.9892 37.054 24.0295 37.1164 24.0384 37.1879ZM25.2959 39.8987C25.389 39.915 25.4573 39.8146 25.4092 39.7326C25.3911 39.7018 25.3603 39.6814 25.325 39.6771C25.1 39.6495 24.2067 39.5281 22.9427 39.2045C21.9938 38.9615 21.4076 38.7017 21.1115 38.5481C20.9616 38.4703 20.7809 38.4601 20.6323 38.5377C20.1883 38.7694 20.4024 39.4844 20.9034 39.4551C21.6785 39.4098 22.4329 39.3928 22.8089 39.4603C23.5488 39.5933 24.783 39.8092 25.2959 39.8987ZM24.3228 63.1022C24.5453 64.0564 23.7361 67.0332 23.0031 69.4054C22.7443 70.243 23.7764 70.911 24.4165 70.3143C24.5884 70.154 24.6866 69.9303 24.6866 69.6954C24.6867 68.5969 24.6776 65.2674 24.5723 62.8926C24.5466 62.3117 24.3023 62.3346 24.2977 62.9164C24.2971 62.9804 24.3083 63.04 24.3228 63.1022ZM30.0754 90.9642L30.0709 92.513L33.5391 92.5229C33.9451 92.5241 34.3115 92.4325 34.6386 92.2481C34.9657 92.0549 35.2267 91.7997 35.4218 91.4826C35.6169 91.1566 35.715 90.7995 35.7161 90.4112C35.7175 89.9082 35.6216 89.502 35.4284 89.1925C35.2351 88.8831 34.9622 88.6573 34.6096 88.5151C34.257 88.3641 33.8381 88.2878 33.3527 88.2864L32.0819 88.2828C31.9407 88.2824 31.8217 88.2379 31.7249 88.1494C31.6281 88.052 31.5799 87.9328 31.5803 87.7916C31.5807 87.6504 31.6296 87.5358 31.7269 87.4478C31.8331 87.3599 31.9523 87.3161 32.0847 87.3165L35.0763 87.3251L35.0808 85.7763L31.9171 85.7672C31.5288 85.7661 31.1711 85.8622 30.844 86.0554C30.5258 86.2398 30.2691 86.4905 30.0741 86.8077C29.8879 87.116 29.7942 87.4599 29.7931 87.8394C29.7917 88.3336 29.8921 88.7354 30.0941 89.0449C30.3051 89.3455 30.5824 89.5669 30.9262 89.7091C31.2788 89.8425 31.6713 89.9098 32.1037 89.9111L33.3745 89.9147C33.4804 89.915 33.573 89.9417 33.6523 89.9949C33.7404 90.0393 33.8064 90.1013 33.8503 90.1808C33.903 90.2604 33.9292 90.3531 33.9289 90.459C33.9286 90.5561 33.9019 90.6443 33.8487 90.7235C33.8044 90.8028 33.738 90.8644 33.6496 90.9083C33.5701 90.9522 33.4774 90.974 33.3715 90.9737L30.0754 90.9642ZM38.5196 92.1004C39.0924 92.3933 39.7627 92.5408 40.5305 92.543L42.4366 92.5485L42.4411 90.9997L40.5614 90.9943C40.2349 90.9934 39.9393 90.9484 39.6749 90.8594C39.4192 90.7616 39.2034 90.6198 39.0274 90.434C38.8603 90.2481 38.7418 90.0184 38.672 89.7446L43.2389 89.7577C43.2567 89.696 43.2702 89.6078 43.2793 89.4931C43.2885 89.3695 43.2932 89.2637 43.2935 89.1754C43.2954 88.5224 43.1868 87.9308 42.9677 87.4007C42.7486 86.8617 42.4012 86.4327 41.9256 86.1136C41.4588 85.7946 40.8459 85.634 40.087 85.6318C39.4516 85.63 38.882 85.774 38.3781 86.0638C37.8743 86.3535 37.476 86.7627 37.1832 87.2914C36.8905 87.82 36.7431 88.4418 36.741 89.1566C36.7392 89.792 36.892 90.366 37.1994 90.8788C37.5156 91.3915 37.9557 91.7987 38.5196 92.1004ZM41.4818 88.5348L38.6623 88.5267C38.6893 88.3503 38.7339 88.1783 38.7961 88.0108C38.8672 87.8434 38.9603 87.6936 39.0754 87.5616C39.1905 87.4295 39.332 87.324 39.4999 87.2451C39.6766 87.1662 39.8753 87.127 40.0959 87.1277C40.2636 87.1282 40.418 87.1507 40.559 87.1952C40.7001 87.2397 40.8235 87.3018 40.9292 87.3816C41.0348 87.4613 41.1272 87.5586 41.2063 87.6736C41.2854 87.7885 41.3468 87.9211 41.3905 88.0712C41.4342 88.2126 41.4646 88.3671 41.4818 88.5348ZM45.4896 92.041C45.8328 92.3861 46.3044 92.5596 46.9045 92.5613L48.6915 92.5664L48.696 91.0177L47.2266 91.0135C47.1119 91.0131 47.0106 90.9731 46.9225 90.8934C46.8434 90.805 46.8039 90.7034 46.8043 90.5886L46.8135 87.3588L48.7065 87.3642L48.7109 85.8154L46.818 85.81L46.8229 84.1156L45.0093 84.1104L45.0045 85.8048L43.8528 85.8015L43.8484 87.3502L45 87.3536L44.9906 90.6364C44.9889 91.2277 45.1552 91.6958 45.4896 92.041ZM50.1123 91.0217L50.1078 92.5705L53.576 92.5805C53.9819 92.5816 54.3484 92.49 54.6755 92.3056C55.0025 92.1124 55.2636 91.8572 55.4587 91.5401C55.6538 91.2141 55.7519 90.857 55.753 90.4687C55.7544 89.9657 55.6585 89.5595 55.4652 89.2501C55.272 88.9406 54.9991 88.7148 54.6465 88.5726C54.2939 88.4216 53.8749 88.3454 53.3896 88.344L52.1188 88.3403C51.9776 88.3399 51.8586 88.2954 51.7618 88.2069C51.665 88.1096 51.6168 87.9903 51.6172 87.8491C51.6176 87.7079 51.6665 87.5933 51.7638 87.5053C51.8699 87.4174 51.9892 87.3736 52.1216 87.374L55.1132 87.3826L55.1176 85.8338L51.9539 85.8247C51.5656 85.8236 51.208 85.9197 50.8809 86.1129C50.5627 86.2973 50.306 86.5481 50.111 86.8652C49.9247 87.1735 49.8311 87.5174 49.83 87.8969C49.8286 88.3911 49.9289 88.7929 50.131 89.1024C50.3419 89.403 50.6193 89.6244 50.9631 89.7666C51.3157 89.9 51.7082 89.9673 52.1406 89.9686L53.4114 89.9722C53.5173 89.9725 53.6099 89.9993 53.6891 90.0524C53.7773 90.0968 53.8433 90.1588 53.8872 90.2383C53.9399 90.3179 53.9661 90.4106 53.9658 90.5165C53.9655 90.6136 53.9388 90.7018 53.8856 90.7811C53.8413 90.8604 53.7749 90.9219 53.6865 90.9658C53.607 91.0097 53.5142 91.0315 53.4083 91.0312L50.1123 91.0217ZM58.6884 92.3436C59.1818 92.6186 59.7726 92.7571 60.461 92.7591C61.1581 92.7611 61.7498 92.626 62.2359 92.3538C62.7309 92.0817 63.107 91.7165 63.3643 91.2583C63.6303 90.8002 63.7642 90.2932 63.7657 89.7372L63.7769 85.8587L61.9634 85.8535L61.9522 89.732C61.9515 90.0056 61.8846 90.2569 61.7515 90.4859C61.6185 90.7062 61.4371 90.8822 61.2073 91.0139C60.9863 91.1456 60.739 91.2111 60.4654 91.2103C60.1918 91.2095 59.9405 91.1426 59.7115 91.0096C59.4912 90.8766 59.3152 90.6996 59.1835 90.4786C59.0518 90.2487 58.9863 89.9971 58.9871 89.7235L58.9982 85.845L57.1847 85.8398L57.1736 89.7183C57.172 90.2742 57.2985 90.782 57.5531 91.2417C57.8165 91.7013 58.1949 92.0686 58.6884 92.3436ZM65.4885 88.7361L65.4774 92.6146L67.2909 92.6198L67.3021 88.7413C67.3028 88.4677 67.3697 88.2208 67.5027 88.0006C67.6358 87.7715 67.8128 87.5911 68.0338 87.4594C68.2636 87.3277 68.5153 87.2622 68.7889 87.263C69.0625 87.2638 69.3094 87.3307 69.5296 87.4637C69.7587 87.5967 69.9391 87.7781 70.0708 88.008C70.2025 88.229 70.268 88.4762 70.2672 88.7498L70.2561 92.6283L72.0696 92.6335L72.0807 88.755C72.0823 88.1991 71.9514 87.6912 71.688 87.2316C71.4334 86.772 71.0594 86.4047 70.5659 86.1297C70.0814 85.8547 69.4905 85.7162 68.7933 85.7142C68.105 85.7123 67.5133 85.8473 67.0184 86.1195C66.5234 86.3916 66.1429 86.7568 65.8768 87.2149C65.6196 87.6731 65.4901 88.1801 65.4885 88.7361ZM74.8361 92.3238C75.2941 92.6428 75.832 92.8032 76.4497 92.805C76.838 92.8061 77.1735 92.7497 77.4562 92.6358C77.739 92.5219 77.9777 92.3681 78.1724 92.1745C78.3759 91.9809 78.5442 91.7652 78.6773 91.5273L78.7037 91.5274L78.7005 92.6526L80.514 92.6578L80.5237 89.2955C80.5255 88.6425 80.3905 88.0464 80.1184 87.5073C79.8464 86.9682 79.4505 86.5391 78.9308 86.2199C78.411 85.9007 77.7717 85.74 77.0127 85.7378C76.2626 85.7357 75.618 85.8927 75.0787 86.2088C74.5395 86.5161 74.1235 86.9385 73.8308 87.476C73.5468 88.0135 73.4039 88.6132 73.402 89.2751C73.4002 89.9193 73.522 90.5109 73.7676 91.0499C74.022 91.5802 74.3782 92.0048 74.8361 92.3238ZM77.8845 90.9956C77.6281 91.1713 77.3234 91.2587 76.9704 91.2577C76.6086 91.2566 76.2956 91.1675 76.0313 90.9902C75.7759 90.813 75.578 90.5742 75.4377 90.2737C75.3062 89.9645 75.241 89.6245 75.2421 89.2539C75.2431 88.8832 75.3103 88.5525 75.4435 88.2617C75.5855 87.962 75.7848 87.7243 76.0412 87.5486C76.3065 87.3728 76.62 87.2855 76.9818 87.2865C77.3348 87.2875 77.639 87.3766 77.8944 87.5539C78.1498 87.7311 78.3433 87.9699 78.4748 88.2704C78.6152 88.562 78.6848 88.8931 78.6838 89.2638C78.6827 89.6344 78.6111 89.974 78.469 90.2824C78.3358 90.5821 78.141 90.8198 77.8845 90.9956Z" fill="#F4F4F4"/>
<path d="M230.206 75.97C229.6 75.97 229.071 75.814 228.62 75.502C228.17 75.19 227.819 74.774 227.567 74.254C227.325 73.7253 227.203 73.1446 227.203 72.512C227.203 71.862 227.342 71.2726 227.619 70.744C227.905 70.2153 228.313 69.7993 228.841 69.496C229.37 69.184 230.003 69.028 230.739 69.028C231.485 69.028 232.113 69.184 232.624 69.496C233.136 69.808 233.526 70.2283 233.794 70.757C234.063 71.2856 234.197 71.8706 234.197 72.512V75.814H232.416V74.709H232.39C232.26 74.943 232.096 75.1553 231.896 75.346C231.706 75.5366 231.472 75.6883 231.194 75.801C230.917 75.9136 230.588 75.97 230.206 75.97ZM230.713 74.449C231.06 74.449 231.359 74.3623 231.61 74.189C231.862 74.0156 232.052 73.7816 232.182 73.487C232.321 73.1836 232.39 72.85 232.39 72.486C232.39 72.122 232.321 71.797 232.182 71.511C232.052 71.2163 231.862 70.9823 231.61 70.809C231.359 70.6356 231.06 70.549 230.713 70.549C230.358 70.549 230.05 70.6356 229.79 70.809C229.539 70.9823 229.344 71.2163 229.205 71.511C229.075 71.797 229.01 72.122 229.01 72.486C229.01 72.85 229.075 73.1836 229.205 73.487C229.344 73.7816 229.539 74.0156 229.79 74.189C230.05 74.3623 230.358 74.449 230.713 74.449ZM235.883 75.814V72.005C235.883 71.459 236.009 70.9606 236.26 70.51C236.52 70.0593 236.893 69.6996 237.378 69.431C237.864 69.1623 238.444 69.028 239.12 69.028C239.805 69.028 240.386 69.1623 240.862 69.431C241.348 69.6996 241.716 70.0593 241.967 70.51C242.227 70.9606 242.357 71.459 242.357 72.005V75.814H240.576V72.005C240.576 71.7363 240.511 71.4936 240.381 71.277C240.251 71.0516 240.074 70.874 239.848 70.744C239.632 70.614 239.389 70.549 239.12 70.549C238.852 70.549 238.605 70.614 238.379 70.744C238.163 70.874 237.989 71.0516 237.859 71.277C237.729 71.4936 237.664 71.7363 237.664 72.005V75.814H235.883ZM247.153 75.97C246.599 75.97 246.1 75.8833 245.658 75.71C245.225 75.528 244.861 75.2766 244.566 74.956C244.272 74.6266 244.046 74.2453 243.89 73.812C243.734 73.37 243.656 72.889 243.656 72.369C243.656 71.7103 243.786 71.134 244.046 70.64C244.315 70.1373 244.688 69.743 245.164 69.457C245.65 69.171 246.213 69.028 246.854 69.028C247.132 69.028 247.396 69.067 247.647 69.145C247.907 69.223 248.141 69.3356 248.349 69.483C248.557 69.6303 248.726 69.8036 248.856 70.003H248.869V66.324H250.65V72.369C250.65 73.097 250.507 73.734 250.221 74.28C249.935 74.8173 249.532 75.2333 249.012 75.528C248.492 75.8226 247.873 75.97 247.153 75.97ZM247.153 74.449C247.509 74.449 247.812 74.3623 248.063 74.189C248.315 74.0156 248.505 73.7816 248.635 73.487C248.774 73.1923 248.843 72.863 248.843 72.499C248.843 72.135 248.774 71.8056 248.635 71.511C248.505 71.2163 248.315 70.9823 248.063 70.809C247.812 70.6356 247.509 70.549 247.153 70.549C246.807 70.549 246.503 70.6356 246.243 70.809C245.992 70.9823 245.797 71.2163 245.658 71.511C245.528 71.8056 245.463 72.135 245.463 72.499C245.463 72.863 245.528 73.1923 245.658 73.487C245.797 73.7816 245.992 74.0156 246.243 74.189C246.503 74.3623 246.807 74.449 247.153 74.449Z" fill="white"/>
<path d="M264.644 75.97C264.089 75.97 263.591 75.8833 263.149 75.71C262.716 75.528 262.352 75.2766 262.057 74.956C261.762 74.6266 261.537 74.2453 261.381 73.812C261.225 73.37 261.147 72.889 261.147 72.369C261.147 71.7103 261.277 71.134 261.537 70.64C261.806 70.1373 262.178 69.743 262.655 69.457C263.14 69.171 263.704 69.028 264.345 69.028C264.622 69.028 264.887 69.067 265.138 69.145C265.398 69.223 265.632 69.3356 265.84 69.483C266.048 69.6303 266.217 69.8036 266.347 70.003H266.36V66.324H268.141V72.369C268.141 73.097 267.998 73.734 267.712 74.28C267.426 74.8173 267.023 75.2333 266.503 75.528C265.983 75.8226 265.363 75.97 264.644 75.97ZM264.644 74.449C264.999 74.449 265.303 74.3623 265.554 74.189C265.805 74.0156 265.996 73.7816 266.126 73.487C266.265 73.1923 266.334 72.863 266.334 72.499C266.334 72.135 266.265 71.8056 266.126 71.511C265.996 71.2163 265.805 70.9823 265.554 70.809C265.303 70.6356 264.999 70.549 264.644 70.549C264.297 70.549 263.994 70.6356 263.734 70.809C263.483 70.9823 263.288 71.2163 263.149 71.511C263.019 71.8056 262.954 72.135 262.954 72.499C262.954 72.863 263.019 73.1923 263.149 73.487C263.288 73.7816 263.483 74.0156 263.734 74.189C263.994 74.3623 264.297 74.449 264.644 74.449ZM273.105 75.814C272.351 75.814 271.692 75.671 271.129 75.385C270.574 75.0903 270.141 74.6916 269.829 74.189C269.525 73.6863 269.374 73.123 269.374 72.499C269.374 71.797 269.517 71.186 269.803 70.666C270.089 70.146 270.479 69.743 270.973 69.457C271.467 69.171 272.026 69.028 272.65 69.028C273.395 69.028 273.997 69.184 274.457 69.496C274.925 69.808 275.267 70.2283 275.484 70.757C275.7 71.277 275.809 71.8576 275.809 72.499C275.809 72.5856 275.804 72.6896 275.796 72.811C275.787 72.9236 275.774 73.0103 275.757 73.071H271.272C271.341 73.3396 271.458 73.565 271.623 73.747C271.796 73.929 272.008 74.0676 272.26 74.163C272.52 74.2496 272.81 74.293 273.131 74.293H274.977V75.814H273.105ZM271.259 71.875H274.028C274.01 71.7103 273.98 71.5586 273.937 71.42C273.893 71.2726 273.833 71.1426 273.755 71.03C273.677 70.9173 273.586 70.822 273.482 70.744C273.378 70.666 273.256 70.6053 273.118 70.562C272.979 70.5186 272.827 70.497 272.663 70.497C272.446 70.497 272.251 70.536 272.078 70.614C271.913 70.692 271.774 70.796 271.662 70.926C271.549 71.056 271.458 71.2033 271.389 71.368C271.328 71.5326 271.285 71.7016 271.259 71.875ZM277.09 75.814V74.293H280.327C280.431 74.293 280.522 74.2713 280.6 74.228C280.686 74.1846 280.751 74.124 280.795 74.046C280.847 73.968 280.873 73.8813 280.873 73.786C280.873 73.682 280.847 73.591 280.795 73.513C280.751 73.435 280.686 73.3743 280.6 73.331C280.522 73.279 280.431 73.253 280.327 73.253H279.079C278.654 73.253 278.268 73.188 277.922 73.058C277.584 72.9193 277.311 72.7026 277.103 72.408C276.903 72.1046 276.804 71.7103 276.804 71.225C276.804 70.8523 276.895 70.5143 277.077 70.211C277.267 69.899 277.519 69.652 277.831 69.47C278.151 69.2793 278.502 69.184 278.884 69.184H281.991V70.705H279.053C278.923 70.705 278.806 70.7483 278.702 70.835C278.606 70.9216 278.559 71.0343 278.559 71.173C278.559 71.3116 278.606 71.4286 278.702 71.524C278.797 71.6106 278.914 71.654 279.053 71.654H280.301C280.777 71.654 281.189 71.7276 281.536 71.875C281.882 72.0136 282.151 72.2346 282.342 72.538C282.532 72.8413 282.628 73.24 282.628 73.734C282.628 74.1153 282.532 74.4663 282.342 74.787C282.151 75.099 281.895 75.3503 281.575 75.541C281.254 75.723 280.894 75.814 280.496 75.814H277.09ZM284.021 75.814V69.184H285.815V75.814H284.021ZM284.918 68.391C284.614 68.391 284.35 68.2826 284.125 68.066C283.908 67.8406 283.8 67.5763 283.8 67.273C283.8 66.9696 283.908 66.7096 284.125 66.493C284.35 66.2676 284.614 66.155 284.918 66.155C285.221 66.155 285.481 66.2676 285.698 66.493C285.923 66.7096 286.036 66.9696 286.036 67.273C286.036 67.5763 285.923 67.8406 285.698 68.066C285.481 68.2826 285.221 68.391 284.918 68.391ZM288.487 78.453V76.932H291.893C292.015 76.932 292.114 76.8886 292.192 76.802C292.27 76.724 292.309 76.6286 292.309 76.516V74.891H292.296C292.097 75.1163 291.893 75.2983 291.685 75.437C291.477 75.5756 291.252 75.6796 291.009 75.749C290.775 75.8096 290.515 75.84 290.229 75.84C289.64 75.84 289.107 75.7013 288.63 75.424C288.162 75.138 287.79 74.7393 287.512 74.228C287.235 73.7166 287.096 73.123 287.096 72.447C287.096 71.8056 287.231 71.2293 287.499 70.718C287.777 70.198 288.175 69.7863 288.695 69.483C289.215 69.1796 289.848 69.028 290.593 69.028C291.313 69.028 291.932 69.1753 292.452 69.47C292.972 69.7646 293.375 70.1806 293.661 70.718C293.947 71.2553 294.09 71.8923 294.09 72.629V76.568C294.09 77.1486 293.921 77.608 293.583 77.946C293.254 78.284 292.795 78.453 292.205 78.453H288.487ZM290.593 74.319C290.949 74.319 291.252 74.2366 291.503 74.072C291.755 73.9073 291.945 73.6906 292.075 73.422C292.214 73.1446 292.283 72.837 292.283 72.499C292.283 72.135 292.214 71.8056 292.075 71.511C291.945 71.2163 291.755 70.9823 291.503 70.809C291.252 70.6356 290.949 70.549 290.593 70.549C290.247 70.549 289.943 70.6356 289.683 70.809C289.432 70.9736 289.237 71.199 289.098 71.485C288.968 71.771 288.903 72.0916 288.903 72.447C288.903 72.7936 288.968 73.11 289.098 73.396C289.237 73.6733 289.432 73.8986 289.683 74.072C289.943 74.2366 290.247 74.319 290.593 74.319ZM295.713 75.814V72.005C295.713 71.459 295.839 70.9606 296.09 70.51C296.35 70.0593 296.723 69.6996 297.208 69.431C297.693 69.1623 298.274 69.028 298.95 69.028C299.635 69.028 300.215 69.1623 300.692 69.431C301.177 69.6996 301.546 70.0593 301.797 70.51C302.057 70.9606 302.187 71.459 302.187 72.005V75.814H300.406V72.005C300.406 71.7363 300.341 71.4936 300.211 71.277C300.081 71.0516 299.903 70.874 299.678 70.744C299.461 70.614 299.219 70.549 298.95 70.549C298.681 70.549 298.434 70.614 298.209 70.744C297.992 70.874 297.819 71.0516 297.689 71.277C297.559 71.4936 297.494 71.7363 297.494 72.005V75.814H295.713ZM304.76 75.97C304.431 75.97 304.145 75.853 303.902 75.619C303.668 75.3763 303.551 75.0903 303.551 74.761C303.551 74.4316 303.668 74.15 303.902 73.916C304.145 73.6733 304.431 73.552 304.76 73.552C305.089 73.552 305.371 73.6733 305.605 73.916C305.848 74.15 305.969 74.4316 305.969 74.761C305.969 74.9776 305.913 75.1813 305.8 75.372C305.696 75.554 305.553 75.7013 305.371 75.814C305.189 75.918 304.985 75.97 304.76 75.97Z" fill="white"/>
<path d="M107.387 75.97C106.936 75.97 106.524 75.8833 106.152 75.71C105.779 75.528 105.48 75.255 105.255 74.891C105.038 74.527 104.93 74.0676 104.93 73.513V69.184H106.711V73.773C106.711 73.8943 106.741 74.007 106.802 74.111C106.862 74.215 106.945 74.2973 107.049 74.358C107.153 74.4186 107.265 74.449 107.387 74.449C107.508 74.449 107.621 74.4186 107.725 74.358C107.829 74.2973 107.911 74.215 107.972 74.111C108.032 74.007 108.063 73.8943 108.063 73.773V71.485C108.063 70.965 108.162 70.523 108.362 70.159C108.57 69.795 108.856 69.5176 109.22 69.327C109.592 69.1276 110.026 69.028 110.52 69.028C111.014 69.028 111.443 69.1276 111.807 69.327C112.179 69.5176 112.465 69.795 112.665 70.159C112.873 70.523 112.977 70.965 112.977 71.485V73.773C112.977 73.8943 113.007 74.007 113.068 74.111C113.128 74.215 113.211 74.2973 113.315 74.358C113.419 74.4186 113.531 74.449 113.653 74.449C113.783 74.449 113.895 74.4186 113.991 74.358C114.095 74.2973 114.177 74.215 114.238 74.111C114.298 74.007 114.329 73.8943 114.329 73.773V69.184H116.11V73.513C116.11 74.0676 115.997 74.527 115.772 74.891C115.555 75.255 115.26 75.528 114.888 75.71C114.515 75.8833 114.103 75.97 113.653 75.97C113.211 75.97 112.803 75.8833 112.431 75.71C112.058 75.528 111.759 75.255 111.534 74.891C111.308 74.527 111.196 74.0676 111.196 73.513V71.225C111.196 71.095 111.165 70.9823 111.105 70.887C111.044 70.783 110.962 70.7006 110.858 70.64C110.762 70.5793 110.65 70.549 110.52 70.549C110.398 70.549 110.286 70.5793 110.182 70.64C110.078 70.7006 109.995 70.783 109.935 70.887C109.874 70.9823 109.844 71.095 109.844 71.225V73.513C109.844 74.0676 109.731 74.527 109.506 74.891C109.28 75.255 108.981 75.528 108.609 75.71C108.245 75.8833 107.837 75.97 107.387 75.97ZM121.144 75.814C120.39 75.814 119.731 75.671 119.168 75.385C118.613 75.0903 118.18 74.6916 117.868 74.189C117.564 73.6863 117.413 73.123 117.413 72.499C117.413 71.797 117.556 71.186 117.842 70.666C118.128 70.146 118.518 69.743 119.012 69.457C119.506 69.171 120.065 69.028 120.689 69.028C121.434 69.028 122.036 69.184 122.496 69.496C122.964 69.808 123.306 70.2283 123.523 70.757C123.739 71.277 123.848 71.8576 123.848 72.499C123.848 72.5856 123.843 72.6896 123.835 72.811C123.826 72.9236 123.813 73.0103 123.796 73.071H119.311C119.38 73.3396 119.497 73.565 119.662 73.747C119.835 73.929 120.047 74.0676 120.299 74.163C120.559 74.2496 120.849 74.293 121.17 74.293H123.016V75.814H121.144ZM119.298 71.875H122.067C122.049 71.7103 122.019 71.5586 121.976 71.42C121.932 71.2726 121.872 71.1426 121.794 71.03C121.716 70.9173 121.625 70.822 121.521 70.744C121.417 70.666 121.295 70.6053 121.157 70.562C121.018 70.5186 120.866 70.497 120.702 70.497C120.485 70.497 120.29 70.536 120.117 70.614C119.952 70.692 119.813 70.796 119.701 70.926C119.588 71.056 119.497 71.2033 119.428 71.368C119.367 71.5326 119.324 71.7016 119.298 71.875ZM128.535 75.97C127.824 75.97 127.204 75.8226 126.676 75.528C126.156 75.2333 125.753 74.8173 125.467 74.28C125.181 73.734 125.038 73.097 125.038 72.369V66.324H126.819V70.003H126.832C126.97 69.8036 127.139 69.6303 127.339 69.483C127.547 69.3356 127.776 69.223 128.028 69.145C128.288 69.067 128.556 69.028 128.834 69.028C129.484 69.028 130.047 69.171 130.524 69.457C131 69.743 131.369 70.1373 131.629 70.64C131.897 71.134 132.032 71.7103 132.032 72.369C132.032 72.889 131.954 73.37 131.798 73.812C131.642 74.2453 131.416 74.6266 131.122 74.956C130.827 75.2766 130.463 75.528 130.03 75.71C129.596 75.8833 129.098 75.97 128.535 75.97ZM128.535 74.449C128.89 74.449 129.193 74.3623 129.445 74.189C129.696 74.0156 129.887 73.7816 130.017 73.487C130.155 73.1923 130.225 72.863 130.225 72.499C130.225 72.135 130.155 71.8056 130.017 71.511C129.887 71.2163 129.696 70.9823 129.445 70.809C129.193 70.6356 128.89 70.549 128.535 70.549C128.188 70.549 127.885 70.6356 127.625 70.809C127.373 70.9823 127.178 71.2163 127.04 71.511C126.91 71.8056 126.845 72.135 126.845 72.499C126.845 72.863 126.91 73.1923 127.04 73.487C127.178 73.7816 127.373 74.0156 127.625 74.189C127.885 74.3623 128.188 74.449 128.535 74.449ZM139.877 75.97C139.322 75.97 138.824 75.8833 138.382 75.71C137.948 75.528 137.584 75.2766 137.29 74.956C136.995 74.6266 136.77 74.2453 136.614 73.812C136.458 73.37 136.38 72.889 136.38 72.369C136.38 71.7103 136.51 71.134 136.77 70.64C137.038 70.1373 137.411 69.743 137.888 69.457C138.373 69.171 138.936 69.028 139.578 69.028C139.855 69.028 140.119 69.067 140.371 69.145C140.631 69.223 140.865 69.3356 141.073 69.483C141.281 69.6303 141.45 69.8036 141.58 70.003H141.593V66.324H143.374V72.369C143.374 73.097 143.231 73.734 142.945 74.28C142.659 74.8173 142.256 75.2333 141.736 75.528C141.216 75.8226 140.596 75.97 139.877 75.97ZM139.877 74.449C140.232 74.449 140.535 74.3623 140.787 74.189C141.038 74.0156 141.229 73.7816 141.359 73.487C141.497 73.1923 141.567 72.863 141.567 72.499C141.567 72.135 141.497 71.8056 141.359 71.511C141.229 71.2163 141.038 70.9823 140.787 70.809C140.535 70.6356 140.232 70.549 139.877 70.549C139.53 70.549 139.227 70.6356 138.967 70.809C138.715 70.9823 138.52 71.2163 138.382 71.511C138.252 71.8056 138.187 72.135 138.187 72.499C138.187 72.863 138.252 73.1923 138.382 73.487C138.52 73.7816 138.715 74.0156 138.967 74.189C139.227 74.3623 139.53 74.449 139.877 74.449ZM148.337 75.814C147.583 75.814 146.924 75.671 146.361 75.385C145.806 75.0903 145.373 74.6916 145.061 74.189C144.758 73.6863 144.606 73.123 144.606 72.499C144.606 71.797 144.749 71.186 145.035 70.666C145.321 70.146 145.711 69.743 146.205 69.457C146.699 69.171 147.258 69.028 147.882 69.028C148.627 69.028 149.23 69.184 149.689 69.496C150.157 69.808 150.499 70.2283 150.716 70.757C150.933 71.277 151.041 71.8576 151.041 72.499C151.041 72.5856 151.037 72.6896 151.028 72.811C151.019 72.9236 151.006 73.0103 150.989 73.071H146.504C146.573 73.3396 146.69 73.565 146.855 73.747C147.028 73.929 147.241 74.0676 147.492 74.163C147.752 74.2496 148.042 74.293 148.363 74.293H150.209V75.814H148.337ZM146.491 71.875H149.26C149.243 71.7103 149.212 71.5586 149.169 71.42C149.126 71.2726 149.065 71.1426 148.987 71.03C148.909 70.9173 148.818 70.822 148.714 70.744C148.61 70.666 148.489 70.6053 148.35 70.562C148.211 70.5186 148.06 70.497 147.895 70.497C147.678 70.497 147.483 70.536 147.31 70.614C147.145 70.692 147.007 70.796 146.894 70.926C146.781 71.056 146.69 71.2033 146.621 71.368C146.56 71.5326 146.517 71.7016 146.491 71.875ZM155.068 75.97C154.678 75.97 154.323 75.866 154.002 75.658C153.69 75.45 153.473 75.177 153.352 74.839L151.454 69.184H153.391L154.925 74.111C154.942 74.1456 154.964 74.1716 154.99 74.189C155.016 74.2063 155.046 74.215 155.081 74.215C155.116 74.215 155.146 74.2063 155.172 74.189C155.207 74.1716 155.228 74.1456 155.237 74.111L156.784 69.184H158.682L156.784 74.826C156.663 75.164 156.442 75.4413 156.121 75.658C155.809 75.866 155.458 75.97 155.068 75.97ZM162.746 75.814C161.992 75.814 161.334 75.671 160.77 75.385C160.216 75.0903 159.782 74.6916 159.47 74.189C159.167 73.6863 159.015 73.123 159.015 72.499C159.015 71.797 159.158 71.186 159.444 70.666C159.73 70.146 160.12 69.743 160.614 69.457C161.108 69.171 161.667 69.028 162.291 69.028C163.037 69.028 163.639 69.184 164.098 69.496C164.566 69.808 164.909 70.2283 165.125 70.757C165.342 71.277 165.45 71.8576 165.45 72.499C165.45 72.5856 165.446 72.6896 165.437 72.811C165.429 72.9236 165.416 73.0103 165.398 73.071H160.913C160.983 73.3396 161.1 73.565 161.264 73.747C161.438 73.929 161.65 74.0676 161.901 74.163C162.161 74.2496 162.452 74.293 162.772 74.293H164.618V75.814H162.746ZM160.9 71.875H163.669C163.652 71.7103 163.622 71.5586 163.578 71.42C163.535 71.2726 163.474 71.1426 163.396 71.03C163.318 70.9173 163.227 70.822 163.123 70.744C163.019 70.666 162.898 70.6053 162.759 70.562C162.621 70.5186 162.469 70.497 162.304 70.497C162.088 70.497 161.893 70.536 161.719 70.614C161.555 70.692 161.416 70.796 161.303 70.926C161.191 71.056 161.1 71.2033 161.03 71.368C160.97 71.5326 160.926 71.7016 160.9 71.875ZM166.705 75.814V66.324H168.486V75.814H166.705ZM173.356 75.97C172.671 75.97 172.06 75.8183 171.523 75.515C170.986 75.203 170.561 74.787 170.249 74.267C169.937 73.7383 169.781 73.149 169.781 72.499C169.781 71.849 169.937 71.264 170.249 70.744C170.561 70.2153 170.986 69.7993 171.523 69.496C172.06 69.184 172.671 69.028 173.356 69.028C174.041 69.028 174.652 69.184 175.189 69.496C175.726 69.7993 176.151 70.2153 176.463 70.744C176.775 71.264 176.931 71.849 176.931 72.499C176.931 73.149 176.775 73.7383 176.463 74.267C176.151 74.787 175.726 75.203 175.189 75.515C174.652 75.8183 174.041 75.97 173.356 75.97ZM173.356 74.449C173.72 74.449 174.032 74.3623 174.292 74.189C174.561 74.0156 174.764 73.7816 174.903 73.487C175.05 73.1923 175.124 72.863 175.124 72.499C175.124 72.135 175.05 71.8056 174.903 71.511C174.764 71.2163 174.561 70.9823 174.292 70.809C174.032 70.6356 173.72 70.549 173.356 70.549C172.992 70.549 172.676 70.6356 172.407 70.809C172.147 70.9823 171.943 71.2163 171.796 71.511C171.657 71.8056 171.588 72.135 171.588 72.499C171.588 72.863 171.657 73.1923 171.796 73.487C171.943 73.7816 172.147 74.0156 172.407 74.189C172.676 74.3623 172.992 74.449 173.356 74.449ZM181.664 69.028C182.228 69.028 182.726 69.119 183.159 69.301C183.593 69.4743 183.957 69.7256 184.251 70.055C184.546 70.3756 184.771 70.757 184.927 71.199C185.083 71.6323 185.161 72.109 185.161 72.629C185.161 73.279 185.027 73.8553 184.758 74.358C184.498 74.8606 184.13 75.255 183.653 75.541C183.177 75.827 182.613 75.97 181.963 75.97C181.686 75.97 181.417 75.931 181.157 75.853C180.906 75.775 180.676 75.6623 180.468 75.515C180.269 75.3676 180.1 75.1943 179.961 74.995H179.948V78.674H178.167V72.629C178.167 71.8923 178.31 71.2553 178.596 70.718C178.882 70.1806 179.285 69.7646 179.805 69.47C180.334 69.1753 180.954 69.028 181.664 69.028ZM181.664 70.549C181.318 70.549 181.014 70.6356 180.754 70.809C180.503 70.9823 180.308 71.2163 180.169 71.511C180.039 71.8056 179.974 72.135 179.974 72.499C179.974 72.863 180.039 73.1923 180.169 73.487C180.308 73.7816 180.503 74.0156 180.754 74.189C181.014 74.3623 181.318 74.449 181.664 74.449C182.02 74.449 182.323 74.3623 182.574 74.189C182.826 74.0156 183.016 73.7816 183.146 73.487C183.285 73.1923 183.354 72.863 183.354 72.499C183.354 72.135 183.285 71.8056 183.146 71.511C183.016 71.2163 182.826 70.9823 182.574 70.809C182.323 70.6356 182.02 70.549 181.664 70.549ZM186.459 75.814V71.875C186.459 71.355 186.585 70.8783 186.836 70.445C187.087 70.0116 187.447 69.6693 187.915 69.418C188.392 69.158 188.964 69.028 189.631 69.028C189.952 69.028 190.246 69.067 190.515 69.145C190.792 69.2143 191.048 69.3183 191.282 69.457C191.516 69.5956 191.72 69.7603 191.893 69.951H191.906C192.088 69.7603 192.296 69.5956 192.53 69.457C192.764 69.3183 193.02 69.2143 193.297 69.145C193.574 69.067 193.873 69.028 194.194 69.028C194.861 69.028 195.429 69.158 195.897 69.418C196.374 69.6693 196.738 70.0116 196.989 70.445C197.24 70.8783 197.366 71.355 197.366 71.875V75.814H195.585V71.875C195.585 71.6323 195.52 71.4113 195.39 71.212C195.269 71.0126 195.104 70.8523 194.896 70.731C194.688 70.6096 194.454 70.549 194.194 70.549C193.943 70.549 193.709 70.6096 193.492 70.731C193.284 70.8523 193.115 71.0126 192.985 71.212C192.864 71.4113 192.803 71.6323 192.803 71.875V75.814H191.022V71.875C191.022 71.6323 190.957 71.4113 190.827 71.212C190.706 71.0126 190.541 70.8523 190.333 70.731C190.125 70.6096 189.891 70.549 189.631 70.549C189.38 70.549 189.146 70.6096 188.929 70.731C188.721 70.8523 188.552 71.0126 188.422 71.212C188.301 71.4113 188.24 71.6323 188.24 71.875V75.814H186.459ZM202.394 75.814C201.64 75.814 200.981 75.671 200.418 75.385C199.863 75.0903 199.43 74.6916 199.118 74.189C198.814 73.6863 198.663 73.123 198.663 72.499C198.663 71.797 198.806 71.186 199.092 70.666C199.378 70.146 199.768 69.743 200.262 69.457C200.756 69.171 201.315 69.028 201.939 69.028C202.684 69.028 203.286 69.184 203.746 69.496C204.214 69.808 204.556 70.2283 204.773 70.757C204.989 71.277 205.098 71.8576 205.098 72.499C205.098 72.5856 205.093 72.6896 205.085 72.811C205.076 72.9236 205.063 73.0103 205.046 73.071H200.561C200.63 73.3396 200.747 73.565 200.912 73.747C201.085 73.929 201.297 74.0676 201.549 74.163C201.809 74.2496 202.099 74.293 202.42 74.293H204.266V75.814H202.394ZM200.548 71.875H203.317C203.299 71.7103 203.269 71.5586 203.226 71.42C203.182 71.2726 203.122 71.1426 203.044 71.03C202.966 70.9173 202.875 70.822 202.771 70.744C202.667 70.666 202.545 70.6053 202.407 70.562C202.268 70.5186 202.116 70.497 201.952 70.497C201.735 70.497 201.54 70.536 201.367 70.614C201.202 70.692 201.063 70.796 200.951 70.926C200.838 71.056 200.747 71.2033 200.678 71.368C200.617 71.5326 200.574 71.7016 200.548 71.875ZM206.353 75.814V72.005C206.353 71.459 206.478 70.9606 206.73 70.51C206.99 70.0593 207.362 69.6996 207.848 69.431C208.333 69.1623 208.914 69.028 209.59 69.028C210.274 69.028 210.855 69.1623 211.332 69.431C211.817 69.6996 212.185 70.0593 212.437 70.51C212.697 70.9606 212.827 71.459 212.827 72.005V75.814H211.046V72.005C211.046 71.7363 210.981 71.4936 210.851 71.277C210.721 71.0516 210.543 70.874 210.318 70.744C210.101 70.614 209.858 70.549 209.59 70.549C209.321 70.549 209.074 70.614 208.849 70.744C208.632 70.874 208.459 71.0516 208.329 71.277C208.199 71.4936 208.134 71.7363 208.134 72.005V75.814H206.353ZM216.817 75.814C216.227 75.814 215.764 75.645 215.426 75.307C215.096 74.969 214.932 74.5096 214.932 73.929V67.52H216.713V73.877C216.713 73.9896 216.752 74.0893 216.83 74.176C216.916 74.254 217.016 74.293 217.129 74.293H218.572V75.814H216.817ZM213.801 70.705V69.184H218.572V70.705H213.801Z" fill="white"/>
<path d="M104.166 59.814V53.613H117.363C117.787 53.613 118.158 53.5247 118.476 53.348C118.829 53.1713 119.094 52.924 119.271 52.606C119.483 52.288 119.589 51.9347 119.589 51.546C119.589 51.122 119.483 50.751 119.271 50.433C119.094 50.115 118.829 49.8677 118.476 49.691C118.158 49.479 117.787 49.373 117.363 49.373H112.275C110.544 49.373 108.971 49.108 107.558 48.578C106.18 48.0127 105.067 47.1293 104.219 45.928C103.406 44.6913 103 43.0837 103 41.105C103 39.5857 103.371 38.2077 104.113 36.971C104.89 35.699 105.915 34.692 107.187 33.95C108.494 33.1727 109.925 32.784 111.48 32.784H124.147V38.985H112.169C111.639 38.985 111.162 39.1617 110.738 39.515C110.349 39.8683 110.155 40.3277 110.155 40.893C110.155 41.4583 110.349 41.9353 110.738 42.324C111.127 42.6773 111.604 42.854 112.169 42.854H117.257C119.2 42.854 120.879 43.1543 122.292 43.755C123.705 44.3203 124.801 45.2213 125.578 46.458C126.355 47.6947 126.744 49.32 126.744 51.334C126.744 52.8887 126.355 54.3197 125.578 55.627C124.801 56.899 123.758 57.9237 122.451 58.701C121.144 59.443 119.677 59.814 118.052 59.814H104.166Z" fill="white"/>
<path d="M146.044 59.814C142.97 59.814 140.285 59.231 137.988 58.065C135.727 56.8637 133.96 55.2383 132.688 53.189C131.452 51.1397 130.833 48.843 130.833 46.299C130.833 43.437 131.416 40.946 132.582 38.826C133.748 36.706 135.338 35.063 137.352 33.897C139.366 32.731 141.645 32.148 144.189 32.148C147.228 32.148 149.684 32.784 151.556 34.056C153.464 35.328 154.86 37.0417 155.743 39.197C156.627 41.317 157.068 43.6843 157.068 46.299C157.068 46.6523 157.051 47.0763 157.015 47.571C156.98 48.0303 156.927 48.3837 156.856 48.631H138.571C138.854 49.7263 139.331 50.645 140.002 51.387C140.709 52.129 141.575 52.6943 142.599 53.083C143.659 53.4363 144.843 53.613 146.15 53.613H153.676V59.814H146.044ZM138.518 43.755H149.807C149.737 43.0837 149.613 42.4653 149.436 41.9C149.26 41.2993 149.012 40.7693 148.694 40.31C148.376 39.8507 148.005 39.462 147.581 39.144C147.157 38.826 146.663 38.5787 146.097 38.402C145.532 38.2253 144.914 38.137 144.242 38.137C143.359 38.137 142.564 38.296 141.857 38.614C141.186 38.932 140.621 39.356 140.161 39.886C139.702 40.416 139.331 41.0167 139.048 41.688C138.801 42.3593 138.624 43.0483 138.518 43.755Z" fill="white"/>
<path d="M171.565 59.814C169.162 59.814 167.272 59.125 165.894 57.747C164.551 56.369 163.88 54.4963 163.88 52.129V26H171.141V51.917C171.141 52.3763 171.3 52.7827 171.618 53.136C171.971 53.454 172.378 53.613 172.837 53.613H178.72V59.814H171.565ZM159.269 38.985V32.784H178.72V38.985H159.269Z" fill="white"/>
<path d="M184.391 59.814V53.613H197.588C198.012 53.613 198.383 53.5247 198.701 53.348C199.054 53.1713 199.319 52.924 199.496 52.606C199.708 52.288 199.814 51.9347 199.814 51.546C199.814 51.122 199.708 50.751 199.496 50.433C199.319 50.115 199.054 49.8677 198.701 49.691C198.383 49.479 198.012 49.373 197.588 49.373H192.5C190.768 49.373 189.196 49.108 187.783 48.578C186.405 48.0127 185.292 47.1293 184.444 45.928C183.631 44.6913 183.225 43.0837 183.225 41.105C183.225 39.5857 183.596 38.2077 184.338 36.971C185.115 35.699 186.14 34.692 187.412 33.95C188.719 33.1727 190.15 32.784 191.705 32.784H204.372V38.985H192.394C191.864 38.985 191.387 39.1617 190.963 39.515C190.574 39.8683 190.38 40.3277 190.38 40.893C190.38 41.4583 190.574 41.9353 190.963 42.324C191.351 42.6773 191.828 42.854 192.394 42.854H197.482C199.425 42.854 201.103 43.1543 202.517 43.755C203.93 44.3203 205.025 45.2213 205.803 46.458C206.58 47.6947 206.969 49.32 206.969 51.334C206.969 52.8887 206.58 54.3197 205.803 55.627C205.025 56.899 203.983 57.9237 202.676 58.701C201.368 59.443 199.902 59.814 198.277 59.814H184.391Z" fill="white"/>
<path d="M225.845 60.45C223.089 60.45 220.722 59.9023 218.743 58.807C216.764 57.7117 215.245 56.2453 214.185 54.408C213.16 52.5707 212.648 50.539 212.648 48.313V32.784H219.909V48.313C219.909 49.4083 220.174 50.4153 220.704 51.334C221.234 52.2173 221.941 52.924 222.824 53.454C223.743 53.984 224.75 54.249 225.845 54.249C226.94 54.249 227.93 53.984 228.813 53.454C229.732 52.924 230.456 52.2173 230.986 51.334C231.516 50.4153 231.781 49.4083 231.781 48.313V32.784H239.042V48.313C239.042 50.539 238.512 52.5707 237.452 54.408C236.427 56.2453 234.926 57.7117 232.947 58.807C231.004 59.9023 228.636 60.45 225.845 60.45Z" fill="white"/>
<path d="M245.928 59.814V44.285C245.928 42.059 246.44 40.0273 247.465 38.19C248.525 36.3527 250.044 34.8863 252.023 33.791C254.002 32.6957 256.369 32.148 259.125 32.148C261.917 32.148 264.284 32.6957 266.227 33.791C268.206 34.8863 269.708 36.3527 270.732 38.19C271.792 40.0273 272.322 42.059 272.322 44.285V59.814H265.061V44.285C265.061 43.1897 264.796 42.2003 264.266 41.317C263.736 40.3983 263.012 39.674 262.093 39.144C261.21 38.614 260.221 38.349 259.125 38.349C258.03 38.349 257.023 38.614 256.104 39.144C255.221 39.674 254.514 40.3983 253.984 41.317C253.454 42.2003 253.189 43.1897 253.189 44.285V59.814H245.928Z" fill="white"/>
<path d="M289.861 60.45C287.388 60.45 285.233 59.814 283.395 58.542C281.558 57.27 280.127 55.574 279.102 53.454C278.113 51.2987 277.618 48.9313 277.618 46.352C277.618 43.702 278.184 41.2993 279.314 39.144C280.48 36.9887 282.141 35.2927 284.296 34.056C286.452 32.784 289.031 32.148 292.034 32.148C295.073 32.148 297.635 32.784 299.719 34.056C301.804 35.328 303.394 37.0417 304.489 39.197C305.585 41.3523 306.132 43.7373 306.132 46.352V59.814H298.871V55.309H298.765C298.235 56.263 297.564 57.1287 296.751 57.906C295.974 58.6833 295.02 59.3017 293.889 59.761C292.759 60.2203 291.416 60.45 289.861 60.45ZM291.928 54.249C293.342 54.249 294.561 53.8957 295.585 53.189C296.61 52.4823 297.387 51.5283 297.917 50.327C298.483 49.0903 298.765 47.73 298.765 46.246C298.765 44.762 298.483 43.437 297.917 42.271C297.387 41.0697 296.61 40.1157 295.585 39.409C294.561 38.7023 293.342 38.349 291.928 38.349C290.48 38.349 289.225 38.7023 288.165 39.409C287.141 40.1157 286.346 41.0697 285.78 42.271C285.25 43.437 284.985 44.762 284.985 46.246C284.985 47.73 285.25 49.0903 285.78 50.327C286.346 51.5283 287.141 52.4823 288.165 53.189C289.225 53.8957 290.48 54.249 291.928 54.249Z" fill="white"/>
</svg>
