<svg width="256" height="71" viewBox="0 0 256 71" fill="none" xmlns="http://www.w3.org/2000/svg">
<path d="M72.5985 39V33.384H84.5505C84.9345 33.384 85.2705 33.304 85.5585 33.144C85.8785 32.984 86.1185 32.76 86.2785 32.472C86.4705 32.184 86.5665 31.864 86.5665 31.512C86.5665 31.128 86.4705 30.792 86.2785 30.504C86.1185 30.216 85.8785 29.992 85.5585 29.832C85.2705 29.64 84.9345 29.544 84.5505 29.544H79.9425C78.3745 29.544 76.9505 29.304 75.6705 28.824C74.4225 28.312 73.4145 27.512 72.6465 26.424C71.9105 25.304 71.5425 23.848 71.5425 22.056C71.5425 20.68 71.8785 19.432 72.5505 18.312C73.2545 17.16 74.1825 16.248 75.3345 15.576C76.5185 14.872 77.8145 14.52 79.2225 14.52H90.6945V20.136H79.8465C79.3665 20.136 78.9345 20.296 78.5505 20.616C78.1985 20.936 78.0225 21.352 78.0225 21.864C78.0225 22.376 78.1985 22.808 78.5505 23.16C78.9025 23.48 79.3345 23.64 79.8465 23.64H84.4545C86.2145 23.64 87.7345 23.912 89.0145 24.456C90.2945 24.968 91.2865 25.784 91.9905 26.904C92.6945 28.024 93.0465 29.496 93.0465 31.32C93.0465 32.728 92.6945 34.024 91.9905 35.208C91.2865 36.36 90.3425 37.288 89.1585 37.992C87.9745 38.664 86.6465 39 85.1745 39H72.5985Z" fill="#F4F4F4"/>
<path d="M110.526 39C107.742 39 105.31 38.472 103.23 37.416C101.182 36.328 99.582 34.856 98.43 33C97.31 31.144 96.75 29.064 96.75 26.76C96.75 24.168 97.278 21.912 98.334 19.992C99.39 18.072 100.83 16.584 102.654 15.528C104.478 14.472 106.542 13.944 108.846 13.944C111.598 13.944 113.822 14.52 115.518 15.672C117.246 16.824 118.51 18.376 119.31 20.328C120.11 22.248 120.51 24.392 120.51 26.76C120.51 27.08 120.494 27.464 120.462 27.912C120.43 28.328 120.382 28.648 120.318 28.872H103.758C104.014 29.864 104.446 30.696 105.054 31.368C105.694 32.04 106.478 32.552 107.406 32.904C108.366 33.224 109.438 33.384 110.622 33.384H117.438V39H110.526ZM103.71 24.456H113.934C113.87 23.848 113.758 23.288 113.598 22.776C113.438 22.232 113.214 21.752 112.926 21.336C112.638 20.92 112.302 20.568 111.918 20.28C111.534 19.992 111.086 19.768 110.574 19.608C110.062 19.448 109.502 19.368 108.894 19.368C108.094 19.368 107.374 19.512 106.734 19.8C106.126 20.088 105.614 20.472 105.198 20.952C104.782 21.432 104.446 21.976 104.19 22.584C103.966 23.192 103.806 23.816 103.71 24.456Z" fill="#F4F4F4"/>
<path d="M133.639 39C131.463 39 129.751 38.376 128.503 37.128C127.287 35.88 126.679 34.184 126.679 32.04V8.37601H133.255V31.848C133.255 32.264 133.399 32.632 133.687 32.952C134.007 33.24 134.375 33.384 134.791 33.384H140.119V39H133.639ZM122.503 20.136V14.52H140.119V20.136H122.503Z" fill="#F4F4F4"/>
<path d="M145.255 39V33.384H157.207C157.591 33.384 157.927 33.304 158.215 33.144C158.535 32.984 158.775 32.76 158.935 32.472C159.127 32.184 159.223 31.864 159.223 31.512C159.223 31.128 159.127 30.792 158.935 30.504C158.775 30.216 158.535 29.992 158.215 29.832C157.927 29.64 157.591 29.544 157.207 29.544H152.599C151.031 29.544 149.607 29.304 148.327 28.824C147.079 28.312 146.071 27.512 145.303 26.424C144.567 25.304 144.199 23.848 144.199 22.056C144.199 20.68 144.535 19.432 145.207 18.312C145.911 17.16 146.839 16.248 147.991 15.576C149.175 14.872 150.471 14.52 151.879 14.52H163.351V20.136H152.503C152.023 20.136 151.591 20.296 151.207 20.616C150.855 20.936 150.679 21.352 150.679 21.864C150.679 22.376 150.855 22.808 151.207 23.16C151.559 23.48 151.991 23.64 152.503 23.64H157.111C158.871 23.64 160.391 23.912 161.671 24.456C162.951 24.968 163.943 25.784 164.647 26.904C165.351 28.024 165.703 29.496 165.703 31.32C165.703 32.728 165.351 34.024 164.647 35.208C163.943 36.36 162.999 37.288 161.815 37.992C160.631 38.664 159.303 39 157.831 39H145.255Z" fill="#F4F4F4"/>
<path d="M182.798 39.576C180.302 39.576 178.158 39.08 176.366 38.088C174.574 37.096 173.198 35.768 172.238 34.104C171.31 32.44 170.846 30.6 170.846 28.584V14.52H177.422V28.584C177.422 29.576 177.662 30.488 178.142 31.32C178.622 32.12 179.262 32.76 180.062 33.24C180.894 33.72 181.806 33.96 182.798 33.96C183.79 33.96 184.686 33.72 185.486 33.24C186.318 32.76 186.974 32.12 187.454 31.32C187.934 30.488 188.174 29.576 188.174 28.584V14.52H194.75V28.584C194.75 30.6 194.27 32.44 193.31 34.104C192.382 35.768 191.022 37.096 189.23 38.088C187.47 39.08 185.326 39.576 182.798 39.576Z" fill="#F4F4F4"/>
<path d="M200.987 39V24.936C200.987 22.92 201.451 21.08 202.379 19.416C203.339 17.752 204.715 16.424 206.507 15.432C208.299 14.44 210.443 13.944 212.939 13.944C215.467 13.944 217.611 14.44 219.371 15.432C221.163 16.424 222.523 17.752 223.451 19.416C224.411 21.08 224.891 22.92 224.891 24.936V39H218.315V24.936C218.315 23.944 218.075 23.048 217.595 22.248C217.115 21.416 216.459 20.76 215.627 20.28C214.827 19.8 213.931 19.56 212.939 19.56C211.947 19.56 211.035 19.8 210.203 20.28C209.403 20.76 208.763 21.416 208.283 22.248C207.803 23.048 207.563 23.944 207.563 24.936V39H200.987Z" fill="#F4F4F4"/>
<path d="M240.775 39.576C238.535 39.576 236.583 39 234.919 37.848C233.255 36.696 231.959 35.16 231.031 33.24C230.135 31.288 229.687 29.144 229.687 26.808C229.687 24.408 230.199 22.232 231.223 20.28C232.279 18.328 233.783 16.792 235.735 15.672C237.687 14.52 240.023 13.944 242.743 13.944C245.495 13.944 247.815 14.52 249.703 15.672C251.591 16.824 253.031 18.376 254.023 20.328C255.015 22.28 255.511 24.44 255.511 26.808V39H248.935V34.92H248.839C248.359 35.784 247.751 36.568 247.015 37.272C246.311 37.976 245.447 38.536 244.423 38.952C243.399 39.368 242.183 39.576 240.775 39.576ZM242.647 33.96C243.927 33.96 245.031 33.64 245.959 33C246.887 32.36 247.591 31.496 248.071 30.408C248.583 29.288 248.839 28.056 248.839 26.712C248.839 25.368 248.583 24.168 248.071 23.112C247.591 22.024 246.887 21.16 245.959 20.52C245.031 19.88 243.927 19.56 242.647 19.56C241.335 19.56 240.199 19.88 239.239 20.52C238.311 21.16 237.591 22.024 237.079 23.112C236.599 24.168 236.359 25.368 236.359 26.712C236.359 28.056 236.599 29.288 237.079 30.408C237.591 31.496 238.311 32.36 239.239 33C240.199 33.64 241.335 33.96 242.647 33.96Z" fill="#F4F4F4"/>
<path d="M76.4395 61.036C75.8235 61.036 75.2475 60.924 74.7115 60.7C74.1755 60.468 73.7035 60.148 73.2955 59.74C72.8875 59.332 72.5675 58.86 72.3355 58.324C72.1115 57.788 71.9995 57.212 71.9995 56.596C71.9995 55.98 72.1115 55.404 72.3355 54.868C72.5675 54.332 72.8875 53.86 73.2955 53.452C73.7035 53.044 74.1755 52.728 74.7115 52.504C75.2475 52.272 75.8235 52.156 76.4395 52.156C77.0555 52.156 77.6315 52.272 78.1675 52.504C78.7035 52.728 79.1715 53.044 79.5715 53.452C79.9795 53.86 80.2995 54.332 80.5315 54.868C80.7635 55.404 80.8795 55.98 80.8795 56.596C80.8795 57.212 80.7635 57.788 80.5315 58.324C80.2995 58.86 79.9795 59.332 79.5715 59.74C79.1715 60.148 78.7035 60.468 78.1675 60.7C77.6315 60.924 77.0555 61.036 76.4395 61.036ZM76.4395 60.424C76.9755 60.424 77.4715 60.328 77.9275 60.136C78.3915 59.936 78.7955 59.66 79.1395 59.308C79.4915 58.956 79.7675 58.548 79.9675 58.084C80.1675 57.62 80.2675 57.124 80.2675 56.596C80.2675 56.06 80.1675 55.56 79.9675 55.096C79.7675 54.632 79.4915 54.228 79.1395 53.884C78.7955 53.532 78.3915 53.26 77.9275 53.068C77.4715 52.868 76.9755 52.768 76.4395 52.768C75.9115 52.768 75.4115 52.868 74.9395 53.068C74.4755 53.26 74.0675 53.532 73.7155 53.884C73.3715 54.228 73.0995 54.632 72.8995 55.096C72.7075 55.56 72.6115 56.056 72.6115 56.584C72.6115 57.12 72.7075 57.62 72.8995 58.084C73.0995 58.548 73.3755 58.956 73.7275 59.308C74.0795 59.66 74.4875 59.936 74.9515 60.136C75.4155 60.328 75.9115 60.424 76.4395 60.424ZM76.7635 58.888C76.2915 58.88 75.8795 58.776 75.5275 58.576C75.1755 58.376 74.9035 58.104 74.7115 57.76C74.5195 57.416 74.4235 57.032 74.4235 56.608C74.4235 56.192 74.5195 55.816 74.7115 55.48C74.9035 55.136 75.1755 54.864 75.5275 54.664C75.8795 54.456 76.2915 54.352 76.7635 54.352H77.4355V55.096H76.7395C76.4595 55.096 76.2035 55.164 75.9715 55.3C75.7395 55.428 75.5515 55.608 75.4075 55.84C75.2715 56.064 75.2035 56.324 75.2035 56.62C75.2035 56.908 75.2715 57.168 75.4075 57.4C75.5515 57.624 75.7395 57.804 75.9715 57.94C76.2035 58.068 76.4595 58.132 76.7395 58.132H77.4355V58.888H76.7635Z" fill="#F4F4F4"/>
<path d="M85.3291 60.76C84.6971 60.76 84.1331 60.624 83.6371 60.352C83.1411 60.08 82.7491 59.716 82.4611 59.26C82.1731 58.796 82.0291 58.276 82.0291 57.7C82.0291 57.124 82.1731 56.608 82.4611 56.152C82.7491 55.688 83.1411 55.32 83.6371 55.048C84.1331 54.776 84.6971 54.64 85.3291 54.64H86.0491V55.588H85.2931C84.8851 55.588 84.5171 55.684 84.1891 55.876C83.8691 56.06 83.6131 56.312 83.4211 56.632C83.2371 56.952 83.1451 57.308 83.1451 57.7C83.1451 58.092 83.2371 58.448 83.4211 58.768C83.6131 59.088 83.8691 59.344 84.1891 59.536C84.5171 59.72 84.8851 59.812 85.2931 59.812H86.0491V60.76H85.3291Z" fill="#F4F4F4"/>
<path d="M90.1904 60.904C89.5664 60.904 89.0144 60.764 88.5344 60.484C88.0544 60.196 87.6744 59.812 87.3944 59.332C87.1144 58.844 86.9744 58.3 86.9744 57.7C86.9744 57.1 87.1144 56.56 87.3944 56.08C87.6744 55.592 88.0544 55.208 88.5344 54.928C89.0144 54.64 89.5664 54.496 90.1904 54.496C90.8144 54.496 91.3664 54.64 91.8464 54.928C92.3344 55.208 92.7144 55.588 92.9864 56.068C93.2664 56.548 93.4064 57.092 93.4064 57.7C93.4064 58.3 93.2664 58.844 92.9864 59.332C92.7144 59.812 92.3344 60.196 91.8464 60.484C91.3664 60.764 90.8144 60.904 90.1904 60.904ZM90.1904 59.956C90.6144 59.956 90.9824 59.856 91.2944 59.656C91.6064 59.456 91.8504 59.188 92.0264 58.852C92.2024 58.508 92.2904 58.124 92.2904 57.7C92.2904 57.276 92.2024 56.896 92.0264 56.56C91.8504 56.216 91.6064 55.944 91.2944 55.744C90.9824 55.544 90.6144 55.444 90.1904 55.444C89.7744 55.444 89.4064 55.544 89.0864 55.744C88.7744 55.944 88.5304 56.216 88.3544 56.56C88.1784 56.896 88.0904 57.276 88.0904 57.7C88.0904 58.124 88.1784 58.508 88.3544 58.852C88.5304 59.188 88.7744 59.456 89.0864 59.656C89.4064 59.856 89.7744 59.956 90.1904 59.956Z" fill="#F4F4F4"/>
<path d="M97.9181 54.496C98.3821 54.496 98.8061 54.572 99.1901 54.724C99.5741 54.868 99.9061 55.084 100.186 55.372C100.466 55.66 100.682 56.008 100.834 56.416C100.994 56.816 101.074 57.268 101.074 57.772C101.074 58.404 100.942 58.956 100.678 59.428C100.422 59.9 100.07 60.264 99.6221 60.52C99.1741 60.776 98.6661 60.904 98.0981 60.904C97.7861 60.904 97.4861 60.852 97.1981 60.748C96.9181 60.644 96.6661 60.5 96.4421 60.316C96.2261 60.124 96.0501 59.908 95.9141 59.668H95.8901V63.4H94.7861V57.736C94.7861 57.048 94.9221 56.464 95.1941 55.984C95.4741 55.504 95.8501 55.136 96.3221 54.88C96.7941 54.624 97.3261 54.496 97.9181 54.496ZM97.9181 55.444C97.5501 55.444 97.2101 55.536 96.8981 55.72C96.5941 55.904 96.3501 56.164 96.1661 56.5C95.9901 56.836 95.9021 57.232 95.9021 57.688C95.9021 58.152 95.9901 58.556 96.1661 58.9C96.3501 59.236 96.5941 59.496 96.8981 59.68C97.2101 59.864 97.5541 59.956 97.9301 59.956C98.3141 59.956 98.6581 59.86 98.9621 59.668C99.2661 59.476 99.5061 59.212 99.6821 58.876C99.8661 58.54 99.9581 58.148 99.9581 57.7C99.9581 57.236 99.8661 56.836 99.6821 56.5C99.4981 56.164 99.2501 55.904 98.9381 55.72C98.6341 55.536 98.2941 55.444 97.9181 55.444Z" fill="#F4F4F4"/>
<path d="M104.802 63.196V60.856C104.354 60.792 103.954 60.644 103.602 60.412C103.258 60.172 102.986 59.864 102.786 59.488C102.586 59.104 102.486 58.668 102.486 58.18V54.64H103.602V58.168C103.602 58.536 103.682 58.856 103.842 59.128C104.002 59.392 104.214 59.596 104.478 59.74C104.75 59.884 105.038 59.956 105.342 59.956C105.654 59.956 105.942 59.884 106.206 59.74C106.478 59.596 106.694 59.392 106.854 59.128C107.022 58.856 107.106 58.536 107.106 58.168V54.64H108.21V58.18C108.21 58.668 108.11 59.1 107.91 59.476C107.718 59.852 107.446 60.16 107.094 60.4C106.75 60.632 106.354 60.784 105.906 60.856V63.196H104.802Z" fill="#F4F4F4"/>
<path d="M109.963 60.76V52H111.067V60.76H109.963Z" fill="#F4F4F4"/>
<path d="M112.822 60.76V54.64H113.938V60.76H112.822ZM113.386 53.668C113.186 53.668 113.01 53.596 112.858 53.452C112.714 53.3 112.642 53.124 112.642 52.924C112.642 52.724 112.714 52.552 112.858 52.408C113.01 52.256 113.186 52.18 113.386 52.18C113.586 52.18 113.758 52.256 113.902 52.408C114.054 52.552 114.13 52.724 114.13 52.924C114.13 53.124 114.054 53.3 113.902 53.452C113.758 53.596 113.586 53.668 113.386 53.668Z" fill="#F4F4F4"/>
<path d="M116.605 63.196V62.248H119.605C119.901 62.248 120.129 62.16 120.289 61.984C120.457 61.808 120.541 61.576 120.541 61.288V59.608H120.517C120.365 59.84 120.181 60.048 119.965 60.232C119.749 60.416 119.501 60.564 119.221 60.676C118.941 60.78 118.625 60.832 118.273 60.832C117.697 60.832 117.189 60.7 116.749 60.436C116.309 60.164 115.965 59.792 115.717 59.32C115.469 58.84 115.345 58.292 115.345 57.676C115.345 57.076 115.469 56.536 115.717 56.056C115.965 55.576 116.321 55.196 116.785 54.916C117.257 54.636 117.825 54.496 118.489 54.496C119.129 54.496 119.685 54.632 120.157 54.904C120.629 55.176 120.993 55.556 121.249 56.044C121.513 56.524 121.645 57.088 121.645 57.736V61.36C121.645 61.92 121.481 62.364 121.153 62.692C120.825 63.028 120.377 63.196 119.809 63.196H116.605ZM118.477 59.884C118.885 59.884 119.241 59.788 119.545 59.596C119.857 59.404 120.097 59.144 120.265 58.816C120.441 58.48 120.529 58.104 120.529 57.688C120.529 57.264 120.445 56.884 120.277 56.548C120.109 56.212 119.873 55.948 119.569 55.756C119.265 55.556 118.901 55.456 118.477 55.456C118.061 55.456 117.701 55.556 117.397 55.756C117.101 55.948 116.869 56.216 116.701 56.56C116.541 56.896 116.461 57.276 116.461 57.7C116.461 58.1 116.541 58.468 116.701 58.804C116.869 59.132 117.101 59.396 117.397 59.596C117.701 59.788 118.061 59.884 118.477 59.884Z" fill="#F4F4F4"/>
<path d="M123.357 60.76V52H124.461V55.432C124.709 55.112 125.009 54.876 125.361 54.724C125.721 54.572 126.093 54.496 126.477 54.496C127.021 54.496 127.493 54.612 127.893 54.844C128.293 55.068 128.605 55.384 128.829 55.792C129.053 56.2 129.165 56.676 129.165 57.22V60.76H128.061V57.232C128.061 56.864 127.977 56.548 127.809 56.284C127.641 56.012 127.417 55.804 127.137 55.66C126.865 55.516 126.573 55.444 126.261 55.444C125.949 55.444 125.657 55.516 125.385 55.66C125.113 55.796 124.889 55.996 124.713 56.26C124.545 56.524 124.461 56.84 124.461 57.208V60.76H123.357Z" fill="#F4F4F4"/>
<path d="M133.004 60.76C132.46 60.76 132.032 60.604 131.72 60.292C131.416 59.98 131.264 59.556 131.264 59.02V53.104H132.368V58.948C132.368 59.212 132.44 59.424 132.584 59.584C132.736 59.736 132.944 59.812 133.208 59.812H134.444V60.76H133.004ZM130.208 55.588V54.64H134.468V55.588H130.208Z" fill="#F4F4F4"/>
<path d="M136.847 60.76C136.551 60.76 136.295 60.7 136.079 60.58C135.863 60.452 135.699 60.288 135.587 60.088C135.475 59.888 135.419 59.664 135.419 59.416C135.419 59.176 135.479 58.944 135.599 58.72C135.719 58.488 135.887 58.296 136.103 58.144L138.839 56.188C139.103 55.996 139.303 55.776 139.439 55.528C139.575 55.28 139.643 55.028 139.643 54.772C139.643 54.5 139.579 54.264 139.451 54.064C139.323 53.856 139.135 53.692 138.887 53.572C138.647 53.444 138.351 53.38 137.999 53.38H135.827V52.36H138.119C138.687 52.36 139.167 52.472 139.559 52.696C139.959 52.912 140.263 53.204 140.471 53.572C140.687 53.932 140.795 54.332 140.795 54.772C140.795 55.212 140.691 55.624 140.483 56.008C140.283 56.384 139.967 56.72 139.535 57.016L136.811 58.912C136.731 58.96 136.667 59.024 136.619 59.104C136.579 59.176 136.559 59.252 136.559 59.332C136.559 59.452 136.599 59.552 136.679 59.632C136.767 59.704 136.887 59.74 137.039 59.74H140.999V60.76H136.847Z" fill="#F4F4F4"/>
<path d="M145.448 60.916C144.864 60.916 144.34 60.788 143.876 60.532C143.42 60.276 143.056 59.928 142.784 59.488C142.52 59.048 142.388 58.556 142.388 58.012V55.108C142.388 54.564 142.52 54.072 142.784 53.632C143.056 53.192 143.42 52.848 143.876 52.6C144.34 52.344 144.864 52.216 145.448 52.216C146.024 52.216 146.54 52.344 146.996 52.6C147.452 52.856 147.812 53.204 148.076 53.644C148.348 54.076 148.484 54.564 148.484 55.108V58.012C148.484 58.556 148.348 59.048 148.076 59.488C147.812 59.928 147.452 60.276 146.996 60.532C146.54 60.788 146.024 60.916 145.448 60.916ZM145.448 59.896C145.792 59.896 146.104 59.816 146.384 59.656C146.672 59.496 146.9 59.284 147.068 59.02C147.244 58.748 147.332 58.448 147.332 58.12V55C147.332 54.672 147.244 54.376 147.068 54.112C146.9 53.84 146.672 53.624 146.384 53.464C146.104 53.304 145.792 53.224 145.448 53.224C145.104 53.224 144.784 53.304 144.488 53.464C144.2 53.624 143.968 53.84 143.792 54.112C143.624 54.376 143.54 54.672 143.54 55V58.12C143.54 58.448 143.624 58.748 143.792 59.02C143.968 59.284 144.2 59.496 144.488 59.656C144.776 59.816 145.096 59.896 145.448 59.896Z" fill="#F4F4F4"/>
<path d="M151.249 60.76C150.953 60.76 150.697 60.7 150.481 60.58C150.265 60.452 150.101 60.288 149.989 60.088C149.877 59.888 149.821 59.664 149.821 59.416C149.821 59.176 149.881 58.944 150.001 58.72C150.121 58.488 150.289 58.296 150.505 58.144L153.241 56.188C153.505 55.996 153.705 55.776 153.841 55.528C153.977 55.28 154.045 55.028 154.045 54.772C154.045 54.5 153.981 54.264 153.853 54.064C153.725 53.856 153.537 53.692 153.289 53.572C153.049 53.444 152.753 53.38 152.401 53.38H150.229V52.36H152.521C153.089 52.36 153.569 52.472 153.961 52.696C154.361 52.912 154.665 53.204 154.873 53.572C155.089 53.932 155.197 54.332 155.197 54.772C155.197 55.212 155.093 55.624 154.885 56.008C154.685 56.384 154.369 56.72 153.937 57.016L151.213 58.912C151.133 58.96 151.069 59.024 151.021 59.104C150.981 59.176 150.961 59.252 150.961 59.332C150.961 59.452 151.001 59.552 151.081 59.632C151.169 59.704 151.289 59.74 151.441 59.74H155.401V60.76H151.249Z" fill="#F4F4F4"/>
<path d="M157.87 60.76C157.574 60.76 157.318 60.7 157.102 60.58C156.886 60.452 156.722 60.288 156.61 60.088C156.498 59.888 156.442 59.664 156.442 59.416C156.442 59.176 156.502 58.944 156.622 58.72C156.742 58.488 156.91 58.296 157.126 58.144L159.862 56.188C160.126 55.996 160.326 55.776 160.462 55.528C160.598 55.28 160.666 55.028 160.666 54.772C160.666 54.5 160.602 54.264 160.474 54.064C160.346 53.856 160.158 53.692 159.91 53.572C159.67 53.444 159.374 53.38 159.022 53.38H156.85V52.36H159.142C159.71 52.36 160.19 52.472 160.582 52.696C160.982 52.912 161.286 53.204 161.494 53.572C161.71 53.932 161.818 54.332 161.818 54.772C161.818 55.212 161.714 55.624 161.506 56.008C161.306 56.384 160.99 56.72 160.558 57.016L157.834 58.912C157.754 58.96 157.69 59.024 157.642 59.104C157.602 59.176 157.582 59.252 157.582 59.332C157.582 59.452 157.622 59.552 157.702 59.632C157.79 59.704 157.91 59.74 158.062 59.74H162.022V60.76H157.87Z" fill="#F4F4F4"/>
<path d="M166.539 60.76V59.812H169.467C169.659 59.812 169.823 59.772 169.959 59.692C170.103 59.604 170.211 59.492 170.283 59.356C170.355 59.22 170.391 59.076 170.391 58.924C170.391 58.78 170.359 58.648 170.295 58.528C170.231 58.4 170.131 58.3 169.995 58.228C169.867 58.148 169.711 58.108 169.527 58.108H168.291C167.899 58.108 167.555 58.044 167.259 57.916C166.971 57.78 166.743 57.584 166.575 57.328C166.415 57.072 166.335 56.76 166.335 56.392C166.335 56.08 166.411 55.792 166.563 55.528C166.715 55.264 166.927 55.052 167.199 54.892C167.471 54.724 167.783 54.64 168.135 54.64H170.955V55.588H168.243C167.995 55.588 167.799 55.664 167.655 55.816C167.511 55.968 167.439 56.148 167.439 56.356C167.439 56.556 167.511 56.732 167.655 56.884C167.807 57.028 168.019 57.1 168.291 57.1H169.467C169.907 57.1 170.275 57.172 170.571 57.316C170.875 57.452 171.103 57.652 171.255 57.916C171.415 58.18 171.495 58.504 171.495 58.888C171.495 59.216 171.415 59.524 171.255 59.812C171.095 60.092 170.871 60.32 170.583 60.496C170.303 60.672 169.975 60.76 169.599 60.76H166.539Z" fill="#F4F4F4"/>
<path d="M176.059 60.76C175.387 60.76 174.791 60.636 174.271 60.388C173.751 60.132 173.343 59.776 173.047 59.32C172.759 58.856 172.615 58.316 172.615 57.7C172.615 57.092 172.739 56.548 172.987 56.068C173.235 55.58 173.579 55.196 174.019 54.916C174.459 54.636 174.971 54.496 175.555 54.496C176.187 54.496 176.711 54.632 177.127 54.904C177.551 55.176 177.867 55.544 178.075 56.008C178.283 56.464 178.387 56.976 178.387 57.544C178.387 57.632 178.383 57.724 178.375 57.82C178.375 57.916 178.367 58 178.351 58.072H173.791C173.831 58.448 173.955 58.768 174.163 59.032C174.371 59.288 174.635 59.484 174.955 59.62C175.283 59.748 175.643 59.812 176.035 59.812H177.631V60.76H176.059ZM173.779 57.292H177.271C177.271 57.14 177.255 56.98 177.223 56.812C177.191 56.636 177.135 56.468 177.055 56.308C176.975 56.14 176.867 55.992 176.731 55.864C176.603 55.728 176.439 55.62 176.239 55.54C176.047 55.46 175.819 55.42 175.555 55.42C175.275 55.42 175.027 55.476 174.811 55.588C174.603 55.692 174.423 55.836 174.271 56.02C174.119 56.196 174.003 56.396 173.923 56.62C173.843 56.844 173.795 57.068 173.779 57.292Z" fill="#F4F4F4"/>
<path d="M181.883 60.76C181.339 60.76 180.911 60.604 180.599 60.292C180.295 59.98 180.143 59.556 180.143 59.02V53.104H181.247V58.948C181.247 59.212 181.319 59.424 181.463 59.584C181.615 59.736 181.823 59.812 182.087 59.812H183.323V60.76H181.883ZM179.087 55.588V54.64H183.347V55.588H179.087Z" fill="#F4F4F4"/>
<path d="M184.597 60.76V59.812H187.525C187.717 59.812 187.881 59.772 188.017 59.692C188.161 59.604 188.269 59.492 188.341 59.356C188.413 59.22 188.449 59.076 188.449 58.924C188.449 58.78 188.417 58.648 188.353 58.528C188.289 58.4 188.189 58.3 188.053 58.228C187.925 58.148 187.769 58.108 187.585 58.108H186.349C185.957 58.108 185.613 58.044 185.317 57.916C185.029 57.78 184.801 57.584 184.633 57.328C184.473 57.072 184.393 56.76 184.393 56.392C184.393 56.08 184.469 55.792 184.621 55.528C184.773 55.264 184.985 55.052 185.257 54.892C185.529 54.724 185.841 54.64 186.193 54.64H189.013V55.588H186.301C186.053 55.588 185.857 55.664 185.713 55.816C185.569 55.968 185.497 56.148 185.497 56.356C185.497 56.556 185.569 56.732 185.713 56.884C185.865 57.028 186.077 57.1 186.349 57.1H187.525C187.965 57.1 188.333 57.172 188.629 57.316C188.933 57.452 189.161 57.652 189.313 57.916C189.473 58.18 189.553 58.504 189.553 58.888C189.553 59.216 189.473 59.524 189.313 59.812C189.153 60.092 188.929 60.32 188.641 60.496C188.361 60.672 188.033 60.76 187.657 60.76H184.597Z" fill="#F4F4F4"/>
<path d="M193.878 60.904C193.326 60.904 192.83 60.792 192.39 60.568C191.958 60.336 191.618 60.016 191.37 59.608C191.13 59.2 191.01 58.724 191.01 58.18V54.64H192.126V58.168C192.126 58.536 192.206 58.856 192.366 59.128C192.526 59.392 192.738 59.596 193.002 59.74C193.274 59.884 193.562 59.956 193.866 59.956C194.178 59.956 194.466 59.884 194.73 59.74C195.002 59.596 195.218 59.392 195.378 59.128C195.546 58.856 195.63 58.536 195.63 58.168V54.64H196.746V58.18C196.746 58.724 196.622 59.2 196.374 59.608C196.126 60.016 195.786 60.336 195.354 60.568C194.922 60.792 194.43 60.904 193.878 60.904Z" fill="#F4F4F4"/>
<path d="M198.498 60.76V57.22C198.498 56.676 198.618 56.2 198.858 55.792C199.106 55.384 199.446 55.068 199.878 54.844C200.31 54.612 200.802 54.496 201.354 54.496C201.914 54.496 202.406 54.612 202.83 54.844C203.262 55.068 203.598 55.384 203.838 55.792C204.086 56.2 204.21 56.676 204.21 57.22V60.76H203.106V57.232C203.106 56.864 203.022 56.548 202.854 56.284C202.694 56.012 202.478 55.804 202.206 55.66C201.942 55.516 201.658 55.444 201.354 55.444C201.05 55.444 200.762 55.516 200.49 55.66C200.226 55.804 200.01 56.012 199.842 56.284C199.682 56.548 199.602 56.864 199.602 57.232V60.76H198.498Z" fill="#F4F4F4"/>
<path d="M208.507 60.904C207.915 60.904 207.403 60.764 206.971 60.484C206.539 60.196 206.207 59.808 205.975 59.32C205.743 58.832 205.627 58.292 205.627 57.7C205.627 57.1 205.755 56.56 206.011 56.08C206.267 55.592 206.635 55.208 207.115 54.928C207.595 54.64 208.171 54.496 208.843 54.496C209.491 54.496 210.047 54.636 210.511 54.916C210.975 55.196 211.331 55.576 211.579 56.056C211.835 56.536 211.963 57.072 211.963 57.664V60.76H210.847V59.512H210.823C210.703 59.744 210.539 59.968 210.331 60.184C210.131 60.392 209.879 60.564 209.575 60.7C209.271 60.836 208.915 60.904 208.507 60.904ZM208.795 59.956C209.195 59.956 209.547 59.86 209.851 59.668C210.163 59.468 210.403 59.196 210.571 58.852C210.747 58.5 210.835 58.108 210.835 57.676C210.835 57.252 210.751 56.872 210.583 56.536C210.423 56.2 210.191 55.936 209.887 55.744C209.583 55.544 209.227 55.444 208.819 55.444C208.387 55.444 208.015 55.544 207.703 55.744C207.399 55.944 207.163 56.216 206.995 56.56C206.835 56.896 206.755 57.28 206.755 57.712C206.755 58.128 206.835 58.508 206.995 58.852C207.155 59.188 207.387 59.456 207.691 59.656C207.995 59.856 208.363 59.956 208.795 59.956Z" fill="#F4F4F4"/>
<path fill-rule="evenodd" clip-rule="evenodd" d="M61.9143 0.177133L0.202125 -1.91405e-05L-0.00109726 70.794L61.7111 70.9711L61.9143 0.177133ZM14.3815 48.9417C12.3943 47.0769 10.7273 44.8936 9.45111 42.4785L31.2798 30.9606L52.825 19.5924C52.3417 20.1031 51.8807 21.1415 51.5099 21.9767C51.2261 22.6159 50.9952 23.136 50.8477 23.2091C50.8104 23.2277 50.7737 23.1552 50.7181 23.0454C50.5656 22.7441 50.2709 22.162 49.4306 22.411C49.167 22.4891 48.4863 23.2853 47.8147 24.071L47.8146 24.0711L47.8146 24.0711L47.8145 24.0712C47.1627 24.8336 46.5194 25.5861 46.274 25.6627C45.9597 25.5675 45.8541 25.3929 45.7444 25.2115C45.6389 25.0371 45.5298 24.8565 45.2275 24.7347C44.9217 24.6115 44.4687 25.0217 44.1354 25.3235C43.7969 25.6301 43.5819 25.8248 43.7701 25.2349C44.0679 24.3019 42.062 26.2077 40.8409 27.3678C40.5298 27.6633 40.2697 27.9105 40.1115 28.05C39.9307 28.2095 39.6296 31.8104 40.6497 34.0333C41.6699 36.2563 39.2675 42.6012 38.7958 38.2214C38.4172 34.7057 37.2523 35.5189 36.552 36.0078C36.3799 36.128 36.2358 36.2286 36.1384 36.2405C35.8085 36.2783 35.7629 37.1285 35.7061 38.1858C35.5824 40.492 35.4058 43.7833 32.1112 41.779C28.5968 39.6409 28.0362 43.4608 27.7479 45.4255C27.642 46.147 27.5729 46.6183 27.4076 46.4522C27.2161 46.2598 27.0033 45.1666 26.7394 43.8112C26.1554 40.8111 25.3213 36.5262 23.9146 37.8815C23.5772 38.2066 23.2968 40.0763 23.0407 41.7831C22.8428 43.1027 22.6595 44.325 22.4757 44.6608C22.4089 44.783 22.4189 44.5906 22.4371 44.2403C22.4812 43.394 22.5732 41.6258 21.7453 41.1437C20.9277 40.6675 19.9529 42.4476 19.2497 43.7318C18.9462 44.286 18.6933 44.7479 18.5254 44.8961C18.315 45.082 18.2206 44.7662 18.1044 44.3777C17.9132 43.7381 17.6629 42.9012 16.739 43.781C16.739 43.781 16.0417 44.7546 16.0546 45.6907C16.0656 46.4788 15.2993 48.853 14.3815 48.9417ZM14.3815 48.9417C14.7513 49.2888 15.1321 49.6248 15.5237 49.9491C18.0191 52.0168 20.8976 53.573 23.9949 54.529C27.0922 55.485 30.3476 55.822 33.5753 55.5208C36.8029 55.2196 39.9395 54.286 42.8061 52.7735C45.6727 51.2609 48.2131 49.199 50.2822 46.7054C52.3513 44.2118 53.9087 41.3353 54.8654 38.2403C55.822 35.1453 56.1593 31.8922 55.8578 28.667C55.5564 25.4417 54.6221 22.3073 53.1085 19.4428L52.825 19.5924C52.9017 19.5114 52.9789 19.4436 53.0564 19.3921L31.2277 30.9099L9.39904 42.4278C10.1533 43.8551 11.4175 47.9165 11.666 51.4749C11.7771 53.066 11.7003 54.6301 11.6402 55.856C11.5649 57.3905 11.5156 58.395 11.8933 58.259C12.1312 58.2122 12.2511 56.438 12.3895 54.3905C12.5995 51.2821 12.8521 47.5437 13.6248 48.2627C13.6624 48.3384 13.7073 48.368 13.7462 48.3937C13.7708 48.4099 13.793 48.4246 13.8094 48.4483C13.8727 48.5396 13.9314 48.588 13.9826 48.6301C14.009 48.6519 14.0334 48.6721 14.0555 48.6956C14.1686 48.8235 14.3383 48.9448 14.3634 48.9432C14.3694 48.9428 14.3754 48.9423 14.3815 48.9417ZM8.39314 37.269C7.08313 34.306 6.36999 31.1141 6.29443 27.8757C6.21887 24.6373 6.78237 21.4157 7.95276 18.3949C9.12315 15.374 10.8775 12.6132 13.1157 10.2699C15.3538 7.92656 18.0319 6.04672 20.9971 4.73768C23.9623 3.42864 27.1565 2.71603 30.3973 2.64054C33.6381 2.56504 36.862 3.12815 39.8851 4.2977C42.9081 5.46725 45.671 7.22034 48.016 9.45688C50.361 11.6934 52.2422 14.3696 53.5522 17.3326L53.5496 17.3338C53.3523 17.413 42.9539 21.5901 41.3625 22.3185C40.3548 22.7798 38.5485 22.3654 37.3871 22.099C36.6968 21.9406 36.2344 21.8345 36.303 21.9956C36.3606 22.1311 36.5577 22.2245 36.7897 22.3345C37.2981 22.5755 37.974 22.8959 37.7168 23.9114C37.4329 25.0325 33.9998 23.8413 32.3815 23.2798C31.8649 23.1006 31.5333 22.9855 31.5481 23.0303C31.5636 23.0774 31.8985 23.2483 32.3488 23.4781C33.6722 24.1535 35.9927 25.3378 34.1333 25.3811C32.0144 26.0802 31.0579 26.618 29.9859 27.2208C29.2765 27.6197 28.5165 28.0471 27.3357 28.5684C26.0041 29.1562 24.4442 29.1004 23.266 29.0582C22.6249 29.0352 22.0968 29.0163 21.7801 29.1074C21.6401 29.1477 21.7448 29.2007 21.9092 29.2839C22.2114 29.4369 22.7151 29.692 22.2707 30.1572C20.8487 31.646 19.7618 31.9855 18.7458 32.3029C18.1628 32.485 17.6031 32.6599 17.0169 33.0405C15.4094 34.0842 12.7533 34.9399 12.5064 34.9392C12.3892 34.9389 12.3135 35.0359 12.2134 35.1642C12.1026 35.3062 11.9619 35.4864 11.7022 35.6153C11.579 35.6764 11.4174 35.7451 11.2179 35.8298L11.2176 35.83L11.2174 35.8301C10.6165 36.0854 9.67159 36.487 8.39406 37.2686L8.39314 37.269ZM8.39406 37.2686L8.3934 37.269L30.9729 27.3008L53.5525 17.3326L53.5496 17.3338L30.9727 27.3008L8.39406 37.2686ZM57.5883 15.9101L6.3766 41.7999L6.54384 42.1302L57.7555 16.2404L57.5883 15.9101ZM11.5353 29.3914C11.154 29.3541 10.8504 29.2319 10.6225 29.0974C10.3233 28.9208 9.88468 28.9209 9.66762 29.1922C9.34686 29.5931 9.73478 30.1802 10.2329 30.0557C10.7271 29.9322 11.225 29.8197 11.5452 29.778C11.6318 29.7667 11.7035 29.7015 11.7169 29.6152C11.7344 29.5033 11.6481 29.4024 11.5353 29.3914ZM17.7015 26.6123C17.7192 26.751 17.5663 26.8469 17.4494 26.77C16.7983 26.3419 15.229 25.3092 14.2905 24.6855C13.4229 24.1089 12.2924 23.2615 11.7257 22.831C11.5465 22.6949 11.5496 22.4256 11.7309 22.2923C11.8697 22.1903 12.0636 22.2075 12.1862 22.3285C12.54 22.678 13.3421 23.4308 14.6249 24.4222C16.1746 25.6199 17.3323 26.3205 17.6211 26.4904C17.6656 26.5165 17.6949 26.5611 17.7015 26.6123ZM18.6287 28.5658C18.6964 28.5774 18.7463 28.5041 18.711 28.4451C18.698 28.4234 18.676 28.4092 18.6508 28.4062C18.4874 28.3866 17.8283 28.2993 16.8947 28.0654C16.1899 27.8889 15.7567 27.6999 15.5404 27.5897C15.4333 27.5351 15.3044 27.5281 15.1973 27.5827C14.8719 27.7488 15.0213 28.2672 15.386 28.2463C15.9592 28.2134 16.5182 28.2008 16.7962 28.2497C17.3415 28.3456 18.2513 28.5013 18.6287 28.5658ZM17.9131 45.2838C18.0745 45.9711 17.4845 48.0991 16.9469 49.8029C16.7556 50.4093 17.5128 50.9049 17.9827 50.4764C18.1088 50.3614 18.1809 50.1994 18.1808 50.0288C18.1808 49.2348 18.1739 46.8392 18.0963 45.1301C18.0771 44.7066 17.8975 44.7215 17.894 45.1455C17.8937 45.193 17.9022 45.2375 17.9131 45.2838ZM22.1506 65.5227L22.1473 66.6635L24.7018 66.6708C25.0008 66.6717 25.2707 66.6042 25.5116 66.4684C25.7525 66.3261 25.9448 66.1381 26.0885 65.9045C26.2322 65.6644 26.3044 65.4014 26.3053 65.1154C26.3063 64.7449 26.2357 64.4457 26.0933 64.2178C25.951 63.9899 25.75 63.8236 25.4903 63.7188C25.2306 63.6076 24.922 63.5514 24.5645 63.5504L23.6285 63.5477C23.5245 63.5474 23.4369 63.5147 23.3655 63.4495C23.2942 63.3778 23.2587 63.2899 23.259 63.1859C23.2593 63.0819 23.2953 62.9975 23.367 62.9327C23.4452 62.8679 23.5331 62.8357 23.6306 62.836L25.834 62.8423L25.8373 61.7016L23.5071 61.6949C23.2211 61.694 22.9576 61.7648 22.7167 61.9071C22.4823 62.0429 22.2933 62.2276 22.1496 62.4612C22.0125 62.6883 21.9435 62.9416 21.9427 63.2211C21.9417 63.5851 22.0156 63.8811 22.1644 64.109C22.3198 64.3305 22.524 64.4935 22.7772 64.5983C23.037 64.6965 23.3261 64.7461 23.6446 64.747L24.5806 64.7497C24.6586 64.7499 24.7268 64.7696 24.7851 64.8088C24.85 64.8415 24.8987 64.8871 24.931 64.9457C24.9698 65.0043 24.9891 65.0726 24.9889 65.1506C24.9887 65.2221 24.969 65.2871 24.9299 65.3455C24.8972 65.4039 24.8483 65.4492 24.7832 65.4815C24.7246 65.5139 24.6563 65.5299 24.5783 65.5297L22.1506 65.5227ZM28.3702 66.3596C28.7921 66.5753 29.2858 66.684 29.8513 66.6856L31.2553 66.6896L31.2586 65.5489L29.8741 65.5449C29.6336 65.5442 29.4159 65.5111 29.2211 65.4455C29.0328 65.3735 28.8739 65.269 28.7442 65.1322C28.6211 64.9953 28.5339 64.8261 28.4825 64.6244L31.8462 64.6341C31.8593 64.5886 31.8692 64.5236 31.876 64.4391C31.8828 64.3482 31.8862 64.2702 31.8864 64.2052C31.8878 63.7242 31.8078 63.2884 31.6464 62.898C31.4851 62.501 31.2292 62.185 30.8789 61.95C30.5351 61.715 30.0836 61.5967 29.5247 61.5951C29.0567 61.5938 28.6371 61.6998 28.266 61.9133C27.8949 62.1267 27.6015 62.4281 27.3859 62.8175C27.1703 63.2069 27.0617 63.6648 27.0602 64.1913C27.0588 64.6593 27.1714 65.0821 27.3978 65.4598C27.6307 65.8375 27.9549 66.1374 28.3702 66.3596ZM30.552 63.7333L28.4753 63.7274C28.4952 63.5974 28.528 63.4708 28.5739 63.3474C28.6262 63.2241 28.6948 63.1138 28.7796 63.0165C28.8643 62.9192 28.9686 62.8415 29.0922 62.7834C29.2224 62.7253 29.3687 62.6964 29.5312 62.6969C29.6547 62.6973 29.7684 62.7138 29.8723 62.7466C29.9763 62.7794 30.0671 62.8252 30.145 62.8839C30.2228 62.9426 30.2908 63.0143 30.3491 63.099C30.4073 63.1837 30.4526 63.2813 30.4847 63.3919C30.5169 63.496 30.5394 63.6098 30.552 63.7333ZM33.504 66.3158C33.7567 66.57 34.1041 66.6978 34.5461 66.6991L35.8624 66.7028L35.8656 65.5621L34.7834 65.559C34.6989 65.5587 34.6242 65.5293 34.5594 65.4706C34.5011 65.4054 34.472 65.3306 34.4723 65.2461L34.4791 62.8671L35.8734 62.8711L35.8766 61.7304L34.4824 61.7264L34.486 60.4784L33.1502 60.4745L33.1466 61.7225L32.2984 61.7201L32.2951 62.8608L33.1434 62.8633L33.1364 65.2813C33.1352 65.7168 33.2577 66.0616 33.504 66.3158ZM36.9088 65.5651L36.9055 66.7058L39.46 66.7132C39.759 66.714 40.0289 66.6465 40.2698 66.5107C40.5107 66.3684 40.703 66.1805 40.8467 65.9469C40.9904 65.7068 41.0627 65.4438 41.0635 65.1578C41.0645 64.7873 40.9939 64.4881 40.8515 64.2602C40.7092 64.0322 40.5082 63.8659 40.2485 63.7612C39.9888 63.6499 39.6802 63.5938 39.3227 63.5928L38.3867 63.5901C38.2827 63.5898 38.1951 63.557 38.1238 63.4918C38.0525 63.4201 38.017 63.3323 38.0173 63.2283C38.0176 63.1243 38.0535 63.0399 38.1252 62.9751C38.2034 62.9103 38.2913 62.8781 38.3888 62.8783L40.5922 62.8847L40.5955 61.7439L38.2653 61.7372C37.9793 61.7364 37.7158 61.8071 37.4749 61.9495C37.2405 62.0853 37.0515 62.27 36.9078 62.5036C36.7707 62.7307 36.7017 62.984 36.7009 63.2635C36.6999 63.6275 36.7738 63.9234 36.9226 64.1514C37.078 64.3728 37.2822 64.5359 37.5355 64.6406C37.7952 64.7389 38.0843 64.7885 38.4028 64.7894L39.3388 64.7921C39.4168 64.7923 39.485 64.812 39.5434 64.8512C39.6083 64.8838 39.6569 64.9295 39.6892 64.9881C39.728 65.0467 39.7473 65.115 39.7471 65.193C39.7469 65.2645 39.7272 65.3294 39.6881 65.3878C39.6554 65.4462 39.6065 65.4916 39.5414 65.5239C39.4828 65.5562 39.4145 65.5723 39.3365 65.5721L36.9088 65.5651ZM43.2255 66.5387C43.589 66.7413 44.0242 66.8433 44.5312 66.8447C45.0447 66.8462 45.4804 66.7467 45.8385 66.5462C46.2031 66.3458 46.4801 66.0768 46.6696 65.7394C46.8656 65.4019 46.9641 65.0285 46.9653 64.619L46.9735 61.7622L45.6378 61.7584L45.6296 64.6151C45.629 64.8166 45.5797 65.0017 45.4817 65.1704C45.3838 65.3327 45.2501 65.4623 45.0809 65.5593C44.9181 65.6563 44.7359 65.7046 44.5344 65.704C44.3329 65.7034 44.1478 65.6541 43.9791 65.5561C43.8169 65.4582 43.6873 65.3278 43.5902 65.165C43.4932 64.9957 43.445 64.8104 43.4456 64.6089L43.4538 61.7521L42.118 61.7483L42.1098 64.605C42.1087 65.0145 42.2018 65.3885 42.3894 65.7271C42.5834 66.0656 42.8621 66.3362 43.2255 66.5387ZM48.2342 63.8816L48.226 66.7383L49.5618 66.7422L49.57 63.8854C49.5706 63.6839 49.6198 63.5021 49.7178 63.3399C49.8158 63.1711 49.9462 63.0383 50.1089 62.9412C50.2782 62.8442 50.4636 62.796 50.6651 62.7966C50.8666 62.7972 51.0485 62.8464 51.2107 62.9444C51.3794 63.0424 51.5123 63.176 51.6093 63.3453C51.7063 63.5081 51.7545 63.6902 51.754 63.8917L51.7458 66.7484L53.0815 66.7523L53.0897 63.8955C53.0909 63.486 52.9945 63.112 52.8004 62.7735C52.6129 62.4349 52.3374 62.1644 51.974 61.9618C51.6171 61.7593 51.1819 61.6573 50.6684 61.6558C50.1614 61.6544 49.7256 61.7539 49.361 61.9543C48.9964 62.1548 48.7162 62.4237 48.5202 62.7612C48.3307 63.0986 48.2354 63.4721 48.2342 63.8816ZM55.1192 66.5241C55.4566 66.7591 55.8527 66.8772 56.3077 66.8785C56.5937 66.8793 56.8408 66.8378 57.0491 66.7539C57.2573 66.67 57.4331 66.5568 57.5766 66.4142C57.7265 66.2716 57.8504 66.1127 57.9484 65.9375L57.9679 65.9375L57.9655 66.7663L59.3013 66.7701L59.3084 64.2936C59.3098 63.8126 59.2103 63.3736 59.0099 62.9765C58.8096 62.5795 58.518 62.2634 58.1351 62.0283C57.7523 61.7932 57.2814 61.6748 56.7224 61.6732C56.1699 61.6716 55.6951 61.7873 55.2979 62.0201C54.9008 62.2465 54.5944 62.5576 54.3787 62.9535C54.1696 63.3494 54.0643 63.7911 54.0629 64.2786C54.0616 64.7531 54.1513 65.1888 54.3322 65.5859C54.5196 65.9764 54.7819 66.2891 55.1192 66.5241ZM57.3645 65.5458C57.1757 65.6753 56.9512 65.7396 56.6912 65.7389C56.4247 65.7381 56.1942 65.6725 55.9996 65.5419C55.8114 65.4114 55.6657 65.2354 55.5623 65.0141C55.4655 64.7864 55.4174 64.536 55.4182 64.263C55.419 63.99 55.4685 63.7464 55.5666 63.5321C55.6712 63.3114 55.818 63.1364 56.0068 63.0069C56.2022 62.8775 56.4331 62.8131 56.6996 62.8139C56.9596 62.8146 57.1837 62.8803 57.3718 63.0108C57.5599 63.1414 57.7024 63.3173 57.7993 63.5386C57.9027 63.7534 57.954 63.9973 57.9532 64.2702C57.9524 64.5432 57.8997 64.7933 57.7951 65.0205C57.6969 65.2413 57.5534 65.4164 57.3645 65.5458Z" fill="#F4F4F4"/>
</svg>
