<svg width="1507" height="504" viewBox="0 0 1507 504" fill="none" xmlns="http://www.w3.org/2000/svg">
<rect x="0.129395" y="1.02124" width="1506" height="502" fill="#292929"/>
<path fill-rule="evenodd" clip-rule="evenodd" d="M429.207 1.22791L1.44021 -4.20601e-05L-2.73035e-05 501.718L427.767 502.946L429.207 1.22791ZM99.7039 346.845C85.9301 333.63 74.376 318.157 65.531 301.041L216.845 219.405L366.195 138.827C362.845 142.446 359.648 149.807 357.078 155.726L357.078 155.726L357.077 155.727C355.11 160.257 353.509 163.943 352.487 164.461C352.228 164.593 351.974 164.079 351.589 163.301C350.531 161.166 348.489 157.04 342.664 158.805C340.837 159.359 336.119 165.002 331.462 170.571L331.462 170.571C326.943 175.975 322.483 181.309 320.782 181.852C318.604 181.177 317.872 179.939 317.112 178.655C316.381 177.418 315.624 176.139 313.529 175.275C311.409 174.402 308.269 177.31 305.959 179.449C303.612 181.622 302.121 183.001 303.427 178.821C305.491 172.209 291.586 185.716 283.121 193.938C280.965 196.033 279.161 197.784 278.065 198.773C276.811 199.904 274.723 225.423 281.793 241.177C288.863 256.93 272.208 301.898 268.941 270.859C266.318 245.943 258.243 251.707 253.388 255.172C252.195 256.024 251.196 256.737 250.521 256.821C248.234 257.089 247.918 263.115 247.524 270.608C246.665 286.952 245.44 310.278 222.603 296.074C198.244 280.923 194.356 307.995 192.357 321.919C191.623 327.033 191.143 330.373 189.998 329.195C188.67 327.832 187.196 320.085 185.368 310.479C181.321 289.218 175.541 258.851 165.79 268.456C163.451 270.76 161.506 284.011 159.73 296.108C158.358 305.46 157.086 314.122 155.812 316.502C155.349 317.368 155.419 316.005 155.545 313.522C155.851 307.524 156.489 294.993 150.751 291.576C145.084 288.202 138.326 300.818 133.451 309.92C131.347 313.848 129.594 317.121 128.43 318.172C126.972 319.489 126.317 317.251 125.512 314.498C124.187 309.965 122.453 304.034 116.048 310.269C116.048 310.269 111.214 317.17 111.303 323.804C111.379 329.389 106.066 346.215 99.7039 346.845ZM99.7039 346.845C102.267 349.304 104.907 351.685 107.62 353.983C124.917 368.636 144.869 379.663 166.338 386.437C187.807 393.211 210.372 395.598 232.745 393.461C255.118 391.325 276.861 384.708 296.732 373.987C316.603 363.267 334.212 348.653 348.556 330.979C362.9 313.306 373.696 292.92 380.329 270.985C386.961 249.05 389.3 225.996 387.212 203.138C385.124 180.281 378.65 158.068 368.159 137.768L366.195 138.827C366.726 138.254 367.261 137.774 367.798 137.409L216.484 219.046L65.1705 300.682C70.398 310.798 79.1592 339.58 80.8801 364.798C81.6496 376.074 81.1169 387.16 80.6993 395.848C80.1766 406.723 79.8344 413.841 82.453 412.877C84.1018 412.545 84.9337 399.972 85.8937 385.461C87.3511 363.432 89.1039 336.938 94.4593 342.033C94.7199 342.569 95.0312 342.779 95.3008 342.961C95.4712 343.076 95.6251 343.18 95.7389 343.348C96.1779 343.995 96.5843 344.338 96.9392 344.637C97.1224 344.791 97.2918 344.934 97.4449 345.101C98.2288 346.007 99.4046 346.866 99.5787 346.855C99.5995 346.854 99.6203 346.852 99.6411 346.85L99.6649 346.848L99.7039 346.845ZM58.2007 264.122C49.1215 243.124 44.1796 220.504 43.6573 197.553C43.135 174.602 47.0424 151.77 55.1565 130.361C63.2705 108.952 75.4324 89.385 90.9475 72.777C106.463 56.169 125.027 42.8453 145.582 33.5668C166.136 24.2883 188.277 19.2366 210.741 18.7001C233.205 18.1637 255.552 22.153 276.506 30.4402C297.46 38.7275 316.611 51.1505 332.865 66.9998C349.119 82.8491 362.157 101.814 371.237 122.813L371.236 122.813L371.235 122.814L371.234 122.814C370.785 122.999 297.839 152.957 286.737 158.154C279.752 161.423 267.231 158.487 259.181 156.599C254.396 155.477 251.191 154.726 251.666 155.868C252.066 156.828 253.432 157.49 255.04 158.269C258.564 159.977 263.249 162.247 261.466 169.444C259.498 177.389 235.7 168.949 224.484 164.97C220.903 163.7 218.604 162.885 218.707 163.203C218.814 163.536 221.135 164.747 224.256 166.375C233.43 171.162 249.514 179.554 236.625 179.862C221.938 184.817 215.307 188.629 207.876 192.902L207.876 192.902C202.959 195.729 197.691 198.758 189.506 202.453C180.275 206.619 169.462 206.224 161.296 205.926C156.852 205.764 153.191 205.63 150.995 206.275C150.025 206.561 150.751 206.936 151.891 207.526C153.985 208.611 157.476 210.418 154.396 213.715C144.539 224.267 137.004 226.674 129.962 228.923C125.92 230.214 122.04 231.454 117.977 234.151C106.834 241.549 88.4222 247.614 86.7112 247.61C85.8989 247.607 85.3739 248.295 84.6799 249.204C83.9118 250.21 82.9367 251.488 81.1364 252.401C80.282 252.834 79.1617 253.321 77.7783 253.922L77.7768 253.923L77.776 253.923C73.6097 255.734 67.0582 258.581 58.2007 264.122ZM399.223 112.75L44.2297 296.254L45.3685 298.554L400.361 115.05L399.223 112.75ZM79.9529 208.29C77.3829 208.028 75.3243 207.198 73.7629 206.274C71.6351 205.014 68.4962 205.017 66.9729 206.963C64.7569 209.795 67.5071 213.882 70.9912 212.992C74.3919 212.124 77.8132 211.333 80.0253 211.036C80.64 210.953 81.1484 210.489 81.2419 209.876C81.3629 209.083 80.7509 208.371 79.9529 208.29ZM122.728 188.597C122.851 189.581 121.791 190.257 120.978 189.71C116.463 186.675 105.588 179.359 99.0849 174.94C93.0757 170.857 85.247 164.858 81.3164 161.805C80.0692 160.837 80.0837 158.927 81.3395 157.983C82.3034 157.259 83.6547 157.384 84.5101 158.248C86.9683 160.729 92.5243 166.059 101.402 173.074C112.136 181.554 120.155 186.518 122.166 187.727C122.477 187.914 122.682 188.233 122.728 188.597ZM129.149 202.437C129.624 202.52 129.973 202.008 129.727 201.589C129.635 201.431 129.477 201.327 129.297 201.305C128.149 201.164 123.588 200.545 117.134 198.892C112.29 197.652 109.297 196.325 107.785 195.541C107.02 195.144 106.097 195.092 105.338 195.488C103.072 196.671 104.165 200.322 106.722 200.172C110.68 199.941 114.532 199.854 116.451 200.199C120.229 200.878 126.53 201.98 129.149 202.437ZM124.181 320.903C125.317 325.775 121.186 340.973 117.443 353.084C116.122 357.36 121.392 360.771 124.66 357.724C125.537 356.906 126.039 355.764 126.039 354.565C126.039 348.957 125.992 331.958 125.455 319.833C125.323 316.867 124.076 316.984 124.053 319.954C124.05 320.281 124.107 320.586 124.181 320.903ZM153.549 463.571L153.526 471.478L171.233 471.529C173.306 471.535 175.177 471.067 176.847 470.125C178.517 469.139 179.85 467.836 180.845 466.217C181.841 464.553 182.342 462.73 182.348 460.747C182.355 458.179 181.866 456.105 180.879 454.525C179.892 452.945 178.499 451.792 176.699 451.066C174.899 450.295 172.76 449.906 170.282 449.899L163.794 449.88C163.073 449.878 162.465 449.651 161.971 449.199C161.477 448.702 161.231 448.093 161.233 447.373C161.235 446.652 161.484 446.067 161.981 445.617C162.523 445.168 163.132 444.945 163.808 444.947L179.082 444.991L179.104 437.083L162.952 437.037C160.969 437.031 159.143 437.522 157.473 438.508C155.849 439.45 154.538 440.73 153.543 442.349C152.592 443.923 152.114 445.679 152.108 447.617C152.101 450.14 152.613 452.191 153.645 453.771C154.722 455.306 156.138 456.437 157.893 457.163C159.693 457.844 161.697 458.187 163.905 458.194L170.393 458.212C170.934 458.214 171.406 458.35 171.811 458.622C172.261 458.848 172.598 459.165 172.822 459.571C173.091 459.977 173.225 460.451 173.223 460.991C173.222 461.487 173.086 461.937 172.814 462.342C172.588 462.747 172.249 463.061 171.798 463.285C171.391 463.509 170.918 463.62 170.377 463.619L153.549 463.571ZM196.662 469.371C199.586 470.867 203.008 471.62 206.928 471.631L216.66 471.659L216.682 463.752L207.086 463.724C205.419 463.719 203.91 463.49 202.559 463.035C201.254 462.536 200.153 461.812 199.254 460.863C198.401 459.915 197.796 458.741 197.439 457.344L220.756 457.411C220.847 457.095 220.916 456.645 220.962 456.06C221.009 455.429 221.033 454.888 221.035 454.438C221.044 451.104 220.49 448.083 219.371 445.377C218.252 442.625 216.479 440.435 214.051 438.806C211.667 437.177 208.538 436.357 204.664 436.346C201.42 436.337 198.511 437.072 195.939 438.551C193.367 440.031 191.333 442.12 189.838 444.819C188.344 447.518 187.591 450.692 187.581 454.342C187.572 457.586 188.352 460.517 189.921 463.134C191.536 465.752 193.782 467.831 196.662 469.371ZM211.785 451.167L197.39 451.126C197.527 450.225 197.755 449.347 198.073 448.492C198.436 447.637 198.911 446.872 199.499 446.198C200.087 445.524 200.809 444.985 201.666 444.582C202.569 444.18 203.583 443.98 204.709 443.983C205.565 443.985 206.353 444.1 207.074 444.328C207.794 444.555 208.424 444.872 208.963 445.279C209.503 445.686 209.974 446.183 210.378 446.77C210.782 447.357 211.096 448.034 211.319 448.8C211.542 449.522 211.697 450.311 211.785 451.167ZM232.247 469.068C233.999 470.83 236.407 471.716 239.471 471.724L248.594 471.751L248.617 463.843L241.115 463.822C240.53 463.82 240.012 463.616 239.563 463.209C239.158 462.757 238.957 462.239 238.959 461.653L239.006 445.163L248.671 445.19L248.693 437.283L239.029 437.256L239.054 428.605L229.795 428.578L229.77 437.229L223.89 437.212L223.868 445.119L229.747 445.136L229.699 461.897C229.691 464.915 230.54 467.306 232.247 469.068ZM255.848 463.864L255.825 471.771L273.532 471.822C275.605 471.828 277.476 471.36 279.145 470.419C280.815 469.433 282.148 468.13 283.144 466.511C284.14 464.847 284.641 463.023 284.647 461.041C284.654 458.473 284.164 456.399 283.178 454.819C282.191 453.239 280.798 452.086 278.997 451.36C277.197 450.589 275.058 450.2 272.58 450.193L266.092 450.174C265.371 450.172 264.764 449.945 264.27 449.493C263.775 448.996 263.529 448.387 263.531 447.666C263.533 446.945 263.783 446.36 264.28 445.911C264.822 445.462 265.431 445.239 266.107 445.241L281.38 445.284L281.403 437.377L265.251 437.331C263.268 437.325 261.442 437.815 259.772 438.802C258.147 439.743 256.837 441.024 255.841 442.643C254.891 444.217 254.412 445.973 254.407 447.91C254.4 450.433 254.912 452.485 255.944 454.065C257.021 455.6 258.437 456.73 260.192 457.456C261.992 458.137 263.996 458.481 266.204 458.487L272.692 458.506C273.232 458.507 273.705 458.644 274.11 458.915C274.56 459.142 274.897 459.458 275.121 459.864C275.39 460.271 275.524 460.744 275.522 461.285C275.521 461.781 275.384 462.231 275.113 462.635C274.886 463.04 274.548 463.355 274.096 463.579C273.69 463.803 273.217 463.914 272.676 463.913L255.848 463.864ZM299.633 470.613C302.152 472.017 305.169 472.724 308.683 472.734C312.243 472.744 315.264 472.055 317.746 470.665C320.273 469.276 322.193 467.411 323.506 465.072C324.865 462.733 325.548 460.144 325.556 457.306L325.613 437.504L316.354 437.477L316.297 457.279C316.293 458.676 315.952 459.959 315.272 461.129C314.593 462.253 313.667 463.152 312.494 463.824C311.365 464.497 310.103 464.831 308.706 464.827C307.309 464.823 306.026 464.481 304.857 463.802C303.732 463.123 302.834 462.219 302.161 461.091C301.489 459.918 301.155 458.633 301.159 457.236L301.215 437.434L291.957 437.407L291.9 457.209C291.892 460.048 292.537 462.64 293.837 464.987C295.182 467.334 297.114 469.209 299.633 470.613ZM334.352 452.195L334.295 471.997L343.554 472.023L343.611 452.221C343.615 450.825 343.956 449.564 344.635 448.44C345.315 447.27 346.218 446.349 347.347 445.677C348.52 445.004 349.805 444.67 351.202 444.674C352.599 444.678 353.859 445.019 354.984 445.698C356.153 446.378 357.074 447.304 357.747 448.477C358.419 449.606 358.753 450.868 358.749 452.265L358.693 472.067L367.951 472.093L368.008 452.291C368.016 449.453 367.348 446.86 366.003 444.514C364.703 442.167 362.794 440.292 360.275 438.888C357.801 437.484 354.784 436.777 351.225 436.767C347.71 436.756 344.69 437.446 342.162 438.836C339.635 440.225 337.693 442.089 336.334 444.428C335.021 446.767 334.36 449.356 334.352 452.195ZM382.076 470.512C384.415 472.141 387.161 472.959 390.314 472.969C392.297 472.974 394.01 472.686 395.453 472.105C396.897 471.523 398.116 470.738 399.11 469.75C400.149 468.761 401.008 467.66 401.687 466.446L401.822 466.446L401.806 472.19L411.065 472.217L411.114 455.051C411.124 451.717 410.434 448.674 409.045 445.921C407.656 443.169 405.635 440.978 402.982 439.348C400.328 437.719 397.064 436.898 393.189 436.887C389.359 436.876 386.068 437.678 383.315 439.292C380.562 440.861 378.438 443.017 376.943 445.761C375.494 448.506 374.764 451.567 374.754 454.947C374.745 458.236 375.367 461.256 376.621 464.008C377.92 466.715 379.738 468.883 382.076 470.512ZM397.64 463.731C396.331 464.628 394.775 465.074 392.973 465.069C391.126 465.064 389.527 464.608 388.178 463.703C386.874 462.799 385.864 461.579 385.148 460.045C384.476 458.466 384.143 456.731 384.149 454.838C384.154 452.946 384.497 451.257 385.177 449.773C385.902 448.243 386.92 447.029 388.229 446.132C389.583 445.235 391.184 444.789 393.031 444.794C394.833 444.799 396.386 445.254 397.69 446.159C398.994 447.064 399.982 448.283 400.654 449.817C401.37 451.306 401.726 452.996 401.72 454.889C401.715 456.781 401.35 458.515 400.624 460.09C399.944 461.62 398.949 462.833 397.64 463.731Z" fill="#F4F4F4"/>
<path d="M1156.18 376.597C1154.13 376.597 1152.29 376.277 1150.66 375.637C1149.06 374.965 1147.72 374.037 1146.63 372.853C1145.54 371.637 1144.71 370.229 1144.13 368.629C1143.56 366.997 1143.27 365.221 1143.27 363.301C1143.27 360.869 1143.75 358.741 1144.71 356.917C1145.7 355.061 1147.08 353.605 1148.84 352.549C1150.63 351.493 1152.71 350.965 1155.08 350.965C1156.1 350.965 1157.08 351.109 1158.01 351.397C1158.97 351.685 1159.83 352.101 1160.6 352.645C1161.37 353.189 1161.99 353.829 1162.47 354.565H1162.52V340.981H1169.09V363.301C1169.09 365.989 1168.57 368.341 1167.51 370.357C1166.45 372.341 1164.97 373.877 1163.05 374.965C1161.13 376.053 1158.84 376.597 1156.18 376.597ZM1156.18 370.981C1157.49 370.981 1158.61 370.661 1159.54 370.021C1160.47 369.381 1161.17 368.517 1161.65 367.429C1162.17 366.341 1162.42 365.125 1162.42 363.781C1162.42 362.437 1162.17 361.221 1161.65 360.133C1161.17 359.045 1160.47 358.181 1159.54 357.541C1158.61 356.901 1157.49 356.581 1156.18 356.581C1154.9 356.581 1153.78 356.901 1152.82 357.541C1151.89 358.181 1151.17 359.045 1150.66 360.133C1150.18 361.221 1149.94 362.437 1149.94 363.781C1149.94 365.125 1150.18 366.341 1150.66 367.429C1151.17 368.517 1151.89 369.381 1152.82 370.021C1153.78 370.661 1154.9 370.981 1156.18 370.981ZM1187.42 376.021C1184.64 376.021 1182.21 375.493 1180.13 374.437C1178.08 373.349 1176.48 371.877 1175.33 370.021C1174.21 368.165 1173.65 366.085 1173.65 363.781C1173.65 361.189 1174.17 358.933 1175.23 357.013C1176.29 355.093 1177.73 353.605 1179.55 352.549C1181.37 351.493 1183.44 350.965 1185.74 350.965C1188.49 350.965 1190.72 351.541 1192.41 352.693C1194.14 353.845 1195.41 355.397 1196.21 357.349C1197.01 359.269 1197.41 361.413 1197.41 363.781C1197.41 364.101 1197.39 364.485 1197.36 364.933C1197.33 365.349 1197.28 365.669 1197.21 365.893H1180.65C1180.91 366.885 1181.34 367.717 1181.95 368.389C1182.59 369.061 1183.37 369.573 1184.3 369.925C1185.26 370.245 1186.33 370.405 1187.52 370.405H1194.33V376.021H1187.42ZM1180.61 361.477H1190.83C1190.77 360.869 1190.65 360.309 1190.49 359.797C1190.33 359.253 1190.11 358.773 1189.82 358.357C1189.53 357.941 1189.2 357.589 1188.81 357.301C1188.43 357.013 1187.98 356.789 1187.47 356.629C1186.96 356.469 1186.4 356.389 1185.79 356.389C1184.99 356.389 1184.27 356.533 1183.63 356.821C1183.02 357.109 1182.51 357.493 1182.09 357.973C1181.68 358.453 1181.34 358.997 1181.09 359.605C1180.86 360.213 1180.7 360.837 1180.61 361.477ZM1202.13 376.021V370.405H1214.09C1214.47 370.405 1214.81 370.325 1215.09 370.165C1215.41 370.005 1215.65 369.781 1215.81 369.493C1216.01 369.205 1216.1 368.885 1216.1 368.533C1216.1 368.149 1216.01 367.813 1215.81 367.525C1215.65 367.237 1215.41 367.013 1215.09 366.853C1214.81 366.661 1214.47 366.565 1214.09 366.565H1209.48C1207.91 366.565 1206.49 366.325 1205.21 365.845C1203.96 365.333 1202.95 364.533 1202.18 363.445C1201.45 362.325 1201.08 360.869 1201.08 359.077C1201.08 357.701 1201.41 356.453 1202.09 355.333C1202.79 354.181 1203.72 353.269 1204.87 352.597C1206.05 351.893 1207.35 351.541 1208.76 351.541H1220.23V357.157H1209.38C1208.9 357.157 1208.47 357.317 1208.09 357.637C1207.73 357.957 1207.56 358.373 1207.56 358.885C1207.56 359.397 1207.73 359.829 1208.09 360.181C1208.44 360.501 1208.87 360.661 1209.38 360.661H1213.99C1215.75 360.661 1217.27 360.933 1218.55 361.477C1219.83 361.989 1220.82 362.805 1221.53 363.925C1222.23 365.045 1222.58 366.517 1222.58 368.341C1222.58 369.749 1222.23 371.045 1221.53 372.229C1220.82 373.381 1219.88 374.309 1218.69 375.013C1217.51 375.685 1216.18 376.021 1214.71 376.021H1202.13ZM1227.73 376.021V351.541H1234.35V376.021H1227.73ZM1231.04 348.613C1229.92 348.613 1228.94 348.213 1228.11 347.413C1227.31 346.581 1226.91 345.605 1226.91 344.485C1226.91 343.365 1227.31 342.405 1228.11 341.605C1228.94 340.773 1229.92 340.357 1231.04 340.357C1232.16 340.357 1233.12 340.773 1233.92 341.605C1234.75 342.405 1235.17 343.365 1235.17 344.485C1235.17 345.605 1234.75 346.581 1233.92 347.413C1233.12 348.213 1232.16 348.613 1231.04 348.613ZM1244.22 385.765V380.149H1256.79C1257.24 380.149 1257.61 379.989 1257.9 379.669C1258.19 379.381 1258.33 379.029 1258.33 378.613V372.613H1258.28C1257.55 373.445 1256.79 374.117 1256.03 374.629C1255.26 375.141 1254.43 375.525 1253.53 375.781C1252.67 376.005 1251.71 376.117 1250.65 376.117C1248.47 376.117 1246.51 375.605 1244.75 374.581C1243.02 373.525 1241.64 372.053 1240.62 370.165C1239.59 368.277 1239.08 366.085 1239.08 363.589C1239.08 361.221 1239.58 359.093 1240.57 357.205C1241.59 355.285 1243.07 353.765 1244.99 352.645C1246.91 351.525 1249.24 350.965 1251.99 350.965C1254.65 350.965 1256.94 351.509 1258.86 352.597C1260.78 353.685 1262.27 355.221 1263.32 357.205C1264.38 359.189 1264.91 361.541 1264.91 364.261V378.805C1264.91 380.949 1264.28 382.645 1263.03 383.893C1261.82 385.141 1260.12 385.765 1257.95 385.765H1244.22ZM1251.99 370.501C1253.31 370.501 1254.43 370.197 1255.35 369.589C1256.28 368.981 1256.99 368.181 1257.47 367.189C1257.98 366.165 1258.23 365.029 1258.23 363.781C1258.23 362.437 1257.98 361.221 1257.47 360.133C1256.99 359.045 1256.28 358.181 1255.35 357.541C1254.43 356.901 1253.31 356.581 1251.99 356.581C1250.71 356.581 1249.59 356.901 1248.63 357.541C1247.71 358.149 1246.99 358.981 1246.47 360.037C1245.99 361.093 1245.75 362.277 1245.75 363.589C1245.75 364.869 1245.99 366.037 1246.47 367.093C1246.99 368.117 1247.71 368.949 1248.63 369.589C1249.59 370.197 1250.71 370.501 1251.99 370.501ZM1270.9 376.021V361.957C1270.9 359.941 1271.36 358.101 1272.29 356.437C1273.25 354.773 1274.63 353.445 1276.42 352.453C1278.21 351.461 1280.35 350.965 1282.85 350.965C1285.38 350.965 1287.52 351.461 1289.28 352.453C1291.07 353.445 1292.43 354.773 1293.36 356.437C1294.32 358.101 1294.8 359.941 1294.8 361.957V376.021H1288.23V361.957C1288.23 360.965 1287.99 360.069 1287.51 359.269C1287.03 358.437 1286.37 357.781 1285.54 357.301C1284.74 356.821 1283.84 356.581 1282.85 356.581C1281.86 356.581 1280.95 356.821 1280.11 357.301C1279.31 357.781 1278.67 358.437 1278.19 359.269C1277.71 360.069 1277.47 360.965 1277.47 361.957V376.021H1270.9ZM1304.3 376.597C1303.09 376.597 1302.03 376.165 1301.13 375.301C1300.27 374.405 1299.84 373.349 1299.84 372.133C1299.84 370.917 1300.27 369.877 1301.13 369.013C1302.03 368.117 1303.09 367.669 1304.3 367.669C1305.52 367.669 1306.56 368.117 1307.42 369.013C1308.32 369.877 1308.77 370.917 1308.77 372.133C1308.77 372.933 1308.56 373.685 1308.14 374.389C1307.76 375.061 1307.23 375.605 1306.56 376.021C1305.89 376.405 1305.13 376.597 1304.3 376.597Z" fill="white"/>
<path d="M590.501 375.597C588.837 375.597 587.317 375.277 585.941 374.637C584.565 373.965 583.461 372.957 582.629 371.613C581.829 370.269 581.429 368.573 581.429 366.525V350.541H588.005V367.485C588.005 367.933 588.117 368.349 588.341 368.733C588.565 369.117 588.869 369.421 589.253 369.645C589.637 369.869 590.053 369.981 590.501 369.981C590.949 369.981 591.365 369.869 591.749 369.645C592.133 369.421 592.437 369.117 592.661 368.733C592.885 368.349 592.997 367.933 592.997 367.485V359.037C592.997 357.117 593.365 355.485 594.101 354.141C594.869 352.797 595.925 351.773 597.269 351.069C598.645 350.333 600.245 349.965 602.069 349.965C603.893 349.965 605.477 350.333 606.821 351.069C608.197 351.773 609.253 352.797 609.989 354.141C610.757 355.485 611.141 357.117 611.141 359.037V367.485C611.141 367.933 611.253 368.349 611.477 368.733C611.701 369.117 612.005 369.421 612.389 369.645C612.773 369.869 613.189 369.981 613.637 369.981C614.117 369.981 614.533 369.869 614.885 369.645C615.269 369.421 615.573 369.117 615.797 368.733C616.021 368.349 616.133 367.933 616.133 367.485V350.541H622.709V366.525C622.709 368.573 622.293 370.269 621.461 371.613C620.661 372.957 619.573 373.965 618.197 374.637C616.821 375.277 615.301 375.597 613.637 375.597C612.005 375.597 610.501 375.277 609.125 374.637C607.749 373.965 606.645 372.957 605.813 371.613C604.981 370.269 604.565 368.573 604.565 366.525V358.077C604.565 357.597 604.453 357.181 604.229 356.829C604.005 356.445 603.701 356.141 603.317 355.917C602.965 355.693 602.549 355.581 602.069 355.581C601.621 355.581 601.205 355.693 600.821 355.917C600.437 356.141 600.133 356.445 599.909 356.829C599.685 357.181 599.573 357.597 599.573 358.077V366.525C599.573 368.573 599.157 370.269 598.325 371.613C597.493 372.957 596.389 373.965 595.013 374.637C593.669 375.277 592.165 375.597 590.501 375.597ZM641.296 375.021C638.512 375.021 636.08 374.493 634 373.437C631.952 372.349 630.352 370.877 629.2 369.021C628.08 367.165 627.52 365.085 627.52 362.781C627.52 360.189 628.048 357.933 629.104 356.013C630.16 354.093 631.6 352.605 633.424 351.549C635.248 350.493 637.312 349.965 639.616 349.965C642.368 349.965 644.592 350.541 646.288 351.693C648.016 352.845 649.28 354.397 650.08 356.349C650.88 358.269 651.28 360.413 651.28 362.781C651.28 363.101 651.264 363.485 651.232 363.933C651.2 364.349 651.152 364.669 651.088 364.893H634.528C634.784 365.885 635.216 366.717 635.824 367.389C636.464 368.061 637.248 368.573 638.176 368.925C639.136 369.245 640.208 369.405 641.392 369.405H648.208V375.021H641.296ZM634.48 360.477H644.704C644.64 359.869 644.528 359.309 644.368 358.797C644.208 358.253 643.984 357.773 643.696 357.357C643.408 356.941 643.072 356.589 642.688 356.301C642.304 356.013 641.856 355.789 641.344 355.629C640.832 355.469 640.272 355.389 639.664 355.389C638.864 355.389 638.144 355.533 637.504 355.821C636.896 356.109 636.384 356.493 635.968 356.973C635.552 357.453 635.216 357.997 634.96 358.605C634.736 359.213 634.576 359.837 634.48 360.477ZM668.585 375.597C665.961 375.597 663.673 375.053 661.721 373.965C659.801 372.877 658.313 371.341 657.257 369.357C656.201 367.341 655.673 364.989 655.673 362.301V339.981H662.249V353.565H662.297C662.809 352.829 663.433 352.189 664.169 351.645C664.937 351.101 665.785 350.685 666.713 350.397C667.673 350.109 668.665 349.965 669.689 349.965C672.089 349.965 674.169 350.493 675.929 351.549C677.689 352.605 679.049 354.061 680.009 355.917C681.001 357.741 681.497 359.869 681.497 362.301C681.497 364.221 681.209 365.997 680.633 367.629C680.057 369.229 679.225 370.637 678.137 371.853C677.049 373.037 675.705 373.965 674.105 374.637C672.505 375.277 670.665 375.597 668.585 375.597ZM668.585 369.981C669.897 369.981 671.017 369.661 671.945 369.021C672.873 368.381 673.577 367.517 674.057 366.429C674.569 365.341 674.825 364.125 674.825 362.781C674.825 361.437 674.569 360.221 674.057 359.133C673.577 358.045 672.873 357.181 671.945 356.541C671.017 355.901 669.897 355.581 668.585 355.581C667.305 355.581 666.185 355.901 665.225 356.541C664.297 357.181 663.577 358.045 663.065 359.133C662.585 360.221 662.345 361.437 662.345 362.781C662.345 364.125 662.585 365.341 663.065 366.429C663.577 367.517 664.297 368.381 665.225 369.021C666.185 369.661 667.305 369.981 668.585 369.981ZM710.464 375.597C708.416 375.597 706.576 375.277 704.944 374.637C703.344 373.965 702 373.037 700.912 371.853C699.824 370.637 698.992 369.229 698.416 367.629C697.84 365.997 697.552 364.221 697.552 362.301C697.552 359.869 698.032 357.741 698.992 355.917C699.984 354.061 701.36 352.605 703.12 351.549C704.912 350.493 706.992 349.965 709.36 349.965C710.384 349.965 711.36 350.109 712.288 350.397C713.248 350.685 714.112 351.101 714.88 351.645C715.648 352.189 716.272 352.829 716.752 353.565H716.8V339.981H723.376V362.301C723.376 364.989 722.848 367.341 721.792 369.357C720.736 371.341 719.248 372.877 717.328 373.965C715.408 375.053 713.12 375.597 710.464 375.597ZM710.464 369.981C711.776 369.981 712.896 369.661 713.824 369.021C714.752 368.381 715.456 367.517 715.936 366.429C716.448 365.341 716.704 364.125 716.704 362.781C716.704 361.437 716.448 360.221 715.936 359.133C715.456 358.045 714.752 357.181 713.824 356.541C712.896 355.901 711.776 355.581 710.464 355.581C709.184 355.581 708.064 355.901 707.104 356.541C706.176 357.181 705.456 358.045 704.944 359.133C704.464 360.221 704.224 361.437 704.224 362.781C704.224 364.125 704.464 365.341 704.944 366.429C705.456 367.517 706.176 368.381 707.104 369.021C708.064 369.661 709.184 369.981 710.464 369.981ZM741.703 375.021C738.919 375.021 736.487 374.493 734.407 373.437C732.359 372.349 730.759 370.877 729.607 369.021C728.487 367.165 727.927 365.085 727.927 362.781C727.927 360.189 728.455 357.933 729.511 356.013C730.567 354.093 732.007 352.605 733.831 351.549C735.655 350.493 737.719 349.965 740.023 349.965C742.775 349.965 744.999 350.541 746.695 351.693C748.423 352.845 749.687 354.397 750.487 356.349C751.287 358.269 751.687 360.413 751.687 362.781C751.687 363.101 751.671 363.485 751.639 363.933C751.607 364.349 751.559 364.669 751.495 364.893H734.935C735.191 365.885 735.623 366.717 736.231 367.389C736.871 368.061 737.655 368.573 738.583 368.925C739.543 369.245 740.615 369.405 741.799 369.405H748.615V375.021H741.703ZM734.887 360.477H745.111C745.047 359.869 744.935 359.309 744.775 358.797C744.615 358.253 744.391 357.773 744.103 357.357C743.815 356.941 743.479 356.589 743.095 356.301C742.711 356.013 742.263 355.789 741.751 355.629C741.239 355.469 740.679 355.389 740.071 355.389C739.271 355.389 738.551 355.533 737.911 355.821C737.303 356.109 736.791 356.493 736.375 356.973C735.959 357.453 735.623 357.997 735.367 358.605C735.143 359.213 734.983 359.837 734.887 360.477ZM766.555 375.597C765.115 375.597 763.803 375.213 762.619 374.445C761.467 373.677 760.667 372.669 760.219 371.421L753.211 350.541H760.363L766.027 368.733C766.091 368.861 766.171 368.957 766.267 369.021C766.363 369.085 766.475 369.117 766.603 369.117C766.731 369.117 766.843 369.085 766.939 369.021C767.067 368.957 767.147 368.861 767.179 368.733L772.891 350.541H779.899L772.891 371.373C772.443 372.621 771.627 373.645 770.443 374.445C769.291 375.213 767.995 375.597 766.555 375.597ZM794.906 375.021C792.122 375.021 789.69 374.493 787.61 373.437C785.562 372.349 783.962 370.877 782.81 369.021C781.69 367.165 781.13 365.085 781.13 362.781C781.13 360.189 781.658 357.933 782.714 356.013C783.77 354.093 785.21 352.605 787.034 351.549C788.858 350.493 790.922 349.965 793.226 349.965C795.978 349.965 798.202 350.541 799.898 351.693C801.626 352.845 802.89 354.397 803.69 356.349C804.49 358.269 804.89 360.413 804.89 362.781C804.89 363.101 804.874 363.485 804.842 363.933C804.81 364.349 804.762 364.669 804.698 364.893H788.138C788.394 365.885 788.826 366.717 789.434 367.389C790.074 368.061 790.858 368.573 791.786 368.925C792.746 369.245 793.818 369.405 795.002 369.405H801.818V375.021H794.906ZM788.09 360.477H798.314C798.25 359.869 798.138 359.309 797.978 358.797C797.818 358.253 797.594 357.773 797.306 357.357C797.018 356.941 796.682 356.589 796.298 356.301C795.914 356.013 795.466 355.789 794.954 355.629C794.442 355.469 793.882 355.389 793.274 355.389C792.474 355.389 791.754 355.533 791.114 355.821C790.506 356.109 789.994 356.493 789.578 356.973C789.162 357.453 788.826 357.997 788.57 358.605C788.346 359.213 788.186 359.837 788.09 360.477ZM809.523 375.021V339.981H816.099V375.021H809.523ZM834.08 375.597C831.552 375.597 829.296 375.037 827.312 373.917C825.328 372.765 823.76 371.229 822.608 369.309C821.456 367.357 820.88 365.181 820.88 362.781C820.88 360.381 821.456 358.221 822.608 356.301C823.76 354.349 825.328 352.813 827.312 351.693C829.296 350.541 831.552 349.965 834.08 349.965C836.608 349.965 838.864 350.541 840.848 351.693C842.832 352.813 844.4 354.349 845.552 356.301C846.704 358.221 847.28 360.381 847.28 362.781C847.28 365.181 846.704 367.357 845.552 369.309C844.4 371.229 842.832 372.765 840.848 373.917C838.864 375.037 836.608 375.597 834.08 375.597ZM834.08 369.981C835.424 369.981 836.576 369.661 837.536 369.021C838.528 368.381 839.28 367.517 839.792 366.429C840.336 365.341 840.608 364.125 840.608 362.781C840.608 361.437 840.336 360.221 839.792 359.133C839.28 358.045 838.528 357.181 837.536 356.541C836.576 355.901 835.424 355.581 834.08 355.581C832.736 355.581 831.568 355.901 830.576 356.541C829.616 357.181 828.864 358.045 828.32 359.133C827.808 360.221 827.552 361.437 827.552 362.781C827.552 364.125 827.808 365.341 828.32 366.429C828.864 367.517 829.616 368.381 830.576 369.021C831.568 369.661 832.736 369.981 834.08 369.981ZM864.757 349.965C866.837 349.965 868.677 350.301 870.277 350.973C871.877 351.613 873.221 352.541 874.309 353.757C875.397 354.941 876.229 356.349 876.805 357.981C877.381 359.581 877.669 361.341 877.669 363.261C877.669 365.661 877.173 367.789 876.181 369.645C875.221 371.501 873.861 372.957 872.101 374.013C870.341 375.069 868.261 375.597 865.861 375.597C864.837 375.597 863.845 375.453 862.885 375.165C861.957 374.877 861.109 374.461 860.341 373.917C859.605 373.373 858.981 372.733 858.469 371.997H858.421V385.581H851.845V363.261C851.845 360.541 852.373 358.189 853.429 356.205C854.485 354.221 855.973 352.685 857.893 351.597C859.845 350.509 862.133 349.965 864.757 349.965ZM864.757 355.581C863.477 355.581 862.357 355.901 861.397 356.541C860.469 357.181 859.749 358.045 859.237 359.133C858.757 360.221 858.517 361.437 858.517 362.781C858.517 364.125 858.757 365.341 859.237 366.429C859.749 367.517 860.469 368.381 861.397 369.021C862.357 369.661 863.477 369.981 864.757 369.981C866.069 369.981 867.189 369.661 868.117 369.021C869.045 368.381 869.749 367.517 870.229 366.429C870.741 365.341 870.997 364.125 870.997 362.781C870.997 361.437 870.741 360.221 870.229 359.133C869.749 358.045 869.045 357.181 868.117 356.541C867.189 355.901 866.069 355.581 864.757 355.581ZM882.46 375.021V360.477C882.46 358.557 882.924 356.797 883.852 355.197C884.78 353.597 886.108 352.333 887.836 351.405C889.596 350.445 891.708 349.965 894.172 349.965C895.356 349.965 896.444 350.109 897.436 350.397C898.46 350.653 899.404 351.037 900.268 351.549C901.132 352.061 901.884 352.669 902.524 353.373H902.572C903.244 352.669 904.012 352.061 904.876 351.549C905.74 351.037 906.684 350.653 907.708 350.397C908.732 350.109 909.836 349.965 911.02 349.965C913.484 349.965 915.58 350.445 917.308 351.405C919.068 352.333 920.412 353.597 921.34 355.197C922.268 356.797 922.732 358.557 922.732 360.477V375.021H916.156V360.477C916.156 359.581 915.916 358.765 915.436 358.029C914.988 357.293 914.38 356.701 913.612 356.253C912.844 355.805 911.98 355.581 911.02 355.581C910.092 355.581 909.228 355.805 908.428 356.253C907.66 356.701 907.036 357.293 906.556 358.029C906.108 358.765 905.884 359.581 905.884 360.477V375.021H899.308V360.477C899.308 359.581 899.068 358.765 898.588 358.029C898.14 357.293 897.532 356.701 896.764 356.253C895.996 355.805 895.132 355.581 894.172 355.581C893.244 355.581 892.38 355.805 891.58 356.253C890.812 356.701 890.188 357.293 889.708 358.029C889.26 358.765 889.036 359.581 889.036 360.477V375.021H882.46ZM941.296 375.021C938.512 375.021 936.08 374.493 934 373.437C931.952 372.349 930.352 370.877 929.2 369.021C928.08 367.165 927.52 365.085 927.52 362.781C927.52 360.189 928.048 357.933 929.104 356.013C930.16 354.093 931.6 352.605 933.424 351.549C935.248 350.493 937.312 349.965 939.616 349.965C942.368 349.965 944.592 350.541 946.288 351.693C948.016 352.845 949.28 354.397 950.08 356.349C950.88 358.269 951.28 360.413 951.28 362.781C951.28 363.101 951.264 363.485 951.232 363.933C951.2 364.349 951.152 364.669 951.088 364.893H934.528C934.784 365.885 935.216 366.717 935.824 367.389C936.464 368.061 937.248 368.573 938.176 368.925C939.136 369.245 940.208 369.405 941.392 369.405H948.208V375.021H941.296ZM934.48 360.477H944.704C944.64 359.869 944.528 359.309 944.368 358.797C944.208 358.253 943.984 357.773 943.696 357.357C943.408 356.941 943.072 356.589 942.688 356.301C942.304 356.013 941.856 355.789 941.344 355.629C940.832 355.469 940.272 355.389 939.664 355.389C938.864 355.389 938.144 355.533 937.504 355.821C936.896 356.109 936.384 356.493 935.968 356.973C935.552 357.453 935.216 357.997 934.96 358.605C934.736 359.213 934.576 359.837 934.48 360.477ZM955.913 375.021V360.957C955.913 358.941 956.377 357.101 957.305 355.437C958.265 353.773 959.641 352.445 961.433 351.453C963.225 350.461 965.369 349.965 967.865 349.965C970.393 349.965 972.537 350.461 974.297 351.453C976.089 352.445 977.449 353.773 978.377 355.437C979.337 357.101 979.817 358.941 979.817 360.957V375.021H973.241V360.957C973.241 359.965 973.001 359.069 972.521 358.269C972.041 357.437 971.385 356.781 970.553 356.301C969.753 355.821 968.857 355.581 967.865 355.581C966.873 355.581 965.961 355.821 965.129 356.301C964.329 356.781 963.689 357.437 963.209 358.269C962.729 359.069 962.489 359.965 962.489 360.957V375.021H955.913ZM994.55 375.021C992.374 375.021 990.662 374.397 989.414 373.149C988.198 371.901 987.59 370.205 987.59 368.061V344.397H994.166V367.869C994.166 368.285 994.31 368.653 994.598 368.973C994.918 369.261 995.286 369.405 995.702 369.405H1001.03V375.021H994.55ZM983.414 356.157V350.541H1001.03V356.157H983.414Z" fill="white"/>
<path d="M1036.33 375.597C1034.09 375.597 1032.14 375.021 1030.48 373.869C1028.81 372.717 1027.52 371.181 1026.59 369.261C1025.69 367.309 1025.25 365.165 1025.25 362.829C1025.25 360.429 1025.76 358.253 1026.78 356.301C1027.84 354.349 1029.34 352.813 1031.29 351.693C1033.25 350.541 1035.58 349.965 1038.3 349.965C1041.05 349.965 1043.37 350.541 1045.26 351.693C1047.15 352.845 1048.59 354.397 1049.58 356.349C1050.57 358.301 1051.07 360.461 1051.07 362.829V375.021H1044.49V370.941H1044.4C1043.92 371.805 1043.31 372.589 1042.57 373.293C1041.87 373.997 1041.01 374.557 1039.98 374.973C1038.96 375.389 1037.74 375.597 1036.33 375.597ZM1038.21 369.981C1039.49 369.981 1040.59 369.661 1041.52 369.021C1042.45 368.381 1043.15 367.517 1043.63 366.429C1044.14 365.309 1044.4 364.077 1044.4 362.733C1044.4 361.389 1044.14 360.189 1043.63 359.133C1043.15 358.045 1042.45 357.181 1041.52 356.541C1040.59 355.901 1039.49 355.581 1038.21 355.581C1036.89 355.581 1035.76 355.901 1034.8 356.541C1033.87 357.181 1033.15 358.045 1032.64 359.133C1032.16 360.189 1031.92 361.389 1031.92 362.733C1031.92 364.077 1032.16 365.309 1032.64 366.429C1033.15 367.517 1033.87 368.381 1034.8 369.021C1035.76 369.661 1036.89 369.981 1038.21 369.981ZM1057.3 375.021V360.957C1057.3 358.941 1057.76 357.101 1058.69 355.437C1059.65 353.773 1061.02 352.445 1062.82 351.453C1064.61 350.461 1066.75 349.965 1069.25 349.965C1071.78 349.965 1073.92 350.461 1075.68 351.453C1077.47 352.445 1078.83 353.773 1079.76 355.437C1080.72 357.101 1081.2 358.941 1081.2 360.957V375.021H1074.62V360.957C1074.62 359.965 1074.38 359.069 1073.9 358.269C1073.42 357.437 1072.77 356.781 1071.94 356.301C1071.14 355.821 1070.24 355.581 1069.25 355.581C1068.26 355.581 1067.34 355.821 1066.51 356.301C1065.71 356.781 1065.07 357.437 1064.59 358.269C1064.11 359.069 1063.87 359.965 1063.87 360.957V375.021H1057.3ZM1098.91 375.597C1096.86 375.597 1095.02 375.277 1093.39 374.637C1091.79 373.965 1090.44 373.037 1089.36 371.853C1088.27 370.637 1087.44 369.229 1086.86 367.629C1086.28 365.997 1086 364.221 1086 362.301C1086 359.869 1086.48 357.741 1087.44 355.917C1088.43 354.061 1089.8 352.605 1091.56 351.549C1093.36 350.493 1095.44 349.965 1097.8 349.965C1098.83 349.965 1099.8 350.109 1100.73 350.397C1101.69 350.685 1102.56 351.101 1103.32 351.645C1104.09 352.189 1104.72 352.829 1105.2 353.565H1105.24V339.981H1111.82V362.301C1111.82 364.989 1111.29 367.341 1110.24 369.357C1109.18 371.341 1107.69 372.877 1105.77 373.965C1103.85 375.053 1101.56 375.597 1098.91 375.597ZM1098.91 369.981C1100.22 369.981 1101.34 369.661 1102.27 369.021C1103.2 368.381 1103.9 367.517 1104.38 366.429C1104.89 365.341 1105.15 364.125 1105.15 362.781C1105.15 361.437 1104.89 360.221 1104.38 359.133C1103.9 358.045 1103.2 357.181 1102.27 356.541C1101.34 355.901 1100.22 355.581 1098.91 355.581C1097.63 355.581 1096.51 355.901 1095.55 356.541C1094.62 357.181 1093.9 358.045 1093.39 359.133C1092.91 360.221 1092.67 361.437 1092.67 362.781C1092.67 364.125 1092.91 365.341 1093.39 366.429C1093.9 367.517 1094.62 368.381 1095.55 369.021C1096.51 369.661 1097.63 369.981 1098.91 369.981Z" fill="white"/>
<path d="M580.423 290.021V267.397H628.571C630.118 267.397 631.472 267.075 632.632 266.431C633.921 265.786 634.888 264.884 635.532 263.723C636.306 262.563 636.693 261.274 636.693 259.856C636.693 258.309 636.306 256.956 635.532 255.795C634.888 254.635 633.921 253.733 632.632 253.088C631.472 252.315 630.118 251.928 628.571 251.928H610.008C603.691 251.928 597.955 250.961 592.798 249.028C587.771 246.965 583.71 243.742 580.616 239.359C577.651 234.847 576.169 228.982 576.169 221.763C576.169 216.22 577.522 211.192 580.23 206.68C583.066 202.04 586.804 198.366 591.445 195.658C596.215 192.822 601.435 191.404 607.107 191.404H653.322V214.028H609.621C607.688 214.028 605.947 214.673 604.4 215.962C602.982 217.251 602.273 218.927 602.273 220.989C602.273 223.052 602.982 224.792 604.4 226.21C605.818 227.499 607.559 228.144 609.621 228.144H628.184C635.275 228.144 641.398 229.24 646.554 231.431C651.711 233.494 655.707 236.781 658.543 241.293C661.379 245.805 662.797 251.735 662.797 259.083C662.797 264.755 661.379 269.976 658.543 274.745C655.707 279.386 651.904 283.125 647.134 285.961C642.365 288.668 637.015 290.021 631.085 290.021H580.423ZM733.213 290.021C721.997 290.021 712.2 287.894 703.821 283.64C695.571 279.257 689.125 273.327 684.484 265.85C679.972 258.374 677.716 249.994 677.716 240.713C677.716 230.271 679.843 221.183 684.097 213.448C688.352 205.714 694.153 199.719 701.5 195.465C708.848 191.211 717.163 189.084 726.445 189.084C737.531 189.084 746.49 191.404 753.323 196.045C760.284 200.686 765.376 206.938 768.599 214.802C771.821 222.536 773.433 231.173 773.433 240.713C773.433 242.002 773.368 243.549 773.239 245.354C773.11 247.029 772.917 248.319 772.659 249.221H705.948C706.979 253.217 708.719 256.569 711.169 259.276C713.747 261.983 716.905 264.046 720.644 265.464C724.511 266.753 728.83 267.397 733.599 267.397H761.057V290.021H733.213ZM705.755 231.431H746.942C746.684 228.982 746.233 226.726 745.588 224.663C744.943 222.472 744.041 220.538 742.881 218.862C741.721 217.187 740.367 215.769 738.82 214.608C737.273 213.448 735.468 212.546 733.406 211.901C731.343 211.257 729.087 210.934 726.638 210.934C723.415 210.934 720.515 211.515 717.937 212.675C715.487 213.835 713.425 215.382 711.749 217.316C710.073 219.249 708.719 221.441 707.688 223.89C706.786 226.339 706.141 228.853 705.755 231.431ZM826.323 290.021C817.557 290.021 810.66 287.507 805.633 282.48C800.734 277.452 798.285 270.62 798.285 261.983V166.654H824.776V261.21C824.776 262.885 825.356 264.368 826.516 265.657C827.805 266.817 829.288 267.397 830.964 267.397H852.427V290.021H826.323ZM781.462 214.028V191.404H852.427V214.028H781.462ZM873.116 290.021V267.397H921.264C922.811 267.397 924.165 267.075 925.325 266.431C926.614 265.786 927.581 264.884 928.225 263.723C928.999 262.563 929.386 261.274 929.386 259.856C929.386 258.309 928.999 256.956 928.225 255.795C927.581 254.635 926.614 253.733 925.325 253.088C924.165 252.315 922.811 251.928 921.264 251.928H902.701C896.384 251.928 890.648 250.961 885.492 249.028C880.464 246.965 876.403 243.742 873.309 239.359C870.344 234.847 868.862 228.982 868.862 221.763C868.862 216.22 870.216 211.192 872.923 206.68C875.759 202.04 879.497 198.366 884.138 195.658C888.908 192.822 894.129 191.404 899.801 191.404H946.015V214.028H902.314C900.381 214.028 898.64 214.673 897.093 215.962C895.675 217.251 894.966 218.927 894.966 220.989C894.966 223.052 895.675 224.792 897.093 226.21C898.512 227.499 900.252 228.144 902.314 228.144H920.878C927.968 228.144 934.091 229.24 939.247 231.431C944.404 233.494 948.4 236.781 951.236 241.293C954.072 245.805 955.49 251.735 955.49 259.083C955.49 264.755 954.072 269.976 951.236 274.745C948.4 279.386 944.597 283.125 939.827 285.961C935.058 288.668 929.708 290.021 923.778 290.021H873.116ZM1024.36 292.342C1014.3 292.342 1005.67 290.344 998.448 286.347C991.229 282.351 985.685 277.001 981.818 270.298C978.08 263.595 976.211 256.182 976.211 248.061V191.404H1002.7V248.061C1002.7 252.057 1003.67 255.731 1005.6 259.083C1007.54 262.305 1010.11 264.884 1013.34 266.817C1016.69 268.751 1020.36 269.718 1024.36 269.718C1028.35 269.718 1031.96 268.751 1035.19 266.817C1038.54 264.884 1041.18 262.305 1043.12 259.083C1045.05 255.731 1046.02 252.057 1046.02 248.061V191.404H1072.51V248.061C1072.51 256.182 1070.57 263.595 1066.71 270.298C1062.97 277.001 1057.49 282.351 1050.27 286.347C1043.18 290.344 1034.54 292.342 1024.36 292.342ZM1097.63 290.021V233.365C1097.63 225.244 1099.5 217.831 1103.24 211.128C1107.11 204.424 1112.65 199.075 1119.87 195.078C1127.09 191.082 1135.72 189.084 1145.78 189.084C1155.96 189.084 1164.6 191.082 1171.69 195.078C1178.91 199.075 1184.39 204.424 1188.13 211.128C1191.99 217.831 1193.93 225.244 1193.93 233.365V290.021H1167.44V233.365C1167.44 229.369 1166.47 225.759 1164.54 222.536C1162.6 219.185 1159.96 216.542 1156.61 214.608C1153.38 212.675 1149.78 211.708 1145.78 211.708C1141.78 211.708 1138.11 212.675 1134.76 214.608C1131.53 216.542 1128.96 219.185 1127.02 222.536C1125.09 225.759 1124.12 229.369 1124.12 233.365V290.021H1097.63ZM1257.92 292.342C1248.89 292.342 1241.03 290.021 1234.33 285.38C1227.62 280.74 1222.4 274.552 1218.66 266.817C1215.06 258.954 1213.25 250.317 1213.25 240.906C1213.25 231.238 1215.31 222.472 1219.44 214.608C1223.69 206.745 1229.75 200.557 1237.61 196.045C1245.48 191.404 1254.89 189.084 1265.85 189.084C1276.93 189.084 1286.28 191.404 1293.88 196.045C1301.49 200.686 1307.29 206.938 1311.29 214.802C1315.28 222.665 1317.28 231.367 1317.28 240.906V290.021H1290.79V273.585H1290.4C1288.47 277.066 1286.02 280.224 1283.06 283.06C1280.22 285.896 1276.74 288.152 1272.61 289.828C1268.49 291.504 1263.59 292.342 1257.92 292.342ZM1265.46 269.718C1270.62 269.718 1275.06 268.429 1278.8 265.85C1282.54 263.272 1285.38 259.792 1287.31 255.409C1289.37 250.897 1290.4 245.934 1290.4 240.519C1290.4 235.105 1289.37 230.271 1287.31 226.017C1285.38 221.634 1282.54 218.153 1278.8 215.575C1275.06 212.997 1270.62 211.708 1265.46 211.708C1260.17 211.708 1255.6 212.997 1251.73 215.575C1247.99 218.153 1245.09 221.634 1243.03 226.017C1241.1 230.271 1240.13 235.105 1240.13 240.519C1240.13 245.934 1241.1 250.897 1243.03 255.409C1245.09 259.792 1247.99 263.272 1251.73 265.85C1255.6 268.429 1260.17 269.718 1265.46 269.718Z" fill="white"/>
</svg>
