<svg width="370" height="424" viewBox="0 0 370 424" fill="none" xmlns="http://www.w3.org/2000/svg">
<path fill-rule="evenodd" clip-rule="evenodd" d="M369.667 1.05769L1.21338 0L3.72051e-05 422.676L368.453 423.734L369.667 1.05769ZM85.8705 292.208C74.006 281.074 64.0532 268.038 56.4338 253.618L186.762 184.851L315.399 116.976C312.513 120.025 309.761 126.225 307.547 131.211L307.547 131.212L307.547 131.212C305.852 135.029 304.474 138.134 303.593 138.571C303.37 138.681 303.151 138.248 302.819 137.593C301.909 135.794 300.149 132.319 295.132 133.805C293.558 134.272 289.494 139.025 285.484 143.716C281.592 148.269 277.751 152.762 276.285 153.22C274.409 152.651 273.778 151.608 273.124 150.526C272.494 149.484 271.842 148.406 270.037 147.679C268.212 146.943 265.507 149.392 263.517 151.194C261.496 153.025 260.212 154.187 261.336 150.665C263.114 145.095 251.138 156.473 243.847 163.4L243.847 163.4L243.846 163.401L243.846 163.401C241.989 165.165 240.436 166.64 239.492 167.473C238.413 168.425 236.615 189.924 242.706 203.197C248.796 216.469 234.453 254.351 231.637 228.202C229.377 207.211 222.422 212.066 218.24 214.985C217.213 215.703 216.352 216.303 215.771 216.374C213.801 216.6 213.529 221.676 213.19 227.989C212.451 241.758 211.397 261.409 191.726 249.442C170.743 236.677 167.397 259.484 165.675 271.213C165.043 275.522 164.63 278.335 163.643 277.344C162.5 276.195 161.23 269.668 159.654 261.576C156.167 243.663 151.187 218.081 142.789 226.172C140.774 228.113 139.1 239.276 137.571 249.467C136.389 257.346 135.295 264.643 134.198 266.648C133.798 267.377 133.858 266.229 133.967 264.138C134.23 259.085 134.78 248.528 129.837 245.649C124.955 242.806 119.135 253.434 114.937 261.101C113.125 264.41 111.615 267.168 110.612 268.053C109.356 269.163 108.792 267.277 108.099 264.958C106.957 261.139 105.463 256.143 99.9462 261.395C99.9462 261.395 95.7829 267.208 95.8604 272.797C95.9257 277.503 91.3508 291.678 85.8705 292.208ZM85.8705 292.208C88.0784 294.279 90.3524 296.285 92.6899 298.222C107.589 310.567 124.775 319.859 143.268 325.566C161.76 331.274 181.197 333.286 200.467 331.488C219.738 329.689 238.465 324.116 255.58 315.085C272.695 306.054 287.863 293.743 300.216 278.855C312.57 263.967 321.868 246.793 327.58 228.314C333.292 209.835 335.305 190.413 333.506 171.157C331.706 151.9 326.128 133.186 317.091 116.084L315.399 116.976C315.856 116.493 316.317 116.089 316.78 115.781L186.451 184.548L56.1231 253.316C60.6263 261.838 68.1742 286.086 69.6579 307.332C70.3214 316.831 69.863 326.17 69.5038 333.489C69.0542 342.651 68.7599 348.648 71.0153 347.836C72.4355 347.557 73.1513 336.964 73.9774 324.739C75.2316 306.181 76.7399 283.86 81.353 288.153C81.5775 288.605 81.8456 288.782 82.0778 288.935C82.2247 289.032 82.3572 289.12 82.4552 289.261C82.8334 289.807 83.1835 290.095 83.4892 290.347C83.647 290.477 83.7929 290.597 83.9248 290.738C84.6 291.502 85.6128 292.226 85.7628 292.216C85.7988 292.214 85.8347 292.211 85.8705 292.208ZM50.1178 222.515C42.2963 204.824 38.0385 185.767 37.5874 166.432C37.1362 147.097 40.5006 127.863 47.4885 109.827C54.4763 91.7911 64.9507 75.3073 78.3137 61.3165C91.6766 47.3258 107.666 36.1022 125.37 28.2866C143.074 20.4709 162.145 16.2163 181.494 15.7656C200.843 15.3148 220.092 18.6769 238.141 25.6597C256.19 32.6425 272.686 43.1093 286.687 56.4626C300.687 69.8159 311.919 85.7941 319.741 103.485L319.74 103.485C319.74 103.485 256.552 128.863 246.96 133.253C240.943 136.007 230.158 133.533 223.225 131.942C219.103 130.997 216.342 130.364 216.752 131.326C217.096 132.134 218.273 132.692 219.658 133.349C222.693 134.788 226.729 136.701 225.193 142.764C223.498 149.457 203 142.345 193.339 138.993C190.254 137.923 188.274 137.236 188.363 137.503C188.455 137.784 190.455 138.804 193.143 140.176L193.143 140.176C201.045 144.209 214.899 151.28 203.798 151.539C191.147 155.712 185.436 158.924 179.035 162.523C174.8 164.904 170.263 167.456 163.213 170.568C155.262 174.078 145.949 173.745 138.914 173.493C135.087 173.356 131.934 173.243 130.043 173.786C129.207 174.027 129.832 174.343 130.814 174.84C132.618 175.754 135.625 177.277 132.972 180.054C124.482 188.943 117.992 190.97 111.927 192.865C108.445 193.953 105.104 194.997 101.604 197.269C92.0062 203.501 76.1479 208.61 74.6741 208.605C73.9745 208.603 73.5223 209.183 72.9246 209.949C72.2631 210.796 71.4233 211.872 69.8726 212.642C69.1375 213.006 68.1737 213.416 66.9838 213.922L66.9818 213.923L66.9787 213.924L66.9782 213.924C63.3898 215.449 57.7471 217.847 50.1178 222.515ZM343.837 94.9915L38.0771 249.567L39.0756 251.539L344.836 96.9637L343.837 94.9915ZM68.8766 175.482C66.5998 175.259 64.7876 174.53 63.4267 173.727C61.6402 172.672 59.0216 172.673 57.7256 174.292C55.8105 176.686 58.1266 180.192 61.1006 179.448C64.0515 178.711 67.0242 178.039 68.9356 177.79C69.4528 177.723 69.8806 177.334 69.9609 176.818C70.0651 176.15 69.55 175.548 68.8766 175.482ZM105.693 158.889C105.799 159.717 104.886 160.29 104.188 159.831C100.301 157.275 90.9311 151.109 85.3282 147.386C80.148 143.943 73.398 138.883 70.0148 136.313C68.9451 135.5 68.9633 133.892 70.046 133.097C70.8747 132.487 72.0324 132.59 72.764 133.313C74.8768 135.4 79.6655 139.894 87.3243 145.813C96.5771 152.964 103.489 157.147 105.213 158.161C105.479 158.317 105.654 158.584 105.693 158.889ZM111.229 170.553C111.633 170.622 111.931 170.184 111.72 169.832C111.642 169.703 111.511 169.618 111.361 169.6C110.385 169.483 106.45 168.961 100.876 167.565C96.6677 166.511 94.0817 165.383 92.7901 164.725C92.1509 164.399 91.3808 164.357 90.7417 164.683C88.799 165.675 89.6908 168.77 91.8682 168.645C95.2908 168.449 98.628 168.374 100.288 168.666C103.544 169.238 108.976 170.168 111.229 170.553ZM106.956 270.368C107.92 274.471 104.397 287.177 101.187 297.349C100.045 300.969 104.566 303.928 107.371 301.37C108.124 300.684 108.554 299.716 108.554 298.698C108.554 293.957 108.513 279.654 108.05 269.45C107.935 266.921 106.863 267.01 106.842 269.542C106.84 269.826 106.891 270.091 106.956 270.368ZM132.251 392.529L132.231 399.34L147.483 399.383C149.268 399.388 150.879 398.986 152.318 398.175C153.756 397.325 154.904 396.203 155.762 394.808C156.62 393.375 157.051 391.804 157.056 390.097C157.062 387.885 156.641 386.098 155.791 384.738C154.941 383.377 153.741 382.384 152.19 381.758C150.64 381.094 148.797 380.759 146.663 380.753L141.075 380.737C140.454 380.735 139.93 380.54 139.504 380.15C139.079 379.722 138.867 379.198 138.869 378.577C138.87 377.956 139.085 377.452 139.513 377.065C139.98 376.678 140.505 376.486 141.087 376.487L154.243 376.525L154.262 369.714L140.35 369.674C138.642 369.669 137.069 370.092 135.631 370.942C134.231 371.752 133.103 372.855 132.245 374.25C131.426 375.606 131.014 377.118 131.009 378.787C131.003 380.96 131.444 382.727 132.333 384.088C133.261 385.41 134.48 386.384 135.992 387.009C137.543 387.596 139.269 387.892 141.17 387.897L146.759 387.913C147.224 387.915 147.632 388.032 147.98 388.266C148.368 388.461 148.658 388.734 148.851 389.084C149.083 389.434 149.198 389.841 149.197 390.307C149.196 390.734 149.078 391.122 148.844 391.47C148.649 391.819 148.357 392.09 147.969 392.283C147.619 392.476 147.211 392.572 146.745 392.57L132.251 392.529ZM169.385 397.525C171.904 398.813 174.851 399.462 178.228 399.472L186.61 399.496L186.63 392.685L178.364 392.661C176.928 392.657 175.628 392.459 174.465 392.068C173.341 391.638 172.392 391.014 171.618 390.197C170.883 389.38 170.362 388.369 170.055 387.165L190.138 387.223C190.217 386.951 190.276 386.564 190.316 386.059C190.357 385.516 190.377 385.05 190.378 384.662C190.387 381.79 189.909 379.189 188.946 376.858C187.982 374.488 186.455 372.601 184.363 371.198C182.31 369.795 179.615 369.089 176.277 369.079C173.483 369.071 170.978 369.704 168.763 370.978C166.547 372.253 164.795 374.052 163.508 376.377C162.221 378.702 161.572 381.436 161.563 384.58C161.555 387.374 162.227 389.898 163.579 392.153C164.97 394.408 166.905 396.199 169.385 397.525ZM182.411 381.845L170.012 381.81C170.131 381.034 170.327 380.278 170.601 379.541C170.913 378.805 171.323 378.146 171.829 377.565C172.335 376.985 172.957 376.521 173.696 376.174C174.473 375.826 175.347 375.654 176.317 375.657C177.054 375.659 177.733 375.758 178.353 375.954C178.974 376.15 179.516 376.423 179.981 376.774C180.446 377.124 180.852 377.552 181.2 378.058C181.548 378.563 181.818 379.146 182.01 379.807C182.202 380.428 182.336 381.108 182.411 381.845ZM200.036 397.264C201.545 398.782 203.619 399.544 206.258 399.552L214.117 399.575L214.136 392.764L207.675 392.745C207.17 392.744 206.725 392.568 206.337 392.217C205.989 391.828 205.816 391.382 205.817 390.877L205.858 376.673L214.183 376.697L214.202 369.886L205.878 369.863L205.899 362.411L197.924 362.388L197.903 369.84L192.838 369.825L192.819 376.636L197.883 376.65L197.842 391.087C197.834 393.687 198.566 395.746 200.036 397.264ZM220.365 392.782L220.345 399.592L235.597 399.636C237.382 399.641 238.994 399.239 240.432 398.428C241.87 397.578 243.018 396.456 243.876 395.061C244.734 393.628 245.165 392.057 245.17 390.35C245.177 388.138 244.755 386.351 243.905 384.991C243.055 383.63 241.855 382.637 240.304 382.011C238.754 381.347 236.911 381.012 234.777 381.006L229.189 380.99C228.568 380.988 228.044 380.793 227.619 380.403C227.193 379.975 226.981 379.451 226.983 378.83C226.984 378.209 227.199 377.705 227.627 377.318C228.094 376.931 228.619 376.739 229.201 376.74L242.357 376.778L242.376 369.967L228.464 369.927C226.756 369.922 225.183 370.345 223.745 371.194C222.345 372.005 221.217 373.108 220.359 374.503C219.54 375.859 219.128 377.371 219.123 379.04C219.117 381.213 219.558 382.98 220.447 384.341C221.375 385.663 222.594 386.637 224.106 387.262C225.657 387.849 227.383 388.145 229.284 388.15L234.873 388.166C235.339 388.168 235.746 388.285 236.094 388.519C236.482 388.714 236.772 388.987 236.965 389.337C237.197 389.687 237.312 390.094 237.311 390.56C237.31 390.987 237.192 391.375 236.958 391.723C236.763 392.072 236.471 392.343 236.083 392.536C235.733 392.729 235.325 392.825 234.859 392.823L220.365 392.782ZM258.079 398.595C260.249 399.804 262.847 400.413 265.874 400.422C268.94 400.431 271.542 399.836 273.68 398.64C275.856 397.443 277.51 395.837 278.642 393.822C279.812 391.807 280.4 389.578 280.407 387.133L280.456 370.077L272.481 370.054L272.432 387.11C272.429 388.313 272.134 389.418 271.549 390.425C270.964 391.394 270.167 392.168 269.156 392.747C268.184 393.326 267.097 393.614 265.894 393.611C264.691 393.607 263.585 393.313 262.578 392.728C261.609 392.143 260.836 391.365 260.256 390.393C259.677 389.382 259.389 388.275 259.393 387.072L259.442 370.016L251.466 369.993L251.418 387.05C251.41 389.494 251.967 391.728 253.086 393.749C254.245 395.77 255.909 397.385 258.079 398.595ZM287.983 382.73L287.934 399.787L295.909 399.809L295.958 382.753C295.962 381.55 296.256 380.464 296.841 379.496C297.426 378.489 298.204 377.695 299.176 377.116C300.187 376.537 301.294 376.249 302.497 376.252C303.7 376.256 304.786 376.55 305.754 377.135C306.762 377.72 307.555 378.518 308.134 379.528C308.713 380.5 309.001 381.588 308.998 382.791L308.949 399.847L316.924 399.87L316.973 382.814C316.98 380.369 316.404 378.136 315.246 376.114C314.126 374.093 312.481 372.478 310.312 371.268C308.181 370.059 305.582 369.45 302.516 369.441C299.489 369.433 296.888 370.027 294.711 371.224C292.534 372.42 290.861 374.026 289.691 376.041C288.559 378.056 287.99 380.285 287.983 382.73ZM329.09 398.508C331.104 399.91 333.47 400.616 336.186 400.624C337.894 400.628 339.369 400.38 340.612 399.879C341.856 399.379 342.905 398.702 343.762 397.851C344.657 397 345.397 396.051 345.982 395.005L346.098 395.005L346.084 399.953L354.059 399.976L354.102 385.19C354.11 382.319 353.516 379.697 352.32 377.327C351.123 374.956 349.382 373.069 347.097 371.665C344.811 370.261 342 369.555 338.662 369.545C335.363 369.536 332.528 370.226 330.157 371.616C327.786 372.968 325.957 374.825 324.669 377.189C323.42 379.553 322.792 382.19 322.784 385.101C322.775 387.934 323.311 390.535 324.391 392.906C325.51 395.237 327.076 397.105 329.09 398.508ZM342.496 392.667C341.368 393.439 340.028 393.824 338.476 393.819C336.885 393.815 335.508 393.423 334.346 392.643C333.223 391.864 332.353 390.813 331.736 389.492C331.157 388.132 330.871 386.637 330.875 385.007C330.88 383.377 331.175 381.923 331.761 380.644C332.386 379.326 333.262 378.281 334.39 377.508C335.556 376.735 336.935 376.351 338.526 376.356C340.078 376.36 341.416 376.752 342.539 377.531C343.663 378.311 344.513 379.361 345.092 380.682C345.709 381.965 346.015 383.421 346.011 385.051C346.006 386.681 345.691 388.174 345.066 389.53C344.48 390.848 343.624 391.894 342.496 392.667Z" fill="#F4F4F4"/>
</svg>
