<svg width="515" height="477" viewBox="0 0 515 477" fill="none" xmlns="http://www.w3.org/2000/svg">
<path fill-rule="evenodd" clip-rule="evenodd" d="M514.596 1.47616L15.3389 0.0429884L15.048 101.375L12.7126 101.368C10.3953 101.362 8.26061 101.935 6.30863 103.088C4.40946 104.188 2.87782 105.685 1.71372 107.578C0.602431 109.418 0.0435369 111.47 0.037036 113.735C0.0285696 116.684 0.627355 119.082 1.83339 120.929C3.09225 122.723 4.74746 124.045 6.79903 124.893C8.90342 125.689 11.2459 126.091 13.8266 126.099L14.977 126.102L14.9589 132.422L1.72151 132.384L1.69498 141.627L14.9323 141.665L13.9753 475.041L513.232 476.474L514.596 1.47616ZM15.0049 116.385L14.977 126.102L21.4106 126.12C22.0426 126.122 22.5951 126.282 23.0682 126.599C23.5941 126.864 23.9881 127.234 24.25 127.709C24.5647 128.183 24.7211 128.737 24.7193 129.369C24.7176 129.948 24.5581 130.474 24.2407 130.948C23.976 131.421 23.58 131.788 23.0526 132.05C22.5778 132.312 22.0244 132.442 21.3924 132.44L14.9589 132.422L14.9323 141.665L22.3929 141.686C24.8156 141.693 27.0028 141.146 28.9546 140.046C30.9066 138.893 32.4647 137.37 33.6288 135.477C34.793 133.532 35.3785 131.401 35.3851 129.083C35.3937 126.082 34.8214 123.657 33.668 121.811C32.5146 119.964 30.8858 118.616 28.7816 117.767C26.6775 116.866 24.1771 116.411 21.2805 116.403L15.0049 116.385ZM15.0049 116.385L15.0214 110.618L31.567 110.665L31.5935 101.422L15.048 101.375L15.0214 110.618L13.7131 110.614C12.9231 110.612 12.2113 110.873 11.5778 111.398C10.9969 111.923 10.7053 112.607 10.7029 113.45C10.7005 114.292 10.9881 115.004 11.5658 115.585C12.1436 116.113 12.8538 116.379 13.6965 116.381L15.0049 116.385ZM130.05 395.922C113.974 380.838 100.487 363.177 90.163 343.642L266.759 250.477L441.062 158.521C437.153 162.652 433.423 171.051 430.423 177.807L430.423 177.807L430.423 177.808C428.127 182.978 426.259 187.185 425.066 187.777C424.764 187.927 424.467 187.34 424.017 186.452C422.783 184.015 420.399 179.307 413.601 181.321C411.469 181.953 405.962 188.392 400.529 194.747L400.528 194.748L400.528 194.748C395.254 200.916 390.049 207.004 388.063 207.623C385.521 206.853 384.667 205.44 383.78 203.974C382.926 202.563 382.043 201.102 379.598 200.117C377.124 199.12 373.459 202.438 370.762 204.879C368.024 207.359 366.284 208.934 367.807 204.163C370.216 196.616 353.988 212.031 344.109 221.415L344.108 221.417L344.106 221.419C341.591 223.808 339.488 225.806 338.209 226.933C336.746 228.224 334.31 257.35 342.563 275.331C350.816 293.312 331.38 344.635 327.565 309.208C324.502 280.77 315.078 287.348 309.412 291.303C308.019 292.275 306.854 293.088 306.066 293.184C303.397 293.49 303.028 300.367 302.569 308.92C301.568 327.574 300.139 354.197 273.485 337.984C245.053 320.69 240.519 351.588 238.186 367.479C237.33 373.316 236.77 377.128 235.433 375.785C233.884 374.228 232.162 365.386 230.028 354.422C225.303 330.155 218.555 295.496 207.174 306.458C204.445 309.087 202.176 324.211 200.105 338.017C198.503 348.692 197.02 358.578 195.533 361.294C194.993 362.282 195.074 360.726 195.221 357.893C195.578 351.048 196.322 336.745 189.625 332.845C183.01 328.993 175.124 343.392 169.435 353.78C166.979 358.263 164.933 361.999 163.575 363.198C161.873 364.701 161.109 362.147 160.169 359.004C158.622 353.831 156.598 347.062 149.123 354.178C149.123 354.178 143.481 362.053 143.586 369.625C143.675 376 137.476 395.204 130.05 395.922ZM130.05 395.922C133.042 398.729 136.123 401.447 139.29 404.07C159.479 420.795 182.766 433.383 207.824 441.116C232.881 448.848 259.218 451.574 285.33 449.138C311.441 446.702 336.817 439.151 360.008 426.916C383.199 414.681 403.751 398.003 420.49 377.833C437.23 357.662 449.829 334.396 457.568 309.36C465.308 284.325 468.036 258.012 465.597 231.924C463.159 205.835 455.601 180.482 443.355 157.312L441.062 158.521C441.682 157.866 442.307 157.318 442.934 156.902L266.338 250.067L89.742 343.232C95.8439 354.777 106.071 387.629 108.082 416.412C108.981 429.282 108.36 441.934 107.873 451.85C107.264 464.262 106.865 472.387 109.921 471.287C111.846 470.908 112.815 456.557 113.935 439.996C115.634 414.852 117.678 384.613 123.929 390.429C124.233 391.042 124.596 391.281 124.911 391.489C125.11 391.62 125.289 391.739 125.422 391.93C125.935 392.669 126.409 393.06 126.823 393.401L126.824 393.402C127.037 393.578 127.235 393.74 127.414 393.931C128.328 394.966 129.701 395.947 129.904 395.934C129.953 395.93 130.001 395.927 130.05 395.922ZM81.6046 301.504C71.0066 277.536 65.2372 251.718 64.6259 225.523C64.0146 199.329 68.5734 173.27 78.0419 148.835C81.6207 139.6 85.8743 130.665 90.7591 122.099L90.7352 130.427C90.7251 133.956 91.7177 136.75 93.7131 138.81C95.7612 140.87 98.5759 141.905 102.157 141.915L112.822 141.946L112.849 132.703L104.08 132.678C103.395 132.676 102.79 132.437 102.265 131.961C101.792 131.433 101.557 130.827 101.559 130.142L101.614 110.867L112.911 110.899L112.938 101.656L104.158 101.631C108.985 95.1606 114.211 88.9757 119.81 83.1139C137.917 64.1595 159.583 48.9539 183.572 38.3654C207.561 27.7769 233.402 22.0128 259.62 21.4021C285.839 20.7915 311.921 25.3463 336.377 34.8066C360.834 44.2668 383.186 58.4472 402.157 76.538C421.129 94.6289 436.348 116.276 446.946 140.243L446.945 140.243C446.945 140.243 361.325 174.624 348.327 180.573C340.174 184.304 325.561 180.952 316.166 178.797C310.581 177.516 306.84 176.658 307.395 177.961C307.861 179.057 309.456 179.813 311.333 180.702C315.446 182.652 320.914 185.243 318.833 193.457C316.537 202.526 288.762 192.89 275.67 188.349C271.491 186.899 268.808 185.968 268.928 186.331C269.053 186.711 271.762 188.093 275.405 189.952L275.405 189.952C286.112 195.416 304.885 204.995 289.842 205.346C272.7 211 264.962 215.351 256.289 220.227C250.55 223.453 244.402 226.91 234.849 231.126C224.076 235.882 211.456 235.43 201.925 235.089L201.925 235.089L201.925 235.089C196.738 234.903 192.466 234.75 189.903 235.487C188.771 235.812 189.618 236.241 190.948 236.915C193.393 238.152 197.468 240.215 193.873 243.978C182.369 256.021 173.575 258.767 165.356 261.334C160.639 262.808 156.111 264.222 151.369 267.3C138.364 275.743 116.876 282.665 114.879 282.659C113.931 282.656 113.318 283.441 112.508 284.479C111.612 285.627 110.474 287.085 108.373 288.127C107.375 288.622 106.067 289.178 104.451 289.864L104.451 289.865C99.5882 291.931 91.9423 295.18 81.6046 301.504ZM81.6046 301.504L81.6047 301.504L81.6041 301.504L81.6046 301.504ZM101.631 105.095C102.461 103.932 103.303 102.777 104.158 101.631L101.641 101.624L101.67 91.5116L90.847 91.4805L90.818 101.593L83.945 101.573L83.9185 110.816L90.7914 110.835L90.7591 122.099C92.9395 118.275 95.2457 114.525 97.6737 110.855C98.9588 108.913 100.278 106.992 101.631 105.095ZM479.595 128.734L65.2884 338.151L66.6437 340.827L480.951 131.411L479.595 128.734ZM107.023 237.784C103.938 237.482 101.482 236.494 99.6375 235.405C97.2172 233.977 93.6699 233.977 91.914 236.171C89.3189 239.414 92.4567 244.164 96.4862 243.157C100.485 242.158 104.513 241.248 107.103 240.91C107.804 240.819 108.384 240.292 108.492 239.594C108.634 238.688 107.936 237.873 107.023 237.784ZM156.91 215.304C157.053 216.426 155.817 217.202 154.871 216.58C149.603 213.117 136.907 204.764 129.315 199.719C122.296 195.055 113.15 188.2 108.565 184.718C107.116 183.617 107.141 181.439 108.608 180.361C109.731 179.535 111.299 179.674 112.29 180.653C115.153 183.481 121.642 189.57 132.02 197.589C144.558 207.277 153.923 212.944 156.26 214.318C156.619 214.529 156.857 214.89 156.91 215.304ZM164.411 231.106C164.959 231.199 165.362 230.606 165.076 230.13C164.971 229.954 164.793 229.839 164.59 229.814C163.268 229.656 157.936 228.95 150.383 227.058C144.68 225.63 141.176 224.102 139.426 223.21C138.56 222.768 137.517 222.712 136.651 223.154C134.018 224.497 135.226 228.69 138.176 228.521C142.814 228.255 147.336 228.154 149.586 228.549C153.997 229.325 161.357 230.584 164.411 231.106ZM158.621 366.334C159.926 371.893 155.153 389.105 150.805 402.886C149.257 407.791 155.383 411.801 159.184 408.335C160.204 407.405 160.787 406.095 160.787 404.714C160.787 398.292 160.73 378.915 160.103 365.09C159.947 361.664 158.494 361.785 158.467 365.214C158.463 365.599 158.533 365.959 158.621 366.334ZM52.1166 139.165C55.5349 140.912 59.5351 141.793 64.1171 141.806L75.493 141.839L75.5196 132.596L64.3016 132.564C62.3529 132.558 60.5894 132.29 59.0109 131.758C57.4852 131.175 56.1973 130.328 55.1472 129.219C54.1497 128.11 53.4426 126.739 53.026 125.105L80.2808 125.183C80.3872 124.815 80.4678 124.289 80.5224 123.604C80.5772 122.867 80.6053 122.235 80.6068 121.708C80.618 117.811 79.9698 114.28 78.6622 111.117C77.3548 107.9 75.2818 105.34 72.4432 103.436C69.6574 101.532 65.9998 100.573 61.4705 100.56C57.6785 100.549 54.279 101.409 51.272 103.138C48.265 104.867 45.888 107.31 44.141 110.465C42.3939 113.62 41.5142 117.33 41.502 121.596C41.4911 125.388 42.4029 128.814 44.2375 131.874C46.1247 134.934 48.7511 137.364 52.1166 139.165ZM69.7948 117.885L52.9678 117.837C53.1288 116.784 53.3951 115.758 53.7667 114.758C54.1909 113.759 54.7464 112.865 55.4334 112.077C56.1203 111.289 56.9648 110.659 57.9668 110.188C59.0215 109.717 60.2072 109.484 61.5238 109.487C62.5245 109.49 63.4458 109.625 64.2877 109.89C65.1296 110.156 65.8659 110.527 66.4965 111.003C67.1271 111.479 67.6785 112.059 68.1505 112.745C68.6225 113.432 68.9889 114.223 69.2497 115.119C69.5106 115.962 69.6923 116.884 69.7948 117.885ZM121.301 132.727L121.275 141.97L141.972 142.03C144.395 142.036 146.582 141.49 148.534 140.389C150.486 139.236 152.044 137.713 153.208 135.821C154.373 133.875 154.958 131.744 154.965 129.427C154.973 126.425 154.401 124 153.248 122.154C152.094 120.307 150.465 118.959 148.361 118.111C146.257 117.209 143.757 116.755 140.86 116.746L133.276 116.724C132.433 116.722 131.723 116.457 131.145 115.928C130.568 115.347 130.28 114.636 130.282 113.793C130.285 112.95 130.577 112.266 131.157 111.741C131.791 111.216 132.503 110.955 133.293 110.957L151.147 111.009L151.173 101.766L132.292 101.712C129.975 101.705 127.84 102.278 125.888 103.431C123.989 104.532 122.457 106.028 121.293 107.921C120.182 109.761 119.623 111.814 119.617 114.078C119.608 117.028 120.207 119.426 121.413 121.272C122.672 123.067 124.327 124.388 126.379 125.237C128.483 126.033 130.826 126.434 133.406 126.442L140.99 126.464C141.622 126.465 142.175 126.625 142.648 126.942C143.174 127.207 143.568 127.577 143.83 128.052C144.144 128.527 144.301 129.08 144.299 129.712C144.297 130.291 144.138 130.818 143.82 131.291C143.556 131.764 143.16 132.132 142.632 132.393C142.157 132.655 141.604 132.785 140.972 132.784L121.301 132.727ZM172.483 140.616C175.428 142.257 178.954 143.084 183.062 143.095C187.223 143.107 190.754 142.301 193.655 140.677C196.609 139.053 198.854 136.873 200.389 134.139C201.977 131.405 202.775 128.379 202.785 125.061L202.851 101.914L192.028 101.883L191.962 125.03C191.957 126.663 191.558 128.162 190.764 129.53C189.97 130.844 188.887 131.894 187.516 132.68C186.197 133.466 184.721 133.857 183.088 133.853C181.456 133.848 179.956 133.449 178.589 132.655C177.274 131.861 176.224 130.804 175.438 129.486C174.652 128.114 174.261 126.612 174.266 124.979L174.332 101.832L163.509 101.801L163.443 124.948C163.433 128.266 164.188 131.297 165.708 134.04C167.28 136.783 169.538 138.975 172.483 140.616ZM213.066 119.087L213 142.233L223.823 142.264L223.889 119.118C223.894 117.485 224.293 116.011 225.087 114.697C225.881 113.33 226.937 112.253 228.256 111.467C229.628 110.681 231.13 110.29 232.763 110.295C234.395 110.3 235.869 110.699 237.183 111.493C238.55 112.287 239.627 113.369 240.413 114.741C241.199 116.06 241.59 117.536 241.585 119.168L241.519 142.315L252.342 142.346L252.408 119.199C252.418 115.881 251.636 112.851 250.064 110.108C248.545 107.365 246.313 105.173 243.368 103.531C240.476 101.89 236.95 101.064 232.789 101.052C228.681 101.04 225.15 101.846 222.196 103.471C219.242 105.095 216.971 107.274 215.383 110.008C213.848 112.742 213.076 115.769 213.066 119.087ZM268.853 140.498C271.586 142.402 274.796 143.359 278.482 143.369C280.8 143.376 282.802 143.039 284.489 142.36C286.177 141.68 287.601 140.762 288.763 139.607C289.978 138.452 290.982 137.164 291.776 135.745L291.934 135.745L291.915 142.46L302.738 142.491L302.796 122.425C302.807 118.528 302.001 114.97 300.377 111.753C298.754 108.536 296.391 105.975 293.289 104.07C290.187 102.165 286.372 101.206 281.843 101.193C277.366 101.18 273.519 102.117 270.3 104.004C267.082 105.838 264.6 108.359 262.853 111.566C261.158 114.774 260.305 118.353 260.294 122.303C260.283 126.148 261.01 129.679 262.475 132.895C263.994 136.06 266.119 138.594 268.853 140.498ZM287.045 132.571C285.515 133.62 283.697 134.141 281.59 134.135C279.431 134.129 277.562 133.597 275.986 132.539C274.461 131.481 273.28 130.056 272.443 128.263C271.658 126.417 271.269 124.389 271.275 122.177C271.282 119.965 271.682 117.991 272.477 116.255C273.325 114.467 274.514 113.048 276.044 111.999C277.627 110.95 279.499 110.429 281.658 110.435C283.765 110.441 285.58 110.973 287.104 112.031C288.629 113.089 289.783 114.514 290.568 116.307C291.406 118.047 291.821 120.024 291.815 122.236C291.809 124.448 291.382 126.474 290.534 128.315C289.739 130.103 288.576 131.522 287.045 132.571Z" fill="#00D1FF"/>
</svg>
