<svg width="104" height="338" viewBox="0 0 104 338" fill="none" xmlns="http://www.w3.org/2000/svg">
<path d="M39.268 6.08683H50.1127V31.9076C50.1127 33.1701 50.4283 34.3175 51.0594 35.3505C51.6908 36.3831 52.5227 37.2153 53.5556 37.8464C54.6457 38.4775 55.8219 38.7931 57.0845 38.7931C58.4041 38.7931 59.5804 38.4775 60.6133 37.8464C61.7034 37.2153 62.5641 36.3831 63.1952 35.3505C63.8266 34.3175 64.1422 33.1701 64.1422 31.9076V21.8375C64.1422 18.4521 64.8307 15.3823 66.2077 12.6281C67.5848 9.87386 69.5644 7.66474 72.1466 6.00076C74.7861 4.39411 77.942 3.59082 81.6142 3.59082C85.229 3.59082 88.3564 4.36544 90.9956 5.91468C93.6926 7.46393 95.787 9.55828 97.2788 12.1978C98.7707 14.8372 99.5166 17.7636 99.5166 20.9768V47.1419H88.6719V22.1818C88.6719 21.0342 88.3564 19.9727 87.7252 18.9972C87.1512 18.0218 86.3767 17.2471 85.4012 16.6733C84.4257 16.1569 83.3357 15.8987 82.1305 15.8987C80.9257 15.8987 79.8354 16.1569 78.8598 16.6733C77.8846 17.2471 77.1098 18.0218 76.5361 18.9972C75.9624 19.9727 75.6754 21.0342 75.6754 22.1818V32.5961C75.6754 36.326 74.958 39.5678 73.5236 42.3219C72.0891 45.0763 70.081 47.1993 67.4988 48.6911C64.9167 50.2403 61.9044 51.0151 58.4615 51.0151C54.3875 51.0151 50.9161 50.2118 48.0472 48.6051C45.178 47.0559 42.9976 44.9329 41.5058 42.236C40.014 39.5964 39.268 36.6701 39.268 33.4568V6.08683ZM39.268 75.4568C39.268 72.1287 40.0714 69.0876 41.678 66.3335C43.2847 63.6365 45.4365 61.4847 48.1331 59.8781C50.8875 58.2714 53.9286 57.4681 57.2567 57.4681C59.6664 57.4681 61.933 57.9847 64.0559 59.0174C66.1792 60.0503 68.044 61.4562 69.6506 63.2347C71.2573 61.4562 73.1221 60.0503 75.245 59.0174C77.368 57.9847 79.6057 57.4681 81.9583 57.4681C85.229 57.4681 88.1841 58.2429 90.8237 59.7921C93.463 61.3988 95.5574 63.5217 97.1066 66.1613C98.7133 68.858 99.5166 71.8131 99.5166 75.0264V99.8143H88.6719V76.4034C88.6719 75.1986 88.3564 74.0797 87.7252 73.0468C87.1512 72.0713 86.3479 71.2679 85.3153 70.6368C84.3397 70.0631 83.2208 69.7761 81.9583 69.7761C80.7535 69.7761 79.6346 70.0631 78.6017 70.6368C77.6261 71.2679 76.8231 72.0713 76.1917 73.0468C75.618 74.0797 75.331 75.1986 75.331 76.4034V96.888H64.4863V76.9201C64.4863 75.6001 64.1422 74.3953 63.4537 73.3049C62.8222 72.2149 61.9618 71.3542 60.8715 70.7228C59.7812 70.0917 58.5763 69.7761 57.2567 69.7761C55.9368 69.7761 54.7319 70.0917 53.6416 70.7228C52.5516 71.3542 51.6908 72.2149 51.0594 73.3049C50.4283 74.3953 50.1127 75.6001 50.1127 76.9201L50.1127 99.8143H39.268L39.268 75.4568ZM55.9656 106.723H66.724V131.08H55.9656V106.723ZM39.268 149.007C39.268 146.712 39.7558 144.703 40.7313 142.982C41.764 141.261 43.1125 139.912 44.7765 138.937C46.4405 138.019 48.3053 137.56 50.3709 137.56C52.322 137.56 54.2153 138.048 56.0516 139.023C57.8878 140.056 59.3797 141.376 60.5271 142.982L73.7817 161.487C74.6999 162.75 75.7902 163.696 77.0524 164.327C78.315 164.959 79.6346 165.274 81.0116 165.274C82.6183 165.274 83.9668 164.93 85.0568 164.241C86.2045 163.553 87.0938 162.577 87.7252 161.315C88.3564 160.053 88.6719 158.532 88.6719 156.753V140.83H99.5166V158.217C99.5166 162.176 98.6847 165.59 97.0207 168.459C95.3567 171.328 93.1189 173.537 90.3071 175.086C87.553 176.693 84.4545 177.496 81.0116 177.496C77.569 177.496 74.5277 176.807 71.8884 175.43C69.3062 174.111 66.9825 171.93 64.9167 168.889L52.3505 150.384C52.2931 150.269 52.1498 150.126 51.9201 149.954C51.7482 149.782 51.5186 149.696 51.2316 149.696C50.8301 149.696 50.5431 149.81 50.3709 150.04C50.199 150.269 50.1127 150.585 50.1127 150.987V179.303H39.268V149.007ZM39.268 187.96L86.0038 213.178C86.5775 213.465 87.0653 213.608 87.4668 213.608C87.8112 213.608 88.0982 213.493 88.3275 213.264C88.5571 213.034 88.6719 212.719 88.6719 212.317V184.861H99.5166L99.5166 213.866C99.5166 216.104 99.0003 218.113 97.9674 219.891C96.9344 221.727 95.5574 223.191 93.8359 224.281C92.1719 225.371 90.2786 225.916 88.1556 225.916C87.0079 225.916 85.8601 225.773 84.7127 225.486C83.6224 225.199 82.5897 224.826 81.6142 224.367L39.268 201.903V187.96Z" fill="#52D5F2"/>
<path d="M16.3271 139.516C16.3271 138.852 16.498 138.272 16.84 137.778C17.1819 137.284 17.6378 136.9 18.2077 136.624C18.7871 136.358 19.4235 136.225 20.1169 136.225C20.8292 136.225 21.4751 136.377 22.0545 136.681C22.6339 136.995 23.0898 137.441 23.4222 138.021C23.7642 138.6 23.9351 139.293 23.9351 140.101C23.9351 140.917 23.7642 141.606 23.4222 142.166C23.0803 142.727 22.6196 143.154 22.0402 143.449C21.4609 143.743 20.8197 143.89 20.1169 143.89H16.498V141.939H17.7091V141.91C17.4526 141.768 17.2199 141.587 17.0109 141.369C16.802 141.16 16.6358 140.903 16.5123 140.599C16.3888 140.295 16.3271 139.934 16.3271 139.516ZM17.994 140.072C17.994 140.452 18.089 140.78 18.279 141.055C18.4689 141.331 18.7254 141.54 19.0483 141.682C19.3808 141.834 19.7464 141.91 20.1454 141.91C20.5443 141.91 20.9005 141.834 21.2139 141.682C21.5368 141.54 21.7933 141.331 21.9833 141.055C22.1732 140.78 22.2682 140.452 22.2682 140.072C22.2682 139.683 22.1732 139.346 21.9833 139.061C21.7933 138.785 21.5368 138.571 21.2139 138.419C20.9005 138.277 20.5443 138.206 20.1454 138.206C19.7464 138.206 19.3808 138.277 19.0483 138.419C18.7254 138.571 18.4689 138.785 18.279 139.061C18.089 139.346 17.994 139.683 17.994 140.072ZM16.498 145.738H20.6725C21.2709 145.738 21.817 145.876 22.3109 146.151C22.8049 146.436 23.199 146.845 23.4935 147.377C23.7879 147.909 23.9351 148.545 23.9351 149.286C23.9351 150.036 23.7879 150.673 23.4935 151.195C23.199 151.727 22.8049 152.13 22.3109 152.406C21.817 152.691 21.2709 152.833 20.6725 152.833H16.498V150.881H20.6725C20.9669 150.881 21.2329 150.81 21.4704 150.668C21.7173 150.525 21.912 150.331 22.0545 150.084C22.197 149.846 22.2682 149.58 22.2682 149.286C22.2682 148.991 22.197 148.721 22.0545 148.474C21.912 148.236 21.7173 148.046 21.4704 147.904C21.2329 147.761 20.9669 147.69 20.6725 147.69H16.498V145.738ZM16.3271 158.09C16.3271 157.482 16.4221 156.936 16.612 156.451C16.8115 155.976 17.0869 155.577 17.4384 155.254C17.7993 154.931 18.2172 154.684 18.6921 154.514C19.1765 154.343 19.7037 154.257 20.2736 154.257C20.9954 154.257 21.6271 154.4 22.1685 154.684C22.7194 154.979 23.1515 155.387 23.465 155.91C23.7784 156.442 23.9351 157.059 23.9351 157.762C23.9351 158.066 23.8924 158.356 23.8069 158.631C23.7214 158.916 23.598 159.172 23.4365 159.4C23.275 159.628 23.085 159.814 22.8666 159.956V159.97H26.8986V161.922H20.2736C19.4757 161.922 18.7776 161.765 18.1792 161.452C17.5903 161.139 17.1344 160.697 16.8115 160.127C16.4885 159.557 16.3271 158.878 16.3271 158.09ZM17.994 158.09C17.994 158.479 18.089 158.811 18.279 159.087C18.4689 159.362 18.7254 159.571 19.0483 159.714C19.3713 159.866 19.7322 159.942 20.1311 159.942C20.53 159.942 20.891 159.866 21.2139 159.714C21.5368 159.571 21.7933 159.362 21.9833 159.087C22.1732 158.811 22.2682 158.479 22.2682 158.09C22.2682 157.71 22.1732 157.377 21.9833 157.092C21.7933 156.817 21.5368 156.603 21.2139 156.451C20.891 156.309 20.53 156.237 20.1311 156.237C19.7322 156.237 19.3713 156.309 19.0483 156.451C18.7254 156.603 18.4689 156.817 18.279 157.092C18.089 157.377 17.994 157.71 17.994 158.09Z" fill="#52D5F2"/>
<path d="M16.3271 173.626C16.3271 173.018 16.4221 172.472 16.612 171.987C16.8115 171.512 17.0869 171.113 17.4384 170.79C17.7993 170.467 18.2172 170.221 18.6921 170.05C19.1765 169.879 19.7037 169.793 20.2736 169.793C20.9954 169.793 21.6271 169.936 22.1685 170.221C22.7194 170.515 23.1515 170.923 23.465 171.446C23.7784 171.978 23.9351 172.595 23.9351 173.298C23.9351 173.602 23.8924 173.892 23.8069 174.167C23.7214 174.452 23.598 174.708 23.4365 174.936C23.275 175.164 23.085 175.35 22.8666 175.492V175.506H26.8986V177.458H20.2736C19.4757 177.458 18.7776 177.301 18.1792 176.988C17.5903 176.675 17.1344 176.233 16.8115 175.663C16.4885 175.093 16.3271 174.414 16.3271 173.626ZM17.994 173.626C17.994 174.015 18.089 174.347 18.279 174.623C18.4689 174.898 18.7254 175.107 19.0483 175.25C19.3713 175.402 19.7322 175.478 20.1311 175.478C20.53 175.478 20.891 175.402 21.2139 175.25C21.5368 175.107 21.7933 174.898 21.9833 174.623C22.1732 174.347 22.2682 174.015 22.2682 173.626C22.2682 173.246 22.1732 172.913 21.9833 172.628C21.7933 172.353 21.5368 172.139 21.2139 171.987C20.891 171.845 20.53 171.773 20.1311 171.773C19.7322 171.773 19.3713 171.845 19.0483 171.987C18.7254 172.139 18.4689 172.353 18.279 172.628C18.089 172.913 17.994 173.246 17.994 173.626ZM16.498 182.898C16.498 182.072 16.6548 181.35 16.9682 180.732C17.2911 180.124 17.7281 179.65 18.279 179.308C18.8299 178.975 19.4472 178.809 20.1311 178.809C20.9005 178.809 21.5701 178.966 22.14 179.279C22.7099 179.593 23.1515 180.02 23.465 180.561C23.7784 181.103 23.9351 181.715 23.9351 182.399C23.9351 183.216 23.7642 183.876 23.4222 184.38C23.0803 184.893 22.6196 185.268 22.0402 185.505C21.4704 185.743 20.834 185.861 20.1311 185.861C20.0361 185.861 19.9221 185.857 19.7892 185.847C19.6657 185.838 19.5707 185.823 19.5042 185.804V180.889C19.2098 180.965 18.9628 181.093 18.7634 181.274C18.5639 181.464 18.4119 181.696 18.3075 181.972C18.2125 182.257 18.165 182.575 18.165 182.926V184.95H16.498V182.898ZM20.815 180.875V183.909C20.9954 183.89 21.1617 183.857 21.3136 183.81C21.4751 183.762 21.6176 183.696 21.7411 183.61C21.8645 183.525 21.969 183.425 22.0545 183.311C22.14 183.197 22.2065 183.064 22.254 182.912C22.3014 182.76 22.3252 182.594 22.3252 182.414C22.3252 182.176 22.2825 181.962 22.197 181.772C22.1115 181.592 21.9975 181.44 21.855 181.316C21.7126 181.193 21.5511 181.093 21.3706 181.017C21.1902 180.951 21.0049 180.903 20.815 180.875ZM16.498 187.265H18.165V190.813C18.165 190.927 18.1887 191.026 18.2362 191.112C18.2837 191.207 18.3502 191.278 18.4357 191.326C18.5212 191.383 18.6161 191.411 18.7206 191.411C18.8346 191.411 18.9343 191.383 19.0198 191.326C19.1053 191.278 19.1718 191.207 19.2193 191.112C19.2763 191.026 19.3048 190.927 19.3048 190.813V189.445C19.3048 188.979 19.376 188.557 19.5185 188.177C19.6704 187.806 19.9079 187.507 20.2308 187.279C20.5633 187.061 20.9954 186.952 21.5273 186.952C21.9358 186.952 22.3062 187.051 22.6386 187.251C22.9806 187.46 23.2513 187.735 23.4507 188.077C23.6597 188.429 23.7642 188.813 23.7642 189.231V192.636H22.0972V189.416C22.0972 189.274 22.0497 189.146 21.9548 189.032C21.8598 188.927 21.7363 188.875 21.5843 188.875C21.4324 188.875 21.3041 188.927 21.1997 189.032C21.1047 189.136 21.0572 189.264 21.0572 189.416V190.784C21.0572 191.307 20.9764 191.758 20.815 192.138C20.663 192.518 20.4208 192.812 20.0884 193.021C19.7559 193.23 19.319 193.334 18.7776 193.334C18.3597 193.334 17.975 193.23 17.6236 193.021C17.2816 192.812 17.0062 192.532 16.7972 192.18C16.5978 191.829 16.498 191.435 16.498 190.998V187.265ZM16.498 194.861H23.7642V196.827H16.498V194.861ZM24.6333 195.844C24.6333 195.512 24.752 195.222 24.9894 194.975C25.2364 194.738 25.5261 194.619 25.8585 194.619C26.191 194.619 26.4759 194.738 26.7134 194.975C26.9603 195.222 27.0838 195.512 27.0838 195.844C27.0838 196.177 26.9603 196.462 26.7134 196.699C26.4759 196.946 26.191 197.069 25.8585 197.069C25.5261 197.069 25.2364 196.946 24.9894 196.699C24.752 196.462 24.6333 196.177 24.6333 195.844ZM13.6058 199.756H15.2728V203.489C15.2728 203.622 15.3203 203.731 15.4153 203.817C15.5007 203.902 15.6052 203.945 15.7287 203.945H17.5096V203.931C17.2627 203.712 17.0632 203.489 16.9112 203.261C16.7592 203.033 16.6453 202.786 16.5693 202.52C16.5028 202.264 16.4696 201.979 16.4696 201.666C16.4696 201.02 16.6215 200.436 16.9255 199.913C17.2389 199.4 17.6758 198.992 18.2362 198.688C18.7966 198.384 19.4472 198.232 20.1881 198.232C20.891 198.232 21.5226 198.379 22.083 198.674C22.6529 198.978 23.104 199.415 23.4365 199.984C23.7689 200.554 23.9351 201.248 23.9351 202.065C23.9351 202.853 23.7737 203.532 23.4507 204.102C23.1278 204.672 22.6719 205.113 22.083 205.427C21.4941 205.74 20.796 205.897 19.9886 205.897H15.6717C15.0353 205.897 14.5319 205.712 14.1615 205.341C13.7911 204.98 13.6058 204.477 13.6058 203.831V199.756ZM18.1365 202.065C18.1365 202.454 18.2267 202.786 18.4072 203.062C18.5877 203.337 18.8251 203.546 19.1195 203.689C19.4235 203.841 19.7607 203.917 20.1311 203.917C20.53 203.917 20.891 203.841 21.2139 203.689C21.5368 203.546 21.7933 203.337 21.9833 203.062C22.1732 202.786 22.2682 202.454 22.2682 202.065C22.2682 201.685 22.1732 201.352 21.9833 201.067C21.8028 200.792 21.5558 200.578 21.2424 200.426C20.929 200.284 20.5775 200.212 20.1881 200.212C19.8082 200.212 19.4615 200.284 19.148 200.426C18.8441 200.578 18.5971 200.792 18.4072 201.067C18.2267 201.352 18.1365 201.685 18.1365 202.065ZM16.498 207.675H20.6725C21.2709 207.675 21.817 207.813 22.3109 208.088C22.8049 208.373 23.199 208.782 23.4935 209.314C23.7879 209.846 23.9351 210.482 23.9351 211.223C23.9351 211.973 23.7879 212.61 23.4935 213.132C23.199 213.664 22.8049 214.068 22.3109 214.343C21.817 214.628 21.2709 214.77 20.6725 214.77H16.498V212.819H20.6725C20.9669 212.819 21.2329 212.747 21.4704 212.605C21.7173 212.462 21.912 212.268 22.0545 212.021C22.197 211.783 22.2682 211.517 22.2682 211.223C22.2682 210.928 22.197 210.658 22.0545 210.411C21.912 210.173 21.7173 209.983 21.4704 209.841C21.2329 209.698 20.9669 209.627 20.6725 209.627H16.498V207.675ZM16.3271 217.59C16.3271 217.23 16.4553 216.916 16.7118 216.65C16.9777 216.394 17.2911 216.265 17.6521 216.265C18.013 216.265 18.3217 216.394 18.5782 216.65C18.8441 216.916 18.9771 217.23 18.9771 217.59C18.9771 217.951 18.8441 218.26 18.5782 218.517C18.3217 218.782 18.013 218.915 17.6521 218.915C17.4146 218.915 17.1914 218.854 16.9825 218.73C16.783 218.616 16.6215 218.46 16.498 218.26C16.3841 218.061 16.3271 217.837 16.3271 217.59Z" fill="#52D5F2"/>
<path d="M16.3271 7.56814C16.3271 7.07424 16.4221 6.62307 16.612 6.21465C16.8115 5.80623 17.1107 5.47854 17.5096 5.23159C17.9085 4.99413 18.4119 4.8754 19.0198 4.8754H23.7642V6.82728H18.7349C18.6019 6.82728 18.4784 6.86053 18.3644 6.92701C18.2505 6.9935 18.1602 7.08374 18.0937 7.19771C18.0273 7.31169 17.994 7.43517 17.994 7.56814C17.994 7.70112 18.0273 7.82459 18.0937 7.93857C18.1602 8.05255 18.2505 8.14278 18.3644 8.20927C18.4784 8.27576 18.6019 8.309 18.7349 8.309H21.2424C21.8123 8.309 22.2967 8.41823 22.6956 8.63669C23.0945 8.86465 23.3985 9.17809 23.6074 9.57701C23.8259 9.98544 23.9351 10.4603 23.9351 11.0017C23.9351 11.5431 23.8259 12.0133 23.6074 12.4122C23.3985 12.8206 23.0945 13.1341 22.6956 13.3525C22.2967 13.5805 21.8123 13.6945 21.2424 13.6945H18.7349C18.6019 13.6945 18.4784 13.7277 18.3644 13.7942C18.2505 13.8607 18.1602 13.9509 18.0937 14.0649C18.0273 14.1789 17.994 14.3024 17.994 14.4353C17.994 14.5778 18.0273 14.7013 18.0937 14.8058C18.1602 14.9197 18.2505 15.01 18.3644 15.0765C18.4784 15.143 18.6019 15.1762 18.7349 15.1762H23.7642V17.1281H19.0198C18.4119 17.1281 17.9085 17.0046 17.5096 16.7577C17.1107 16.5202 16.8115 16.1973 16.612 15.7888C16.4221 15.3804 16.3271 14.9292 16.3271 14.4353C16.3271 13.9509 16.4221 13.5045 16.612 13.0961C16.8115 12.6877 17.1107 12.36 17.5096 12.113C17.9085 11.8661 18.4119 11.7426 19.0198 11.7426H21.5273C21.6698 11.7426 21.7933 11.7094 21.8978 11.6429C22.0118 11.5764 22.102 11.4862 22.1685 11.3722C22.235 11.2677 22.2682 11.1442 22.2682 11.0017C22.2682 10.8688 22.235 10.7453 22.1685 10.6313C22.102 10.5173 22.0118 10.4271 21.8978 10.3606C21.7933 10.2941 21.6698 10.2609 21.5273 10.2609H19.0198C18.4119 10.2609 17.9085 10.1374 17.5096 9.89045C17.1107 9.6435 16.8115 9.31581 16.612 8.90739C16.4221 8.50847 16.3271 8.06205 16.3271 7.56814ZM16.498 22.6451C16.498 21.8188 16.6548 21.0969 16.9682 20.4795C17.2911 19.8717 17.7281 19.3967 18.279 19.0548C18.8299 18.7224 19.4472 18.5561 20.1311 18.5561C20.9005 18.5561 21.5701 18.7129 22.14 19.0263C22.7099 19.3398 23.1515 19.7672 23.465 20.3086C23.7784 20.85 23.9351 21.4626 23.9351 22.1465C23.9351 22.9633 23.7642 23.6234 23.4222 24.1268C23.0803 24.6397 22.6196 25.0149 22.0402 25.2524C21.4704 25.4898 20.834 25.6086 20.1311 25.6086C20.0361 25.6086 19.9221 25.6038 19.7892 25.5943C19.6657 25.5848 19.5707 25.5706 19.5042 25.5516V20.6363C19.2098 20.7122 18.9628 20.8405 18.7634 21.0209C18.5639 21.2109 18.4119 21.4436 18.3075 21.719C18.2125 22.004 18.165 22.3222 18.165 22.6736V24.6967H16.498V22.6451ZM20.815 20.622V23.6567C20.9954 23.6377 21.1617 23.6044 21.3136 23.557C21.4751 23.5095 21.6176 23.443 21.7411 23.3575C21.8645 23.272 21.969 23.1723 22.0545 23.0583C22.14 22.9443 22.2065 22.8113 22.254 22.6594C22.3014 22.5074 22.3252 22.3412 22.3252 22.1607C22.3252 21.9233 22.2825 21.7096 22.197 21.5196C22.1115 21.3391 21.9975 21.1872 21.855 21.0637C21.7126 20.9402 21.5511 20.8405 21.3706 20.7645C21.1902 20.698 21.0049 20.6505 20.815 20.622ZM16.3271 30.745C16.3271 29.9662 16.4885 29.2871 16.8115 28.7077C17.1344 28.1378 17.5903 27.6961 18.1792 27.3827C18.7776 27.0692 19.4757 26.9125 20.2736 26.9125H26.8986V28.8644H22.8666V28.8787C23.085 29.0306 23.275 29.2158 23.4365 29.4343C23.598 29.6623 23.7214 29.914 23.8069 30.1894C23.8924 30.4743 23.9351 30.7688 23.9351 31.0727C23.9351 31.7851 23.7784 32.4025 23.465 32.9249C23.1515 33.4473 22.7194 33.851 22.1685 34.1359C21.6271 34.4303 20.9954 34.5776 20.2736 34.5776C19.7037 34.5776 19.1765 34.4921 18.6921 34.3211C18.2172 34.1502 17.7993 33.9032 17.4384 33.5803C17.0869 33.2573 16.8115 32.8584 16.612 32.3835C16.4221 31.9086 16.3271 31.3624 16.3271 30.745ZM17.994 30.745C17.994 31.1345 18.089 31.4669 18.279 31.7424C18.4689 32.0178 18.7254 32.2268 19.0483 32.3692C19.3713 32.5212 19.7322 32.5972 20.1311 32.5972C20.53 32.5972 20.891 32.5212 21.2139 32.3692C21.5368 32.2268 21.7933 32.0178 21.9833 31.7424C22.1732 31.4669 22.2682 31.1345 22.2682 30.745C22.2682 30.3651 22.1732 30.0327 21.9833 29.7477C21.7933 29.4723 21.5368 29.2586 21.2139 29.1066C20.891 28.9641 20.53 28.8929 20.1311 28.8929C19.7322 28.8929 19.3713 28.9641 19.0483 29.1066C18.7254 29.2586 18.4689 29.4723 18.279 29.7477C18.089 30.0327 17.994 30.3651 17.994 30.745ZM16.3271 43.1753C16.3271 42.5674 16.4221 42.0212 16.612 41.5368C16.8115 41.0619 17.0869 40.663 17.4384 40.34C17.7993 40.0171 18.2172 39.7702 18.6921 39.5992C19.1765 39.4282 19.7037 39.3427 20.2736 39.3427C20.9954 39.3427 21.6271 39.4852 22.1685 39.7702C22.7194 40.0646 23.1515 40.473 23.465 40.9954C23.7784 41.5273 23.9351 42.1447 23.9351 42.8476C23.9351 43.1515 23.8924 43.4412 23.8069 43.7167C23.7214 44.0016 23.598 44.2581 23.4365 44.486C23.275 44.714 23.085 44.8992 22.8666 45.0417V45.0559H26.8986V47.0078H20.2736C19.4757 47.0078 18.7776 46.8511 18.1792 46.5376C17.5903 46.2242 17.1344 45.7825 16.8115 45.2126C16.4885 44.6427 16.3271 43.9636 16.3271 43.1753ZM17.994 43.1753C17.994 43.5647 18.089 43.8971 18.279 44.1726C18.4689 44.448 18.7254 44.657 19.0483 44.7994C19.3713 44.9514 19.7322 45.0274 20.1311 45.0274C20.53 45.0274 20.891 44.9514 21.2139 44.7994C21.5368 44.657 21.7933 44.448 21.9833 44.1726C22.1732 43.8971 22.2682 43.5647 22.2682 43.1753C22.2682 42.7953 22.1732 42.4629 21.9833 42.1779C21.7933 41.9025 21.5368 41.6888 21.2139 41.5368C20.891 41.3943 20.53 41.3231 20.1311 41.3231C19.7322 41.3231 19.3713 41.3943 19.0483 41.5368C18.7254 41.6888 18.4689 41.9025 18.279 42.1779C18.089 42.4629 17.994 42.7953 17.994 43.1753ZM16.498 52.4476C16.498 51.6212 16.6548 50.8994 16.9682 50.282C17.2911 49.6741 17.7281 49.1992 18.279 48.8573C18.8299 48.5248 19.4472 48.3586 20.1311 48.3586C20.9005 48.3586 21.5701 48.5153 22.14 48.8288C22.7099 49.1422 23.1515 49.5696 23.465 50.111C23.7784 50.6524 23.9351 51.2651 23.9351 51.9489C23.9351 52.7658 23.7642 53.4259 23.4222 53.9293C23.0803 54.4422 22.6196 54.8174 22.0402 55.0548C21.4704 55.2923 20.834 55.411 20.1311 55.411C20.0361 55.411 19.9221 55.4063 19.7892 55.3968C19.6657 55.3873 19.5707 55.373 19.5042 55.354V50.4387C19.2098 50.5147 18.9628 50.6429 18.7634 50.8234C18.5639 51.0133 18.4119 51.2461 18.3075 51.5215C18.2125 51.8064 18.165 52.1246 18.165 52.4761V54.4992H16.498V52.4476ZM20.815 50.4245V53.4591C20.9954 53.4401 21.1617 53.4069 21.3136 53.3594C21.4751 53.3119 21.6176 53.2454 21.7411 53.1599C21.8645 53.0745 21.969 52.9747 22.0545 52.8607C22.14 52.7468 22.2065 52.6138 22.254 52.4618C22.3014 52.3099 22.3252 52.1436 22.3252 51.9632C22.3252 51.7257 22.2825 51.512 22.197 51.322C22.1115 51.1416 21.9975 50.9896 21.855 50.8661C21.7126 50.7427 21.5511 50.6429 21.3706 50.5669C21.1902 50.5004 21.0049 50.453 20.815 50.4245ZM16.3271 59.8242C16.3271 59.3968 16.4411 59.0074 16.669 58.6559C16.897 58.314 17.1962 58.0766 17.5666 57.9436L23.7642 55.8635V57.9863L18.3644 59.6675C18.3265 59.6865 18.298 59.7102 18.279 59.7387C18.26 59.7672 18.2505 59.8005 18.2505 59.8385C18.2505 59.8765 18.26 59.9097 18.279 59.9382C18.298 59.9762 18.3265 59.9999 18.3644 60.0094L23.7642 61.7049V63.785L17.5808 61.7049C17.2104 61.5719 16.9065 61.3297 16.669 60.9783C16.4411 60.6363 16.3271 60.2516 16.3271 59.8242ZM16.498 68.2393C16.498 67.4129 16.6548 66.6911 16.9682 66.0737C17.2911 65.4658 17.7281 64.9909 18.279 64.6489C18.8299 64.3165 19.4472 64.1503 20.1311 64.1503C20.9005 64.1503 21.5701 64.307 22.14 64.6204C22.7099 64.9339 23.1515 65.3613 23.465 65.9027C23.7784 66.4441 23.9351 67.0567 23.9351 67.7406C23.9351 68.5575 23.7642 69.2176 23.4222 69.721C23.0803 70.2339 22.6196 70.6091 22.0402 70.8465C21.4704 71.084 20.834 71.2027 20.1311 71.2027C20.0361 71.2027 19.9221 71.1979 19.7892 71.1885C19.6657 71.179 19.5707 71.1647 19.5042 71.1457V66.2304C19.2098 66.3064 18.9628 66.4346 18.7634 66.6151C18.5639 66.805 18.4119 67.0377 18.3075 67.3132C18.2125 67.5981 18.165 67.9163 18.165 68.2678V70.2909H16.498V68.2393ZM20.815 66.2161V69.2508C20.9954 69.2318 21.1617 69.1986 21.3136 69.1511C21.4751 69.1036 21.6176 69.0371 21.7411 68.9516C21.8645 68.8661 21.969 68.7664 22.0545 68.6524C22.14 68.5385 22.2065 68.4055 22.254 68.2535C22.3014 68.1015 22.3252 67.9353 22.3252 67.7549C22.3252 67.5174 22.2825 67.3037 22.197 67.1137C22.1115 66.9333 21.9975 66.7813 21.855 66.6578C21.7126 66.5343 21.5511 66.4346 21.3706 66.3586C21.1902 66.2921 21.0049 66.2446 20.815 66.2161ZM16.498 72.5779H26.8986V74.5298H16.498L16.498 72.5779ZM16.3271 79.8668C16.3271 79.1165 16.4933 78.4469 16.8257 77.858C17.1677 77.2691 17.6236 76.8037 18.1935 76.4617C18.7729 76.1198 19.4187 75.9488 20.1311 75.9488C20.8435 75.9488 21.4846 76.1198 22.0545 76.4617C22.6339 76.8037 23.0898 77.2691 23.4222 77.858C23.7642 78.4469 23.9351 79.1165 23.9351 79.8668C23.9351 80.6172 23.7642 81.2868 23.4222 81.8757C23.0898 82.4646 22.6339 82.93 22.0545 83.2719C21.4846 83.6139 20.8435 83.7849 20.1311 83.7849C19.4187 83.7849 18.7729 83.6139 18.1935 83.2719C17.6236 82.93 17.1677 82.4646 16.8257 81.8757C16.4933 81.2868 16.3271 80.6172 16.3271 79.8668ZM17.994 79.8668C17.994 80.2658 18.089 80.6077 18.279 80.8926C18.4689 81.1871 18.7254 81.4103 19.0483 81.5623C19.3713 81.7237 19.7322 81.8045 20.1311 81.8045C20.53 81.8045 20.891 81.7237 21.2139 81.5623C21.5368 81.4103 21.7933 81.1871 21.9833 80.8926C22.1732 80.6077 22.2682 80.2658 22.2682 79.8668C22.2682 79.4679 22.1732 79.1212 21.9833 78.8268C21.7933 78.5418 21.5368 78.3186 21.2139 78.1572C20.891 78.0052 20.53 77.9292 20.1311 77.9292C19.7322 77.9292 19.3713 78.0052 19.0483 78.1572C18.7254 78.3186 18.4689 78.5418 18.279 78.8268C18.089 79.1212 17.994 79.4679 17.994 79.8668ZM23.9351 88.9725C23.9351 89.5899 23.8354 90.1361 23.6359 90.611C23.446 91.0859 23.1705 91.4848 22.8096 91.8077C22.4582 92.1307 22.0402 92.3776 21.5558 92.5486C21.0809 92.7196 20.5585 92.8051 19.9886 92.8051C19.2763 92.8051 18.6446 92.6578 18.0937 92.3634C17.5428 92.0784 17.1107 91.6748 16.7972 91.1524C16.4838 90.63 16.3271 90.0126 16.3271 89.3002C16.3271 88.9963 16.3698 88.7018 16.4553 88.4169C16.5408 88.1414 16.6643 87.8897 16.8257 87.6618C16.9872 87.4433 17.1772 87.2581 17.3956 87.1061V87.0919H13.3636V85.14H19.9886C20.796 85.14 21.4941 85.2967 22.083 85.6102C22.6719 85.9236 23.1278 86.3653 23.4507 86.9352C23.7737 87.5146 23.9351 88.1937 23.9351 88.9725ZM22.2682 88.9725C22.2682 88.5926 22.1732 88.2602 21.9833 87.9752C21.7933 87.6998 21.5368 87.4861 21.2139 87.3341C20.891 87.1916 20.53 87.1204 20.1311 87.1204C19.7322 87.1204 19.3713 87.1916 19.0483 87.3341C18.7254 87.4861 18.4689 87.6998 18.279 87.9752C18.089 88.2602 17.994 88.5926 17.994 88.9725C17.994 89.362 18.089 89.6944 18.279 89.9698C18.4689 90.2453 18.7254 90.4543 19.0483 90.5967C19.3713 90.7487 19.7322 90.8247 20.1311 90.8247C20.53 90.8247 20.891 90.7487 21.2139 90.5967C21.5368 90.4543 21.7933 90.2453 21.9833 89.9698C22.1732 89.6944 22.2682 89.362 22.2682 88.9725ZM16.498 94.2271H20.815C21.3849 94.2271 21.9073 94.3648 22.3822 94.6403C22.8571 94.9157 23.2323 95.3099 23.5077 95.8228C23.7927 96.3452 23.9351 96.9721 23.9351 97.7035C23.9351 98.0549 23.8924 98.3778 23.8069 98.6723C23.7309 98.9762 23.6169 99.2564 23.465 99.5129C23.313 99.7693 23.1325 99.9925 22.9236 100.182V100.197C23.1325 100.396 23.313 100.624 23.465 100.881C23.6169 101.137 23.7309 101.417 23.8069 101.721C23.8924 102.025 23.9351 102.353 23.9351 102.704C23.9351 103.436 23.7927 104.058 23.5077 104.571C23.2323 105.093 22.8571 105.492 22.3822 105.767C21.9073 106.043 21.3849 106.181 20.815 106.181H16.498V104.229H20.815C21.0809 104.229 21.3231 104.157 21.5416 104.015C21.76 103.882 21.9358 103.702 22.0687 103.474C22.2017 103.246 22.2682 102.989 22.2682 102.704C22.2682 102.429 22.2017 102.172 22.0687 101.935C21.9358 101.707 21.76 101.522 21.5416 101.379C21.3231 101.246 21.0809 101.18 20.815 101.18H16.498V99.2279H20.815C21.0809 99.2279 21.3231 99.1567 21.5416 99.0142C21.76 98.8812 21.9358 98.7008 22.0687 98.4728C22.2017 98.2449 22.2682 97.9884 22.2682 97.7035C22.2682 97.428 22.2017 97.1716 22.0687 96.9341C21.9358 96.7061 21.76 96.5209 21.5416 96.3785C21.3231 96.2455 21.0809 96.179 20.815 96.179H16.498V94.2271ZM16.498 111.691C16.498 110.864 16.6548 110.143 16.9682 109.525C17.2911 108.917 17.7281 108.442 18.279 108.1C18.8299 107.768 19.4472 107.602 20.1311 107.602C20.9005 107.602 21.5701 107.758 22.14 108.072C22.7099 108.385 23.1515 108.813 23.465 109.354C23.7784 109.896 23.9351 110.508 23.9351 111.192C23.9351 112.009 23.7642 112.669 23.4222 113.172C23.0803 113.685 22.6196 114.061 22.0402 114.298C21.4704 114.535 20.834 114.654 20.1311 114.654C20.0361 114.654 19.9221 114.649 19.7892 114.64C19.6657 114.63 19.5707 114.616 19.5042 114.597V109.682C19.2098 109.758 18.9628 109.886 18.7634 110.067C18.5639 110.257 18.4119 110.489 18.3075 110.765C18.2125 111.05 18.165 111.368 18.165 111.719V113.742H16.498V111.691ZM20.815 109.668V112.702C20.9954 112.683 21.1617 112.65 21.3136 112.603C21.4751 112.555 21.6176 112.489 21.7411 112.403C21.8645 112.318 21.969 112.218 22.0545 112.104C22.14 111.99 22.2065 111.857 22.254 111.705C22.3014 111.553 22.3252 111.387 22.3252 111.206C22.3252 110.969 22.2825 110.755 22.197 110.565C22.1115 110.385 21.9975 110.233 21.855 110.109C21.7126 109.986 21.5511 109.886 21.3706 109.81C21.1902 109.744 21.0049 109.696 20.815 109.668ZM16.498 116.029H20.6725C21.2709 116.029 21.817 116.167 22.3109 116.443C22.8049 116.727 23.199 117.136 23.4935 117.668C23.7879 118.2 23.9351 118.836 23.9351 119.577C23.9351 120.327 23.7879 120.964 23.4935 121.486C23.199 122.018 22.8049 122.422 22.3109 122.697C21.817 122.982 21.2709 123.125 20.6725 123.125H16.498V121.173H20.6725C20.9669 121.173 21.2329 121.101 21.4704 120.959C21.7173 120.816 21.912 120.622 22.0545 120.375C22.197 120.137 22.2682 119.871 22.2682 119.577C22.2682 119.283 22.197 119.012 22.0545 118.765C21.912 118.527 21.7173 118.337 21.4704 118.195C21.2329 118.052 20.9669 117.981 20.6725 117.981H16.498V116.029ZM16.498 127.497C16.498 126.852 16.6833 126.343 17.0537 125.973C17.4241 125.612 17.9275 125.432 18.5639 125.432H25.5878V127.383H18.6209C18.4974 127.383 18.3882 127.426 18.2932 127.512C18.2077 127.607 18.165 127.716 18.165 127.839V129.421H16.498V127.497ZM22.0972 124.192H23.7642V129.421H22.0972V124.192Z" fill="#52D5F2"/>
<rect y="4" width="9" height="328" fill="#52D5F2"/>
<path fill-rule="evenodd" clip-rule="evenodd" d="M22.0107 283.874C22.131 289.035 23.2677 294.121 25.3552 298.843C27.3917 297.598 28.8978 296.957 29.8555 296.55C30.1739 296.415 30.4315 296.306 30.6282 296.208C31.042 296.003 31.2663 295.715 31.4427 295.489C31.6024 295.285 31.723 295.13 31.9098 295.131C32.3032 295.132 36.5359 293.768 39.0977 292.105C40.0319 291.498 40.9239 291.22 41.853 290.929C43.472 290.424 45.2042 289.883 47.4704 287.51C48.1784 286.769 47.3758 286.362 46.8943 286.118C46.6323 285.986 46.4653 285.901 46.6884 285.837C47.1932 285.692 48.0348 285.722 49.0564 285.759C50.9339 285.826 53.4199 285.915 55.5421 284.978C57.4238 284.147 58.6347 283.466 59.7652 282.831C61.4738 281.87 62.9981 281.013 66.3747 279.899C69.3379 279.83 65.6399 277.942 63.5309 276.866V276.866H63.5307C62.8132 276.5 62.2796 276.227 62.2548 276.152C62.2314 276.081 62.7597 276.264 63.583 276.55C66.1619 277.445 71.6331 279.343 72.0855 277.557C72.4954 275.938 71.4181 275.428 70.608 275.044C70.2383 274.868 69.9242 274.719 69.8323 274.504C69.7232 274.247 70.4599 274.416 71.56 274.668C73.4107 275.093 76.2893 275.753 77.8952 275.018C80.4556 273.846 97.3215 267.073 97.3215 267.073C95.234 262.35 92.236 258.086 88.499 254.522C84.7619 250.957 80.3588 248.164 75.5414 246.3C70.7239 244.436 65.586 243.539 60.4216 243.659C55.2569 243.779 50.1666 244.915 45.4412 247.001C40.7158 249.087 36.448 252.083 32.8812 255.817C29.3144 259.552 26.5186 263.951 24.6535 268.765C22.7884 273.579 21.8903 278.713 22.0107 283.874ZM36.7184 319.051C36.0946 318.534 35.4876 317.998 34.8982 317.445C36.3611 317.304 37.5821 313.52 37.5647 312.264C37.5439 310.773 38.6551 309.221 38.6551 309.221C40.1277 307.819 40.5264 309.153 40.8312 310.172C41.0165 310.791 41.167 311.294 41.5021 310.998C41.7698 310.762 42.1728 310.026 42.6564 309.143C43.7771 307.096 45.3305 304.259 46.6335 305.018C47.9528 305.786 47.8061 308.604 47.7359 309.953C47.7068 310.511 47.6908 310.818 47.7974 310.623C48.0903 310.088 48.3824 308.14 48.6978 306.037C49.1059 303.317 49.5528 300.337 50.0905 299.819C52.3323 297.66 53.6615 304.488 54.5921 309.269C55.0126 311.429 55.3517 313.171 55.657 313.478C55.9203 313.743 56.0307 312.991 56.1992 311.842C56.6587 308.711 57.552 302.623 63.1527 306.031C68.403 309.225 68.6845 303.98 68.8816 300.304C68.972 298.619 69.0448 297.265 69.5705 297.204C69.7257 297.185 69.9554 297.025 70.2296 296.834C71.3458 296.054 73.2022 294.758 73.8054 300.361C74.5572 307.341 78.3855 297.23 76.7598 293.687C75.1342 290.145 75.6139 284.406 75.9021 284.152C76.154 283.93 76.568 283.536 77.0633 283.066L77.0644 283.065V283.065C79.0106 281.216 82.2072 278.179 81.7326 279.666C81.4325 280.606 81.7751 280.295 82.3146 279.807C82.8459 279.326 83.5677 278.672 84.055 278.868C84.5367 279.063 84.7108 279.351 84.8789 279.628C85.0536 279.917 85.222 280.196 85.7227 280.347C86.1139 280.225 87.1392 279.026 88.1781 277.811C89.2484 276.559 90.3331 275.29 90.7532 275.165C92.0924 274.769 92.5619 275.696 92.805 276.176C92.8937 276.351 92.9521 276.467 93.0117 276.437C93.2467 276.321 93.6147 275.492 94.0669 274.473C94.6577 273.142 95.3925 271.487 96.1627 270.674L96.6143 270.435C99.0265 275 100.515 279.995 100.996 285.135C101.476 290.275 100.939 295.459 99.414 300.391C97.8895 305.324 95.4076 309.908 92.1103 313.881C88.8129 317.855 84.7645 321.141 80.1962 323.552C75.6281 325.962 70.6295 327.45 65.4857 327.93C60.3421 328.41 55.1543 327.873 50.2184 326.349C45.2825 324.826 40.6951 322.346 36.7184 319.051ZM96.5313 270.354C96.4079 270.437 96.2848 270.545 96.1627 270.674L61.8276 288.79L27.0412 307.145C29.0748 310.994 31.7314 314.473 34.8982 317.445C34.8887 317.446 34.8791 317.447 34.8694 317.448C34.8295 317.45 34.5591 317.257 34.3789 317.053C34.3437 317.016 34.3048 316.983 34.2627 316.949C34.1811 316.881 34.0876 316.805 33.9865 316.659C33.9604 316.621 33.9252 316.598 33.8858 316.572C33.8239 316.531 33.7523 316.484 33.6925 316.363C32.4611 315.217 32.0585 321.175 31.7237 326.129C31.5033 329.391 31.3123 332.219 30.9331 332.293C30.331 332.51 30.4097 330.909 30.5297 328.464C30.6257 326.51 30.748 324.018 30.5708 321.482C30.1749 315.811 28.1601 309.339 26.9582 307.065L61.7448 288.71L96.5313 270.354ZM22.1415 306.064L103.753 264.805L104.02 265.332L22.408 306.59L22.1415 306.064ZM28.9077 285.821C29.2709 286.035 29.7546 286.23 30.3623 286.29C30.5421 286.307 30.6796 286.468 30.6516 286.646C30.6302 286.784 30.5161 286.887 30.378 286.906C29.8679 286.972 29.0745 287.151 28.2867 287.348C27.4929 287.547 26.8748 286.611 27.386 285.972C27.7319 285.54 28.4307 285.54 28.9077 285.821ZM39.7876 282.112C39.9739 282.234 40.2174 282.082 40.1892 281.861C40.1788 281.779 40.132 281.708 40.0612 281.666C39.6008 281.396 37.7559 280.279 35.2862 278.37C33.2419 276.791 31.9639 275.591 31.4 275.034C31.2047 274.841 30.8957 274.814 30.6744 274.976C30.3855 275.189 30.3806 275.618 30.6662 275.835C31.5691 276.521 33.3707 277.871 34.7534 278.79C36.249 279.784 38.7499 281.43 39.7876 282.112ZM41.7979 284.782C41.8542 284.875 41.7747 284.992 41.6667 284.974C41.0653 284.871 39.6153 284.623 38.7464 284.47C38.3033 284.392 37.4127 284.412 36.4991 284.465C35.9179 284.498 35.68 283.672 36.1984 283.407C36.3689 283.32 36.5745 283.331 36.7452 283.418C37.09 283.594 37.7801 283.895 38.9035 284.176C40.3912 284.549 41.4415 284.688 41.7019 284.719C41.742 284.724 41.7771 284.747 41.7979 284.782ZM38.9866 318.818C39.8431 316.103 40.7834 312.711 40.5262 311.616C40.5089 311.542 40.4953 311.471 40.4959 311.395C40.5014 310.72 40.7875 310.696 40.818 311.371C40.9417 314.095 40.9528 317.912 40.953 319.178C40.953 319.449 40.8381 319.708 40.6371 319.891C39.8883 320.574 38.6815 319.784 38.9866 318.818Z" fill="#52D5F2"/>
</svg>
