<svg width="338" height="107" viewBox="0 0 338 107" fill="none" xmlns="http://www.w3.org/2000/svg">
<path d="M6.08683 67.732L6.08683 56.8873H31.9076C33.1701 56.8873 34.3175 56.5717 35.3505 55.9406C36.3831 55.3092 37.2153 54.4773 37.8464 53.4444C38.4775 52.3543 38.7931 51.1781 38.7931 49.9155C38.7931 48.5959 38.4775 47.4196 37.8464 46.3867C37.2153 45.2966 36.3831 44.4359 35.3505 43.8048C34.3175 43.1734 33.1701 42.8578 31.9076 42.8578H21.8375C18.4521 42.8578 15.3823 42.1693 12.6281 40.7923C9.87386 39.4152 7.66474 37.4356 6.00076 34.8534C4.39411 32.2139 3.59082 29.058 3.59082 25.3858C3.59082 21.771 4.36544 18.6436 5.91468 16.0044C7.46393 13.3074 9.55827 11.213 12.1978 9.72115C14.8372 8.22931 17.7635 7.4834 20.9768 7.4834H47.1418V18.3281H22.1818C21.0342 18.3281 19.9727 18.6436 18.9972 19.2748C18.0218 19.8488 17.2471 20.6233 16.6733 21.5988C16.1569 22.5743 15.8987 23.6643 15.8987 24.8695C15.8987 26.0743 16.1569 27.1646 16.6733 28.1402C17.2471 29.1154 18.0218 29.8902 18.9972 30.4639C19.9727 31.0376 21.0342 31.3246 22.1818 31.3246H32.5961C36.326 31.3246 39.5678 32.042 42.3219 33.4764C45.0763 34.9108 47.1992 36.919 48.6911 39.5012C50.2403 42.0833 51.0151 45.0956 51.0151 48.5385C51.0151 52.6125 50.2118 56.0839 48.6051 58.9528C47.0559 61.822 44.9329 64.0024 42.236 65.4942C39.5964 66.986 36.6701 67.732 33.4568 67.732H6.08683ZM75.4568 67.732C72.1287 67.732 69.0876 66.9286 66.3335 65.322C63.6365 63.7153 61.4847 61.5635 59.8781 58.8669C58.2714 56.1125 57.4681 53.0714 57.4681 49.7433C57.4681 47.3336 57.9847 45.067 59.0173 42.9441C60.0503 40.8208 61.4562 38.956 63.2347 37.3494C61.4562 35.7427 60.0503 33.8779 59.0173 31.755C57.9847 29.632 57.4681 27.3943 57.4681 25.0417C57.4681 21.771 58.2429 18.8159 59.7921 16.1763C61.3988 13.537 63.5217 11.4426 66.1613 9.89336C68.858 8.28672 71.8131 7.4834 75.0264 7.4834L99.8143 7.4834V18.3281H76.4034C75.1986 18.3281 74.0797 18.6436 73.0468 19.2748C72.0713 19.8488 71.2679 20.6521 70.6368 21.6847C70.0631 22.6603 69.7761 23.7792 69.7761 25.0417C69.7761 26.2465 70.0631 27.3654 70.6368 28.3983C71.2679 29.3739 72.0713 30.1769 73.0468 30.8083C74.0797 31.382 75.1986 31.669 76.4034 31.669H96.888V42.5137H76.92C75.6001 42.5137 74.3953 42.8578 73.3049 43.5463C72.2149 44.1778 71.3542 45.0382 70.7228 46.1285C70.0917 47.2188 69.7761 48.4237 69.7761 49.7433C69.7761 51.0632 70.0917 52.2681 70.7228 53.3584C71.3542 54.4484 72.2149 55.3092 73.3049 55.9406C74.3953 56.5717 75.6001 56.8873 76.92 56.8873H99.8143V67.732H75.4568ZM106.723 51.0344V40.2759H131.08V51.0344H106.723ZM149.007 67.732C146.712 67.732 144.703 67.2442 142.982 66.2687C141.261 65.236 139.912 63.8875 138.937 62.2235C138.019 60.5594 137.56 58.6947 137.56 56.6291C137.56 54.678 138.048 52.7847 139.023 50.9484C140.056 49.1122 141.376 47.6203 142.982 46.4729L161.487 33.2183C162.749 32.3001 163.696 31.2098 164.327 29.9476C164.959 28.685 165.274 27.3654 165.274 25.9884C165.274 24.3817 164.93 23.0332 164.241 21.9432C163.553 20.7955 162.577 19.9062 161.315 19.2748C160.053 18.6436 158.532 18.3281 156.753 18.3281H140.83V7.4834L158.217 7.4834C162.176 7.4834 165.59 8.31526 168.459 9.9793C171.328 11.6433 173.537 13.8811 175.086 16.6929C176.693 19.447 177.496 22.5455 177.496 25.9884C177.496 29.431 176.807 32.4723 175.43 35.1116C174.11 37.6938 171.93 40.0175 168.889 42.0833L150.384 54.6495C150.269 54.7069 150.126 54.8502 149.954 55.0799C149.782 55.2518 149.696 55.4814 149.696 55.7684C149.696 56.1699 149.81 56.4569 150.04 56.6291C150.269 56.801 150.585 56.8873 150.987 56.8873H179.303V67.732H149.007ZM187.96 67.732L213.178 20.9962C213.465 20.4225 213.608 19.9347 213.608 19.5332C213.608 19.1888 213.493 18.9018 213.264 18.6725C213.034 18.4429 212.719 18.3281 212.317 18.3281H184.861V7.4834L213.866 7.4834C216.104 7.4834 218.113 7.99972 219.891 9.03265C221.727 10.0656 223.191 11.4426 224.281 13.164C225.371 14.8281 225.916 16.7214 225.916 18.8444C225.916 19.9921 225.773 21.1399 225.486 22.2873C225.199 23.3776 224.826 24.4103 224.367 25.3858L201.903 67.732H187.96Z" fill="#F4F4F4"/>
<path d="M139.516 90.6729C138.851 90.6729 138.272 90.502 137.778 90.16C137.284 89.8181 136.899 89.3622 136.624 88.7923C136.358 88.2129 136.225 87.5765 136.225 86.8831C136.225 86.1708 136.377 85.5249 136.681 84.9455C136.994 84.3661 137.441 83.9102 138.02 83.5778C138.599 83.2358 139.293 83.0649 140.1 83.0649C140.917 83.0649 141.606 83.2358 142.166 83.5778C142.726 83.9197 143.154 84.3804 143.448 84.9598C143.743 85.5391 143.89 86.1803 143.89 86.8831V90.502H141.938V89.2909H141.91C141.767 89.5474 141.587 89.7801 141.368 89.989C141.159 90.198 140.903 90.3642 140.599 90.4877C140.295 90.6112 139.934 90.6729 139.516 90.6729ZM140.072 89.006C140.452 89.006 140.779 88.911 141.055 88.721C141.33 88.5311 141.539 88.2746 141.682 87.9517C141.834 87.6192 141.91 87.2536 141.91 86.8546C141.91 86.4557 141.834 86.0995 141.682 85.7861C141.539 85.4632 141.33 85.2067 141.055 85.0167C140.779 84.8268 140.452 84.7318 140.072 84.7318C139.682 84.7318 139.345 84.8268 139.06 85.0167C138.785 85.2067 138.571 85.4632 138.419 85.7861C138.276 86.0995 138.205 86.4557 138.205 86.8546C138.205 87.2536 138.276 87.6192 138.419 87.9517C138.571 88.2746 138.785 88.5311 139.06 88.721C139.345 88.911 139.682 89.006 140.072 89.006ZM145.738 90.502V86.3275C145.738 85.7291 145.875 85.183 146.151 84.6891C146.436 84.1951 146.844 83.801 147.376 83.5065C147.908 83.2121 148.544 83.0649 149.285 83.0649C150.036 83.0649 150.672 83.2121 151.194 83.5065C151.726 83.801 152.13 84.1951 152.405 84.6891C152.69 85.183 152.833 85.7291 152.833 86.3275V90.502H150.881V86.3275C150.881 86.033 150.81 85.7671 150.667 85.5296C150.525 85.2827 150.33 85.088 150.083 84.9455C149.846 84.803 149.58 84.7318 149.285 84.7318C148.991 84.7318 148.72 84.803 148.473 84.9455C148.236 85.088 148.046 85.2827 147.903 85.5296C147.761 85.7671 147.69 86.033 147.69 86.3275V90.502H145.738ZM158.089 90.6729C157.481 90.6729 156.935 90.5779 156.451 90.388C155.976 90.1885 155.577 89.9131 155.254 89.5616C154.931 89.2007 154.684 88.7828 154.513 88.3079C154.342 87.8235 154.257 87.2963 154.257 86.7264C154.257 86.0046 154.399 85.3729 154.684 84.8315C154.978 84.2806 155.387 83.8485 155.909 83.535C156.441 83.2216 157.059 83.0649 157.761 83.0649C158.065 83.0649 158.355 83.1076 158.631 83.1931C158.915 83.2786 159.172 83.402 159.4 83.5635C159.628 83.725 159.813 83.915 159.956 84.1334H159.97V80.1014H161.922V86.7264C161.922 87.5243 161.765 88.2224 161.451 88.8208C161.138 89.4097 160.696 89.8656 160.126 90.1885C159.557 90.5115 158.877 90.6729 158.089 90.6729ZM158.089 89.006C158.479 89.006 158.811 88.911 159.086 88.721C159.362 88.5311 159.571 88.2746 159.713 87.9517C159.865 87.6287 159.941 87.2678 159.941 86.8689C159.941 86.47 159.865 86.109 159.713 85.7861C159.571 85.4632 159.362 85.2067 159.086 85.0167C158.811 84.8268 158.479 84.7318 158.089 84.7318C157.709 84.7318 157.377 84.8268 157.092 85.0167C156.816 85.2067 156.603 85.4632 156.451 85.7861C156.308 86.109 156.237 86.47 156.237 86.8689C156.237 87.2678 156.308 87.6287 156.451 87.9517C156.603 88.2746 156.816 88.5311 157.092 88.721C157.377 88.911 157.709 89.006 158.089 89.006Z" fill="#F4F4F4"/>
<path d="M173.625 90.6729C173.017 90.6729 172.471 90.5779 171.987 90.388C171.512 90.1885 171.113 89.9131 170.79 89.5616C170.467 89.2007 170.22 88.7828 170.049 88.3079C169.878 87.8235 169.793 87.2963 169.793 86.7264C169.793 86.0046 169.935 85.3729 170.22 84.8315C170.514 84.2806 170.923 83.8485 171.445 83.535C171.977 83.2216 172.595 83.0649 173.297 83.0649C173.601 83.0649 173.891 83.1076 174.167 83.1931C174.451 83.2786 174.708 83.402 174.936 83.5635C175.164 83.725 175.349 83.915 175.492 84.1334H175.506V80.1014H177.458V86.7264C177.458 87.5243 177.301 88.2224 176.987 88.8208C176.674 89.4097 176.232 89.8656 175.662 90.1885C175.093 90.5115 174.413 90.6729 173.625 90.6729ZM173.625 89.006C174.015 89.006 174.347 88.911 174.622 88.721C174.898 88.5311 175.107 88.2746 175.249 87.9517C175.401 87.6287 175.477 87.2678 175.477 86.8689C175.477 86.47 175.401 86.109 175.249 85.7861C175.107 85.4632 174.898 85.2067 174.622 85.0167C174.347 84.8268 174.015 84.7318 173.625 84.7318C173.245 84.7318 172.913 84.8268 172.628 85.0167C172.352 85.2067 172.139 85.4632 171.987 85.7861C171.844 86.109 171.773 86.47 171.773 86.8689C171.773 87.2678 171.844 87.6287 171.987 87.9517C172.139 88.2746 172.352 88.5311 172.628 88.721C172.913 88.911 173.245 89.006 173.625 89.006ZM182.897 90.502C182.071 90.502 181.349 90.3452 180.732 90.0318C180.124 89.7089 179.649 89.2719 179.307 88.721C178.975 88.1701 178.808 87.5528 178.808 86.8689C178.808 86.0995 178.965 85.4299 179.279 84.86C179.592 84.2901 180.019 83.8485 180.561 83.535C181.102 83.2216 181.715 83.0649 182.399 83.0649C183.216 83.0649 183.876 83.2358 184.379 83.5778C184.892 83.9197 185.267 84.3804 185.505 84.9598C185.742 85.5296 185.861 86.166 185.861 86.8689C185.861 86.9639 185.856 87.0779 185.847 87.2108C185.837 87.3343 185.823 87.4293 185.804 87.4958H180.889C180.965 87.7902 181.093 88.0372 181.273 88.2366C181.463 88.4361 181.696 88.5881 181.971 88.6925C182.256 88.7875 182.575 88.835 182.926 88.835H184.949V90.502H182.897ZM180.874 86.185H183.909C183.89 86.0046 183.857 85.8383 183.809 85.6864C183.762 85.5249 183.695 85.3824 183.61 85.2589C183.524 85.1355 183.425 85.031 183.311 84.9455C183.197 84.86 183.064 84.7935 182.912 84.746C182.76 84.6986 182.593 84.6748 182.413 84.6748C182.176 84.6748 181.962 84.7175 181.772 84.803C181.591 84.8885 181.439 85.0025 181.316 85.145C181.193 85.2874 181.093 85.4489 181.017 85.6294C180.95 85.8098 180.903 85.9951 180.874 86.185ZM187.265 90.502V88.835H190.812C190.926 88.835 191.026 88.8113 191.111 88.7638C191.206 88.7163 191.278 88.6498 191.325 88.5643C191.382 88.4788 191.411 88.3839 191.411 88.2794C191.411 88.1654 191.382 88.0657 191.325 87.9802C191.278 87.8947 191.206 87.8282 191.111 87.7807C191.026 87.7237 190.926 87.6952 190.812 87.6952H189.444C188.979 87.6952 188.556 87.624 188.176 87.4815C187.806 87.3296 187.507 87.0921 187.279 86.7692C187.06 86.4367 186.951 86.0046 186.951 85.4727C186.951 85.0642 187.051 84.6938 187.25 84.3614C187.459 84.0194 187.735 83.7487 188.077 83.5493C188.428 83.3403 188.813 83.2358 189.231 83.2358H192.636V84.9028H189.416C189.273 84.9028 189.145 84.9503 189.031 85.0452C188.927 85.1402 188.875 85.2637 188.875 85.4157C188.875 85.5676 188.927 85.6959 189.031 85.8003C189.136 85.8953 189.264 85.9428 189.416 85.9428H190.784C191.306 85.9428 191.757 86.0236 192.137 86.185C192.517 86.337 192.812 86.5792 193.02 86.9116C193.229 87.2441 193.334 87.681 193.334 88.2224C193.334 88.6403 193.229 89.025 193.02 89.3764C192.812 89.7184 192.531 89.9938 192.18 90.2028C191.828 90.4022 191.434 90.502 190.997 90.502H187.265ZM194.861 90.502V83.2358H196.827V90.502H194.861ZM195.844 82.3667C195.511 82.3667 195.222 82.248 194.975 82.0106C194.737 81.7636 194.618 81.4739 194.618 81.1415C194.618 80.809 194.737 80.5241 194.975 80.2866C195.222 80.0397 195.511 79.9162 195.844 79.9162C196.176 79.9162 196.461 80.0397 196.699 80.2866C196.945 80.5241 197.069 80.809 197.069 81.1415C197.069 81.4739 196.945 81.7636 196.699 82.0106C196.461 82.248 196.176 82.3667 195.844 82.3667ZM199.756 93.3942V91.7272H203.489C203.622 91.7272 203.731 91.6797 203.816 91.5847C203.902 91.4993 203.945 91.3948 203.945 91.2713V89.4904H203.93C203.712 89.7373 203.489 89.9368 203.261 90.0888C203.033 90.2408 202.786 90.3547 202.52 90.4307C202.264 90.4972 201.979 90.5304 201.665 90.5304C201.019 90.5304 200.435 90.3785 199.913 90.0745C199.4 89.7611 198.991 89.3242 198.687 88.7638C198.384 88.2034 198.232 87.5528 198.232 86.8119C198.232 86.109 198.379 85.4774 198.673 84.917C198.977 84.3471 199.414 83.896 199.984 83.5635C200.554 83.2311 201.247 83.0649 202.064 83.0649C202.852 83.0649 203.532 83.2263 204.101 83.5493C204.671 83.8722 205.113 84.3281 205.426 84.917C205.74 85.5059 205.897 86.204 205.897 87.0114V91.3283C205.897 91.9647 205.711 92.4681 205.341 92.8385C204.98 93.2089 204.477 93.3942 203.831 93.3942H199.756ZM202.064 88.8635C202.453 88.8635 202.786 88.7733 203.061 88.5928C203.337 88.4123 203.546 88.1749 203.688 87.8804C203.84 87.5765 203.916 87.2393 203.916 86.8689C203.916 86.47 203.84 86.109 203.688 85.7861C203.546 85.4632 203.337 85.2067 203.061 85.0167C202.786 84.8268 202.453 84.7318 202.064 84.7318C201.684 84.7318 201.352 84.8268 201.067 85.0167C200.791 85.1972 200.578 85.4442 200.426 85.7576C200.283 86.071 200.212 86.4225 200.212 86.8119C200.212 87.1918 200.283 87.5385 200.426 87.852C200.578 88.1559 200.791 88.4029 201.067 88.5928C201.352 88.7733 201.684 88.8635 202.064 88.8635ZM207.675 90.502V86.3275C207.675 85.7291 207.813 85.183 208.088 84.6891C208.373 84.1951 208.781 83.801 209.313 83.5065C209.845 83.2121 210.482 83.0649 211.222 83.0649C211.973 83.0649 212.609 83.2121 213.132 83.5065C213.663 83.801 214.067 84.1951 214.343 84.6891C214.628 85.183 214.77 85.7291 214.77 86.3275V90.502H212.818V86.3275C212.818 86.033 212.747 85.7671 212.604 85.5296C212.462 85.2827 212.267 85.088 212.02 84.9455C211.783 84.803 211.517 84.7318 211.222 84.7318C210.928 84.7318 210.657 84.803 210.41 84.9455C210.173 85.088 209.983 85.2827 209.84 85.5296C209.698 85.7671 209.627 86.033 209.627 86.3275V90.502H207.675ZM217.59 90.6729C217.229 90.6729 216.916 90.5447 216.65 90.2882C216.393 90.0223 216.265 89.7089 216.265 89.3479C216.265 88.987 216.393 88.6783 216.65 88.4218C216.916 88.1559 217.229 88.0229 217.59 88.0229C217.951 88.0229 218.26 88.1559 218.516 88.4218C218.782 88.6783 218.915 88.987 218.915 89.3479C218.915 89.5854 218.853 89.8086 218.73 90.0175C218.616 90.217 218.459 90.3785 218.26 90.502C218.06 90.6159 217.837 90.6729 217.59 90.6729Z" fill="#F4F4F4"/>
<path d="M7.5679 90.6729C7.07399 90.6729 6.62283 90.5779 6.21441 90.388C5.80598 90.1885 5.4783 89.8893 5.23134 89.4904C4.99389 89.0915 4.87516 88.5881 4.87516 87.9802V83.2358H6.82704V88.2651C6.82704 88.3981 6.86028 88.5216 6.92677 88.6356C6.99326 88.7495 7.08349 88.8398 7.19747 88.9063C7.31145 88.9727 7.43492 89.006 7.5679 89.006C7.70087 89.006 7.82435 88.9727 7.93833 88.9063C8.05231 88.8398 8.14254 88.7495 8.20903 88.6356C8.27551 88.5216 8.30876 88.3981 8.30876 88.2651V85.7576C8.30876 85.1877 8.41799 84.7033 8.63645 84.3044C8.8644 83.9055 9.17784 83.6015 9.57677 83.3926C9.98519 83.1741 10.4601 83.0649 11.0015 83.0649C11.5429 83.0649 12.0131 83.1741 12.412 83.3926C12.8204 83.6015 13.1338 83.9055 13.3523 84.3044C13.5803 84.7033 13.6942 85.1877 13.6942 85.7576V88.2651C13.6942 88.3981 13.7275 88.5216 13.794 88.6356C13.8605 88.7495 13.9507 88.8398 14.0647 88.9063C14.1786 88.9727 14.3021 89.006 14.4351 89.006C14.5776 89.006 14.701 88.9727 14.8055 88.9063C14.9195 88.8398 15.0097 88.7495 15.0762 88.6356C15.1427 88.5216 15.176 88.3981 15.176 88.2651V83.2358H17.1278V87.9802C17.1278 88.5881 17.0044 89.0915 16.7574 89.4904C16.52 89.8893 16.197 90.1885 15.7886 90.388C15.3802 90.5779 14.929 90.6729 14.4351 90.6729C13.9507 90.6729 13.5043 90.5779 13.0959 90.388C12.6874 90.1885 12.3597 89.8893 12.1128 89.4904C11.8658 89.0915 11.7424 88.5881 11.7424 87.9802V85.4727C11.7424 85.3302 11.7091 85.2067 11.6426 85.1022C11.5761 84.9882 11.4859 84.898 11.3719 84.8315C11.2674 84.765 11.144 84.7318 11.0015 84.7318C10.8685 84.7318 10.745 84.765 10.6311 84.8315C10.5171 84.898 10.4269 84.9882 10.3604 85.1022C10.2939 85.2067 10.2606 85.3302 10.2606 85.4727V87.9802C10.2606 88.5881 10.1372 89.0915 9.89021 89.4904C9.64326 89.8893 9.31557 90.1885 8.90714 90.388C8.50822 90.5779 8.06181 90.6729 7.5679 90.6729ZM22.6449 90.502C21.8185 90.502 21.0967 90.3452 20.4793 90.0318C19.8714 89.7089 19.3965 89.2719 19.0546 88.721C18.7221 88.1701 18.5559 87.5528 18.5559 86.8689C18.5559 86.0995 18.7126 85.4299 19.0261 84.86C19.3395 84.2901 19.7669 83.8485 20.3083 83.535C20.8497 83.2216 21.4624 83.0649 22.1462 83.0649C22.9631 83.0649 23.6232 83.2358 24.1266 83.5778C24.6395 83.9197 25.0147 84.3804 25.2521 84.9598C25.4896 85.5296 25.6083 86.166 25.6083 86.8689C25.6083 86.9639 25.6036 87.0779 25.5941 87.2108C25.5846 87.3343 25.5703 87.4293 25.5513 87.4958H20.636C20.712 87.7902 20.8402 88.0372 21.0207 88.2366C21.2107 88.4361 21.4434 88.5881 21.7188 88.6925C22.0038 88.7875 22.3219 88.835 22.6734 88.835H24.6965V90.502H22.6449ZM20.6218 86.185H23.6564C23.6374 86.0046 23.6042 85.8383 23.5567 85.6864C23.5092 85.5249 23.4427 85.3824 23.3572 85.2589C23.2718 85.1355 23.172 85.031 23.0581 84.9455C22.9441 84.86 22.8111 84.7935 22.6591 84.746C22.5072 84.6986 22.3409 84.6748 22.1605 84.6748C21.923 84.6748 21.7093 84.7175 21.5193 84.803C21.3389 84.8885 21.1869 85.0025 21.0634 85.145C20.94 85.2874 20.8402 85.4489 20.7642 85.6294C20.6977 85.8098 20.6503 85.9951 20.6218 86.185ZM30.7448 90.6729C29.9659 90.6729 29.2868 90.5115 28.7074 90.1885C28.1375 89.8656 27.6959 89.4097 27.3824 88.8208C27.069 88.2224 26.9123 87.5243 26.9123 86.7264V80.1014H28.8642V84.1334H28.8784C29.0304 83.915 29.2156 83.725 29.4341 83.5635C29.662 83.402 29.9137 83.2786 30.1892 83.1931C30.4741 83.1076 30.7685 83.0649 31.0725 83.0649C31.7849 83.0649 32.4022 83.2216 32.9246 83.535C33.447 83.8485 33.8507 84.2806 34.1357 84.8315C34.4301 85.3729 34.5773 86.0046 34.5773 86.7264C34.5773 87.2963 34.4918 87.8235 34.3209 88.3079C34.1499 88.7828 33.903 89.2007 33.58 89.5616C33.2571 89.9131 32.8582 90.1885 32.3832 90.388C31.9083 90.5779 31.3622 90.6729 30.7448 90.6729ZM30.7448 89.006C31.1342 89.006 31.4667 88.911 31.7421 88.721C32.0176 88.5311 32.2265 88.2746 32.369 87.9517C32.521 87.6287 32.597 87.2678 32.597 86.8689C32.597 86.47 32.521 86.109 32.369 85.7861C32.2265 85.4632 32.0176 85.2067 31.7421 85.0167C31.4667 84.8268 31.1342 84.7318 30.7448 84.7318C30.3649 84.7318 30.0324 84.8268 29.7475 85.0167C29.472 85.2067 29.2583 85.4632 29.1064 85.7861C28.9639 86.109 28.8927 86.47 28.8927 86.8689C28.8927 87.2678 28.9639 87.6287 29.1064 87.9517C29.2583 88.2746 29.472 88.5311 29.7475 88.721C30.0324 88.911 30.3649 89.006 30.7448 89.006ZM43.175 90.6729C42.5671 90.6729 42.021 90.5779 41.5366 90.388C41.0617 90.1885 40.6627 89.9131 40.3398 89.5616C40.0169 89.2007 39.7699 88.7828 39.5989 88.3079C39.428 87.8235 39.3425 87.2963 39.3425 86.7264C39.3425 86.0046 39.485 85.3729 39.7699 84.8315C40.0644 84.2806 40.4728 83.8485 40.9952 83.535C41.5271 83.2216 42.1445 83.0649 42.8473 83.0649C43.1513 83.0649 43.441 83.1076 43.7164 83.1931C44.0014 83.2786 44.2578 83.402 44.4858 83.5635C44.7137 83.725 44.8989 83.915 45.0414 84.1334H45.0557V80.1014H47.0075V86.7264C47.0075 87.5243 46.8508 88.2224 46.5374 88.8208C46.2239 89.4097 45.7823 89.8656 45.2124 90.1885C44.6425 90.5115 43.9634 90.6729 43.175 90.6729ZM43.175 89.006C43.5644 89.006 43.8969 88.911 44.1723 88.721C44.4478 88.5311 44.6567 88.2746 44.7992 87.9517C44.9512 87.6287 45.0272 87.2678 45.0272 86.8689C45.0272 86.47 44.9512 86.109 44.7992 85.7861C44.6567 85.4632 44.4478 85.2067 44.1723 85.0167C43.8969 84.8268 43.5644 84.7318 43.175 84.7318C42.7951 84.7318 42.4626 84.8268 42.1777 85.0167C41.9023 85.2067 41.6885 85.4632 41.5366 85.7861C41.3941 86.109 41.3229 86.47 41.3229 86.8689C41.3229 87.2678 41.3941 87.6287 41.5366 87.9517C41.6885 88.2746 41.9023 88.5311 42.1777 88.721C42.4626 88.911 42.7951 89.006 43.175 89.006ZM52.4473 90.502C51.621 90.502 50.8991 90.3452 50.2817 90.0318C49.6739 89.7089 49.1989 89.2719 48.857 88.721C48.5246 88.1701 48.3584 87.5528 48.3584 86.8689C48.3584 86.0995 48.5151 85.4299 48.8285 84.86C49.142 84.2901 49.5694 83.8485 50.1108 83.535C50.6522 83.2216 51.2648 83.0649 51.9487 83.0649C52.7655 83.0649 53.4256 83.2358 53.929 83.5778C54.442 83.9197 54.8171 84.3804 55.0546 84.9598C55.292 85.5296 55.4108 86.166 55.4108 86.8689C55.4108 86.9639 55.406 87.0779 55.3965 87.2108C55.387 87.3343 55.3728 87.4293 55.3538 87.4958H50.4385C50.5144 87.7902 50.6427 88.0372 50.8231 88.2366C51.0131 88.4361 51.2458 88.5881 51.5213 88.6925C51.8062 88.7875 52.1244 88.835 52.4758 88.835H54.4989V90.502H52.4473ZM50.4242 86.185H53.4589C53.4399 86.0046 53.4066 85.8383 53.3592 85.6864C53.3117 85.5249 53.2452 85.3824 53.1597 85.2589C53.0742 85.1355 52.9745 85.031 52.8605 84.9455C52.7465 84.86 52.6135 84.7935 52.4616 84.746C52.3096 84.6986 52.1434 84.6748 51.9629 84.6748C51.7255 84.6748 51.5118 84.7175 51.3218 84.803C51.1413 84.8885 50.9894 85.0025 50.8659 85.145C50.7424 85.2874 50.6427 85.4489 50.5667 85.6294C50.5002 85.8098 50.4527 85.9951 50.4242 86.185ZM59.824 90.6729C59.3966 90.6729 59.0071 90.5589 58.6557 90.331C58.3138 90.103 58.0763 89.8038 57.9433 89.4334L55.8632 83.2358H57.9861L59.6673 88.6356C59.6863 88.6735 59.71 88.702 59.7385 88.721C59.767 88.74 59.8002 88.7495 59.8382 88.7495C59.8762 88.7495 59.9095 88.74 59.938 88.721C59.976 88.702 59.9997 88.6735 60.0092 88.6356L61.7046 83.2358H63.7847L61.7046 89.4192C61.5716 89.7896 61.3294 90.0935 60.978 90.331C60.6361 90.5589 60.2514 90.6729 59.824 90.6729ZM68.239 90.502C67.4127 90.502 66.6908 90.3452 66.0734 90.0318C65.4655 89.7089 64.9906 89.2719 64.6487 88.721C64.3163 88.1701 64.15 87.5528 64.15 86.8689C64.15 86.0995 64.3068 85.4299 64.6202 84.86C64.9336 84.2901 65.3611 83.8485 65.9025 83.535C66.4439 83.2216 67.0565 83.0649 67.7404 83.0649C68.5572 83.0649 69.2173 83.2358 69.7207 83.5778C70.2336 83.9197 70.6088 84.3804 70.8463 84.9598C71.0837 85.5296 71.2025 86.166 71.2025 86.8689C71.2025 86.9639 71.1977 87.0779 71.1882 87.2108C71.1787 87.3343 71.1645 87.4293 71.1455 87.4958H66.2301C66.3061 87.7902 66.4344 88.0372 66.6148 88.2366C66.8048 88.4361 67.0375 88.5881 67.3129 88.6925C67.5979 88.7875 67.9161 88.835 68.2675 88.835H70.2906V90.502H68.239ZM66.2159 86.185H69.2506C69.2316 86.0046 69.1983 85.8383 69.1508 85.6864C69.1033 85.5249 69.0369 85.3824 68.9514 85.2589C68.8659 85.1355 68.7662 85.031 68.6522 84.9455C68.5382 84.86 68.4052 84.7935 68.2533 84.746C68.1013 84.6986 67.9351 84.6748 67.7546 84.6748C67.5171 84.6748 67.3034 84.7175 67.1135 84.803C66.933 84.8885 66.781 85.0025 66.6576 85.145C66.5341 85.2874 66.4344 85.4489 66.3584 85.6294C66.2919 85.8098 66.2444 85.9951 66.2159 86.185ZM72.5777 90.502V80.1014H74.5295V90.502H72.5777ZM79.8666 90.6729C79.1162 90.6729 78.4466 90.5067 77.8577 90.1743C77.2688 89.8323 76.8034 89.3764 76.4615 88.8065C76.1196 88.2271 75.9486 87.5813 75.9486 86.8689C75.9486 86.1565 76.1196 85.5154 76.4615 84.9455C76.8034 84.3661 77.2688 83.9102 77.8577 83.5778C78.4466 83.2358 79.1162 83.0649 79.8666 83.0649C80.617 83.0649 81.2866 83.2358 81.8755 83.5778C82.4644 83.9102 82.9298 84.3661 83.2717 84.9455C83.6136 85.5154 83.7846 86.1565 83.7846 86.8689C83.7846 87.5813 83.6136 88.2271 83.2717 88.8065C82.9298 89.3764 82.4644 89.8323 81.8755 90.1743C81.2866 90.5067 80.617 90.6729 79.8666 90.6729ZM79.8666 89.006C80.2655 89.006 80.6075 88.911 80.8924 88.721C81.1868 88.5311 81.4101 88.2746 81.562 87.9517C81.7235 87.6287 81.8042 87.2678 81.8042 86.8689C81.8042 86.47 81.7235 86.109 81.562 85.7861C81.4101 85.4632 81.1868 85.2067 80.8924 85.0167C80.6075 84.8268 80.2655 84.7318 79.8666 84.7318C79.4677 84.7318 79.121 84.8268 78.8265 85.0167C78.5416 85.2067 78.3184 85.4632 78.1569 85.7861C78.0049 86.109 77.929 86.47 77.929 86.8689C77.929 87.2678 78.0049 87.6287 78.1569 87.9517C78.3184 88.2746 78.5416 88.5311 78.8265 88.721C79.121 88.911 79.4677 89.006 79.8666 89.006ZM88.9723 83.0649C89.5897 83.0649 90.1358 83.1646 90.6107 83.3641C91.0856 83.554 91.4846 83.8295 91.8075 84.1904C92.1304 84.5418 92.3774 84.9598 92.5484 85.4442C92.7193 85.9191 92.8048 86.4415 92.8048 87.0114C92.8048 87.7237 92.6576 88.3554 92.3631 88.9063C92.0782 89.4572 91.6745 89.8893 91.1521 90.2028C90.6297 90.5162 90.0123 90.6729 89.3 90.6729C88.996 90.6729 88.7016 90.6302 88.4166 90.5447C88.1412 90.4592 87.8895 90.3357 87.6615 90.1743C87.4431 90.0128 87.2579 89.8228 87.1059 89.6044H87.0916V93.6364H85.1398V87.0114C85.1398 86.204 85.2965 85.5059 85.6099 84.917C85.9234 84.3281 86.365 83.8722 86.9349 83.5493C87.5143 83.2263 88.1934 83.0649 88.9723 83.0649ZM88.9723 84.7318C88.5924 84.7318 88.2599 84.8268 87.975 85.0167C87.6995 85.2067 87.4858 85.4632 87.3338 85.7861C87.1914 86.109 87.1201 86.47 87.1201 86.8689C87.1201 87.2678 87.1914 87.6287 87.3338 87.9517C87.4858 88.2746 87.6995 88.5311 87.975 88.721C88.2599 88.911 88.5924 89.006 88.9723 89.006C89.3617 89.006 89.6941 88.911 89.9696 88.721C90.245 88.5311 90.454 88.2746 90.5965 87.9517C90.7484 87.6287 90.8244 87.2678 90.8244 86.8689C90.8244 86.47 90.7484 86.109 90.5965 85.7861C90.454 85.4632 90.245 85.2067 89.9696 85.0167C89.6941 84.8268 89.3617 84.7318 88.9723 84.7318ZM94.2269 90.502V86.185C94.2269 85.6151 94.3646 85.0927 94.64 84.6178C94.9155 84.1429 95.3097 83.7677 95.8226 83.4923C96.345 83.2073 96.9718 83.0649 97.7032 83.0649C98.0546 83.0649 98.3776 83.1076 98.672 83.1931C98.976 83.2691 99.2562 83.3831 99.5126 83.535C99.7691 83.687 99.9923 83.8675 100.182 84.0764H100.196C100.396 83.8675 100.624 83.687 100.88 83.535C101.137 83.3831 101.417 83.2691 101.721 83.1931C102.025 83.1076 102.353 83.0649 102.704 83.0649C103.435 83.0649 104.058 83.2073 104.57 83.4923C105.093 83.7677 105.492 84.1429 105.767 84.6178C106.043 85.0927 106.18 85.6151 106.18 86.185V90.502H104.228V86.185C104.228 85.9191 104.157 85.6769 104.015 85.4584C103.882 85.24 103.701 85.0642 103.473 84.9313C103.245 84.7983 102.989 84.7318 102.704 84.7318C102.429 84.7318 102.172 84.7983 101.935 84.9313C101.707 85.0642 101.521 85.24 101.379 85.4584C101.246 85.6769 101.18 85.9191 101.18 86.185V90.502H99.2277V86.185C99.2277 85.9191 99.1564 85.6769 99.014 85.4584C98.881 85.24 98.7005 85.0642 98.4726 84.9313C98.2446 84.7983 97.9882 84.7318 97.7032 84.7318C97.4278 84.7318 97.1713 84.7983 96.9339 84.9313C96.7059 85.0642 96.5207 85.24 96.3782 85.4584C96.2452 85.6769 96.1787 85.9191 96.1787 86.185V90.502H94.2269ZM111.69 90.502C110.864 90.502 110.142 90.3452 109.525 90.0318C108.917 89.7089 108.442 89.2719 108.1 88.721C107.768 88.1701 107.602 87.5528 107.602 86.8689C107.602 86.0995 107.758 85.4299 108.072 84.86C108.385 84.2901 108.813 83.8485 109.354 83.535C109.895 83.2216 110.508 83.0649 111.192 83.0649C112.009 83.0649 112.669 83.2358 113.172 83.5778C113.685 83.9197 114.06 84.3804 114.298 84.9598C114.535 85.5296 114.654 86.166 114.654 86.8689C114.654 86.9639 114.649 87.0779 114.64 87.2108C114.63 87.3343 114.616 87.4293 114.597 87.4958H109.682C109.758 87.7902 109.886 88.0372 110.066 88.2366C110.256 88.4361 110.489 88.5881 110.764 88.6925C111.049 88.7875 111.368 88.835 111.719 88.835H113.742V90.502H111.69ZM109.667 86.185H112.702C112.683 86.0046 112.65 85.8383 112.602 85.6864C112.555 85.5249 112.488 85.3824 112.403 85.2589C112.317 85.1355 112.218 85.031 112.104 84.9455C111.99 84.86 111.857 84.7935 111.705 84.746C111.553 84.6986 111.387 84.6748 111.206 84.6748C110.969 84.6748 110.755 84.7175 110.565 84.803C110.384 84.8885 110.233 85.0025 110.109 85.145C109.986 85.2874 109.886 85.4489 109.81 85.6294C109.743 85.8098 109.696 85.9951 109.667 86.185ZM116.029 90.502V86.3275C116.029 85.7291 116.167 85.183 116.442 84.6891C116.727 84.1951 117.136 83.801 117.668 83.5065C118.199 83.2121 118.836 83.0649 119.577 83.0649C120.327 83.0649 120.963 83.2121 121.486 83.5065C122.018 83.801 122.421 84.1951 122.697 84.6891C122.982 85.183 123.124 85.7291 123.124 86.3275V90.502H121.172V86.3275C121.172 86.033 121.101 85.7671 120.959 85.5296C120.816 85.2827 120.622 85.088 120.375 84.9455C120.137 84.803 119.871 84.7318 119.577 84.7318C119.282 84.7318 119.012 84.803 118.765 84.9455C118.527 85.088 118.337 85.2827 118.195 85.5296C118.052 85.7671 117.981 86.033 117.981 86.3275V90.502H116.029ZM127.497 90.502C126.851 90.502 126.343 90.3167 125.973 89.9463C125.612 89.5759 125.431 89.0725 125.431 88.4361V81.4122H127.383V88.3791C127.383 88.5026 127.426 88.6118 127.511 88.7068C127.606 88.7923 127.716 88.835 127.839 88.835H129.421V90.502H127.497ZM124.192 84.9028V83.2358H129.421V84.9028H124.192Z" fill="#F4F4F4"/>
<rect x="4" y="107" width="9" height="328" transform="rotate(-90 4 107)" fill="#F4F4F4"/>
<path fill-rule="evenodd" clip-rule="evenodd" d="M248.103 54.3596C250.005 59.1582 252.836 63.5347 256.432 67.2395C257.91 65.3645 259.1 64.2417 259.857 63.5276C260.109 63.2905 260.313 63.0983 260.463 62.9386C260.78 62.6025 260.891 62.2554 260.978 61.9819C261.057 61.7348 261.116 61.548 261.291 61.4836C261.661 61.3482 265.158 58.6011 266.984 56.1525C267.649 55.2595 268.389 54.6888 269.16 54.0942C270.503 53.0583 271.94 51.95 273.243 48.9386C273.65 47.9977 272.756 47.895 272.22 47.8333C271.928 47.7998 271.742 47.7784 271.929 47.6409C272.352 47.3296 273.152 47.0659 274.123 46.7459C275.907 46.1578 278.27 45.3788 279.935 43.7641C281.412 42.3322 282.311 41.2736 283.151 40.2852C284.42 38.7914 285.553 37.4588 288.333 35.2428C291.089 34.1502 286.966 33.6627 284.614 33.3848L284.614 33.3846L284.614 33.3847C283.814 33.2901 283.219 33.2199 283.17 33.1582C283.123 33.0993 283.682 33.088 284.553 33.0703C287.283 33.0151 293.073 32.8977 292.877 31.0652C292.7 29.4051 291.513 29.2998 290.62 29.2207C290.212 29.1846 289.866 29.1538 289.705 28.9832C289.513 28.7802 290.263 28.6833 291.382 28.5384C293.266 28.2947 296.194 27.9155 297.446 26.6691C299.441 24.6818 312.91 12.4787 312.91 12.4787C309.314 8.77382 305.023 5.81368 300.282 3.7671C295.54 1.72041 290.442 0.627284 285.277 0.550236C280.112 0.473133 274.982 1.41361 270.18 3.31779C265.377 5.22205 260.997 8.0528 257.288 11.6485C253.58 15.2442 250.616 19.5342 248.566 24.2739C246.516 29.0136 245.42 34.11 245.341 39.272C245.261 44.4342 246.2 49.5609 248.103 54.3596ZM274.099 82.2506C273.334 81.9822 272.579 81.6906 271.834 81.3764C273.158 80.7363 272.99 76.7642 272.538 75.5921C272.001 74.2002 272.505 72.3594 272.505 72.3594C273.4 70.5338 274.237 71.6464 274.876 72.4966C275.265 73.013 275.581 73.4329 275.792 73.0388C275.961 72.7244 276.084 71.8944 276.231 70.8981C276.572 68.5898 277.045 65.3904 278.531 65.6501C280.035 65.9132 280.874 68.607 281.276 69.8963C281.443 70.4299 281.534 70.723 281.567 70.5034C281.656 69.8999 281.254 67.9718 280.82 65.89C280.26 63.1972 279.645 60.2475 279.97 59.5751C281.323 56.7719 284.939 62.7154 287.47 66.8769C288.613 68.7567 289.536 70.2731 289.928 70.4548C290.267 70.6118 290.11 69.869 289.869 68.7321C289.214 65.6362 287.941 59.6168 294.375 60.8699C300.408 62.0445 298.852 57.0275 297.763 53.5121C297.263 51.9004 296.861 50.6043 297.333 50.3655C297.472 50.2938 297.632 50.064 297.823 49.7892C298.6 48.6712 299.891 46.8118 302.4 51.8573C305.526 58.1431 305.61 47.3315 302.856 44.5728C300.103 41.8142 298.562 36.2655 298.744 35.9272C298.904 35.6314 299.156 35.1188 299.457 34.5058L299.458 34.5045L299.458 34.5043C300.642 32.0952 302.586 28.138 302.657 29.6971C302.702 30.6829 302.915 30.273 303.252 29.6276C303.583 28.9924 304.033 28.1288 304.559 28.1439C305.078 28.1589 305.341 28.3685 305.595 28.5709C305.859 28.7813 306.113 28.9839 306.636 28.9526C306.96 28.7024 307.506 27.2218 308.059 25.7218C308.628 24.1761 309.206 22.6098 309.556 22.3473C310.675 21.5107 311.437 22.2179 311.832 22.584C311.975 22.7172 312.07 22.8054 312.116 22.7569C312.296 22.566 312.354 21.661 312.424 20.5488C312.517 19.0956 312.632 17.2886 313.072 16.2581L313.413 15.8779C317.259 19.3227 320.388 23.4913 322.621 28.1453C324.855 32.7995 326.149 37.8481 326.43 43.0031C326.71 48.1578 325.973 53.3181 324.258 58.1891C322.544 63.0598 319.887 67.546 316.438 71.3914C312.99 75.2366 308.818 78.3658 304.16 80.6002C299.502 82.8346 294.45 84.1303 289.292 84.4135C284.134 84.6967 278.971 83.9619 274.099 82.2506ZM313.307 15.8308C313.22 15.9507 313.142 16.0947 313.072 16.2581L287.153 45.1596L260.893 74.4412C264.135 77.3455 267.834 79.6875 271.834 81.3764C271.826 81.3806 271.817 81.3847 271.808 81.3886C271.772 81.4048 271.451 81.3173 271.211 81.1887C271.165 81.1656 271.118 81.1489 271.066 81.131C270.966 81.0962 270.852 81.0565 270.707 80.9549C270.669 80.9285 270.628 80.919 270.582 80.9083C270.51 80.8914 270.426 80.872 270.328 80.7796C268.776 80.132 270.465 85.8595 271.869 90.6216C272.794 93.7584 273.596 96.4764 273.266 96.6781C272.776 97.0902 272.295 95.5615 271.559 93.2262C270.972 91.3605 270.222 88.9803 269.176 86.6636C266.838 81.4823 262.703 76.1106 260.787 74.3942L287.047 45.1126L313.307 15.8308ZM255.922 75.1263L318.156 8.12131L318.589 8.5227L256.355 75.5277L255.922 75.1263ZM255.247 53.7934C255.662 53.8685 256.183 53.8831 256.773 53.7282C256.948 53.6823 257.133 53.7853 257.169 53.9623C257.196 54.0987 257.125 54.2357 257.002 54.3005C256.546 54.5399 255.865 54.9833 255.194 55.441C254.518 55.9025 253.614 55.2394 253.872 54.4627C254.046 53.9372 254.702 53.6949 255.247 53.7934ZM264.165 46.5408C264.382 46.591 264.557 46.3632 264.454 46.1656C264.416 46.0928 264.348 46.0425 264.267 46.0279C263.741 45.9336 261.623 45.5265 258.645 44.5928C256.18 43.8203 254.565 43.1383 253.843 42.8115C253.592 42.6983 253.293 42.7798 253.142 43.0091C252.945 43.3085 253.089 43.7126 253.432 43.817C254.517 44.1474 256.675 44.7891 258.291 45.1713C260.038 45.5849 262.955 46.2608 264.165 46.5408ZM266.976 48.3473C267.061 48.4158 267.027 48.553 266.92 48.5731C266.32 48.6854 264.874 48.9555 264.006 49.1136C263.563 49.1942 262.735 49.522 261.896 49.8879C261.363 50.1209 260.853 49.4286 261.247 49.0005C261.377 48.8597 261.574 48.7989 261.764 48.8212C262.148 48.8665 262.9 48.9096 264.051 48.7837C265.576 48.6172 266.609 48.3833 266.864 48.3223C266.904 48.3128 266.944 48.3221 266.976 48.3473ZM276.145 81.2455C276.007 78.4018 275.712 74.8948 275.091 73.9567C275.049 73.8936 275.012 73.8317 274.986 73.7605C274.757 73.1249 275.017 73.0033 275.28 73.6258C276.341 76.1375 277.675 79.7144 278.114 80.901C278.209 81.1559 278.19 81.438 278.065 81.6796C277.6 82.5797 276.194 82.2576 276.145 81.2455Z" fill="#F4F4F4"/>
</svg>
