<svg width="379" height="475" viewBox="0 0 379 475" fill="none" xmlns="http://www.w3.org/2000/svg">
<path fill-rule="evenodd" clip-rule="evenodd" d="M60.9034 142.857C61.2896 159.416 64.9368 175.738 71.6352 190.89C78.1696 186.892 83.0026 184.838 86.0754 183.531C87.0971 183.098 87.9239 182.746 88.555 182.433C89.8828 181.774 90.6023 180.853 91.1684 180.127C91.6808 179.471 92.0677 178.975 92.6672 178.976C93.9294 178.98 107.511 174.604 115.731 169.267C118.729 167.321 121.591 166.427 124.572 165.495C129.768 163.873 135.326 162.137 142.597 154.523C144.869 152.144 142.294 150.84 140.749 150.058C139.908 149.633 139.372 149.361 140.088 149.155C141.708 148.69 144.408 148.786 147.686 148.904C153.711 149.119 161.688 149.405 168.497 146.399C174.535 143.733 178.421 141.548 182.048 139.508C187.531 136.426 192.422 133.675 203.256 130.101C212.765 129.879 200.899 123.823 194.131 120.37V120.369H194.131C191.829 119.194 190.116 118.321 190.037 118.08C189.962 117.851 191.657 118.439 194.299 119.356C202.574 122.227 220.129 128.318 221.581 122.586C222.896 117.392 219.44 115.754 216.84 114.522C215.654 113.96 214.646 113.481 214.351 112.789C214.001 111.965 216.365 112.508 219.895 113.317C225.833 114.68 235.07 116.798 240.223 114.44C248.439 110.679 302.557 88.9449 302.557 88.9449C295.859 73.7929 286.239 60.1082 274.248 48.672C262.257 37.2353 248.128 28.2705 232.67 22.2902C217.212 16.3096 200.726 13.4302 184.154 13.8162C167.582 14.2023 151.249 17.8462 136.086 24.5401C120.923 31.2342 107.229 40.8464 95.7842 52.8291C84.3392 64.8117 75.3682 78.9294 69.3835 94.3762C63.3988 109.824 60.5172 126.297 60.9034 142.857ZM108.097 255.73C106.095 254.071 104.148 252.353 102.256 250.579C106.95 250.125 110.868 237.984 110.813 233.954C110.746 229.167 114.311 224.189 114.311 224.189C119.036 219.69 120.316 223.97 121.294 227.24C121.888 229.227 122.371 230.842 123.447 229.891C124.305 229.133 125.599 226.772 127.15 223.937C130.746 217.37 135.731 208.268 139.912 210.703C144.145 213.168 143.674 222.21 143.449 226.538C143.356 228.329 143.305 229.312 143.647 228.688C144.586 226.97 145.524 220.721 146.536 213.973C147.845 205.245 149.279 195.684 151.005 194.021C158.198 187.091 162.463 209.002 165.449 224.344C166.799 231.274 167.887 236.864 168.866 237.848C169.711 238.698 170.065 236.287 170.606 232.598C172.08 222.552 174.947 203.018 192.918 213.952C209.765 224.201 210.668 207.37 211.3 195.578C211.591 190.171 211.824 185.824 213.511 185.63C214.009 185.569 214.746 185.055 215.626 184.441C219.207 181.94 225.164 177.782 227.1 195.76C229.512 218.156 241.796 185.711 236.58 174.344C231.364 162.977 232.903 144.564 233.827 143.748C234.636 143.035 235.964 141.773 237.553 140.263L237.557 140.26V140.259C243.802 134.327 254.059 124.582 252.536 129.353C251.573 132.37 252.673 131.374 254.404 129.806C256.108 128.263 258.425 126.165 259.988 126.795C261.534 127.418 262.092 128.342 262.632 129.234C263.192 130.161 263.733 131.054 265.339 131.541C266.595 131.149 269.885 127.301 273.218 123.402C276.653 119.383 280.133 115.312 281.481 114.913C285.778 113.64 287.285 116.616 288.065 118.157C288.349 118.718 288.537 119.089 288.728 118.994C289.482 118.62 290.663 115.96 292.114 112.692C294.01 108.421 296.367 103.111 298.839 100.5L300.288 99.7348C308.028 114.383 312.805 130.411 314.347 146.903C315.888 163.396 314.164 180.03 309.271 195.857C304.38 211.683 296.416 226.392 285.836 239.143C275.255 251.894 262.265 262.438 247.606 270.172C232.948 277.906 216.909 282.68 200.404 284.221C183.899 285.761 167.253 284.038 151.415 279.149C135.577 274.261 120.857 266.303 108.097 255.73ZM300.021 99.4754C299.626 99.7392 299.231 100.086 298.839 100.5L188.666 158.632L77.045 217.529C83.5706 229.878 92.0948 241.043 102.256 250.579C102.226 250.582 102.195 250.584 102.164 250.586C102.036 250.594 101.168 249.974 100.59 249.32C100.477 249.2 100.352 249.096 100.217 248.985C99.9551 248.769 99.6554 248.522 99.331 248.055C99.247 247.934 99.1341 247.859 99.0079 247.776C98.8091 247.645 98.5793 247.493 98.3875 247.106C94.4362 243.43 93.1443 262.546 92.0702 278.441C91.3627 288.911 90.7499 297.983 89.5332 298.223C87.6014 298.918 87.8538 293.782 88.2388 285.935C88.5468 279.666 88.9393 271.668 88.3707 263.532C87.1003 245.336 80.6353 224.568 76.7787 217.269L188.4 158.373L300.021 99.4754ZM61.3231 214.058L323.195 81.6703L324.051 83.3597L62.1782 215.748L61.3231 214.058ZM83.0341 149.104C84.1998 149.792 85.7516 150.416 87.7017 150.608C88.2786 150.664 88.7197 151.179 88.6301 151.752C88.5613 152.193 88.1953 152.526 87.7522 152.584C86.1152 152.798 83.5693 153.373 81.0418 154.004C78.4946 154.641 76.5111 151.639 78.1513 149.588C79.2614 148.201 81.5037 148.201 83.0341 149.104ZM117.945 137.203C118.543 137.596 119.324 137.105 119.234 136.396C119.2 136.135 119.05 135.907 118.823 135.773C117.346 134.904 111.426 131.322 103.501 125.197C96.9416 120.128 92.8408 116.278 91.0314 114.491C90.4047 113.872 89.4133 113.784 88.7033 114.306C87.7762 114.988 87.7604 116.364 88.6768 117.06C91.5742 119.262 97.355 123.595 101.792 126.544C106.591 129.733 114.616 135.014 117.945 137.203ZM124.396 145.769C124.576 146.07 124.321 146.445 123.975 146.386C122.045 146.056 117.392 145.26 114.604 144.769C113.182 144.519 110.325 144.584 107.393 144.752C105.528 144.859 104.765 142.208 106.428 141.359C106.975 141.079 107.635 141.115 108.183 141.394C109.289 141.958 111.504 142.925 115.108 143.827C119.882 145.023 123.252 145.469 124.088 145.57C124.216 145.585 124.329 145.658 124.396 145.769ZM115.375 254.982C118.123 246.27 121.14 235.388 120.315 231.873C120.259 231.637 120.216 231.409 120.218 231.166C120.235 228.998 121.154 228.922 121.252 231.088C121.648 239.827 121.684 252.077 121.684 256.137C121.684 257.009 121.316 257.838 120.671 258.426C118.268 260.617 114.396 258.083 115.375 254.982Z" fill="#121212"/>
<path d="M10.0724 411.169V393.221H52.8063C54.8958 393.221 56.7948 392.699 58.5043 391.654C60.2134 390.609 61.5906 389.232 62.6351 387.523C63.6796 385.719 64.2019 383.772 64.2019 381.683C64.2019 379.499 63.6796 377.552 62.6351 375.842C61.5906 374.038 60.2134 372.614 58.5043 371.569C56.7948 370.524 54.8958 370.002 52.8063 370.002H36.1401C30.5372 370.002 25.4566 368.862 20.8983 366.583C16.34 364.304 12.6838 361.028 9.9299 356.755C7.27087 352.386 5.94141 347.163 5.94141 341.085C5.94141 335.103 7.22342 329.927 9.78745 325.559C12.3515 321.095 15.8177 317.629 20.1861 315.16C24.5544 312.691 29.3976 311.457 34.7156 311.457H78.0193V329.405H36.7099C34.8106 329.405 33.0537 329.927 31.4394 330.972C29.8249 331.922 28.5429 333.203 27.5933 334.818C26.7386 336.432 26.3112 338.236 26.3112 340.231C26.3112 342.225 26.7386 344.029 27.5933 345.644C28.5429 347.258 29.8249 348.54 31.4394 349.49C33.0537 350.439 34.8106 350.914 36.7099 350.914H53.9458C60.1189 350.914 65.4842 352.102 70.0422 354.476C74.6008 356.85 78.1143 360.173 80.5833 364.447C83.1474 368.72 84.4296 373.706 84.4296 379.404C84.4296 386.146 83.1001 391.891 80.4411 396.64C77.8771 401.388 74.3635 404.997 69.9 407.466C65.5314 409.935 60.6884 411.169 55.3703 411.169H10.0724ZM124.881 411.169C119.373 411.169 114.34 409.84 109.782 407.181C105.318 404.522 101.757 400.96 99.098 396.497C96.439 391.939 95.1095 386.906 95.1095 381.398C95.1095 377.41 95.9645 373.658 97.6735 370.145C99.3831 366.631 101.71 363.544 104.653 360.885C101.71 358.226 99.3831 355.14 97.6735 351.627C95.9645 348.113 95.1095 344.409 95.1095 340.516C95.1095 335.103 96.3918 330.212 98.9558 325.843C101.615 321.475 105.128 318.009 109.497 315.445C113.96 312.786 118.851 311.457 124.169 311.457H165.193V329.405H126.448C124.454 329.405 122.602 329.927 120.893 330.972C119.278 331.922 117.949 333.251 116.904 334.96C115.955 336.575 115.479 338.426 115.479 340.516C115.479 342.51 115.955 344.362 116.904 346.071C117.949 347.686 119.278 349.015 120.893 350.06C122.602 351.009 124.454 351.484 126.448 351.484H160.35V369.432H127.303C125.118 369.432 123.124 370.002 121.32 371.141C119.516 372.187 118.091 373.611 117.046 375.415C116.002 377.22 115.479 379.214 115.479 381.398C115.479 383.582 116.002 385.576 117.046 387.381C118.091 389.185 119.516 390.609 121.32 391.654C123.124 392.699 125.118 393.221 127.303 393.221H165.193V411.169H124.881ZM176.627 383.534V365.729H216.939V383.534H176.627ZM246.608 411.169C242.81 411.169 239.486 410.362 236.637 408.747C233.788 407.038 231.557 404.807 229.942 402.053C228.423 399.299 227.663 396.212 227.663 392.794C227.663 389.565 228.47 386.431 230.085 383.392C231.794 380.353 233.978 377.884 236.637 375.985L267.263 354.048C269.352 352.529 270.919 350.724 271.964 348.635C273.009 346.546 273.531 344.362 273.531 342.083C273.531 339.424 272.961 337.192 271.822 335.388C270.682 333.488 269.067 332.017 266.978 330.972C264.889 329.927 262.373 329.405 259.429 329.405H233.076V311.457H261.85C268.403 311.457 274.053 312.833 278.801 315.587C283.549 318.341 287.206 322.045 289.77 326.698C292.429 331.257 293.758 336.385 293.758 342.083C293.758 347.78 292.619 352.814 290.34 357.182C288.155 361.455 284.547 365.301 279.514 368.72L248.888 389.517C248.698 389.612 248.46 389.85 248.175 390.23C247.89 390.514 247.748 390.894 247.748 391.369C247.748 392.034 247.938 392.509 248.318 392.794C248.698 393.078 249.22 393.221 249.885 393.221H296.75V411.169H246.608ZM311.076 411.169L352.812 333.821C353.287 332.871 353.525 332.064 353.525 331.399C353.525 330.829 353.335 330.354 352.955 329.975C352.575 329.595 352.053 329.405 351.388 329.405H305.948V311.457H353.952C357.655 311.457 360.98 312.311 363.924 314.021C366.962 315.73 369.384 318.009 371.188 320.858C372.992 323.612 373.895 326.746 373.895 330.259C373.895 332.159 373.657 334.058 373.182 335.957C372.707 337.762 372.09 339.471 371.331 341.085L334.152 411.169H311.076Z" fill="#121212"/>
<path d="M234.489 446.283C233.388 446.283 232.43 446 231.612 445.434C230.795 444.868 230.158 444.114 229.702 443.171C229.262 442.212 229.042 441.159 229.042 440.011C229.042 438.832 229.294 437.763 229.797 436.804C230.315 435.845 231.054 435.091 232.013 434.541C232.972 433.975 234.119 433.692 235.456 433.692C236.808 433.692 237.947 433.975 238.875 434.541C239.802 435.106 240.51 435.869 240.997 436.828C241.484 437.787 241.728 438.848 241.728 440.011V446H238.497V443.996H238.45C238.214 444.42 237.916 444.806 237.554 445.151C237.208 445.497 236.784 445.772 236.281 445.977C235.778 446.181 235.181 446.283 234.489 446.283ZM235.408 443.524C236.037 443.524 236.58 443.367 237.035 443.053C237.491 442.738 237.837 442.314 238.073 441.779C238.324 441.229 238.45 440.624 238.45 439.964C238.45 439.304 238.324 438.714 238.073 438.195C237.837 437.661 237.491 437.236 237.035 436.922C236.58 436.608 236.037 436.45 235.408 436.45C234.764 436.45 234.206 436.608 233.734 436.922C233.278 437.236 232.925 437.661 232.673 438.195C232.437 438.714 232.32 439.304 232.32 439.964C232.32 440.624 232.437 441.229 232.673 441.779C232.925 442.314 233.278 442.738 233.734 443.053C234.206 443.367 234.764 443.524 235.408 443.524Z" fill="#121212"/>
<path d="M244.786 446V439.091C244.786 438.101 245.014 437.197 245.47 436.38C245.941 435.562 246.617 434.91 247.498 434.423C248.378 433.935 249.431 433.692 250.657 433.692C251.899 433.692 252.952 433.935 253.817 434.423C254.697 434.91 255.365 435.562 255.821 436.38C256.293 437.197 256.529 438.101 256.529 439.091V446H253.298V439.091C253.298 438.604 253.18 438.164 252.945 437.771C252.709 437.362 252.386 437.04 251.978 436.804C251.585 436.568 251.145 436.45 250.657 436.45C250.17 436.45 249.722 436.568 249.313 436.804C248.92 437.04 248.606 437.362 248.37 437.771C248.134 438.164 248.016 438.604 248.016 439.091V446H244.786Z" fill="#121212"/>
<path d="M265.228 446.283C264.222 446.283 263.318 446.126 262.516 445.812C261.73 445.481 261.07 445.026 260.535 444.444C260.001 443.847 259.592 443.155 259.309 442.369C259.026 441.567 258.885 440.695 258.885 439.752C258.885 438.557 259.121 437.512 259.592 436.616C260.08 435.704 260.756 434.989 261.62 434.47C262.5 433.951 263.522 433.692 264.685 433.692C265.189 433.692 265.668 433.762 266.124 433.904C266.595 434.045 267.02 434.25 267.397 434.517C267.774 434.784 268.081 435.099 268.317 435.46H268.34V428.787H271.571V439.752C271.571 441.072 271.311 442.227 270.793 443.218C270.274 444.192 269.543 444.947 268.6 445.481C267.657 446.016 266.533 446.283 265.228 446.283ZM265.228 443.524C265.872 443.524 266.423 443.367 266.878 443.053C267.334 442.738 267.68 442.314 267.916 441.779C268.167 441.245 268.293 440.648 268.293 439.987C268.293 439.327 268.167 438.73 267.916 438.195C267.68 437.661 267.334 437.236 266.878 436.922C266.423 436.608 265.872 436.45 265.228 436.45C264.599 436.45 264.049 436.608 263.577 436.922C263.121 437.236 262.768 437.661 262.516 438.195C262.28 438.73 262.162 439.327 262.162 439.987C262.162 440.648 262.28 441.245 262.516 441.779C262.768 442.314 263.121 442.738 263.577 443.053C264.049 443.367 264.599 443.524 265.228 443.524Z" fill="#121212"/>
<path d="M290.409 446.283C289.403 446.283 288.499 446.126 287.698 445.811C286.912 445.481 286.251 445.025 285.717 444.444C285.183 443.847 284.774 443.155 284.491 442.369C284.208 441.567 284.066 440.695 284.066 439.752C284.066 438.557 284.302 437.511 284.774 436.615C285.261 435.704 285.937 434.988 286.802 434.47C287.682 433.951 288.704 433.692 289.867 433.692C290.37 433.692 290.849 433.762 291.305 433.904C291.777 434.045 292.201 434.25 292.579 434.517C292.956 434.784 293.262 435.098 293.498 435.46H293.522V428.787H296.752V439.752C296.752 441.072 296.493 442.227 295.974 443.218C295.455 444.192 294.724 444.947 293.781 445.481C292.838 446.016 291.714 446.283 290.409 446.283ZM290.409 443.524C291.054 443.524 291.604 443.367 292.06 443.053C292.516 442.738 292.862 442.314 293.097 441.779C293.349 441.245 293.475 440.648 293.475 439.987C293.475 439.327 293.349 438.73 293.097 438.195C292.862 437.661 292.516 437.236 292.06 436.922C291.604 436.608 291.054 436.45 290.409 436.45C289.781 436.45 289.23 436.608 288.759 436.922C288.303 437.236 287.949 437.661 287.698 438.195C287.462 438.73 287.344 439.327 287.344 439.987C287.344 440.648 287.462 441.245 287.698 441.779C287.949 442.314 288.303 442.738 288.759 443.053C289.23 443.367 289.781 443.524 290.409 443.524Z" fill="#121212"/>
<path d="M305.755 446C304.388 446 303.193 445.741 302.171 445.222C301.165 444.688 300.379 443.964 299.813 443.053C299.263 442.141 298.988 441.119 298.988 439.987C298.988 438.714 299.247 437.606 299.766 436.663C300.285 435.719 300.992 434.988 301.888 434.47C302.784 433.951 303.798 433.692 304.93 433.692C306.282 433.692 307.374 433.975 308.207 434.54C309.056 435.106 309.677 435.869 310.07 436.828C310.463 437.771 310.66 438.824 310.66 439.987C310.66 440.145 310.652 440.333 310.636 440.553C310.62 440.758 310.597 440.915 310.565 441.025H302.43C302.556 441.512 302.768 441.921 303.067 442.251C303.382 442.581 303.767 442.833 304.223 443.005C304.694 443.163 305.221 443.241 305.802 443.241H309.151V446H305.755ZM302.407 438.855H307.429C307.398 438.557 307.343 438.282 307.264 438.03C307.186 437.763 307.076 437.527 306.934 437.323C306.793 437.118 306.628 436.946 306.439 436.804C306.25 436.663 306.03 436.553 305.779 436.474C305.527 436.395 305.252 436.356 304.954 436.356C304.561 436.356 304.207 436.427 303.892 436.568C303.594 436.71 303.342 436.898 303.138 437.134C302.934 437.37 302.768 437.637 302.643 437.936C302.533 438.235 302.454 438.541 302.407 438.855Z" fill="#121212"/>
<path d="M312.983 446V443.241H318.854C319.043 443.241 319.208 443.202 319.349 443.123C319.507 443.045 319.624 442.935 319.703 442.793C319.797 442.652 319.845 442.495 319.845 442.322C319.845 442.133 319.797 441.968 319.703 441.827C319.624 441.685 319.507 441.575 319.349 441.496C319.208 441.402 319.043 441.355 318.854 441.355H316.591C315.82 441.355 315.121 441.237 314.492 441.001C313.879 440.75 313.384 440.357 313.006 439.822C312.645 439.272 312.464 438.557 312.464 437.677C312.464 437.001 312.629 436.387 312.959 435.837C313.305 435.271 313.761 434.823 314.327 434.493C314.909 434.147 315.545 433.975 316.237 433.975H321.872V436.733H316.543C316.308 436.733 316.095 436.812 315.907 436.969C315.734 437.126 315.647 437.331 315.647 437.582C315.647 437.834 315.734 438.046 315.907 438.219C316.08 438.376 316.292 438.455 316.543 438.455H318.807C319.672 438.455 320.418 438.588 321.047 438.855C321.676 439.107 322.163 439.508 322.509 440.058C322.855 440.608 323.028 441.331 323.028 442.227C323.028 442.919 322.855 443.556 322.509 444.137C322.163 444.703 321.7 445.159 321.118 445.505C320.536 445.835 319.884 446 319.161 446H312.983Z" fill="#121212"/>
<path d="M325.555 446V433.975H328.809V446H325.555ZM327.182 432.536C326.631 432.536 326.152 432.34 325.743 431.947C325.35 431.538 325.154 431.059 325.154 430.508C325.154 429.958 325.35 429.487 325.743 429.094C326.152 428.685 326.631 428.48 327.182 428.48C327.732 428.48 328.203 428.685 328.596 429.094C329.005 429.487 329.209 429.958 329.209 430.508C329.209 431.059 329.005 431.538 328.596 431.947C328.203 432.34 327.732 432.536 327.182 432.536Z" fill="#121212"/>
<path d="M333.657 450.787V448.028H339.834C340.054 448.028 340.235 447.949 340.377 447.792C340.518 447.651 340.589 447.478 340.589 447.273V444.326H340.565C340.204 444.735 339.834 445.065 339.457 445.316C339.08 445.568 338.671 445.756 338.231 445.882C337.807 445.992 337.335 446.047 336.816 446.047C335.747 446.047 334.78 445.796 333.916 445.293C333.067 444.774 332.391 444.051 331.888 443.123C331.385 442.196 331.133 441.119 331.133 439.893C331.133 438.73 331.377 437.684 331.864 436.757C332.367 435.814 333.091 435.067 334.034 434.517C334.977 433.967 336.125 433.692 337.476 433.692C338.781 433.692 339.905 433.959 340.848 434.493C341.791 435.028 342.522 435.782 343.041 436.757C343.56 437.732 343.819 438.887 343.819 440.223V447.368C343.819 448.421 343.513 449.254 342.9 449.867C342.302 450.48 341.469 450.787 340.4 450.787H333.657ZM337.476 443.288C338.121 443.288 338.671 443.139 339.127 442.84C339.583 442.542 339.929 442.149 340.164 441.661C340.416 441.158 340.542 440.6 340.542 439.987C340.542 439.327 340.416 438.73 340.164 438.195C339.929 437.661 339.583 437.236 339.127 436.922C338.671 436.608 338.121 436.45 337.476 436.45C336.848 436.45 336.297 436.608 335.826 436.922C335.37 437.221 335.016 437.629 334.765 438.148C334.529 438.667 334.411 439.248 334.411 439.893C334.411 440.522 334.529 441.096 334.765 441.614C335.016 442.117 335.37 442.526 335.826 442.84C336.297 443.139 336.848 443.288 337.476 443.288Z" fill="#121212"/>
<path d="M346.762 446V439.091C346.762 438.101 346.99 437.197 347.446 436.38C347.918 435.562 348.594 434.91 349.474 434.423C350.354 433.935 351.408 433.692 352.634 433.692C353.876 433.692 354.929 433.935 355.793 434.423C356.674 434.91 357.342 435.562 357.798 436.38C358.269 437.197 358.505 438.101 358.505 439.091V446H355.275V439.091C355.275 438.604 355.157 438.164 354.921 437.771C354.685 437.362 354.363 437.04 353.954 436.804C353.561 436.568 353.121 436.45 352.634 436.45C352.146 436.45 351.698 436.568 351.29 436.804C350.897 437.04 350.582 437.362 350.346 437.771C350.111 438.164 349.993 438.604 349.993 439.091V446H346.762Z" fill="#121212"/>
<path d="M363.172 446.283C362.575 446.283 362.056 446.071 361.616 445.646C361.191 445.206 360.979 444.688 360.979 444.09C360.979 443.493 361.191 442.982 361.616 442.557C362.056 442.117 362.575 441.897 363.172 441.897C363.769 441.897 364.28 442.117 364.705 442.557C365.145 442.982 365.365 443.493 365.365 444.09C365.365 444.483 365.263 444.853 365.058 445.198C364.87 445.529 364.61 445.796 364.28 446C363.95 446.189 363.581 446.283 363.172 446.283Z" fill="#121212"/>
<path d="M17.189 446.283C16.3715 446.283 15.6249 446.126 14.9489 445.812C14.273 445.481 13.7306 444.986 13.3219 444.326C12.9289 443.666 12.7324 442.833 12.7324 441.827V433.975H15.9628V442.298C15.9628 442.518 16.0178 442.723 16.1279 442.911C16.2379 443.1 16.3873 443.249 16.5759 443.359C16.7645 443.469 16.9689 443.524 17.189 443.524C17.409 443.524 17.6134 443.469 17.802 443.359C17.9907 443.249 18.14 443.1 18.25 442.911C18.3601 442.723 18.4151 442.518 18.4151 442.298V438.148C18.4151 437.205 18.5959 436.403 18.9574 435.743C19.3347 435.083 19.8535 434.58 20.5137 434.234C21.1896 433.872 21.9756 433.692 22.8716 433.692C23.7677 433.692 24.5458 433.872 25.206 434.234C25.882 434.58 26.4007 435.083 26.7623 435.743C27.1396 436.403 27.3282 437.205 27.3282 438.148V442.298C27.3282 442.518 27.3832 442.723 27.4932 442.911C27.6033 443.1 27.7526 443.249 27.9413 443.359C28.1299 443.469 28.3343 443.524 28.5543 443.524C28.7901 443.524 28.9945 443.469 29.1674 443.359C29.356 443.249 29.5054 443.1 29.6154 442.911C29.7255 442.723 29.7805 442.518 29.7805 442.298V433.975H33.0109V441.827C33.0109 442.833 32.8065 443.666 32.3978 444.326C32.0048 444.986 31.4703 445.481 30.7944 445.812C30.1184 446.126 29.3718 446.283 28.5543 446.283C27.7526 446.283 27.0138 446.126 26.3378 445.812C25.6619 445.481 25.1196 444.986 24.7109 444.326C24.3021 443.666 24.0978 442.833 24.0978 441.827V437.677C24.0978 437.441 24.0428 437.236 23.9327 437.064C23.8227 436.875 23.6734 436.726 23.4847 436.616C23.3118 436.505 23.1074 436.45 22.8716 436.45C22.6516 436.45 22.4472 436.505 22.2586 436.616C22.0699 436.726 21.9206 436.875 21.8106 437.064C21.7005 437.236 21.6455 437.441 21.6455 437.677V441.827C21.6455 442.833 21.4412 443.666 21.0324 444.326C20.6237 444.986 20.0814 445.481 19.4054 445.812C18.7452 446.126 18.0064 446.283 17.189 446.283Z" fill="#121212"/>
<path d="M42.1417 446C40.7741 446 39.5794 445.741 38.5576 445.222C37.5515 444.688 36.7656 443.965 36.1996 443.053C35.6495 442.141 35.3744 441.119 35.3744 439.987C35.3744 438.714 35.6337 437.606 36.1525 436.663C36.6712 435.72 37.3786 434.989 38.2746 434.47C39.1707 433.951 40.1846 433.692 41.3164 433.692C42.6683 433.692 43.7608 433.975 44.594 434.541C45.4428 435.106 46.0638 435.869 46.4568 436.828C46.8498 437.771 47.0463 438.824 47.0463 439.987C47.0463 440.145 47.0384 440.333 47.0227 440.553C47.007 440.758 46.9834 440.915 46.9519 441.025H38.817C38.9427 441.512 39.155 441.921 39.4536 442.251C39.768 442.581 40.1532 442.833 40.609 443.006C41.0806 443.163 41.6072 443.241 42.1889 443.241H45.5372V446H42.1417ZM38.7934 438.856H43.8159C43.7844 438.557 43.7294 438.282 43.6508 438.03C43.5722 437.763 43.4622 437.527 43.3207 437.323C43.1792 437.119 43.0141 436.946 42.8255 436.804C42.6369 436.663 42.4168 436.553 42.1653 436.474C41.9138 436.395 41.6387 436.356 41.34 436.356C40.947 436.356 40.5933 436.427 40.2789 436.568C39.9802 436.71 39.7287 436.898 39.5244 437.134C39.32 437.37 39.155 437.637 39.0292 437.936C38.9192 438.235 38.8406 438.541 38.7934 438.856Z" fill="#121212"/>
<path d="M55.5473 446.283C54.2582 446.283 53.1343 446.016 52.1754 445.481C51.2322 444.947 50.5012 444.192 49.9825 443.218C49.4637 442.227 49.2043 441.072 49.2043 439.752V428.787H52.4347V435.46H52.4583C52.7098 435.099 53.0164 434.784 53.3779 434.517C53.7552 434.25 54.1718 434.045 54.6276 433.904C55.0992 433.762 55.5866 433.692 56.0896 433.692C57.2686 433.692 58.2903 433.951 59.1549 434.47C60.0195 434.989 60.6876 435.704 61.1592 436.616C61.6465 437.512 61.8902 438.557 61.8902 439.752C61.8902 440.695 61.7487 441.567 61.4657 442.369C61.1828 443.155 60.7741 443.847 60.2396 444.444C59.7051 445.026 59.0449 445.481 58.2589 445.812C57.4729 446.126 56.569 446.283 55.5473 446.283ZM55.5473 443.524C56.1918 443.524 56.742 443.367 57.1978 443.053C57.6537 442.738 57.9995 442.314 58.2353 441.779C58.4868 441.245 58.6126 440.648 58.6126 439.987C58.6126 439.327 58.4868 438.73 58.2353 438.195C57.9995 437.661 57.6537 437.236 57.1978 436.922C56.742 436.608 56.1918 436.45 55.5473 436.45C54.9185 436.45 54.3683 436.608 53.8967 436.922C53.4408 437.236 53.0871 437.661 52.8356 438.195C52.5998 438.73 52.4819 439.327 52.4819 439.987C52.4819 440.648 52.5998 441.245 52.8356 441.779C53.0871 442.314 53.4408 442.738 53.8967 443.053C54.3683 443.367 54.9185 443.524 55.5473 443.524Z" fill="#121212"/>
<path d="M76.1195 446.283C75.1135 446.283 74.2096 446.126 73.4079 445.812C72.6219 445.481 71.9617 445.026 71.4272 444.444C70.8927 443.847 70.484 443.155 70.201 442.369C69.9181 441.567 69.7766 440.695 69.7766 439.752C69.7766 438.557 70.0124 437.512 70.484 436.616C70.9713 435.704 71.6473 434.989 72.5119 434.47C73.3922 433.951 74.4139 433.692 75.5772 433.692C76.0802 433.692 76.5597 433.762 77.0155 433.904C77.4871 434.045 77.9116 434.25 78.2888 434.517C78.6661 434.784 78.9727 435.099 79.2085 435.46H79.232V428.787H82.4624V439.752C82.4624 441.072 82.2031 442.227 81.6843 443.218C81.1656 444.192 80.4346 444.947 79.4914 445.481C78.5482 446.016 77.4243 446.283 76.1195 446.283ZM76.1195 443.524C76.764 443.524 77.3142 443.367 77.7701 443.053C78.226 442.738 78.5718 442.314 78.8076 441.779C79.0591 441.245 79.1849 440.648 79.1849 439.987C79.1849 439.327 79.0591 438.73 78.8076 438.195C78.5718 437.661 78.226 437.236 77.7701 436.922C77.3142 436.608 76.764 436.45 76.1195 436.45C75.4907 436.45 74.9405 436.608 74.469 436.922C74.0131 437.236 73.6594 437.661 73.4079 438.195C73.1721 438.73 73.0542 439.327 73.0542 439.987C73.0542 440.648 73.1721 441.245 73.4079 441.779C73.6594 442.314 74.0131 442.738 74.469 443.053C74.9405 443.367 75.4907 443.524 76.1195 443.524Z" fill="#121212"/>
<path d="M91.4654 446C90.0978 446 88.9031 445.741 87.8813 445.222C86.8753 444.688 86.0893 443.965 85.5234 443.053C84.9732 442.141 84.6981 441.119 84.6981 439.987C84.6981 438.714 84.9574 437.606 85.4762 436.663C85.9949 435.72 86.7023 434.989 87.5984 434.47C88.4944 433.951 89.5083 433.692 90.6401 433.692C91.992 433.692 93.0845 433.975 93.9177 434.541C94.7666 435.106 95.3875 435.869 95.7805 436.828C96.1735 437.771 96.37 438.824 96.37 439.987C96.37 440.145 96.3621 440.333 96.3464 440.553C96.3307 440.758 96.3071 440.915 96.2757 441.025H88.1407C88.2665 441.512 88.4787 441.921 88.7773 442.251C89.0917 442.581 89.4769 442.833 89.9327 443.006C90.4043 443.163 90.9309 443.241 91.5126 443.241H94.8609V446H91.4654ZM88.1171 438.856H93.1396C93.1081 438.557 93.0531 438.282 92.9745 438.03C92.8959 437.763 92.7859 437.527 92.6444 437.323C92.5029 437.119 92.3379 436.946 92.1492 436.804C91.9606 436.663 91.7405 436.553 91.489 436.474C91.2375 436.395 90.9624 436.356 90.6637 436.356C90.2707 436.356 89.917 436.427 89.6026 436.568C89.304 436.71 89.0524 436.898 88.8481 437.134C88.6437 437.37 88.4787 437.637 88.3529 437.936C88.2429 438.235 88.1643 438.541 88.1171 438.856Z" fill="#121212"/>
<path d="M103.674 446.283C102.967 446.283 102.322 446.095 101.74 445.717C101.175 445.34 100.782 444.845 100.561 444.232L97.1188 433.975H100.632L103.415 442.911C103.446 442.974 103.485 443.021 103.532 443.053C103.58 443.084 103.635 443.1 103.698 443.1C103.76 443.1 103.815 443.084 103.863 443.053C103.925 443.021 103.965 442.974 103.98 442.911L106.786 433.975H110.229L106.786 444.208C106.566 444.821 106.166 445.324 105.584 445.717C105.018 446.095 104.381 446.283 103.674 446.283Z" fill="#121212"/>
<path d="M117.601 446C116.233 446 115.039 445.741 114.017 445.222C113.011 444.688 112.225 443.965 111.659 443.053C111.109 442.141 110.834 441.119 110.834 439.987C110.834 438.714 111.093 437.606 111.612 436.663C112.131 435.72 112.838 434.989 113.734 434.47C114.63 433.951 115.644 433.692 116.776 433.692C118.128 433.692 119.22 433.975 120.053 434.541C120.902 435.106 121.523 435.869 121.916 436.828C122.309 437.771 122.506 438.824 122.506 439.987C122.506 440.145 122.498 440.333 122.482 440.553C122.466 440.758 122.443 440.915 122.411 441.025H114.276C114.402 441.512 114.614 441.921 114.913 442.251C115.227 442.581 115.612 442.833 116.068 443.006C116.54 443.163 117.067 443.241 117.648 443.241H120.996V446H117.601ZM114.253 438.856H119.275C119.244 438.557 119.189 438.282 119.11 438.03C119.032 437.763 118.921 437.527 118.78 437.323C118.639 437.119 118.473 436.946 118.285 436.804C118.096 436.663 117.876 436.553 117.625 436.474C117.373 436.395 117.098 436.356 116.799 436.356C116.406 436.356 116.053 436.427 115.738 436.568C115.44 436.71 115.188 436.898 114.984 437.134C114.779 437.37 114.614 437.637 114.489 437.936C114.378 438.235 114.3 438.541 114.253 438.856Z" fill="#121212"/>
<path d="M124.782 446V428.787H128.012V446H124.782Z" fill="#121212"/>
<path d="M136.845 446.283C135.603 446.283 134.495 446.008 133.52 445.458C132.546 444.892 131.775 444.137 131.209 443.194C130.643 442.235 130.361 441.166 130.361 439.987C130.361 438.808 130.643 437.747 131.209 436.804C131.775 435.845 132.546 435.091 133.52 434.541C134.495 433.975 135.603 433.692 136.845 433.692C138.087 433.692 139.195 433.975 140.17 434.541C141.144 435.091 141.915 435.845 142.48 436.804C143.046 437.747 143.329 438.808 143.329 439.987C143.329 441.166 143.046 442.235 142.48 443.194C141.915 444.137 141.144 444.892 140.17 445.458C139.195 446.008 138.087 446.283 136.845 446.283ZM136.845 443.524C137.505 443.524 138.071 443.367 138.543 443.053C139.03 442.738 139.399 442.314 139.651 441.779C139.918 441.245 140.052 440.648 140.052 439.987C140.052 439.327 139.918 438.73 139.651 438.195C139.399 437.661 139.03 437.236 138.543 436.922C138.071 436.608 137.505 436.45 136.845 436.45C136.185 436.45 135.611 436.608 135.124 436.922C134.652 437.236 134.283 437.661 134.015 438.195C133.764 438.73 133.638 439.327 133.638 439.987C133.638 440.648 133.764 441.245 134.015 441.779C134.283 442.314 134.652 442.738 135.124 443.053C135.611 443.367 136.185 443.524 136.845 443.524Z" fill="#121212"/>
<path d="M151.915 433.692C152.937 433.692 153.841 433.857 154.627 434.187C155.413 434.501 156.073 434.957 156.607 435.554C157.142 436.136 157.551 436.828 157.834 437.629C158.116 438.415 158.258 439.28 158.258 440.223C158.258 441.402 158.014 442.448 157.527 443.359C157.055 444.271 156.387 444.986 155.523 445.505C154.658 446.024 153.636 446.283 152.457 446.283C151.954 446.283 151.467 446.212 150.995 446.071C150.54 445.929 150.123 445.725 149.746 445.458C149.384 445.191 149.078 444.876 148.826 444.515H148.803V451.188H145.572V440.223C145.572 438.887 145.831 437.732 146.35 436.757C146.869 435.782 147.6 435.028 148.543 434.493C149.502 433.959 150.626 433.692 151.915 433.692ZM151.915 436.45C151.286 436.45 150.736 436.608 150.264 436.922C149.809 437.236 149.455 437.661 149.203 438.195C148.968 438.73 148.85 439.327 148.85 439.987C148.85 440.648 148.968 441.245 149.203 441.779C149.455 442.314 149.809 442.738 150.264 443.053C150.736 443.367 151.286 443.524 151.915 443.524C152.56 443.524 153.11 443.367 153.566 443.053C154.021 442.738 154.367 442.314 154.603 441.779C154.855 441.245 154.98 440.648 154.98 439.987C154.98 439.327 154.855 438.73 154.603 438.195C154.367 437.661 154.021 437.236 153.566 436.922C153.11 436.608 152.56 436.45 151.915 436.45Z" fill="#121212"/>
<path d="M160.611 446V438.856C160.611 437.912 160.839 437.048 161.295 436.262C161.751 435.476 162.404 434.855 163.252 434.399C164.117 433.927 165.154 433.692 166.365 433.692C166.947 433.692 167.481 433.762 167.968 433.904C168.471 434.03 168.935 434.218 169.359 434.47C169.784 434.721 170.153 435.02 170.468 435.366H170.491C170.821 435.02 171.199 434.721 171.623 434.47C172.048 434.218 172.511 434.03 173.014 433.904C173.517 433.762 174.06 433.692 174.641 433.692C175.852 433.692 176.881 433.927 177.73 434.399C178.595 434.855 179.255 435.476 179.711 436.262C180.167 437.048 180.395 437.912 180.395 438.856V446H177.164V438.856C177.164 438.415 177.046 438.015 176.811 437.653C176.591 437.291 176.292 437.001 175.915 436.781C175.537 436.561 175.113 436.45 174.641 436.45C174.185 436.45 173.761 436.561 173.368 436.781C172.991 437.001 172.684 437.291 172.448 437.653C172.228 438.015 172.118 438.415 172.118 438.856V446H168.888V438.856C168.888 438.415 168.77 438.015 168.534 437.653C168.314 437.291 168.015 437.001 167.638 436.781C167.261 436.561 166.836 436.45 166.365 436.45C165.909 436.45 165.485 436.561 165.092 436.781C164.714 437.001 164.408 437.291 164.172 437.653C163.952 438.015 163.842 438.415 163.842 438.856V446H160.611Z" fill="#121212"/>
<path d="M189.514 446C188.147 446 186.952 445.741 185.93 445.222C184.924 444.688 184.138 443.965 183.572 443.053C183.022 442.141 182.747 441.119 182.747 439.987C182.747 438.714 183.006 437.606 183.525 436.663C184.044 435.72 184.751 434.989 185.647 434.47C186.543 433.951 187.557 433.692 188.689 433.692C190.041 433.692 191.133 433.975 191.966 434.541C192.815 435.106 193.436 435.869 193.829 436.828C194.222 437.771 194.419 438.824 194.419 439.987C194.419 440.145 194.411 440.333 194.395 440.553C194.379 440.758 194.356 440.915 194.324 441.025H186.189C186.315 441.512 186.527 441.921 186.826 442.251C187.14 442.581 187.526 442.833 187.981 443.006C188.453 443.163 188.98 443.241 189.561 443.241H192.91V446H189.514ZM186.166 438.856H191.188C191.157 438.557 191.102 438.282 191.023 438.03C190.945 437.763 190.835 437.527 190.693 437.323C190.552 437.119 190.387 436.946 190.198 436.804C190.009 436.663 189.789 436.553 189.538 436.474C189.286 436.395 189.011 436.356 188.712 436.356C188.319 436.356 187.966 436.427 187.651 436.568C187.353 436.71 187.101 436.898 186.897 437.134C186.692 437.37 186.527 437.637 186.402 437.936C186.292 438.235 186.213 438.541 186.166 438.856Z" fill="#121212"/>
<path d="M196.695 446V439.091C196.695 438.101 196.923 437.197 197.378 436.38C197.85 435.562 198.526 434.91 199.406 434.423C200.287 433.935 201.34 433.692 202.566 433.692C203.808 433.692 204.861 433.935 205.726 434.423C206.606 434.91 207.274 435.562 207.73 436.38C208.202 437.197 208.437 438.101 208.437 439.091V446H205.207V439.091C205.207 438.604 205.089 438.164 204.853 437.771C204.617 437.362 204.295 437.04 203.886 436.804C203.493 436.568 203.053 436.45 202.566 436.45C202.079 436.45 201.631 436.568 201.222 436.804C200.829 437.04 200.515 437.362 200.279 437.771C200.043 438.164 199.925 438.604 199.925 439.091V446H196.695Z" fill="#121212"/>
<path d="M215.675 446C214.606 446 213.765 445.694 213.152 445.081C212.554 444.468 212.256 443.634 212.256 442.581V430.956H215.486V442.487C215.486 442.691 215.557 442.872 215.698 443.029C215.855 443.171 216.036 443.241 216.241 443.241H218.858V446H215.675ZM210.204 436.733V433.975H218.858V436.733H210.204Z" fill="#121212"/>
</svg>
