<svg width="460" height="452" viewBox="0 0 460 452" fill="none" xmlns="http://www.w3.org/2000/svg">
<path fill-rule="evenodd" clip-rule="evenodd" d="M59.348 281.33C48.7336 257.322 42.9553 231.459 42.3431 205.22C41.7308 178.98 46.2966 152.877 55.7798 128.4C59.0118 120.059 62.7933 111.962 67.0922 104.16L75.533 104.184L75.5595 94.9409L72.5036 94.9322C74.0649 92.4262 75.6816 89.9549 77.3526 87.5201L80.3208 87.5286C80.4272 87.1602 80.5077 86.6338 80.5624 85.9493C80.6171 85.2121 80.6453 84.5802 80.6468 84.0535C80.6479 83.6609 80.6424 83.2721 80.6301 82.887C83.0445 79.5748 85.5619 76.3352 88.1793 73.1731L90.8314 73.1807L90.7752 92.7726C90.765 96.3013 91.7577 99.0955 93.7531 101.155C95.8012 103.215 98.6159 104.25 102.197 104.26L112.862 104.291L112.889 95.0481L104.12 95.0229C103.435 95.021 102.83 94.7822 102.305 94.3067C101.832 93.7787 101.597 93.1724 101.599 92.4877L101.654 73.2118L112.951 73.2442L112.978 64.0012L101.681 63.9688L101.697 58.4139C118.972 41.3512 139.225 27.5638 161.473 17.7421C185.499 7.13548 211.38 1.3615 237.639 0.749814C263.897 0.13813 290.02 4.70073 314.514 14.1771C339.008 23.6535 361.395 37.858 380.395 55.9798C399.396 74.1015 414.639 95.7855 425.253 119.794L425.253 119.794C425.253 119.794 339.5 154.234 326.482 160.192C318.317 163.93 303.681 160.572 294.271 158.413C288.678 157.13 284.931 156.271 285.487 157.576C285.954 158.674 287.551 159.431 289.431 160.322C293.55 162.275 299.027 164.871 296.943 173.099C294.643 182.182 266.825 172.531 253.713 167.981L253.713 167.981C249.527 166.529 246.84 165.597 246.96 165.96C247.086 166.341 249.799 167.725 253.447 169.587L253.448 169.588L253.448 169.588C264.171 175.061 282.973 184.657 267.907 185.007C250.739 190.671 242.988 195.029 234.302 199.914C228.554 203.146 222.397 206.608 212.829 210.832C202.04 215.596 189.4 215.143 179.854 214.801C174.659 214.615 170.381 214.462 167.814 215.2C166.68 215.526 167.528 215.956 168.86 216.63C171.309 217.87 175.39 219.936 171.79 223.706C160.268 235.769 151.461 238.52 143.229 241.092C138.504 242.567 133.97 243.984 129.22 247.068C116.195 255.525 94.6736 262.458 92.6736 262.453C91.7241 262.45 91.1105 263.236 90.2993 264.276C89.4015 265.426 88.2618 266.886 86.1574 267.93C85.1582 268.426 83.8477 268.983 82.2294 269.671C77.3595 271.74 69.7018 274.995 59.348 281.33ZM59.348 281.33L59.3481 281.33L59.3475 281.33L59.348 281.33ZM96.3012 63.9534C96.736 63.4893 97.1732 63.0272 97.6127 62.567C98.9547 61.162 100.316 59.7775 101.697 58.4139L101.71 53.8568L90.887 53.8258L90.8579 63.9377L83.985 63.918L83.9584 73.161L88.1793 73.1731C89.0552 72.1149 89.9423 71.0655 90.8405 70.0248C92.6176 67.9658 94.4382 65.9415 96.3012 63.9534ZM80.6301 82.887C80.5207 79.4487 79.8781 76.307 78.7022 73.4619C77.3948 70.2455 75.3218 67.6852 72.4832 65.781C69.6973 63.877 66.0397 62.9185 61.5104 62.9055C57.7184 62.8946 54.319 63.7539 51.312 65.4832C48.305 67.2126 45.928 69.6548 44.1809 72.8098C42.4339 75.9648 41.5542 79.6753 41.542 83.9413C41.5311 87.7332 42.4429 91.1592 44.2775 94.2192C46.1647 97.2792 48.7911 99.7095 52.1566 101.51C55.5749 103.258 59.5751 104.138 64.157 104.151L67.0922 104.16C68.8138 101.035 70.6182 97.9585 72.5036 94.9322L64.3416 94.9087C62.3929 94.9032 60.6293 94.6348 59.0509 94.1036C57.5252 93.5198 56.2373 92.6735 55.1871 91.5645C54.1896 90.4556 53.4826 89.0842 53.0659 87.4504L77.3526 87.5201C78.4229 85.9606 79.5155 84.416 80.6301 82.887ZM107.868 375.909C110.864 378.721 113.951 381.443 117.123 384.072C137.342 400.825 160.666 413.434 185.762 421.18C210.858 428.926 237.235 431.657 263.387 429.216C289.54 426.776 314.954 419.212 338.181 406.956C361.408 394.701 381.992 377.993 398.757 357.789C415.522 337.584 428.141 314.278 435.892 289.2C443.644 264.122 446.376 237.764 443.934 211.631C441.491 185.498 433.922 160.101 421.657 136.891L419.361 138.103C419.982 137.447 420.607 136.898 421.235 136.481L244.367 229.805L67.498 323.129C73.6093 334.694 83.8526 367.602 85.8661 396.434C86.7664 409.326 86.1444 422 85.657 431.933C85.0468 444.366 84.6474 452.505 87.7081 451.403C89.6355 451.023 90.607 436.648 91.7281 420.058C93.4301 394.872 95.477 364.581 101.738 370.407C102.042 371.02 102.406 371.261 102.721 371.469C102.92 371.6 103.1 371.719 103.233 371.911C103.747 372.651 104.222 373.042 104.636 373.384C104.851 373.561 105.049 373.724 105.228 373.915C106.144 374.951 107.518 375.934 107.722 375.921C107.771 375.918 107.819 375.914 107.868 375.909ZM121.426 349.567C121.514 355.953 115.305 375.19 107.868 375.909C91.7668 360.799 78.2599 343.108 67.9195 323.54L244.788 230.216L419.361 138.103C415.445 142.241 411.709 150.655 408.705 157.422C406.406 162.602 404.535 166.816 403.339 167.409C403.037 167.559 402.739 166.971 402.289 166.082C401.053 163.64 398.666 158.924 391.857 160.941C389.721 161.574 384.206 168.026 378.764 174.392L378.764 174.392C373.482 180.57 368.269 186.668 366.28 187.289C363.734 186.518 362.878 185.102 361.99 183.633C361.135 182.22 360.25 180.757 357.801 179.77C355.323 178.771 351.653 182.095 348.952 184.54C346.209 187.024 344.467 188.602 345.993 183.822C348.406 176.263 332.152 191.704 322.258 201.104L322.257 201.105L322.252 201.11C319.734 203.502 317.629 205.503 316.348 206.632C314.883 207.925 312.444 237.101 320.709 255.112C328.975 273.124 309.509 324.534 305.688 289.047C302.62 260.561 293.182 267.15 287.507 271.111C286.112 272.085 284.945 272.9 284.156 272.996C281.483 273.302 281.113 280.191 280.653 288.758C279.651 307.444 278.22 334.112 251.525 317.872C223.049 300.548 218.507 331.5 216.171 347.418C215.313 353.265 214.753 357.083 213.414 355.737C211.862 354.178 210.138 345.321 208 334.339C203.268 310.03 196.509 275.311 185.112 286.292C182.378 288.926 180.105 304.076 178.031 317.906C176.427 328.598 174.942 338.502 173.453 341.222C172.911 342.212 172.992 340.654 173.14 337.815C173.497 330.958 174.243 316.631 167.535 312.724C160.91 308.866 153.012 323.29 147.314 333.695C144.855 338.186 142.805 341.928 141.445 343.129C139.74 344.635 138.975 342.076 138.034 338.929C136.484 333.746 134.457 326.965 126.97 334.094C126.97 334.094 121.32 341.982 121.426 349.567ZM457.954 108.267L43.0077 318.041L44.3628 320.718L459.309 110.944L457.954 108.267ZM84.8058 217.501C81.7159 217.199 79.2566 216.209 77.4097 215.119C74.9852 213.688 71.4315 213.688 69.6728 215.887C67.0738 219.135 70.217 223.892 74.2529 222.884C78.2575 221.883 82.2919 220.971 84.8859 220.633C85.5877 220.541 86.1683 220.014 86.2773 219.314C86.4187 218.407 85.7196 217.59 84.8058 217.501ZM134.769 194.983C134.913 196.107 133.675 196.884 132.727 196.261C127.452 192.792 114.736 184.425 107.132 179.371C100.102 174.699 90.9418 167.833 86.3504 164.345C84.8987 163.242 84.9234 161.06 86.3927 159.98C87.5174 159.153 89.0885 159.292 90.0814 160.273C92.9486 163.105 99.4474 169.205 109.841 177.238C122.398 186.942 131.778 192.618 134.118 193.995C134.479 194.207 134.717 194.568 134.769 194.983ZM142.282 210.811C142.831 210.905 143.235 210.311 142.949 209.834C142.843 209.658 142.665 209.542 142.461 209.518C141.137 209.359 135.797 208.652 128.232 206.757C122.521 205.327 119.012 203.796 117.259 202.902C116.391 202.46 115.346 202.403 114.479 202.846C111.842 204.192 113.053 208.392 116.008 208.222C120.652 207.956 125.181 207.854 127.434 208.251C131.852 209.028 139.224 210.289 142.282 210.811ZM136.483 346.27C137.791 351.839 133.01 369.082 128.654 382.887C127.104 387.8 133.24 391.815 137.047 388.344C138.068 387.412 138.652 386.099 138.652 384.717C138.652 378.284 138.596 358.873 137.967 345.025C137.812 341.593 136.356 341.714 136.329 345.149C136.325 345.535 136.395 345.895 136.483 346.27ZM1.76149 94.7291L1.73495 103.972L22.4329 104.031C24.8555 104.038 27.0428 103.492 28.9946 102.391C30.9466 101.238 32.5046 99.7154 33.6687 97.8227C34.833 95.8774 35.4184 93.746 35.4251 91.4287C35.4337 88.4267 34.8613 86.0024 33.708 84.1558C32.5546 82.3091 30.9258 80.9614 28.8216 80.1127C26.7175 79.2113 24.2171 78.7565 21.3204 78.7482L13.7365 78.7264C12.8938 78.724 12.1836 78.4586 11.6058 77.9303C11.0281 77.3493 10.7405 76.6375 10.7429 75.7948C10.7453 74.9521 11.0369 74.2683 11.6178 73.7433C12.2513 73.2185 12.963 72.9572 13.753 72.9594L31.607 73.0107L31.6335 63.7677L12.7526 63.7135C10.4352 63.7069 8.30059 64.2801 6.3486 65.4332C4.44944 66.5337 2.9178 68.0303 1.7537 69.923C0.642408 71.7631 0.0835141 73.8155 0.0770131 76.0802C0.0685468 79.0295 0.667332 81.4276 1.87337 83.2744C3.13222 85.0687 4.78744 86.3901 6.83901 87.2386C8.9434 88.0347 11.2859 88.4364 13.8666 88.4438L21.4505 88.4656C22.0825 88.4674 22.6351 88.627 23.1082 88.9444C23.6341 89.2092 24.028 89.579 24.29 90.0538C24.6046 90.5287 24.7611 91.0821 24.7592 91.7141C24.7576 92.2934 24.5981 92.8197 24.2807 93.2927C24.016 93.766 23.62 94.1335 23.0925 94.3953C22.6178 94.6573 22.0644 94.7874 21.4324 94.7856L1.76149 94.7291ZM69.8347 80.2305L53.0078 80.1822C53.1688 79.1293 53.4351 78.103 53.8066 77.1034C54.2308 76.104 54.7864 75.2102 55.4733 74.4222C56.1603 73.6342 57.0048 73.0046 58.0068 72.5335C59.0615 72.0625 60.2471 71.8289 61.5638 71.8327C62.5645 71.8356 63.4858 71.9699 64.3277 72.2356C65.1696 72.5014 65.9058 72.8721 66.5365 73.348C67.1671 73.8238 67.7184 74.4047 68.1905 75.0907C68.6625 75.7767 69.0289 76.5678 69.2897 77.4639C69.5506 78.3073 69.7323 79.2295 69.8347 80.2305ZM121.341 95.0724L121.315 104.315L142.012 104.375C144.435 104.382 146.622 103.835 148.574 102.735C150.526 101.582 152.084 100.059 153.248 98.166C154.413 96.2206 154.998 94.0893 155.005 91.772C155.013 88.77 154.441 86.3457 153.288 84.499C152.134 82.6524 150.505 81.3047 148.401 80.456C146.297 79.5546 143.797 79.0998 140.9 79.0915L133.316 79.0697C132.473 79.0673 131.763 78.8019 131.185 78.2736C130.608 77.6926 130.32 76.9807 130.322 76.1381C130.325 75.2954 130.617 74.6116 131.197 74.0866C131.831 73.5617 132.543 73.3004 133.333 73.3027L151.187 73.354L151.213 64.111L132.332 64.0568C130.015 64.0501 127.88 64.6233 125.928 65.7764C124.029 66.877 122.497 68.3736 121.333 70.2662C120.222 72.1064 119.663 74.1588 119.657 76.4235C119.648 79.3728 120.247 81.7708 121.453 83.6176C122.712 85.4119 124.367 86.7334 126.419 87.5819C128.523 88.378 130.866 88.7797 133.446 88.7871L141.03 88.8089C141.662 88.8107 142.215 88.9703 142.688 89.2876C143.214 89.5525 143.608 89.9223 143.87 90.397C144.184 90.8719 144.341 91.4254 144.339 92.0574C144.337 92.6367 144.178 93.1629 143.86 93.636C143.596 94.1093 143.2 94.4768 142.672 94.7386C142.197 95.0006 141.644 95.1307 141.012 95.1288L121.341 95.0724ZM172.523 102.961C175.468 104.602 178.994 105.429 183.102 105.441C187.263 105.453 190.794 104.646 193.695 103.022C196.649 101.398 198.894 99.2187 200.429 96.4844C202.017 93.7503 202.815 90.7242 202.825 87.4063L202.891 64.2593L192.068 64.2283L192.002 87.3752C191.997 89.0078 191.598 90.5077 190.804 91.8748C190.01 93.1892 188.927 94.2394 187.556 95.0254C186.237 95.8117 184.761 96.2024 183.128 96.1977C181.496 96.1931 179.996 95.7937 178.629 94.9998C177.314 94.2061 176.264 93.1497 175.478 91.8308C174.692 90.4592 174.301 88.957 174.306 87.3244L174.372 64.1775L163.549 64.1464L163.483 87.2933C163.473 90.6113 164.228 93.6418 165.748 96.3849C167.32 99.128 169.578 101.32 172.523 102.961ZM213.106 81.4317L213.04 104.579L223.863 104.61L223.929 81.4628C223.934 79.8301 224.333 78.3566 225.127 77.0422C225.921 75.6752 226.977 74.5985 228.296 73.8123C229.668 73.0262 231.17 72.6356 232.803 72.6402C234.435 72.6449 235.909 73.0442 237.223 73.8379C238.59 74.6319 239.667 75.7146 240.453 77.0862C241.239 78.4052 241.63 79.8809 241.625 81.5136L241.559 104.661L252.382 104.692L252.448 81.5447C252.458 78.2267 251.676 75.1961 250.104 72.4529C248.585 69.7099 246.353 67.5178 243.408 65.8767C240.516 64.2357 236.99 63.4092 232.829 63.3973C228.721 63.3855 225.19 64.1917 222.236 65.8159C219.282 67.4401 217.011 69.6192 215.423 72.3534C213.888 75.0876 213.116 78.1137 213.106 81.4317ZM268.893 102.843C271.626 104.747 274.836 105.704 278.522 105.715C280.84 105.721 282.842 105.385 284.529 104.705C286.217 104.025 287.641 103.107 288.803 101.952C290.018 100.797 291.022 99.5095 291.816 98.0898L291.974 98.0902L291.955 104.805L302.778 104.836L302.836 84.7703C302.847 80.873 302.041 77.3157 300.417 74.0983C298.794 70.881 296.431 68.3199 293.329 66.415C290.227 64.5101 286.412 63.5511 281.882 63.5381C277.406 63.5252 273.558 64.4622 270.34 66.349C267.122 68.1831 264.64 70.704 262.893 73.9116C261.198 77.1194 260.345 80.6983 260.334 84.6483C260.323 88.493 261.05 92.0237 262.515 95.2406C264.034 98.405 266.159 100.939 268.893 102.843ZM287.085 94.9162C285.555 95.9651 283.737 96.4866 281.63 96.4805C279.471 96.4743 277.602 95.9423 276.025 94.8844C274.501 93.8267 273.32 92.4013 272.483 90.6082C271.698 88.7626 271.309 86.7338 271.315 84.5218C271.322 82.3099 271.722 80.336 272.517 78.6003C273.365 76.812 274.554 75.3934 276.084 74.3445C277.667 73.2957 279.539 72.7744 281.698 72.7806C283.805 72.7866 285.62 73.3185 287.144 74.3762C288.669 75.434 289.823 76.8593 290.608 78.6522C291.446 80.3926 291.861 82.3688 291.855 84.5808C291.849 86.7928 291.422 88.8192 290.574 90.6602C289.779 92.4485 288.616 93.8672 287.085 94.9162Z" fill="#00D1FF"/>
</svg>
