<svg width="370" height="424" viewBox="0 0 370 424" fill="none" xmlns="http://www.w3.org/2000/svg">
<path fill-rule="evenodd" clip-rule="evenodd" d="M369.941 1.06745L1.48779 0.00976562L0.274451 422.686L368.728 423.744L369.941 1.06745ZM86.1449 292.217C74.2804 281.083 64.3276 268.048 56.7082 253.628L187.037 184.861L315.673 116.986C312.788 120.035 310.035 126.236 307.821 131.222C306.127 135.038 304.748 138.144 303.868 138.58C303.645 138.691 303.425 138.258 303.094 137.603C302.183 135.804 300.424 132.328 295.407 133.815C293.833 134.281 289.769 139.035 285.759 143.726C281.867 148.279 278.025 152.772 276.56 153.23C274.683 152.661 274.053 151.618 273.398 150.536C272.768 149.494 272.116 148.416 270.312 147.689C268.486 146.953 265.781 149.402 263.791 151.204C261.77 153.035 260.487 154.197 261.611 150.675C263.389 145.105 251.412 156.483 244.121 163.41L244.121 163.41L244.121 163.41L244.121 163.411C242.264 165.175 240.711 166.65 239.767 167.483C238.687 168.435 236.89 189.934 242.98 203.206C249.071 216.478 234.727 254.361 231.911 228.211C229.651 207.221 222.696 212.076 218.515 214.995C217.487 215.713 216.627 216.313 216.045 216.384C214.075 216.61 213.803 221.686 213.464 227.999C212.726 241.768 211.671 261.419 192.001 249.452C171.018 236.687 167.671 259.493 165.95 271.223C165.318 275.531 164.905 278.345 163.918 277.353C162.774 276.204 161.504 269.678 159.929 261.586C156.442 243.673 151.462 218.09 143.063 226.182C141.049 228.123 139.374 239.286 137.846 249.477L137.846 249.477L137.845 249.477C136.664 257.356 135.569 264.653 134.472 266.658C134.073 267.387 134.133 266.239 134.242 264.147C134.504 259.094 135.054 248.537 130.111 245.659C125.229 242.816 119.41 253.444 115.211 261.111C113.399 264.42 111.889 267.178 110.887 268.063C109.63 269.172 109.067 267.287 108.373 264.968C107.231 261.149 105.737 256.152 100.221 261.405C100.221 261.405 96.0573 267.218 96.1349 272.807C96.2001 277.512 91.6252 291.688 86.1449 292.217ZM86.1449 292.217C88.3528 294.289 90.6268 296.295 92.9644 298.232C107.863 310.577 125.05 319.868 143.542 325.576C162.035 331.284 181.471 333.296 200.742 331.497C220.012 329.699 238.74 324.125 255.855 315.095C272.97 306.064 288.137 293.753 300.491 278.865C312.844 263.977 322.143 246.803 327.854 228.324C333.566 209.845 335.58 190.423 333.78 171.166C331.98 151.91 326.402 133.196 317.365 116.093L315.673 116.986C316.131 116.503 316.592 116.098 317.054 115.791L186.726 184.558L56.3975 253.325C60.9007 261.848 68.4486 286.096 69.9323 307.341C70.5958 316.841 70.1374 326.18 69.7782 333.499C69.3286 342.661 69.0343 348.658 71.2897 347.846C72.7099 347.566 73.4257 336.974 74.2518 324.749C75.506 306.19 77.0143 283.87 81.6274 288.163C81.8519 288.615 82.12 288.792 82.3523 288.945C82.4991 289.042 82.6316 289.129 82.7296 289.271C83.1078 289.816 83.4579 290.105 83.7636 290.357L83.764 290.357C83.9217 290.487 84.0674 290.607 84.1992 290.748C84.8744 291.511 85.8872 292.235 86.0372 292.226C86.0732 292.224 86.1091 292.221 86.1449 292.217ZM50.3922 222.525C42.5707 204.834 38.3129 185.777 37.8618 166.442C37.4107 147.107 40.775 127.872 47.7629 109.837C54.7507 91.8009 65.2251 75.317 78.5881 61.3263C91.951 47.3356 107.941 36.112 125.645 28.2964C143.348 20.4807 162.419 16.2261 181.768 15.7753C201.118 15.3246 220.366 18.6866 238.415 25.6694C256.464 32.6523 272.96 43.1191 286.961 56.4724C300.962 69.8257 312.194 85.8039 320.015 103.495L320.015 103.495C320.015 103.495 256.826 128.872 247.234 133.263C241.217 136.017 230.433 133.543 223.499 131.952C219.378 131.007 216.617 130.373 217.026 131.335C217.37 132.144 218.547 132.702 219.932 133.359C222.968 134.797 227.003 136.71 225.468 142.773C223.773 149.467 203.275 142.355 193.613 139.003L193.613 139.002C190.529 137.932 188.549 137.246 188.637 137.513C188.73 137.794 190.729 138.814 193.418 140.186C201.319 144.219 215.173 151.29 204.072 151.549C191.421 155.722 185.71 158.933 179.31 162.532C175.074 164.914 170.537 167.465 163.487 170.578C155.537 174.088 146.223 173.754 139.189 173.502C135.361 173.365 132.208 173.253 130.317 173.796C129.481 174.037 130.107 174.353 131.088 174.85C132.892 175.764 135.899 177.286 133.247 180.064C124.756 188.953 118.267 190.98 112.201 192.875C108.72 193.962 105.378 195.006 101.878 197.279C92.2806 203.51 76.4223 208.619 74.9485 208.615C74.2489 208.613 73.7967 209.193 73.199 209.959C72.5375 210.806 71.6977 211.882 70.147 212.651C69.4114 213.016 68.4469 213.426 67.2559 213.932L67.2542 213.933L67.2528 213.934L67.2526 213.934L67.2524 213.934L67.2523 213.934L67.252 213.934C63.6636 215.459 58.021 217.857 50.3922 222.525ZM344.111 95.0013L38.3515 249.577L39.35 251.549L345.11 96.9735L344.111 95.0013ZM69.151 175.492C66.8742 175.269 65.062 174.54 63.7011 173.736C61.9146 172.682 59.296 172.682 58 174.302C56.0849 176.696 58.401 180.201 61.375 179.458C64.3259 178.721 67.2987 178.049 69.2101 177.8C69.7272 177.732 70.155 177.343 70.2353 176.828C70.3395 176.159 69.8244 175.558 69.151 175.492ZM105.968 158.899C106.073 159.727 105.161 160.3 104.463 159.841C100.575 157.284 91.2055 151.119 85.6027 147.395C80.4224 143.952 73.6724 138.893 70.2892 136.323C69.2195 135.51 69.2377 133.902 70.3204 133.106C71.1491 132.497 72.3068 132.6 73.0384 133.322C75.1512 135.409 79.9399 139.904 87.5987 145.823C96.8515 152.974 103.763 157.157 105.488 158.171C105.753 158.327 105.929 158.594 105.968 158.899ZM111.503 170.562C111.908 170.631 112.205 170.194 111.994 169.842C111.917 169.713 111.785 169.627 111.635 169.609C110.66 169.493 106.725 168.971 101.151 167.575C96.9421 166.521 94.3561 165.393 93.0645 164.735C92.4253 164.409 91.6553 164.367 91.0161 164.693C89.0734 165.685 89.9652 168.78 92.1426 168.655C95.5652 168.458 98.9024 168.384 100.563 168.676C103.818 169.248 109.25 170.178 111.503 170.562ZM107.23 270.377C108.194 274.481 104.671 287.186 101.462 297.359C100.319 300.979 104.84 303.938 107.646 301.38C108.398 300.694 108.829 299.726 108.829 298.707C108.829 293.967 108.787 279.664 108.324 269.46C108.209 266.931 107.137 267.02 107.116 269.551C107.114 269.835 107.165 270.101 107.23 270.377ZM132.525 392.538L132.505 399.349L147.757 399.393C149.542 399.398 151.154 398.995 152.592 398.184C154.03 397.335 155.179 396.213 156.036 394.818C156.894 393.385 157.326 391.814 157.331 390.107C157.337 387.894 156.915 386.108 156.065 384.747C155.215 383.387 154.015 382.394 152.465 381.768C150.914 381.104 149.072 380.769 146.937 380.763L141.349 380.747C140.728 380.745 140.205 380.549 139.779 380.16C139.353 379.732 139.141 379.207 139.143 378.586C139.145 377.966 139.36 377.462 139.788 377.075C140.255 376.688 140.779 376.495 141.361 376.497L154.517 376.535L154.537 369.724L140.624 369.684C138.916 369.679 137.343 370.102 135.905 370.951C134.506 371.762 133.377 372.865 132.519 374.26C131.7 375.616 131.289 377.128 131.284 378.797C131.278 380.97 131.719 382.737 132.607 384.098C133.535 385.42 134.755 386.394 136.266 387.019C137.817 387.606 139.543 387.902 141.445 387.907L147.033 387.923C147.499 387.924 147.906 388.042 148.255 388.276C148.642 388.471 148.932 388.744 149.125 389.093C149.357 389.443 149.473 389.851 149.471 390.317C149.47 390.744 149.352 391.131 149.119 391.48C148.924 391.829 148.632 392.1 148.243 392.293C147.893 392.486 147.486 392.581 147.02 392.58L132.525 392.538ZM169.659 397.535C172.178 398.823 175.126 399.472 178.502 399.481L186.885 399.505L186.904 392.695L178.638 392.671C177.202 392.667 175.903 392.469 174.74 392.078C173.615 391.647 172.666 391.024 171.893 390.207C171.157 389.389 170.636 388.379 170.329 387.175L190.413 387.233C190.491 386.961 190.55 386.573 190.591 386.069C190.631 385.526 190.652 385.06 190.653 384.672C190.661 381.8 190.183 379.199 189.22 376.867C188.257 374.497 186.729 372.611 184.637 371.208C182.585 369.805 179.889 369.098 176.552 369.089C173.758 369.081 171.253 369.714 169.037 370.988C166.821 372.263 165.07 374.062 163.782 376.387C162.495 378.712 161.847 381.446 161.838 384.589C161.83 387.383 162.502 389.908 163.854 392.163C165.244 394.418 167.179 396.208 169.659 397.535ZM182.686 381.855L170.287 381.819C170.405 381.044 170.601 380.287 170.875 379.551C171.188 378.814 171.597 378.156 172.103 377.575C172.61 376.994 173.232 376.53 173.97 376.183C174.747 375.836 175.621 375.664 176.591 375.667C177.329 375.669 178.007 375.768 178.628 375.964C179.248 376.16 179.791 376.433 180.255 376.783C180.72 377.134 181.126 377.562 181.474 378.068C181.822 378.573 182.092 379.156 182.284 379.816C182.476 380.438 182.61 381.117 182.686 381.855ZM200.31 397.274C201.82 398.792 203.894 399.554 206.533 399.562L214.391 399.584L214.411 392.774L207.949 392.755C207.445 392.754 206.999 392.578 206.612 392.227C206.264 391.838 206.09 391.391 206.092 390.887L206.133 376.683L214.457 376.707L214.476 369.896L206.152 369.872L206.174 362.421L198.198 362.398L198.177 369.849L193.113 369.835L193.093 376.646L198.158 376.66L198.116 391.097C198.109 393.697 198.84 395.756 200.31 397.274ZM220.639 392.791L220.619 399.602L235.871 399.646C237.656 399.651 239.268 399.248 240.706 398.437C242.145 397.588 243.293 396.466 244.15 395.071C245.008 393.638 245.44 392.067 245.445 390.359C245.451 388.147 245.029 386.361 244.179 385C243.329 383.64 242.129 382.646 240.579 382.021C239.028 381.357 237.186 381.022 235.051 381.016L229.463 381C228.842 380.998 228.319 380.802 227.893 380.413C227.467 379.985 227.255 379.46 227.257 378.839C227.259 378.218 227.474 377.715 227.902 377.328C228.369 376.941 228.893 376.748 229.475 376.75L242.631 376.788L242.651 369.977L228.738 369.937C227.03 369.932 225.457 370.355 224.019 371.204C222.62 372.015 221.491 373.118 220.633 374.513C219.814 375.869 219.403 377.381 219.398 379.05C219.392 381.223 219.833 382.99 220.721 384.351C221.649 385.673 222.869 386.647 224.38 387.272C225.931 387.859 227.657 388.155 229.559 388.16L235.147 388.176C235.613 388.177 236.02 388.295 236.369 388.529C236.756 388.724 237.046 388.996 237.24 389.346C237.471 389.696 237.587 390.104 237.585 390.57C237.584 390.997 237.467 391.384 237.233 391.733C237.038 392.082 236.746 392.353 236.357 392.545C236.007 392.739 235.6 392.834 235.134 392.833L220.639 392.791ZM258.353 398.605C260.523 399.814 263.121 400.423 266.148 400.431C269.214 400.44 271.816 399.846 273.954 398.649C276.131 397.453 277.785 395.847 278.916 393.832C280.086 391.817 280.675 389.587 280.682 387.143L280.731 370.086L272.755 370.063L272.707 387.12C272.703 388.323 272.409 389.428 271.824 390.435C271.239 391.404 270.441 392.178 269.43 392.757C268.459 393.336 267.371 393.624 266.168 393.621C264.965 393.617 263.86 393.323 262.852 392.738C261.884 392.153 261.11 391.375 260.531 390.403C259.951 389.392 259.664 388.285 259.667 387.082L259.716 370.026L251.741 370.003L251.692 387.059C251.685 389.504 252.241 391.737 253.361 393.759C254.519 395.78 256.183 397.395 258.353 398.605ZM288.258 382.74L288.209 399.796L296.184 399.819L296.233 382.763C296.236 381.56 296.53 380.474 297.115 379.506C297.7 378.498 298.479 377.705 299.451 377.126C300.461 376.546 301.568 376.259 302.771 376.262C303.974 376.265 305.06 376.56 306.029 377.145C307.036 377.73 307.829 378.527 308.408 379.538C308.988 380.51 309.276 381.597 309.272 382.8L309.223 399.857L317.198 399.879L317.247 382.823C317.254 380.378 316.679 378.145 315.52 376.124C314.401 374.103 312.756 372.487 310.586 371.278C308.455 370.069 305.857 369.46 302.791 369.451C299.764 369.442 297.162 370.037 294.985 371.233C292.809 372.43 291.135 374.036 289.965 376.051C288.834 378.065 288.265 380.295 288.258 382.74ZM329.365 398.517C331.379 399.92 333.744 400.626 336.461 400.633C338.168 400.638 339.644 400.39 340.887 399.889C342.13 399.388 343.18 398.712 344.036 397.861C344.931 397.01 345.671 396.061 346.256 395.015L346.373 395.015L346.359 399.963L354.334 399.986L354.376 385.2C354.384 382.328 353.79 379.707 352.594 377.336C351.398 374.966 349.657 373.078 347.371 371.675C345.086 370.271 342.274 369.564 338.936 369.555C335.638 369.545 332.803 370.236 330.431 371.626C328.06 372.978 326.231 374.835 324.944 377.199C323.695 379.563 323.066 382.2 323.058 385.11C323.05 387.943 323.586 390.545 324.666 392.915C325.784 395.247 327.351 397.114 329.365 398.517ZM342.77 392.676C341.643 393.449 340.303 393.833 338.75 393.829C337.159 393.824 335.783 393.432 334.621 392.653C333.497 391.874 332.627 390.823 332.01 389.502C331.432 388.142 331.145 386.647 331.15 385.017C331.154 383.387 331.45 381.933 332.036 380.654C332.66 379.336 333.536 378.291 334.664 377.518C335.831 376.745 337.209 376.361 338.8 376.365C340.353 376.37 341.691 376.762 342.814 377.541C343.937 378.321 344.788 379.371 345.366 380.692C345.983 381.974 346.29 383.431 346.285 385.061C346.28 386.69 345.966 388.184 345.341 389.54C344.755 390.858 343.898 391.903 342.77 392.676Z" fill="#F4F4F4"/>
</svg>
