<svg width="64" height="62" viewBox="0 0 64 62" fill="none" xmlns="http://www.w3.org/2000/svg">
<path fill-rule="evenodd" clip-rule="evenodd" d="M8.26785 38.5413C6.8137 35.2522 6.0221 31.7092 5.93822 28.1144C5.85435 24.5197 6.47985 20.9436 7.77901 17.5904C8.28647 16.2807 8.89282 15.0149 9.59145 13.8037L10.4864 13.8062L10.49 12.54L10.3669 12.5396C10.5906 12.1961 10.8221 11.8575 11.0612 11.5243L11.1423 11.5245C11.1532 11.4868 11.1621 11.4369 11.169 11.375C11.6147 10.7625 12.0861 10.168 12.5821 9.59329L12.5745 12.2429C12.5731 12.7263 12.7091 13.1091 12.9825 13.3913C13.263 13.6735 13.6487 13.8153 14.1393 13.8167L15.6003 13.8209L15.604 12.5546L14.4027 12.5512C14.3089 12.5509 14.226 12.5182 14.154 12.4531C14.0893 12.3807 14.0571 12.2977 14.0573 12.2039L14.0649 9.56314L15.6126 9.56758L15.6162 8.30133L14.0685 8.29688L14.0694 8.0026C16.436 5.66503 19.2107 3.77617 22.2586 2.43061C25.5501 0.977538 29.0957 0.186521 32.6931 0.102722C36.2904 0.0189236 39.8691 0.643984 43.2247 1.94222C46.5804 3.24045 49.6472 5.18642 52.2503 7.66904C54.8533 10.1517 56.9415 13.1223 58.3956 16.4113L58.3921 16.4129C58.1699 16.5022 46.6304 21.1376 44.8641 21.946C43.7456 22.458 41.7405 21.9981 40.4514 21.7023C39.6852 21.5266 39.1719 21.4088 39.2479 21.5876C39.3119 21.738 39.5307 21.8417 39.7883 21.9638C40.3526 22.2313 41.1029 22.587 40.8174 23.7142C40.5023 24.9586 36.6913 23.6364 34.895 23.0131C34.3216 22.8142 33.9535 22.6865 33.9699 22.7362C33.9872 22.7884 34.3589 22.9781 34.8587 23.2332C36.3277 23.9829 38.9035 25.2976 36.8396 25.3456C34.4876 26.1216 33.4258 26.7186 32.2358 27.3878C31.4484 27.8305 30.6048 28.3049 29.2941 28.8835C27.8159 29.5361 26.0844 29.4741 24.7766 29.4273L24.7766 29.4273L24.7766 29.4273C24.0649 29.4018 23.4788 29.3808 23.1272 29.4819C22.9718 29.5266 23.088 29.5855 23.2705 29.6778C23.6059 29.8477 24.165 30.1308 23.6718 30.6472C22.0933 32.2998 20.8868 32.6767 19.7591 33.029C19.1118 33.2312 18.4906 33.4252 17.8399 33.8477C16.0555 35.0063 13.1072 35.9562 12.8332 35.9554C12.7031 35.955 12.619 36.0627 12.5079 36.2051C12.3849 36.3627 12.2288 36.5628 11.9405 36.7058C11.8036 36.7737 11.624 36.85 11.4023 36.9442C10.7353 37.2277 9.68644 37.6735 8.26837 38.541L33.3317 27.4763L58.3921 16.4129L58.3954 16.4116L33.3315 27.4765L8.2676 38.5415L8.26785 38.5413ZM13.7768 8.29605C13.8736 8.19746 13.9711 8.09965 14.0694 8.0026L14.0725 6.91158L12.5898 6.90732L12.5858 8.29263L11.6443 8.28993L11.6406 9.55618L12.5822 9.55888L12.5821 9.59329C12.592 9.58184 12.6019 9.5704 12.6118 9.55897C12.9028 9.22292 13.2023 8.89364 13.51 8.57148C13.5983 8.47901 13.6872 8.3872 13.7768 8.29605ZM11.169 11.375C11.1714 11.3541 11.1735 11.3318 11.1754 11.3081C11.1829 11.2071 11.1867 11.1206 11.1869 11.0484C11.1885 10.5145 11.0997 10.0308 10.9205 9.5974C10.7414 9.15676 10.4574 8.80601 10.0686 8.54515C9.68691 8.28431 9.18583 8.153 8.56533 8.15121C8.04584 8.14972 7.58012 8.26744 7.16817 8.50435C6.75623 8.74127 6.43058 9.07585 6.19124 9.50807C5.9519 9.94029 5.83139 10.4486 5.82971 11.033C5.82822 11.5525 5.95314 12.0219 6.20447 12.4411C6.46301 12.8603 6.82282 13.1932 7.28388 13.4399C7.75218 13.6793 8.30019 13.7999 8.9279 13.8017L9.59145 13.8037C9.83848 13.3753 10.097 12.9538 10.3669 12.5396L8.95318 12.5356C8.68622 12.5348 8.44462 12.498 8.22837 12.4252C8.01936 12.3453 7.84292 12.2293 7.69906 12.0774C7.5624 11.9255 7.46554 11.7376 7.40846 11.5138L11.0612 11.5243C11.097 11.4744 11.1329 11.4246 11.169 11.375ZM9.44209 44.3239C10.8587 47.0047 12.7092 49.4284 14.915 51.4984L14.9088 51.499L14.8948 51.5C14.8669 51.5018 14.6786 51.3672 14.5531 51.2252C14.5285 51.199 14.5014 51.1767 14.4721 51.1525C14.4152 51.1057 14.3501 51.052 14.2798 50.9506C14.2616 50.9243 14.237 50.9081 14.2097 50.8901C14.1665 50.8616 14.1166 50.8287 14.0749 50.7447C13.2172 49.9465 12.9368 54.0963 12.7037 57.5467C12.5501 59.8195 12.417 61.7888 12.1529 61.8408C11.7336 61.9918 11.7883 60.8768 11.8719 59.1734C11.9387 57.8127 12.0239 56.0764 11.9006 54.3103C11.6247 50.3603 10.2215 45.8521 9.38422 44.2677L33.6146 31.4826L57.845 18.6975C57.7591 18.7547 57.6734 18.8298 57.5884 18.9196L33.6725 31.5388L9.44209 44.3239ZM57.5884 18.9196L57.9029 18.7536C59.5831 21.9333 60.6201 25.4126 60.9548 28.9927C61.2894 32.5729 60.915 36.1838 59.8531 39.6194C58.7912 43.055 57.0625 46.2479 54.7657 49.0158C52.4689 51.7838 49.649 54.0726 46.467 55.7516C43.2851 57.4306 39.8033 58.4668 36.2205 58.8011C32.6378 59.1355 29.0242 58.7614 25.5861 57.7003C22.148 56.6391 18.9528 54.9116 16.1828 52.6165C15.7482 52.2565 15.3255 51.8835 14.915 51.4984C15.9338 51.3995 16.7842 48.7644 16.7721 47.8897C16.7577 46.8506 17.5317 45.7698 17.5317 45.7698C18.5573 44.7933 18.8351 45.7222 19.0474 46.4322C19.1764 46.8635 19.2812 47.2139 19.5147 47.0077C19.7011 46.8431 19.9818 46.3304 20.3187 45.7152C21.0993 44.2897 22.1813 42.3137 23.0889 42.8423C24.0079 43.3775 23.9057 45.3403 23.8568 46.2797C23.8366 46.6685 23.8255 46.882 23.8997 46.7465C24.1036 46.3737 24.3071 45.017 24.5269 43.5522L24.5269 43.5522C24.8111 41.6575 25.1224 39.5821 25.4969 39.2212C27.0584 37.7169 27.9843 42.4732 28.6325 45.8034C28.9254 47.3079 29.1616 48.5213 29.3742 48.7349C29.5577 48.9193 29.6344 48.3962 29.752 47.5952C30.072 45.4145 30.6942 41.1742 34.5953 43.5475C38.2524 45.7724 38.4485 42.1189 38.5858 39.559C38.6488 38.3854 38.6994 37.4416 39.0656 37.3997C39.1738 37.3865 39.3337 37.2748 39.5247 37.1414C40.3021 36.5987 41.5952 35.6961 42.0154 39.5985C42.539 44.4602 45.2057 37.4172 44.0733 34.9497C42.941 32.4821 43.2751 28.4851 43.4759 28.308C43.6514 28.1532 43.9402 27.8788 44.2855 27.5508C45.641 26.263 47.8676 24.1476 47.5371 25.1832C47.3281 25.838 47.5667 25.6218 47.9425 25.2815C48.3125 24.9465 48.8153 24.4911 49.1548 24.6279C49.4903 24.7632 49.6115 24.9636 49.7286 25.1572C49.8503 25.3585 49.9675 25.5524 50.3164 25.6581C50.5888 25.573 51.303 24.7376 52.0266 23.8912L52.0266 23.8912C52.7722 23.0191 53.5277 22.1353 53.8204 22.0486C54.7531 21.7722 55.0802 22.4183 55.2495 22.7528C55.3112 22.8746 55.3519 22.9551 55.3934 22.9345C55.5571 22.8533 55.8134 22.276 56.1284 21.5664C56.54 20.6393 57.0519 19.4864 57.5884 18.9196ZM10.742 29.4706C10.995 29.6199 11.3319 29.7556 11.7553 29.797C11.8804 29.8092 11.9762 29.9211 11.9568 30.0454C11.9419 30.1412 11.8624 30.2135 11.7662 30.226C11.4109 30.2723 10.8582 30.3973 10.3095 30.5344C9.75663 30.6725 9.32603 30.0208 9.68208 29.5758C9.92302 29.2746 10.4099 29.2746 10.742 29.4706ZM18.3203 26.8871C18.4501 26.9724 18.6197 26.866 18.6 26.712C18.5928 26.6552 18.5602 26.6057 18.5109 26.5767C18.1902 26.3881 16.9052 25.6104 15.1849 24.281C13.761 23.1805 12.8707 22.3449 12.4779 21.9569C12.3419 21.8225 12.1267 21.8034 11.9726 21.9167C11.7713 22.0647 11.7679 22.3636 11.9668 22.5147C12.5958 22.9926 13.8507 23.9332 14.8138 24.5733C15.8555 25.2656 17.5975 26.4118 18.3203 26.8871ZM19.7205 28.7467C19.7597 28.8121 19.7044 28.8934 19.6292 28.8806C19.2103 28.809 18.2004 28.6362 17.5951 28.5298C17.2865 28.4755 16.666 28.4894 16.0297 28.5259C15.6249 28.5491 15.4591 27.9737 15.8203 27.7894C15.9391 27.7287 16.0823 27.7365 16.2011 27.797C16.4412 27.9195 16.922 28.1292 17.7045 28.3252C18.7408 28.5847 19.4724 28.6816 19.6538 28.7034C19.6817 28.7067 19.7061 28.7226 19.7205 28.7467ZM17.7625 52.4543C18.3592 50.563 19.0142 48.2009 18.8349 47.4379C18.8229 47.3866 18.8134 47.3371 18.8138 47.2844C18.8176 46.8138 19.017 46.7972 19.0383 47.2673C19.1244 49.1645 19.1321 51.8237 19.1322 52.705C19.1322 52.8944 19.0522 53.0743 18.9122 53.2019C18.3907 53.6775 17.5501 53.1273 17.7625 52.4543ZM6.02907 43.5708L62.8754 14.8324L63.061 15.1991L6.21471 43.9375L6.02907 43.5708ZM0.379921 12.5109L0.376286 13.7772L3.21183 13.7853C3.54373 13.7863 3.84337 13.7114 4.11077 13.5606C4.37818 13.4027 4.59163 13.194 4.75111 12.9348C4.91061 12.6683 4.99081 12.3763 4.99172 12.0588C4.9929 11.6475 4.91449 11.3154 4.75648 11.0624C4.59848 10.8094 4.37533 10.6248 4.08706 10.5085C3.79881 10.3851 3.45626 10.3227 3.05943 10.3216L2.02045 10.3186C1.90501 10.3183 1.80771 10.2819 1.72855 10.2096C1.64941 10.13 1.61001 10.0324 1.61034 9.91701C1.61067 9.80157 1.65063 9.70788 1.7302 9.63596C1.81699 9.56406 1.9145 9.52826 2.02272 9.52857L4.46865 9.53559L4.47229 8.26934L1.88566 8.26191C1.5682 8.261 1.27576 8.33953 1.00834 8.4975C0.748161 8.64827 0.538332 8.8533 0.378854 9.11259C0.226611 9.36468 0.150045 9.64585 0.149154 9.9561C0.147994 10.3602 0.230026 10.6887 0.395249 10.9417C0.567708 11.1875 0.794466 11.3685 1.07553 11.4848C1.36382 11.5938 1.68474 11.6489 2.03828 11.6499L3.07726 11.6529C3.16384 11.6531 3.23954 11.675 3.30435 11.7185C3.37639 11.7547 3.43036 11.8054 3.46625 11.8704C3.50936 11.9355 3.53078 12.0113 3.53054 12.0979C3.53031 12.1773 3.50846 12.2494 3.46498 12.3142C3.42872 12.379 3.37446 12.4293 3.3022 12.4652C3.23716 12.5011 3.16135 12.5189 3.07477 12.5187L0.379921 12.5109ZM9.70573 10.5247L7.40049 10.5181C7.42255 10.3738 7.45903 10.2332 7.50993 10.0963C7.56805 9.95936 7.64416 9.83692 7.73827 9.72897C7.83237 9.62101 7.94806 9.53476 8.08534 9.47022C8.22983 9.40569 8.39226 9.37369 8.57264 9.37421C8.70973 9.3746 8.83594 9.393 8.95128 9.42941C9.06662 9.46582 9.16748 9.51661 9.25388 9.5818C9.34027 9.64698 9.4158 9.72657 9.48047 9.82055C9.54514 9.91453 9.59533 10.0229 9.63106 10.1457C9.6668 10.2612 9.69169 10.3875 9.70573 10.5247ZM16.7619 12.558L16.7583 13.8242L19.5938 13.8324C19.9257 13.8333 20.2254 13.7584 20.4928 13.6077C20.7602 13.4497 20.9736 13.2411 21.1331 12.9818C21.2926 12.7153 21.3728 12.4233 21.3737 12.1058C21.3749 11.6946 21.2965 11.3624 21.1385 11.1095C20.9805 10.8565 20.7573 10.6718 20.4691 10.5556C20.1808 10.4321 19.8383 10.3698 19.4414 10.3686L18.4025 10.3657C18.287 10.3653 18.1897 10.329 18.1106 10.2566C18.0314 10.177 17.992 10.0795 17.9923 9.96403C17.9927 9.84859 18.0326 9.75491 18.1122 9.68299C18.199 9.61108 18.2965 9.57529 18.4047 9.5756L20.8507 9.58262L20.8543 8.31636L18.2677 8.30894C17.9502 8.30803 17.6578 8.38655 17.3903 8.54452C17.1302 8.69529 16.9203 8.90032 16.7609 9.15961C16.6086 9.41171 16.532 9.69288 16.5312 10.0031C16.53 10.4072 16.612 10.7357 16.7773 10.9887C16.9497 11.2345 17.1765 11.4156 17.4575 11.5318C17.7458 11.6409 18.0667 11.6959 18.4203 11.6969L19.4593 11.6999C19.5458 11.7001 19.6215 11.722 19.6863 11.7655C19.7584 11.8018 19.8124 11.8524 19.8483 11.9175C19.8914 11.9825 19.9128 12.0583 19.9125 12.1449C19.9123 12.2243 19.8905 12.2964 19.847 12.3612C19.8107 12.426 19.7565 12.4764 19.6842 12.5122C19.6192 12.5481 19.5434 12.566 19.4568 12.5657L16.7619 12.558ZM23.7737 13.6387C24.1771 13.8636 24.6602 13.9768 25.223 13.9784C25.7929 13.98 26.2767 13.8696 26.6742 13.6471C27.0788 13.4245 27.3863 13.126 27.5967 12.7514C27.8142 12.3768 27.9236 11.9623 27.9249 11.5077L27.934 8.33669L26.4513 8.33243L26.4422 11.5035C26.4416 11.7271 26.3869 11.9326 26.2781 12.1199C26.1694 12.3 26.021 12.4439 25.8331 12.5515C25.6524 12.6593 25.4503 12.7128 25.2266 12.7121C25.0029 12.7115 24.7974 12.6568 24.6102 12.548C24.4301 12.4393 24.2862 12.2946 24.1785 12.1139C24.0708 11.926 24.0173 11.7202 24.0179 11.4965L24.027 8.32547L22.5443 8.32122L22.5352 11.4923C22.5339 11.9468 22.6373 12.362 22.8455 12.7378C23.0609 13.1136 23.3703 13.4139 23.7737 13.6387ZM29.3335 10.6892L29.3244 13.8603L30.8071 13.8646L30.8162 10.6935C30.8168 10.4698 30.8715 10.268 30.9803 10.0879C31.089 9.90062 31.2337 9.75312 31.4144 9.64541C31.6023 9.53772 31.8081 9.4842 32.0318 9.48484C32.2555 9.48548 32.4573 9.54018 32.6374 9.64892C32.8247 9.75769 32.9722 9.90602 33.0799 10.0939C33.1876 10.2746 33.2411 10.4768 33.2405 10.7005L33.2314 13.8715L34.7141 13.8758L34.7232 10.7047C34.7245 10.2502 34.6174 9.83499 34.4021 9.45918C34.1939 9.08339 33.8881 8.78308 33.4847 8.55825C33.0885 8.33345 32.6054 8.22022 32.0354 8.21859C31.4727 8.21697 30.9889 8.32742 30.5842 8.54993C30.1795 8.77244 29.8684 9.07097 29.6509 9.44554C29.4406 9.82013 29.3348 10.2347 29.3335 10.6892ZM36.976 13.6225C37.3504 13.8833 37.7902 14.0145 38.2952 14.0159C38.6127 14.0168 38.887 13.9707 39.1182 13.8776C39.3493 13.7845 39.5445 13.6587 39.7037 13.5005C39.8701 13.3422 40.0077 13.1658 40.1165 12.9713L40.1381 12.9714L40.1355 13.8913L41.6182 13.8956L41.6261 11.1466C41.6276 10.6127 41.5172 10.1254 41.2948 9.6846C41.0724 9.24383 40.7487 8.89297 40.3237 8.632C39.8988 8.37103 39.3761 8.23966 38.7556 8.23788C38.1423 8.23612 37.6152 8.36448 37.1743 8.62296C36.7335 8.87423 36.3934 9.21958 36.154 9.65902C35.9219 10.0985 35.805 10.5888 35.8035 11.1299C35.8019 11.6566 35.9016 12.1403 36.1023 12.581C36.3103 13.0145 36.6015 13.3617 36.976 13.6225ZM39.4683 12.5366C39.2587 12.6803 39.0096 12.7517 38.721 12.7509C38.4251 12.75 38.1692 12.6771 37.9532 12.5322C37.7443 12.3873 37.5826 12.192 37.4678 11.9464C37.3603 11.6936 37.307 11.4156 37.3079 11.1126C37.3087 10.8095 37.3636 10.5391 37.4725 10.3013C37.5887 10.0564 37.7516 9.86202 37.9612 9.71832C38.1781 9.57464 38.4345 9.50322 38.7303 9.50407C39.0189 9.5049 39.2676 9.57777 39.4764 9.72267C39.6852 9.86757 39.8434 10.0628 39.9509 10.3085C40.0657 10.5469 40.1226 10.8176 40.1218 11.1207C40.1209 11.4237 40.0624 11.7013 39.9462 11.9535C39.8373 12.1985 39.678 12.3929 39.4683 12.5366Z" fill="#92FF26"/>
</svg>
