<svg width="1114" height="454" viewBox="0 0 1114 454" fill="none" xmlns="http://www.w3.org/2000/svg">
<path fill-rule="evenodd" clip-rule="evenodd" d="M15.2771 0.0429883L1113.19 3.19469L1111.94 440.189L112.856 437.321C113.221 432.852 113.564 427.766 113.923 422.453C115.623 397.31 117.667 367.071 123.917 372.887C124.221 373.499 124.585 373.739 124.9 373.946C125.098 374.077 125.278 374.196 125.411 374.387C125.923 375.127 126.398 375.517 126.812 375.859L126.812 375.859L126.813 375.859L126.813 375.859C127.026 376.035 127.224 376.198 127.402 376.388C128.317 377.423 129.689 378.404 129.893 378.391C129.941 378.388 129.99 378.384 130.039 378.379C133.03 381.186 136.112 383.904 139.279 386.528C159.467 403.252 182.755 415.84 207.812 423.573C232.87 431.306 259.206 434.032 285.318 431.595C311.43 429.159 336.806 421.608 359.997 409.373C383.188 397.139 403.74 380.46 420.479 360.29C437.218 340.12 449.817 316.853 457.557 291.818C465.296 266.783 468.025 240.47 465.586 214.381C463.147 188.293 455.589 162.939 443.344 139.769L441.051 140.979C441.671 140.323 442.296 139.776 442.923 139.359L266.327 232.524L89.7306 325.689C95.8325 337.235 106.06 370.086 108.07 398.869C108.969 411.739 108.348 424.391 107.862 434.307C107.811 435.337 107.762 436.338 107.716 437.307L14.0226 437.038L14.9209 124.122L22.3815 124.144C24.8041 124.15 26.9914 123.604 28.9432 122.503C30.8952 121.35 32.4532 119.827 33.6174 117.935C34.7816 115.989 35.3671 113.858 35.3737 111.541C35.3823 108.539 34.81 106.114 33.6566 104.268C32.5032 102.421 30.8744 101.074 28.7702 100.225C26.6661 99.3234 24.1657 98.8686 21.2691 98.8602L14.9934 98.8422L15.01 93.0753L31.5556 93.1228L31.5821 83.8798L15.0365 83.8323L15.2771 0.0429883ZM14.9656 108.559L13.8152 108.556C11.2345 108.548 8.89201 108.147 6.78762 107.351C4.73605 106.502 3.08084 105.181 1.82198 103.386C0.615946 101.54 0.0171604 99.1416 0.0256268 96.1923C0.0321277 93.9276 0.591021 91.8752 1.70231 90.035C2.86641 88.1424 4.39805 86.6458 6.29722 85.5452C8.2492 84.3921 10.3839 83.8189 12.7012 83.8256L15.0365 83.8323L15.01 93.0753L13.7016 93.0715C12.9116 93.0692 12.1999 93.3305 11.5664 93.8554C10.9855 94.3804 10.6939 95.0642 10.6915 95.9069C10.6891 96.7495 10.9767 97.4614 11.5544 98.0424C12.1322 98.5707 12.8424 98.8361 13.6851 98.8385L14.9934 98.8422L14.9656 108.559ZM14.9474 114.879L14.9209 124.122L1.68357 124.084L1.7101 114.841L14.9474 114.879ZM14.9474 114.879L21.381 114.898C22.013 114.899 22.5664 114.769 23.0411 114.507C23.5686 114.246 23.9646 113.878 24.2293 113.405C24.5467 112.932 24.7062 112.406 24.7079 111.826C24.7097 111.194 24.5533 110.641 24.2386 110.166C23.9766 109.691 23.5827 109.321 23.0568 109.056C22.5837 108.739 22.0312 108.579 21.3992 108.578L14.9656 108.559L14.9474 114.879ZM441.051 140.979C437.141 145.109 433.412 153.509 430.412 160.264L430.412 160.264L430.412 160.265C428.116 165.435 426.248 169.642 425.054 170.234C424.752 170.384 424.455 169.798 424.006 168.91C422.772 166.472 420.388 161.764 413.59 163.778C411.457 164.41 405.95 170.85 400.517 177.205C395.243 183.373 390.038 189.461 388.052 190.081C385.51 189.311 384.655 187.898 383.768 186.431C382.915 185.02 382.031 183.559 379.586 182.574C377.112 181.577 373.447 184.895 370.751 187.337C368.012 189.816 366.273 191.391 367.796 186.62C370.205 179.073 353.977 194.489 344.098 203.873L344.096 203.874L344.094 203.876C341.579 206.265 339.476 208.263 338.197 209.391C336.734 210.681 334.299 239.808 342.552 257.788C350.805 275.769 331.369 327.092 327.553 291.665C324.491 263.227 315.066 269.805 309.401 273.76L309.4 273.76C308.008 274.732 306.842 275.545 306.054 275.642C303.385 275.947 303.016 282.825 302.557 291.377C301.556 310.031 300.128 336.654 273.474 320.441C245.042 303.147 240.507 334.045 238.175 349.937C237.318 355.773 236.759 359.586 235.421 358.242C233.872 356.685 232.151 347.843 230.016 336.88C225.291 312.612 218.543 277.953 207.163 288.915C204.433 291.545 202.165 306.668 200.093 320.475C198.492 331.149 197.009 341.035 195.522 343.752C194.981 344.74 195.062 343.184 195.21 340.35C195.566 333.505 196.311 319.202 189.613 315.302C182.998 311.45 175.112 325.849 169.423 336.237C166.968 340.72 164.922 344.456 163.564 345.655C161.862 347.158 161.098 344.604 160.158 341.462C158.611 336.288 156.586 329.519 149.111 336.635C149.111 336.635 143.47 344.51 143.575 352.082C143.663 358.457 137.464 377.662 130.039 378.379C113.962 363.295 100.476 345.634 90.1516 326.099L266.748 232.934L441.051 140.979ZM107.716 437.307L112.856 437.321C112.083 446.784 111.217 453.487 109.91 453.744C107.107 454.753 107.21 448.005 107.716 437.307ZM64.6145 207.981C65.2258 234.176 70.9952 259.994 81.5932 283.961L81.5927 283.961L81.5933 283.961L81.5932 283.961C91.9302 277.637 99.5757 274.388 104.438 272.322L104.439 272.322L104.439 272.322C106.055 271.635 107.364 271.079 108.361 270.584C110.462 269.542 111.6 268.084 112.497 266.936C113.307 265.898 113.919 265.113 114.867 265.116C116.864 265.122 138.352 258.2 151.357 249.758C156.1 246.679 160.628 245.265 165.345 243.792C173.564 241.225 182.357 238.478 193.862 226.435C197.456 222.672 193.381 220.61 190.937 219.372C189.607 218.699 188.759 218.27 189.892 217.944C192.454 217.207 196.727 217.36 201.913 217.546L201.913 217.546L201.913 217.546C211.445 217.887 224.065 218.339 234.838 213.584C244.391 209.367 250.539 205.911 256.278 202.684C264.951 197.808 272.689 193.457 289.831 187.803C304.873 187.453 286.1 177.873 275.394 172.41L275.393 172.409C271.751 170.551 269.042 169.168 268.916 168.788C268.796 168.426 271.479 169.356 275.659 170.806C288.75 175.348 316.525 184.983 318.822 175.915C320.902 167.701 315.434 165.109 311.322 163.16C309.444 162.27 307.85 161.514 307.383 160.419C306.829 159.115 310.57 159.973 316.154 161.254C325.55 163.409 340.163 166.761 348.315 163.03C361.313 157.082 446.934 122.701 446.934 122.701L446.934 122.701C436.336 98.7332 421.117 77.0862 402.146 58.9953C383.174 40.9045 360.822 26.7241 336.366 17.2639C311.909 7.80363 285.827 3.24879 259.609 3.85942C233.391 4.47005 207.549 10.2342 183.561 20.8227C159.572 31.4112 137.906 46.6168 119.799 65.5712C114.199 71.433 108.974 77.6179 104.147 84.0881L101.63 84.0809L101.659 73.9689L90.8356 73.9378L90.8066 84.0498L83.9336 84.0301L83.907 93.273L90.78 93.2928L90.7477 104.556C85.8629 113.122 81.6093 122.057 78.0305 131.292C68.562 155.727 64.0032 181.786 64.6145 207.981ZM90.7477 104.556L90.7238 112.885C90.7137 116.413 91.7063 119.208 93.7017 121.267C95.7498 123.327 98.5645 124.362 102.146 124.373L112.811 124.403L112.837 115.16L104.068 115.135C103.384 115.133 102.779 114.894 102.253 114.419C101.781 113.891 101.546 113.284 101.548 112.6L101.603 93.3238L112.9 93.3563L112.926 84.1133L104.147 84.0881C103.292 85.234 102.449 86.3889 101.62 87.5525C100.267 89.4496 98.9474 91.3699 97.6623 93.3125C95.2343 96.9828 92.9281 100.733 90.7477 104.556ZM65.277 320.608L479.584 111.192L480.939 113.868L66.6323 323.284L65.277 320.608ZM99.6261 217.862C101.47 218.951 103.926 219.939 107.012 220.241C107.924 220.33 108.622 221.146 108.481 222.051C108.372 222.749 107.793 223.276 107.092 223.368C104.502 223.705 100.473 224.615 96.4748 225.615C92.4453 226.621 89.3075 221.872 91.9026 218.629C93.6584 216.434 97.2058 216.434 99.6261 217.862ZM154.859 199.037C155.805 199.659 157.042 198.883 156.898 197.761C156.846 197.348 156.608 196.987 156.248 196.775C153.912 195.401 144.546 189.734 132.008 180.046C121.631 172.027 115.142 165.938 112.279 163.111C111.288 162.132 109.719 161.992 108.596 162.818C107.129 163.896 107.104 166.074 108.554 167.175C113.138 170.658 122.284 177.512 129.304 182.176C136.896 187.221 149.592 195.574 154.859 199.037ZM165.065 212.587C165.351 213.064 164.947 213.656 164.399 213.563C161.346 213.042 153.986 211.782 149.574 211.007C147.325 210.611 142.803 210.712 138.165 210.978C135.215 211.148 134.007 206.954 136.639 205.611C137.505 205.169 138.548 205.226 139.414 205.667C141.164 206.559 144.668 208.088 150.371 209.516C157.924 211.407 163.256 212.113 164.578 212.272C164.782 212.296 164.96 212.412 165.065 212.587ZM150.793 385.344C155.142 371.563 159.915 354.351 158.609 348.791C158.521 348.416 158.452 348.056 158.455 347.672C158.483 344.242 159.936 344.122 160.091 347.548C160.719 361.372 160.775 380.75 160.775 387.172C160.775 388.552 160.192 389.863 159.172 390.793C155.371 394.258 149.245 390.249 150.793 385.344ZM64.1057 124.263C59.5237 124.25 55.5235 123.37 52.1052 121.622C48.7397 119.822 46.1133 117.391 44.2261 114.331C42.3915 111.271 41.4797 107.845 41.4906 104.053C41.5028 99.7873 42.3825 96.0768 44.1295 92.9218C45.8766 89.7668 48.2536 87.3247 51.2606 85.5953C54.2676 83.8659 57.6671 83.0067 61.459 83.0176C65.9884 83.0306 69.646 83.9891 72.4318 85.8931C75.2704 87.7972 77.3434 90.3575 78.6508 93.5739C79.9584 96.7377 80.6066 100.268 80.5954 104.166C80.5939 104.692 80.5658 105.324 80.511 106.061C80.4563 106.746 80.3758 107.272 80.2694 107.641L53.0145 107.562C53.4312 109.196 54.1383 110.568 55.1357 111.677C56.1859 112.786 57.4738 113.632 58.9995 114.216C60.578 114.747 62.3415 115.015 64.2902 115.021L75.5081 115.053L75.4816 124.296L64.1057 124.263ZM52.9564 100.294L69.7833 100.343C69.6809 99.3416 69.4992 98.4194 69.2383 97.5759C68.9775 96.6799 68.6111 95.8888 68.1391 95.2028C67.6671 94.5168 67.1157 93.9358 66.4851 93.46C65.8545 92.9842 65.1182 92.6134 64.2763 92.3477C63.4344 92.0819 62.5131 91.9476 61.5124 91.9447C60.1958 91.941 59.0101 92.1746 57.9554 92.6455C56.9534 93.1167 56.1089 93.7462 55.422 94.5343C54.735 95.3223 54.1795 96.216 53.7553 97.2155C53.3837 98.2151 53.1174 99.2413 52.9564 100.294ZM121.263 124.427L121.29 115.184L140.961 115.241C141.593 115.243 142.146 115.113 142.621 114.851C143.148 114.589 143.544 114.221 143.809 113.748C144.126 113.275 144.286 112.749 144.287 112.169C144.289 111.537 144.133 110.984 143.818 110.509C143.556 110.034 143.162 109.665 142.636 109.4C142.163 109.082 141.611 108.923 140.979 108.921L133.395 108.899C130.814 108.892 128.472 108.49 126.367 107.694C124.316 106.845 122.66 105.524 121.402 103.73C120.196 101.883 119.597 99.4848 119.605 96.5355C119.612 94.2709 120.171 92.2185 121.282 90.3783C122.446 88.4856 123.978 86.989 125.877 85.8885C127.829 84.7354 129.963 84.1622 132.281 84.1689L151.162 84.2231L151.135 93.466L133.281 93.4148C132.491 93.4125 131.779 93.6738 131.146 94.1986C130.565 94.7236 130.273 95.4075 130.271 96.2501C130.269 97.0928 130.556 97.8046 131.134 98.3856C131.712 98.914 132.422 99.1793 133.265 99.1817L140.849 99.2035C143.745 99.2118 146.246 99.6667 148.35 100.568C150.454 101.417 152.083 102.764 153.236 104.611C154.39 106.458 154.962 108.882 154.953 111.884C154.947 114.201 154.361 116.333 153.197 118.278C152.033 120.171 150.475 121.694 148.523 122.847C146.571 123.947 144.384 124.494 141.961 124.487L121.263 124.427ZM183.051 125.553C178.943 125.541 175.416 124.715 172.472 123.073C169.527 121.432 167.269 119.24 165.696 116.497C164.177 113.754 163.422 110.723 163.432 107.405L163.498 84.2585L174.321 84.2895L174.254 107.436C174.25 109.069 174.64 110.571 175.427 111.943C176.213 113.262 177.263 114.318 178.577 115.112C179.945 115.906 181.444 116.305 183.077 116.31C184.71 116.314 186.186 115.924 187.504 115.138C188.876 114.351 189.959 113.301 190.752 111.987C191.546 110.62 191.946 109.12 191.95 107.487L192.017 84.3403L202.84 84.3714L202.773 107.518C202.764 110.836 201.965 113.862 200.377 116.596C198.842 119.331 196.598 121.51 193.644 123.134C190.742 124.759 187.211 125.565 183.051 125.553ZM212.989 124.691L213.055 101.544C213.065 98.2258 213.837 95.1997 215.372 92.4654C216.96 89.7313 219.231 87.5521 222.185 85.9279C225.139 84.3037 228.67 83.4976 232.778 83.5093C236.939 83.5213 240.465 84.3477 243.357 85.9887C246.301 87.6298 248.533 89.8219 250.053 92.565C251.625 95.3082 252.406 98.3387 252.397 101.657L252.33 124.804L241.507 124.773L241.574 101.626C241.579 99.993 241.188 98.5172 240.402 97.1983C239.616 95.8267 238.539 94.7439 237.172 93.95C235.858 93.1562 234.384 92.757 232.751 92.7523C231.119 92.7476 229.617 93.1383 228.245 93.9244C226.926 94.7106 225.87 95.7872 225.076 97.1543C224.282 98.4687 223.883 99.9422 223.878 101.575L223.812 124.722L212.989 124.691ZM278.471 125.827C274.784 125.816 271.574 124.859 268.841 122.955C266.108 121.051 263.982 118.517 262.464 115.353C260.999 112.136 260.271 108.605 260.282 104.76C260.294 100.81 261.147 97.2315 262.841 94.0237C264.588 90.816 267.071 88.2951 270.289 86.461C273.507 84.5743 277.354 83.6373 281.831 83.6502C286.36 83.6632 290.176 84.6221 293.278 86.527C296.38 88.4319 298.742 90.9931 300.366 94.2104C301.989 97.4277 302.795 100.985 302.784 104.882L302.727 124.948L291.904 124.917L291.923 118.202L291.765 118.202C290.971 119.622 289.967 120.909 288.752 122.064C287.59 123.22 286.165 124.137 284.478 124.817C282.791 125.497 280.788 125.833 278.471 125.827ZM281.579 116.593C283.685 116.599 285.504 116.077 287.034 115.028C288.564 113.979 289.727 112.561 290.522 110.772C291.37 108.931 291.797 106.905 291.804 104.693C291.81 102.481 291.394 100.505 290.557 98.7643C289.772 96.9713 288.617 95.546 287.093 94.4883C285.569 93.4306 283.753 92.8987 281.647 92.8927C279.487 92.8865 277.616 93.4078 276.033 94.4566C274.503 95.5055 273.314 96.9241 272.466 98.7123C271.671 100.448 271.27 102.422 271.264 104.634C271.257 106.846 271.647 108.875 272.431 110.72C273.269 112.513 274.45 113.939 275.974 114.996C277.551 116.054 279.419 116.586 281.579 116.593ZM503.684 140.449L503.684 318.831L606.89 318.831C615.725 318.831 623.709 316.877 630.844 312.97C637.98 309.063 643.671 303.541 647.918 296.406C652.335 289.271 654.544 280.946 654.544 271.432C654.544 264.467 653.1 258.011 650.212 252.065C647.493 245.949 643.671 240.683 638.744 236.266C633.987 231.679 628.466 228.366 622.18 226.327C627.617 224.119 632.373 221.061 636.451 217.153C640.528 213.246 643.756 208.659 646.134 203.392C648.513 197.956 649.702 192.265 649.702 186.319C649.702 176.975 647.578 168.905 643.331 162.11C639.254 155.314 633.733 150.048 626.767 146.31C619.972 142.403 612.327 140.449 603.832 140.449L503.684 140.449ZM596.442 286.722L540.124 286.722L540.125 243.401L596.442 243.401C600.52 243.401 604.172 244.42 607.4 246.459C610.628 248.328 613.176 250.876 615.045 254.104C617.084 257.332 618.103 260.984 618.103 265.062C618.103 268.969 617.084 272.622 615.045 276.019C613.176 279.247 610.628 281.881 607.4 283.919C604.172 285.788 600.52 286.722 596.442 286.722ZM593.129 212.821L540.125 212.821L540.124 172.558L593.129 172.558C596.867 172.558 600.265 173.492 603.323 175.361C606.381 177.06 608.759 179.438 610.458 182.496C612.327 185.554 613.261 188.952 613.261 192.69C613.261 196.427 612.327 199.825 610.458 202.883C608.759 205.941 606.381 208.404 603.323 210.273C600.265 211.972 596.867 212.821 593.129 212.821ZM681.339 132.804L681.339 318.831L716.251 318.831L716.251 132.804L681.339 132.804ZM775.78 312.97C786.313 318.916 798.29 321.889 811.711 321.889C825.132 321.889 837.109 318.916 847.642 312.97C858.175 306.854 866.5 298.699 872.616 288.506C878.732 278.143 881.79 266.591 881.79 253.849C881.79 241.108 878.732 229.64 872.616 219.447C866.5 209.084 858.175 200.929 847.642 194.983C837.109 188.867 825.132 185.809 811.711 185.809C798.29 185.809 786.313 188.867 775.78 194.983C765.247 200.929 756.922 209.084 750.806 219.447C744.69 229.64 741.632 241.108 741.632 253.849C741.632 266.591 744.69 278.143 750.806 288.506C756.922 298.699 765.247 306.854 775.78 312.97ZM830.059 286.977C824.962 290.375 818.846 292.074 811.711 292.074C804.576 292.074 798.375 290.375 793.108 286.977C788.012 283.579 784.019 278.992 781.131 273.216C778.413 267.44 777.054 260.984 777.054 253.849C777.054 246.714 778.413 240.258 781.131 234.482C784.019 228.706 788.012 224.119 793.108 220.721C798.375 217.323 804.576 215.624 811.711 215.624C818.846 215.624 824.962 217.323 830.059 220.721C835.325 224.119 839.318 228.706 842.036 234.482C844.924 240.258 846.368 246.714 846.368 253.849C846.368 260.984 844.924 267.44 842.036 273.216C839.318 278.992 835.326 283.579 830.059 286.977ZM926.925 340.747L926.925 370.562L999.807 370.562C1011.36 370.562 1020.36 367.249 1026.82 360.623C1033.44 353.998 1036.76 344.994 1036.76 333.611L1036.76 256.397C1036.76 241.957 1033.95 229.47 1028.35 218.937C1022.74 208.404 1014.84 200.25 1004.65 194.473C994.455 188.697 982.308 185.809 968.208 185.809C953.597 185.809 941.195 188.782 931.002 194.728C920.809 200.674 912.994 208.744 907.558 218.937C902.291 228.961 899.658 240.258 899.658 252.83C899.658 266.081 902.376 277.718 907.812 287.742C913.249 297.765 920.554 305.58 929.728 311.186C939.072 316.623 949.52 319.341 961.072 319.341C966.679 319.341 971.775 318.746 976.362 317.557C981.119 316.198 985.536 314.159 989.613 311.441C993.691 308.723 997.683 305.155 1001.59 300.738L1001.85 300.738L1001.85 332.592C1001.85 334.801 1001.08 336.669 999.552 338.198C998.023 339.897 996.069 340.747 993.691 340.747L926.925 340.747ZM986.046 284.684C981.119 287.912 975.173 289.525 968.208 289.525C961.412 289.525 955.466 287.912 950.369 284.684C945.443 281.286 941.62 276.869 938.902 271.432C936.354 265.826 935.079 259.625 935.079 252.83C935.079 245.864 936.354 239.579 938.902 233.972C941.62 228.366 945.443 223.949 950.369 220.721C955.466 217.323 961.412 215.624 968.208 215.624C975.173 215.624 981.119 217.323 986.046 220.721C990.972 224.119 994.71 228.706 997.258 234.482C999.977 240.258 1001.34 246.714 1001.34 253.849C1001.34 260.475 999.977 266.506 997.258 271.942C994.71 277.209 990.973 281.456 986.046 284.684Z" fill="#92FF26" fill-opacity="0.66"/>
</svg>
