<svg width="193" height="62" viewBox="0 0 193 62" fill="none" xmlns="http://www.w3.org/2000/svg">
<path d="M74.682 40.778V37.151H82.401C82.649 37.151 82.866 37.0993 83.052 36.996C83.2587 36.8927 83.4137 36.748 83.517 36.562C83.641 36.376 83.703 36.1693 83.703 35.942C83.703 35.694 83.641 35.477 83.517 35.291C83.4137 35.105 83.2587 34.9603 83.052 34.857C82.866 34.733 82.649 34.671 82.401 34.671H79.425C78.4123 34.671 77.4927 34.516 76.666 34.206C75.86 33.8753 75.209 33.3587 74.713 32.656C74.2377 31.9327 74 30.9923 74 29.835C74 28.9463 74.217 28.1403 74.651 27.417C75.1057 26.673 75.705 26.084 76.449 25.65C77.2137 25.1953 78.0507 24.968 78.96 24.968H86.369V28.595H79.363C79.053 28.595 78.774 28.6983 78.526 28.905C78.2987 29.1117 78.185 29.3803 78.185 29.711C78.185 30.0417 78.2987 30.3207 78.526 30.548C78.7533 30.7547 79.0323 30.858 79.363 30.858H82.339C83.4757 30.858 84.4573 31.0337 85.284 31.385C86.1107 31.7157 86.7513 32.2427 87.206 32.966C87.6607 33.6893 87.888 34.64 87.888 35.818C87.888 36.7273 87.6607 37.5643 87.206 38.329C86.7513 39.073 86.1417 39.6723 85.377 40.127C84.6123 40.561 83.7547 40.778 82.804 40.778H74.682Z" fill="#F4F4F4"/>
<path d="M99.1768 40.778C97.3788 40.778 95.8082 40.437 94.4648 39.755C93.1422 39.0523 92.1088 38.1017 91.3648 36.903C90.6415 35.7043 90.2798 34.361 90.2798 32.873C90.2798 31.199 90.6208 29.742 91.3028 28.502C91.9848 27.262 92.9148 26.301 94.0928 25.619C95.2708 24.937 96.6038 24.596 98.0918 24.596C99.8692 24.596 101.306 24.968 102.401 25.712C103.517 26.456 104.333 27.4583 104.85 28.719C105.367 29.959 105.625 31.3437 105.625 32.873C105.625 33.0797 105.615 33.3277 105.594 33.617C105.573 33.8857 105.542 34.0923 105.501 34.237H94.8058C94.9712 34.8777 95.2502 35.415 95.6428 35.849C96.0562 36.283 96.5625 36.6137 97.1618 36.841C97.7818 37.0477 98.4742 37.151 99.2388 37.151H103.641V40.778H99.1768ZM94.7748 31.385H101.378C101.337 30.9923 101.264 30.6307 101.161 30.3C101.058 29.9487 100.913 29.6387 100.727 29.37C100.541 29.1013 100.324 28.874 100.076 28.688C99.8278 28.502 99.5385 28.3573 99.2078 28.254C98.8772 28.1507 98.5155 28.099 98.1228 28.099C97.6062 28.099 97.1412 28.192 96.7278 28.378C96.3352 28.564 96.0045 28.812 95.7358 29.122C95.4672 29.432 95.2502 29.7833 95.0848 30.176C94.9402 30.5687 94.8368 30.9717 94.7748 31.385Z" fill="#F4F4F4"/>
<path d="M114.104 40.778C112.699 40.778 111.593 40.375 110.787 39.569C110.002 38.763 109.609 37.6677 109.609 36.283V21H113.856V36.159C113.856 36.4277 113.949 36.6653 114.135 36.872C114.342 37.058 114.579 37.151 114.848 37.151H118.289V40.778H114.104ZM106.912 28.595V24.968H118.289V28.595H106.912Z" fill="#F4F4F4"/>
<path d="M121.606 40.778V37.151H129.325C129.573 37.151 129.79 37.0993 129.976 36.996C130.182 36.8927 130.337 36.748 130.441 36.562C130.565 36.376 130.627 36.1693 130.627 35.942C130.627 35.694 130.565 35.477 130.441 35.291C130.337 35.105 130.182 34.9603 129.976 34.857C129.79 34.733 129.573 34.671 129.325 34.671H126.349C125.336 34.671 124.416 34.516 123.59 34.206C122.784 33.8753 122.133 33.3587 121.637 32.656C121.161 31.9327 120.924 30.9923 120.924 29.835C120.924 28.9463 121.141 28.1403 121.575 27.417C122.029 26.673 122.629 26.084 123.373 25.65C124.137 25.1953 124.974 24.968 125.884 24.968H133.293V28.595H126.287C125.977 28.595 125.698 28.6983 125.45 28.905C125.222 29.1117 125.109 29.3803 125.109 29.711C125.109 30.0417 125.222 30.3207 125.45 30.548C125.677 30.7547 125.956 30.858 126.287 30.858H129.263C130.399 30.858 131.381 31.0337 132.208 31.385C133.034 31.7157 133.675 32.2427 134.13 32.966C134.584 33.6893 134.812 34.64 134.812 35.818C134.812 36.7273 134.584 37.5643 134.13 38.329C133.675 39.073 133.065 39.6723 132.301 40.127C131.536 40.561 130.678 40.778 129.728 40.778H121.606Z" fill="#F4F4F4"/>
<path d="M145.853 41.15C144.241 41.15 142.856 40.8297 141.699 40.189C140.541 39.5483 139.653 38.6907 139.033 37.616C138.433 36.5413 138.134 35.353 138.134 34.051V24.968H142.381V34.051C142.381 34.6917 142.536 35.2807 142.846 35.818C143.156 36.3347 143.569 36.748 144.086 37.058C144.623 37.368 145.212 37.523 145.853 37.523C146.493 37.523 147.072 37.368 147.589 37.058C148.126 36.748 148.55 36.3347 148.86 35.818C149.17 35.2807 149.325 34.6917 149.325 34.051V24.968H153.572V34.051C153.572 35.353 153.262 36.5413 152.642 37.616C152.042 38.6907 151.164 39.5483 150.007 40.189C148.87 40.8297 147.485 41.15 145.853 41.15Z" fill="#F4F4F4"/>
<path d="M157.599 40.778V31.695C157.599 30.393 157.899 29.2047 158.498 28.13C159.118 27.0553 160.007 26.1977 161.164 25.557C162.322 24.9163 163.706 24.596 165.318 24.596C166.951 24.596 168.336 24.9163 169.472 25.557C170.63 26.1977 171.508 27.0553 172.107 28.13C172.727 29.2047 173.037 30.393 173.037 31.695V40.778H168.79V31.695C168.79 31.0543 168.635 30.4757 168.325 29.959C168.015 29.4217 167.592 28.998 167.054 28.688C166.538 28.378 165.959 28.223 165.318 28.223C164.678 28.223 164.089 28.378 163.551 28.688C163.035 28.998 162.621 29.4217 162.311 29.959C162.001 30.4757 161.846 31.0543 161.846 31.695V40.778H157.599Z" fill="#F4F4F4"/>
<path d="M183.296 41.15C181.85 41.15 180.589 40.778 179.514 40.034C178.44 39.29 177.603 38.298 177.003 37.058C176.425 35.7973 176.135 34.4127 176.135 32.904C176.135 31.354 176.466 29.9487 177.127 28.688C177.809 27.4273 178.781 26.4353 180.041 25.712C181.302 24.968 182.811 24.596 184.567 24.596C186.345 24.596 187.843 24.968 189.062 25.712C190.282 26.456 191.212 27.4583 191.852 28.719C192.493 29.9797 192.813 31.3747 192.813 32.904V40.778H188.566V38.143H188.504C188.194 38.701 187.802 39.2073 187.326 39.662C186.872 40.1167 186.314 40.4783 185.652 40.747C184.991 41.0157 184.206 41.15 183.296 41.15ZM184.505 37.523C185.332 37.523 186.045 37.3163 186.644 36.903C187.244 36.4897 187.698 35.9317 188.008 35.229C188.339 34.5057 188.504 33.71 188.504 32.842C188.504 31.974 188.339 31.199 188.008 30.517C187.698 29.8143 187.244 29.2563 186.644 28.843C186.045 28.4297 185.332 28.223 184.505 28.223C183.658 28.223 182.924 28.4297 182.304 28.843C181.705 29.2563 181.24 29.8143 180.909 30.517C180.599 31.199 180.444 31.974 180.444 32.842C180.444 33.71 180.599 34.5057 180.909 35.229C181.24 35.9317 181.705 36.4897 182.304 36.903C182.924 37.3163 183.658 37.523 184.505 37.523Z" fill="#F4F4F4"/>
<path fill-rule="evenodd" clip-rule="evenodd" d="M8.26736 38.5413C6.81322 35.2522 6.02161 31.7092 5.93773 28.1144C5.85386 24.5197 6.47936 20.9436 7.77852 17.5904C8.28598 16.2807 8.89233 15.0149 9.59096 13.8037L10.4859 13.8062L10.4895 12.54L10.3664 12.5396C10.5901 12.1961 10.8216 11.8575 11.0607 11.5243L11.1418 11.5245C11.1527 11.4868 11.1616 11.4369 11.1685 11.375C11.6142 10.7625 12.0856 10.168 12.5816 9.59329L12.574 12.2429C12.5726 12.7263 12.7086 13.1091 12.982 13.3913C13.2626 13.6735 13.6482 13.8153 14.1388 13.8167L15.5999 13.8209L15.6035 12.5546L14.4022 12.5512C14.3084 12.5509 14.2255 12.5182 14.1535 12.4531C14.0888 12.3807 14.0566 12.2977 14.0568 12.2039L14.0644 9.56314L15.6121 9.56758L15.6157 8.30133L14.0681 8.29688L14.0689 8.0026C16.4356 5.66503 19.2102 3.77617 22.2581 2.43061C25.5496 0.977538 29.0952 0.186521 32.6926 0.102722C36.2899 0.0189235 39.8686 0.643984 43.2242 1.94222C46.5799 3.24045 49.6468 5.18642 52.2498 7.66904C54.8528 10.1517 56.941 13.1223 58.3952 16.4113L58.3917 16.4129C58.1694 16.5022 46.6299 21.1376 44.8637 21.946C43.7451 22.458 41.74 21.9981 40.4509 21.7023C39.6847 21.5266 39.1714 21.4088 39.2475 21.5876C39.3114 21.738 39.5303 21.8417 39.7878 21.9638C40.3521 22.2313 41.1024 22.587 40.8169 23.7142C40.5018 24.9586 36.6909 23.6364 34.8946 23.0131C34.3211 22.8142 33.953 22.6865 33.9695 22.7362C33.9867 22.7884 34.3584 22.9781 34.8582 23.2332C36.3272 23.9829 38.903 25.2976 36.8391 25.3456C34.4871 26.1216 33.4253 26.7186 32.2353 27.3878C31.4479 27.8305 30.6043 28.3049 29.2936 28.8835C27.8154 29.5361 26.0839 29.4741 24.7761 29.4273L24.7761 29.4273L24.7761 29.4273C24.0644 29.4018 23.4783 29.3808 23.1267 29.4819C22.9713 29.5266 23.0876 29.5855 23.27 29.6778C23.6054 29.8477 24.1645 30.1308 23.6713 30.6472C22.0929 32.2998 20.8863 32.6767 19.7586 33.029C19.1114 33.2312 18.4901 33.4252 17.8394 33.8477C16.055 35.0063 13.1067 35.9562 12.8327 35.9554C12.7026 35.955 12.6185 36.0627 12.5074 36.2051C12.3844 36.3627 12.2283 36.5628 11.94 36.7058C11.8031 36.7737 11.6236 36.85 11.4018 36.9442C10.7348 37.2277 9.68595 37.6735 8.26788 38.541L33.3313 27.4763L58.3917 16.4129L58.3949 16.4116L33.331 27.4765L8.26711 38.5415L8.26736 38.5413ZM13.7763 8.29605C13.8731 8.19746 13.9707 8.09965 14.0689 8.0026L14.072 6.91158L12.5893 6.90732L12.5853 8.29263L11.6438 8.28993L11.6401 9.55618L12.5817 9.55888L12.5816 9.59329C12.5915 9.58184 12.6014 9.5704 12.6113 9.55897C12.9023 9.22292 13.2018 8.89364 13.5095 8.57148C13.5978 8.47901 13.6867 8.3872 13.7763 8.29605ZM11.1685 11.375C11.1709 11.3541 11.173 11.3318 11.1749 11.3081C11.1824 11.2071 11.1863 11.1206 11.1865 11.0484C11.188 10.5145 11.0992 10.0308 10.9201 9.5974C10.7409 9.15676 10.4569 8.80601 10.0681 8.54515C9.68642 8.28431 9.18534 8.153 8.56484 8.15121C8.04535 8.14972 7.57963 8.26744 7.16769 8.50435C6.75574 8.74127 6.4301 9.07585 6.19075 9.50807C5.95141 9.94029 5.8309 10.4486 5.82923 11.033C5.82773 11.5525 5.95265 12.0219 6.20398 12.4411C6.46252 12.8603 6.82233 13.1932 7.28339 13.4399C7.75169 13.6793 8.2997 13.7999 8.92742 13.8017L9.59096 13.8037C9.83799 13.3753 10.0966 12.9538 10.3664 12.5396L8.9527 12.5356C8.68574 12.5348 8.44413 12.498 8.22789 12.4252C8.01888 12.3453 7.84244 12.2293 7.69857 12.0774C7.56192 11.9255 7.46505 11.7376 7.40797 11.5138L11.0607 11.5243C11.0965 11.4744 11.1324 11.4246 11.1685 11.375ZM9.44161 44.3239C10.8582 47.0047 12.7087 49.4284 14.9146 51.4984L14.9083 51.499L14.8943 51.5C14.8664 51.5018 14.6781 51.3672 14.5526 51.2252C14.528 51.199 14.5009 51.1767 14.4716 51.1525C14.4147 51.1057 14.3497 51.052 14.2793 50.9506C14.2611 50.9243 14.2365 50.9081 14.2092 50.8901C14.166 50.8616 14.1162 50.8287 14.0744 50.7447C13.2168 49.9465 12.9363 54.0963 12.7032 57.5467C12.5496 59.8195 12.4165 61.7888 12.1525 61.8408C11.7331 61.9918 11.7879 60.8768 11.8715 59.1734C11.9382 57.8127 12.0234 56.0764 11.9001 54.3103C11.6243 50.3603 10.221 45.8521 9.38373 44.2677L33.6141 31.4826L57.8446 18.6975C57.7586 18.7547 57.6729 18.8298 57.5879 18.9196L33.672 31.5388L9.44161 44.3239ZM57.5879 18.9196L57.9024 18.7536C59.5826 21.9333 60.6197 25.4126 60.9543 28.9927C61.2889 32.5729 60.9145 36.1838 59.8526 39.6194C58.7907 43.055 57.062 46.2479 54.7652 49.0158C52.4684 51.7838 49.6485 54.0726 46.4666 55.7516C43.2846 57.4306 39.8028 58.4668 36.22 58.8011C32.6373 59.1355 29.0237 58.7614 25.5856 57.7003C22.1475 56.6391 18.9523 54.9116 16.1823 52.6165C15.7477 52.2565 15.325 51.8835 14.9146 51.4984C15.9333 51.3995 16.7838 48.7644 16.7716 47.8897C16.7572 46.8506 17.5312 45.7698 17.5312 45.7698C18.5569 44.7933 18.8346 45.7222 19.0469 46.4322C19.1759 46.8635 19.2807 47.2139 19.5143 47.0077C19.7006 46.8431 19.9813 46.3304 20.3182 45.7152C21.0988 44.2897 22.1808 42.3137 23.0884 42.8423C24.0074 43.3775 23.9052 45.3403 23.8563 46.2797C23.8361 46.6685 23.825 46.882 23.8992 46.7465C24.1032 46.3737 24.3067 45.017 24.5264 43.5522L24.5264 43.5522C24.8106 41.6575 25.1219 39.5821 25.4964 39.2212C27.0579 37.7169 27.9838 42.4732 28.632 45.8034C28.9249 47.3079 29.1611 48.5213 29.3737 48.7349C29.5572 48.9193 29.6339 48.3962 29.7515 47.5952C30.0715 45.4145 30.6937 41.1742 34.5948 43.5475C38.252 45.7724 38.448 42.1189 38.5853 39.559C38.6483 38.3854 38.6989 37.4416 39.0651 37.3997C39.1733 37.3865 39.3332 37.2748 39.5243 37.1414C40.3016 36.5987 41.5947 35.6961 42.0149 39.5985C42.5385 44.4602 45.2052 37.4172 44.0728 34.9497C42.9405 32.4821 43.2747 28.4851 43.4754 28.308C43.6509 28.1532 43.9397 27.8788 44.285 27.5508C45.6405 26.263 47.8671 24.1476 47.5366 25.1832C47.3276 25.838 47.5662 25.6218 47.942 25.2815C48.312 24.9465 48.8148 24.4911 49.1543 24.6279C49.4898 24.7632 49.611 24.9636 49.7281 25.1572C49.8498 25.3585 49.967 25.5524 50.3159 25.6581C50.5883 25.573 51.3025 24.7376 52.0261 23.8912L52.0261 23.8912C52.7717 23.0191 53.5272 22.1353 53.8199 22.0486C54.7526 21.7722 55.0797 22.4183 55.249 22.7528C55.3107 22.8746 55.3514 22.9551 55.3929 22.9345C55.5566 22.8533 55.8129 22.276 56.1279 21.5664C56.5396 20.6393 57.0514 19.4864 57.5879 18.9196ZM10.7415 29.4706C10.9945 29.6199 11.3315 29.7556 11.7548 29.797C11.88 29.8092 11.9757 29.9211 11.9564 30.0454C11.9414 30.1412 11.8619 30.2135 11.7657 30.226C11.4104 30.2723 10.8577 30.3973 10.3091 30.5344C9.75614 30.6725 9.32554 30.0208 9.68159 29.5758C9.92253 29.2746 10.4094 29.2746 10.7415 29.4706ZM18.3198 26.8871C18.4496 26.9724 18.6192 26.866 18.5996 26.712C18.5923 26.6552 18.5597 26.6057 18.5104 26.5767C18.1897 26.3881 16.9047 25.6104 15.1844 24.281C13.7605 23.1805 12.8702 22.3449 12.4774 21.9569C12.3414 21.8225 12.1262 21.8034 11.9721 21.9167C11.7708 22.0647 11.7674 22.3636 11.9663 22.5147C12.5953 22.9926 13.8503 23.9332 14.8134 24.5733C15.855 25.2656 17.597 26.4118 18.3198 26.8871ZM19.72 28.7467C19.7592 28.8121 19.7039 28.8934 19.6287 28.8806C19.2098 28.809 18.1999 28.6362 17.5946 28.5298C17.286 28.4755 16.6655 28.4894 16.0292 28.5259C15.6244 28.5491 15.4586 27.9737 15.8198 27.7894C15.9386 27.7287 16.0818 27.7365 16.2006 27.797C16.4407 27.9195 16.9215 28.1292 17.704 28.3252C18.7403 28.5847 19.4719 28.6816 19.6533 28.7034C19.6812 28.7067 19.7056 28.7226 19.72 28.7467ZM17.762 52.4543C18.3587 50.563 19.0137 48.2009 18.8345 47.4379C18.8224 47.3866 18.8129 47.3371 18.8133 47.2844C18.8172 46.8138 19.0165 46.7972 19.0378 47.2673C19.1239 49.1645 19.1317 51.8237 19.1317 52.705C19.1317 52.8944 19.0517 53.0743 18.9117 53.2019C18.3902 53.6775 17.5496 53.1273 17.762 52.4543ZM6.02858 43.5708L62.8749 14.8324L63.0605 15.1991L6.21422 43.9375L6.02858 43.5708ZM0.379433 12.5109L0.375798 13.7772L3.21134 13.7853C3.54324 13.7863 3.84288 13.7114 4.11028 13.5606C4.37769 13.4027 4.59114 13.194 4.75062 12.9348C4.91012 12.6683 4.99032 12.3763 4.99124 12.0588C4.99242 11.6475 4.914 11.3154 4.75599 11.0624C4.59799 10.8094 4.37485 10.6248 4.08657 10.5085C3.79832 10.3851 3.45578 10.3227 3.05894 10.3216L2.01997 10.3186C1.90452 10.3183 1.80722 10.2819 1.72806 10.2096C1.64893 10.13 1.60952 10.0324 1.60985 9.91701C1.61018 9.80157 1.65014 9.70788 1.72971 9.63596C1.8165 9.56406 1.91401 9.52826 2.02223 9.52857L4.46816 9.53559L4.4718 8.26934L1.88517 8.26191C1.56771 8.261 1.27527 8.33953 1.00785 8.4975C0.747673 8.64827 0.537844 8.8533 0.378366 9.11259C0.226123 9.36468 0.149557 9.64585 0.148666 9.9561C0.147506 10.3602 0.229538 10.6887 0.394761 10.9417C0.567219 11.1875 0.793978 11.3685 1.07504 11.4848C1.36333 11.5938 1.68425 11.6489 2.03779 11.6499L3.07677 11.6529C3.16335 11.6531 3.23905 11.675 3.30386 11.7185C3.37591 11.7547 3.42987 11.8054 3.46576 11.8704C3.50887 11.9355 3.5303 12.0113 3.53005 12.0979C3.52982 12.1773 3.50797 12.2494 3.46449 12.3142C3.42823 12.379 3.37397 12.4293 3.30172 12.4652C3.23668 12.5011 3.16086 12.5189 3.07428 12.5187L0.379433 12.5109ZM9.70524 10.5247L7.40001 10.5181C7.42207 10.3738 7.45855 10.2332 7.50945 10.0963C7.56756 9.95936 7.64367 9.83692 7.73778 9.72897C7.83189 9.62101 7.94758 9.53476 8.08485 9.47022C8.22934 9.40569 8.39177 9.37369 8.57215 9.37421C8.70924 9.3746 8.83545 9.393 8.95079 9.42941C9.06613 9.46582 9.16699 9.51661 9.25339 9.5818C9.33979 9.64698 9.41532 9.72657 9.47998 9.82055C9.54465 9.91453 9.59485 10.0229 9.63057 10.1457C9.66631 10.2612 9.6912 10.3875 9.70524 10.5247ZM16.7614 12.558L16.7578 13.8242L19.5933 13.8324C19.9252 13.8333 20.2249 13.7584 20.4923 13.6077C20.7597 13.4497 20.9731 13.2411 21.1326 12.9818C21.2921 12.7153 21.3723 12.4233 21.3732 12.1058C21.3744 11.6946 21.296 11.3624 21.138 11.1095C20.98 10.8565 20.7568 10.6718 20.4686 10.5556C20.1803 10.4321 19.8378 10.3698 19.4409 10.3686L18.402 10.3657C18.2865 10.3653 18.1892 10.329 18.1101 10.2566C18.0309 10.177 17.9915 10.0795 17.9919 9.96403C17.9922 9.84859 18.0321 9.75491 18.1117 9.68299C18.1985 9.61108 18.296 9.57529 18.4042 9.5756L20.8502 9.58262L20.8538 8.31636L18.2672 8.30894C17.9497 8.30803 17.6573 8.38655 17.3899 8.54452C17.1297 8.69529 16.9198 8.90032 16.7604 9.15961C16.6081 9.41171 16.5316 9.69288 16.5307 10.0031C16.5295 10.4072 16.6115 10.7357 16.7768 10.9887C16.9492 11.2345 17.176 11.4156 17.457 11.5318C17.7453 11.6409 18.0663 11.6959 18.4198 11.6969L19.4588 11.6999C19.5454 11.7001 19.6211 11.722 19.6859 11.7655C19.7579 11.8018 19.8119 11.8524 19.8478 11.9175C19.8909 11.9825 19.9123 12.0583 19.9121 12.1449C19.9118 12.2243 19.89 12.2964 19.8465 12.3612C19.8102 12.426 19.756 12.4764 19.6837 12.5122C19.6187 12.5481 19.5429 12.566 19.4563 12.5657L16.7614 12.558ZM23.7732 13.6387C24.1766 13.8636 24.6597 13.9768 25.2225 13.9784C25.7925 13.98 26.2762 13.8696 26.6737 13.6471C27.0784 13.4245 27.3859 13.126 27.5962 12.7514C27.8137 12.3768 27.9231 11.9623 27.9244 11.5077L27.9335 8.33669L26.4508 8.33243L26.4417 11.5035C26.4411 11.7271 26.3864 11.9326 26.2776 12.1199C26.1689 12.3 26.0205 12.4439 25.8326 12.5515C25.6519 12.6593 25.4498 12.7128 25.2261 12.7121C25.0024 12.7115 24.797 12.6568 24.6097 12.548C24.4296 12.4393 24.2857 12.2946 24.178 12.1139C24.0703 11.926 24.0168 11.7202 24.0174 11.4965L24.0265 8.32547L22.5438 8.32122L22.5347 11.4923C22.5334 11.9468 22.6369 12.362 22.845 12.7378C23.0604 13.1136 23.3698 13.4139 23.7732 13.6387ZM29.333 10.6892L29.3239 13.8603L30.8066 13.8646L30.8157 10.6935C30.8163 10.4698 30.871 10.268 30.9798 10.0879C31.0885 9.90062 31.2333 9.75312 31.414 9.64541C31.6019 9.53772 31.8076 9.4842 32.0313 9.48484C32.255 9.48548 32.4568 9.54018 32.6369 9.64892C32.8242 9.75769 32.9717 9.90602 33.0794 10.0939C33.1871 10.2746 33.2406 10.4768 33.24 10.7005L33.2309 13.8715L34.7136 13.8758L34.7227 10.7047C34.724 10.2502 34.6169 9.83499 34.4016 9.45918C34.1934 9.08339 33.8876 8.78308 33.4842 8.55825C33.088 8.33345 32.6049 8.22022 32.0349 8.21859C31.4722 8.21697 30.9884 8.32742 30.5837 8.54993C30.1791 8.77244 29.8679 9.07097 29.6504 9.44554C29.4401 9.82013 29.3343 10.2347 29.333 10.6892ZM36.9755 13.6225C37.3499 13.8833 37.7897 14.0145 38.2948 14.0159C38.6122 14.0168 38.8865 13.9707 39.1177 13.8776C39.3488 13.7845 39.544 13.6587 39.7032 13.5005C39.8696 13.3422 40.0072 13.1658 40.116 12.9713L40.1376 12.9714L40.135 13.8913L41.6177 13.8956L41.6256 11.1466C41.6271 10.6127 41.5167 10.1254 41.2943 9.6846C41.0719 9.24383 40.7482 8.89297 40.3232 8.632C39.8983 8.37103 39.3756 8.23966 38.7551 8.23788C38.1418 8.23612 37.6147 8.36448 37.1738 8.62296C36.733 8.87423 36.3929 9.21958 36.1535 9.65902C35.9214 10.0985 35.8045 10.5888 35.803 11.1299C35.8015 11.6566 35.9011 12.1403 36.1018 12.581C36.3098 13.0145 36.6011 13.3617 36.9755 13.6225ZM39.4679 12.5366C39.2582 12.6803 39.0091 12.7517 38.7205 12.7509C38.4247 12.75 38.1687 12.6771 37.9527 12.5322C37.7439 12.3873 37.5821 12.192 37.4673 11.9464C37.3598 11.6936 37.3065 11.4156 37.3074 11.1126C37.3083 10.8095 37.3631 10.5391 37.4721 10.3013C37.5882 10.0564 37.7511 9.86202 37.9608 9.71832C38.1776 9.57464 38.434 9.50322 38.7298 9.50407C39.0184 9.5049 39.2671 9.57777 39.4759 9.72267C39.6848 9.86757 39.8429 10.0628 39.9505 10.3085C40.0652 10.5469 40.1222 10.8176 40.1213 11.1207C40.1204 11.4237 40.0619 11.7013 39.9457 11.9535C39.8368 12.1985 39.6775 12.3929 39.4679 12.5366Z" fill="#92FF26"/>
</svg>
