<svg width="1369" height="493" viewBox="0 0 1369 493" fill="none" xmlns="http://www.w3.org/2000/svg">
<path fill-rule="evenodd" clip-rule="evenodd" d="M71.7801 306.208C61.1657 282.199 55.3874 256.337 54.7752 230.098C54.1629 203.858 58.7287 177.755 68.2119 153.278C77.6951 128.802 91.9099 106.432 110.045 87.4448C128.18 68.4581 149.879 53.2265 173.905 42.6199C197.931 32.0133 223.812 26.2393 250.071 25.6276C276.329 25.0159 302.452 29.5785 326.946 39.0549C351.44 48.5313 373.827 62.7358 392.828 80.8576C411.828 98.9793 427.071 120.663 437.685 144.672L437.685 144.672C437.685 144.672 351.932 179.111 338.914 185.07C330.749 188.807 316.113 185.45 306.703 183.291C301.11 182.008 297.364 181.148 297.919 182.454C298.386 183.551 299.983 184.309 301.863 185.2C305.982 187.152 311.459 189.748 309.375 197.977C307.075 207.06 279.257 197.409 266.145 192.859L266.145 192.859C261.959 191.407 259.273 190.475 259.392 190.838C259.518 191.219 262.232 192.603 265.88 194.466C276.603 199.938 295.405 209.534 280.339 209.885C263.171 215.549 255.421 219.907 246.734 224.792C240.987 228.024 234.829 231.486 225.261 235.71C214.472 240.473 201.832 240.021 192.286 239.679C187.091 239.493 182.813 239.34 180.246 240.078C179.112 240.404 179.961 240.834 181.293 241.508C183.741 242.748 187.822 244.814 184.222 248.583C172.7 260.647 163.893 263.398 155.661 265.969C150.937 267.445 146.402 268.862 141.652 271.946C128.627 280.403 107.106 287.336 105.106 287.33C104.156 287.328 103.543 288.114 102.731 289.154C101.834 290.304 100.694 291.764 98.5895 292.808C97.5903 293.304 96.2798 293.861 94.6615 294.548C89.7916 296.618 82.1338 299.873 71.7801 306.208ZM71.7801 306.208L71.7802 306.208L71.7796 306.208L71.7801 306.208ZM120.3 400.787C123.297 403.599 126.383 406.321 129.555 408.949C149.774 425.703 173.098 438.312 198.194 446.058C223.29 453.804 249.667 456.535 275.819 454.094C301.972 451.653 327.387 444.089 350.613 431.834C373.84 419.578 394.424 402.871 411.189 382.667C427.954 362.462 440.573 339.155 448.324 314.078C456.076 289 458.808 262.642 456.366 236.509C453.923 210.376 446.354 184.979 434.089 161.769L431.793 162.981C432.414 162.325 433.039 161.776 433.667 161.358L256.799 254.683L79.9301 348.007C86.0414 359.572 96.2847 392.48 98.2982 421.312C99.1985 434.204 98.5765 446.877 98.0891 456.81C97.4789 469.244 97.0795 477.383 100.14 476.281C102.068 475.901 103.039 461.526 104.16 444.936C105.862 419.75 107.909 389.459 114.17 395.285C114.474 395.898 114.838 396.138 115.153 396.346C115.353 396.478 115.532 396.596 115.665 396.788C116.179 397.529 116.654 397.92 117.069 398.262C117.283 398.438 117.481 398.602 117.66 398.793C118.576 399.829 119.951 400.812 120.154 400.799C120.203 400.796 120.252 400.792 120.3 400.787ZM133.858 374.445C133.946 380.831 127.737 400.068 120.3 400.787C104.199 385.677 90.692 367.986 80.3516 348.418L257.22 255.094L431.793 162.981C427.877 167.119 424.141 175.533 421.137 182.3C418.838 187.479 416.967 191.693 415.772 192.286C415.469 192.437 415.172 191.849 414.721 190.96C413.485 188.518 411.098 183.802 404.289 185.819C402.153 186.452 396.638 192.903 391.196 199.27L391.196 199.27C385.914 205.448 380.701 211.546 378.712 212.167C376.166 211.395 375.31 209.98 374.422 208.511C373.567 207.098 372.682 205.634 370.233 204.647C367.755 203.649 364.085 206.973 361.384 209.418C358.641 211.902 356.899 213.48 358.425 208.7C360.838 201.141 344.585 216.582 334.69 225.982L334.689 225.983L334.684 225.988C332.166 228.38 330.061 230.38 328.78 231.51C327.315 232.802 324.876 261.979 333.141 279.99C341.407 298.002 321.942 349.412 318.12 313.924C315.052 285.438 305.614 292.027 299.939 295.989C298.545 296.963 297.377 297.777 296.588 297.874C293.915 298.18 293.545 305.069 293.085 313.636C292.083 332.322 290.652 358.99 263.957 342.75C235.481 325.426 230.939 356.377 228.603 372.296C227.745 378.142 227.185 381.961 225.846 380.615C224.294 379.056 222.57 370.198 220.432 359.217C215.7 334.908 208.942 300.189 197.544 311.17C194.81 313.804 192.538 328.954 190.463 342.784C188.859 353.476 187.374 363.379 185.885 366.1C185.343 367.09 185.424 365.531 185.572 362.693C185.929 355.836 186.675 341.509 179.967 337.602C173.342 333.744 165.444 348.167 159.746 358.573C157.287 363.064 155.238 366.806 153.877 368.007C152.173 369.513 151.408 366.954 150.466 363.806C148.916 358.624 146.889 351.843 139.402 358.971C139.402 358.971 133.752 366.86 133.858 374.445ZM470.387 133.145L55.4398 342.919L56.7949 345.596L471.742 135.822L470.387 133.145ZM97.2379 242.379C94.148 242.076 91.6887 241.087 89.8418 239.997C87.4173 238.566 83.8636 238.566 82.1049 240.764C79.5059 244.013 82.649 248.77 86.685 247.761C90.6896 246.761 94.724 245.849 97.318 245.511C98.0198 245.419 98.6004 244.891 98.7094 244.192C98.8508 243.285 98.1518 242.468 97.2379 242.379ZM147.202 219.86C147.345 220.984 146.107 221.761 145.16 221.139C139.884 217.67 127.168 209.303 119.564 204.249C112.534 199.577 103.374 192.711 98.7826 189.222C97.3308 188.119 97.3555 185.938 98.8248 184.858C99.9495 184.031 101.521 184.17 102.513 185.151C105.381 187.983 111.879 194.083 122.273 202.115C134.83 211.82 144.21 217.496 146.551 218.873C146.911 219.085 147.149 219.446 147.202 219.86ZM154.714 235.689C155.263 235.783 155.667 235.189 155.381 234.712C155.275 234.536 155.097 234.42 154.893 234.396C153.569 234.237 148.229 233.53 140.665 231.635C134.953 230.205 131.444 228.674 129.691 227.78C128.823 227.338 127.778 227.281 126.911 227.724C124.275 229.07 125.485 233.27 128.44 233.1C133.085 232.834 137.613 232.732 139.866 233.128C144.284 233.905 151.656 235.167 154.714 235.689ZM148.915 371.148C150.223 376.717 145.442 393.96 141.086 407.765C139.536 412.678 145.672 416.693 149.479 413.222C150.501 412.29 151.085 410.977 151.085 409.595C151.084 403.162 151.028 383.751 150.399 369.903C150.244 366.471 148.789 366.592 148.761 370.027C148.758 370.412 148.827 370.773 148.915 371.148ZM528.238 290.05L528.172 313.027L579.626 313.175C585.649 313.192 591.086 311.833 595.939 309.098C600.791 306.231 604.664 302.445 607.558 297.74C610.453 292.904 611.908 287.606 611.925 281.845C611.946 274.382 610.523 268.355 607.656 263.765C604.789 259.174 600.74 255.824 595.508 253.714C590.278 251.473 584.062 250.342 576.861 250.322L558.007 250.267C555.913 250.261 554.147 249.602 552.711 248.288C551.274 246.844 550.559 245.074 550.565 242.98C550.571 240.885 551.296 239.185 552.74 237.88C554.315 236.575 556.085 235.925 558.049 235.931L602.433 236.058L602.499 213.081L555.561 212.946C549.801 212.929 544.494 214.354 539.641 217.221C534.92 219.957 531.113 223.677 528.219 228.382C525.456 232.957 524.067 238.059 524.05 243.689C524.029 251.021 525.518 256.982 528.516 261.574C531.646 266.034 535.76 269.319 540.861 271.429C546.092 273.408 551.915 274.406 558.331 274.425L577.184 274.479C578.756 274.483 580.129 274.88 581.305 275.669C582.613 276.327 583.592 277.247 584.243 278.427C585.025 279.607 585.414 280.983 585.41 282.554C585.406 283.995 585.009 285.303 584.22 286.479C583.562 287.655 582.577 288.569 581.266 289.22C580.086 289.871 578.71 290.195 577.139 290.19L528.238 290.05ZM653.519 306.906C662.016 311.251 671.961 313.44 683.351 313.473L711.632 313.554L711.698 290.576L683.81 290.496C678.966 290.482 674.582 289.815 670.658 288.495C666.865 287.043 663.663 284.939 661.052 282.182C658.573 279.426 656.815 276.017 655.779 271.955L723.534 272.149C723.798 271.234 723.999 269.925 724.134 268.223C724.271 266.391 724.341 264.82 724.344 263.51C724.372 253.822 722.761 245.045 719.51 237.18C716.26 229.184 711.107 222.819 704.05 218.086C697.124 213.352 688.032 210.969 676.772 210.937C667.345 210.91 658.894 213.046 651.419 217.345C643.944 221.645 638.034 227.716 633.691 235.559C629.348 243.402 627.161 252.626 627.131 263.231C627.104 272.658 629.371 281.175 633.931 288.782C638.623 296.389 645.152 302.431 653.519 306.906ZM697.466 254.006L655.635 253.886C656.035 251.269 656.697 248.718 657.621 246.233C658.675 243.748 660.056 241.526 661.764 239.567C663.472 237.608 665.571 236.043 668.062 234.872C670.684 233.701 673.631 233.12 676.905 233.13C679.392 233.137 681.683 233.471 683.775 234.132C685.868 234.792 687.699 235.714 689.267 236.897C690.834 238.08 692.205 239.524 693.378 241.229C694.552 242.935 695.463 244.901 696.111 247.129C696.76 249.226 697.211 251.518 697.466 254.006ZM756.926 306.025C762.018 311.146 769.015 313.719 777.918 313.744L804.431 313.82L804.497 290.843L782.697 290.78C780.995 290.775 779.491 290.182 778.185 289C777.011 287.687 776.426 286.18 776.431 284.478L776.569 236.558L804.652 236.639L804.718 213.661L776.634 213.581L776.707 188.443L749.801 188.365L749.729 213.503L732.643 213.454L732.577 236.432L749.663 236.481L749.523 285.186C749.498 293.958 751.966 300.904 756.926 306.025ZM825.509 290.903L825.443 313.881L876.897 314.028C882.92 314.046 888.357 312.687 893.21 309.951C898.062 307.085 901.935 303.299 904.829 298.594C907.724 293.758 909.179 288.459 909.196 282.698C909.217 275.236 907.794 269.209 904.927 264.618C902.06 260.027 898.011 256.677 892.78 254.567C887.549 252.326 881.333 251.196 874.132 251.175L855.278 251.121C853.184 251.115 851.418 250.455 849.982 249.142C848.546 247.697 847.83 245.928 847.836 243.833C847.842 241.738 848.567 240.038 850.011 238.733C851.586 237.428 853.356 236.779 855.32 236.784L899.704 236.912L899.77 213.934L852.832 213.799C847.072 213.783 841.765 215.208 836.912 218.074C832.191 220.81 828.384 224.531 825.49 229.236C822.727 233.81 821.338 238.913 821.321 244.542C821.3 251.874 822.789 257.836 825.787 262.427C828.917 266.887 833.031 270.172 838.132 272.282C843.363 274.261 849.186 275.26 855.602 275.278L874.455 275.332C876.027 275.337 877.4 275.733 878.576 276.522C879.884 277.181 880.863 278.1 881.514 279.28C882.296 280.461 882.685 281.837 882.681 283.408C882.677 284.848 882.28 286.156 881.491 287.332C880.833 288.509 879.848 289.422 878.537 290.073C877.357 290.725 875.981 291.048 874.41 291.043L825.509 290.903ZM952.746 310.515C960.066 314.594 968.832 316.649 979.044 316.678C989.388 316.708 998.166 314.704 1005.38 310.666C1012.72 306.628 1018.3 301.211 1022.12 294.413C1026.07 287.616 1028.05 280.094 1028.07 271.845L1028.24 214.303L1001.33 214.226L1001.17 271.768C1001.16 275.827 1000.17 279.555 998.191 282.954C996.218 286.221 993.527 288.832 990.117 290.786C986.838 292.741 983.169 293.712 979.11 293.701C975.052 293.689 971.323 292.696 967.925 290.723C964.657 288.749 962.046 286.123 960.092 282.844C958.137 279.435 957.166 275.7 957.178 271.642L957.343 214.099L930.437 214.022L930.272 271.565C930.249 279.813 932.125 287.347 935.903 294.166C939.811 300.985 945.425 306.435 952.746 310.515ZM1053.63 256.993L1053.47 314.535L1080.38 314.613L1080.54 257.07C1080.55 253.011 1081.54 249.348 1083.52 246.081C1085.49 242.682 1088.12 240.006 1091.4 238.051C1094.81 236.097 1098.54 235.126 1102.6 235.137C1106.66 235.149 1110.32 236.142 1113.59 238.115C1116.99 240.089 1119.66 242.78 1121.62 246.19C1123.57 249.469 1124.54 253.138 1124.53 257.196L1124.37 314.739L1151.27 314.816L1151.44 257.274C1151.46 249.025 1149.52 241.491 1145.61 234.672C1141.83 227.853 1136.28 222.403 1128.96 218.323C1121.77 214.244 1113.01 212.189 1102.67 212.16C1092.45 212.13 1083.67 214.135 1076.33 218.172C1068.99 222.21 1063.34 227.627 1059.39 234.424C1055.58 241.222 1053.66 248.744 1053.63 256.993ZM1192.32 310.22C1199.11 314.953 1207.09 317.333 1216.26 317.359C1222.02 317.376 1227 316.539 1231.19 314.849C1235.38 313.159 1238.93 310.878 1241.81 308.006C1244.83 305.134 1247.33 301.934 1249.31 298.404L1249.7 298.405L1249.65 315.098L1276.56 315.176L1276.7 265.292C1276.73 255.604 1274.72 246.76 1270.69 238.762C1266.65 230.764 1260.78 224.397 1253.07 219.662C1245.36 214.926 1235.87 212.542 1224.61 212.51C1213.48 212.478 1203.92 214.807 1195.92 219.498C1187.92 224.057 1181.75 230.324 1177.4 238.298C1173.19 246.273 1171.07 255.17 1171.04 264.989C1171.01 274.547 1172.82 283.324 1176.46 291.321C1180.24 299.188 1185.52 305.488 1192.32 310.22ZM1237.54 290.515C1233.74 293.122 1229.22 294.419 1223.98 294.404C1218.61 294.388 1213.97 293.066 1210.05 290.436C1206.26 287.806 1203.32 284.263 1201.24 279.805C1199.29 275.217 1198.32 270.174 1198.34 264.675C1198.36 259.176 1199.35 254.269 1201.33 249.954C1203.44 245.508 1206.39 241.982 1210.2 239.374C1214.13 236.767 1218.78 235.471 1224.15 235.486C1229.39 235.501 1233.9 236.824 1237.69 239.453C1241.48 242.083 1244.35 245.626 1246.3 250.083C1248.38 254.41 1249.42 259.322 1249.4 264.821C1249.39 270.32 1248.32 275.358 1246.22 279.934C1244.24 284.38 1241.35 287.907 1237.54 290.515Z" fill="#F4F4F4"/>
</svg>
