<svg width="1506" height="502" viewBox="0 0 1506 502" fill="none" xmlns="http://www.w3.org/2000/svg">
<path fill-rule="evenodd" clip-rule="evenodd" d="M550.118 12.5207L50.8606 11.0875L50.5697 112.42L32.7126 112.368C30.3953 112.362 28.2606 112.935 26.3086 114.088C24.4095 115.188 22.8778 116.685 21.7137 118.578C20.6024 120.418 20.0435 122.47 20.037 124.735C20.0286 127.684 20.6274 130.082 21.8334 131.929C23.0922 133.723 24.7475 135.045 26.799 135.893C28.9034 136.689 31.2459 137.091 33.8266 137.099L41.4106 137.12C42.0426 137.122 42.5951 137.282 43.0682 137.599C43.5941 137.864 43.9881 138.234 44.25 138.709C44.5647 139.183 44.7211 139.737 44.7193 140.369C44.7176 140.948 44.5581 141.474 44.2407 141.948C43.976 142.421 43.58 142.788 43.0526 143.05C42.5778 143.312 42.0244 143.442 41.3924 143.44L21.7215 143.384L21.695 152.627L42.3929 152.686C44.8156 152.693 47.0028 152.146 48.9546 151.046C49.4862 150.732 49.9886 150.391 50.4617 150.022L49.497 486.086L548.754 487.519L550.118 12.5207ZM50.5202 129.649C51.8057 130.455 52.855 131.509 53.668 132.811C54.8214 134.657 55.3937 137.082 55.3851 140.083C55.3785 142.401 54.793 144.532 53.6288 146.477C52.7817 147.855 51.726 149.036 50.4617 150.022L50.5202 129.649ZM50.5202 129.649C49.9821 129.312 49.4025 129.018 48.7816 128.767C46.6775 127.866 44.1771 127.411 41.2805 127.403L33.6965 127.381C32.8538 127.379 32.1436 127.113 31.5658 126.585C30.9881 126.004 30.7005 125.292 30.7029 124.45C30.7053 123.607 30.9969 122.923 31.5778 122.398C32.2113 121.873 32.9231 121.612 33.7131 121.614L50.5431 121.663L50.5202 129.649ZM50.5431 121.663L50.5697 112.42L51.5935 112.422L51.567 121.665L50.5431 121.663ZM165.572 406.966C149.495 391.882 136.009 374.222 125.685 354.686L302.281 261.521L476.584 169.566C472.674 173.696 468.945 182.096 465.945 188.851L465.945 188.852L465.945 188.852C463.649 194.023 461.781 198.23 460.587 198.821C460.285 198.971 459.988 198.385 459.539 197.497C458.305 195.06 455.921 190.351 449.123 192.365C446.99 192.997 441.484 199.437 436.05 205.792L436.05 205.792L436.05 205.793C430.776 211.961 425.571 218.048 423.585 218.668C421.043 217.898 420.188 216.485 419.301 215.018C418.448 213.607 417.564 212.147 415.119 211.161C412.645 210.164 408.98 213.483 406.284 215.924C403.545 218.404 401.806 219.979 403.329 215.207C405.738 207.661 389.51 223.076 379.631 232.46L379.629 232.462L379.627 232.463C377.113 234.852 375.009 236.85 373.73 237.978C372.267 239.268 369.832 268.395 378.085 286.376C386.338 304.357 366.902 355.679 363.086 320.252C360.024 291.815 350.6 298.392 344.934 302.347C343.541 303.319 342.376 304.133 341.587 304.229C338.918 304.535 338.549 311.412 338.091 319.964C337.09 338.618 335.661 365.241 309.007 349.028C280.575 331.734 276.04 362.633 273.708 378.524C272.851 384.361 272.292 388.173 270.954 386.829C269.405 385.272 267.684 376.43 265.549 365.467C260.824 341.2 254.076 306.54 242.696 317.503C239.967 320.132 237.698 335.256 235.626 349.062C234.025 359.736 232.542 369.623 231.055 372.339C230.514 373.327 230.595 371.771 230.743 368.938C231.099 362.092 231.844 347.789 225.146 343.889C218.532 340.038 210.645 354.437 204.956 364.824C202.501 369.307 200.455 373.043 199.097 374.242C197.395 375.745 196.631 373.191 195.691 370.049C194.144 364.875 192.119 358.106 184.644 365.222C184.644 365.222 179.003 373.098 179.108 380.67C179.197 387.045 172.998 406.249 165.572 406.966ZM165.572 406.966C168.563 409.773 171.645 412.491 174.812 415.115C195 431.84 218.288 444.428 243.346 452.16C268.403 459.893 294.739 462.619 320.851 460.183C346.963 457.746 372.339 450.195 395.53 437.961C418.721 425.726 439.273 409.047 456.012 388.877C472.751 368.707 485.351 345.44 493.09 320.405C500.83 295.37 503.558 269.057 501.119 242.968C498.68 216.88 491.122 191.527 478.877 168.356L476.584 169.566C477.204 168.911 477.829 168.363 478.456 167.946L301.86 261.111L125.264 354.276C131.366 365.822 141.593 398.673 143.604 427.456C144.502 440.326 143.881 452.978 143.395 462.894C142.786 475.307 142.387 483.432 145.443 482.332C147.367 481.953 148.337 467.602 149.456 451.04C151.156 425.897 153.2 395.658 159.45 401.474C159.755 402.086 160.118 402.326 160.433 402.533C160.632 402.665 160.811 402.783 160.944 402.975C161.456 403.714 161.931 404.105 162.345 404.446C162.559 404.622 162.757 404.785 162.935 404.976C163.85 406.01 165.223 406.991 165.426 406.978C165.448 406.977 165.471 406.975 165.493 406.973C165.52 406.971 165.546 406.969 165.572 406.966ZM117.126 312.548C106.528 288.581 100.759 262.763 100.148 236.568C99.5363 210.373 104.095 184.314 113.564 159.88C114.601 157.203 115.695 154.551 116.845 151.926C118.373 152.58 120.144 152.909 122.157 152.915L132.822 152.946L132.849 143.703L124.08 143.678C123.395 143.676 122.79 143.437 122.265 142.961C121.945 142.604 121.734 142.212 121.632 141.783C130.454 124.376 141.8 108.324 155.332 94.1585C173.439 75.2041 195.105 59.9985 219.094 49.41C243.082 38.8214 268.924 33.0573 295.142 32.4467C321.36 31.8361 347.442 36.3909 371.899 45.8511C396.355 55.3114 418.707 69.4917 437.679 87.5826C456.65 105.673 471.869 127.321 482.468 151.288L482.467 151.288C482.467 151.288 396.846 185.669 383.848 191.617C375.696 195.348 361.083 191.997 351.687 189.842C346.103 188.561 342.362 187.703 342.917 189.006C343.383 190.101 344.978 190.857 346.855 191.747C350.968 193.696 356.435 196.288 354.355 204.502C352.058 213.57 324.284 203.935 311.192 199.393C307.013 197.944 304.33 197.013 304.449 197.375C304.575 197.756 307.284 199.138 310.926 200.997L310.927 200.997C321.633 206.46 340.406 216.04 325.364 216.39C308.222 222.045 300.484 226.395 291.811 231.271L291.811 231.271C286.072 234.498 279.924 237.954 270.371 242.171C259.598 246.926 246.978 246.474 237.447 246.133L237.446 246.133L237.446 246.133C232.26 245.948 227.988 245.795 225.425 246.531C224.293 246.857 225.14 247.286 226.47 247.959C228.914 249.197 232.989 251.26 229.395 255.023C217.89 267.065 209.097 269.812 200.878 272.379C196.161 273.852 191.633 275.266 186.891 278.345C173.886 286.787 152.397 293.709 150.4 293.703C149.452 293.701 148.84 294.486 148.03 295.523C147.133 296.672 145.996 298.13 143.894 299.172C142.897 299.666 141.589 300.222 139.973 300.909L139.972 300.909C135.11 302.975 127.464 306.224 117.126 312.548ZM117.126 312.548L117.126 312.549L117.126 312.549L117.126 312.548ZM121.614 121.867L121.559 141.142C121.558 141.364 121.583 141.578 121.632 141.783C119.943 145.116 118.346 148.498 116.845 151.926C115.654 151.417 114.61 150.712 113.713 149.81C111.718 147.75 110.725 144.956 110.735 141.427L110.791 121.835L103.918 121.816L103.945 112.573L110.818 112.593L110.847 102.481L121.67 102.512L121.641 112.624L132.938 112.656L132.911 121.899L121.614 121.867ZM515.117 139.779L100.81 349.195L102.165 351.872L516.472 142.455L515.117 139.779ZM142.545 248.828C139.459 248.527 137.003 247.538 135.159 246.45C132.739 245.021 129.192 245.022 127.436 247.216C124.841 250.459 127.978 255.209 132.008 254.202C136.007 253.203 140.035 252.292 142.625 251.955C143.326 251.864 143.905 251.337 144.014 250.639C144.155 249.733 143.457 248.917 142.545 248.828ZM192.431 226.348C192.575 227.47 191.338 228.246 190.393 227.624C185.125 224.161 172.429 215.809 164.837 210.764C157.818 206.099 148.671 199.245 144.087 195.763C142.638 194.661 142.662 192.483 144.129 191.405C145.252 190.58 146.821 190.719 147.812 191.698C150.675 194.525 157.164 200.615 167.541 208.634C180.079 218.322 189.445 223.988 191.782 225.363C192.141 225.574 192.379 225.935 192.431 226.348ZM199.932 242.15C200.48 242.244 200.884 241.651 200.598 241.174C200.493 240.999 200.315 240.883 200.111 240.859C198.789 240.701 193.457 239.994 185.905 238.103C180.202 236.675 176.697 235.146 174.947 234.254C174.081 233.813 173.038 233.757 172.172 234.198C169.54 235.542 170.748 239.735 173.698 239.566C178.336 239.3 182.858 239.198 185.108 239.594C189.519 240.37 196.879 241.629 199.932 242.15ZM194.142 377.378C195.448 382.938 190.675 400.15 186.326 413.931C184.778 418.836 190.904 422.845 194.705 419.38C195.725 418.45 196.309 417.139 196.309 415.759C196.308 409.337 196.252 389.959 195.624 376.135C195.469 372.709 194.016 372.829 193.988 376.259C193.985 376.644 194.054 377.004 194.142 377.378ZM72.1166 150.165C75.5349 151.912 79.5351 152.793 84.1171 152.806L95.493 152.839L95.5196 143.596L84.3016 143.564C82.3529 143.558 80.5894 143.29 79.0109 142.758C77.4852 142.175 76.1973 141.328 75.1472 140.219C74.1497 139.11 73.4426 137.739 73.026 136.105L100.281 136.183C100.387 135.815 100.468 135.289 100.522 134.604C100.577 133.867 100.605 133.235 100.607 132.708C100.618 128.811 99.9698 125.28 98.6622 122.117C97.3548 118.9 95.2818 116.34 92.4432 114.436C89.6574 112.532 85.9998 111.573 81.4705 111.56C77.6785 111.549 74.279 112.409 71.272 114.138C68.265 115.867 65.888 118.31 64.141 121.465C62.3939 124.62 61.5142 128.33 61.502 132.596C61.4911 136.388 62.4029 139.814 64.2375 142.874C66.1247 145.934 68.7511 148.364 72.1166 150.165ZM89.7948 128.885L72.9678 128.837C73.1288 127.784 73.3951 126.758 73.7667 125.758C74.1909 124.759 74.7464 123.865 75.4334 123.077C76.1203 122.289 76.9648 121.659 77.9668 121.188C79.0215 120.717 80.2072 120.484 81.5238 120.487C82.5245 120.49 83.4458 120.625 84.2877 120.89C85.1296 121.156 85.8659 121.527 86.4965 122.003C87.1271 122.479 87.6785 123.059 88.1505 123.745C88.6225 124.432 88.9889 125.223 89.2497 126.119C89.5106 126.962 89.6923 127.884 89.7948 128.885ZM141.301 143.727L141.275 152.97L161.972 153.03C164.395 153.036 166.582 152.49 168.534 151.389C170.486 150.236 172.044 148.713 173.208 146.821C174.373 144.875 174.958 142.744 174.965 140.427C174.973 137.425 174.401 135 173.248 133.154C172.094 131.307 170.465 129.959 168.361 129.111C166.257 128.209 163.757 127.755 160.86 127.746L153.276 127.724C152.433 127.722 151.723 127.457 151.145 126.928C150.568 126.347 150.28 125.636 150.282 124.793C150.285 123.95 150.577 123.266 151.157 122.741C151.791 122.216 152.503 121.955 153.293 121.957L171.147 122.009L171.173 112.766L152.292 112.712C149.975 112.705 147.84 113.278 145.888 114.431C143.989 115.532 142.457 117.028 141.293 118.921C140.182 120.761 139.623 122.814 139.617 125.078C139.608 128.028 140.207 130.426 141.413 132.272C142.672 134.067 144.327 135.388 146.379 136.237C148.483 137.033 150.826 137.434 153.406 137.442L160.99 137.464C161.622 137.465 162.175 137.625 162.648 137.942C163.174 138.207 163.568 138.577 163.83 139.052C164.144 139.527 164.301 140.08 164.299 140.712C164.297 141.291 164.138 141.818 163.82 142.291C163.556 142.764 163.16 143.132 162.632 143.393C162.157 143.655 161.604 143.785 160.972 143.784L141.301 143.727ZM192.483 151.616C195.428 153.257 198.954 154.084 203.062 154.095C207.223 154.107 210.754 153.301 213.655 151.677C216.609 150.053 218.854 147.873 220.389 145.139C221.977 142.405 222.775 139.379 222.785 136.061L222.851 112.914L212.028 112.883L211.962 136.03C211.957 137.663 211.558 139.162 210.764 140.53C209.97 141.844 208.887 142.894 207.516 143.68C206.197 144.466 204.721 144.857 203.088 144.853C201.456 144.848 199.956 144.449 198.589 143.655C197.274 142.861 196.224 141.804 195.438 140.486C194.652 139.114 194.261 137.612 194.266 135.979L194.332 112.832L183.509 112.801L183.443 135.948C183.433 139.266 184.188 142.297 185.708 145.04C187.28 147.783 189.538 149.975 192.483 151.616ZM233.066 130.087L233 153.233L243.823 153.264L243.889 130.118C243.894 128.485 244.293 127.011 245.087 125.697C245.881 124.33 246.937 123.253 248.256 122.467C249.628 121.681 251.13 121.29 252.763 121.295C254.395 121.3 255.869 121.699 257.183 122.493C258.55 123.287 259.627 124.369 260.413 125.741C261.199 127.06 261.59 128.536 261.585 130.168L261.519 153.315L272.342 153.346L272.408 130.199C272.418 126.881 271.636 123.851 270.064 121.108C268.545 118.365 266.313 116.173 263.368 114.531C260.476 112.89 256.95 112.064 252.789 112.052C248.681 112.04 245.15 112.846 242.196 114.471C239.242 116.095 236.971 118.274 235.383 121.008C233.848 123.742 233.076 126.769 233.066 130.087ZM288.853 151.498C291.586 153.402 294.796 154.359 298.482 154.369C300.8 154.376 302.802 154.039 304.489 153.36C306.177 152.68 307.601 151.762 308.763 150.607C309.978 149.452 310.982 148.164 311.776 146.745L311.934 146.745L311.915 153.46L322.738 153.491L322.796 133.425C322.807 129.528 322.001 125.97 320.377 122.753C318.754 119.536 316.391 116.975 313.289 115.07C310.187 113.165 306.372 112.206 301.843 112.193C297.366 112.18 293.519 113.117 290.3 115.004C287.082 116.838 284.6 119.359 282.853 122.566C281.158 125.774 280.305 129.353 280.294 133.303C280.283 137.148 281.01 140.679 282.475 143.895C283.994 147.06 286.119 149.594 288.853 151.498ZM307.045 143.571C305.515 144.62 303.697 145.141 301.59 145.135C299.431 145.129 297.562 144.597 295.986 143.539C294.461 142.481 293.28 141.056 292.443 139.263C291.658 137.417 291.269 135.389 291.275 133.177C291.282 130.965 291.682 128.991 292.477 127.255C293.325 125.467 294.514 124.048 296.044 122.999C297.627 121.95 299.499 121.429 301.658 121.435C303.765 121.441 305.58 121.973 307.104 123.031C308.629 124.089 309.783 125.514 310.568 127.307C311.406 129.047 311.821 131.024 311.815 133.236C311.809 135.448 311.382 137.474 310.534 139.315C309.739 141.103 308.576 142.522 307.045 143.571Z" fill="#F4F4F4"/>
</svg>
